<svg width="150" height="110" viewBox="0 0 150 110" fill="none" xmlns="http://www.w3.org/2000/svg">
<path opacity="0.32" d="M8 93.7536C8 57.2106 15 3.08691 74.1667 3.08691C131 3.08691 140.333 57.2106 140.333 93.7536H8Z" fill="#69ADF7"/>
<path d="M42.9769 59.5602L44.8703 58.2225L43.0613 54.4702L40.8356 55.1185L38.3273 52.2065L39.2979 50.1015L35.8549 47.7565L34.2516 49.4308L30.6236 48.1632L30.4116 45.8545L26.2576 45.5452L25.7063 47.7968L21.9303 48.5132L20.5926 46.6198L16.8403 48.4288L17.4883 50.6545L14.5763 53.1628L12.4713 52.1922L10.1263 55.6352L11.8006 57.2385L10.5329 60.8668L8.22462 61.0785L7.91528 65.2328L10.1669 65.7842L10.8833 69.5602L8.98995 70.8978L10.7989 74.6502L13.0246 74.0018L15.5329 76.9138L14.5619 79.0188L18.0049 81.3638L19.6083 79.6895L23.2366 80.9572L23.4483 83.2658L27.6026 83.5752L28.1543 81.3235L31.9303 80.6072L33.2679 82.5005L37.0203 80.6915L36.3719 78.4658L39.2839 75.9575L41.389 76.9282L43.7339 73.4852L42.0596 71.8818L43.3273 68.2535L45.6356 68.0418L45.945 63.8875L43.6933 63.3362L42.9769 59.5602ZM28.9096 73.8928C23.7553 74.9865 18.6903 71.6945 17.5966 66.5402C16.503 61.3858 19.7949 56.3208 24.9493 55.2272C30.1036 54.1335 35.1686 57.4255 36.2623 62.5798C37.3559 67.7338 34.0643 72.7992 28.9096 73.8928Z" fill="#A4BBF9" fill-opacity="0.1"/>
<path d="M74.1223 24.6333L77.154 23.33L75.7433 17.5703L72.4527 17.8153L69.8203 13.0193L71.794 10.375L67.6927 6.09233L64.9653 7.95L60.2877 5.11267L60.6747 1.83567L54.9817 0.177668L53.5487 3.15L48.079 3.03167L46.7757 0L41.016 1.41033L41.261 4.701L36.4653 7.33333L33.821 5.35967L29.5383 9.461L31.396 12.1883L28.5587 16.866L25.2817 16.479L23.6233 22.1723L26.5957 23.6053L26.4773 29.0747L23.4457 30.378L24.856 36.1377L28.1467 35.8927L30.779 40.6887L28.805 43.333L32.9063 47.6157L35.6337 45.758L40.3113 48.5953L39.924 51.8723L45.6173 53.5307L47.0507 50.5583L52.52 50.6767L53.8233 53.7083L59.583 52.298L59.338 49.0073L64.134 46.375L66.7787 48.3487L71.0614 44.2473L69.2037 41.52L72.041 36.8423L75.318 37.2293L76.9763 31.536L74.0037 30.103L74.1223 24.6333ZM50.2997 40.435C42.7993 40.435 36.719 34.3547 36.719 26.854C36.719 19.3533 42.7993 13.2733 50.2997 13.2733C57.8 13.2733 63.8807 19.3537 63.8807 26.854C63.8807 34.3543 57.8003 40.435 50.2997 40.435Z" fill="#A4BBF9" fill-opacity="0.1"/>
<path d="M80.6045 92.1434C103.208 92.1434 121.532 73.8195 121.532 51.2158C121.532 28.612 103.208 10.2881 80.6045 10.2881C58.0008 10.2881 39.6769 28.612 39.6769 51.2158C39.6769 73.8195 58.0008 92.1434 80.6045 92.1434Z" stroke="white" stroke-opacity="0.1" stroke-width="3.4444" stroke-miterlimit="10" stroke-dasharray="13.78 13.78"/>
<path d="M143.664 57.3343C143.846 60.8987 135.735 61.8797 124.421 63.2603C113.107 64.6407 101.809 71.909 101.809 71.909C101.809 71.909 107.673 57.5233 121.659 53.2867C135.646 49.0503 143.485 53.859 143.664 57.3343Z" fill="#82AD85"/>
<path d="M139.12 56.7121C139.12 56.7121 116.166 52.3441 101.809 71.9091" stroke="white" stroke-opacity="0.1" stroke-width="0.9219" stroke-miterlimit="10" stroke-linecap="round"/>
<path d="M137.962 54.0391L135.232 56.3317L137.962 58.9774" stroke="white" stroke-opacity="0.1" stroke-width="0.9219" stroke-miterlimit="10" stroke-linecap="round"/>
<path d="M131.815 52.5557L127.9 56.6567L133.151 60.3643" stroke="white" stroke-opacity="0.1" stroke-width="0.9219" stroke-miterlimit="10" stroke-linecap="round"/>
<path d="M123.823 54.0391L121.285 58.0657L125.223 61.7681" stroke="white" stroke-opacity="0.1" stroke-width="0.9219" stroke-miterlimit="10" stroke-linecap="round"/>
<path d="M110.523 61.7683L109.732 63.8593L111.115 64.9663" stroke="white" stroke-opacity="0.1" stroke-width="0.9219" stroke-miterlimit="10" stroke-linecap="round"/>
<path d="M121.481 30.9656C121.292 30.314 114.621 32.7473 114.621 32.7473C114.621 32.7473 114.823 38.375 114.187 38.4563C113.552 38.538 109.732 35.6086 109.732 35.6086C109.732 35.6086 104.229 39.5473 101.808 44.9666C101.808 44.9666 105.089 48.6013 104.911 49.583C104.733 50.5646 98.5857 51.588 98.5857 51.588C98.5857 51.588 97.5577 56.6706 97.849 61.1006C97.849 61.1006 100.902 62.0566 100.902 62.502C100.902 62.9473 97.797 65.2636 97.797 65.2636C97.797 65.2636 97.3347 70.5196 98.0047 71.3216C98.6747 72.1233 104.465 69.0943 104.465 69.0943C104.465 69.0943 104.711 65.3526 105.435 64.64C106.158 63.9273 109.326 66.689 109.326 66.689C109.326 66.689 114.575 61.7773 116.602 58.977C118.63 56.1766 118.848 54.961 118.848 54.961C118.848 54.961 114.02 52.5223 114.187 51.588C114.354 50.6536 121.481 49.583 121.481 49.583C121.481 49.583 122.55 44.097 122.55 40.9166C122.55 40.9166 118.006 41.2813 117.739 40.4443C117.472 39.6073 122.55 36.173 122.55 36.173C122.55 36.173 122.283 33.7273 121.481 30.9656Z" fill="#8BBB90"/>
<path d="M119.878 32.7476C119.878 32.7476 107.666 55.6069 98.0049 71.3222" stroke="white" stroke-opacity="0.1" stroke-width="0.9219" stroke-miterlimit="10" stroke-linecap="round"/>
<path d="M140.837 67.1736C140.94 67.7376 132.538 80.4806 118.686 81.4163C104.834 82.3523 98.9171 75.059 98.9171 75.059C98.9171 75.059 105.61 65.8006 116.842 63.8563C128.074 61.9126 140.683 66.3326 140.837 67.1736Z" fill="#8BBB90"/>
<path d="M98.9172 75.0593C98.9172 75.0593 119.613 69.5913 135.36 68.6479" stroke="white" stroke-opacity="0.1" stroke-width="0.9219" stroke-miterlimit="10" stroke-linecap="round"/>
<path d="M131.483 65.8809L128.965 69.2305L132.801 71.9612" stroke="white" stroke-opacity="0.1" stroke-width="0.9219" stroke-miterlimit="10" stroke-linecap="round"/>
<path d="M126.049 65.5081L123.075 70.0401L128.165 75.0194" stroke="white" stroke-opacity="0.1" stroke-width="0.9219" stroke-miterlimit="10" stroke-linecap="round"/>
<path d="M111.052 68.373L108.639 72.7597L111.313 77.3547" stroke="white" stroke-opacity="0.1" stroke-width="0.9219" stroke-miterlimit="10" stroke-linecap="round"/>
<path d="M118.693 79.915C118.693 79.915 118.617 82.6814 119.136 84.5364" stroke="#BA5454" stroke-width="0.9219" stroke-miterlimit="10" stroke-linecap="round"/>
<path d="M48.1978 41.2005C48.0037 40.6555 47.8514 37.7985 47.8514 37.7985V26.4285C47.8514 24.6595 46.4174 23.2258 44.6487 23.2258H16.7147C14.9461 23.2258 13.5121 24.6598 13.5121 26.4285V42.4838C13.5121 44.2525 14.9461 45.6865 16.7147 45.6865H41.7594H44.6487H52.3981C52.3981 45.6865 48.8011 42.8945 48.1978 41.2005Z" fill="#69ADF7"/>
<path d="M24.4373 33.7067C25.4367 32.7073 25.4367 31.0871 24.4373 30.0877C23.438 29.0884 21.8177 29.0884 20.8184 30.0877C19.819 31.0871 19.819 32.7073 20.8184 33.7067C21.8177 34.706 23.438 34.706 24.4373 33.7067Z" fill="#1F3E56"/>
<path d="M18.3275 39.9489C18.3275 37.5736 20.2532 35.6479 22.6285 35.6479C25.0038 35.6479 26.9295 37.5736 26.9295 39.9489H18.3275Z" fill="#1F3E56"/>
<path d="M43.7821 31.8975H29.1458C28.6915 31.8975 28.3231 31.5292 28.3231 31.0749C28.3231 30.6205 28.6915 30.2522 29.1458 30.2522H43.7821C44.2365 30.2522 44.6048 30.6205 44.6048 31.0749C44.6048 31.5292 44.2365 31.8975 43.7821 31.8975Z" fill="#1F3E56"/>
<path d="M43.7821 34.9617H29.1458C28.6915 34.9617 28.3231 34.5934 28.3231 34.1391C28.3231 33.6847 28.6915 33.3164 29.1458 33.3164H43.7821C44.2365 33.3164 44.6048 33.6847 44.6048 34.1391C44.6048 34.5934 44.2365 34.9617 43.7821 34.9617Z" fill="#1F3E56"/>
<path d="M36.2848 38.3602H29.1458C28.6915 38.3602 28.3231 37.9918 28.3231 37.5375C28.3231 37.0832 28.6915 36.7148 29.1458 36.7148H36.2848C36.7391 36.7148 37.1075 37.0832 37.1075 37.5375C37.1071 37.9918 36.7388 38.3602 36.2848 38.3602Z" fill="#1F3E56"/>
<path d="M47.8514 26.8537H13.5121V26.3971C13.5121 24.6457 14.9318 23.2261 16.6831 23.2261H44.6801C46.4314 23.2261 47.8514 24.6457 47.8514 26.3971V26.8537Z" fill="#1F3E56"/>
<path d="M40.5586 26.0465C41.0457 26.0465 41.4406 25.6516 41.4406 25.1645C41.4406 24.6774 41.0457 24.2825 40.5586 24.2825C40.0715 24.2825 39.6766 24.6774 39.6766 25.1645C39.6766 25.6516 40.0715 26.0465 40.5586 26.0465Z" fill="white" fill-opacity="0.1"/>
<path d="M44.3319 25.1645C44.3319 25.6515 43.9372 26.0465 43.4499 26.0465C42.9629 26.0465 42.5679 25.6515 42.5679 25.1645C42.5679 24.6775 42.9625 24.2825 43.4499 24.2825C43.9372 24.2825 44.3319 24.6771 44.3319 25.1645Z" fill="white" fill-opacity="0.1"/>
<path d="M37.6676 26.0465C38.1548 26.0465 38.5496 25.6516 38.5496 25.1645C38.5496 24.6774 38.1548 24.2825 37.6676 24.2825C37.1805 24.2825 36.7856 24.6774 36.7856 25.1645C36.7856 25.6516 37.1805 26.0465 37.6676 26.0465Z" fill="white" fill-opacity="0.1"/>
<path d="M86.5647 25.4134H63.2027C62.1093 25.4134 61.2227 24.527 61.2227 23.4334V15.708C61.2227 14.6144 62.109 13.728 63.2027 13.728H86.5647C87.6583 13.728 88.5447 14.6144 88.5447 15.708V23.4334C88.5447 24.5267 87.658 25.4134 86.5647 25.4134Z" fill="#CC8C40"/>
<path d="M86.6054 25.4134H64.2744C63.2034 25.4134 62.3351 24.545 62.3351 23.474V15.6674C62.3351 14.5964 63.2034 13.728 64.2744 13.728H86.6054C87.6764 13.728 88.5447 14.5964 88.5447 15.6674V23.474C88.5447 24.545 87.6764 25.4134 86.6054 25.4134Z" fill="#F4B247"/>
<path d="M62.3353 15.6672C62.3353 15.6672 68.392 25.4132 84.1417 25.4132H64.185C63.1637 25.4132 62.3357 24.5852 62.3357 23.5639V15.6672H62.3353Z" fill="#E5A345"/>
<path d="M81.9962 13.728L86.4559 14.6314C86.4559 14.6314 87.8105 14.953 87.8105 16.4574C87.8105 17.9617 87.8105 24.9914 87.8105 24.9914C87.8105 24.9914 88.5445 24.47 88.5445 23.474C88.5445 22.4777 88.5445 15.6674 88.5445 15.6674C88.5445 15.6674 88.4482 13.728 86.6052 13.728C84.7622 13.728 81.9962 13.728 81.9962 13.728Z" fill="#F2CD70"/>
<path d="M66.4329 22.0462V16.8672H67.4785V18.9055H69.5275V16.8672H70.5732V22.0462H69.5275V19.7815H67.4785V22.0462H66.4329Z" fill="white" fill-opacity="0.1"/>
<path d="M71.6542 22.0462V16.8672H75.4942V17.7432H72.6998V18.8915H75.2998V19.7642H72.6998V21.1735H75.5932V22.0462H71.6542Z" fill="white" fill-opacity="0.1"/>
<path d="M76.5083 22.0461V16.9094H77.554V21.1734H80.1543V22.0461H76.5083Z" fill="white" fill-opacity="0.1"/>
<path d="M80.8995 22.0462V16.8672H82.5772C83.2132 16.8672 83.6275 16.8932 83.8205 16.9449C84.1175 17.0225 84.3662 17.1915 84.5659 17.4519C84.7662 17.7122 84.8662 18.0485 84.8662 18.4605C84.8662 18.7785 84.8085 19.0455 84.6929 19.2625C84.5772 19.4792 84.4309 19.6492 84.2532 19.7729C84.0755 19.8965 83.8945 19.9785 83.7109 20.0182C83.4612 20.0675 83.0995 20.0925 82.6262 20.0925H81.9445V22.0462H80.8995ZM81.9452 17.7432V19.2129H82.5175C82.9295 19.2129 83.2052 19.1859 83.3442 19.1315C83.4829 19.0775 83.5919 18.9925 83.6709 18.8772C83.7495 18.7619 83.7889 18.6275 83.7889 18.4742C83.7889 18.2859 83.7332 18.1305 83.6229 18.0079C83.5119 17.8855 83.3719 17.8089 83.2025 17.7782C83.0775 17.7549 82.8265 17.7429 82.4499 17.7429H81.9452V17.7432Z" fill="white" fill-opacity="0.1"/>
<path d="M95.1229 17.5277C97.4725 17.5277 99.3772 15.623 99.3772 13.2734C99.3772 10.9238 97.4725 9.01904 95.1229 9.01904C92.7733 9.01904 90.8685 10.9238 90.8685 13.2734C90.8685 15.623 92.7733 17.5277 95.1229 17.5277Z" fill="#A4BBF9" fill-opacity="0.1"/>
<path d="M92.4947 7.83594L89.921 2.68727L92.7327 1.79761L93.5894 7.48961L92.4947 7.83594Z" fill="#A4BBF9" fill-opacity="0.1"/>
<path d="M100.714 10.6544L106.227 8.99707L106.624 11.9191L100.869 11.7921L100.714 10.6544Z" fill="#A4BBF9" fill-opacity="0.1"/>
<path d="M97.4366 7.62959L99.5546 2.27759L102.093 3.77825L98.425 8.21392L97.4366 7.62959Z" fill="#A4BBF9" fill-opacity="0.1"/>
<path d="M150 106.324H0L9.557 93.9399H140.443L150 106.324Z" fill="#8CB0FF"/>
<path d="M146.605 109.719H3.395C1.52 109.719 0 108.199 0 106.324H150C150 108.199 148.48 109.719 146.605 109.719Z" fill="#8CB0FF"/>
<path d="M62.6996 71.1603L58.995 73.659C58.995 73.659 58.8193 62.9646 59.1043 56.7196C59.3893 50.4746 59.7956 47.5783 60.0896 46.1863C60.3836 44.7943 60.8716 43.839 70.0673 43.1406L62.6996 71.1603Z" fill="#151230"/>
<path d="M62.6995 71.1602C62.9031 64.0869 63.7645 51.6272 63.9818 48.6759C64.1988 45.7246 62.8315 42.2776 82.8721 42.4276C102.913 42.5776 102.566 42.2359 102.717 50.2949C102.868 58.3539 103.452 71.7522 103.452 71.7522C103.452 71.7522 94.4161 73.4429 84.6961 74.2486C74.9761 75.0539 62.6995 71.1602 62.6995 71.1602Z" fill="#211944"/>
<path d="M67.3718 57.8806C67.3718 57.8806 85.8585 56.5579 99.2875 57.1609" stroke="white" stroke-opacity="0.1" stroke-width="0.9219" stroke-miterlimit="10" stroke-linecap="round"/>
<path d="M78.0629 61.4922C78.0629 61.4922 75.2389 62.0375 73.3706 62.5735C71.5019 63.1095 66.9089 65.2889 64.8929 70.6755C62.8769 76.0622 58.4122 94.9645 58.4122 94.9645C58.4122 94.9645 72.6052 97.2945 84.9212 97.2402C97.2369 97.1859 109.118 93.8929 109.118 93.8929C109.118 93.8929 102.648 72.6682 101.404 69.1862C100.16 65.7042 97.2856 62.6235 93.6992 61.8049C90.1129 60.9865 88.0912 60.8042 88.0912 60.8042L78.0629 61.4922Z" fill="#407BFF"/>
<path d="M81.1747 32.1563C77.1827 32.6926 73.605 36.3026 74.2824 44.1473C74.9597 51.9923 77.7967 55.3126 83.2417 55.4416C88.6867 55.5706 91.3754 49.0876 90.7897 42.3989C90.2044 35.7109 87.6494 31.2866 81.1747 32.1563Z" fill="#E4897B"/>
<path d="M74.2349 43.4819C74.2349 43.4819 73.1479 44.0252 72.9663 43.0399C72.7846 42.0546 72.3249 37.1912 73.0679 34.8276C73.8109 32.4639 75.4816 31.3276 77.8346 30.8352C80.1873 30.3429 89.1516 29.3199 90.6629 32.2266C92.1743 35.1332 91.9666 41.8226 91.9666 41.8226C91.9666 41.8226 91.6089 42.7096 90.7899 42.3992C90.7899 42.3992 90.3246 31.8659 82.5983 32.0499C74.6569 32.2386 74.1306 40.0292 74.2349 43.4819Z" fill="#1F3E56"/>
<path d="M82.745 41.8076C82.745 41.8076 83.5597 45.7153 83.561 46.3553C83.5627 46.9953 82.851 47.506 82.851 47.506" stroke="#BA5454" stroke-width="0.9219" stroke-miterlimit="10" stroke-linecap="round"/>
<path d="M79.4523 49.2522L85.7626 49.7562C85.7626 49.7562 84.8533 52.1232 82.4249 51.7719C80.0093 51.4222 79.4523 49.2522 79.4523 49.2522Z" fill="white" fill-opacity="0.1"/>
<path d="M79.7171 43.7424C79.6664 44.1021 79.3338 44.3531 78.9741 44.3024C78.6144 44.2521 78.3634 43.9194 78.4141 43.5594C78.4648 43.1994 78.7974 42.9488 79.1571 42.9994C79.5168 43.0501 79.7678 43.3828 79.7171 43.7424Z" fill="#1F3E56"/>
<path d="M78.1315 41.665C78.1315 41.665 78.6931 40.9676 80.0541 41.3413" stroke="#1F3E56" stroke-width="2.2963" stroke-miterlimit="10" stroke-linecap="round"/>
<path d="M76.129 44.9663C76.129 44.9663 77.3847 45.1226 78.1494 45.6873" stroke="#BA5454" stroke-width="0.9219" stroke-miterlimit="10" stroke-linecap="round"/>
<path d="M73.6006 41.2534C73.6006 41.2534 73.0679 34.8278 74.4789 33.2434C76.4376 31.0434 77.8349 30.8354 77.8349 30.8354C77.8349 30.8354 78.0933 29.9678 78.2749 29.6831C78.2749 29.6831 74.1076 30.6604 73.1373 33.6034C72.1669 36.5464 72.7963 41.6138 72.7963 41.6138L73.6006 41.2534Z" fill="#85AAFF"/>
<path d="M91.3595 40.3171C91.3595 40.3171 91.1735 33.8721 89.5955 32.4548C87.4041 30.4864 85.9925 30.4351 85.9925 30.4351C85.9925 30.4351 85.6391 29.6014 85.4271 29.3391C85.4271 29.3391 89.6771 29.8468 90.9691 32.6634C92.2611 35.4801 92.1995 40.5858 92.1995 40.5858L91.3595 40.3171Z" fill="#85AAFF"/>
<path d="M74.2841 41.2135C74.2841 41.2135 72.3131 40.9015 71.7791 43.3812C71.2451 45.8605 72.4441 48.6019 74.8837 48.0465C74.8837 48.0465 74.0667 45.1129 74.2841 41.2135Z" fill="#85AAFF"/>
<path opacity="0.27" d="M71.6711 44.1519C71.6711 44.1519 73.8165 45.0155 74.8838 48.0462C74.8838 48.0462 71.5808 48.7235 71.6711 44.1519Z" fill="#85AAFF"/>
<path d="M90.5188 40.1608C90.5188 40.1608 92.4448 39.6388 93.2421 42.0468C94.0395 44.4545 93.1418 47.3088 90.6568 47.0185C90.6568 47.0185 91.1538 44.0141 90.5188 40.1608Z" fill="#85AAFF"/>
<path opacity="0.27" d="M93.4329 42.8018C93.4329 42.8018 91.3929 43.8911 90.6572 47.0188C90.6572 47.0188 94.0136 47.3371 93.4329 42.8018Z" fill="#85AAFF"/>
<path d="M73.5809 47.9489C73.5809 47.9489 73.4572 47.2902 72.5819 47.3232C72.5819 47.3232 71.4519 51.2602 73.3972 52.3296C75.3425 53.3989 80.4452 52.7742 80.4452 52.7742L80.5779 51.8289C80.5779 51.8289 76.0892 52.0369 74.4039 51.4652C72.7189 50.8936 73.5809 47.9489 73.5809 47.9489Z" fill="#85AAFF"/>
<path d="M80.4861 50.8767C79.8161 51.1171 79.4071 51.4651 79.4247 51.8607C79.4424 52.2564 79.3644 53.5051 80.3354 53.5564C81.3064 53.6077 83.3844 53.7317 83.9651 53.4781C84.5454 53.2244 84.6811 51.0641 83.8477 51.0307C83.0141 50.9977 81.0077 50.6897 80.4861 50.8767Z" fill="#85AAFF"/>
<path d="M79.0532 54.4371L78.0629 61.4924C78.0629 61.4924 80.6252 63.2351 83.4825 62.8818C86.3402 62.5284 88.0909 60.8044 88.0909 60.8044L86.8482 54.3638L79.0532 54.4371Z" fill="#E4897B"/>
<path d="M79.0531 54.4373C79.0531 54.4373 80.6478 55.5086 83.2415 55.4419C85.8355 55.3753 86.8481 54.3643 86.8481 54.3643L87.2181 56.2816C87.2181 56.2816 85.6941 57.5766 83.1295 57.6359C80.5648 57.6949 78.7725 56.4376 78.7725 56.4376L79.0531 54.4373Z" fill="#FFB573"/>
<path d="M114.472 44.6758C113.717 45.1024 113.743 46.1731 114.097 47.3471C114.451 48.5211 115.615 54.0888 115.615 54.0888C115.615 54.0888 116.053 57.7391 116.849 58.5424C116.849 58.5424 118.812 79.5918 118.693 79.9151C118.573 80.2384 113.207 76.3038 113.207 76.3038L107.412 88.0681C107.412 88.0681 115.692 97.0731 124.16 93.6744C132.627 90.2761 128.694 73.4991 127.236 67.0164C125.778 60.5338 124.894 58.9258 124.894 58.9258C124.894 58.9258 125.762 58.0158 125.509 56.1308C125.255 54.2454 123.697 50.1054 123.497 49.9294C123.297 49.7534 116.987 49.3751 116.987 49.3751C116.987 49.3751 116.17 46.7601 115.987 45.9551C115.804 45.1501 114.852 44.4608 114.472 44.6758Z" fill="#E4897B"/>
<path d="M54.8733 78.4194L63.5746 84.9291C63.5746 84.9291 57.5663 95.6238 53.9723 95.5398C50.3783 95.4561 47.4856 92.9464 47.889 89.2171C48.2923 85.4881 54.8733 78.4194 54.8733 78.4194Z" fill="#E4897B"/>
<path d="M58.5913 84.4697C58.5913 84.4697 74.6603 89.0091 79.6116 90.1247C84.5629 91.2404 88.0473 91.2487 91.3856 93.5804C94.7239 95.9121 95.3093 97.7367 94.3519 98.5641C94.3519 98.5641 93.2943 99.6774 92.2313 98.6871C92.2313 98.6871 91.7113 99.3954 90.7426 99.0191C89.7739 98.6427 89.0976 97.4661 87.7679 97.5197C86.4383 97.5734 86.3869 98.8884 82.7656 98.7404C79.1439 98.5927 53.9186 96.7287 51.5169 95.0661C49.1149 93.4034 49.6869 84.5421 58.5913 84.4697Z" fill="#E4897B"/>
<path d="M89.792 95.6362C89.792 95.6362 91.805 97.0242 92.2313 98.6872" stroke="#BA5454" stroke-width="0.9219" stroke-miterlimit="10" stroke-linecap="round"/>
<path d="M91.5889 94.863C91.5889 94.863 93.7955 96.9144 94.3519 98.564" stroke="#BA5454" stroke-width="0.9219" stroke-miterlimit="10" stroke-linecap="round"/>
<path d="M54.2103 77.9224L63.9533 85.2227C63.9533 85.2227 73.5903 68.9831 73.3707 62.5737C73.3707 62.5737 69.2723 63.1797 64.6027 67.4851C59.933 71.7904 54.2103 77.9224 54.2103 77.9224Z" fill="#407BFF"/>
<path d="M96.099 62.7351C96.099 62.7351 103.8 67.1198 113.682 75.5154L107.412 88.0678C107.412 88.0678 94.7783 71.7211 93.7333 67.5581C92.6883 63.3958 96.099 62.7351 96.099 62.7351Z" fill="#407BFF"/>
<path d="M77.7732 31.2605C77.8982 29.6562 79.0242 28.5345 80.3852 27.6289C81.7462 26.7232 83.3529 26.6745 83.5589 27.1602C83.7649 27.6462 83.4016 28.2805 83.4016 28.2805C83.4016 28.2805 86.8796 26.6209 88.4576 28.0762C90.0356 29.5319 90.1952 31.9762 89.8446 32.5212C89.4939 33.0662 87.6869 32.2642 87.6869 32.2642C87.6869 32.2642 88.8452 34.7575 87.4069 35.5612C85.9686 36.3649 83.0412 35.4055 81.8006 33.1745C81.8006 33.1745 77.5159 34.5659 77.7732 31.2605Z" fill="#1F3E56"/>
<path d="M85.9082 43.7424C85.9588 44.1021 86.2915 44.3531 86.6512 44.3024C87.0108 44.2521 87.2618 43.9194 87.2112 43.5594C87.1605 43.1994 86.8278 42.9488 86.4682 42.9994C86.1085 43.0501 85.8578 43.3828 85.9082 43.7424Z" fill="#1F3E56"/>
<path d="M87.4937 41.665C87.4937 41.665 86.932 40.9676 85.571 41.3413" stroke="#1F3E56" stroke-width="2.2963" stroke-miterlimit="10" stroke-linecap="round"/>
<path d="M88.8655 44.9663C88.8655 44.9663 87.6099 45.1226 86.8452 45.6873" stroke="#BA5454" stroke-width="0.9219" stroke-miterlimit="10" stroke-linecap="round"/>
<path d="M115.615 54.0888C114.767 53.7578 114.388 57.8168 116.401 57.7334C118.415 57.6501 121.292 56.1304 121.476 55.3424C121.661 54.5544 119.037 54.2741 118.002 54.2698C116.966 54.2658 116.554 54.4554 115.615 54.0888Z" fill="#E4897B"/>
<path d="M115.615 54.0889C115.615 54.0889 116.14 54.3479 116.987 54.3095C117.834 54.2712 120.419 54.1929 121.381 55.0185C122.342 55.8442 118.419 57.3059 118.419 57.3059" stroke="#BA5454" stroke-width="0.9219" stroke-miterlimit="10" stroke-linecap="round"/>
<path d="M100.481 73.6921H98.9568C97.3718 73.6921 96.0032 74.8011 95.6745 76.3515L90.3212 101.597H94.4615L100.481 73.6921Z" fill="#151230"/>
<path d="M135.055 101.597H92.2295L97.3248 76.2765C97.6275 74.7735 98.9478 73.6921 100.481 73.6921H136.738C138.772 73.6921 140.296 75.5535 139.895 77.5468L135.055 101.597Z" fill="#211944"/>
<path d="M92.2296 101.597H73.0496C71.6673 101.597 70.5466 100.477 70.5466 99.0944V98.7471H92.8033L92.2296 101.597Z" fill="#151230"/>
<path d="M117.566 93.0136C119.665 93.0136 121.367 91.3119 121.367 89.2126C121.367 87.1134 119.665 85.4116 117.566 85.4116C115.467 85.4116 113.765 87.1134 113.765 89.2126C113.765 91.3119 115.467 93.0136 117.566 93.0136Z" fill="#6B94F7"/>
<path d="M116.987 49.3748C116.987 49.3748 117.869 54.6881 118.647 54.9454C119.424 55.2024 122.141 55.0721 123.183 55.0074C124.225 54.9431 125.185 54.4738 125.059 53.1651C124.931 51.8448 124.079 49.3338 123.007 49.0604C121.936 48.7871 117.067 47.7478 116.987 49.3748Z" fill="#EC6B65"/>
<path d="M118.928 48.4817L120.654 55.098" stroke="#BA5454" stroke-width="0.9219" stroke-miterlimit="10" stroke-linecap="round"/>
<path d="M121.409 48.7275L123.003 55.0182" stroke="#BA5454" stroke-width="0.9219" stroke-miterlimit="10" stroke-linecap="round"/>
<path d="M117.116 50.0991C117.116 50.0991 117.826 54.1041 118.419 54.7381C119.012 55.3721 123.183 55.0075 123.183 55.0075" stroke="#BA5454" stroke-width="0.9219" stroke-miterlimit="10" stroke-linecap="round"/>
<path d="M48.4165 73.3564H20.0212C20.0212 73.3564 18.7645 73.4688 18.7645 79.9928V100.273H44.3932C44.3932 100.273 46.2709 99.7518 46.2709 94.4014C46.2709 94.4014 46.2709 80.1801 46.2709 78.9131C46.2709 77.6454 46.3512 73.3564 48.4165 73.3564Z" fill="#6B94F7"/>
<path d="M48.4167 73.3564C49.0934 73.3564 49.2437 76.1301 49.2437 77.7084C49.2437 79.2871 49.2437 81.3918 49.2437 81.3918H46.2714V78.9128C46.2714 78.9128 46.0864 73.3564 48.4167 73.3564Z" fill="#5A80CC"/>
<path d="M41.5753 80.6913H22.7843C22.4516 80.6913 22.1823 80.4216 22.1823 80.0893V79.9643C22.1823 79.6316 22.4519 79.3623 22.7843 79.3623H41.5753C41.9079 79.3623 42.1773 79.632 42.1773 79.9643V80.0893C42.1773 80.4216 41.9079 80.6913 41.5753 80.6913Z" fill="#1F3E56"/>
<path d="M41.5753 85.12H22.7843C22.4516 85.12 22.1823 84.8503 22.1823 84.518V84.393C22.1823 84.0603 22.4519 83.791 22.7843 83.791H41.5753C41.9079 83.791 42.1773 84.0607 42.1773 84.393V84.518C42.1773 84.8507 41.9079 85.12 41.5753 85.12Z" fill="#1F3E56"/>
<path d="M41.5753 89.549H22.7843C22.4516 89.549 22.1823 89.2793 22.1823 88.947V88.822C22.1823 88.4893 22.4519 88.22 22.7843 88.22H41.5753C41.9079 88.22 42.1773 88.4896 42.1773 88.822V88.947C42.1773 89.2793 41.9079 89.549 41.5753 89.549Z" fill="#1F3E56"/>
<path d="M41.5753 93.9777H22.7843C22.4516 93.9777 22.1823 93.708 22.1823 93.3757V93.2507C22.1823 92.918 22.4519 92.6487 22.7843 92.6487H41.5753C41.9079 92.6487 42.1773 92.9183 42.1773 93.2507V93.3757C42.1773 93.708 41.9079 93.9777 41.5753 93.9777Z" fill="#1F3E56"/>
<path d="M15.116 92.8928H41.6513C41.6513 92.8928 41.047 100.273 44.3936 100.273H18.765C18.765 100.273 15.116 99.5832 15.116 92.8928Z" fill="#80AAFF"/>
<path d="M118.18 25.4321H101.431C100.242 25.4321 99.2783 26.3961 99.2783 27.5851V34.6668C98.7466 37.5161 94.9886 40.7221 94.9886 40.7221C99.3396 40.5415 101.898 39.5055 101.898 39.5055H118.181C119.37 39.5055 120.334 38.5415 120.334 37.3525V27.5851C120.333 26.3958 119.369 25.4321 118.18 25.4321Z" fill="white" fill-opacity="0.1"/>
<path d="M110.922 32.5285C110.922 33.3065 110.291 33.9372 109.513 33.9372C108.735 33.9372 108.105 33.3065 108.105 32.5285C108.105 31.7505 108.735 31.1199 109.513 31.1199C110.291 31.1199 110.922 31.7505 110.922 32.5285Z" fill="#1F3E56"/>
<path d="M115.54 32.5285C115.54 33.3065 114.909 33.9372 114.131 33.9372C113.353 33.9372 112.723 33.3065 112.723 32.5285C112.723 31.7505 113.353 31.1199 114.131 31.1199C114.909 31.1199 115.54 31.7505 115.54 32.5285Z" fill="#1F3E56"/>
<path d="M104.895 33.9372C105.673 33.9372 106.304 33.3065 106.304 32.5285C106.304 31.7506 105.673 31.1199 104.895 31.1199C104.117 31.1199 103.487 31.7506 103.487 32.5285C103.487 33.3065 104.117 33.9372 104.895 33.9372Z" fill="#1F3E56"/>
</svg>
