<svg width="180" height="121" viewBox="0 0 180 121" fill="none" xmlns="http://www.w3.org/2000/svg">
<path d="M180.166 105.397H-0.166504V105.487H180.166V105.397Z" fill="#5D6B82"/>
<path d="M39.8272 108.331H37.5431V108.421H39.8272V108.331Z" fill="#EBEBEB"/>
<path d="M93.0087 105.398H103.428V69.8422H93.0087V105.398Z" fill="#243757"/>
<path d="M94.9878 105.397H93.0088V102.101H97.0627L94.9878 105.397Z" fill="#F0F0F0"/>
<path d="M152.457 105.398H162.876V69.8422H152.457V105.398Z" fill="#42526D"/>
<path d="M93.0094 104.533L154.185 104.533V69.8421H93.0094V104.533Z" fill="#7A8699"/>
<path d="M134.016 71.9028V102.609H152.15V71.9028H134.016Z" fill="#6B788E"/>
<path d="M141.289 73.6624H144.877C146.435 73.6624 147.925 72.9459 148.997 71.6812H137.169C138.241 72.9459 139.731 73.6624 141.289 73.6624Z" fill="#7A8699"/>
<path d="M114.529 71.9028V102.609H132.664V71.9028H114.529Z" fill="#243757"/>
<path d="M121.619 73.6624H125.207C126.765 73.6624 128.255 72.9459 129.327 71.6812H117.499C118.571 72.9459 120.061 73.6624 121.619 73.6624Z" fill="#F0F0F0"/>
<path d="M95.0431 71.9028V102.609H113.177V71.9028H95.0431Z" fill="#243757"/>
<path d="M102.133 73.6624H105.72C107.279 73.6624 108.769 72.9459 109.84 71.6812H98.0126C99.0848 72.9459 100.575 73.6624 102.133 73.6624Z" fill="#F0F0F0"/>
<path d="M152.206 105.397H154.185V102.101H150.131L152.206 105.397Z" fill="#42526D"/>
<path d="M27.48 60.5984L97.3859 60.5984L97.3859 3.58458L27.48 3.58458L27.48 60.5984Z" fill="#E6E6E6"/>
<path d="M25.9067 60.5984L96.7024 60.5984L96.7024 3.58458L25.9067 3.58458L25.9067 60.5984Z" fill="#7A8699"/>
<path d="M93.8789 57.8627L93.8789 6.32104L28.7313 6.32104L28.7313 57.8627L93.8789 57.8627Z" fill="#8993A4"/>
<path d="M29.0302 57.8627L29.0302 6.32104H28.7302L28.7302 57.8627H29.0302Z" fill="#243757"/>
<path d="M24.7206 0.0664062H100.456C100.656 0.0664062 100.82 0.223249 100.82 0.415329C100.82 0.607063 100.656 0.764251 100.456 0.764251H24.7206C24.5204 0.764251 24.3563 0.607408 24.3563 0.415329C24.3563 0.223249 24.5204 0.0664062 24.7206 0.0664062Z" fill="#505F79"/>
<path d="M97.386 2.36855C97.6567 2.36855 97.8779 2.15644 97.8779 1.89768V0.886154C97.8779 0.627054 97.6567 0.415283 97.386 0.415283C97.1153 0.415283 96.894 0.6274 96.894 0.886154V1.89768C96.894 2.15678 97.1153 2.36855 97.386 2.36855Z" fill="#505F79"/>
<path d="M30.2138 2.36855C30.4845 2.36855 30.7057 2.15644 30.7057 1.89768V0.886154C30.7057 0.627054 30.4845 0.415283 30.2138 0.415283C29.9431 0.415283 29.7218 0.6274 29.7218 0.886154V1.89768C29.7214 2.15678 29.9431 2.36855 30.2138 2.36855Z" fill="#505F79"/>
<path d="M56.7872 105.397H58.6042L58.6042 76.8463H56.7872V105.397Z" fill="#F5F5F5"/>
<path d="M25.8047 105.397H27.6217L27.6217 76.8463H25.8047L25.8047 105.397Z" fill="#354764"/>
<path d="M68.4462 71.2908H58.6036V76.8469H68.4462V71.2908Z" fill="#354764"/>
<path d="M19.5108 76.8464H58.6036V71.2903H19.5108V76.8464Z" fill="#354764"/>
<path d="M68.4462 80.301H58.6036V85.8572H68.4462V80.301Z" fill="#354764"/>
<path d="M19.5108 85.8569H58.6036V80.3008H19.5108V85.8569Z" fill="#354764"/>
<path d="M68.4468 89.3115H58.6042V94.8677H68.4468V89.3115Z" fill="#354764"/>
<path d="M19.5108 94.8684H58.6036V89.3123H19.5108V94.8684Z" fill="#354764"/>
<path d="M64.8973 105.397H66.7144V76.8463H64.8973V105.397Z" fill="#354764"/>
<path d="M19.5112 105.397H21.3282L21.3282 76.8463H19.5112L19.5112 105.397Z" fill="#354764"/>
<path opacity="0.5" d="M89.9998 121C128.62 121 159.929 119.249 159.929 117.088C159.929 114.928 128.62 113.177 89.9998 113.177C51.3791 113.177 20.0708 114.928 20.0708 117.088C20.0708 119.249 51.3791 121 89.9998 121Z" fill="#262626"/>
<path d="M142.661 101.405H84.0857C81.618 101.405 79.753 99.4706 79.9413 97.1069L87.1175 7.02124C87.3057 4.65756 89.4787 2.72363 91.9464 2.72363H150.521C152.989 2.72363 154.854 4.65756 154.666 7.02124L147.49 97.1069C147.301 99.4706 145.128 101.405 142.661 101.405Z" fill="#5878C3"/>
<path opacity="0.5" d="M142.661 101.405H84.0857C81.618 101.405 79.753 99.4706 79.9413 97.1069L87.1175 7.02124C87.3057 4.65756 89.4787 2.72363 91.9464 2.72363H150.521C152.989 2.72363 154.854 4.65756 154.666 7.02124L147.49 97.1069C147.301 99.4706 145.128 101.405 142.661 101.405Z" fill="white"/>
<path d="M141.788 101.405H83.2132C80.7455 101.405 78.8805 99.4706 79.0688 97.1069L86.2449 7.02124C86.4332 4.65756 88.6062 2.72363 91.0738 2.72363H149.649C152.116 2.72363 153.981 4.65756 153.793 7.02124L146.617 97.1069C146.429 99.4706 144.256 101.405 141.788 101.405Z" fill="#5878C3"/>
<path opacity="0.7" d="M141.788 101.405H83.2132C80.7455 101.405 78.8805 99.4706 79.0688 97.1069L86.2449 7.02124C86.4332 4.65756 88.6062 2.72363 91.0738 2.72363H149.649C152.116 2.72363 153.981 4.65756 153.793 7.02124L146.617 97.1069C146.429 99.4706 144.256 101.405 141.788 101.405Z" fill="#243757"/>
<path d="M83.3278 99.9714C81.6784 99.9714 80.4392 98.6863 80.5651 97.1064L87.646 8.21432C87.7719 6.6345 89.216 5.34937 90.8653 5.34937H149.44C151.089 5.34937 152.329 6.6345 152.203 8.21432L145.122 97.1064C144.996 98.6863 143.552 99.9714 141.903 99.9714H83.3278Z" fill="#15294B"/>
<path opacity="0.2" d="M141.491 20.3021H99.5729C98.5976 20.3021 97.8608 19.538 97.9351 18.6038C98.0094 17.6697 98.8681 16.9055 99.8434 16.9055H141.761C142.737 16.9055 143.473 17.6697 143.399 18.6038C143.325 19.538 142.466 20.3021 141.491 20.3021Z" fill="black"/>
<path opacity="0.3" d="M123.608 4.47377H116.837C116.597 4.47377 116.416 4.28583 116.434 4.0561C116.452 3.82636 116.663 3.63843 116.903 3.63843H123.675C123.915 3.63843 124.096 3.82636 124.078 4.0561C124.059 4.28583 123.848 4.47377 123.608 4.47377Z" fill="#5878C3"/>
<path d="M99.3897 18.6044C99.5967 16.0065 97.5651 13.905 94.8579 13.905H137.414C140.121 13.905 142.153 16.0068 141.946 18.6044H99.3897Z" fill="#8993A4"/>
<path d="M94.857 13.905C92.1498 13.905 89.7835 16.0068 89.5765 18.6044L85.2157 73.3499C85.0087 75.9478 82.6423 78.0493 79.9352 78.0493H122.491C125.198 78.0493 127.565 75.9475 127.772 73.3499L132.132 18.6044C132.339 16.0065 134.706 13.905 137.413 13.905H94.857Z" fill="#DFE2E6"/>
<path d="M117.959 73.3501C117.752 75.948 119.784 78.0495 122.491 78.0495H79.9352C77.228 78.0495 75.1964 75.9477 75.4034 73.3501H117.959Z" fill="#98A1B0"/>
<path d="M93.0494 72.2693C93.2088 70.2687 92.5531 68.6501 90.4685 68.6501H123.24C125.324 68.6501 126.893 70.4777 125.821 72.2693H93.0494Z" fill="#8993A4"/>
<path d="M117.959 73.35C118.166 70.7521 120.532 68.6506 123.239 68.6506H80.6833C77.9762 68.6506 75.6095 70.7525 75.4028 73.35H117.959Z" fill="#98A1B0"/>
<path d="M138.081 86.9224H89.2273C88.519 86.9224 87.9837 86.3672 88.0378 85.6887C88.0919 85.0102 88.7155 84.4551 89.4239 84.4551H138.278C138.986 84.4551 139.521 85.0102 139.467 85.6887C139.413 86.3672 138.79 86.9224 138.081 86.9224Z" fill="white"/>
<path d="M113.411 92.8518H88.7553C88.0469 92.8518 87.5117 92.2967 87.5658 91.6182C87.6199 90.9397 88.2435 90.3845 88.9518 90.3845H113.607C114.316 90.3845 114.851 90.9397 114.797 91.6182C114.743 92.2967 114.119 92.8518 113.411 92.8518Z" fill="white"/>
<path d="M130.48 92.8518H120.493C119.785 92.8518 119.25 92.2967 119.304 91.6182C119.358 90.9397 119.981 90.3845 120.69 90.3845H130.677C131.385 90.3845 131.92 90.9397 131.866 91.6182C131.812 92.2967 131.188 92.8518 130.48 92.8518Z" fill="white"/>
<path d="M140.468 69.3932L137.919 69.7756C137.817 69.4689 137.72 69.2557 137.628 69.1369C137.536 69.018 137.377 68.8982 137.152 68.7769L137.003 70.6528C138.347 71.0034 139.234 71.3734 139.663 71.7624C140.231 72.2858 140.482 72.9498 140.418 73.7544C140.381 74.2259 140.237 74.6585 139.986 75.052C139.736 75.4458 139.43 75.7743 139.069 76.0383C138.707 76.3022 138.33 76.4936 137.936 76.6124C137.543 76.7313 137.068 76.8017 136.511 76.8232L136.414 78.0485H135.426L135.523 76.8232C134.864 76.7669 134.334 76.6643 133.933 76.5154C133.532 76.3661 133.192 76.1599 132.913 75.8963C132.634 75.6327 132.425 75.3484 132.287 75.0437C132.149 74.739 132.057 74.3704 132.01 73.9382L134.769 73.6335C134.816 74.0615 134.901 74.3703 135.023 74.5607C135.146 74.751 135.359 74.9196 135.663 75.0665L135.846 72.7753C134.953 72.5331 134.324 72.3231 133.957 72.1455C133.589 71.9683 133.281 71.684 133.033 71.2922C132.784 70.9008 132.682 70.4241 132.727 69.8613C132.788 69.0913 133.12 68.448 133.724 67.9308C134.327 67.414 135.185 67.1276 136.3 67.0713L136.351 66.4294H137.34L137.288 67.0713C138.294 67.1318 139.049 67.3608 139.552 67.7588C140.055 68.1568 140.36 68.7016 140.468 69.3932ZM136.167 68.7448C135.871 68.836 135.661 68.9489 135.537 69.0837C135.414 69.2184 135.345 69.377 135.33 69.559C135.315 69.7501 135.36 69.9162 135.462 70.0575C135.566 70.1988 135.756 70.317 136.034 70.412L136.167 68.7448ZM136.646 75.1314C137.036 75.0492 137.328 74.9134 137.521 74.7248C137.714 74.5362 137.82 74.3247 137.839 74.0905C137.855 73.8867 137.794 73.6991 137.657 73.5278C137.521 73.3564 137.239 73.1971 136.812 73.0503L136.646 75.1314Z" fill="white"/>
<path d="M92.4262 29.144H93.64L93.3408 32.8955H92.127L92.4262 29.144Z" fill="#407BFF"/>
<path d="M94.5147 29.1443H95.6446L96.9539 31.2195L97.119 29.1443H98.2598L97.9608 32.8957H96.82L95.5173 30.836L95.3532 32.8957H94.2153L94.5147 29.1443Z" fill="#407BFF"/>
<path d="M98.6793 29.1443H99.9442L100.611 31.8438L101.696 29.1443H102.924L101.171 32.8957H99.8594L98.6793 29.1443Z" fill="#407BFF"/>
<path d="M102.831 31.0224C102.879 30.4099 103.095 29.9332 103.479 29.5922C103.862 29.2509 104.372 29.0806 105.008 29.0806C105.659 29.0806 106.148 29.2481 106.474 29.5832C106.8 29.9183 106.939 30.3878 106.891 30.9917C106.856 31.4301 106.75 31.7897 106.574 32.0702C106.397 32.3508 106.157 32.5691 105.854 32.7252C105.55 32.8814 105.181 32.9595 104.747 32.9595C104.305 32.9595 103.945 32.8921 103.666 32.7574C103.387 32.6226 103.17 32.4095 103.013 32.1176C102.857 31.8256 102.796 31.4608 102.831 31.0224ZM104.04 31.0276C104.01 31.4062 104.062 31.6785 104.196 31.844C104.33 32.0094 104.523 32.092 104.776 32.092C105.036 32.092 105.244 32.0112 105.399 31.8488C105.554 31.6868 105.649 31.3959 105.682 30.9761C105.71 30.6231 105.657 30.365 105.521 30.2019C105.385 30.0392 105.19 29.9577 104.935 29.9577C104.691 29.9577 104.489 30.0406 104.328 30.2061C104.167 30.3716 104.071 30.6455 104.04 31.0276Z" fill="#407BFF"/>
<path d="M107.739 29.1443H108.952L108.653 32.8957H107.439L107.739 29.1443Z" fill="#407BFF"/>
<path d="M112.25 31.3602L113.286 31.6673C113.193 31.9523 113.061 32.1904 112.893 32.3814C112.724 32.5724 112.523 32.7165 112.288 32.8139C112.053 32.911 111.76 32.9597 111.409 32.9597C110.984 32.9597 110.641 32.9003 110.38 32.7821C110.12 32.6637 109.904 32.4553 109.732 32.1569C109.56 31.8587 109.492 31.4766 109.529 31.0113C109.578 30.3908 109.789 29.9137 110.16 29.5807C110.531 29.2473 111.032 29.0808 111.662 29.0808C112.156 29.0808 112.536 29.1762 112.803 29.3675C113.07 29.5586 113.256 29.8519 113.362 30.2478L112.275 30.4755C112.247 30.3611 112.214 30.2775 112.177 30.2247C112.117 30.1359 112.039 30.0678 111.945 30.0201C111.851 29.9725 111.743 29.9486 111.622 29.9486C111.348 29.9486 111.129 30.0543 110.967 30.2654C110.844 30.4223 110.769 30.6682 110.742 31.004C110.709 31.4196 110.752 31.7046 110.872 31.8591C110.991 32.0131 111.17 32.0902 111.409 32.0902C111.641 32.0902 111.821 32.028 111.949 31.9033C112.078 31.7779 112.178 31.5972 112.25 31.3602Z" fill="#407BFF"/>
<path d="M114.073 29.1443H117.316L117.252 29.9451H115.222L115.174 30.5414H117.057L116.996 31.3066H115.113L115.054 32.0462H117.143L117.075 32.8957H113.774L114.073 29.1443Z" fill="#407BFF"/>
<path d="M126.919 37.7404H91.741L91.8156 36.8052H126.993L126.919 37.7404Z" fill="#407BFF"/>
<path d="M126.919 37.7397H91.7412L91.5133 40.6009H126.691L126.919 37.7397Z" fill="#F0F0F0"/>
<path d="M126.463 43.4629H91.2848L91.0569 46.324H126.235L126.463 43.4629Z" fill="#F0F0F0"/>
<path d="M126.007 49.1858H90.8295L90.6016 52.0469H125.779L126.007 49.1858Z" fill="#F0F0F0"/>
<path d="M125.551 54.9082H90.3736L90.1456 57.7697H125.323L125.551 54.9082Z" fill="#F0F0F0"/>
<path d="M125.021 61.5656H89.8433L89.9176 60.6304H125.095L125.021 61.5656Z" fill="#407BFF"/>
<path d="M120.996 20.3025H128.308L127.975 24.4806H120.664L120.996 20.3025Z" fill="#F0F0F0"/>
<path d="M49.3097 46.8784L50.6174 47.3814C51.0935 47.5645 51.5112 47.8637 51.8289 48.2493L52.428 48.9758C52.8247 49.4574 52.8063 50.1414 52.384 50.6026L51.7467 51.2987C51.2583 51.8318 50.4093 51.8798 49.8593 51.4051L49.2498 50.8793C49.2498 50.8793 47.3732 49.6173 46.8221 47.9504L47.1843 47.6036C47.7736 47.0387 48.5551 46.772 49.3097 46.8784Z" fill="#FFB573"/>
<path d="M52.8891 34.7571L52.4635 35.0258L51.9899 35.3374C51.6751 35.5523 51.3591 35.7714 51.0504 35.999C50.4358 36.4568 49.8353 36.9304 49.2788 37.4334C48.1572 38.4311 47.1816 39.5259 46.4891 40.6891C46.4004 40.8338 46.3188 40.9806 46.2438 41.1282L46.1847 41.2387C46.1966 41.2121 46.2164 41.1316 46.2233 41.0981C46.2388 41.0038 46.2366 40.9523 46.2305 40.923C46.1959 40.8231 46.1926 41.0826 46.2741 41.3389C46.435 41.8861 46.7682 42.5822 47.1376 43.2528C47.8802 44.6136 48.8125 46.0124 49.69 47.3922L49.7131 47.4281C50.077 48.0005 49.8876 48.7474 49.29 49.0964C48.8287 49.3655 48.2571 49.3171 47.8538 49.0186C47.112 48.4673 46.449 47.8983 45.7912 47.2833C45.1362 46.6719 44.5112 46.0238 43.9118 45.3176C43.3196 44.598 42.741 43.8591 42.2534 42.8545C42.1319 42.5999 42.0154 42.3245 41.9158 42.0046C41.817 41.6857 41.7366 41.3126 41.729 40.8418C41.7283 40.6041 41.746 40.3433 41.8174 40.0472C41.8459 39.9111 41.9076 39.7339 41.9544 39.6085L42.024 39.4312C42.1149 39.1929 42.2134 38.9597 42.3202 38.7313C43.167 36.892 44.3983 35.3392 45.7584 34.0005C46.4429 33.331 47.1657 32.7143 47.9249 32.1446C48.3054 31.8607 48.6913 31.585 49.0934 31.3252C49.2951 31.1953 49.4956 31.0644 49.7062 30.9407L50.0268 30.7541L50.3926 30.5517C51.5983 29.8843 53.1405 30.2798 53.8373 31.4347C54.5074 32.5461 54.1507 33.9559 53.0485 34.6551L52.8891 34.7571Z" fill="#FFB573"/>
<path d="M52.9307 29.2767C50.823 29.2884 48.5158 30.1507 45.5576 33.6631C45.5576 35.76 50.1788 38.5476 50.1788 38.5476C50.1788 38.5476 57.7539 29.2501 52.9307 29.2767Z" fill="#263238"/>
<path d="M37.283 112.322C37.2462 112.322 37.2094 112.316 37.1715 112.303C36.7337 112.156 36.3222 111.09 36.2959 110.499C36.2941 110.461 36.3161 110.425 36.3518 110.408C36.3879 110.391 36.4301 110.396 36.4615 110.42C36.5077 110.456 37.5963 111.309 37.6476 111.882C37.6584 112.005 37.6248 112.11 37.5483 112.194C37.4711 112.278 37.3798 112.322 37.283 112.322ZM36.5265 110.73C36.6254 111.292 36.96 112.026 37.239 112.12C37.2791 112.134 37.3299 112.138 37.3956 112.066C37.4353 112.022 37.4516 111.968 37.4458 111.899C37.4151 111.562 36.8799 111.034 36.5265 110.73Z" fill="#263238"/>
<path d="M37.9595 111.054C37.4538 111.054 36.7242 110.82 36.3415 110.576C36.3083 110.555 36.291 110.517 36.2979 110.479C36.3044 110.442 36.3336 110.411 36.3718 110.401C36.4295 110.386 37.7896 110.047 38.3039 110.346C38.4139 110.409 38.4824 110.497 38.508 110.606C38.5437 110.757 38.4979 110.883 38.3785 110.962C38.2812 111.026 38.1333 111.054 37.9595 111.054ZM36.6719 110.533C37.2039 110.788 38.02 110.962 38.2635 110.802C38.2992 110.778 38.3324 110.742 38.3104 110.649C38.297 110.593 38.2606 110.548 38.1989 110.512C37.8967 110.337 37.1361 110.439 36.6719 110.533Z" fill="#263238"/>
<path d="M32.5612 110.267C33.1707 109.555 34.1968 108.605 35.2521 106.608C35.2521 106.608 38.5973 107.396 37.9402 108.321C36.7485 109.998 36.1675 113.44 37.7032 115.286C38.5796 116.34 37.1932 116.514 36.2771 116.063C34.8197 115.346 34.8814 115.079 34.1247 113.893C33.4773 112.879 33.2216 112.482 32.3311 112.048C31.5874 111.686 31.9492 110.982 32.5612 110.267Z" fill="#407BFF"/>
<path d="M60.9451 50.1013C60.9451 50.1013 56.0902 72.7643 52.5406 82.4429C48.8124 92.6079 38.5165 108.292 38.1208 108.966C36.6572 108.592 35.352 108.101 34.4821 107.287C34.4821 107.287 39.315 90.2733 44.0278 79.2356C45.816 56.1947 49.7587 50.1013 49.7587 50.1013H60.9451Z" fill="#263238"/>
<path opacity="0.2" d="M53.5384 62.2259C53.3184 66.6098 53.167 72.6382 53.3834 79.976C54.8657 75.402 56.4779 69.2009 57.834 63.6354C56.9291 62.4781 55.5221 61.9219 53.5384 62.2259Z" fill="black"/>
<path d="M53.8311 22.3103C54.3407 24.2808 54.838 27.4954 54.0273 29.2065C54.0273 29.2065 57.0637 29.335 60.9448 32.3036C62.7723 29.7327 60.6574 29.2283 60.6574 29.2283C59.0441 28.8655 59.1234 26.8076 59.1256 25.3418L53.8311 22.3103Z" fill="#FFB573"/>
<path d="M53.0668 30.1024C51.552 29.9421 52.5997 27.1853 53.3871 27.4537C55.3765 28.1325 59.8412 27.377 61.2218 28.1063C62.6024 28.8356 62.2537 30.3325 62.2537 30.3325C62.2537 30.3325 54.6992 30.2751 53.0668 30.1024Z" fill="#407BFF"/>
<path opacity="0.7" d="M53.0668 30.1024C51.552 29.9421 52.5997 27.1853 53.3871 27.4537C55.3765 28.1325 59.8412 27.377 61.2218 28.1063C62.6024 28.8356 62.2537 30.3325 62.2537 30.3325C62.2537 30.3325 54.6992 30.2751 53.0668 30.1024Z" fill="white"/>
<path d="M61.9044 18.8319C61.9531 19.0955 62.1387 19.2848 62.3188 19.254C62.4989 19.2236 62.6053 18.9849 62.5566 18.7213C62.5079 18.4577 62.3224 18.2684 62.1423 18.2992C61.9618 18.3296 61.8557 18.5683 61.9044 18.8319Z" fill="#263238"/>
<path d="M62.0652 18.3272L62.6932 18.0325C62.6932 18.0325 62.4452 18.5849 62.0652 18.3272Z" fill="#263238"/>
<path d="M62.273 16.724C62.2924 16.6898 62.2993 16.6483 62.2878 16.6079C62.2643 16.524 62.1744 16.4739 62.0867 16.4963C61.2082 16.7202 60.9631 17.4073 60.953 17.437C60.9249 17.5196 60.9714 17.6084 61.0577 17.6357C61.1436 17.6626 61.2364 17.6181 61.2652 17.5358C61.2743 17.5089 61.4728 16.9786 62.1712 16.8007C62.2163 16.7889 62.252 16.7603 62.273 16.724Z" fill="#263238"/>
<path d="M62.2303 19.4731C62.2303 19.4731 62.8277 20.5731 63.4081 21.0744C63.0764 21.4392 62.4354 21.3518 62.4354 21.3518L62.2303 19.4731Z" fill="#ED893E"/>
<path d="M52.4912 18.697C53.2936 21.9015 53.5634 23.2744 55.546 24.6528C58.528 26.7263 62.3806 25.0898 62.5739 21.7222C62.7481 18.6911 61.4061 13.9596 57.9217 13.2213C54.4885 12.4941 51.6887 15.4924 52.4912 18.697Z" fill="#FFB573"/>
<path d="M58.9755 19.286C60.9454 16.7918 62.2309 14.7763 61.2585 12.5688C60.4463 10.7236 58.2004 11.2636 57.8866 12.185C51.9122 11.6961 49.7677 13.7689 51.0008 17.1987C51.7864 19.3838 48.7351 18.2507 49.4781 21.0262C50.0476 23.1542 48.0383 23.9651 49.0583 25.1887C50.5302 26.9544 53.5655 24.6515 57.0319 25.9757C59.8678 27.0587 64.1294 25.4188 58.9755 19.286Z" fill="#263238"/>
<path d="M58.6552 19.7909C59.0436 20.3778 59.6297 20.7047 60.1512 20.7776C60.9357 20.8871 61.2051 20.0455 60.8844 19.2644C60.5959 18.5614 59.84 17.657 59.102 17.9081C58.3753 18.1551 58.2112 19.1197 58.6552 19.7909Z" fill="#FFB573"/>
<path d="M59.8205 114.435C59.3192 114.435 58.4983 114.054 58.1142 113.722C58.0846 113.697 58.0735 113.657 58.0857 113.621C58.0976 113.584 58.1312 113.558 58.1708 113.554C58.2296 113.547 59.6276 113.402 60.0907 113.769C60.1895 113.848 60.2443 113.944 60.253 114.055C60.2652 114.209 60.2007 114.328 60.0708 114.389C60.003 114.421 59.9179 114.435 59.8205 114.435ZM58.4475 113.727C58.9354 114.053 59.7177 114.339 59.9814 114.214C60.02 114.196 60.0586 114.165 60.051 114.07C60.0463 114.012 60.0171 113.963 59.9615 113.919C59.6892 113.703 58.9207 113.699 58.4475 113.727Z" fill="#263238"/>
<path d="M58.1821 113.748C58.15 113.748 58.1194 113.733 58.1002 113.708C58.0764 113.677 58.0746 113.635 58.0941 113.602C58.1237 113.553 58.8237 112.386 59.4069 112.243C59.5314 112.213 59.6439 112.227 59.7438 112.286C59.8812 112.367 59.9432 112.487 59.918 112.624C59.8383 113.061 58.8079 113.624 58.203 113.746C58.1958 113.747 58.1893 113.748 58.1821 113.748ZM59.5285 112.422C59.5058 112.422 59.4823 112.425 59.4571 112.432C59.1152 112.515 58.6586 113.107 58.4028 113.49C58.9658 113.305 59.6673 112.869 59.7185 112.59C59.7258 112.55 59.7222 112.501 59.6374 112.451C59.6042 112.432 59.5681 112.422 59.5285 112.422Z" fill="#263238"/>
<path d="M62.4997 115.648C59.5787 115.432 57.6106 113.511 57.8169 111.475C57.9305 110.352 54.185 110.252 54.185 110.252C54.7775 113.733 54.0338 114.229 53.7897 115.128C53.5444 116.031 53.6046 117.021 54.3797 117.039C55.3077 117.062 55.7398 116.892 56.8928 116.935C58.241 116.985 59.6992 117.036 62.0951 117.039C63.0526 117.041 63.7988 115.745 62.4997 115.648Z" fill="#407BFF"/>
<path d="M65.9942 50.1013C65.9942 50.1013 65.7395 67.2648 64.325 78.5446C62.9101 89.8245 58.0476 111.948 58.0476 111.948C56.6425 112.209 55.3257 112.252 54.1633 111.914C54.1633 111.914 52.6268 94.6306 55.2081 77.9304C53.3117 60.4273 52.1262 50.1013 52.1262 50.1013H65.9942Z" fill="#263238"/>
<path d="M66.6572 34.2223C66.5966 35.5486 68.7826 38.6149 66.0848 40.392C66.589 41.4713 67.0149 48.7913 65.9939 50.1003C64.5047 51.1488 56.4435 50.945 49.7586 50.1003C49.4762 47.4537 50.9971 41.9711 49.1339 33.4226C48.7018 31.4406 50.1575 29.5371 52.2605 29.334C52.8224 29.2797 53.4179 29.2345 54.0274 29.2065C56.397 29.097 58.3381 29.0248 60.4213 29.2068C61.1116 29.2673 61.8253 29.3509 62.5066 29.4424C64.9656 29.773 66.7657 31.8458 66.6572 34.2223Z" fill="#407BFF"/>
<g opacity="0.3">
<path d="M49.3046 32.9623C49.2541 32.9882 49.2039 33.0148 49.1531 33.04L49.152 33.0407C49.152 33.0407 49.1513 33.0414 49.1506 33.0414C49.1055 33.0645 49.0885 33.1188 49.1131 33.1619C49.1376 33.2055 49.1938 33.2214 49.2389 33.1979C49.2941 33.1695 49.3478 33.1391 49.4023 33.1098C50.1179 33.363 50.8944 33.9351 51.3376 33.9938C50.6228 33.3886 50.1081 32.955 49.5437 33.0338C49.7139 32.9391 49.8805 32.8393 50.0454 32.7374C50.7032 32.9716 51.4155 33.4957 51.8227 33.5499C51.1598 32.9882 50.6834 32.5878 50.1593 32.6665C50.2834 32.5881 50.4064 32.5083 50.5276 32.4261C50.5965 32.3798 50.6643 32.3318 50.7324 32.2841C51.3254 32.5308 51.9544 33.0531 52.3269 33.1236C51.7315 32.557 51.3091 32.1577 50.8035 32.2351C50.9615 32.1231 51.1165 32.0074 51.2698 31.8899C51.8144 32.1179 52.3915 32.5961 52.7334 32.661C52.1856 32.1401 51.7971 31.7721 51.3322 31.8416C51.4635 31.74 51.5941 31.6371 51.7225 31.532C51.7535 31.5065 51.7841 31.4806 51.8152 31.4546C52.2956 31.6958 52.772 32.1732 53.0851 32.2599C52.6313 31.7376 52.315 31.3762 51.8375 31.436C51.9609 31.3334 52.0831 31.2297 52.2036 31.1244C52.6454 31.3472 53.0833 31.7853 53.3711 31.8651C52.9541 31.3852 52.6634 31.0529 52.2256 31.105C52.3536 30.9931 52.4799 30.8794 52.6047 30.7637C52.9906 30.991 53.3592 31.4063 53.6149 31.4923C53.2679 31.0384 53.0241 30.7219 52.6313 30.7385C52.6995 30.6749 52.7673 30.6117 52.8344 30.5471C52.873 30.5098 52.9112 30.4714 52.9498 30.4338C53.3054 30.6431 53.6452 31.0259 53.881 31.105C53.5608 30.6863 53.3361 30.3944 52.9736 30.4106C53.0789 30.307 53.1824 30.2016 53.2838 30.0945C53.6102 30.2617 53.9157 30.5834 54.1339 30.6445C53.8464 30.2904 53.6455 30.0451 53.2986 30.079C53.3173 30.0593 53.3368 30.0403 53.3552 30.0203C53.4288 29.9408 53.5016 29.8607 53.5727 29.7791C53.8699 29.9346 54.1476 30.2255 54.3463 30.2811C54.0855 29.9595 53.902 29.7353 53.5911 29.7584C53.6755 29.6606 53.7563 29.5598 53.8309 29.4534C53.8399 29.4406 53.8367 29.423 53.8233 29.414C53.81 29.405 53.7912 29.4081 53.7819 29.4212L53.7815 29.4219C53.7112 29.5183 53.6344 29.6105 53.5539 29.7007C53.5839 29.5466 53.524 29.4019 53.423 29.2437C53.3819 29.2461 53.3404 29.2481 53.2993 29.2509C53.3653 29.4091 53.4493 29.5871 53.4962 29.7632C53.4317 29.8337 53.366 29.9031 53.2997 29.9719C53.2841 29.9881 53.2676 30.0037 53.2517 30.0196C53.3206 29.7705 53.185 29.5528 52.9743 29.2741C52.952 29.2758 52.9303 29.2779 52.908 29.2796C52.9639 29.4927 53.1327 29.7857 53.2037 30.0679C53.1089 30.1633 53.0126 30.2573 52.9145 30.3498C53.0057 30.0324 52.7774 29.7508 52.4535 29.3542C52.469 29.5919 52.7583 30.0054 52.8733 30.3885C52.8391 30.4207 52.8055 30.4531 52.7709 30.4849C52.7056 30.545 52.6393 30.6041 52.5733 30.6632C52.6645 30.3229 52.4186 30.0192 52.0709 29.5929C52.0878 29.8489 52.3976 30.2942 52.5242 30.7077C52.4099 30.8093 52.2941 30.9092 52.1769 31.008C52.2526 30.6639 52.0135 30.3284 51.6835 29.8683C51.6853 30.1415 51.9767 30.6273 52.0943 31.0767C52.0002 31.1555 51.905 31.2332 51.809 31.3099C51.8934 30.9354 51.6334 30.5709 51.2745 30.07C51.2767 30.3661 51.5923 30.8936 51.7203 31.3811C51.6951 31.4011 51.6702 31.4215 51.6446 31.4415C51.5133 31.5445 51.3798 31.645 51.246 31.7441C51.3517 31.3624 51.1032 30.9302 50.762 30.3415C50.7353 30.6608 51.0325 31.2826 51.1285 31.8305C50.9777 31.94 50.8251 32.0471 50.6704 32.1511C50.8442 31.7179 50.564 31.2308 50.1709 30.5526C50.1413 30.9078 50.4807 31.6084 50.5759 32.2136C50.5308 32.2433 50.4861 32.2741 50.4407 32.3035C50.2982 32.3954 50.1539 32.4838 50.0086 32.5708C50.2088 32.1321 49.9671 31.6129 49.6133 30.9071C49.5967 30.932 49.5783 30.9558 49.5624 30.981C49.5899 31.3966 49.8402 32.0606 49.8964 32.6375C49.7352 32.7315 49.5722 32.8223 49.407 32.9091C49.5945 32.5439 49.4885 32.128 49.257 31.6087C49.2036 31.7552 49.1628 31.9058 49.1307 32.0596C49.2043 32.358 49.2779 32.6703 49.3046 32.9623Z" fill="#263238"/>
<path d="M58.5198 30.5669C57.9751 30.2335 57.4403 29.6224 57.0843 29.496C57.5784 30.1458 57.9293 30.6042 58.4415 30.6046C58.2669 30.6913 58.0949 30.7818 57.9239 30.8744C57.4237 30.5666 56.9332 30.0069 56.6064 29.8908C57.0609 30.4882 57.384 30.9107 57.8543 30.9124C57.7079 30.9929 57.5618 31.0748 57.4179 31.1587C57.3829 31.1791 57.3483 31.2002 57.3137 31.2209C56.8791 30.91 56.4878 30.3662 56.1931 30.2329C56.5548 30.8174 56.8073 31.2223 57.2884 31.2357C57.1496 31.318 57.0118 31.4019 56.8755 31.4879C56.4759 31.2012 56.1163 30.702 55.8451 30.5794C56.1772 31.1166 56.4095 31.4886 56.8502 31.5035C56.7052 31.5947 56.5617 31.688 56.4196 31.783C56.0759 31.5 55.7809 31.034 55.5425 30.9103C55.8101 31.4112 55.9983 31.7609 56.3889 31.8037C56.3114 31.8559 56.2335 31.908 56.157 31.9616C56.1127 31.9927 56.0687 32.0248 56.0243 32.0559C55.7076 31.7951 55.4357 31.3656 55.2161 31.2516C55.4628 31.7135 55.6366 32.0362 55.9973 32.0752C55.8761 32.1616 55.7563 32.2493 55.6388 32.3402C55.3441 32.1257 55.0956 31.7615 54.8904 31.6683C55.1158 32.0614 55.2734 32.334 55.6214 32.3533C55.5998 32.3699 55.5774 32.3858 55.5558 32.4027C55.47 32.4701 55.3848 32.5382 55.3012 32.6079C55.0336 32.4093 54.8074 32.0801 54.6202 31.9951C54.8247 32.3519 54.9686 32.6014 55.2795 32.6259C55.18 32.7098 55.0833 32.7969 54.9925 32.8905C54.9813 32.9019 54.982 32.9199 54.9935 32.9306C55.0054 32.9417 55.0242 32.9413 55.0357 32.9299L55.0364 32.9296C55.1219 32.8449 55.2132 32.7655 55.3073 32.6888C55.2197 32.9233 55.3466 33.1614 55.5219 33.4872C55.5518 33.2975 55.4043 32.951 55.3744 32.6359C55.4498 32.5762 55.5262 32.5178 55.6031 32.4597C55.6211 32.4459 55.6398 32.4335 55.6582 32.42C55.5345 32.6864 55.6763 32.9524 55.8754 33.3227C55.9085 33.113 55.7419 32.7268 55.7138 32.3796C55.8231 32.2998 55.9338 32.2214 56.0459 32.145C55.9035 32.4449 56.0824 32.7572 56.3363 33.198C56.3601 32.961 56.1433 32.5088 56.0928 32.1132C56.1318 32.0866 56.1704 32.0597 56.2097 32.0334C56.284 31.984 56.3594 31.9357 56.4344 31.8873C56.288 32.2096 56.4806 32.5468 56.7536 33.0204C56.7792 32.7651 56.5469 32.2784 56.4903 31.851C56.6201 31.7681 56.7511 31.6869 56.8827 31.6075C56.7511 31.9357 56.9317 32.3032 57.1813 32.8076C57.2246 32.5378 57.0176 32.0137 56.9757 31.5522C57.0818 31.489 57.1885 31.4268 57.296 31.3653C57.151 31.7225 57.3472 32.1215 57.6188 32.6708C57.6657 32.3779 57.441 31.8096 57.3956 31.3086C57.4241 31.2927 57.4518 31.2762 57.4803 31.2606C57.6271 31.1791 57.7753 31.1 57.9239 31.0222C57.7566 31.3829 57.9304 31.8479 58.1699 32.4805C58.2489 32.1695 58.0585 31.5104 58.0545 30.9545C58.2215 30.8692 58.3899 30.7866 58.5598 30.7075C58.3163 31.109 58.5125 31.6323 58.7884 32.3616C58.8764 32.0155 58.6572 31.2724 58.6633 30.6602C58.7127 30.6377 58.7621 30.6142 58.8119 30.5921C58.9677 30.523 59.1249 30.4574 59.2826 30.3935C59.0002 30.8146 59.1787 31.3936 59.4286 32.1972C59.5469 31.8272 59.3587 31.0091 59.4041 30.3448C59.5787 30.276 59.755 30.2114 59.9325 30.1506C59.5924 30.6101 59.7882 31.2475 60.0666 32.1416C60.1958 31.7367 59.9877 30.8385 60.0414 30.1147C60.0955 30.0967 60.1492 30.0781 60.2037 30.0612L60.2051 30.0608L60.2066 30.0601C60.2549 30.0439 60.2805 29.9931 60.2636 29.9465C60.2466 29.9002 60.1936 29.8756 60.1453 29.8919C60.0861 29.9116 60.0281 29.9333 59.9696 29.9541C59.5523 29.7292 59.1322 29.3764 58.7711 29.1139C58.6752 29.1111 58.5789 29.1097 58.4826 29.1077C58.9525 29.6407 59.3381 30.0014 59.8171 30.008C59.6335 30.0757 59.4521 30.1486 59.2725 30.2246C58.6619 29.8933 58.0451 29.2676 57.652 29.1529C58.2139 29.8079 58.6179 30.2757 59.148 30.2774C59.0128 30.3361 58.8779 30.3963 58.7448 30.4588C58.6694 30.4933 58.5948 30.5303 58.5198 30.5669Z" fill="#263238"/>
<path d="M54.0136 37.0256C53.6158 36.6117 53.337 36.3229 52.9486 36.3816C53.0088 36.3115 53.0691 36.2413 53.1282 36.1702C53.1625 36.1287 53.1957 36.0869 53.2296 36.0455C53.6075 36.2154 53.9895 36.5595 54.2329 36.6131C53.8661 36.2313 53.6086 35.965 53.2501 36.0196C53.3428 35.9055 53.4333 35.7898 53.5217 35.6724C53.8658 35.8036 54.2066 36.0907 54.4306 36.1284C54.1038 35.8071 53.8755 35.585 53.5347 35.6554C53.5509 35.6337 53.5679 35.6126 53.5841 35.5908C53.6479 35.5041 53.711 35.4167 53.772 35.3279C54.0854 35.4506 54.3952 35.71 54.5994 35.7439C54.3025 35.4523 54.0944 35.2488 53.7879 35.3051C53.8604 35.1987 53.9292 35.0902 53.9906 34.9762C53.9981 34.9628 53.9927 34.9455 53.9783 34.9382C53.9639 34.9306 53.9458 34.9358 53.9379 34.9496L53.9375 34.9503C53.8788 35.0536 53.8131 35.1535 53.7439 35.2519C53.763 35.0035 53.574 34.8066 53.3143 34.5378C53.3385 34.7282 53.5772 35.0243 53.6941 35.3203C53.6382 35.397 53.5808 35.473 53.5231 35.5487C53.5094 35.5663 53.495 35.5836 53.4813 35.6012C53.526 35.3127 53.3154 35.093 53.0196 34.7869C53.0463 34.9973 53.3147 35.3272 53.4387 35.6544C53.3558 35.7594 53.271 35.8631 53.1841 35.9653C53.2378 35.6399 52.9782 35.3846 52.6103 35.025C52.6536 35.2592 52.989 35.6395 53.1477 36.0081C53.1174 36.0437 53.0878 36.0797 53.0572 36.1149C52.9995 36.1816 52.9403 36.2472 52.8815 36.3132C52.9327 35.965 52.6528 35.6896 52.2576 35.3034C52.3041 35.5559 52.664 35.9653 52.8375 36.3626C52.7354 36.4759 52.6323 36.5875 52.5273 36.698C52.5623 36.3477 52.2861 36.0403 51.9045 35.6181C51.938 35.8893 52.2839 36.3412 52.4534 36.7751C52.369 36.8632 52.2835 36.9506 52.197 37.0373C52.237 36.6559 51.9366 36.3215 51.5214 35.8624C51.5582 36.1567 51.9333 36.6469 52.1169 37.1178C52.0942 37.1402 52.0718 37.1634 52.0487 37.1858C51.9301 37.3023 51.8096 37.4163 51.6877 37.5296C51.7483 37.1389 51.4508 36.7357 51.0436 36.1874C51.0544 36.5074 51.4215 37.0936 51.581 37.6277C51.4439 37.7528 51.3047 37.8754 51.1633 37.9953C51.2856 37.5462 50.9505 37.0919 50.4809 36.46C50.4928 36.8162 50.9119 37.476 51.0767 38.0675C51.0353 38.102 50.9945 38.1373 50.9527 38.1711C50.8221 38.2779 50.689 38.3812 50.5545 38.4831C50.7089 38.0053 50.3753 37.493 49.9096 36.7827C49.8992 37.1696 50.3089 37.9096 50.4506 38.5611C50.3013 38.672 50.1498 38.7795 49.9958 38.8835C50.1091 38.5822 50.0359 38.2685 49.8595 37.9103C49.9028 38.3228 49.936 38.7228 49.9652 39.1167C49.9818 39.1049 49.9984 39.0939 50.0149 39.0821C50.7554 39.2573 51.5939 39.7427 52.0412 39.7537C51.2603 39.2286 50.6984 38.8527 50.147 38.9913C50.3049 38.879 50.4593 38.7622 50.6111 38.643C51.2921 38.8057 52.061 39.2504 52.4718 39.2607C51.7476 38.7736 51.2275 38.4261 50.7161 38.5608C50.83 38.4693 50.9429 38.377 51.054 38.2827C51.1171 38.2292 51.1788 38.1742 51.2408 38.1196C51.8587 38.3014 52.5446 38.7532 52.923 38.7836C52.2651 38.2844 51.7992 37.9324 51.3054 38.0633C51.4493 37.9352 51.59 37.8039 51.7288 37.6705C52.2965 37.8391 52.9259 38.2526 53.2732 38.2806C52.6684 37.8215 52.2392 37.4975 51.7855 37.6163C51.9041 37.5013 52.022 37.3852 52.1371 37.267C52.1652 37.2384 52.1923 37.2093 52.2204 37.1803C52.7261 37.3686 53.2548 37.7921 53.5762 37.845C53.0644 37.3745 52.708 37.049 52.2406 37.1592C52.3513 37.0442 52.4606 36.9281 52.5681 36.8107C53.033 36.9844 53.5192 37.3734 53.8146 37.4221C53.3446 36.9896 53.0168 36.6904 52.5879 36.7892C52.7019 36.6642 52.8144 36.5374 52.9248 36.4096C53.3349 36.5941 53.7493 36.9675 54.0136 37.0256Z" fill="#263238"/>
<path d="M60.2928 36.7737C60.032 36.8836 59.6818 37.3327 59.2981 37.6146C59.1852 37.5628 59.073 37.5099 58.9616 37.4564C59.354 37.3818 59.5999 37.0087 59.9375 36.4939C59.6544 36.6134 59.2746 37.1002 58.858 37.4063C58.8288 37.3918 58.7993 37.3783 58.77 37.3638C58.6193 37.2892 58.47 37.2121 58.3217 37.1334C58.7293 37.0746 59.0452 36.6843 59.4733 36.1512C59.157 36.2545 58.6792 36.7623 58.1919 37.0643C58.0271 36.9752 57.8641 36.8836 57.7028 36.7889C58.1868 36.7699 58.5425 36.3298 59.0362 35.7156C58.6842 35.8306 58.1475 36.4069 57.6055 36.7309C57.5589 36.7029 57.512 36.676 57.4659 36.6473C57.3213 36.5589 57.1792 36.467 57.0381 36.3737C57.5604 36.3758 57.9744 35.9204 58.5475 35.2865C58.158 35.3898 57.5391 35.9816 56.9296 36.3015C56.7752 36.1972 56.6237 36.0897 56.4748 35.9788C57.0619 36.0068 57.5178 35.5059 58.1555 34.8008C57.7295 34.9141 57.0508 35.565 56.3846 35.9101C56.3399 35.8759 56.2941 35.8427 56.2501 35.8078L56.249 35.8071L56.2479 35.8061C56.2075 35.7757 56.1491 35.7822 56.1174 35.8209C56.0856 35.8593 56.0925 35.9153 56.1329 35.946C56.1819 35.983 56.2324 36.0186 56.2818 36.0545C56.3233 36.7841 56.0835 37.6937 56.2032 38.1069C56.4993 37.238 56.7103 36.6134 56.4113 36.1484C56.5696 36.2604 56.7312 36.3675 56.8946 36.4718C56.931 37.143 56.7117 37.9773 56.8217 38.3567C57.0966 37.551 57.2913 36.9731 57.0078 36.5437C57.1323 36.6214 57.2574 36.6977 57.3844 36.772C57.4561 36.8142 57.529 36.8546 57.6019 36.8957C57.6011 37.5148 57.3505 38.2751 57.4305 38.6306C57.7371 37.8823 57.9524 37.3521 57.6772 36.9385C57.8471 37.0328 58.0195 37.1234 58.193 37.2118C58.1905 37.7811 57.9614 38.4783 58.035 38.8047C58.3167 38.1166 58.5147 37.6288 58.2637 37.2477C58.4133 37.323 58.5637 37.397 58.7152 37.4681C58.752 37.4854 58.7892 37.502 58.8259 37.5189C58.7856 38.0368 58.5172 38.6451 58.5583 38.955C58.8786 38.3487 59.0993 37.9273 58.8526 37.531C58.9998 37.5987 59.1477 37.665 59.2966 37.7293C59.2587 38.206 59.0124 38.765 59.0503 39.0497C59.3446 38.4928 59.5476 38.1052 59.3237 37.7411C59.482 37.8091 59.6411 37.8751 59.8012 37.9387C59.7366 38.3684 59.4852 38.8573 59.504 39.1164C59.8012 38.631 60.0078 38.291 59.8358 37.9525C59.9235 37.987 60.0115 38.0216 60.0995 38.0551C60.1507 38.0744 60.2022 38.0924 60.2538 38.1114C60.1943 38.5073 59.9624 38.9578 59.9801 39.1965C60.2542 38.7488 60.445 38.4351 60.2852 38.1228C60.4262 38.1743 60.5683 38.2237 60.7111 38.2703C60.6805 38.6237 60.4933 39.0203 60.5214 39.2362C60.7465 38.8427 60.9019 38.5691 60.7317 38.2772C60.758 38.2858 60.784 38.2952 60.8107 38.3035C60.916 38.3366 61.0217 38.3688 61.1281 38.3988C61.0971 38.7218 60.9286 39.0815 60.9542 39.2784C61.1587 38.9212 61.3008 38.671 61.1555 38.4068C61.2828 38.442 61.4112 38.4734 61.5428 38.4966C61.5587 38.4994 61.5742 38.4897 61.5775 38.4745C61.5807 38.4589 61.5702 38.4441 61.5544 38.4406L61.5537 38.4403C61.4336 38.4168 61.3142 38.3857 61.1959 38.3508C61.4494 38.2955 61.5908 38.0651 61.7834 37.7483C61.6002 37.826 61.3748 38.1314 61.1129 38.3249C61.0199 38.2962 60.9272 38.2658 60.8352 38.2347C60.8136 38.2275 60.7919 38.2192 60.7703 38.2119C61.0714 38.1687 61.2294 37.9114 61.4483 37.551C61.2457 37.6371 60.9953 37.9791 60.7043 38.1884C60.5752 38.1432 60.4468 38.0955 60.3195 38.0461C60.6599 38.0002 60.8392 37.6878 61.0906 37.246C60.8691 37.3541 60.5874 37.7721 60.2661 38.0254C60.2217 38.0081 60.1774 37.9912 60.133 37.9739C60.0497 37.9404 59.9667 37.9058 59.8838 37.8709C60.2462 37.816 60.4396 37.4792 60.7097 37.0045C60.4709 37.1209 60.1676 37.57 59.8214 37.8454C59.6786 37.7853 59.5368 37.7231 59.3958 37.6592C59.7565 37.5897 59.983 37.2463 60.2928 36.7737Z" fill="#263238"/>
<path d="M58.2102 41.3812C58.5312 41.4849 58.8572 41.7246 59.0632 41.7464C58.7479 41.4735 58.5265 41.2831 58.2243 41.3577C58.2895 41.2472 58.3509 41.1346 58.405 41.0174C58.4114 41.0033 58.405 40.9867 58.3902 40.9801C58.3754 40.9736 58.3577 40.9798 58.3505 40.994L58.3501 40.995C58.2986 41.1014 58.2394 41.2054 58.1767 41.3076C58.1792 41.0586 57.9779 40.8737 57.7006 40.6208C57.7374 40.8095 57.9952 41.0903 58.1312 41.3788C58.0804 41.4586 58.0284 41.5381 57.9758 41.6168C57.9631 41.6355 57.9498 41.6535 57.9372 41.6718C57.9628 41.3812 57.7381 41.1746 57.4229 40.8872C57.4633 41.0959 57.7529 41.4085 57.8982 41.7277C57.8221 41.8372 57.7446 41.9461 57.6649 42.0535C57.697 41.7257 57.4211 41.4866 57.0301 41.1501C57.0885 41.3812 57.4485 41.7405 57.6313 42.0988C57.6036 42.1361 57.5761 42.1737 57.548 42.2107C57.4946 42.2808 57.4402 42.3499 57.3857 42.4193C57.4135 42.0687 57.1163 41.8106 56.6965 41.4493C56.7596 41.6987 57.1459 42.0853 57.3453 42.4712C57.2512 42.5904 57.1552 42.7082 57.0579 42.8246C57.0698 42.4729 56.7737 42.1827 56.365 41.7844C56.4166 42.0528 56.7917 42.4829 56.989 42.9058C56.9104 42.999 56.831 43.0913 56.7506 43.1828C56.7654 42.8001 56.4433 42.4843 55.9986 42.0511C56.0545 42.3427 56.4613 42.809 56.6756 43.2678C56.6543 43.2917 56.6334 43.3162 56.6121 43.34C56.5014 43.463 56.3885 43.5846 56.2745 43.7045C56.3091 43.311 55.9856 42.9268 55.5431 42.4042C55.5748 42.7227 55.9802 43.2854 56.1746 43.8092C56.0462 43.9425 55.9153 44.0731 55.7818 44.2016C55.8742 43.7459 55.5095 43.3131 54.9996 42.7109C55.0349 43.0657 55.4965 43.699 55.7003 44.279C55.6614 44.316 55.6228 44.3533 55.5835 44.3899C55.4601 44.5042 55.3339 44.6155 55.2066 44.7257C55.3292 44.2393 54.9624 43.7484 54.451 43.0674C54.4661 43.4544 54.9238 44.1681 55.1081 44.81C54.9667 44.9295 54.8225 45.0463 54.6753 45.1592C54.8391 44.6186 54.4362 44.0779 53.8671 43.3207C53.8837 43.7439 54.3879 44.5267 54.5848 45.2277C54.5397 45.2615 54.4953 45.2961 54.4499 45.3292L54.4488 45.3299L54.4477 45.3309C54.4073 45.3613 54.4008 45.4177 54.4326 45.456C54.4643 45.4944 54.5228 45.5009 54.5631 45.4705C54.6122 45.4332 54.6598 45.3945 54.7081 45.3565C55.4587 45.4864 56.3275 45.9203 56.7747 45.9041C55.9607 45.4273 55.375 45.0864 54.8336 45.2577C54.984 45.1358 55.1301 45.01 55.274 44.8818C55.9643 45.0028 56.761 45.4 57.1718 45.3855C56.417 44.943 55.8749 44.6279 55.3736 44.7931C55.4814 44.6949 55.5878 44.5961 55.6924 44.4949C55.7519 44.4379 55.81 44.3792 55.8684 44.3211C56.497 44.4652 57.2115 44.8742 57.5909 44.8818C56.9017 44.4234 56.413 44.1 55.9293 44.261C56.0646 44.1246 56.1962 43.9847 56.3261 43.8434C56.9039 43.9774 57.5592 44.3519 57.9076 44.3588C57.2735 43.937 56.8238 43.6399 56.3791 43.7857C56.4902 43.6637 56.5998 43.5404 56.7073 43.416C56.7333 43.3856 56.7589 43.3549 56.7845 43.3245C57.3013 43.4817 57.8571 43.8724 58.1813 43.9059C57.6396 43.4672 57.2624 43.1642 56.8029 43.3024C56.9057 43.1808 57.007 43.0585 57.1066 42.9344C57.5823 43.0799 58.0926 43.4385 58.3909 43.4692C57.8932 43.0661 57.5466 42.7876 57.125 42.912C57.2306 42.7804 57.3345 42.647 57.4362 42.5126C57.8575 42.6719 58.296 43.0194 58.5636 43.0616C58.1395 42.6726 57.842 42.4014 57.4582 42.4833C57.5137 42.4097 57.5693 42.3357 57.6234 42.2611C57.6548 42.2176 57.6851 42.1737 57.7164 42.1305C58.1049 42.2774 58.5088 42.5976 58.7555 42.6363C58.3642 42.2774 58.0897 42.0272 57.7356 42.1036C57.8207 41.9841 57.9033 41.8632 57.9837 41.7409C58.3357 41.8511 58.6949 42.1171 58.9207 42.1406C58.5734 41.8397 58.331 41.6317 57.9952 41.7232C58.01 41.7004 58.0255 41.6787 58.0403 41.6559C58.098 41.5643 58.155 41.4735 58.2102 41.3812Z" fill="#263238"/>
<path d="M60.3987 45.236C60.4726 45.1424 60.5531 45.0526 60.6367 44.9652C60.5797 45.208 60.7363 45.4295 60.952 45.7321C60.9574 45.5404 60.7666 45.2139 60.6966 44.9047C60.7637 44.8367 60.8322 44.7693 60.9007 44.7033C60.917 44.6878 60.9339 44.6729 60.9501 44.6574C60.8614 44.9361 61.036 45.1835 61.2816 45.5279C61.2877 45.3158 61.0728 44.952 61.0006 44.6107C61.0991 44.5185 61.1986 44.428 61.3004 44.3388C61.1972 44.6532 61.415 44.9424 61.7234 45.3497C61.7166 45.112 61.4435 44.6884 61.3429 44.3015C61.3783 44.2708 61.4132 44.2393 61.449 44.2086C61.5164 44.1509 61.5849 44.0939 61.6531 44.0369C61.5492 44.3741 61.7836 44.686 62.1151 45.1237C62.1079 44.8671 61.8147 44.4117 61.7039 43.9944C61.8222 43.897 61.9416 43.8009 62.0621 43.7063C61.9737 44.0476 62.1999 44.391 62.5122 44.8622C62.5205 44.5893 62.2478 44.0935 62.1472 43.6406C62.2446 43.5653 62.3423 43.4907 62.4411 43.4175C62.3427 43.7888 62.589 44.162 62.9288 44.675C62.9378 44.3789 62.642 43.841 62.5327 43.3494C62.5587 43.3301 62.5843 43.3107 62.6107 43.2917C62.7459 43.1936 62.8826 43.0976 63.0204 43.0029C62.9003 43.3809 63.1325 43.8213 63.4514 44.4211C63.49 44.1032 63.2166 43.4714 63.1412 42.9203C63.2959 42.816 63.4524 42.7144 63.6111 42.6156C63.4211 43.0423 63.6829 43.5391 64.0501 44.2304C64.093 43.8766 63.7799 43.1646 63.7078 42.5562C63.754 42.5279 63.7998 42.4989 63.8463 42.4712C63.992 42.3842 64.1395 42.3006 64.2881 42.2187C64.0616 42.6695 64.313 43.2233 64.6646 43.9916C64.7342 43.6102 64.4428 42.8209 64.4028 42.1562C64.5673 42.0674 64.7339 41.9824 64.9023 41.9016C64.6239 42.3977 64.8998 43.0071 65.2904 43.8617C65.3669 43.4448 65.0448 42.5776 65.0058 41.8532C65.0574 41.8294 65.1083 41.8041 65.1602 41.781L65.1613 41.7803L65.1627 41.7796C65.2089 41.7579 65.2276 41.7046 65.2049 41.6604C65.1822 41.6166 65.1267 41.5982 65.0805 41.62C65.0242 41.6466 64.9694 41.6749 64.9139 41.7022C64.2084 41.4245 63.4535 40.8261 63.0128 40.7522C63.7045 41.3816 64.2026 41.8325 64.7692 41.7737C64.5958 41.8625 64.4252 41.9561 64.2567 42.0529C63.6082 41.7959 62.9161 41.2476 62.5111 41.1799C63.1527 41.7641 63.6137 42.1807 64.1402 42.1199C64.0133 42.1938 63.8874 42.2695 63.7633 42.3472C63.6926 42.3914 63.623 42.4367 63.5534 42.482C62.9702 42.2153 62.3611 41.6715 61.9917 41.5882C62.5656 42.1748 62.9728 42.5887 63.4809 42.5289C63.319 42.6353 63.1596 42.7455 63.002 42.8578C62.466 42.6112 61.9077 42.1133 61.5683 42.0366C62.096 42.5759 62.4707 42.957 62.9378 42.9034C62.8025 43.0005 62.6684 43.099 62.536 43.1991C62.5039 43.2237 62.4725 43.2489 62.4404 43.2731C61.9694 43.0157 61.5113 42.522 61.2015 42.4246C61.6354 42.9621 61.938 43.3342 62.4173 43.291C62.29 43.3891 62.1642 43.4886 62.0397 43.5899C61.6066 43.3522 61.1857 42.8993 60.9007 42.8095C61.2993 43.3035 61.5773 43.6455 62.017 43.6085C61.885 43.7163 61.7544 43.8255 61.6257 43.9364C61.2484 43.6963 60.8957 43.2682 60.6436 43.1736C60.9732 43.6393 61.2051 43.9643 61.5983 43.9609C61.5279 44.022 61.4576 44.0828 61.388 44.145C61.348 44.181 61.3083 44.2179 61.2686 44.2542C60.9209 44.0327 60.596 43.6386 60.3633 43.5508C60.6674 43.9802 60.8813 44.2801 61.2441 44.2763C61.1348 44.3761 61.0273 44.4777 60.922 44.5814C60.6021 44.4031 60.3089 44.0711 60.0932 44.0023C60.3673 44.3661 60.5585 44.618 60.9069 44.5962C60.8874 44.6156 60.8672 44.6339 60.8481 44.6532C60.7716 44.7299 60.6959 44.8076 60.6219 44.8867C60.3309 44.7209 60.0644 44.4211 59.8674 44.3585C60.1159 44.6888 60.2909 44.9192 60.6025 44.9068C60.5145 45.0018 60.4297 45.0996 60.3514 45.2032C60.3421 45.216 60.3446 45.2332 60.3576 45.2426C60.3706 45.2522 60.3893 45.2495 60.3994 45.237L60.3987 45.236Z" fill="#263238"/>
<path d="M56.1708 50.1571C56.3147 50.0289 56.4553 49.8976 56.5942 49.7643C57.1619 49.9329 57.7909 50.3467 58.1386 50.3744C57.5337 49.9153 57.1045 49.5912 56.6508 49.71C56.7695 49.595 56.8874 49.4789 57.0028 49.3608C57.031 49.3321 57.058 49.3027 57.0861 49.2741C57.5918 49.4623 58.1205 49.8859 58.4419 49.9387C57.9301 49.4682 57.5738 49.1428 57.1063 49.2533C57.2171 49.1383 57.3263 49.0219 57.4338 48.9044C57.8991 49.0785 58.3849 49.4672 58.6803 49.5159C58.2103 49.0837 57.8825 48.7842 57.4537 48.883C57.5676 48.7579 57.6802 48.6315 57.7905 48.5033C58.2006 48.6878 58.6154 49.0613 58.8794 49.1196C58.4815 48.7058 58.2024 48.417 57.8143 48.4757C57.8745 48.4052 57.9348 48.3351 57.9939 48.2639C58.0282 48.2225 58.0614 48.1807 58.0953 48.1392C58.4733 48.3092 58.8552 48.6533 59.0986 48.7068C58.7319 48.3251 58.4743 48.0587 58.1158 48.1136C58.2085 47.9996 58.2991 47.8839 58.3874 47.7664C58.7315 47.8977 59.0723 48.1848 59.2963 48.2221C58.9695 47.9008 58.7412 47.6787 58.4004 47.7492C58.4166 47.7274 58.4336 47.7063 58.4498 47.6846C58.5137 47.5979 58.5768 47.5105 58.6377 47.4217C58.9511 47.5443 59.2609 47.8038 59.4651 47.838C59.1683 47.5464 58.9602 47.3429 58.6536 47.3992C58.7261 47.2928 58.7946 47.184 58.8563 47.0703C58.8639 47.0565 58.8584 47.0396 58.844 47.032C58.8296 47.0247 58.8116 47.0296 58.8036 47.0434L58.8033 47.0441C58.7445 47.1474 58.6788 47.2476 58.6096 47.3457C58.6287 47.0973 58.4397 46.9004 58.18 46.6316C58.2042 46.8219 58.443 47.118 58.5598 47.4141C58.5039 47.4908 58.4466 47.5668 58.3889 47.6424C58.3752 47.66 58.3607 47.6773 58.347 47.6949C58.3917 47.4065 58.1811 47.1864 57.8854 46.8807C57.9121 47.0914 58.1804 47.421 58.3045 47.7481C58.2215 47.8532 58.1368 47.9568 58.0498 48.0591C58.1036 47.734 57.8439 47.4783 57.476 47.119C57.5193 47.3533 57.8547 47.7336 58.0134 48.1019C57.9831 48.1375 57.9535 48.1734 57.9229 48.2086C57.8652 48.2753 57.806 48.3413 57.7472 48.4069C57.7985 48.0591 57.5186 47.7834 57.1233 47.3971C57.1698 47.6497 57.5298 48.0587 57.7036 48.4563C57.6015 48.5693 57.4984 48.6809 57.3934 48.7918C57.4288 48.4415 57.1521 48.134 56.7706 47.7119C56.8045 47.9831 57.1503 48.4349 57.3195 48.8688C57.2351 48.9569 57.1496 49.0443 57.0631 49.131C57.1031 48.7496 56.8027 48.4152 56.3875 47.9561C56.4243 48.2501 56.7994 48.7403 56.983 49.2115C56.9603 49.234 56.9379 49.2571 56.9148 49.2796C56.7962 49.396 56.6757 49.51 56.5538 49.623C56.6144 49.2323 56.3168 48.8291 55.9096 48.2808C55.9205 48.6007 56.288 49.187 56.447 49.7214C56.31 49.8465 56.1708 49.9691 56.029 50.089C56.1513 49.6399 55.8162 49.1856 55.3467 48.5541C55.3586 48.9103 55.7773 49.5701 55.9425 50.1616C55.901 50.1961 55.8602 50.2314 55.8184 50.2652C55.6878 50.3716 55.5544 50.4753 55.4202 50.5772C55.5749 50.0994 55.241 49.5871 54.7757 48.8768C54.7653 49.2592 55.1642 49.9857 55.3102 50.6318C55.4029 50.638 55.4956 50.6442 55.5879 50.6501C55.6997 50.5602 55.8108 50.4697 55.9201 50.3768C55.9832 50.3232 56.0449 50.2683 56.1069 50.2137C56.5314 50.3384 56.9862 50.5886 57.3534 50.7444C57.445 50.7482 57.5359 50.7516 57.6271 50.7554C57.0526 50.3236 56.6223 50.0372 56.1708 50.1571Z" fill="#263238"/>
<path d="M54.1755 49.0945C54.1665 49.4289 54.4455 50.0065 54.6375 50.5852C54.7285 50.5917 54.8201 50.599 54.9107 50.6052C54.8811 50.1772 54.5747 49.7032 54.1755 49.0945Z" fill="#263238"/>
<path d="M55.6062 50.652C55.7885 50.6636 55.97 50.6749 56.1508 50.6855C55.9628 50.6251 55.7838 50.6099 55.6062 50.652Z" fill="#263238"/>
<path d="M66.1027 49.9279C66.1131 49.9079 66.1232 49.8858 66.1333 49.8643C66.089 49.8498 66.0446 49.836 66.0006 49.8211C65.979 49.8139 65.9573 49.8056 65.9357 49.7984C66.0432 49.7828 66.1315 49.7393 66.212 49.6747C66.2448 49.5845 66.2758 49.4881 66.3043 49.3821C66.1719 49.5113 66.0273 49.6622 65.8701 49.7752C65.7409 49.7299 65.6125 49.6823 65.4852 49.6329C65.8257 49.5869 66.0049 49.2746 66.2563 48.8328C66.0349 48.9409 65.7532 49.3589 65.4318 49.6125C65.3875 49.5952 65.3431 49.5783 65.2988 49.5607C65.2154 49.5272 65.1325 49.4926 65.0495 49.4577C65.412 49.4028 65.6053 49.066 65.8755 48.5913C65.6367 48.7077 65.3334 49.1572 64.9871 49.4322C64.8443 49.372 64.7026 49.3099 64.5616 49.2459C64.9215 49.1758 65.1476 48.8324 65.4578 48.3598C65.1971 48.47 64.8468 48.9188 64.4631 49.2007C64.3502 49.1489 64.238 49.0964 64.1266 49.0425C64.519 48.9678 64.765 48.5947 65.1026 48.08C64.8194 48.1995 64.4397 48.6863 64.0231 48.9924C63.9939 48.9779 63.9643 48.9644 63.9351 48.9499C63.7843 48.8753 63.635 48.7982 63.4868 48.7195C63.8943 48.6607 64.2103 48.2707 64.6384 47.7373C64.3221 47.8406 63.8442 48.3488 63.3573 48.6507C63.1925 48.5619 63.0291 48.47 62.8682 48.3754C63.3522 48.356 63.7079 47.9162 64.2016 47.3017C63.8496 47.4167 63.3129 47.9929 62.7709 48.317C62.7243 48.289 62.6771 48.2621 62.6313 48.2337C62.4867 48.1453 62.3446 48.0534 62.2035 47.9601C62.7258 47.9622 63.1398 47.5069 63.7129 46.8729C63.3234 46.9766 62.7045 47.568 62.095 47.8879C61.9406 47.7836 61.7891 47.6765 61.6402 47.5653C62.2273 47.5932 62.6832 47.0923 63.3209 46.3872C62.8949 46.5005 62.2162 47.1514 61.5496 47.4968C61.5049 47.4626 61.4595 47.4295 61.4151 47.3946L61.414 47.3936L61.413 47.3929C61.3726 47.3625 61.3141 47.369 61.2824 47.4077C61.2507 47.4464 61.2575 47.502 61.2979 47.5328C61.347 47.5697 61.3974 47.605 61.4469 47.6413C61.4883 48.3709 61.2485 49.2808 61.3682 49.6937C61.6647 48.8248 61.8757 48.2002 61.5763 47.7356C61.7347 47.8475 61.8962 47.9546 62.0596 48.0589C62.0961 48.7302 61.8768 49.5645 61.9868 49.9438C62.2616 49.1378 62.4564 48.5602 62.1729 48.1308C62.2973 48.2085 62.4228 48.2849 62.5494 48.3591C62.6212 48.4013 62.694 48.4417 62.7669 48.4828C62.7662 49.1019 62.5151 49.8623 62.5956 50.2177C62.9021 49.4695 63.1175 48.9392 62.8423 48.5256C63.0121 48.62 63.1845 48.7108 63.358 48.7986C63.3555 49.3679 63.1265 50.065 63.2 50.3915C63.4817 49.7033 63.6797 49.2156 63.4287 48.8345C63.5784 48.9098 63.7288 48.9837 63.8803 49.0549C63.9171 49.0722 63.9542 49.0888 63.991 49.106C63.9506 49.6242 63.6823 50.2323 63.7234 50.5421C64.0436 49.9358 64.2644 49.5144 64.0177 49.1181C64.1648 49.1858 64.3127 49.2522 64.4617 49.3164C64.4249 49.7787 64.1944 50.3159 64.215 50.6081C64.2207 50.6074 64.2261 50.6064 64.2319 50.6057C64.5168 50.0661 64.7084 49.6854 64.4891 49.3285C64.6474 49.3966 64.8065 49.4626 64.9666 49.5261C64.9143 49.875 64.7408 50.2609 64.6867 50.5332C64.7188 50.5273 64.7524 50.5218 64.7837 50.5155C65.0153 50.1272 65.1505 49.8325 65.0016 49.5396C65.0892 49.5741 65.1769 49.609 65.2652 49.6422C65.3164 49.6615 65.368 49.6795 65.4196 49.6985C65.3835 49.9383 65.2851 50.1974 65.2162 50.4181C65.2735 50.4033 65.3301 50.3881 65.3832 50.3722C65.5072 50.1255 65.557 49.9172 65.4513 49.7103C65.5923 49.7617 65.7344 49.8111 65.8773 49.8578C65.8672 49.9735 65.8394 50.0927 65.8087 50.2095C65.8675 50.1808 65.9202 50.1504 65.9674 50.1189C65.9667 50.0336 65.9476 49.9497 65.8978 49.8643C65.9242 49.873 65.9501 49.8823 65.9768 49.8906C66.0179 49.903 66.0605 49.9151 66.1027 49.9279Z" fill="#263238"/>
<path d="M52.224 42.717L52.2254 42.7166L52.2268 42.7163C52.2763 42.7031 52.3051 42.6541 52.2914 42.6068C52.2777 42.5594 52.2265 42.5318 52.1771 42.5449C52.1168 42.5608 52.0573 42.5791 51.9975 42.596C51.3584 42.1974 50.7337 41.4743 50.315 41.323C50.8718 42.0651 51.2732 42.5971 51.8417 42.6403C51.6537 42.6966 51.468 42.7581 51.2837 42.823C50.8498 42.5508 50.4242 42.119 50.0758 41.8557C50.0762 41.9362 50.0748 42.0119 50.0748 42.0917C50.4336 42.5421 50.7485 42.8417 51.156 42.8679C51.0172 42.9184 50.8787 42.9698 50.7413 43.0241C50.6634 43.0548 50.5862 43.0869 50.5086 43.1191C50.3593 43.0141 50.2133 42.8862 50.0715 42.7539C50.0701 42.8507 50.0686 42.9467 50.0668 43.0417C50.1783 43.1049 50.2969 43.1436 50.4282 43.1519C50.3038 43.2041 50.1815 43.2604 50.0585 43.316C50.0571 43.3651 50.0556 43.4131 50.0542 43.4618C50.2147 43.3923 50.3763 43.325 50.5393 43.2611C50.2695 43.6466 50.43 44.1814 50.6561 44.9259C50.7672 44.5859 50.5984 43.8304 50.646 43.2203C50.6969 43.2006 50.7478 43.1802 50.799 43.1616C50.9591 43.1021 51.1203 43.0465 51.2823 42.9923C50.9721 43.3948 51.1113 43.9838 51.3068 44.8015C51.4496 44.4395 51.3169 43.6114 51.4071 42.9515C51.5859 42.8938 51.7659 42.8399 51.9473 42.7909C51.5769 43.2282 51.7295 43.8763 51.947 44.7856C52.1031 44.3897 51.9556 43.4804 52.0584 42.7615C52.1136 42.746 52.1684 42.7304 52.224 42.717Z" fill="#263238"/>
<path d="M49.9945 44.883C50.0067 44.9238 50.0185 44.9631 50.0311 45.0056C50.0942 44.8111 50.0587 44.4691 50.0329 44.1033C50.0218 44.3696 50.0088 44.6301 49.9945 44.883Z" fill="#263238"/>
<path d="M51.2728 49.9374C51.2288 49.8686 51.183 49.8005 51.1376 49.7328C51.4308 49.1811 52.0136 48.6118 52.1103 48.2601C51.4835 48.7945 51.0409 49.1739 51.0907 49.662C50.9836 49.5041 50.8729 49.3487 50.76 49.1949C51.0312 48.6881 51.565 48.1658 51.6537 47.8431C51.0774 48.3347 50.6702 48.6837 50.7138 49.1321C50.6161 49.0001 50.5169 48.8692 50.4152 48.74C50.3906 48.7085 50.365 48.6778 50.3405 48.6463C50.6211 48.2017 51.148 47.7758 51.2577 47.4818C50.6857 47.8836 50.2897 48.1637 50.3225 48.6239C50.2233 48.4999 50.1227 48.3765 50.0202 48.2549C50.2792 47.8459 50.7629 47.4548 50.8638 47.1843C50.338 47.5533 49.9741 47.811 50.0015 48.2328C49.9286 48.1461 49.8536 48.0611 49.779 47.9761C49.7757 48.0238 49.7725 48.0732 49.7696 48.1199C49.8121 48.1713 49.8558 48.2221 49.8976 48.2739C49.8522 48.2618 49.8067 48.2553 49.7606 48.2529C49.7577 48.3043 49.7555 48.3537 49.7526 48.4042C49.8237 48.3862 49.8944 48.3696 49.964 48.3572C50.0401 48.4522 50.1151 48.5479 50.1894 48.6443C50.0441 48.6052 49.8976 48.6132 49.7418 48.6546C49.7386 48.7261 49.7346 48.8001 49.7324 48.8695C49.9059 48.816 50.0844 48.7648 50.2579 48.7337C50.277 48.759 50.2969 48.7842 50.3163 48.8097C50.4155 48.9417 50.5122 49.0754 50.6074 49.2095C50.3542 49.129 50.0686 49.1901 49.7274 49.321C49.7274 49.3846 49.7256 49.452 49.7267 49.5135C50.0282 49.4475 50.3719 49.3594 50.6904 49.3273C50.7953 49.4779 50.8974 49.6306 50.9966 49.7847C50.6525 49.634 50.2558 49.7477 49.7512 49.9629C49.7548 50.0075 49.7552 50.0579 49.7598 50.1011C49.7873 50.1046 49.8147 50.1077 49.8421 50.1111C50.2096 50.0362 50.655 49.9125 51.0561 49.8786C51.0846 49.9235 51.1134 49.9681 51.1412 50.0134C51.1953 50.1018 51.2465 50.1916 51.2984 50.2807C51.3659 50.288 51.433 50.2953 51.5004 50.3025C51.4261 50.1799 51.3507 50.0579 51.2728 49.9374Z" fill="#263238"/>
<path d="M49.8626 46.8017C49.8583 46.8578 49.8547 46.9085 49.8503 46.9639C49.9658 46.8481 50.0626 46.742 50.103 46.6501C50.0171 46.7035 49.9377 46.7531 49.8626 46.8017Z" fill="#263238"/>
<path d="M51.9833 50.353C52.0901 50.3641 52.197 50.3751 52.3041 50.3855C52.5925 49.9471 52.8979 49.5391 52.9567 49.2593C52.5214 49.6756 52.1684 50.0172 51.9833 50.353Z" fill="#263238"/>
<path d="M51.6194 50.315C51.9179 49.7315 52.4467 49.1321 52.5236 48.7673C51.8977 49.3664 51.4509 49.7968 51.5003 50.3022C51.54 50.3064 51.5797 50.3109 51.6194 50.315Z" fill="#263238"/>
<path d="M49.8165 47.4195C49.8096 47.5117 49.8035 47.6033 49.797 47.6927C50.058 47.3988 50.4008 47.1317 50.4903 46.9282C50.2012 47.1054 49.9659 47.253 49.8165 47.4195Z" fill="#263238"/>
</g>
<path d="M74.8676 38.9738L76.4621 37.3542L78.6701 40.3325C78.6701 40.3325 76.8061 41.5997 75.0201 41.5489L74.8153 41.1115C74.4824 40.4002 74.5015 39.6139 74.8676 38.9738Z" fill="#FFB573"/>
<path d="M79.0172 37.5098L79.6408 38.6353C79.925 39.1483 79.7245 39.785 79.1911 40.0617L78.6699 40.3322L76.4619 37.354L77.7246 36.9923C78.2292 36.8472 78.7702 37.0641 79.0172 37.5098Z" fill="#FFB573"/>
<path d="M66.4426 33.1577L66.5768 33.8189L66.7283 34.5171C66.8369 34.9828 66.9429 35.4502 67.0655 35.9117C67.3007 36.8379 67.5791 37.7451 67.8821 38.6226C68.1955 39.4935 68.5471 40.3337 68.9514 41.0782C69.3583 41.8154 69.8271 42.459 70.2733 42.8415L69.5065 42.4798C69.2818 42.4504 69.2414 42.516 69.3579 42.5122C69.4683 42.5122 69.6782 42.457 69.9047 42.3623C70.3652 42.1685 70.9127 41.86 71.4407 41.5011C71.9789 41.1476 72.5177 40.7459 73.058 40.3306C73.5957 39.9202 74.145 39.467 74.6687 39.0562L74.7242 39.0123C75.2667 38.587 76.0663 38.663 76.5106 39.1826C76.8406 39.5685 76.8807 40.0912 76.6578 40.5085C76.2881 41.1981 75.8914 41.8054 75.4488 42.4248C75.0066 43.0374 74.5233 43.6302 73.9791 44.2088C73.4233 44.7782 72.83 45.3475 72.0355 45.8609C71.6333 46.1158 71.184 46.3666 70.5953 46.5646C70.3007 46.663 69.966 46.7439 69.5794 46.7777C69.1949 46.8123 68.7523 46.7974 68.2943 46.6893C68.0422 46.6295 67.8132 46.5255 67.6145 46.3884L67.5272 46.3272C66.2731 45.4563 65.4497 44.4178 64.7829 43.3935C64.4532 42.8788 64.1593 42.3602 63.8935 41.8407C63.636 41.319 63.4022 40.796 63.1866 40.2722C62.7588 39.2258 62.4187 38.1708 62.1291 37.1129C61.9884 36.5826 61.8535 36.0527 61.7428 35.5165C61.6862 35.2488 61.6314 34.98 61.5827 34.7088C61.534 34.4297 61.4925 34.1803 61.446 33.8566C61.2559 32.5338 62.2214 31.3143 63.6024 31.1322C64.9343 30.9567 66.1664 31.8111 66.4225 33.0589L66.4426 33.1577Z" fill="#FFB573"/>
<path d="M62.9842 29.5314C65.0807 29.7391 66.7596 31.0715 67.9318 35.318C67.0301 36.513 61.3496 39.1354 61.3496 39.1354C61.3496 39.1354 58.187 29.0561 62.9842 29.5314Z" fill="#263238"/>
</svg>
