<svg width="243" height="174" viewBox="0 0 243 174" fill="none" xmlns="http://www.w3.org/2000/svg">
<path d="M243 151.845H0V151.967H243V151.845Z" fill="#EBEBEB" fill-opacity="0.1"/>
<path d="M54.2701 155.922H38.1729V156.044H54.2701V155.922Z" fill="#EBEBEB" fill-opacity="0.1"/>
<path d="M79.461 159.428H64.7998V159.549H79.461V159.428Z" fill="#EBEBEB" fill-opacity="0.1"/>
<path d="M46.221 160.435H27.631V160.557H46.221V160.435Z" fill="#EBEBEB" fill-opacity="0.1"/>
<path d="M218.652 160.17H210.924V160.291H218.652V160.17Z" fill="#EBEBEB" fill-opacity="0.1"/>
<path d="M209.365 160.17H190.255V160.291H209.365V160.17Z" fill="#EBEBEB" fill-opacity="0.1"/>
<path d="M136.242 155.862H121.5V155.983H136.242V155.862Z" fill="#EBEBEB" fill-opacity="0.1"/>
<path d="M173.386 155.862H138.348V155.983H173.386V155.862Z" fill="#EBEBEB" fill-opacity="0.1"/>
<path d="M97.4853 3.71582H41.5525C37.646 3.71582 34.4496 6.91224 34.4496 10.8187V20.0109C33.9369 20.1742 33.5607 20.65 33.5607 21.2152V36.6856C33.5607 37.2503 33.9374 37.7266 34.4496 37.8899V43.1552C33.9554 43.1892 33.5607 43.5999 33.5607 44.1019V52.3552C33.5607 52.8577 33.9558 53.2679 34.4496 53.3019V144.743C34.4496 148.649 37.646 151.846 41.5525 151.846H97.4853C101.392 151.846 104.588 148.649 104.588 144.743V10.8187C104.588 6.91176 101.392 3.71582 97.4853 3.71582Z" fill="#E0E0E0" fill-opacity="0.1"/>
<path d="M43.9855 151.845H99.9182C103.825 151.845 107.021 148.649 107.021 144.742V10.8187C107.021 6.91224 103.825 3.71582 99.9182 3.71582H43.9855C40.079 3.71582 36.8826 6.91224 36.8826 10.8187V144.742C36.8821 148.649 40.0785 151.845 43.9855 151.845Z" fill="#EBEBEB" fill-opacity="0.1"/>
<path d="M68.7904 145.062C68.7904 146.807 70.2056 148.223 71.9513 148.223C73.6971 148.223 75.1123 146.807 75.1123 145.062C75.1123 143.316 73.6971 141.901 71.9513 141.901C70.2056 141.901 68.7904 143.316 68.7904 145.062Z" fill="#E0E0E0" fill-opacity="0.1"/>
<path d="M36.8822 139.175H107.021L107.021 11.8785L36.8822 11.8785L36.8822 139.175Z" fill="#FAFAFA" fill-opacity="0.1"/>
<path d="M89.4366 90.3618H54.8242C51.1889 90.3618 48.2025 93.3483 48.2025 96.9836V114.857C48.2025 118.491 51.1894 121.478 54.8242 121.478H80.2221L80.0364 127.73L86.4497 121.478H89.4361C93.0714 121.478 96.0579 118.491 96.0579 114.857V96.9836C96.0584 93.3483 93.0719 90.3618 89.4366 90.3618ZM54.0369 97.9789C54.0369 96.9602 54.8704 96.1267 55.889 96.1267H63.8536C64.8723 96.1267 65.6824 96.9607 65.6824 97.9789C65.6824 98.9742 64.8723 99.8082 63.8536 99.8082H55.889C54.8704 99.8077 54.0369 98.9742 54.0369 97.9789ZM87.4693 115.273H73.6936C72.6978 115.273 71.8643 114.463 71.8643 113.444C71.8643 112.425 72.6973 111.616 73.6936 111.616H87.4693C88.488 111.616 89.2976 112.426 89.2976 113.444C89.2976 114.464 88.488 115.273 87.4693 115.273ZM87.4693 107.54H57.7417C56.7463 107.54 55.9124 106.73 55.9124 105.712C55.9124 104.693 56.7458 103.883 57.7417 103.883H87.4693C88.488 103.883 89.2976 104.693 89.2976 105.712C89.2976 106.73 88.488 107.54 87.4693 107.54ZM87.4693 99.8077H69.8732C68.8545 99.8077 68.0439 98.9742 68.0439 97.9784C68.0439 96.9598 68.8545 96.1263 69.8732 96.1263H87.4693C88.488 96.1263 89.2976 96.9602 89.2976 97.9784C89.2976 98.9742 88.488 99.8077 87.4693 99.8077Z" fill="#E6E6E6" fill-opacity="0.1"/>
<path d="M71.8648 28.2078C60.922 28.2078 52.0472 37.0826 52.0472 48.0254C52.0472 57.413 58.5771 65.2769 67.3401 67.3201L71.8653 73.0816L76.3899 67.321C76.3899 67.321 76.3909 67.321 76.3919 67.3206C85.152 65.274 91.6829 57.4096 91.6829 48.0254C91.6824 37.0826 82.8076 28.2078 71.8648 28.2078ZM71.8648 56.2845C67.3042 56.2845 63.6096 52.586 63.6096 48.0254C63.6096 43.4648 67.3042 39.7707 71.8648 39.7707C76.4254 39.7707 80.1239 43.4652 80.1239 48.0254C80.1239 52.586 76.4249 56.2845 71.8648 56.2845Z" fill="#E6E6E6" fill-opacity="0.1"/>
<path d="M79.9995 7.47253C79.9995 6.85483 79.4989 6.35474 78.8812 6.35474C78.2635 6.35474 77.7629 6.85531 77.7629 7.47253C77.7629 8.09024 78.2635 8.59082 78.8812 8.59082C79.4989 8.59082 79.9995 8.08975 79.9995 7.47253Z" fill="#E0E0E0" fill-opacity="0.1"/>
<path d="M75.019 6.35425H65.7305C65.1157 6.35425 64.6122 6.85726 64.6122 7.47205C64.6122 8.08684 65.1153 8.59034 65.7305 8.59034H75.019C75.6337 8.59034 76.1372 8.08733 76.1372 7.47205C76.1368 6.85726 75.6337 6.35425 75.019 6.35425Z" fill="#E0E0E0" fill-opacity="0.1"/>
<path d="M138.799 2.85181H209.431C212.639 2.85181 215.263 5.47621 215.263 8.68381V146.013C215.263 149.221 212.639 151.845 209.431 151.845H138.799C135.592 151.845 132.967 149.221 132.967 146.013V8.68381C132.967 5.47621 135.592 2.85181 138.799 2.85181Z" fill="#E0E0E0" fill-opacity="0.1"/>
<path d="M137.301 2.85181H207.933C211.14 2.85181 213.765 5.47621 213.765 8.68381V146.013C213.765 149.221 211.14 151.845 207.933 151.845H137.301C134.093 151.845 131.469 149.221 131.469 146.013V8.68381C131.469 5.47621 134.093 2.85181 137.301 2.85181Z" fill="#EBEBEB" fill-opacity="0.1"/>
<path d="M207.933 147.957C208.986 147.957 209.877 147.067 209.877 146.013V11.8793C209.877 10.8257 208.986 9.9353 207.933 9.9353H137.301C136.247 9.9353 135.357 10.8257 135.357 11.8793V146.013C135.357 147.067 136.247 147.957 137.301 147.957H207.933Z" fill="#FAFAFA" fill-opacity="0.1"/>
<path d="M185.534 83.7364C181.995 83.7364 178.85 85.4208 176.853 88.0302L166.615 81.8871C167.247 80.5045 167.603 78.9682 167.603 77.3484C167.603 75.7285 167.248 74.1923 166.615 72.8096L176.853 66.6666C178.85 69.2759 181.995 70.9604 185.534 70.9604C191.57 70.9604 196.462 66.0683 196.462 60.0332C196.462 53.998 191.57 49.106 185.534 49.106C179.499 49.106 174.607 53.998 174.607 60.0332C174.607 61.6535 174.962 63.1893 175.595 64.5719L165.357 70.715C163.36 68.1056 160.215 66.4212 156.676 66.4212C150.641 66.4212 145.749 71.3132 145.749 77.3484C145.749 83.3835 150.641 88.2756 156.676 88.2756C160.215 88.2756 163.36 86.5911 165.357 83.9818L175.595 90.1244C174.962 91.5075 174.607 93.0433 174.607 94.6636C174.607 100.698 179.5 105.591 185.534 105.591C191.57 105.591 196.462 100.698 196.462 94.6636C196.462 88.6289 191.569 83.7364 185.534 83.7364Z" fill="#E6E6E6" fill-opacity="0.1"/>
<path d="M172.617 8.48403C173.642 8.48403 174.474 7.6524 174.474 6.62653C174.474 5.60067 173.642 4.76904 172.617 4.76904C171.591 4.76904 170.759 5.60067 170.759 6.62653C170.759 7.6524 171.591 8.48403 172.617 8.48403Z" fill="white" fill-opacity="0.1"/>
<path d="M121.5 173.795C173.542 173.795 215.73 171.331 215.73 168.292C215.73 165.252 173.542 162.789 121.5 162.789C69.4582 162.789 27.27 165.252 27.27 168.292C27.27 171.331 69.4582 173.795 121.5 173.795Z" fill="#F5F5F5" fill-opacity="0.1"/>
<path d="M157.294 118.933C156.593 118.933 155.881 118.78 155.206 118.458L71.2534 78.4381C69.5621 77.6318 68.4847 75.925 68.4847 74.051C68.4847 72.177 69.5617 70.4701 71.2534 69.6638L155.206 29.6437C157.629 28.489 160.53 29.5164 161.684 31.9396C162.839 34.3623 161.812 37.2627 159.389 38.4179L84.6388 74.051L159.389 109.684C161.811 110.839 162.839 113.74 161.684 116.162C160.851 117.911 159.109 118.933 157.294 118.933Z" fill="#6695FF"/>
<path d="M182.946 58.8697L182.597 58.5314C184.018 57.0642 185.32 55.4642 186.466 53.7773L186.868 54.0505C185.706 55.7607 184.387 57.382 182.946 58.8697Z" fill="#6695FF"/>
<path d="M157.297 68.0512C176.086 68.0512 191.317 52.82 191.317 34.0312C191.317 15.2425 176.086 0.0112305 157.297 0.0112305C138.509 0.0112305 123.277 15.2425 123.277 34.0312C123.277 52.82 138.509 68.0512 157.297 68.0512Z" fill="#6695FF"/>
<path d="M157.297 60.6732C172.011 60.6732 183.939 48.7452 183.939 34.0312C183.939 19.3172 172.011 7.38916 157.297 7.38916C142.583 7.38916 130.655 19.3172 130.655 34.0312C130.655 48.7452 142.583 60.6732 157.297 60.6732Z" fill="white" fill-opacity="0.1"/>
<mask id="mask0_4032_1437" style="mask-type:luminance" maskUnits="userSpaceOnUse" x="130" y="7" width="54" height="54">
<path d="M157.297 60.6732C172.011 60.6732 183.939 48.7452 183.939 34.0312C183.939 19.3172 172.011 7.38916 157.297 7.38916C142.583 7.38916 130.655 19.3172 130.655 34.0312C130.655 48.7452 142.583 60.6732 157.297 60.6732Z" fill="white"/>
</mask>
<g mask="url(#mask0_4032_1437)">
<path d="M158.013 48.9728C158.013 48.9728 167.571 50.9693 172.771 50.1591C177.97 49.349 177.372 42.3831 173.241 38.9C169.11 35.4168 170.082 36.227 171.054 32.582C172.026 28.937 169.839 26.021 165.682 25.8591C161.525 25.6973 165.546 20.5131 161.296 14.721C157.047 8.92882 149.508 13.3038 148.965 15.8961C146.592 15.9773 144.109 19.8395 145.877 23.3353C147.645 26.8311 145.377 27.7433 144 31.9448C142.623 36.1463 148.164 36.956 146.933 39.7913C145.701 42.6261 145.62 51.9981 158.013 48.9728Z" fill="#263238"/>
<path d="M148.734 41.7721C148.65 43.2462 148.477 44.5963 148.284 45.9964C148.087 47.384 147.827 48.7613 147.526 50.1357C147.219 51.5082 146.894 52.8806 146.461 54.2346C146.05 55.592 145.564 56.9392 144.988 58.2631L144.543 59.2531C144.48 59.4037 144.36 59.6229 144.264 59.8086C144.163 60.0005 144.054 60.1692 143.948 60.349C143.519 61.0396 143.045 61.6296 142.566 62.1929C141.607 63.3155 140.584 64.2982 139.537 65.2357C137.421 67.0874 135.24 68.7539 132.894 70.2653L131.544 68.523C132.496 67.6021 133.463 66.6524 134.399 65.7037C135.344 64.7604 136.26 63.7923 137.136 62.8116C138.017 61.8386 138.856 60.8384 139.587 59.8353C139.949 59.3347 140.275 58.8234 140.534 58.3438C140.591 58.2257 140.66 58.1042 140.708 57.9919C140.757 57.8704 140.801 57.7912 140.861 57.6255L141.2 56.7366C142.078 54.3488 142.7 51.8105 143.209 49.2463C143.466 47.9633 143.649 46.6608 143.844 45.3627C144.031 44.0748 144.179 42.7281 144.293 41.4941L148.734 41.7721Z" fill="#FFB573"/>
<path d="M145.704 36.468C143.91 36.9249 142.656 44.3067 142.656 44.3067L147.599 47.6684C147.599 47.6684 152.339 40.2209 150.959 38.2487C149.521 36.1954 148.322 35.8017 145.704 36.468Z" fill="#6695FF"/>
<path opacity="0.2" d="M145.704 36.468C143.91 36.9249 142.656 44.3067 142.656 44.3067L147.599 47.6684C147.599 47.6684 152.339 40.2209 150.959 38.2487C149.521 36.1954 148.322 35.8017 145.704 36.468Z" fill="white" fill-opacity="0.1"/>
<path opacity="0.2" d="M145.866 38.1169L144.488 45.5576L147.267 47.4413L145.866 38.1169Z" fill="black"/>
<path d="M145.704 36.468C145.704 36.468 143.631 37.1985 147.784 62.7373C154.799 62.7373 162.048 62.7373 165.461 62.7373C165.164 55.543 165.156 51.1068 168.595 36.3417C168.595 36.3417 164.891 35.5359 161.089 35.3526C158.114 35.2093 155.677 35.1145 153.062 35.3531C149.614 35.6681 145.704 36.468 145.704 36.468Z" fill="#6695FF"/>
<path opacity="0.2" d="M145.704 36.468C145.704 36.468 143.631 37.1985 147.784 62.7373C154.799 62.7373 162.048 62.7373 165.461 62.7373C165.164 55.543 165.156 51.1068 168.595 36.3417C168.595 36.3417 164.891 35.5359 161.089 35.3526C158.114 35.2093 155.677 35.1145 153.062 35.3531C149.614 35.6681 145.704 36.468 145.704 36.468Z" fill="white" fill-opacity="0.1"/>
<path d="M160.293 26.3152C159.787 28.8978 159.282 33.63 161.089 35.3533C161.089 35.3533 160.383 37.9734 155.584 37.9734C150.307 37.9734 153.062 35.3538 153.062 35.3538C155.942 34.6661 155.868 32.5292 155.366 30.5225L160.293 26.3152Z" fill="#FFB573"/>
<path d="M161.086 35.3555C158.111 35.2092 155.676 35.1135 153.06 35.3555C152.886 35.3725 152.711 35.3891 152.537 35.4061C151.455 36.6643 152.784 38.2594 153.906 39.3888C153.906 39.3888 160.31 38.3925 162.143 35.4231C161.795 35.3949 161.44 35.3725 161.086 35.3555Z" fill="#FFB573"/>
<path opacity="0.2" d="M158.284 28.0315L155.368 30.5198C155.488 30.9946 155.582 31.4763 155.615 31.9448C156.942 31.9448 158.101 31.016 158.566 29.488C158.734 28.935 158.378 28.2993 158.284 28.0315Z" fill="black"/>
<path d="M160.439 19.4458C161.353 23.6677 161.831 25.4348 160.335 28.1554C158.085 32.2475 152.699 32.4473 150.542 28.5841C148.6 25.1067 147.431 18.7868 151.028 15.9908C154.572 13.2362 159.525 15.2239 160.439 19.4458Z" fill="#FFB573"/>
<path d="M154.132 22.4123C154.227 22.7501 154.125 23.0748 153.904 23.137C153.683 23.1992 153.427 22.9756 153.332 22.6378C153.236 22.3001 153.338 21.9754 153.559 21.9132C153.78 21.851 154.036 22.0746 154.132 22.4123Z" fill="#263238"/>
<path d="M150.312 23.4885C150.407 23.8263 150.305 24.1509 150.085 24.2131C149.864 24.2753 149.607 24.0518 149.512 23.714C149.417 23.3762 149.519 23.0516 149.74 22.9894C149.961 22.9272 150.217 23.1507 150.312 23.4885Z" fill="#263238"/>
<path d="M149.843 22.9804L148.965 22.9751C148.965 22.9751 149.56 23.4917 149.843 22.9804Z" fill="#263238"/>
<path d="M151.661 23.7654C151.661 23.7654 151.498 25.3818 151.064 26.2615C151.628 26.5521 152.333 26.1482 152.333 26.1482L151.661 23.7654Z" fill="#ED893E"/>
<path d="M154.548 26.952C154.4 27.0196 154.237 27.0799 154.061 27.1294C154.006 27.145 153.949 27.1129 153.934 27.0585C153.918 27.0031 153.949 26.9438 154.005 26.9311C155.488 26.5107 155.889 25.2821 155.893 25.2695C155.91 25.2151 155.967 25.1845 156.022 25.202C156.076 25.219 156.107 25.2768 156.09 25.3312C156.074 25.3803 155.739 26.4092 154.548 26.952Z" fill="#263238"/>
<path d="M149.912 16.5234C148.986 17.5771 159.041 22.9897 161.088 22.0148C163.136 21.0394 161.293 15.6326 158.701 14.4579C156.11 13.2833 152.706 13.344 149.912 16.5234Z" fill="#263238"/>
<path d="M162.636 22.9343C162.569 23.8271 162.096 24.6062 161.53 25.0771C160.68 25.7857 159.803 25.134 159.661 24.0949C159.533 23.1593 159.823 21.6634 160.858 21.3577C161.878 21.0559 162.713 21.9132 162.636 22.9343Z" fill="#FFB573"/>
<path d="M155.446 21.2022C155.366 21.2381 155.27 21.2216 155.209 21.1541C154.564 20.4513 153.344 20.5995 153.332 20.6015C153.219 20.6161 153.116 20.5363 153.101 20.4236C153.087 20.3113 153.165 20.2073 153.279 20.1927C153.338 20.185 154.724 20.0173 155.512 20.8756C155.59 20.9597 155.584 21.0899 155.5 21.1667C155.483 21.1818 155.465 21.1934 155.446 21.2022Z" fill="#263238"/>
<path d="M148.667 22.047C148.603 22.0761 148.526 22.0718 148.464 22.029C148.371 21.9639 148.348 21.8356 148.412 21.7418C149.063 20.8052 150.015 20.8218 150.054 20.8232C150.168 20.8266 150.258 20.9214 150.255 21.0351C150.251 21.1488 150.157 21.2373 150.043 21.2353C150.005 21.2344 149.267 21.2329 148.751 21.977C148.729 22.0086 148.7 22.0324 148.667 22.047Z" fill="#263238"/>
<path d="M170.505 40.9941C171.543 43.5262 172.393 46.0262 173.12 48.6331C173.852 51.2274 174.448 53.8824 174.697 56.6973C174.727 57.0496 174.735 57.4137 174.754 57.7704L174.767 58.0391C174.77 58.1315 174.777 58.2034 174.772 58.3443L174.761 58.7186L174.728 59.049C174.627 59.9102 174.427 60.5984 174.219 61.2866C173.801 62.6445 173.288 63.893 172.748 65.127C171.656 67.5847 170.431 69.9223 169.063 72.2167L167.073 71.2695C167.92 68.8235 168.777 66.3556 169.54 63.9192C169.915 62.7028 170.27 61.4795 170.528 60.3087C170.65 59.7324 170.749 59.1409 170.765 58.6977L170.77 58.5392L170.761 58.4231C170.763 58.4002 170.752 58.3094 170.744 58.2389L170.721 58.0182C170.686 57.7232 170.664 57.4331 170.621 57.1357C170.271 54.7479 169.624 52.299 168.887 49.8738C168.137 47.4613 167.276 45.009 166.385 42.6772L170.505 40.9941Z" fill="#FFB573"/>
<path d="M168.595 36.3421C170.366 36.8806 172.493 42.979 172.493 42.979L165.622 47.8914C165.622 47.8914 163.116 42.8006 163.86 40.5115C164.635 38.1277 166.574 35.7273 168.595 36.3421Z" fill="#6695FF"/>
<path opacity="0.2" d="M168.595 36.3421C170.366 36.8806 172.493 42.979 172.493 42.979L165.622 47.8914C165.622 47.8914 163.116 42.8006 163.86 40.5115C164.635 38.1277 166.574 35.7273 168.595 36.3421Z" fill="white" fill-opacity="0.1"/>
<path d="M153.663 21.9045L152.785 21.8992C152.785 21.8992 153.38 22.4158 153.663 21.9045Z" fill="#263238"/>
</g>
<path d="M49.4218 48.2051L49.0914 47.8484C51.5034 45.6143 54.2046 43.7242 57.1206 42.2317L57.3422 42.6642C54.466 44.1368 51.8008 46.0011 49.4218 48.2051Z" fill="#6695FF"/>
<path d="M45.6942 52.2351L45.3132 51.9337C45.9124 51.1756 46.55 50.433 47.2081 49.7263L47.5634 50.0578C46.915 50.7542 46.2861 51.4871 45.6942 52.2351Z" fill="#6695FF"/>
<path d="M73.3447 108.071C92.1334 108.071 107.365 92.8402 107.365 74.0515C107.365 55.2628 92.1334 40.0315 73.3447 40.0315C54.556 40.0315 39.3247 55.2628 39.3247 74.0515C39.3247 92.8402 54.556 108.071 73.3447 108.071Z" fill="#6695FF"/>
<path d="M73.3447 100.693C88.0587 100.693 99.9868 88.7654 99.9868 74.0515C99.9868 59.3375 88.0587 47.4094 73.3447 47.4094C58.6307 47.4094 46.7027 59.3375 46.7027 74.0515C46.7027 88.7654 58.6307 100.693 73.3447 100.693Z" fill="white" fill-opacity="0.1"/>
<mask id="mask1_4032_1437" style="mask-type:luminance" maskUnits="userSpaceOnUse" x="46" y="47" width="54" height="54">
<path d="M73.3447 100.693C88.0587 100.693 99.9868 88.7654 99.9868 74.0515C99.9868 59.3375 88.0587 47.4094 73.3447 47.4094C58.6307 47.4094 46.7027 59.3375 46.7027 74.0515C46.7027 88.7654 58.6307 100.693 73.3447 100.693Z" fill="white"/>
</mask>
<g mask="url(#mask1_4032_1437)">
<path d="M85.3635 81.2764C86.6174 84.1773 87.9106 87.1225 89.2194 90.018C89.8692 91.4717 90.5351 92.9141 91.2155 94.342C91.8866 95.7757 92.5879 97.1822 93.3072 98.5619C93.6727 99.236 94.027 99.9388 94.4114 100.576L94.6952 101.064L94.8357 101.307C94.8221 101.284 94.7958 101.267 94.7861 101.258C94.7224 101.219 94.7662 101.296 94.912 101.381C95.2016 101.574 95.7999 101.773 96.4395 101.895C97.0873 102.02 97.8027 102.11 98.537 102.165C100.012 102.266 101.562 102.266 103.123 102.219L105.479 102.119L107.83 101.963L108.436 104.792C105.227 105.816 102.024 106.553 98.521 106.776C97.6423 106.823 96.7422 106.838 95.7907 106.751C94.8362 106.655 93.8335 106.518 92.6632 106.012C92.0864 105.747 91.4405 105.371 90.8451 104.722C90.6974 104.566 90.5579 104.381 90.4257 104.196L90.2454 103.925L89.8882 103.387C89.3978 102.668 88.9823 101.951 88.5366 101.231C86.8487 98.3447 85.3446 95.4287 83.9313 92.4787C82.5224 89.5204 81.2038 86.5626 79.9665 83.509L85.3635 81.2764Z" fill="#7F3E3B"/>
<path d="M78.453 80.8759C77.2745 84.3231 84.2044 94.4737 84.2044 94.4737L90.8499 90.7957C90.8499 90.7957 89.041 85.6324 86.8589 81.5442C84.5174 77.1565 79.7468 77.0929 78.453 80.8759Z" fill="#6695FF"/>
<path opacity="0.5" d="M78.453 80.8759C77.2745 84.3231 84.2044 94.4737 84.2044 94.4737L90.8499 90.7957C90.8499 90.7957 89.041 85.6324 86.8589 81.5442C84.5174 77.1565 79.7468 77.0929 78.453 80.8759Z" fill="black"/>
<path opacity="0.2" d="M78.3525 81.3119C79.8387 80.5965 81.5533 81.1953 83.3529 84.0423C85.1297 86.8601 86.6913 91.6482 86.8594 93.0051L84.2039 94.4738C84.2039 94.4738 77.8048 85.1008 78.3525 81.3119Z" fill="black"/>
<path d="M82.9364 78.2394C82.9364 78.2394 87.8873 89.8738 84.3196 111.54C78.1105 111.54 66.7342 111.54 63.7127 111.54C63.461 108.376 64.9131 92.9453 61.3454 78.0407C61.3454 78.0407 64.8529 77.3321 68.2135 77.1697C70.8423 77.0429 74.6516 76.9588 76.9732 77.1702C80.035 77.4487 82.9364 78.2394 82.9364 78.2394Z" fill="#6695FF"/>
<path opacity="0.5" d="M82.9364 78.2394C82.9364 78.2394 87.8873 89.8738 84.3196 111.54C78.1105 111.54 66.7342 111.54 63.7127 111.54C63.461 108.376 64.9131 92.9453 61.3454 78.0407C61.3454 78.0407 64.8529 77.3321 68.2135 77.1697C70.8423 77.0429 74.6516 76.9588 76.9732 77.1702C80.035 77.4487 82.9364 78.2394 82.9364 78.2394Z" fill="black"/>
<path d="M77.0607 93.1212L72.6347 88.3857L75.8642 83.6331L80.2892 88.3682L77.0607 93.1212Z" fill="white" fill-opacity="0.1"/>
<path opacity="0.2" d="M65.9498 81.7207C66.3779 84.1735 65.8078 90.0424 63.7069 96.8241C63.5183 91.6044 62.9949 85.5533 61.6832 79.5235L61.6822 79.4943C63.0352 79.3558 65.5415 79.4214 65.9498 81.7207Z" fill="black"/>
<path d="M68.7394 67.3064C69.3897 70.1247 70.1201 75.2894 68.2136 77.1698C68.2136 77.1698 69.4193 80.0109 74.6565 80.0187C78.8555 80.0245 76.9737 77.1702 76.9737 77.1702C73.8045 76.4194 73.805 74.0876 74.2764 71.8976L68.7394 67.3064Z" fill="#7F3E3B"/>
<path opacity="0.2" d="M70.9968 69.1794L74.2739 71.8952C74.1607 72.4133 74.0766 72.9391 74.0577 73.4499C72.8509 73.2764 71.1558 71.9584 70.9847 70.7011C70.8991 70.0742 70.9045 69.4715 70.9968 69.1794Z" fill="black"/>
<path d="M76.9567 58.9234C78.7072 60.0544 78.9595 65.5019 76.3973 66.2805C73.8356 67.0596 73.6407 56.7816 76.9567 58.9234Z" fill="#263238"/>
<path d="M67.5079 64.3525C68.6821 68.0023 69.1827 70.1917 71.5504 71.6784C75.1123 73.9155 79.2817 71.2138 79.2278 67.3258C79.1792 63.8261 77.2677 58.4456 73.2422 57.7715C69.2764 57.1081 66.3337 60.7026 67.5079 64.3525Z" fill="#7F3E3B"/>
<path d="M68.8332 60.5903C70.783 63.2259 70.7888 67.4215 69.2589 67.9012C67.729 68.3814 63.529 63.5199 63.3113 60.931C63.1358 58.8475 64.5214 58.8475 64.5214 58.8475C64.5214 58.8475 62.2839 57.5484 64.8247 55.9893C67.6853 54.2344 74.7706 54.4016 71.5825 51.9332C73.8905 51.1682 74.7852 52.6403 74.6409 53.5355C76.3404 53.016 76.2286 51.1682 76.2286 51.1682C76.2286 51.1682 80.747 53.6944 78.7116 56.6391C76.6758 59.5838 72.9282 60.5145 68.8332 60.5903Z" fill="#263238"/>
<path d="M66.8653 68.7994C67.6114 69.5342 68.6218 69.8715 69.4752 69.871C70.7587 69.8705 71.0172 68.6565 70.3398 67.6403C69.7298 66.7256 68.3267 65.6239 67.1924 66.1137C66.0756 66.5963 66.0124 67.9591 66.8653 68.7994Z" fill="#7F3E3B"/>
<path d="M73.4269 64.1492C73.5037 64.4505 73.7272 64.6595 73.9255 64.6163C74.1238 64.573 74.2225 64.2936 74.1457 63.9922C74.0689 63.6909 73.8453 63.4819 73.647 63.5252C73.4483 63.5689 73.3501 63.8479 73.4269 64.1492Z" fill="#263238"/>
<path d="M76.858 63.399C76.9348 63.7003 77.1584 63.9093 77.3567 63.866C77.555 63.8228 77.6536 63.5433 77.5768 63.242C77.5 62.9407 77.2765 62.7317 77.0782 62.775C76.8799 62.8182 76.7812 63.0977 76.858 63.399Z" fill="#263238"/>
<path d="M75.8058 63.7871C75.8058 63.7871 76.9402 65.3739 77.9141 66.0465C77.5039 66.6613 76.5329 66.6341 76.5329 66.6341L75.8058 63.7871Z" fill="#630F0F"/>
<path d="M75.2207 67.7306C74.167 67.7306 73.5236 67.1397 73.492 67.11C73.455 67.0755 73.4536 67.0177 73.4881 66.9812C73.5221 66.9448 73.5799 66.9428 73.6169 66.9773C73.6251 66.9851 74.4892 67.7739 75.8189 67.4823C75.8695 67.4706 75.9166 67.5027 75.9273 67.5518C75.9385 67.6009 75.9069 67.65 75.8578 67.6602C75.6318 67.7093 75.419 67.7306 75.2207 67.7306Z" fill="#263238"/>
<path d="M72.067 63.2828C72.0427 63.2828 72.018 63.2779 71.9946 63.2677C71.9018 63.2274 71.8595 63.12 71.8999 63.0276C72.2974 62.113 73.1333 61.9808 73.1688 61.9754C73.2665 61.9604 73.3613 62.0299 73.3758 62.1295C73.3904 62.2291 73.3219 62.3215 73.2227 62.3365C73.1955 62.3409 72.5487 62.4498 72.2347 63.1729C72.2051 63.242 72.1375 63.2828 72.067 63.2828Z" fill="#263238"/>
<path d="M78.0162 61.906C77.9637 61.906 77.9122 61.8836 77.8762 61.8404C77.3504 61.21 76.6865 61.2543 76.6597 61.2577C76.5543 61.265 76.4712 61.1911 76.4624 61.0915C76.4537 60.9913 76.5276 60.9034 76.6272 60.8941C76.6617 60.8907 77.5025 60.8237 78.1557 61.6066C78.2203 61.6839 78.2101 61.7991 78.1323 61.8637C78.0988 61.8919 78.0575 61.906 78.0162 61.906Z" fill="#263238"/>
<path d="M65.4137 83.5966L64.6215 85.3161C64.3547 85.9051 64.0991 86.5015 63.8478 87.0992C63.338 88.2919 62.8622 89.4967 62.4107 90.7015C61.968 91.9092 61.5422 93.1188 61.1957 94.3314C61.0105 94.9389 60.8633 95.542 60.7034 96.1461L60.5002 97.0496L60.4745 97.1624L60.4618 97.2192C60.4609 97.2226 60.4618 97.2148 60.4618 97.2148C60.4609 97.2042 60.4541 97.1954 60.4541 97.1954C60.4444 97.1886 60.4424 97.2124 60.439 97.2469C60.4298 97.3995 60.5488 97.8233 60.7714 98.2573C60.9921 98.6991 61.2963 99.1778 61.6433 99.6526C62.3315 100.614 63.1747 101.568 64.0568 102.504C65.8365 104.36 67.8063 106.199 69.7804 107.931L68.1645 110.331C65.682 108.983 63.3603 107.492 61.1296 105.703C60.0157 104.809 58.9358 103.844 57.9035 102.711C57.3928 102.138 56.8941 101.52 56.429 100.793C55.9736 100.061 55.5105 99.2313 55.2903 98.0401C55.2398 97.7397 55.2028 97.4253 55.2067 97.0797C55.2043 96.9116 55.2164 96.7332 55.2349 96.5539L55.2582 96.3546L55.2767 96.2176L55.4259 95.1197C55.5479 94.3999 55.6631 93.6724 55.8322 92.9721C56.1403 91.5554 56.5184 90.1746 56.9592 88.8216C57.3903 87.4652 57.8802 86.137 58.4153 84.8296C58.6904 84.1794 58.9708 83.531 59.2643 82.8871C59.5584 82.2315 59.8539 81.6225 60.215 80.9353L65.4137 83.5966Z" fill="#7F3E3B"/>
<path d="M61.3459 78.0406C57.7189 78.5708 53.9825 91.9227 53.9825 91.9227L62.7485 95.2572C62.7485 95.2572 64.9515 89.518 66.4596 85.057C68.0395 80.3836 65.2353 77.472 61.3459 78.0406Z" fill="#6695FF"/>
<path opacity="0.5" d="M61.3459 78.0406C57.7189 78.5708 53.9825 91.9227 53.9825 91.9227L62.7485 95.2572C62.7485 95.2572 64.9515 89.518 66.4596 85.057C68.0395 80.3836 65.2353 77.472 61.3459 78.0406Z" fill="black"/>
</g>
<path d="M157.297 148.092C176.086 148.092 191.317 132.86 191.317 114.072C191.317 95.2828 176.086 80.0515 157.297 80.0515C138.509 80.0515 123.277 95.2828 123.277 114.072C123.277 132.86 138.509 148.092 157.297 148.092Z" fill="#6695FF"/>
<path d="M157.297 140.714C172.011 140.714 183.939 128.785 183.939 114.071C183.939 99.3575 172.011 87.4294 157.297 87.4294C142.583 87.4294 130.655 99.3575 130.655 114.071C130.655 128.785 142.583 140.714 157.297 140.714Z" fill="white" fill-opacity="0.1"/>
<mask id="mask2_4032_1437" style="mask-type:luminance" maskUnits="userSpaceOnUse" x="130" y="87" width="54" height="54">
<path d="M157.297 140.714C172.011 140.714 183.939 128.785 183.939 114.071C183.939 99.3575 172.011 87.4294 157.297 87.4294C142.583 87.4294 130.655 99.3575 130.655 114.071C130.655 128.785 142.583 140.714 157.297 140.714Z" fill="white"/>
</mask>
<g mask="url(#mask2_4032_1437)">
<path d="M147.905 122.909C147.824 124.349 147.656 125.667 147.468 127.035C147.28 128.39 147.025 129.735 146.736 131.077C146.168 133.76 145.386 136.424 144.307 139.021L143.872 139.988L143.763 140.23L143.709 140.351C143.691 140.39 143.677 140.424 143.634 140.506C143.496 140.782 143.318 141.074 143.067 141.358C142.814 141.64 142.497 141.913 142.122 142.104C141.757 142.295 141.354 142.419 140.995 142.458C140.264 142.544 139.696 142.414 139.218 142.273C138.278 141.964 137.608 141.542 136.975 141.112C136.354 140.674 135.799 140.211 135.269 139.738C133.189 137.813 131.463 135.757 129.875 133.518L131.549 132.104C132.484 132.981 133.461 133.87 134.434 134.713C135.404 135.564 136.408 136.369 137.415 137.088C137.916 137.447 138.423 137.781 138.92 138.056C139.406 138.33 139.91 138.553 140.246 138.616C140.404 138.647 140.506 138.624 140.433 138.614C140.366 138.594 140.124 138.708 140.066 138.782C140.03 138.815 140.025 138.821 140.029 138.798L140.18 138.401L140.512 137.534C141.336 135.182 141.958 132.713 142.438 130.203C142.688 128.95 142.865 127.678 143.055 126.41C143.236 125.153 143.381 123.837 143.491 122.633L147.905 122.909Z" fill="#FF8B7B"/>
<path d="M144.895 117.637C143.111 118.091 141.864 125.428 141.864 125.428L146.778 128.769C146.778 128.769 151.489 121.367 150.117 119.407C148.688 117.366 147.496 116.974 144.895 117.637Z" fill="#263238"/>
<path opacity="0.2" d="M145.055 119.276L143.686 126.671L146.447 128.544L145.055 119.276Z" fill="black"/>
<path d="M131.599 131.828L129.261 128.137L127.936 132.332C127.936 132.332 129.853 134.342 131.586 133.863L131.599 131.828Z" fill="#FF8B7B"/>
<path d="M144.895 117.637C144.895 117.637 142.833 118.362 146.962 143.746C153.934 143.746 161.139 143.746 164.531 143.746C164.236 136.596 164.228 132.186 167.646 117.511C167.646 117.511 163.964 116.71 160.185 116.528C157.229 116.386 154.806 116.292 152.207 116.529C148.781 116.842 144.895 117.637 144.895 117.637Z" fill="#263238"/>
<path d="M148.788 98.9131C155.076 88.8437 173.708 97.0974 163.98 107.009C150.983 120.253 148.788 98.9131 148.788 98.9131Z" fill="#263238"/>
<path d="M152.948 113.155C152.249 113.155 151.631 112.991 151.096 112.66C147.19 110.247 149.145 99.9935 149.23 99.5581C149.25 99.4594 149.347 99.3953 149.444 99.4142C149.543 99.4336 149.607 99.5294 149.588 99.628C149.568 99.732 147.595 110.069 151.287 112.35C153.074 113.453 155.939 112.501 159.802 109.52C159.882 109.458 159.996 109.473 160.057 109.553C160.119 109.632 160.104 109.747 160.024 109.808C157.138 112.036 154.768 113.155 152.948 113.155Z" fill="#263238"/>
<path d="M160.586 96.0661C162.548 90.1904 172.944 92.0683 169.281 98.3207C165.402 104.941 160.586 96.0661 160.586 96.0661Z" fill="#263238"/>
<path d="M159.394 107.545C158.891 110.112 158.389 114.816 160.185 116.529C160.185 116.529 159.483 119.133 154.714 119.133C149.469 119.133 152.207 116.529 152.207 116.529C155.07 115.845 154.996 113.722 154.497 111.727L159.394 107.545Z" fill="#FF8B7B"/>
<path d="M154.35 119.128C154.35 119.128 155.552 120.275 156.078 121.787C156.996 121.463 161.735 118.857 161.829 116.441C161.252 116.25 159.912 116.036 159.912 116.036C159.912 116.036 157.941 118.075 154.35 119.128Z" fill="#6695FF"/>
<path d="M154.35 119.128C154.35 119.128 153.304 120.255 152.622 121.787C151.31 120.963 149.915 119.151 150.925 116.599C151.644 116.28 153.109 116.225 153.109 116.225C153.109 116.225 150.759 118.075 154.35 119.128Z" fill="#6695FF"/>
<path opacity="0.2" d="M157.398 109.252L154.499 111.725C154.619 112.197 154.712 112.676 154.745 113.141C155.839 112.983 157.341 111.783 157.457 110.638C157.515 110.066 157.491 109.518 157.398 109.252Z" fill="black"/>
<path d="M162.102 102.837C161.095 107.01 160.759 108.798 158.244 110.587C154.461 113.277 149.554 111.128 149.294 106.737C149.059 102.786 150.745 96.6241 155.173 95.6764C159.535 94.7428 163.108 98.6629 162.102 102.837Z" fill="#FF8B7B"/>
<path d="M155.009 102.267C154.948 102.611 154.717 102.857 154.493 102.817C154.268 102.777 154.135 102.467 154.196 102.123C154.257 101.78 154.488 101.533 154.713 101.573C154.937 101.613 155.07 101.923 155.009 102.267Z" fill="#263238"/>
<path d="M151.126 101.579C151.065 101.923 150.834 102.169 150.609 102.129C150.385 102.09 150.252 101.779 150.313 101.435C150.373 101.092 150.605 100.845 150.83 100.885C151.054 100.925 151.186 101.236 151.126 101.579Z" fill="#263238"/>
<path d="M150.925 100.922L150.142 100.538C150.142 100.538 150.451 101.257 150.925 100.922Z" fill="#263238"/>
<path d="M152.531 102.967C152.531 102.967 151.686 104.343 150.918 104.943C151.297 105.446 152.102 105.389 152.102 105.389L152.531 102.967Z" fill="#FF5652"/>
<path d="M153.656 107.009C154.913 107.009 155.63 106.261 155.664 106.225C155.703 106.183 155.701 106.119 155.66 106.08C155.618 106.041 155.554 106.043 155.515 106.084C155.506 106.093 154.61 107.022 153.107 106.755C153.051 106.746 152.998 106.782 152.988 106.838C152.979 106.894 153.016 106.947 153.072 106.956C153.278 106.993 153.473 107.009 153.656 107.009Z" fill="#263238"/>
<path d="M163.804 104.08C161.65 107.664 155.878 100.167 154.922 96.5391C153.505 97.2428 150.596 99.3093 150.533 97.9679C150.47 96.6266 155.438 94.3015 158.085 94.7141C160.732 95.1263 165.29 101.61 163.804 104.08Z" fill="#263238"/>
<path d="M162.764 106.172C162.428 106.997 161.743 107.589 161.064 107.862C160.044 108.273 159.413 107.389 159.596 106.363C159.76 105.439 160.49 104.112 161.562 104.139C162.62 104.165 163.148 105.23 162.764 106.172Z" fill="#FF8B7B"/>
<path d="M156.348 100.774C156.379 100.774 156.411 100.767 156.441 100.751C156.542 100.7 156.581 100.576 156.53 100.476C156.015 99.4656 155.075 99.3558 155.035 99.3519C154.921 99.3392 154.822 99.4218 154.809 99.5341C154.798 99.6464 154.879 99.747 154.991 99.7591C155.022 99.7625 155.753 99.8559 156.165 100.662C156.201 100.733 156.273 100.774 156.348 100.774Z" fill="#263238"/>
<path d="M150.199 100.096C150.253 100.096 150.307 100.075 150.347 100.033C150.979 99.3723 151.722 99.5025 151.73 99.504C151.84 99.5249 151.948 99.4515 151.969 99.3402C151.99 99.2289 151.916 99.1215 151.805 99.1011C151.766 99.0943 150.834 98.93 150.051 99.7494C149.972 99.8315 149.975 99.9613 150.057 100.039C150.097 100.077 150.148 100.096 150.199 100.096Z" fill="#263238"/>
<path d="M154.809 101.61L154.026 101.226C154.026 101.226 154.335 101.945 154.809 101.61Z" fill="#263238"/>
<path d="M169.544 122.136C170.528 124.526 171.332 126.884 172.035 129.335C172.726 131.785 173.333 134.266 173.625 136.898L173.724 137.889L173.773 138.905L173.784 139.158L173.787 139.222L173.789 139.322L173.781 139.594C173.752 139.954 173.67 140.295 173.556 140.598C173.323 141.195 172.999 141.638 172.681 141.98C172.037 142.666 171.396 143.075 170.769 143.441C170.143 143.804 169.516 144.076 168.896 144.33C166.408 145.308 163.955 145.852 161.406 146.205L160.903 144.072C163.138 143.217 165.423 142.287 167.42 141.194C167.916 140.921 168.387 140.624 168.805 140.327C169.219 140.033 169.584 139.703 169.753 139.455C169.841 139.334 169.859 139.251 169.841 139.268C169.829 139.279 169.811 139.317 169.805 139.369C169.801 139.382 169.798 139.396 169.798 139.41L169.799 139.42L169.796 139.394L169.79 139.342L169.767 139.134L169.679 138.304L169.543 137.457C169.459 136.896 169.326 136.32 169.217 135.752C169.077 135.179 168.962 134.607 168.8 134.034C168.514 132.888 168.174 131.739 167.825 130.596C167.098 128.322 166.295 126.006 165.449 123.809L169.544 122.136Z" fill="#FF8B7B"/>
<path d="M167.645 117.511C169.406 118.046 171.52 124.108 171.52 124.108L164.69 128.991C164.69 128.991 162.2 123.931 162.939 121.655C163.71 119.286 165.637 116.901 167.645 117.511Z" fill="#263238"/>
</g>
</svg>
