<svg width="161" height="104" viewBox="0 0 161 104" fill="none" xmlns="http://www.w3.org/2000/svg">
<g clip-path="url(#clip0_116_904)">
<path d="M33.4461 33.9624C27.6305 50.9205 21.8148 67.9155 17.8821 85.7133C20.878 86.7651 24.0038 87.3925 27.1574 87.577C28.354 83.2129 29.5505 78.8488 30.7377 74.4847C30.7377 74.4847 30.5615 74.3463 30.3389 74.3002C32.7227 74.78 34.8838 76.1363 36.7018 77.8155C38.5198 79.4947 40.0316 81.506 41.7105 83.8219C41.5343 86.2945 43.2687 88.6565 45.4948 89.4961C47.7209 90.3449 50.2902 89.8282 52.3586 88.3705C52.1545 89.45 52.1545 90.5756 52.3586 91.6643C52.4514 92.1348 52.5719 92.6054 52.7853 93.0298C53.2305 93.9248 54.0189 94.5983 54.8722 95.0596C56.3285 95.8439 58.0444 96.093 59.7882 95.7793C59.6119 97.8368 61.096 99.7928 62.9511 100.512C64.8061 101.232 66.9209 100.891 68.8595 100.134C69.1563 100.845 69.4809 101.573 70.0282 102.099C70.6496 102.69 71.4937 102.948 72.3285 103.05C74.3227 103.29 76.3911 102.699 78.2554 101.537C80.296 102.699 82.8838 102.745 84.9615 101.647C85.5087 101.361 86.0189 100.992 86.4363 100.531C87.2803 99.5898 87.6606 98.2796 87.7348 96.9879C87.809 95.7055 87.5957 94.4138 87.5215 93.1036C88.5511 94.3492 89.627 95.5855 90.9719 96.4528C92.3169 97.3201 93.9679 97.7722 95.489 97.3478C96.7505 96.9879 97.8264 96.0468 98.5221 94.8843C99.2177 93.731 99.5702 92.3747 99.6722 90.8247C100.182 91.7012 100.739 92.5408 101.351 93.3435C101.917 94.1001 102.538 94.829 103.299 95.3641C104.059 95.8992 104.987 96.2314 105.896 96.1299C107.306 95.9638 108.456 94.7644 109.022 93.3989C109.588 92.0334 109.671 90.511 109.755 89.0348C109.801 88.1767 109.847 87.3187 109.81 86.4422C110.552 87.9092 111.304 89.3854 112.296 90.6771C113.288 91.9688 114.541 93.0944 116.043 93.6572C116.414 93.7956 116.795 93.8971 117.175 93.9986C117.787 94.1647 118.492 94.3031 119.021 93.9248C119.438 93.6203 119.605 93.0667 119.67 92.5316C119.726 92.0057 119.698 91.4613 119.995 90.9262C125.69 88.6934 131.292 86.2023 136.718 83.5266C137.265 85.6118 137.868 87.6785 138.675 89.6714C142.738 88.6842 146.68 87.171 150.325 85.2058C153.544 83.9234 156.706 82.4933 159.582 80.6018C159.118 63.8098 156.382 46.7963 149.026 31.8495C148.563 30.9085 148.08 29.9766 147.338 29.1739C139.269 32.1079 131.413 35.6785 123.853 39.8488C124.066 40.2732 124.28 40.7069 124.261 41.1774C116.433 41.7587 108.781 39 101.388 36.269C99.0415 35.4017 96.6577 34.5252 94.1812 34.3499C91.9737 34.1931 89.7754 34.599 87.3082 34.8204C84.6925 33.1597 81.7615 32.1079 78.8119 31.2498C77.0311 30.7331 75.2038 30.2811 73.358 30.2995C71.6606 30.318 69.9911 30.7424 68.3679 31.2406C59.6027 33.9163 51.4125 38.8524 42.3134 39.7381C42.3876 39.1015 42.4618 38.4649 42.5267 37.819C42.5638 37.4777 42.5916 37.0901 42.4154 36.8134C39.438 35.5586 36.4514 34.3038 33.4461 33.9624Z" fill="white"/>
<path d="M155.352 80.2235C155.315 80.2235 155.287 80.2143 155.25 80.2051L147.227 77.0497C147.088 76.9943 147.023 76.8375 147.079 76.7083C147.134 76.5699 147.292 76.5053 147.422 76.5607L155.445 79.7161C155.584 79.7715 155.649 79.9283 155.593 80.0575C155.566 80.159 155.464 80.2235 155.352 80.2235Z" fill="black"/>
<path d="M158.07 77.0774C158.042 77.0774 158.014 77.0682 157.977 77.0589C153.562 75.4904 149.184 73.6359 144.973 71.5508C144.843 71.4862 144.788 71.3293 144.853 71.191C144.917 71.0618 145.075 71.0064 145.214 71.071C149.407 73.1469 153.766 74.9922 158.163 76.5607C158.302 76.6069 158.376 76.7637 158.32 76.9021C158.283 77.0128 158.172 77.0774 158.07 77.0774Z" fill="black"/>
<path d="M158.747 72.1412C158.719 72.1412 158.691 72.1412 158.663 72.1227C153.757 70.4435 148.85 68.5337 144.101 66.4393C143.962 66.3839 143.906 66.2271 143.962 66.0887C144.018 65.9503 144.185 65.8949 144.314 65.9503C149.054 68.0355 153.942 69.9453 158.83 71.6153C158.97 71.6614 159.044 71.8183 158.997 71.9567C158.96 72.0674 158.858 72.1412 158.747 72.1412Z" fill="black"/>
<path d="M158.747 67.3988C158.71 67.3988 158.682 67.3896 158.645 67.3804C152.941 65.1476 148.507 63.2193 142.404 60.5252C142.265 60.4698 142.209 60.313 142.265 60.1746C142.32 60.0362 142.487 59.9808 142.617 60.0362C148.72 62.721 153.135 64.6494 158.84 66.8822C158.979 66.9375 159.044 67.0944 158.988 67.2235C158.96 67.3343 158.858 67.3988 158.747 67.3988Z" fill="black"/>
<path d="M157.328 62.0475C157.291 62.0475 157.254 62.0383 157.226 62.0291L140.846 55.0539C140.706 54.9986 140.651 54.8417 140.706 54.7033C140.762 54.5649 140.92 54.5096 141.059 54.5649L157.439 61.5401C157.578 61.5954 157.634 61.7523 157.578 61.8907C157.532 61.9829 157.43 62.0475 157.328 62.0475Z" fill="black"/>
<path d="M156.799 56.9269C156.762 56.9269 156.725 56.9177 156.688 56.8992L138.898 48.6693C138.768 48.6047 138.703 48.4479 138.768 48.3187C138.833 48.1895 138.99 48.1249 139.12 48.1895L156.91 56.4195C157.04 56.4841 157.105 56.6409 157.04 56.7701C156.994 56.8623 156.901 56.9269 156.799 56.9269Z" fill="black"/>
<path d="M155.065 50.4869C155.028 50.4869 154.99 50.4777 154.953 50.4592L137.006 42.0355C136.876 41.9709 136.811 41.8141 136.876 41.6849C136.941 41.5465 137.098 41.5004 137.228 41.5557L155.176 49.9794C155.306 50.044 155.371 50.2009 155.306 50.33C155.259 50.4315 155.167 50.4869 155.065 50.4869Z" fill="black"/>
<path d="M151.03 42.0632C150.993 42.0632 150.965 42.0539 150.928 42.0447C146.466 40.2548 141.921 38.5295 137.414 36.9148C137.274 36.8687 137.2 36.7119 137.256 36.5735C137.302 36.4351 137.46 36.3613 137.599 36.4166C142.116 38.0312 146.67 39.7566 151.132 41.5465C151.271 41.6019 151.336 41.7587 151.28 41.8971C151.234 41.9986 151.132 42.0632 151.03 42.0632Z" fill="black"/>
<path d="M150.677 36.1398C150.64 36.1398 150.603 36.1306 150.566 36.1214L144.157 33.3258C144.018 33.2704 143.962 33.1136 144.018 32.9752C144.073 32.8368 144.231 32.7814 144.37 32.8368L150.779 35.6324C150.919 35.6877 150.974 35.8446 150.919 35.983C150.872 36.0845 150.779 36.1398 150.677 36.1398Z" fill="black"/>
<path d="M14.8582 27.7161C21.1933 29.9397 27.5933 31.951 33.6965 33.8609C32.6948 38.2711 30.1255 42.0816 28.4003 46.2427C27.482 48.4478 26.8049 50.7452 26.1371 53.0518C22.9927 63.8283 19.9875 74.6416 17.1029 85.4919C11.4542 83.4713 7.07622 82.4379 1.01941 81.3123C6.5939 63.1916 11.6211 45.7999 14.8582 27.7161Z" fill="#ACD4F7"/>
<g opacity="0.1294">
<path d="M134.436 81.2846C133.444 81.5891 132.479 81.9581 131.533 82.3733C131.32 82.3641 131.097 82.3825 130.893 82.4287C130.411 82.5117 129.966 82.7147 129.511 82.9084C129.01 83.0837 128.537 83.259 128.055 83.4713C127.86 83.5451 127.285 83.7757 127.053 83.8403C126.979 83.8588 126.932 83.8864 126.877 83.9049C126.738 83.951 126.589 84.0064 126.441 84.0433C126.357 84.0433 126.265 84.0433 126.181 84.0433C126.088 84.0248 125.986 83.9972 125.894 83.9695C125.894 83.9695 125.894 83.9695 125.884 83.9695C125.68 83.7665 125.486 83.5451 125.309 83.3236C125.068 83.0099 125.337 83.3698 125.43 83.4897C125.272 83.2683 125.105 83.0561 124.929 82.8531C124.873 82.7885 124.836 82.7331 124.799 82.687C124.632 82.4471 124.484 82.198 124.335 81.9489C123.705 80.9524 123.139 79.9099 122.619 78.8581C121.506 76.616 120.486 74.3187 119.308 72.1136C118.622 70.6097 118.037 69.0504 117.175 67.648C114.708 63.7175 112.315 60.6359 108.623 57.2037C106.295 54.7402 103.614 52.6366 100.739 50.9297C98.791 49.8041 96.7505 48.6877 94.4873 48.5216C92.9012 48.1434 92.5209 50.5976 94.1534 50.7083C95.6374 50.7913 97.2235 51.4925 98.9302 52.5167C98.7725 52.9226 98.8096 53.4024 99.1899 53.8268C100.767 55.2569 102.585 56.3549 104.226 57.7019C104.152 57.6466 105.061 58.4585 105.247 58.6615C105.441 58.8552 105.627 59.0582 105.803 59.2612C105.655 59.4088 105.553 59.6118 105.562 59.8424C105.673 60.5529 106.434 61.3925 106.786 62.0568C108.595 64.9262 110.719 67.6018 112.25 70.6466C114.281 74.8261 115.756 78.9872 116.433 84.5877C116.785 86.3499 116.98 89.5607 116.433 90.4833C116.386 90.5387 116.34 90.594 116.284 90.6402C116.238 90.6678 116.201 90.6863 116.173 90.7048C116.099 90.7324 116.034 90.7509 115.96 90.7878C115.923 90.797 115.895 90.8155 115.858 90.8247C115.848 90.8247 115.839 90.8247 115.83 90.8339C115.681 90.8431 115.505 90.8339 115.394 90.8247C115.338 90.8155 115.283 90.8062 115.227 90.797C114.615 90.6309 114.949 90.7786 114.03 90.2619C112.611 89.4223 111.396 91.6182 112.778 92.4947C116.275 95.1242 118.733 94.1923 119.419 90.6309C119.763 88.4812 119.531 86.2853 119.169 84.1448C119.271 84.4677 119.373 84.7906 119.475 85.1136C119.679 86.3868 119.846 87.5862 120.004 88.6565C119.976 88.6842 119.948 88.7119 119.93 88.7488C119.531 89.4038 119.828 90.2158 120.384 90.6033C120.635 91.0184 121.163 91.2122 121.618 91.083C122.017 90.9539 122.23 90.7048 122.341 90.4003C126.163 88.8318 129.956 87.1434 133.472 84.9106C134.297 84.3754 134.306 84.3201 134.993 84.0248C135.345 83.868 135.781 83.6558 135.995 83.3144C136.161 83.1852 136.319 83.0376 136.449 82.8439C137.108 81.3953 135.503 80.6757 134.436 81.2846Z" fill="black"/>
</g>
<g opacity="0.1294">
<path d="M158.886 77.1604C158.682 77.1604 158.497 77.2157 158.311 77.2988C157.421 77.5756 156.623 78.1661 155.751 78.4982C154.202 79.2824 153.599 79.4301 151.521 80.4634C147.95 82.4471 142.023 84.3846 138.833 85.7778C136.737 86.4421 137.581 89.6806 139.723 89.1362C143.062 88.0106 146.225 86.3775 149.453 84.9382C151.15 84.1171 154.388 82.8992 157.077 81.5245C158.33 80.8417 159.897 80.0298 160.046 79.6238C160.834 78.692 160.064 77.1235 158.886 77.1604Z" fill="black"/>
</g>
<g opacity="0.1294">
<path d="M40.6252 41.242C39.271 46.3627 36.8779 50.1547 35.1156 55.7921C34.0489 59.0859 33.242 62.4535 32.6298 65.8673C32.2495 67.3804 31.9527 68.912 31.6466 70.4436C31.424 71.7999 31.0437 73.1838 31.2756 74.5586C31.6095 75.8964 33.0286 76.5422 34.1788 76.1086C34.9115 76.9113 35.6814 77.6679 36.4605 78.4244C36.4605 78.3875 36.4605 78.3598 36.4605 78.3229C36.4049 76.8098 36.4234 75.3059 36.5069 73.7928C36.2008 72.7317 36.0895 72.0398 36.0246 71.1725C36.3214 69.5025 36.7017 67.851 36.8965 66.1625C37.6571 60.7282 39.1318 55.4415 40.8199 50.2562C41.3301 48.7062 41.7197 47.11 42.3689 45.6153C42.8234 44.2683 43.5747 42.8936 43.5747 41.445C43.4356 39.775 41.0147 39.609 40.6252 41.242Z" fill="black"/>
</g>
<g opacity="0.1294">
<path d="M42.1556 82.7793C42.0721 83.1114 41.766 83.3605 41.4414 83.3421C41.7011 83.4897 41.9887 83.5635 42.2947 83.4713C42.7678 83.3421 43.0831 82.8439 43.0553 82.3456C42.7585 82.4933 42.4617 82.6409 42.1556 82.7793Z" fill="black"/>
</g>
<g opacity="0.1294">
<path d="M31.2845 74.5585C31.2569 74.3555 31.2292 74.1526 31.2107 73.9496C31.2015 74.1618 31.2292 74.3648 31.2845 74.5585Z" fill="black"/>
</g>
<g opacity="0.1294">
<path d="M51.1435 86.9404C50.5684 87.3463 49.7893 87.2172 48.2959 87.1987C47.3035 87.0972 46.0328 87.1802 44.9197 86.8112C44.187 86.6359 43.5099 86.0454 42.74 86.1469C41.3116 86.2761 41.1817 88.5181 42.5638 88.8871C43.5655 89.2931 44.5765 89.6529 45.6339 89.8928C46.5243 90.105 47.4333 90.3172 48.333 90.0866C49.4554 89.8467 50.522 89.3485 51.5238 88.7764C51.9319 88.4996 52.4791 88.2782 52.6368 87.7707C52.8501 86.8204 51.7928 86.3407 51.1435 86.9404Z" fill="black"/>
</g>
<g opacity="0.1294">
<path d="M66.3087 88.9702C65.8078 89.1455 65.7058 89.4223 64.9266 89.8559C63.3684 90.7417 62.7005 90.9077 60.6229 91.3322C58.6472 91.8673 58.8142 91.7474 56.6252 91.9042C55.9388 91.9319 55.2617 91.895 54.5753 91.8119C54.1301 91.7381 53.6849 91.5444 53.2397 91.6459C51.4403 91.8304 51.2826 94.5983 53.0171 95.0781C57.4321 96.4159 61.0774 95.0781 64.2031 93.0944C65.1492 92.5039 66.086 91.8857 66.893 91.0923C67.3289 90.5756 67.4402 90.6679 67.5423 89.9667C67.5608 89.3024 66.9116 88.7949 66.3087 88.9702Z" fill="black"/>
</g>
<g opacity="0.1294">
<path d="M84.8594 98.4734C83.9318 98.6118 84.1637 98.7317 83.6721 98.8886C83.2826 98.9993 83.2269 99.1838 81.8356 99.5344C80.8802 99.7097 80.9173 99.7005 80.6669 99.7282C80.8524 99.4791 80.9266 99.1469 80.871 98.8425C80.8339 98.2151 80.2495 97.7353 79.6652 97.7261C78.9417 97.7722 78.3852 98.3996 77.7266 98.6672C76.3446 99.3038 76.6785 99.2023 74.7585 99.8758C73.024 100.383 72.1243 100.337 71.4565 100.383C70.8257 100.365 70.2043 99.9312 69.6292 99.8574C70.7886 99.3868 71.9017 98.741 72.9591 98.0582C74.1742 97.2924 75.2408 96.3329 76.2333 95.2903C76.4559 95.0873 76.5857 94.7921 76.5857 94.4876C76.595 94.1093 76.3817 93.7772 76.0849 93.5834C75.7046 93.3435 75.1759 93.4173 74.8605 93.7495C74.9255 93.6941 75.0924 93.565 74.9997 93.6295C74.5081 93.9525 74.0072 94.2662 73.5063 94.5799C70.6217 96.5174 66.8095 97.6522 64.333 98.049C63.7486 98.1136 63.155 98.1874 62.5614 98.132C62.515 98.1228 62.4872 98.1228 62.4594 98.1228C62.4408 98.1228 62.413 98.1136 62.3944 98.1136C61.9492 98.0674 61.504 97.8368 61.0588 97.9014C59.9921 98.0029 59.8901 99.6728 60.9289 99.9496C61.8657 100.291 62.8118 100.623 63.795 100.715C64.8339 100.835 65.8913 100.679 66.9208 100.559C67.4866 100.512 68.0339 100.402 68.5626 100.245C68.0617 100.817 68.0802 101.887 68.8223 102.302C71.5121 103.723 74.4153 103.428 77.0959 102.155C77.5875 101.952 78.0605 101.703 78.515 101.426C78.5336 102.275 79.1643 103.124 80.0733 103.087C81.7521 102.865 83.5608 102.764 84.9799 101.703C85.3973 101.361 85.9539 101.075 86.1394 100.531C86.5939 99.599 85.8333 98.455 84.8594 98.4734Z" fill="black"/>
</g>
<g opacity="0.1294">
<path d="M98.4292 91.9503C97.3997 92.4947 97.6501 92.6054 96.9823 93.039C95.9898 93.7587 96.1197 93.6757 94.682 94.0632C93.504 94.2754 94.2182 94.2293 93.1979 94.2477C93.0773 94.2477 92.966 94.2293 92.8455 94.22C92.7156 94.1924 92.5486 94.1647 92.4281 94.1278C91.5747 93.9801 90.6657 93.3158 89.831 93.851C88.7272 94.4784 88.9591 96.3513 90.1834 96.665C91.3057 97.0156 92.4652 97.357 93.6524 97.274C95.0623 97.1725 96.4443 96.6281 97.6315 95.8162C98.1973 95.3918 98.7353 94.9305 99.2547 94.4507C99.635 94.1278 100.006 93.731 99.9875 93.1867C99.9968 92.3655 99.1805 91.7197 98.4292 91.9503Z" fill="black"/>
</g>
<g opacity="0.1294">
<path d="M110.079 87.6877C110.088 87.0419 109.671 86.4053 109.05 86.2484C109.012 86.2392 108.985 86.2392 108.948 86.23C108.938 85.0121 108.975 83.785 108.679 82.604C108.252 80.7587 107.287 79.1349 106.49 77.4372C105.757 75.6565 104.801 73.9404 103.577 72.4826C103.058 72.0028 102.177 72.4734 102.195 73.193C102.241 73.8112 102.779 74.2449 103.048 74.7615C104.56 77.0681 105.07 78.7842 105.794 81.5429C106.675 84.44 106.833 85.8424 106.573 88.8318C106.573 88.8687 106.564 88.8964 106.564 88.9241C106.536 89.0625 106.517 89.1916 106.49 89.33C106.48 89.3946 106.452 89.5053 106.415 89.616C106.267 89.8652 106.119 90.105 105.952 90.3449C105.748 90.594 105.339 91.1015 105.108 91.3229C105.052 91.3598 105.006 91.3875 104.959 91.4152C104.505 91.4613 104.161 91.4429 102.946 91.0277C102.603 90.8893 102.529 90.8524 102.919 91.0277C102.306 90.8063 101.75 90.3634 101.11 90.2434C99.6722 89.9666 98.9672 92.1441 100.238 92.873C100.683 93.1129 101.175 93.3435 101.611 93.5465C101.703 94.0355 101.963 94.4968 102.418 94.7551C102.52 94.8197 102.631 94.8659 102.742 94.912C102.779 95.5117 103.123 96.0837 103.855 96.3144C104.468 96.4897 105.108 96.665 105.748 96.5174C105.97 96.4805 106.406 96.2775 106.471 96.2406C107.111 95.9546 107.77 95.5578 108.048 94.8843C108.205 94.5429 108.215 94.2016 108.122 93.8879C108.363 93.6295 108.502 93.2882 108.53 92.9375C109.161 92.0703 109.615 91.0554 109.847 90.0128C109.986 89.2839 110.07 88.5366 110.079 87.7984C110.079 87.7708 110.079 87.7431 110.079 87.7154C110.079 87.6969 110.079 87.6785 110.079 87.6693V87.6877Z" fill="black"/>
</g>
<path d="M26.6936 88.4443C26.6472 88.4443 26.5916 88.4351 26.5452 88.4258C21.9817 87.5586 17.2606 86.6636 12.6043 85.335C10.8049 84.7076 9.06116 84.2924 7.22464 83.8588C5.22116 83.379 3.14348 82.89 1.0287 82.115C0.611305 81.9581 0.397971 81.506 0.555652 81.0909C0.713333 80.6757 1.16783 80.4635 1.58522 80.6203C3.61652 81.3676 5.64783 81.8474 7.60493 82.3087C9.40435 82.7332 11.2594 83.176 13.0959 83.8126C17.3904 85.0305 21.8055 85.8978 26.1 86.7097C27.9643 78.8488 30.4965 71.1725 32.9452 63.736C34.4014 59.3073 35.9133 54.731 37.2861 50.1086C37.2954 50.0901 37.2954 50.0717 37.3046 50.0532C37.7684 48.8538 38.26 47.6728 38.733 46.538C40.0316 43.4564 41.2559 40.5316 41.8588 37.1547C41.8403 37.127 41.8125 37.0994 41.7846 37.0809C41.6826 37.0809 41.627 37.0717 41.5342 37.0256C37.4994 35.4202 33.2791 34.2484 29.198 33.1228C24.3655 31.785 19.3661 30.401 14.5058 28.2697C14.0977 28.0944 13.9214 27.6239 14.0977 27.2179C14.2739 26.8119 14.747 26.6274 15.1551 26.8119C19.9041 28.8971 24.8478 30.2718 29.6246 31.5912C33.7151 32.7261 37.9354 33.8886 42.0165 35.5032C42.8049 35.6047 43.4728 36.352 43.4728 37.164C43.4728 37.2101 43.4727 37.2562 43.4635 37.3024C42.8327 40.9099 41.4971 44.0838 40.2078 47.1469C39.7348 48.2633 39.2525 49.4166 38.8072 50.5884C37.4252 55.2292 35.9226 59.8055 34.4571 64.2342C31.8229 72.2243 29.3371 79.7622 27.4727 87.8169C27.3893 88.1952 27.0646 88.4443 26.6936 88.4443Z" fill="black"/>
<path d="M17.3348 85.9808C17.2699 85.9808 17.2142 85.9716 17.1493 85.9624C16.7226 85.8609 16.4537 85.4272 16.5557 85.0028C20.8038 67.3066 26.7864 48.494 32.9731 33.3996C33.14 32.9936 33.6131 32.7998 34.0212 32.9567C34.4293 33.1228 34.6334 33.5933 34.4664 33.9993C28.3168 49.0291 22.3528 67.7495 18.1232 85.3719C18.0212 85.7409 17.6966 85.9808 17.3348 85.9808Z" fill="black"/>
<path d="M138.573 90.6955C138.443 90.6955 138.323 90.6678 138.211 90.6125C138.007 90.511 137.859 90.3265 137.803 90.1143C134.863 79.55 131.756 68.995 128.454 57.8126C126.756 52.0461 124.994 46.0766 123.241 40.0333C123.139 39.6827 123.296 39.3045 123.612 39.1199C131.106 34.885 138.99 31.259 147.041 28.3527C147.459 28.2051 147.913 28.4173 148.071 28.8325C148.219 29.2477 148.006 29.6998 147.589 29.8566C139.816 32.6615 132.201 36.1398 124.948 40.2087C126.645 46.0397 128.342 51.797 129.984 57.3698C133.193 68.2569 136.226 78.5536 139.102 88.8502C145.947 86.2945 152.755 83.3698 159.341 80.159C159.739 79.9652 160.222 80.1313 160.417 80.528C160.611 80.9248 160.444 81.4045 160.045 81.5983C153.154 84.9567 146.021 88.0014 138.842 90.6494C138.768 90.6771 138.666 90.6955 138.573 90.6955Z" fill="black"/>
<path d="M147.477 86.6543C147.116 86.6543 146.791 86.4145 146.698 86.0546C142.385 69.0965 137.46 52.0738 132.071 35.457C131.932 35.0418 132.164 34.5898 132.59 34.4514C133.017 34.313 133.462 34.5436 133.601 34.968C139 51.6125 143.934 68.6721 148.257 85.6579C148.368 86.0823 148.108 86.5159 147.672 86.6267C147.607 86.6451 147.542 86.6543 147.477 86.6543Z" fill="black"/>
<path d="M65.613 63.6714C63.8878 63.6714 61.8658 62.8871 60.9661 61.0695C59.3707 57.8495 62.3666 54.2235 63.3498 53.0333C67.4124 48.1157 71.6142 43.0412 76.8362 39.203C82.7446 34.8666 89.2003 32.9106 95.0159 33.6764C97.9933 34.0731 100.813 35.1618 103.549 36.2136C104.43 36.555 105.339 36.9056 106.23 37.2285C111.906 39.2583 117.833 40.3378 123.834 40.4301C124.28 40.4393 124.632 40.7991 124.623 41.242C124.614 41.6756 124.261 42.0262 123.825 42.0262H123.816C117.639 41.934 111.545 40.8268 105.701 38.7324C104.783 38.4095 103.865 38.0497 102.974 37.7083C100.331 36.6842 97.5945 35.6324 94.8118 35.2633C89.4136 34.5436 83.366 36.4074 77.8008 40.4854C72.7365 44.2037 68.5997 49.2044 64.602 54.0482C62.3666 56.7516 61.6524 58.8183 62.413 60.3683C63.053 61.66 64.6113 62.1583 65.8634 62.0752C67.3197 61.983 68.6924 61.3186 70.2136 60.5159C71.2339 59.9808 72.2542 59.4549 73.2745 58.9198C79.4889 55.6905 85.3603 52.6366 90.9347 48.5401C91.2872 48.2817 91.7974 48.3556 92.0571 48.7062C92.3168 49.0568 92.2426 49.555 91.8901 49.8226C86.2229 53.9929 80.2959 57.0745 74.0258 60.3314C73.0147 60.8573 71.9945 61.3832 70.9742 61.9184C69.351 62.7764 67.7463 63.5422 65.9747 63.6622C65.8449 63.6622 65.7336 63.6714 65.613 63.6714Z" fill="black"/>
<path d="M120.31 91.8119C120.004 91.8119 119.707 91.6366 119.577 91.3321C119.401 90.9262 119.586 90.4556 119.994 90.2803C125.319 87.9922 130.689 85.6118 135.948 83.2037C136.347 83.0192 136.829 83.1945 137.015 83.6004C137.2 83.9972 137.024 84.4769 136.616 84.6615C131.338 87.0696 125.958 89.45 120.625 91.7473C120.523 91.7842 120.412 91.8119 120.31 91.8119Z" fill="black"/>
<path d="M118.241 94.9028C118.084 94.9028 117.935 94.8935 117.805 94.8751C115.329 94.5983 112.89 92.8914 111.127 90.1788C110.005 88.4535 109.226 86.5344 108.465 84.6707C108.224 84.0802 107.992 83.4989 107.742 82.9177C105.738 78.2306 103.021 73.9404 99.6814 70.176C99.3846 69.8438 99.4217 69.3456 99.7556 69.0504C100.09 68.7551 100.59 68.792 100.887 69.1242C104.347 73.0177 107.148 77.4556 109.226 82.2995C109.476 82.89 109.717 83.4897 109.959 84.0802C110.682 85.8701 111.433 87.7154 112.472 89.3116C113.975 91.6182 115.988 93.0667 117.982 93.2881C118.269 93.3158 118.464 93.3066 118.547 93.242C118.65 93.1774 118.807 92.9375 118.789 92.0518C118.52 83.1022 115.7 74.1064 110.84 66.7161C105.989 59.3442 98.9672 53.3655 91.0739 49.8964C90.6658 49.7211 90.4895 49.2505 90.6658 48.8446C90.842 48.4386 91.315 48.2633 91.7232 48.4386C99.8947 52.0369 107.167 58.2186 112.185 65.8488C117.203 73.4698 120.115 82.7608 120.393 92.0057C120.412 92.5223 120.449 93.9063 119.438 94.5798C119.048 94.8382 118.622 94.9028 118.241 94.9028Z" fill="black"/>
<path d="M81.3069 103.373C80.2681 103.373 78.9231 103.197 77.4576 102.081C77.1052 101.813 77.0402 101.315 77.3092 100.965C77.5782 100.614 78.0791 100.549 78.4315 100.817C79.7858 101.85 80.9266 101.804 81.9284 101.758L82.0397 101.749C83.5237 101.684 85.082 100.928 86.0188 99.8297C86.4547 99.313 86.9463 98.4918 86.8165 97.4954C86.8072 97.4585 86.8072 97.4308 86.8072 97.3939C86.8165 95.7424 86.5939 94.0724 86.3991 92.7899C86.3434 92.4393 86.5289 92.0979 86.8536 91.9503C87.1782 91.8027 87.5585 91.8857 87.7997 92.1533C88.9127 93.445 90.0721 94.7736 91.482 95.6501C92.9289 96.5543 94.5336 96.8126 95.7765 96.3421C97.5017 95.6778 99.2733 92.5316 98.8744 90.8155C98.7724 90.3818 99.0414 89.9574 99.4773 89.8559C99.9133 89.7544 100.34 90.0312 100.442 90.4556C101.017 92.956 98.8373 96.8772 96.3515 97.8275C94.6171 98.4918 92.5301 98.1874 90.6287 96.9971C89.766 96.4528 89.0055 95.7977 88.3005 95.0873C88.3655 95.8162 88.4118 96.582 88.4118 97.3385C88.551 98.5656 88.1521 99.7835 87.2431 100.854C86.0095 102.312 84.0431 103.262 82.1046 103.345H82.0026C81.7985 103.363 81.5574 103.373 81.3069 103.373Z" fill="black"/>
<path d="M105.646 97.0525C105.015 97.0525 104.421 96.8772 103.846 96.6466C101.026 95.5025 99.5423 92.3194 98.1047 89.2378C97.1122 87.1065 96.0826 84.9106 94.682 83.6097C94.3574 83.3052 94.3389 82.807 94.6449 82.484C94.951 82.1611 95.4519 82.1427 95.7765 82.4471C97.3997 83.9603 98.4942 86.3038 99.5516 88.5735C100.915 91.5075 102.214 94.2754 104.44 95.1796C105.423 95.5763 106.545 96.0284 108.122 93.2513C108.558 92.4855 108.679 91.5075 108.743 90.5664C108.901 88.1583 108.289 85.6764 107.686 83.2683C107.593 82.8992 107.501 82.5302 107.417 82.1703C107.315 81.7459 107.575 81.3123 108.011 81.2108C108.447 81.1093 108.873 81.3677 108.975 81.8013C109.059 82.1611 109.152 82.5302 109.244 82.89C109.875 85.4088 110.524 88.0199 110.348 90.6771C110.274 91.8027 110.126 92.9929 109.523 94.0447C108.206 96.3606 106.879 97.0525 105.646 97.0525Z" fill="black"/>
<path d="M57.562 96.582C57.4971 96.582 57.4322 96.582 57.3673 96.582C55.002 96.5266 52.2194 95.0596 51.4774 92.3655C51.2362 91.489 51.227 90.6033 51.3383 89.7544C49.8357 90.6863 47.9806 91.0646 46.2183 90.7324C43.4449 90.2158 41.1168 87.8446 40.6809 85.1043C40.5417 84.2001 40.6994 83.4989 41.1632 83.0192C41.4693 82.7055 41.9794 82.6962 42.2948 83.0007C42.6102 83.3052 42.6194 83.8126 42.3133 84.1263C42.2577 84.1817 42.1835 84.3939 42.2577 84.8552C42.5916 86.9496 44.3817 88.758 46.5058 89.164C48.5742 89.5515 50.7817 88.6842 52.0061 86.9957C52.2194 86.7097 52.5904 86.5898 52.9244 86.7097C53.1841 86.5713 53.4159 86.4791 53.5736 86.4145C56.5417 85.2058 59.649 84.4585 62.8304 84.2002C66.049 83.9418 67.3846 85.1043 67.9319 86.1285C68.3122 86.8297 68.442 87.697 68.3215 88.6934C68.1731 89.9666 67.6351 91.2122 66.8281 92.181C66.0397 93.1221 65.0287 93.7956 64.0641 94.3769C62.3296 95.4195 60.0478 96.582 57.562 96.582ZM53.2212 88.4535C52.8965 89.7544 52.7203 90.8801 53.0171 91.9411C53.5551 93.8786 55.6328 94.9397 57.4044 94.9858C59.5562 95.0412 61.6432 93.9617 63.22 93.0206C64.0733 92.5131 64.9452 91.9411 65.576 91.1753C66.1881 90.4372 66.5962 89.4869 66.7168 88.5181C66.7725 88.0568 66.7817 87.4109 66.5035 86.8943C65.9099 85.7963 64.2403 85.6948 62.9417 85.7963C59.9365 86.0362 56.9777 86.7466 54.1673 87.8907C53.7035 88.0845 53.3974 88.269 53.2212 88.4535Z" fill="black"/>
<path d="M64.8154 101.804C63.6467 101.804 62.5429 101.518 61.6154 100.946C59.8067 99.8389 58.7215 97.6338 58.907 95.4656C58.9441 95.0227 59.3337 94.6998 59.7789 94.7367C60.2241 94.7736 60.5487 95.1611 60.5116 95.604C60.3818 97.1632 61.1795 98.8055 62.4595 99.5898C63.6838 100.346 65.3627 100.42 67.0508 99.7927C68.6554 99.193 70.056 98.1135 71.4751 96.951C73.4971 95.2995 75.3893 93.4542 75.5563 91.1291C75.5655 90.9908 75.5748 90.7878 75.5285 90.6678C75.4821 90.5571 75.3522 90.4372 75.1296 90.2988C73.7105 89.413 72.0131 89.6345 71.1319 89.8375C69.7685 90.1604 68.6554 90.7601 67.3661 91.4613L67.1435 91.5812C66.754 91.7935 66.2624 91.6458 66.0583 91.2583C65.845 90.8708 65.9934 90.391 66.3829 90.1788L66.6055 90.0589C67.9412 89.3392 69.2027 88.6565 70.7702 88.2874C72.718 87.8261 74.5731 88.0568 75.9922 88.9517C76.3169 89.1547 76.7806 89.4961 77.0125 90.0589C77.1887 90.4833 77.1795 90.9169 77.1609 91.2399C76.9476 94.1739 74.7864 96.3052 72.4954 98.1781C71.0299 99.3776 69.4438 100.595 67.6166 101.278C66.6705 101.629 65.7151 101.804 64.8154 101.804Z" fill="black"/>
<path d="M73.4414 104C72.3747 104 71.2988 103.742 70.3434 103.243C69.2304 102.671 68.0802 101.518 68.173 100.023C68.2008 99.5806 68.5904 99.2484 69.017 99.2761C69.4623 99.3038 69.7962 99.682 69.7683 100.116C69.722 100.854 70.4454 101.49 71.0854 101.823C72.0779 102.339 73.2188 102.515 74.3133 102.321C76.057 102.016 77.5689 100.817 78.8211 99.682C80.2402 98.3996 80.8431 97.3385 80.7225 96.3421C80.5927 95.1888 79.4054 94.4138 78.3759 94.3584C77.3463 94.303 76.2889 94.7459 75.0368 95.77C74.6936 96.0468 74.1927 96.0007 73.9052 95.6593C73.6269 95.318 73.6733 94.8197 74.0165 94.5337C75.0089 93.7218 76.5486 92.6423 78.4686 92.7622C80.1753 92.8637 82.0768 94.1554 82.3086 96.1576C82.5498 98.1966 81.0379 99.8204 79.8878 100.863C78.5521 102.072 76.7434 103.511 74.5823 103.889C74.2112 103.963 73.8217 104 73.4414 104Z" fill="black"/>
<path d="M52.7296 87.7707C52.34 87.7707 52.0061 87.494 51.9412 87.1064C51.6815 85.538 50.0305 84.5969 49.0751 84.1724C46.2832 82.9453 43.8531 82.9822 41.8589 84.2924C41.4971 84.5323 41.0055 84.44 40.7551 84.0802C37.9354 79.9929 34.4108 76.9666 30.3018 75.0937C29.9029 74.9091 29.7174 74.4386 29.9029 74.0326C30.0884 73.6359 30.5615 73.4514 30.9696 73.6359C35.1435 75.5365 38.7331 78.5351 41.6455 82.5578C43.9737 81.3307 46.6913 81.3768 49.7244 82.7147C51.8855 83.665 53.2397 85.132 53.5273 86.8481C53.6015 87.2817 53.3047 87.6969 52.8687 87.7615C52.8131 87.7615 52.776 87.7707 52.7296 87.7707Z" fill="black"/>
<path d="M42.0443 40.7438C41.6826 40.7438 41.3579 40.4947 41.2652 40.1348C41.1631 39.7104 41.4229 39.2768 41.8588 39.1753C50.0397 37.2008 57.5527 34.4883 63.8229 32.0986L64.3794 31.8864C66.7724 30.973 69.2489 30.0227 71.8646 29.7182C77.8843 29.0262 83.4217 31.7204 88.3098 34.1008C88.7087 34.2945 88.8756 34.7743 88.6808 35.171C88.486 35.5678 88.0037 35.7338 87.6049 35.5401C82.9208 33.2612 77.606 30.6685 72.0501 31.3144C69.6385 31.5912 67.264 32.5046 64.9637 33.3811L64.4072 33.5933C58.0814 36.0014 50.5127 38.7324 42.2484 40.7346C42.1742 40.7438 42.1092 40.7438 42.0443 40.7438Z" fill="black"/>
<path d="M155.352 80.2235C155.315 80.2235 155.287 80.2143 155.25 80.2051L147.227 77.0497C147.088 76.9943 147.023 76.8375 147.079 76.7083C147.134 76.5699 147.292 76.5053 147.422 76.5607L155.445 79.7161C155.584 79.7715 155.649 79.9283 155.593 80.0575C155.566 80.159 155.464 80.2235 155.352 80.2235Z" fill="black"/>
<path d="M158.07 77.0774C158.042 77.0774 158.014 77.0682 157.977 77.0589C153.562 75.4904 149.184 73.6359 144.973 71.5508C144.843 71.4862 144.788 71.3293 144.853 71.191C144.917 71.0618 145.075 71.0064 145.214 71.071C149.407 73.1469 153.766 74.9922 158.163 76.5607C158.302 76.6069 158.376 76.7637 158.32 76.9021C158.283 77.0128 158.172 77.0774 158.07 77.0774Z" fill="black"/>
<path d="M158.747 72.1412C158.719 72.1412 158.691 72.1412 158.663 72.1227C153.757 70.4435 148.85 68.5337 144.101 66.4393C143.962 66.3839 143.906 66.2271 143.962 66.0887C144.018 65.9503 144.185 65.8949 144.314 65.9503C149.054 68.0355 153.942 69.9453 158.83 71.6153C158.97 71.6614 159.044 71.8183 158.997 71.9567C158.96 72.0674 158.858 72.1412 158.747 72.1412Z" fill="black"/>
<path d="M158.747 67.3988C158.71 67.3988 158.682 67.3896 158.645 67.3804C152.941 65.1476 148.507 63.2193 142.404 60.5252C142.265 60.4698 142.209 60.313 142.265 60.1746C142.32 60.0362 142.487 59.9808 142.617 60.0362C148.72 62.721 153.135 64.6494 158.84 66.8822C158.979 66.9375 159.044 67.0944 158.988 67.2235C158.96 67.3343 158.858 67.3988 158.747 67.3988Z" fill="black"/>
<path d="M157.328 62.0475C157.291 62.0475 157.254 62.0383 157.226 62.0291L140.846 55.0539C140.706 54.9986 140.651 54.8417 140.706 54.7033C140.762 54.5649 140.92 54.5096 141.059 54.5649L157.439 61.5401C157.578 61.5954 157.634 61.7523 157.578 61.8907C157.532 61.9829 157.43 62.0475 157.328 62.0475Z" fill="black"/>
<path d="M156.799 56.9269C156.762 56.9269 156.725 56.9177 156.688 56.8992L138.898 48.6693C138.768 48.6047 138.703 48.4479 138.768 48.3187C138.833 48.1895 138.99 48.1249 139.12 48.1895L156.91 56.4195C157.04 56.4841 157.105 56.6409 157.04 56.7701C156.994 56.8623 156.901 56.9269 156.799 56.9269Z" fill="black"/>
<path d="M155.065 50.4869C155.028 50.4869 154.99 50.4777 154.953 50.4592L137.006 42.0355C136.876 41.9709 136.811 41.8141 136.876 41.6849C136.941 41.5465 137.098 41.5004 137.228 41.5557L155.176 49.9794C155.306 50.044 155.371 50.2009 155.306 50.33C155.259 50.4315 155.167 50.4869 155.065 50.4869Z" fill="black"/>
<path d="M151.03 42.0632C150.993 42.0632 150.965 42.0539 150.928 42.0447C146.466 40.2548 141.921 38.5295 137.414 36.9148C137.274 36.8687 137.2 36.7119 137.256 36.5735C137.302 36.4351 137.46 36.3613 137.599 36.4166C142.116 38.0312 146.67 39.7566 151.132 41.5465C151.271 41.6019 151.336 41.7587 151.28 41.8971C151.234 41.9986 151.132 42.0632 151.03 42.0632Z" fill="black"/>
<path d="M150.677 36.1398C150.64 36.1398 150.603 36.1306 150.566 36.1214L144.157 33.3258C144.018 33.2704 143.962 33.1136 144.018 32.9752C144.073 32.8368 144.231 32.7814 144.37 32.8368L150.779 35.6324C150.919 35.6877 150.974 35.8446 150.919 35.983C150.872 36.0845 150.779 36.1398 150.677 36.1398Z" fill="black"/>
<path d="M14.8582 27.7161C21.1933 29.9397 27.5933 31.951 33.6965 33.8609C32.6948 38.2711 30.1255 42.0816 28.4003 46.2427C27.482 48.4478 26.8049 50.7452 26.1371 53.0518C22.9927 63.8283 19.9875 74.6416 17.1029 85.4919C11.4542 83.4713 7.07622 82.4379 1.01941 81.3123C6.5939 63.1916 11.6211 45.7999 14.8582 27.7161Z" fill="#ACD4F7"/>
<g opacity="0.1294">
<path d="M40.6252 41.242C39.271 46.3627 36.8779 50.1547 35.1156 55.7921C34.0489 59.0859 33.242 62.4535 32.6298 65.8673C32.2495 67.3804 31.9527 68.912 31.6466 70.4436C31.424 71.7999 31.0437 73.1838 31.2756 74.5586C31.6095 75.8964 33.0286 76.5422 34.1788 76.1086C34.9115 76.9113 35.6814 77.6679 36.4605 78.4244C36.4605 78.3875 36.4605 78.3598 36.4605 78.3229C36.4049 76.8098 36.4234 75.3059 36.5069 73.7928C36.2008 72.7317 36.0895 72.0398 36.0246 71.1725C36.3214 69.5025 36.7017 67.851 36.8965 66.1625C37.6571 60.7282 39.1318 55.4415 40.8199 50.2562C41.3301 48.7062 41.7197 47.11 42.3689 45.6153C42.8234 44.2683 43.5747 42.8936 43.5747 41.445C43.4356 39.775 41.0147 39.609 40.6252 41.242Z" fill="black"/>
</g>
<g opacity="0.1294">
<path d="M42.1556 82.7793C42.0721 83.1114 41.766 83.3605 41.4414 83.3421C41.7011 83.4897 41.9887 83.5635 42.2947 83.4713C42.7678 83.3421 43.0831 82.8439 43.0553 82.3456C42.7585 82.4933 42.4617 82.6409 42.1556 82.7793Z" fill="black"/>
</g>
<g opacity="0.1294">
<path d="M31.2845 74.5585C31.2569 74.3555 31.2292 74.1526 31.2107 73.9496C31.2015 74.1618 31.2292 74.3648 31.2845 74.5585Z" fill="black"/>
</g>
<path d="M26.6936 88.4443C26.6472 88.4443 26.5916 88.4351 26.5452 88.4258C21.9817 87.5586 17.2606 86.6636 12.6043 85.335C10.8049 84.7076 9.06116 84.2924 7.22464 83.8588C5.22116 83.379 3.14348 82.89 1.0287 82.115C0.611305 81.9581 0.397971 81.506 0.555652 81.0909C0.713333 80.6757 1.16783 80.4635 1.58522 80.6203C3.61652 81.3676 5.64783 81.8474 7.60493 82.3087C9.40435 82.7332 11.2594 83.176 13.0959 83.8126C17.3904 85.0305 21.8055 85.8978 26.1 86.7097C27.9643 78.8488 30.4965 71.1725 32.9452 63.736C34.4014 59.3073 35.9133 54.731 37.2861 50.1086C37.2954 50.0901 37.2954 50.0717 37.3046 50.0532C37.7684 48.8538 38.26 47.6728 38.733 46.538C40.0316 43.4564 41.2559 40.5316 41.8588 37.1547C41.8403 37.127 41.8125 37.0994 41.7846 37.0809C41.6826 37.0809 41.627 37.0717 41.5342 37.0256C37.4994 35.4202 33.2791 34.2484 29.198 33.1228C24.3655 31.785 19.3661 30.401 14.5058 28.2697C14.0977 28.0944 13.9214 27.6239 14.0977 27.2179C14.2739 26.8119 14.747 26.6274 15.1551 26.8119C19.9041 28.8971 24.8478 30.2718 29.6246 31.5912C33.7151 32.7261 37.9354 33.8886 42.0165 35.5032C42.8049 35.6047 43.4728 36.352 43.4728 37.164C43.4728 37.2101 43.4727 37.2562 43.4635 37.3024C42.8327 40.9099 41.4971 44.0838 40.2078 47.1469C39.7348 48.2633 39.2525 49.4166 38.8072 50.5884C37.4252 55.2292 35.9226 59.8055 34.4571 64.2342C31.8229 72.2243 29.3371 79.7622 27.4727 87.8169C27.3893 88.1952 27.0646 88.4443 26.6936 88.4443Z" fill="black"/>
<path d="M17.3348 85.9808C17.2699 85.9808 17.2142 85.9716 17.1493 85.9624C16.7226 85.8609 16.4537 85.4272 16.5557 85.0028C20.8038 67.3066 26.7864 48.494 32.9731 33.3996C33.14 32.9936 33.6131 32.7998 34.0212 32.9567C34.4293 33.1228 34.6334 33.5933 34.4664 33.9993C28.3168 49.0291 22.3528 67.7495 18.1232 85.3719C18.0212 85.7409 17.6966 85.9808 17.3348 85.9808Z" fill="black"/>
<path d="M120.31 91.8119C120.004 91.8119 119.707 91.6366 119.577 91.3321C119.401 90.9262 119.586 90.4556 119.994 90.2803C125.319 87.9922 130.689 85.6118 135.948 83.2037C136.347 83.0192 136.829 83.1945 137.015 83.6004C137.2 83.9972 137.024 84.4769 136.616 84.6615C131.338 87.0696 125.958 89.45 120.625 91.7473C120.523 91.7842 120.412 91.8119 120.31 91.8119Z" fill="black"/>
<path d="M106.916 32.154C106.462 32.1448 106.109 31.785 106.119 31.3513L106.35 8.94038C106.36 8.50674 106.712 8.14691 107.148 8.14691H107.157C107.603 8.15614 107.955 8.51597 107.955 8.94961L107.723 31.3605C107.714 31.8034 107.361 32.154 106.916 32.154Z" fill="#42526D"/>
<path d="M102.408 15.4358C102.223 15.4358 102.037 15.3712 101.889 15.242C101.555 14.956 101.509 14.4486 101.796 14.1164C103.605 12.0128 105.219 9.70618 106.601 7.26119C106.749 7.00285 107.037 6.86445 107.315 6.85522C107.612 6.86445 107.881 7.03053 108.011 7.28887L108.159 7.58411C109.476 10.1306 110.339 11.8098 112.083 14.0426C112.352 14.3932 112.287 14.8914 111.944 15.159C111.591 15.4266 111.09 15.362 110.821 15.0206C109.235 12.9908 108.317 11.3485 107.25 9.31867C105.998 11.3854 104.57 13.3414 103.011 15.159C102.863 15.3435 102.631 15.4358 102.408 15.4358Z" fill="#42526D"/>
<path d="M86.2693 25.2896C86.26 25.2896 86.26 25.2896 86.2693 25.2896C85.8148 25.2896 85.4623 24.9205 85.4716 24.4869L85.7035 2.07594C85.7035 1.6423 86.0652 1.28247 86.5012 1.28247H86.5105C86.9557 1.2917 87.3081 1.65153 87.3081 2.08517L87.0762 24.4961C87.067 24.939 86.7052 25.2896 86.2693 25.2896Z" fill="#42526D"/>
<path d="M81.7522 8.58055C81.5667 8.58055 81.3812 8.51597 81.2328 8.3868C80.8989 8.10078 80.8525 7.59333 81.14 7.26118C82.9487 5.15756 84.5626 2.85096 85.9447 0.405962C86.0931 0.147622 86.362 0 86.6589 0C86.9557 0.0092264 87.2247 0.175302 87.3545 0.433641L87.5029 0.719659C88.82 3.26615 89.6919 4.94535 91.4357 7.18737C91.7047 7.53797 91.6397 8.0362 91.2965 8.30376C90.9441 8.57133 90.4432 8.50674 90.1742 8.16537C88.5881 6.13556 87.6699 4.49326 86.6032 2.46345C85.351 4.53016 83.9226 6.48616 82.3644 8.30376C82.2067 8.47906 81.9841 8.58055 81.7522 8.58055Z" fill="#42526D"/>
<path d="M62.7748 28.2512C62.3203 28.2512 61.9678 27.8822 61.9771 27.4485L62.209 5.03761C62.2183 4.60397 62.5707 4.24414 63.0067 4.24414H63.016C63.4612 4.25337 63.8136 4.6132 63.8136 5.04684L63.5817 27.4578C63.5725 27.9006 63.22 28.2512 62.7748 28.2512Z" fill="#42526D"/>
<path d="M58.267 11.533C58.0815 11.533 57.8959 11.4684 57.7475 11.3393C57.4136 11.0532 57.3673 10.5458 57.6548 10.2136C59.4635 8.11001 61.0774 5.80341 62.4594 3.35842C62.6078 3.10008 62.8954 2.95245 63.1736 2.95245C63.4704 2.96168 63.7394 3.12776 63.8693 3.38609L64.0177 3.68134C65.3348 6.22783 66.1974 7.90703 67.9504 10.1398C68.2194 10.4904 68.1545 10.9886 67.8113 11.2562C67.4588 11.5238 66.958 11.4684 66.689 11.1178C65.1029 9.08801 64.1846 7.44571 63.118 5.4159C61.8658 7.48262 60.4374 9.43861 58.8791 11.2562C58.7122 11.4407 58.4896 11.533 58.267 11.533Z" fill="#42526D"/>
</g>
<defs>
<clipPath id="clip0_116_904">
<rect width="160" height="104" fill="white" transform="translate(0.5)"/>
</clipPath>
</defs>
</svg>
