<svg width="120" height="119" viewBox="0 0 120 119" fill="none" xmlns="http://www.w3.org/2000/svg">
<path d="M114.665 81.4883C102.73 108.984 71.2239 120.794 46.5384 118.781C39.7983 118.231 26.237 117.125 15.6482 107.255C-4.68677 88.3024 -1.55501 48.6853 17.9115 25.361C20.4183 22.3573 37.7705 2.23284 64.8107 2.50219C84.6081 2.69943 98.5036 13.7215 100.193 15.0946C102.328 16.8293 107.036 20.9513 111.278 27.4907C121.248 42.8561 122.124 64.3061 114.665 81.4883Z" fill="url(#paint0_linear_139_1176)" fill-opacity="0.1"/>
<g opacity="0.68">
<path d="M40.2748 76.1319C40.2748 76.1319 38.4202 30.0906 21.4925 1.87264C20.3546 -0.0242054 17.5725 0.0795155 16.5913 2.06201C10.0305 15.3184 -5.59788 56.3606 40.2748 76.1319Z" fill="#91B3FA"/>
<path opacity="0.5" d="M36.4429 72.4401C36.5299 72.5661 36.3553 72.7045 36.2522 72.5913C32.4511 68.42 18.4296 48.8306 18.3887 15.2257C18.3885 15.1178 18.5492 15.108 18.5586 15.2155C19.255 23.1389 22.6877 52.5239 36.4429 72.4401Z" fill="white" fill-opacity="0.1"/>
</g>
<g opacity="0.78">
<path d="M31.8974 87.4926C31.8974 87.4926 26.2941 39.1206 9.2832 10.4809C8.13969 8.55568 5.75674 8.84234 5.08576 10.9928C0.598984 25.3726 -9.26471 69.5941 31.8974 87.4926Z" fill="#BDD0FB" fill-opacity="0.1"/>
<path opacity="0.5" d="M28.2811 83.8488C28.3669 83.9759 28.2288 84.1328 28.1303 84.0202C24.499 79.8693 10.7379 60.1318 7.77696 24.7422C7.76748 24.6285 7.90467 24.6079 7.92219 24.7205C9.21077 33.021 14.7205 63.7502 28.2811 83.8488Z" fill="white" fill-opacity="0.1"/>
</g>
<path d="M4.27271 39.0846V94.8717C4.27271 99.461 7.92975 103.214 12.5175 103.332C32.8937 103.858 92.369 105.132 111.766 104.846C115.1 104.797 117.8 102.129 117.896 98.796C118.27 85.8359 118.878 54.6711 116.63 40.2026C116.156 37.1556 113.585 34.8772 110.503 34.7787C93.43 34.2325 29.674 32.4982 10.2863 32.9337C6.94265 33.0087 4.27271 35.74 4.27271 39.0846Z" fill="url(#paint1_linear_139_1176)"/>
<path d="M7.77319 38.9608V94.0348C7.77319 96.819 9.92407 99.0876 12.6032 99.1293L108.975 100.518C111.631 100.559 113.809 98.3385 113.819 95.5782L114 40.9963C114.007 39.0226 112.493 37.4054 110.594 37.3574L11.6466 35.0327C9.52282 34.979 7.77319 36.7533 7.77319 38.9608Z" fill="#91B3FA"/>
<path opacity="0.31" d="M106.081 98.2292L13.6877 97.1667C11.6926 97.2152 10.0622 95.0881 10.0754 92.4538L10.3106 45.6432C10.5144 40.6761 12.7178 38.4455 14.6822 38.4554L106.116 41.4286C108.08 41.4385 109.662 43.5489 109.649 46.1423L109.427 90.2466C109.415 92.7993 108.015 98.1822 106.081 98.2292Z" fill="white" fill-opacity="0.1"/>
<path fill-rule="evenodd" clip-rule="evenodd" d="M76.9705 48.1306L81.4506 48.1531C81.6019 48.1539 81.7247 48.2621 81.7272 48.3967L81.7608 50.2566C81.7636 50.4083 81.9177 50.5222 82.0857 50.4966L90.2785 49.2506C90.2944 49.2481 90.3106 49.2469 90.3268 49.247L95.956 49.2753C95.9699 49.2754 95.9838 49.2745 95.9976 49.2727L102.363 48.4482C102.44 48.4382 102.519 48.4577 102.58 48.5022L103.98 49.5287C104.096 49.6138 104.115 49.7655 104.023 49.8711L102.294 51.8559C102.244 51.9128 102.225 51.9861 102.241 52.0567L102.993 55.328C103.005 55.3803 102.997 55.4346 102.972 55.4829L100.302 60.5231C100.213 60.6898 99.9583 60.7147 99.8311 60.569L98.2696 58.7822C98.2195 58.7249 98.2001 58.6508 98.2169 58.5797L98.8923 55.7025C98.9502 55.4559 98.605 55.2989 98.4147 55.4853L96.7452 57.1203C96.7136 57.1513 96.6737 57.1746 96.6292 57.188L94.6965 57.7725C94.63 57.7926 94.5745 57.8344 94.5413 57.8895L93.5901 59.4672C93.4988 59.6186 93.6048 59.8049 93.7961 59.8291L95.9696 60.1044C96.1017 60.1211 96.2018 60.219 96.2083 60.3375L96.4825 65.3969C96.4868 65.4759 96.4483 65.552 96.3789 65.6015L94.3263 67.0654C94.2314 67.1331 94.1971 67.2478 94.2415 67.3486L94.7108 68.4129C94.7793 68.5682 94.659 68.7378 94.4722 68.7496L93.9136 68.7849C93.8198 68.7908 93.7289 68.7541 93.6721 68.6872L92.0839 66.8176C91.9459 66.6552 91.6591 66.7021 91.5955 66.8975L91.4264 67.4172C91.4067 67.4777 91.4137 67.5427 91.4461 67.5989L92.9947 70.2849C93.0492 70.3795 93.0297 70.4944 92.9463 70.5705L90.1945 73.0773C90.0618 73.1982 89.8651 73.2444 89.6824 73.1977L89.198 73.0736C88.9292 73.0047 88.6478 73.1387 88.5632 73.3758C88.5133 73.5157 88.5415 73.6685 88.6391 73.787L90.0428 75.4909C90.1967 75.6776 90.1707 75.9369 89.9821 76.0961L89.2035 76.7537C89.0011 76.9246 88.6826 76.9214 88.4842 76.7464L84.1599 72.9322C83.9579 72.754 83.6323 72.7544 83.4312 72.933L81.1007 75.0035C81.0319 75.0647 80.9839 75.1419 80.9623 75.2262L80.7684 75.9819C80.6709 76.362 80.1194 76.4678 79.8538 76.1574L76.2234 71.9153C76.1254 71.8008 75.9811 71.7248 75.8213 71.7034L73.3105 71.3677C73.2383 71.358 73.1685 71.3371 73.1044 71.3059L72.0691 70.8015C71.7807 70.661 71.4573 70.9269 71.5919 71.1938L71.8265 71.6592C71.9124 71.8297 72.0893 71.9501 72.2966 71.9793L74.0453 72.2252C74.2669 72.2563 74.4525 72.3914 74.5308 72.5785L74.6163 72.783C74.7187 73.0276 74.615 73.3023 74.3676 73.442L70.4911 75.6297C70.317 75.728 70.0855 75.6681 69.9972 75.5022L67.6804 71.1441C67.6047 71.0019 67.4201 70.9339 67.2539 70.9872C67.0634 71.0483 66.9737 71.2422 67.0607 71.4051L69.0309 75.0944C69.3639 75.7181 70.1441 76.0472 70.8968 75.8817L71.2244 75.8097C71.6988 75.7053 72.1169 76.1074 71.9633 76.5202L71.4657 77.8579C71.4278 77.9597 71.3576 78.0493 71.2634 78.1161L69.4823 79.3784C69.0701 79.6706 68.8422 80.1224 68.8707 80.591L68.9605 82.0695C68.9872 82.5095 68.7879 82.9363 68.4188 83.2295L67.7022 83.7988C67.3925 84.0449 67.2353 84.4089 67.2801 84.7765L67.3166 85.076C67.3609 85.4396 67.2076 85.8 66.9039 86.0461L64.1839 88.2506C63.8754 88.5007 63.4496 88.6019 63.0416 88.5223L62.5141 88.4194C62.0695 88.3327 61.7092 88.0437 61.566 87.6591L60.0668 83.6331C59.9048 83.1981 60.0492 82.7193 60.4341 82.4156C60.8141 82.1156 60.9601 81.6446 60.8069 81.2132L59.9775 78.8783C59.6881 78.0635 58.7463 77.5807 57.8098 77.767L55.6656 78.1937C55.489 78.2289 55.304 78.1858 55.1691 78.0782L52.1485 75.6698C52.029 75.5745 51.9611 75.4383 51.9618 75.2957L51.9759 72.4929C51.9797 71.7384 52.2842 71.0099 52.8351 70.437L53.2067 70.0507C53.8962 69.3338 54.8673 68.8782 55.9221 68.7768L58.0948 68.5679L59.561 68.4066C59.8504 68.3748 60.119 68.5458 60.1789 68.7998L60.2794 69.2268C60.3151 69.3784 60.428 69.5068 60.5848 69.5742L62.6846 70.4762L62.9461 69.6188L66.7846 70.0199L66.8467 69.0322C66.8561 68.8812 66.7399 68.7466 66.5734 68.7159L64.9333 68.4138L64.2436 67.0799L62.9985 66.8106L63.5499 68.4411L62.5699 67.3725L61.2058 66.118C61.0104 65.9383 60.6959 65.9149 60.4701 66.0633C60.1993 66.2412 60.1651 66.5902 60.3971 66.8077L61.6641 67.9956L60.9155 67.994C60.7786 67.9937 60.6465 67.9488 60.5441 67.8677L59.0612 66.6941C58.8317 66.5124 58.481 66.5287 58.2745 66.7306L57.0499 67.9277C56.9664 68.0093 56.8548 68.0639 56.7326 68.083L55.7531 68.2356C55.4504 68.2828 55.1611 68.104 55.1049 67.8349L54.8996 66.8525C54.8321 66.5295 55.1277 66.238 55.4957 66.2648L56.2047 66.3165C56.6079 66.3459 56.9118 65.997 56.7793 65.6567L56.4548 64.8229C56.3717 64.6091 56.4604 64.3725 56.671 64.2463L59.1267 62.7748L62.8333 62.5255L63.5529 60.3942L62.6055 60.0865L62.9501 58.1946L62.2379 58.2609L61.3594 59.8457L61.4184 61.6005L60.3244 61.964L59.7468 60.6236L58.831 61.1443L58.3499 59.4002C58.3455 59.3842 58.3492 59.3674 58.36 59.3541L62.0304 54.8397L66.8839 56.1439L66.9349 56.9149L65.676 57.4168L65.5998 58.605L67.6563 57.143L70.5838 55.7182L70.6491 54.7797L71.9686 54.7789C72.022 54.7789 72.0743 54.7925 72.1192 54.8182L72.6106 55.0993C72.832 55.226 73.1086 55.0334 73.0235 54.8117L72.4761 53.3849C72.4473 53.3099 72.4606 53.2272 72.512 53.1625L72.9889 52.5617C73.0471 52.4884 73.1454 52.449 73.2457 52.4588L74.448 52.5755C74.4991 52.5805 74.5477 52.598 74.5884 52.6261L74.7391 52.7303C74.9679 52.8884 75.2815 52.6688 75.1627 52.4338C75.0895 52.289 75.1862 52.1214 75.3609 52.0901L75.9225 51.9896C76.1608 51.947 76.2266 51.6717 76.0286 51.5459L75.7367 51.3606C75.5912 51.2683 75.5798 51.0796 75.7134 50.9742L77.1334 49.8546C77.1586 49.8347 77.1877 49.8191 77.2191 49.8085L78.4075 49.4081C78.5623 49.356 78.6316 49.1957 78.5562 49.0645L78.4448 48.8708C78.3854 48.7675 78.2531 48.7147 78.1269 48.7441L77.0153 49.0028C76.8328 49.0453 76.6566 48.917 76.6673 48.7494L76.6918 48.3635C76.7002 48.2323 76.8227 48.1299 76.9705 48.1306Z" fill="white" fill-opacity="0.1"/>
<path fill-rule="evenodd" clip-rule="evenodd" d="M96.7442 81.8475L94.1653 82.6823C94.0503 82.7196 93.9539 82.792 93.8933 82.8867L93.1343 84.074C93.0662 84.1805 92.9531 84.2583 92.8201 84.2902L90.5065 84.8445C90.2577 84.9041 90.0965 85.1179 90.1288 85.3454L90.5513 88.3297C90.5633 88.4145 90.5485 88.5006 90.5086 88.5783L90.1641 89.2485C90.0268 89.5158 90.2029 89.8279 90.5261 89.8897L90.9488 89.9705C91.0539 89.9906 91.1635 89.981 91.2621 89.943L94.9961 88.5067C95.2273 88.4177 95.4971 88.4903 95.6346 88.6784L96.4973 89.859C96.5222 89.8931 96.5521 89.9241 96.5862 89.9512L97.931 91.0211C98.0421 91.1095 98.1906 91.151 98.3384 91.1349L100.514 90.898C100.766 90.8705 100.958 90.6837 100.967 90.4577L101.002 89.5229C101.005 89.433 101.038 89.3459 101.097 89.2726L102.439 87.5896C102.5 87.5125 102.533 87.4204 102.534 87.3258L102.54 86.0254C102.541 85.9013 102.485 85.7822 102.386 85.6952L100.591 84.1241C100.528 84.0692 100.482 84.0011 100.457 83.926L100.128 82.9327C99.9833 82.496 99.2901 82.4911 99.1389 82.9258L99.0196 83.2685C98.9134 83.5739 98.4978 83.6915 98.2124 83.497L97.8045 83.2191C97.6081 83.0853 97.5456 82.8467 97.6552 82.6497L97.6604 82.6403C97.7775 82.4298 97.6973 82.1744 97.4743 82.0481L97.1983 81.8918C97.0628 81.815 96.895 81.7987 96.7442 81.8475Z" fill="white" fill-opacity="0.1"/>
<path fill-rule="evenodd" clip-rule="evenodd" d="M96.1028 78.9375L96.0461 79.104C95.9847 79.2841 96.0529 79.4794 96.2182 79.597L97.6982 80.6495C97.7624 80.6952 97.8378 80.7266 97.9183 80.7411L100.723 81.2472C100.751 81.2523 100.779 81.2595 100.806 81.2687L101.172 81.3941C101.629 81.551 102.051 81.106 101.801 80.7307L101.654 80.5108C101.597 80.4245 101.509 80.3573 101.405 80.3194L96.7917 78.6458C96.5101 78.5437 96.1911 78.6788 96.1028 78.9375Z" fill="white" fill-opacity="0.1"/>
<path fill-rule="evenodd" clip-rule="evenodd" d="M91.5585 77.0937C91.1911 77.4574 90.6958 77.9445 90.4162 78.2192C90.2842 78.3489 90.2466 78.5341 90.3191 78.6969L90.9319 80.0742C91.0272 80.2883 91.2858 80.4069 91.5369 80.3516L92.4814 80.1437C92.6579 80.1048 92.7984 79.9862 92.8512 79.8314L93.2276 78.7281C93.2696 78.6048 93.2521 78.4722 93.1784 78.3612C93.0011 78.0942 92.6538 77.5711 92.3864 77.1686C92.2088 76.9011 91.7918 76.8629 91.5585 77.0937Z" fill="white" fill-opacity="0.1"/>
<path fill-rule="evenodd" clip-rule="evenodd" d="M86.7798 77.2749L88.9173 79.6899C88.9239 79.6974 88.9308 79.7047 88.9379 79.7118L90.2546 81.023C90.3435 81.1116 90.4675 81.1661 90.6006 81.1752L93.1328 81.3485L93.1176 81.391C93.0517 81.574 92.8648 81.7011 92.649 81.7097L89.1101 81.8493C88.9278 81.8565 88.7546 81.7776 88.6546 81.6416L85.8753 77.8656C85.737 77.6775 85.7714 77.4282 85.9568 77.2759L86.0235 77.2211C86.2447 77.0394 86.5933 77.0642 86.7798 77.2749Z" fill="white" fill-opacity="0.1"/>
<path fill-rule="evenodd" clip-rule="evenodd" d="M35.395 74.9563L34.7522 75.7862C34.6632 75.9011 34.5044 75.9561 34.3514 75.925L33.15 75.6809C32.9747 75.6452 32.8506 75.5061 32.8514 75.3461L32.8552 74.5821C32.8561 74.399 32.6947 74.2477 32.4892 74.2392L31.7949 74.2102C31.5125 74.1984 31.3406 73.9282 31.4748 73.7068L32.2254 72.4687L31.0584 72.121C31.0584 72.121 30.1737 73.3886 29.9977 73.3939C29.8217 73.3992 28.6696 71.7865 28.6696 71.7865L30.1268 70.1485L32.3646 70.1004L33.4298 71.4812L34.1078 69.2577L36.6065 67.5849L41.542 64.5C41.5777 64.4777 41.6062 64.4474 41.6246 64.4123L42.5484 62.6458C42.5893 62.5675 42.5754 62.4751 42.5128 62.4091L41.057 60.8744C41.0239 60.8396 41.0037 60.7966 40.9991 60.7512L40.9149 59.9186C40.8928 59.7009 40.5676 59.6396 40.4487 59.8307C40.3624 59.9695 40.145 59.9849 40.0349 59.86L39.0528 58.7469C38.8398 58.5054 38.4312 58.4995 38.2101 58.7347L36.9546 60.0698C36.9193 60.1073 36.8906 60.1495 36.8695 60.1948L36.3194 61.3778C36.1391 61.7656 35.5266 61.7773 35.3267 61.3968L35.2977 61.3415C35.2446 61.2405 35.1553 61.1595 35.0424 61.1111C34.504 60.8802 32.8916 60.1645 32.8831 59.8727C32.8742 59.5702 33.968 57.9039 34.2665 57.4549C34.3154 57.3814 34.3848 57.3218 34.4687 57.2803L36.5677 56.2417C36.5764 56.2373 36.5853 56.2332 36.5942 56.2294L38.5788 55.3712C38.7746 55.2866 38.8944 55.1059 38.883 54.9124L38.8554 54.4406C38.8379 54.142 38.5229 53.9289 38.1951 53.9939L37.242 54.1829C37.1491 54.2013 37.0633 54.2412 36.9933 54.2985L36.5675 54.6467C36.3062 54.8605 35.8881 54.7966 35.7213 54.5173L35.1286 53.5255C34.9759 53.27 34.6069 53.1902 34.3401 53.355L33.5305 53.855C33.3945 53.9389 33.2228 53.963 33.0643 53.9203L30.3265 53.1827C30.2714 53.1678 30.2192 53.1452 30.172 53.1158L27.8283 51.6532C27.6982 51.5719 27.5347 51.5455 27.3809 51.5809L25.535 52.0053C25.3601 52.0455 25.174 52.0055 25.0388 51.8986L21.8642 49.3898C21.728 49.2822 21.5419 49.2421 21.366 49.2837C20.7693 49.4248 19.3776 49.7462 18.8002 49.8131C18.2172 49.8807 17.5833 50.571 17.3351 50.8681C17.2675 50.9491 17.2589 51.0564 17.3122 51.1456L17.5803 51.5951C17.6747 51.7534 17.5662 51.9472 17.3675 51.9752L16.3765 52.115C16.1713 52.144 16.0643 52.3483 16.1712 52.507L16.4035 52.8516C16.4405 52.9066 16.4536 52.9717 16.4401 53.0347L16.2567 53.8949C16.2254 54.0414 16.0629 54.1347 15.9 54.0997L14.9515 53.896C14.7605 53.8549 14.5792 53.9893 14.5901 54.1639L14.673 55.4942C14.6763 55.5471 14.6976 55.5978 14.7341 55.6397L15.5227 56.5457C15.6302 56.6691 15.5937 56.8477 15.4437 56.9284C14.6667 57.3467 12.5573 58.4803 12.7652 58.3491C13.0195 58.1887 15.3327 58.3921 15.3534 58.0371C15.3741 57.6821 16.9111 57.3475 17.0181 57.2247C17.0984 57.1325 17.6805 56.3835 17.9651 56.0166C18.0529 55.9035 18.2243 55.8705 18.357 55.9412L20.6926 57.1855C20.8419 57.265 20.9394 57.4034 20.9548 57.5577L21.208 60.1041C21.2151 60.1755 21.2399 60.2446 21.2808 60.3064L22.2777 61.8151L23.4246 63.7266C23.4962 63.846 23.5083 63.9866 23.4579 64.1142L22.8255 65.7154C22.3491 66.9216 22.4544 68.2497 23.1158 69.3859C23.6542 70.3107 24.2067 71.2679 24.2382 71.3544C24.2486 71.383 24.2819 71.4351 24.3304 71.5023C24.801 72.155 25.4736 72.673 26.2542 73.0176L29.8802 74.6183C29.8961 74.6253 29.9114 74.6333 29.9261 74.6421L32.5944 76.2627C32.6201 76.2782 32.6435 76.2965 32.6641 76.317L33.1107 76.7609C33.1983 76.8479 33.3299 76.8892 33.4594 76.8701C33.7604 76.8257 33.9966 77.0968 33.8733 77.3451L33.1643 78.7735C33.1354 78.8318 33.1254 78.8962 33.1355 78.9593L33.5805 81.7518C33.5926 81.8279 33.6332 81.8982 33.6958 81.9512L35.5965 83.5637C35.6528 83.6115 35.6915 83.6734 35.7074 83.7412L36.3665 86.5454C36.3704 86.5618 36.3729 86.5784 36.374 86.5952L36.8869 94.3243C36.8936 94.4257 36.9508 94.5193 37.0429 94.5796L38.8093 95.7349C38.8823 95.7827 38.9719 95.8059 39.0622 95.8005L39.6749 95.7641C40.0045 95.7445 40.1535 95.3879 39.9185 95.181L39.327 94.66C39.2594 94.6004 39.2191 94.5207 39.2137 94.4363L39.1674 93.704C39.167 93.6971 39.1668 93.6901 39.1668 93.6833L39.1736 92.3385C39.1737 92.3175 39.176 92.2965 39.1804 92.2759L39.4016 91.2457C39.403 91.2393 39.4042 91.2329 39.4051 91.2265L39.5126 90.5056C39.5304 90.3863 39.6175 90.2841 39.7419 90.2369L41.255 89.662C41.451 89.5875 41.541 89.3849 41.4552 89.2111L41.2597 88.8147C41.1642 88.6212 41.2872 88.3979 41.5174 88.3467L42.1107 88.2146C42.2064 88.1933 42.2891 88.14 42.3417 88.0658L43.5724 86.3295C43.6549 86.2131 43.6507 86.0639 43.5617 85.9511L43.5363 85.919C43.377 85.7172 43.5029 85.4365 43.7744 85.3882L44.4603 85.2662C44.5976 85.2418 44.709 85.1526 44.7508 85.0337L45.7562 82.1702C45.7719 82.1255 45.7979 82.0841 45.8323 82.0487L47.2587 80.5835C47.4072 80.431 47.3752 80.1976 47.1898 80.0811L45.2349 78.852C45.1655 78.8084 45.0818 78.7864 44.9969 78.7897L43.5918 78.8432C43.4998 78.8467 43.4095 78.8207 43.3372 78.7698L42.4941 78.1762C42.4045 78.1132 42.3511 78.0179 42.3484 77.9163L42.3238 76.9941C42.3199 76.8468 42.2103 76.7182 42.0519 76.6753L40.3355 76.2092C40.2889 76.1966 40.2454 76.1762 40.2074 76.149L39.1399 75.3879C39.0315 75.3106 38.8847 75.2915 38.756 75.3378L37.8894 75.6499C37.7847 75.6876 37.6666 75.6822 37.5666 75.6353L35.8896 74.8484C35.7175 74.7677 35.5052 74.8141 35.395 74.9563Z" fill="white" fill-opacity="0.1"/>
<path fill-rule="evenodd" clip-rule="evenodd" d="M37.0078 52.6905L37.2317 51.7271C37.277 51.532 37.4523 51.382 37.6731 51.3492L39.2497 51.115C39.373 51.0967 39.4997 51.1168 39.6084 51.1721L41.5512 52.1603C41.6819 52.2268 41.7172 52.3804 41.6262 52.487L40.8487 53.3984C40.7839 53.4743 40.781 53.5786 40.8415 53.6574L41.9483 55.1008C41.982 55.1447 41.9968 55.1979 41.9901 55.2507L41.78 56.9128C41.7759 56.9454 41.7636 56.9768 41.7443 57.0047L41.1283 57.8897C41.0718 57.9711 40.9629 58.0108 40.8583 57.9883L39.1775 57.6273C39.1505 57.6215 39.124 57.6138 39.0982 57.6044L38.9469 57.5489C38.5135 57.3901 38.4943 56.8502 38.9155 56.6682L39.2301 56.5322C39.44 56.4415 39.5611 56.2425 39.5307 56.0365C39.4685 55.6152 39.355 54.9353 39.2461 54.7456C39.1505 54.5791 39.0901 54.1823 39.0568 53.8869C39.0327 53.6737 38.8539 53.5008 38.6172 53.4611L37.439 53.2631C37.1407 53.2131 36.9463 52.9549 37.0078 52.6905Z" fill="white" fill-opacity="0.1"/>
<path fill-rule="evenodd" clip-rule="evenodd" d="M30.2411 49.608L29.5175 50.1375C29.2921 50.3024 29.254 50.5967 29.4313 50.8033L30.1224 51.6085C30.1347 51.6228 30.1461 51.6378 30.1565 51.6532L31.0581 52.9902C31.1201 53.0821 31.2147 53.153 31.3268 53.1919L32.1764 53.4863C32.362 53.5507 32.5723 53.5193 32.724 53.4047L33.3166 52.9571C33.3703 52.9165 33.4146 52.8671 33.447 52.8114L34.137 51.6263C34.1769 51.5579 34.1977 51.482 34.1978 51.4049C34.1983 50.975 33.6147 50.7583 33.2725 51.0614L33.2357 51.094C33.0174 51.2873 32.662 51.28 32.4535 51.0779L30.9853 49.6548C30.7903 49.4658 30.4636 49.4452 30.2411 49.608Z" fill="white" fill-opacity="0.1"/>
<path fill-rule="evenodd" clip-rule="evenodd" d="M45.073 47.4008L42.4511 49.2799C42.3702 49.3379 42.3383 49.4346 42.3712 49.5224L42.8631 50.8378C42.8888 50.9064 42.9503 50.9597 43.0282 50.9804L44.4951 51.3716C44.6149 51.4035 44.7018 51.4959 44.7159 51.6065L45.092 54.5416C45.0978 54.5865 45.0911 54.632 45.0727 54.674L44.1819 56.7045C44.1579 56.7592 44.154 56.8193 44.1709 56.8762L44.9005 59.3416C44.9242 59.4216 44.9868 59.4882 45.0712 59.523L45.6742 59.7719C45.8227 59.8332 45.9989 59.7821 46.0782 59.6548L47.2888 57.7103C47.3188 57.6621 47.3643 57.623 47.4194 57.5979L49.4132 56.6898C49.4382 56.6784 49.4614 56.6641 49.4821 56.6471L52.4088 54.2535C52.4553 54.2155 52.4877 54.1658 52.5017 54.111L53.5448 50.0413C53.5556 49.9994 53.5771 49.9603 53.6077 49.927L55.2221 48.1753C55.2919 48.0995 55.3117 47.9966 55.274 47.9044L55.0898 47.4532C55.029 47.3042 54.8407 47.2305 54.6763 47.2914L53.7755 47.625C53.7202 47.6455 53.6594 47.6514 53.6005 47.6419L53.0458 47.553C52.7145 47.5 52.6988 47.0821 53.0255 47.0102C53.2679 46.9568 53.3447 46.6841 53.1594 46.5348L52.9611 46.3751C52.9433 46.3608 52.9274 46.3447 52.9137 46.3271L52.2052 45.4159C52.1472 45.3412 52.052 45.2965 51.9501 45.296L49.9426 45.2859C49.8595 45.2855 49.7797 45.3146 49.7209 45.3668L48.587 46.3722C48.5142 46.4368 48.4818 46.5293 48.5006 46.6194L48.6127 47.157C48.6576 47.3724 48.4178 47.5468 48.1895 47.4648L47.5531 47.2363C47.4815 47.2106 47.423 47.1621 47.3892 47.1003L47.2046 46.7635C47.1286 46.6247 46.9402 46.5676 46.785 46.6363L45.1296 47.3684C45.1096 47.3774 45.0905 47.3883 45.073 47.4008Z" fill="white" fill-opacity="0.1"/>
<path fill-rule="evenodd" clip-rule="evenodd" d="M40.3057 45.5745L43.4689 44.837C43.509 44.8277 43.551 44.8274 43.5912 44.8362L46.4084 45.4487C46.6685 45.5052 46.7335 45.8079 46.5149 45.9453L46.0984 46.2072C46.0933 46.2104 46.0884 46.2137 46.0835 46.2172L42.2342 48.9578L40.5128 50.2035C40.3895 50.2927 40.2285 50.3292 40.0722 50.3036L38.3726 50.0239C38.2001 49.9955 38.023 50.0431 37.8971 50.1515L37.3686 50.6066C37.1057 50.833 36.671 50.7671 36.5065 50.4758L36.2751 50.0659C36.2656 50.049 36.2571 50.0316 36.2499 50.0139L36.0719 49.5776C35.9693 49.3261 36.116 49.0485 36.3989 48.9587L37.4362 48.6292C37.567 48.5877 37.7109 48.5924 37.838 48.6425L38.6218 48.951C38.7584 49.0048 38.9139 49.0061 39.0515 48.9546L39.0693 48.9479C39.4055 48.8221 39.5087 48.4426 39.2746 48.1934L39.0731 47.979C38.9324 47.8292 38.9067 47.6188 39.0081 47.4458L39.9627 45.8178C40.0334 45.6973 40.158 45.609 40.3057 45.5745Z" fill="white" fill-opacity="0.1"/>
<path fill-rule="evenodd" clip-rule="evenodd" d="M32.6076 47.5675L33.7593 47.298C34.0741 47.2244 34.3908 47.4124 34.4352 47.6996L34.6001 48.7636C34.6336 48.9803 34.4994 49.1898 34.2728 49.2743L33.2966 49.6384C32.9922 49.7519 32.6452 49.599 32.5616 49.3147L32.2213 48.156C32.1456 47.8984 32.3184 47.6351 32.6076 47.5675Z" fill="white" fill-opacity="0.1"/>
<path d="M29.4566 63.3716C29.222 63.3716 29.0315 63.1818 29.0306 62.947L29.0265 61.6693C29.0257 61.434 29.2157 61.2428 29.451 61.2419C29.4515 61.2419 29.452 61.2419 29.452 61.2419C29.687 61.2419 29.8775 61.4317 29.8784 61.6665L29.8825 62.9442C29.8832 63.1795 29.6933 63.3707 29.458 63.3716C29.458 63.3716 29.457 63.3716 29.4566 63.3716ZM29.4484 60.816C29.2138 60.816 29.0233 60.6262 29.0225 60.3915L29.0183 59.1137C29.0177 58.8784 29.2076 58.6872 29.4429 58.6864C29.4429 58.6864 29.4438 58.6864 29.4443 58.6864C29.6789 58.6864 29.8693 58.8762 29.8702 59.1109L29.8743 60.3887C29.8752 60.624 29.6851 60.8152 29.4498 60.816C29.4494 60.816 29.4488 60.816 29.4484 60.816ZM29.4402 58.2604C29.2056 58.2604 29.0152 58.0706 29.0143 57.8359L29.0102 56.5581C29.0093 56.3228 29.1994 56.1316 29.4347 56.1308H29.4361C29.6707 56.1308 29.8612 56.3206 29.862 56.5553L29.8662 57.8331C29.8668 58.0684 29.6769 58.2595 29.4416 58.2604C29.4412 58.2604 29.4407 58.2604 29.4402 58.2604ZM29.432 55.7048C29.1974 55.7048 29.007 55.515 29.0061 55.2803L29.002 54.0025C29.0011 53.7672 29.1912 53.576 29.4265 53.5752H29.4279C29.6625 53.5752 29.853 53.765 29.8538 53.9997L29.858 55.2775C29.8588 55.5128 29.6687 55.704 29.4334 55.7048H29.432ZM29.4239 53.1493C29.1893 53.1493 28.9988 52.9595 28.9979 52.7247L28.9938 51.447C28.9931 51.2117 29.183 51.0205 29.4183 51.0196C29.4187 51.0196 29.4193 51.0196 29.4193 51.0196C29.6543 51.0196 29.8448 51.2094 29.8456 51.4442L29.8498 52.7219C29.8506 52.9572 29.6606 53.1484 29.4253 53.1493C29.4253 53.1493 29.4243 53.1493 29.4239 53.1493ZM29.4157 50.5937C29.1811 50.5937 28.9906 50.4039 28.9898 50.1692L28.9856 48.8915C28.9848 48.6562 29.1749 48.465 29.4102 48.4642C29.4102 48.4642 29.4111 48.4642 29.4115 48.4642C29.6462 48.4642 29.8366 48.654 29.8375 48.8887L29.8416 50.1664C29.8423 50.4017 29.6524 50.5929 29.4171 50.5937H29.4157ZM29.4075 48.0383C29.1729 48.0383 28.9825 47.8485 28.9816 47.6137L28.9775 46.336C28.9768 46.1007 29.1667 45.9095 29.402 45.9086H29.4034C29.638 45.9086 29.8285 46.0984 29.8293 46.3332L29.8335 47.6109C29.8343 47.8462 29.6442 48.0374 29.4089 48.0383C29.4085 48.0383 29.4079 48.0383 29.4075 48.0383ZM29.3992 45.4827C29.1646 45.4827 28.9739 45.2929 28.9733 45.0582L28.9692 43.7804C28.9686 43.5451 29.1586 43.3538 29.3938 43.3531H29.3952C29.6298 43.3531 29.8204 43.5429 29.8211 43.7776L29.8251 45.0554C29.8258 45.2907 29.6357 45.482 29.4006 45.4827C29.4 45.4827 29.3996 45.4827 29.3992 45.4827ZM29.391 42.9271C29.1564 42.9271 28.9658 42.7373 28.9651 42.5026L28.9611 41.2248C28.9604 40.9895 29.1505 40.7982 29.3856 40.7975C29.3862 40.7975 29.3866 40.7975 29.3866 40.7975C29.6216 40.7975 29.8122 40.9873 29.8129 41.222L29.817 42.4998C29.8176 42.7351 29.6276 42.9264 29.3924 42.9271H29.391ZM29.3828 40.3716C29.1482 40.3716 28.9576 40.1818 28.9569 39.947L28.9529 38.6693C28.9522 38.434 29.1422 38.2427 29.3774 38.2419C29.3774 38.2419 29.3784 38.2419 29.3788 38.2419C29.6134 38.2419 29.804 38.4317 29.8047 38.6665L29.8087 39.9443C29.8094 40.1795 29.6193 40.3709 29.3842 40.3716C29.3842 40.3716 29.3832 40.3716 29.3828 40.3716ZM29.3747 37.816C29.14 37.816 28.9494 37.6262 28.9487 37.3915L28.9447 36.1137C28.944 35.8784 29.1341 35.6871 29.3692 35.6864C29.3692 35.6864 29.3702 35.6864 29.3706 35.6864C29.6052 35.6864 29.7959 35.8762 29.7966 36.1109L29.8006 37.3887C29.8013 37.624 29.6112 37.8153 29.376 37.816C29.3755 37.816 29.3751 37.816 29.3747 37.816ZM29.3665 35.2604C29.1319 35.2604 28.9412 35.0707 28.9406 34.8359L28.9365 33.5581C28.9359 33.3228 29.1259 33.1315 29.3611 33.1308H29.3625C29.5971 33.1308 29.7877 33.3206 29.7884 33.5553L29.7924 34.8331C29.7931 35.0684 29.603 35.2597 29.3679 35.2604C29.3673 35.2604 29.3669 35.2604 29.3665 35.2604ZM29.3583 32.7049C29.1237 32.7049 28.9331 32.5151 28.9324 32.2804L28.9284 31.0026C28.9277 30.7673 29.1178 30.576 29.3529 30.5752C29.3534 30.5752 29.3539 30.5752 29.3539 30.5752C29.5889 30.5752 29.7795 30.765 29.7802 30.9998L29.7842 32.2776C29.7849 32.5128 29.5949 32.7042 29.3597 32.7049H29.3583ZM29.3501 30.1493C29.1155 30.1493 28.925 29.9595 28.9242 29.7248L28.92 28.447C28.9192 28.2117 29.1093 28.0205 29.3446 28.0197C29.345 28.0197 29.3455 28.0197 29.3455 28.0197C29.5805 28.0197 29.771 28.2095 29.7719 28.4442L29.776 29.722C29.7767 29.9573 29.5868 30.1485 29.3515 30.1493C29.3515 30.1493 29.3505 30.1493 29.3501 30.1493ZM29.3419 27.5938C29.1073 27.5938 28.9169 27.404 28.916 27.1692L28.9119 25.8914C28.9112 25.6562 29.1011 25.465 29.3364 25.4641C29.3364 25.4641 29.3374 25.4641 29.3378 25.4641C29.5724 25.4641 29.7629 25.6539 29.7637 25.8887L29.7679 27.1664C29.7687 27.4017 29.5786 27.5929 29.3433 27.5938C29.3429 27.5938 29.3424 27.5938 29.3419 27.5938ZM29.3338 25.0382C29.0992 25.0382 28.9087 24.8484 28.9078 24.6136L28.9037 23.3358C28.9028 23.1006 29.0929 22.9094 29.3282 22.9085H29.3296C29.5642 22.9085 29.7547 23.0983 29.7556 23.333L29.7597 24.6108C29.7604 24.8461 29.5705 25.0373 29.3352 25.0382C29.3347 25.0382 29.3341 25.0382 29.3338 25.0382ZM29.3256 22.4826C29.091 22.4826 28.9005 22.2928 28.8996 22.0581L28.8955 20.7803C28.8946 20.545 29.0847 20.3538 29.32 20.3529H29.3214C29.556 20.3529 29.7465 20.5427 29.7473 20.7775L29.7515 22.0553C29.7523 22.2905 29.5622 22.4817 29.327 22.4826H29.3256ZM29.3174 19.9271C29.0828 19.9271 28.8923 19.7374 28.8915 19.5026L28.8887 18.6505C28.888 18.4152 29.0779 18.224 29.3132 18.2231C29.3136 18.2231 29.3142 18.2231 29.3142 18.2231C29.5492 18.2231 29.7397 18.4129 29.7405 18.6477L29.7433 19.4998C29.7442 19.7351 29.5541 19.9263 29.3188 19.9271C29.3188 19.9271 29.3178 19.9271 29.3174 19.9271Z" fill="url(#paint2_linear_139_1176)"/>
<path d="M60.5493 76.0074C60.3167 76.0074 60.1268 75.8207 60.1235 75.5875L60.1056 74.3098C60.1024 74.0747 60.2904 73.8813 60.5255 73.8779C60.5276 73.8779 60.5296 73.8779 60.5316 73.8779C60.764 73.8779 60.9541 74.0647 60.9574 74.2979L60.9753 75.5755C60.9785 75.8107 60.7905 76.0041 60.5554 76.0074C60.5533 76.0074 60.5514 76.0074 60.5493 76.0074ZM60.5137 73.4522C60.2812 73.4522 60.0912 73.2654 60.0879 73.0322L60.07 71.7545C60.0668 71.5194 60.2548 71.326 60.49 71.3227C60.7266 71.3189 60.9185 71.5073 60.9218 71.7426L60.9397 73.0203C60.9429 73.2554 60.7549 73.4488 60.5198 73.4522C60.5177 73.4522 60.5158 73.4522 60.5137 73.4522ZM60.4779 70.8969C60.2454 70.8969 60.0554 70.7101 60.0521 70.4769L60.0342 69.1991C60.031 68.964 60.219 68.7706 60.4542 68.7672C60.4562 68.7672 60.4582 68.7672 60.4602 68.7672C60.6926 68.7672 60.8827 68.954 60.886 69.1872L60.9039 70.465C60.9071 70.7001 60.7191 70.8935 60.484 70.8969C60.4819 70.8969 60.48 70.8969 60.4779 70.8969ZM60.4423 68.3414C60.2097 68.3414 60.0198 68.1547 60.0165 67.9215L59.9986 66.6438C59.9954 66.4086 60.1834 66.2153 60.4185 66.2119C60.4206 66.2119 60.4225 66.2119 60.4246 66.2119C60.6571 66.2119 60.8471 66.3987 60.8504 66.6319L60.8683 67.9095C60.8715 68.1447 60.6835 68.3381 60.4484 68.3414C60.4463 68.3414 60.4443 68.3414 60.4423 68.3414ZM60.4065 65.7861C60.174 65.7861 59.984 65.5994 59.9807 65.3662L59.963 64.0885C59.9598 63.8532 60.1478 63.66 60.3829 63.6566C60.385 63.6566 60.387 63.6566 60.389 63.6566C60.6216 63.6566 60.8115 63.8434 60.8148 64.0766L60.8326 65.3543C60.8357 65.5895 60.6478 65.7828 60.4126 65.7861C60.4105 65.7861 60.4086 65.7861 60.4065 65.7861ZM60.3709 63.2308C60.1385 63.2308 59.9484 63.0441 59.9451 62.8109L59.9272 61.5332C59.924 61.2981 60.112 61.1047 60.3471 61.1013C60.5783 61.1029 60.7757 61.286 60.779 61.5213L60.7969 62.7989C60.8001 63.0341 60.6121 63.2275 60.377 63.2308C60.3749 63.2308 60.3729 63.2308 60.3709 63.2308ZM60.3352 60.6756C60.1027 60.6756 59.9128 60.4888 59.9094 60.2556L59.8915 58.978C59.8884 58.7428 60.0763 58.5494 60.3115 58.5461C60.5469 58.538 60.7399 58.7307 60.7434 58.966L60.7613 60.2437C60.7645 60.4788 60.5765 60.6722 60.3413 60.6756C60.3393 60.6756 60.3373 60.6756 60.3352 60.6756ZM60.2995 58.1203C60.0669 58.1203 59.877 57.9335 59.8737 57.7003L59.8558 56.4225C59.8526 56.1874 60.0406 55.994 60.2757 55.9906C60.5157 55.9887 60.7043 56.1753 60.7076 56.4106L60.7255 57.6884C60.7287 57.9235 60.5407 58.1169 60.3056 58.1203C60.3035 58.1203 60.3016 58.1203 60.2995 58.1203ZM60.2638 55.5648C60.0314 55.5648 59.8414 55.3781 59.838 55.1449L59.8201 53.8672C59.8169 53.6321 60.0049 53.4387 60.2401 53.4353C60.2421 53.4353 60.2441 53.4353 60.2462 53.4353C60.4787 53.4353 60.6686 53.6221 60.672 53.8553L60.6899 55.1329C60.693 55.3681 60.5051 55.5615 60.2699 55.5648C60.2678 55.5648 60.2659 55.5648 60.2638 55.5648ZM60.2281 53.0096C59.9956 53.0096 59.8056 52.8228 59.8022 52.5896L59.7845 51.3119C59.7813 51.0767 59.9693 50.8834 60.2045 50.88C60.4376 50.8746 60.6329 51.0647 60.6364 51.3L60.6541 52.5777C60.6573 52.813 60.4693 53.0062 60.2341 53.0096C60.2321 53.0096 60.2301 53.0096 60.2281 53.0096ZM60.1924 50.4542C59.9601 50.4542 59.77 50.2675 59.7666 50.0343L59.7487 48.7566C59.7455 48.5215 59.9335 48.3281 60.1687 48.3247C60.1707 48.3247 60.1727 48.3247 60.1748 48.3247C60.4071 48.3247 60.5972 48.5115 60.6006 48.7447L60.6184 50.0224C60.6216 50.2575 60.4336 50.4509 60.1985 50.4542C60.1964 50.4542 60.1945 50.4542 60.1924 50.4542ZM60.1568 47.899C59.9242 47.899 59.7343 47.7122 59.731 47.479L59.7131 46.2014C59.7099 45.9662 59.8979 45.7728 60.133 45.7695C60.1351 45.7695 60.1371 45.7695 60.1391 45.7695C60.3717 45.7695 60.5616 45.9562 60.5649 46.1894L60.5828 47.4671C60.586 47.7022 60.398 47.8956 60.1629 47.899C60.1608 47.899 60.1589 47.899 60.1568 47.899ZM60.121 45.3437C59.8885 45.3437 59.6986 45.1569 59.6952 44.9237L59.6773 43.6461C59.6742 43.4109 59.8621 43.2175 60.0973 43.2142C60.328 43.2112 60.5258 43.3988 60.5292 43.6341L60.5471 44.9118C60.5503 45.1469 60.3623 45.3403 60.1271 45.3437C60.125 45.3437 60.1231 45.3437 60.121 45.3437ZM60.0854 42.7882C59.8529 42.7882 59.6629 42.6015 59.6596 42.3683L59.6417 41.0906C59.6385 40.8555 59.8265 40.6621 60.0617 40.6587C60.0637 40.6587 60.0657 40.6587 60.0678 40.6587C60.3001 40.6587 60.4902 40.8455 60.4935 41.0787L60.5115 42.3563C60.5146 42.5915 60.3266 42.7849 60.0915 42.7882C60.0894 42.7882 60.0875 42.7882 60.0854 42.7882ZM60.0496 40.233C59.8171 40.233 59.6271 40.0462 59.6238 39.813L59.6061 38.5353C59.6029 38.3001 59.7909 38.1068 60.026 38.1035C60.2655 38.0971 60.4546 38.2881 60.4579 38.5234L60.4756 39.8011C60.4788 40.0364 60.2909 40.2296 60.0557 40.233C60.0536 40.233 60.0517 40.233 60.0496 40.233ZM60.014 37.6777C59.7815 37.6777 59.5916 37.4909 59.5882 37.2577L59.5703 35.98C59.5671 35.7449 59.7551 35.5515 59.9903 35.5481C59.9923 35.5481 59.9943 35.5481 59.9964 35.5481C60.2289 35.5481 60.4188 35.7349 60.4222 35.9681L60.4401 37.2458C60.4432 37.4809 60.2553 37.6743 60.0201 37.6777C60.018 37.6777 60.0161 37.6777 60.014 37.6777ZM59.9783 35.1223C59.746 35.1223 59.5559 34.9356 59.5525 34.7024L59.5346 33.4247C59.5315 33.1896 59.7194 32.9962 59.9546 32.9928C59.9567 32.9928 59.9586 32.9928 59.9607 32.9928C60.1932 32.9928 60.3831 33.1796 60.3865 33.4128L60.4044 34.6904C60.4076 34.9256 60.2196 35.119 59.9844 35.1223C59.9824 35.1223 59.9805 35.1223 59.9783 35.1223ZM59.9426 32.5671C59.7102 32.5671 59.5201 32.3803 59.5168 32.1471L59.4989 30.8695C59.4957 30.6343 59.6837 30.4409 59.9188 30.4376C60.1559 30.4337 60.3474 30.6222 60.3507 30.8575L60.3686 32.1352C60.3718 32.3703 60.1838 32.5637 59.9487 32.5671C59.9466 32.5671 59.9447 32.5671 59.9426 32.5671ZM59.9069 30.0118C59.6746 30.0118 59.4845 29.825 59.4811 29.5918L59.4633 28.314C59.4601 28.0789 59.6481 27.8855 59.8832 27.8821C60.117 27.8823 60.3117 28.0668 60.3151 28.3021L60.333 29.5799C60.3362 29.815 60.1482 30.0084 59.9131 30.0118C59.911 30.0118 59.909 30.0118 59.9069 30.0118ZM59.8712 27.4564C59.6387 27.4564 59.4487 27.2696 59.4454 27.0364L59.4277 25.7588C59.4245 25.5235 59.6125 25.3302 59.8476 25.3269C60.0778 25.3195 60.2762 25.5115 60.2795 25.7468L60.2972 27.0245C60.3004 27.2598 60.1124 27.453 59.8773 27.4564C59.8752 27.4564 59.8733 27.4564 59.8712 27.4564Z" fill="url(#paint3_linear_139_1176)"/>
<path d="M93.4879 73.5941C93.4879 73.5941 93.487 73.5941 93.4866 73.5941C93.2513 73.5933 93.0612 73.402 93.062 73.1668L93.0663 71.889C93.0672 71.6543 93.2576 71.4645 93.4923 71.4645C93.4927 71.4645 93.4932 71.4645 93.4932 71.4645C93.7289 71.4653 93.919 71.6567 93.9182 71.8918L93.9139 73.1696C93.913 73.4043 93.7226 73.5941 93.4879 73.5941ZM93.4964 71.0386C93.4964 71.0386 93.4954 71.0386 93.495 71.0386C93.2597 71.0377 93.0696 70.8464 93.0705 70.6112L93.0748 69.3335C93.0756 69.0987 93.2661 68.9089 93.5007 68.9089C93.5012 68.9089 93.5017 68.9089 93.5017 68.9089C93.7374 68.9098 93.9275 69.1011 93.9267 69.3362L93.9223 70.614C93.9215 70.8488 93.731 71.0386 93.4964 71.0386ZM93.5049 68.483C93.5049 68.483 93.5039 68.483 93.5035 68.483C93.2682 68.4822 93.0781 68.2908 93.0789 68.0557L93.0833 66.7779C93.0841 66.5432 93.2746 66.3534 93.5092 66.3534C93.5096 66.3534 93.5102 66.3534 93.5102 66.3534C93.7459 66.3542 93.936 66.5455 93.9351 66.7807L93.9308 68.0585C93.93 68.2932 93.7395 68.483 93.5049 68.483ZM93.5135 65.9274C93.5135 65.9274 93.5125 65.9274 93.5121 65.9274C93.2768 65.9266 93.0867 65.7354 93.0875 65.5001L93.0917 64.2223C93.0925 63.9876 93.283 63.7978 93.5176 63.7978C93.518 63.7978 93.5186 63.7978 93.5186 63.7978C93.7543 63.7986 93.9443 63.9898 93.9435 64.2251L93.9394 65.5029C93.9386 65.7376 93.7481 65.9274 93.5135 65.9274ZM93.5219 63.3719C93.5219 63.3719 93.521 63.3719 93.5205 63.3719C93.2852 63.371 93.0952 63.1797 93.096 62.9445L93.1003 61.6668C93.1011 61.432 93.2916 61.2422 93.5262 61.2422C93.5266 61.2422 93.5272 61.2422 93.5272 61.2422C93.7629 61.2431 93.953 61.4344 93.9521 61.6696L93.9478 62.9473C93.947 63.182 93.7565 63.3719 93.5219 63.3719ZM93.5304 60.8164C93.5304 60.8164 93.5294 60.8164 93.529 60.8164C93.2937 60.8156 93.1036 60.6243 93.1045 60.3891L93.1088 59.1113C93.1096 58.8766 93.3001 58.6868 93.5347 58.6868C93.5351 58.6868 93.5357 58.6868 93.5357 58.6868C93.7714 58.6876 93.9615 58.879 93.9606 59.1141L93.9563 60.3919C93.9555 60.6266 93.765 60.8164 93.5304 60.8164ZM93.5389 58.2609H93.5375C93.3022 58.26 93.1121 58.0687 93.1129 57.8335L93.1172 56.5558C93.1181 56.321 93.3085 56.1312 93.5431 56.1312H93.5445C93.7798 56.1321 93.9699 56.3234 93.9691 56.5586L93.9647 57.8363C93.9639 58.0711 93.7734 58.2609 93.5389 58.2609ZM93.5474 55.7053C93.5474 55.7053 93.5465 55.7053 93.546 55.7053C93.3108 55.7045 93.1207 55.5133 93.1215 55.278L93.1257 54.0002C93.1265 53.7655 93.317 53.5757 93.5516 53.5757H93.553C93.7883 53.5765 93.9784 53.7677 93.9775 54.003L93.9734 55.2808C93.9725 55.5155 93.782 55.7053 93.5474 55.7053ZM93.5559 53.1497H93.5545C93.3192 53.1489 93.1291 52.9576 93.13 52.7224L93.1343 51.4446C93.1351 51.2099 93.3256 51.0201 93.5602 51.0201C93.5607 51.0201 93.5612 51.0201 93.5612 51.0201C93.7969 51.021 93.987 51.2123 93.9862 51.4474L93.9818 52.7252C93.981 52.9599 93.7905 53.1497 93.5559 53.1497ZM93.5643 50.5941H93.5629C93.3276 50.5933 93.1376 50.402 93.1384 50.1668L93.1427 48.889C93.1436 48.6543 93.334 48.4645 93.5686 48.4645H93.57C93.8053 48.4654 93.9954 48.6567 93.9946 48.8918L93.9903 50.1696C93.9894 50.4043 93.7989 50.5941 93.5643 50.5941ZM93.5728 48.0386H93.5714C93.3361 48.0377 93.146 47.8464 93.1469 47.6113L93.1511 46.3335C93.152 46.0987 93.3425 45.9089 93.5771 45.9089H93.5785C93.8137 45.9098 94.0038 46.1011 94.003 46.3363L93.9987 47.614C93.9979 47.8488 93.8074 48.0386 93.5728 48.0386ZM93.5814 45.483H93.58C93.3447 45.4822 93.1548 45.291 93.1555 45.0557L93.1596 43.7779C93.1605 43.5432 93.351 43.3534 93.5856 43.3534H93.587C93.8223 43.3542 94.0123 43.5454 94.0115 43.7807L94.0074 45.0585C94.0065 45.2932 93.816 45.483 93.5814 45.483ZM93.5898 42.9274H93.5885C93.3532 42.9266 93.1631 42.7354 93.1639 42.5001L93.1681 41.2223C93.1689 40.9876 93.3594 40.7978 93.594 40.7978H93.5954C93.8307 40.7987 94.0206 40.9899 94.0199 41.2251L94.0158 42.5029C94.015 42.7377 93.8245 42.9274 93.5898 42.9274ZM93.5983 40.3719H93.5969C93.3616 40.371 93.1715 40.1797 93.1724 39.9446L93.1767 38.6668C93.1776 38.432 93.368 38.2422 93.6026 38.2422H93.604C93.8393 38.2431 94.0294 38.4344 94.0286 38.6696L94.0243 39.9474C94.0234 40.1821 93.8329 40.3719 93.5983 40.3719ZM93.6068 37.8163H93.6054C93.3701 37.8155 93.18 37.6242 93.1808 37.389L93.1852 36.1112C93.186 35.8765 93.3765 35.6867 93.6111 35.6867H93.6125C93.8478 35.6875 94.0379 35.8788 94.037 36.114L94.0327 37.3918C94.0319 37.6265 93.8414 37.8163 93.6068 37.8163ZM93.6154 35.2608H93.614C93.3787 35.2599 93.1886 35.0687 93.1894 34.8334L93.1936 33.5556C93.1944 33.3209 93.3849 33.1311 93.6195 33.1311H93.6209C93.8562 33.132 94.0462 33.3232 94.0454 33.5584L94.0413 34.8362C94.0405 35.0709 93.85 35.2608 93.6154 35.2608ZM93.6238 32.7053H93.6224C93.3871 32.7045 93.1972 32.5133 93.1979 32.278L93.202 31.0002C93.2029 30.7655 93.3934 30.5757 93.628 30.5757H93.6294C93.8647 30.5765 94.0548 30.7677 94.0539 31.003L94.0498 32.2808C94.0489 32.5155 93.8584 32.7053 93.6238 32.7053Z" fill="url(#paint4_linear_139_1176)"/>
<path d="M29.7223 60.6619C32.7884 60.6619 35.274 58.1763 35.274 55.1103C35.274 52.0442 32.7884 49.5586 29.7223 49.5586C26.6562 49.5586 24.1707 52.0442 24.1707 55.1103C24.1707 58.1763 26.6562 60.6619 29.7223 60.6619Z" fill="url(#paint5_linear_139_1176)"/>
<path d="M35.2637 54.8125H29.7222H24.1705C24.1705 54.8125 23.7286 57.8939 28.6833 66.334C28.8995 66.7022 29.2945 66.9223 29.7215 66.9225C30.1485 66.9227 30.5442 66.7063 30.7604 66.338C35.7147 57.8972 35.2637 54.8125 35.2637 54.8125Z" fill="url(#paint6_linear_139_1176)"/>
<path d="M29.7202 67.1026V67.1338H29.7219C29.2387 67.1338 28.7877 66.868 28.5448 66.4543C25.6486 61.5209 24.5874 58.4014 24.2072 56.6559C24.0988 56.2544 24.0365 55.8608 24.0168 55.4572C23.9833 55.0444 24.009 54.8704 24.012 54.852L24.0266 54.7632C24.2503 51.781 26.7322 49.4602 29.7227 49.4602C32.7524 49.4602 35.2568 51.814 35.4261 54.8199C35.4303 54.8592 35.4384 54.959 35.4353 55.1259L35.4355 55.1464C35.4355 55.6917 35.3584 56.2318 35.2065 56.7517C34.8133 58.4957 33.7455 61.5843 30.8986 66.4346C30.6543 66.851 30.2197 67.1026 29.7202 67.1026ZM24.3225 55.0623C24.3212 55.1455 24.3238 55.2644 24.3384 55.4434L24.3387 55.4428C24.3572 55.8251 24.4162 56.1932 24.5194 56.5743L24.5213 56.5807C24.8958 58.3025 25.946 61.3829 28.8228 66.2833C29.008 66.5987 29.3514 66.7945 29.7208 66.7946L29.7202 66.9554V66.7942C30.0532 66.7942 30.4339 66.5966 30.6206 66.2785C33.4492 61.4593 34.5053 58.3966 34.8926 56.6759L34.8954 56.6659C35.0397 56.1739 35.0807 55.6627 35.0807 55.1463L35.0483 55.1237V55.1218C35.0483 54.9611 35.0756 54.8742 35.073 54.8514L35.0883 54.8421C34.9307 52.0048 32.5748 49.7823 29.7146 49.7823C26.8599 49.7823 24.5002 52.0362 24.3375 54.8983L24.3329 55.0622H24.3225V55.0623Z" fill="#91B3FA"/>
<path d="M32.0064 57.3588C33.2583 56.1069 33.2582 54.0773 32.0064 52.8254C30.7545 51.5735 28.7248 51.5735 27.473 52.8254C26.2211 54.0772 26.2211 56.1069 27.473 57.3588C28.7249 58.6106 30.7546 58.6106 32.0064 57.3588Z" fill="white" fill-opacity="0.1"/>
<path d="M29.7403 58.4769C27.874 58.4769 26.3556 56.9586 26.3556 55.0923C26.3556 53.2259 27.8739 51.7075 29.7403 51.7075C31.6067 51.7075 33.1251 53.2259 33.1251 55.0923C33.125 56.9585 31.6067 58.4769 29.7403 58.4769ZM29.7403 52.0657C28.0715 52.0657 26.7138 53.4234 26.7138 55.0923C26.7138 56.7611 28.0715 58.1188 29.7403 58.1188C31.4092 58.1188 32.7669 56.7611 32.7669 55.0923C32.7669 53.4234 31.4092 52.0657 29.7403 52.0657Z" fill="#91B3FA"/>
<path d="M26.6995 51.7548C26.6844 51.7548 26.6694 51.7484 26.6587 51.736C26.6394 51.7135 26.642 51.6796 26.6645 51.6603C27.565 50.8869 28.7156 50.4609 29.9042 50.4609C29.9339 50.4609 29.9579 50.485 29.9579 50.5146C29.9579 50.5443 29.9339 50.5684 29.9042 50.5684C28.7412 50.5684 27.6155 50.9851 26.7345 51.7418C26.7244 51.7505 26.7119 51.7548 26.6995 51.7548Z" fill="white" fill-opacity="0.1"/>
<path d="M24.9829 55.4894C24.9532 55.4894 24.9292 55.4654 24.9292 55.4357C24.9292 54.5075 25.1865 53.6019 25.6734 52.8169C25.6891 52.7917 25.7222 52.784 25.7474 52.7996C25.7726 52.8152 25.7804 52.8484 25.7648 52.8735C25.2884 53.6414 25.0366 54.5274 25.0366 55.4357C25.0366 55.4654 25.0126 55.4894 24.9829 55.4894Z" fill="white" fill-opacity="0.1"/>
<path d="M60.9397 75.6985C64.0058 75.6985 66.4914 73.213 66.4914 70.1469C66.4914 67.0808 64.0058 64.5952 60.9397 64.5952C57.8736 64.5952 55.3881 67.0808 55.3881 70.1469C55.3881 73.213 57.8736 75.6985 60.9397 75.6985Z" fill="url(#paint7_linear_139_1176)"/>
<path d="M66.4811 69.8494H60.9396H55.3879C55.3879 69.8494 54.946 72.9308 59.9007 81.3709C60.1169 81.7391 60.5119 81.9592 60.9389 81.9593C61.3659 81.9595 61.7616 81.7432 61.9778 81.3749C66.9321 72.9341 66.4811 69.8494 66.4811 69.8494Z" fill="url(#paint8_linear_139_1176)"/>
<path d="M60.9372 82.1392V82.1705H60.9389C60.4556 82.1705 60.0046 81.9046 59.7618 81.491C56.8655 76.5574 55.8043 73.438 55.4241 71.6925C55.3157 71.291 55.2534 70.8973 55.2338 70.4938C55.2002 70.081 55.2259 69.9071 55.2289 69.8886L55.2435 69.7998C55.4672 66.8177 57.9492 64.4968 60.9396 64.4968C63.9693 64.4968 66.4737 66.8506 66.643 69.8565C66.6472 69.8958 66.6553 69.9956 66.6522 70.1625L66.6524 70.183C66.6524 70.7283 66.5754 71.2684 66.4234 71.7883C66.0302 73.5323 64.9624 76.621 62.1155 81.4712C61.8712 81.8876 61.4367 82.1392 60.9372 82.1392ZM55.5395 70.0989C55.5382 70.1822 55.5407 70.301 55.5553 70.48L55.5557 70.4794C55.5742 70.8617 55.6332 71.2298 55.7364 71.6109L55.7383 71.6173C56.1128 73.3391 57.163 76.4195 60.0398 81.3199C60.225 81.6354 60.5684 81.8311 60.9378 81.8313L60.9372 81.9921V81.8309C61.2702 81.8309 61.6509 81.6333 61.8376 81.3151C64.6662 76.4959 65.7222 73.4332 66.1095 71.7125L66.1124 71.7026C66.2567 71.2106 66.2977 70.6993 66.2977 70.183L66.2653 70.1603V70.1585C66.2653 69.9978 66.2925 69.9109 66.2899 69.8881L66.3053 69.8788C66.1477 67.0415 63.7918 64.819 60.9316 64.819C58.0768 64.819 55.7172 67.0729 55.5544 69.935L55.5498 70.0989H55.5395Z" fill="#91B3FA"/>
<path d="M63.2231 72.3956C64.4749 71.1438 64.4749 69.1141 63.2231 67.8622C61.9712 66.6104 59.9415 66.6104 58.6897 67.8622C57.4378 69.1141 57.4378 71.1437 58.6897 72.3956C59.9416 73.6475 61.9712 73.6475 63.2231 72.3956Z" fill="white" fill-opacity="0.1"/>
<path d="M60.9577 73.5136C59.0914 73.5136 57.573 71.9952 57.573 70.1289C57.573 68.2625 59.0914 66.7441 60.9577 66.7441C62.8241 66.7441 64.3425 68.2625 64.3425 70.1289C64.3425 71.9952 62.8241 73.5136 60.9577 73.5136ZM60.9577 67.1024C59.2889 67.1024 57.9312 68.4601 57.9312 70.1289C57.9312 71.7978 59.2889 73.1555 60.9577 73.1555C62.6266 73.1555 63.9843 71.7978 63.9843 70.1289C63.9843 68.4601 62.6266 67.1024 60.9577 67.1024Z" fill="#91B3FA"/>
<path d="M57.9166 66.7914C57.9015 66.7914 57.8864 66.785 57.8758 66.7726C57.8564 66.7501 57.859 66.7162 57.8815 66.6969C58.782 65.9235 59.9326 65.4976 61.1212 65.4976C61.1509 65.4976 61.1749 65.5216 61.1749 65.5513C61.1749 65.581 61.1509 65.605 61.1212 65.605C59.9583 65.605 58.8326 66.0218 57.9515 66.7784C57.9414 66.7871 57.929 66.7914 57.9166 66.7914Z" fill="white" fill-opacity="0.1"/>
<path d="M56.2003 70.5263C56.1706 70.5263 56.1466 70.5023 56.1466 70.4726C56.1466 69.5443 56.4039 68.6387 56.8908 67.8538C56.9065 67.8286 56.9396 67.8208 56.9648 67.8365C56.99 67.8521 56.9978 67.8852 56.9822 67.9104C56.5058 68.6783 56.254 69.5643 56.254 70.4726C56.254 70.5023 56.23 70.5263 56.2003 70.5263Z" fill="white" fill-opacity="0.1"/>
<path d="M77.7634 27.2571C77.7634 35.4804 84.6819 42.1468 93.2161 42.1468C101.75 42.1468 109.051 35.1891 109.051 26.9658C109.051 18.7425 101.75 12.3674 93.2161 12.3674C84.6818 12.3674 77.7634 19.0337 77.7634 27.2571Z" fill="url(#paint9_linear_139_1176)"/>
<path d="M107.838 23.6367C107.847 23.6367 107.857 23.6357 107.866 23.6334C107.923 23.6187 107.957 23.5624 107.941 23.5074C107.775 22.9058 107.563 22.3089 107.31 21.7336C107.287 21.6814 107.224 21.6575 107.17 21.679C107.116 21.7013 107.091 21.7615 107.114 21.814C107.362 22.3802 107.572 22.9678 107.735 23.5604C107.748 23.6064 107.791 23.6367 107.838 23.6367Z" fill="#91B3FA"/>
<path d="M105.477 18.9838C105.499 18.9838 105.522 18.977 105.541 18.9631C105.588 18.929 105.597 18.8643 105.562 18.8192C102.699 15.1609 98.0871 12.9771 93.2255 12.9771C91.1493 12.9771 89.141 13.3827 87.2568 14.1823C87.2029 14.2052 87.1784 14.2661 87.2022 14.3179C87.2259 14.3699 87.2889 14.3934 87.3429 14.3707C89.1998 13.5823 91.1791 13.1827 93.2255 13.1827C98.0205 13.1827 102.568 15.336 105.391 18.9429C105.412 18.9698 105.444 18.9838 105.477 18.9838Z" fill="#91B3FA"/>
<path d="M79.8655 27.257C79.8655 34.3752 85.8542 40.1457 93.2415 40.1457C100.629 40.1457 106.948 34.1231 106.948 27.0049C106.948 19.8867 100.629 14.3684 93.2415 14.3684C85.8542 14.3684 79.8655 20.1388 79.8655 27.257Z" fill="url(#paint10_linear_139_1176)"/>
<path d="M79.8658 27.2571C79.8658 20.1389 85.8545 14.3684 93.2419 14.3684C97.2421 14.3684 100.929 15.9871 103.469 18.6011L93.1649 26.8621L91.0467 39.9719C84.7038 38.9627 79.8658 33.6547 79.8658 27.2571Z" fill="url(#paint11_linear_139_1176)"/>
<path opacity="0.22" d="M81.6862 26.3612C81.6862 32.7853 87.2031 37.993 94.0086 37.993C100.814 37.993 106.636 32.5578 106.636 26.1337C106.636 19.7096 100.814 14.7295 94.0086 14.7295C87.2031 14.7295 81.6862 19.9372 81.6862 26.3612Z" fill="url(#paint12_linear_139_1176)" fill-opacity="0.1"/>
<path opacity="0.78" d="M103.53 26.5885C103.564 27.1356 104.051 27.5533 104.618 27.5215C105.186 27.4896 105.62 27.0203 105.587 26.4733C105.554 25.9262 105.066 25.5085 104.499 25.5403C103.931 25.5721 103.497 26.0414 103.53 26.5885Z" fill="white" fill-opacity="0.1"/>
<path opacity="0.78" d="M81.282 27.8361C81.3151 28.3832 81.8022 28.8009 82.3699 28.7691C82.9378 28.7372 83.3713 28.2679 83.3382 27.7208C83.3052 27.1737 82.8181 26.756 82.2503 26.7878C81.6825 26.8197 81.249 27.289 81.282 27.8361Z" fill="white" fill-opacity="0.1"/>
<path opacity="0.78" d="M95.2512 36.7412C94.6917 36.8396 94.321 37.3565 94.4232 37.8956C94.5254 38.4347 95.0618 38.7919 95.6213 38.6935C96.1808 38.595 96.5515 38.0781 96.4493 37.539C96.3471 36.9999 95.8107 36.6427 95.2512 36.7412Z" fill="white" fill-opacity="0.1"/>
<path opacity="0.78" d="M91.2469 15.6167C90.6874 15.7151 90.3167 16.232 90.4189 16.7711C90.5211 17.3102 91.0575 17.6674 91.617 17.5689C92.1765 17.4705 92.5472 16.9536 92.445 16.4145C92.3428 15.8754 91.8064 15.5182 91.2469 15.6167Z" fill="white" fill-opacity="0.1"/>
<path opacity="0.78" d="M87.9299 37.3081C87.8252 37.5626 87.8514 37.8008 87.9883 37.8402C88.1252 37.8796 88.321 37.7054 88.4257 37.451C88.5303 37.1966 88.5042 36.9583 88.3673 36.9189C88.2304 36.8795 88.0345 37.0537 87.9299 37.3081Z" fill="white" fill-opacity="0.1"/>
<path opacity="0.78" d="M96.8805 17.2713C96.7759 17.5257 96.8021 17.7639 96.939 17.8033C97.0759 17.8428 97.2717 17.6685 97.3763 17.4141C97.481 17.1597 97.4548 16.9215 97.318 16.882C97.1811 16.8426 96.9852 17.0169 96.8805 17.2713Z" fill="white" fill-opacity="0.1"/>
<path opacity="0.78" d="M83.2566 33.4993C83.03 33.6644 82.924 33.8811 83.0198 33.9833C83.1155 34.0855 83.3768 34.0345 83.6033 33.8695C83.8298 33.7044 83.9358 33.4877 83.8401 33.3855C83.7444 33.2833 83.4831 33.3342 83.2566 33.4993Z" fill="white" fill-opacity="0.1"/>
<path opacity="0.78" d="M101.703 20.853C101.477 21.0181 101.371 21.2348 101.466 21.337C101.562 21.4392 101.823 21.3883 102.05 21.2232C102.276 21.0581 102.382 20.8414 102.287 20.7392C102.191 20.637 101.93 20.688 101.703 20.853Z" fill="white" fill-opacity="0.1"/>
<path opacity="0.78" d="M82.6698 22.1541C82.4134 22.0364 82.165 22.0456 82.1149 22.1746C82.0649 22.3036 82.2322 22.5035 82.4886 22.6212C82.7451 22.7388 82.9935 22.7297 83.0435 22.6007C83.0935 22.4717 82.9262 22.2718 82.6698 22.1541Z" fill="white" fill-opacity="0.1"/>
<path opacity="0.78" d="M102.818 32.1011C102.561 31.9835 102.313 31.9927 102.263 32.1216C102.213 32.2506 102.38 32.4506 102.637 32.5682C102.893 32.6859 103.141 32.6767 103.191 32.5477C103.242 32.4187 103.074 32.2188 102.818 32.1011Z" fill="white" fill-opacity="0.1"/>
<path opacity="0.78" d="M86.9268 17.9164C86.7711 17.6876 86.5538 17.5711 86.4415 17.6563C86.3292 17.7415 86.3645 17.9961 86.5202 18.225C86.676 18.4538 86.8933 18.5703 87.0055 18.485C87.1178 18.3999 87.0825 18.1453 86.9268 17.9164Z" fill="white" fill-opacity="0.1"/>
<path opacity="0.78" d="M98.7863 36.4974C98.6306 36.2686 98.4133 36.1522 98.301 36.2374C98.1887 36.3226 98.224 36.5771 98.3798 36.806C98.5355 37.0349 98.7528 37.1513 98.8651 37.0661C98.9774 36.9809 98.9421 36.7263 98.7863 36.4974Z" fill="white" fill-opacity="0.1"/>
<path d="M93.6583 26.8577L101.931 30.8333C102.091 30.9103 102.279 30.7946 102.273 30.6222L102.241 29.596C102.235 29.3965 102.479 29.2858 102.634 29.4179L108.616 34.4924C108.799 34.6477 108.648 34.9359 108.41 34.8868L100.706 33.3018C100.522 33.2639 100.455 33.0437 100.589 32.9162L101.491 32.0592C101.602 31.9533 101.579 31.7742 101.443 31.6989L93.4346 27.2598C93.323 27.1979 93.2831 27.0616 93.3447 26.9528C93.4057 26.8449 93.5443 26.803 93.6583 26.8577Z" fill="url(#paint13_linear_139_1176)"/>
<path opacity="0.7" d="M107.686 34.4688C107.762 34.4688 107.832 34.4275 107.867 34.3578C107.909 34.2744 107.888 34.1791 107.813 34.12L106.505 33.0774C106.459 33.0412 106.392 33.0475 106.354 33.0912C106.317 33.135 106.323 33.1997 106.369 33.236L107.678 34.2787C105.934 33.8949 101.849 33.0372 101.764 33.029C101.707 33.0226 101.653 33.0641 101.647 33.1208C101.641 33.1766 101.683 33.2264 101.74 33.2332C101.862 33.2521 104.993 33.9076 107.64 34.464C107.655 34.4672 107.671 34.4688 107.686 34.4688Z" fill="white" fill-opacity="0.1"/>
<path d="M92.6038 26.4926L92.6183 19.6212C92.6159 19.469 92.4458 19.3745 92.3079 19.4486L91.4874 19.8892C91.3278 19.9749 91.139 19.8357 91.1832 19.6648L92.8801 13.095C92.932 12.894 93.2272 12.8906 93.284 13.0904L95.1207 19.5442C95.1646 19.6986 95.0128 19.8383 94.8547 19.7887L93.7927 19.456C93.6614 19.4148 93.5257 19.5056 93.5196 19.6384L93.0211 26.4985C93.0161 26.6077 92.9216 26.693 92.8081 26.6908C92.6958 26.6884 92.6055 26.6009 92.6038 26.4926Z" fill="url(#paint14_linear_139_1176)"/>
<path opacity="0.7" d="M94.5572 18.9142C94.5687 18.9142 94.5803 18.9123 94.5916 18.908C94.6393 18.89 94.6632 18.8385 94.6455 18.7922C94.6113 18.6927 93.8743 16.0655 93.2526 13.8425C93.2305 13.7639 93.1611 13.7122 93.0743 13.7142C92.9896 13.7163 92.9207 13.7713 92.9028 13.8512L92.5866 15.2614C92.5757 15.3103 92.6079 15.3586 92.6587 15.369C92.709 15.3798 92.7594 15.3487 92.7705 15.2996L93.0868 13.8894C93.4823 15.3607 94.4422 18.7892 94.4697 18.8567C94.4842 18.8924 94.5197 18.9142 94.5572 18.9142Z" fill="white" fill-opacity="0.1"/>
<path d="M93.3109 27.9438C93.9183 27.9438 94.4107 27.4693 94.4107 26.884C94.4107 26.2987 93.9183 25.8242 93.3109 25.8242C92.7035 25.8242 92.2111 26.2987 92.2111 26.884C92.2111 27.4693 92.7035 27.9438 93.3109 27.9438Z" fill="url(#paint15_linear_139_1176)"/>
<path d="M43.98 35.1228C43.98 43.3461 50.8984 50.0125 59.4327 50.0125C67.967 50.0125 75.2677 43.0549 75.2677 34.8315C75.2677 26.6082 67.967 20.2332 59.4327 20.2332C50.8984 20.2332 43.98 26.8995 43.98 35.1228Z" fill="url(#paint16_linear_139_1176)"/>
<path d="M74.0544 31.5024C74.0636 31.5024 74.0728 31.5014 74.0819 31.499C74.1389 31.4844 74.1728 31.4281 74.1576 31.3731C73.9913 30.7715 73.779 30.1747 73.5263 29.5994C73.5033 29.5471 73.4403 29.5233 73.3864 29.5447C73.3321 29.567 73.3068 29.6272 73.3297 29.6797C73.5786 30.246 73.7877 30.8336 73.9513 31.4262C73.964 31.4721 74.0073 31.5024 74.0544 31.5024Z" fill="#91B3FA"/>
<path d="M71.6934 26.8496C71.7157 26.8496 71.7383 26.8427 71.7575 26.8289C71.8045 26.7947 71.8139 26.7301 71.7785 26.6849C68.9155 23.0266 64.3038 20.8428 59.4422 20.8428C57.3659 20.8428 55.3577 21.2484 53.4735 22.0481C53.4196 22.071 53.3951 22.1318 53.4189 22.1836C53.4425 22.2356 53.5056 22.2591 53.5596 22.2364C55.4165 21.448 57.3958 21.0484 59.4422 21.0484C64.2372 21.0484 68.7851 23.2017 71.608 26.8086C71.6291 26.8355 71.661 26.8496 71.6934 26.8496Z" fill="#91B3FA"/>
<path d="M46.0824 35.123C46.0824 42.2412 52.0711 48.0116 59.4585 48.0116C66.8459 48.0116 73.1654 41.9891 73.1654 34.8709C73.1654 27.7527 66.8459 22.2344 59.4585 22.2344C52.0711 22.2344 46.0824 28.0048 46.0824 35.123Z" fill="url(#paint17_linear_139_1176)"/>
<path d="M46.0824 35.123C46.0824 28.0048 52.071 22.2344 59.4584 22.2344C63.4587 22.2344 67.1452 23.8531 69.6854 26.4671L59.3814 34.7281L57.2632 47.8379C50.9204 46.8287 46.0824 41.5207 46.0824 35.123Z" fill="url(#paint18_linear_139_1176)"/>
<path opacity="0.25" d="M47.9032 34.2269C47.9032 40.651 53.4202 45.8587 60.2256 45.8587C67.0311 45.8587 72.8528 40.4235 72.8528 33.9994C72.8528 27.5753 67.0311 22.5952 60.2256 22.5952C53.4202 22.5952 47.9032 27.8029 47.9032 34.2269Z" fill="white" fill-opacity="0.1"/>
<path opacity="0.78" d="M69.7471 34.4545C69.7802 35.0016 70.2673 35.4193 70.8351 35.3875C71.4028 35.3556 71.8364 34.8863 71.8033 34.3392C71.7703 33.7921 71.2832 33.3744 70.7154 33.4062C70.1476 33.4381 69.7141 33.9074 69.7471 34.4545Z" fill="white" fill-opacity="0.1"/>
<path opacity="0.78" d="M47.4986 35.7023C47.5316 36.2494 48.0187 36.6671 48.5865 36.6353C49.1543 36.6035 49.5878 36.1341 49.5547 35.587C49.5217 35.0399 49.0346 34.6222 48.4668 34.6541C47.899 34.6859 47.4655 35.1552 47.4986 35.7023Z" fill="white" fill-opacity="0.1"/>
<path opacity="0.78" d="M61.4678 44.6069C60.9082 44.7054 60.5376 45.2222 60.6397 45.7613C60.7419 46.3004 61.2783 46.6576 61.8378 46.5592C62.3973 46.4607 62.768 45.9438 62.6659 45.4047C62.5637 44.8657 62.0272 44.5085 61.4678 44.6069Z" fill="white" fill-opacity="0.1"/>
<path opacity="0.78" d="M57.4635 23.4824C56.904 23.5809 56.5333 24.0977 56.6355 24.6368C56.7377 25.1759 57.274 25.5331 57.8336 25.4346C58.3931 25.3362 58.7638 24.8193 58.6616 24.2802C58.5594 23.7411 58.023 23.3839 57.4635 23.4824Z" fill="white" fill-opacity="0.1"/>
<path opacity="0.78" d="M54.1464 45.1739C54.0418 45.4283 54.0679 45.6665 54.2048 45.7059C54.3417 45.7454 54.5376 45.5711 54.6422 45.3167C54.7469 45.0623 54.7207 44.8241 54.5838 44.7846C54.4469 44.7452 54.2511 44.9194 54.1464 45.1739Z" fill="white" fill-opacity="0.1"/>
<path opacity="0.78" d="M63.0971 25.1375C62.9925 25.3919 63.0186 25.6301 63.1555 25.6695C63.2924 25.709 63.4882 25.5347 63.5929 25.2803C63.6976 25.0259 63.6714 24.7877 63.5345 24.7482C63.3976 24.7088 63.2018 24.8831 63.0971 25.1375Z" fill="white" fill-opacity="0.1"/>
<path opacity="0.78" d="M49.4735 41.365C49.247 41.5301 49.1409 41.7468 49.2367 41.849C49.3324 41.9512 49.5937 41.9002 49.8202 41.7352C50.0468 41.5701 50.1528 41.3534 50.057 41.2512C49.9613 41.149 49.7 41.2 49.4735 41.365Z" fill="white" fill-opacity="0.1"/>
<path opacity="0.78" d="M67.9196 28.7187C67.6931 28.8838 67.5871 29.1005 67.6828 29.2027C67.7785 29.3049 68.0399 29.254 68.2664 29.0889C68.493 28.9238 68.5989 28.7071 68.5032 28.6049C68.4074 28.5028 68.1462 28.5537 67.9196 28.7187Z" fill="white" fill-opacity="0.1"/>
<path opacity="0.78" d="M48.8863 30.0201C48.6299 29.9024 48.3815 29.9116 48.3315 30.0406C48.2815 30.1696 48.4487 30.3695 48.7052 30.4872C48.9616 30.6048 49.2101 30.5956 49.26 30.4666C49.3101 30.3377 49.1428 30.1377 48.8863 30.0201Z" fill="white" fill-opacity="0.1"/>
<path opacity="0.78" d="M69.0348 39.9671C68.7783 39.8494 68.5299 39.8586 68.4799 39.9876C68.4299 40.1166 68.5972 40.3165 68.8537 40.4342C69.1101 40.5519 69.3585 40.5426 69.4085 40.4137C69.4586 40.2847 69.2912 40.0847 69.0348 39.9671Z" fill="white" fill-opacity="0.1"/>
<path opacity="0.78" d="M53.1433 25.7821C52.9876 25.5533 52.7703 25.4369 52.658 25.522C52.5458 25.6073 52.5811 25.8619 52.7368 26.0907C52.8926 26.3195 53.1099 26.436 53.2221 26.3507C53.3344 26.2656 53.2991 26.0109 53.1433 25.7821Z" fill="white" fill-opacity="0.1"/>
<path opacity="0.78" d="M65.0028 44.3632C64.8471 44.1343 64.6297 44.0179 64.5175 44.1031C64.4053 44.1883 64.4405 44.4429 64.5963 44.6717C64.752 44.9006 64.9694 45.017 65.0816 44.9318C65.1938 44.8466 65.1586 44.592 65.0028 44.3632Z" fill="white" fill-opacity="0.1"/>
<path d="M59.0368 35.0836L61.8143 26.3355C61.8681 26.166 61.7273 25.9965 61.5573 26.026L60.5458 26.2019C60.3491 26.2361 60.2054 26.01 60.3144 25.8375L64.5009 19.2042C64.629 19.0013 64.9355 19.1099 64.9204 19.3529L64.4301 27.2028C64.4184 27.3906 64.2098 27.4875 64.0647 27.3725L63.0898 26.5995C62.9693 26.504 62.7953 26.5528 62.7398 26.6977L59.4662 35.2488C59.4207 35.3679 59.2913 35.4265 59.1748 35.3808C59.0595 35.3355 58.9985 35.2042 59.0368 35.0836Z" fill="url(#paint19_linear_139_1176)"/>
<path d="M64.6079 20.1285C64.5971 20.0524 64.5464 19.9892 64.4725 19.9642C64.3841 19.9343 64.2927 19.9691 64.2446 20.0507L63.3956 21.4927C63.3662 21.5427 63.3818 21.6086 63.4304 21.6395C63.479 21.6706 63.5421 21.6552 63.5717 21.6051L64.4207 20.163C64.2851 21.9436 64.008 26.1082 64.0117 26.1933C64.0134 26.2508 64.0621 26.2983 64.119 26.2963C64.1751 26.2942 64.2186 26.2462 64.2174 26.1885C64.2189 26.0647 64.4294 22.8734 64.6095 20.174C64.6105 20.1585 64.61 20.1433 64.6079 20.1285Z" fill="url(#paint20_linear_139_1176)" fill-opacity="0.1"/>
<path d="M59.3742 34.7125L64.2406 39.5638C64.3503 39.6692 64.5372 39.6152 64.5818 39.4651L64.8471 38.5724C64.8987 38.3987 65.1305 38.3628 65.2207 38.5145L68.6878 44.3473C68.7938 44.5258 68.5883 44.7377 68.4065 44.6373L62.5323 41.3939C62.3917 41.3163 62.3996 41.1102 62.5461 41.0329L63.5305 40.5136C63.6522 40.4494 63.6834 40.2892 63.5934 40.1912L59.0761 35.0045C59.0021 34.9241 59.0081 34.7968 59.0897 34.7179C59.1704 34.6398 59.2962 34.6374 59.3742 34.7125Z" fill="url(#paint21_linear_139_1176)"/>
<path d="M63.3766 41.438C63.3685 41.4461 63.3618 41.4557 63.3568 41.4667C63.336 41.5133 63.3558 41.5665 63.401 41.5866C63.4957 41.6324 65.8794 42.9603 67.8951 44.0852C67.9664 44.1249 68.052 44.1121 68.1117 44.0491C68.1699 43.9875 68.1794 43.8998 68.1353 43.8308L67.3573 42.6129C67.3303 42.5707 67.2733 42.5596 67.2301 42.5883C67.187 42.6163 67.1736 42.674 67.2006 42.7165L67.9786 43.9344C66.6558 43.1786 63.5464 41.4444 63.4791 41.4164C63.4435 41.4015 63.4031 41.4113 63.3766 41.438Z" fill="url(#paint22_linear_139_1176)" fill-opacity="0.1"/>
<path d="M59.5274 35.8095C60.1349 35.8095 60.6273 35.3351 60.6273 34.7497C60.6273 34.1644 60.1349 33.6899 59.5274 33.6899C58.92 33.6899 58.4276 34.1644 58.4276 34.7497C58.4276 35.3351 58.92 35.8095 59.5274 35.8095Z" fill="url(#paint23_linear_139_1176)"/>
<path d="M11.5331 24.7729C11.5331 32.9963 18.4515 39.6626 26.9858 39.6626C35.5201 39.6626 42.8208 32.705 42.8208 24.4817C42.8208 16.2584 35.5201 9.8833 26.9858 9.8833C18.4515 9.8833 11.5331 16.5496 11.5331 24.7729Z" fill="url(#paint24_linear_139_1176)"/>
<path d="M41.6081 21.1526C41.6173 21.1526 41.6265 21.1516 41.6356 21.1492C41.6926 21.1345 41.7265 21.0783 41.7114 21.0233C41.5451 20.4217 41.3327 19.8248 41.08 19.2495C41.057 19.1973 40.994 19.1734 40.9401 19.1949C40.8858 19.2171 40.8605 19.2774 40.8835 19.3298C41.1323 19.8961 41.3414 20.4837 41.5051 21.0763C41.5178 21.1223 41.561 21.1526 41.6081 21.1526Z" fill="#91B3FA"/>
<path d="M39.2464 16.4997C39.2687 16.4997 39.2913 16.4929 39.3106 16.479C39.3577 16.4449 39.367 16.3802 39.3316 16.335C36.4686 12.6768 31.8569 10.4929 26.9953 10.4929C24.9191 10.4929 22.9108 10.8986 21.0266 11.6982C20.9727 11.7211 20.9482 11.782 20.972 11.8338C20.9956 11.8858 21.0587 11.9093 21.1127 11.8866C22.9696 11.0982 24.9489 10.6985 26.9953 10.6985C31.7903 10.6985 36.3382 12.8519 39.1611 16.4587C39.1821 16.4857 39.214 16.4997 39.2464 16.4997Z" fill="#91B3FA"/>
<path d="M13.6353 24.7732C13.6353 31.8914 19.6239 37.6618 27.0113 37.6618C34.3987 37.6618 40.7182 31.6392 40.7182 24.521C40.7182 17.4028 34.3987 11.8845 27.0113 11.8845C19.6239 11.8845 13.6353 17.655 13.6353 24.7732Z" fill="url(#paint25_linear_139_1176)"/>
<path d="M13.6356 24.7732C13.6356 17.655 19.6242 11.8845 27.0116 11.8845C31.0119 11.8845 34.6984 13.5032 37.2386 16.1172L26.9346 24.3783L24.8164 37.488C18.4736 36.4788 13.6356 31.1708 13.6356 24.7732Z" fill="url(#paint26_linear_139_1176)"/>
<path opacity="0.22" d="M15.4559 23.8768C15.4559 30.3009 20.9729 35.5086 27.7783 35.5086C34.5838 35.5086 40.4055 30.0734 40.4055 23.6493C40.4055 17.2253 34.5838 12.2451 27.7783 12.2451C20.9729 12.2451 15.4559 17.4528 15.4559 23.8768Z" fill="url(#paint27_linear_139_1176)" fill-opacity="0.1"/>
<path opacity="0.78" d="M37.3002 24.1044C37.3333 24.6515 37.8204 25.0692 38.3882 25.0374C38.9559 25.0055 39.3895 24.5362 39.3564 23.9891C39.3234 23.442 38.8363 23.0243 38.2685 23.0561C37.7007 23.088 37.2672 23.5573 37.3002 24.1044Z" fill="white" fill-opacity="0.1"/>
<path opacity="0.78" d="M15.0517 25.3522C15.0847 25.8994 15.5718 26.317 16.1396 26.2852C16.7074 26.2534 17.1409 25.784 17.1079 25.2369C17.0748 24.6898 16.5877 24.2721 16.02 24.304C15.4522 24.3358 15.0186 24.8051 15.0517 25.3522Z" fill="white" fill-opacity="0.1"/>
<path opacity="0.78" d="M29.021 34.257C28.4615 34.3555 28.0908 34.8724 28.193 35.4115C28.2952 35.9506 28.8316 36.3078 29.3911 36.2094C29.9505 36.1109 30.3212 35.594 30.2191 35.0549C30.1169 34.5158 29.5805 34.1586 29.021 34.257Z" fill="white" fill-opacity="0.1"/>
<path opacity="0.78" d="M25.0166 13.1325C24.4571 13.231 24.0864 13.7479 24.1886 14.287C24.2908 14.8261 24.8271 15.1832 25.3867 15.0848C25.9461 14.9863 26.3169 14.4695 26.2147 13.9304C26.1125 13.3913 25.5761 13.0341 25.0166 13.1325Z" fill="white" fill-opacity="0.1"/>
<path opacity="0.78" d="M21.6995 34.824C21.5949 35.0784 21.621 35.3166 21.7579 35.3561C21.8948 35.3955 22.0907 35.2212 22.1953 34.9669C22.3 34.7125 22.2738 34.4742 22.1369 34.4348C22 34.3953 21.8042 34.5696 21.6995 34.824Z" fill="white" fill-opacity="0.1"/>
<path opacity="0.78" d="M30.6502 14.7874C30.5456 15.0418 30.5717 15.28 30.7086 15.3195C30.8455 15.3589 31.0413 15.1846 31.146 14.9303C31.2507 14.6759 31.2245 14.4376 31.0876 14.3981C30.9507 14.3588 30.7549 14.533 30.6502 14.7874Z" fill="white" fill-opacity="0.1"/>
<path opacity="0.78" d="M17.0266 31.0154C16.8001 31.1805 16.694 31.3972 16.7898 31.4994C16.8855 31.6016 17.1468 31.5506 17.3733 31.3856C17.5999 31.2205 17.7059 31.0038 17.6101 30.9016C17.5143 30.7994 17.2531 30.8503 17.0266 31.0154Z" fill="white" fill-opacity="0.1"/>
<path opacity="0.78" d="M35.4727 18.3689C35.2462 18.534 35.1402 18.7506 35.2359 18.8528C35.3316 18.9551 35.593 18.9041 35.8195 18.739C36.0461 18.574 36.1521 18.3573 36.0563 18.2551C35.9605 18.1529 35.6993 18.2039 35.4727 18.3689Z" fill="white" fill-opacity="0.1"/>
<path opacity="0.78" d="M16.4395 19.67C16.183 19.5523 15.9346 19.5615 15.8846 19.6905C15.8345 19.8195 16.0018 20.0194 16.2583 20.1371C16.5147 20.2547 16.7632 20.2455 16.8132 20.1165C16.8632 19.9876 16.6959 19.7876 16.4395 19.67Z" fill="white" fill-opacity="0.1"/>
<path opacity="0.78" d="M36.5879 29.617C36.3314 29.4993 36.083 29.5085 36.033 29.6375C35.983 29.7665 36.1503 29.9664 36.4068 30.0841C36.6632 30.2018 36.9116 30.1925 36.9616 30.0636C37.0116 29.9346 36.8443 29.7346 36.5879 29.617Z" fill="white" fill-opacity="0.1"/>
<path opacity="0.78" d="M20.6966 15.4323C20.5408 15.2034 20.3235 15.087 20.2113 15.1722C20.099 15.2574 20.1343 15.512 20.29 15.7409C20.4458 15.9697 20.6631 16.0861 20.7753 16.0009C20.8876 15.9157 20.8523 15.6611 20.6966 15.4323Z" fill="white" fill-opacity="0.1"/>
<path opacity="0.78" d="M32.556 34.0135C32.4003 33.7847 32.183 33.6683 32.0707 33.7535C31.9585 33.8387 31.9938 34.0933 32.1495 34.3221C32.3053 34.551 32.5226 34.6674 32.6348 34.5822C32.7471 34.497 32.7118 34.2424 32.556 34.0135Z" fill="white" fill-opacity="0.1"/>
<path d="M27.0151 23.9437L33.9763 29.9257C34.1112 30.0416 34.3224 29.9785 34.3618 29.8105L34.5961 28.8109C34.6417 28.6165 34.906 28.5729 35.022 28.7406L39.4855 35.1909C39.622 35.3883 39.402 35.6277 39.1845 35.5186L32.1538 31.9928C31.9856 31.9084 31.9781 31.6785 32.1408 31.5901L33.2338 30.9959C33.3689 30.9224 33.3921 30.7432 33.2806 30.6354L26.6949 24.274C26.6032 24.1854 26.5999 24.0434 26.6876 23.9542C26.7744 23.8659 26.9192 23.8612 27.0151 23.9437Z" fill="url(#paint28_linear_139_1176)"/>
<path opacity="0.7" d="M38.593 34.9271C38.6673 34.947 38.7452 34.9251 38.7972 34.8669C38.8593 34.7972 38.8632 34.6995 38.8069 34.6233L37.8126 33.2773C37.7781 33.2307 37.7114 33.2192 37.664 33.2518C37.6163 33.2843 37.6058 33.3485 37.6403 33.3953L38.6346 34.7413C37.0493 33.9191 33.326 32.033 33.2463 32.0031C33.1927 31.9821 33.13 32.0083 33.1095 32.0614C33.0895 32.1139 33.1166 32.1727 33.1702 32.1942C33.2836 32.2441 36.1374 33.6878 38.5506 34.9107C38.5644 34.9177 38.5786 34.9232 38.593 34.9271Z" fill="white" fill-opacity="0.1"/>
<path d="M27.2881 25.0329L21.2707 28.351C21.1388 28.4268 21.1385 28.6214 21.2702 28.7061L22.0533 29.2102C22.2056 29.3082 22.1754 29.5408 22.0045 29.5851L15.4355 31.2853C15.2346 31.3373 15.0885 31.0808 15.2357 30.9342L19.9904 26.1995C20.1042 26.0862 20.2999 26.1513 20.3332 26.3136L20.5569 27.4038C20.5846 27.5386 20.7298 27.6133 20.8489 27.5543L27.0908 24.6651C27.1887 24.6165 27.3092 24.6579 27.3622 24.7582C27.4147 24.8575 27.3819 24.9789 27.2881 25.0329Z" fill="url(#paint29_linear_139_1176)"/>
<path opacity="0.7" d="M19.7127 26.9976C19.7071 26.9876 19.6998 26.9784 19.6906 26.9706C19.6516 26.9375 19.5951 26.9417 19.5632 26.9795C19.4927 27.0576 17.552 28.9757 15.909 30.5971C15.8509 30.6545 15.8393 30.7402 15.8831 30.8152C15.926 30.8883 16.0075 30.9219 16.0861 30.8988L17.4728 30.4919C17.5208 30.4777 17.5475 30.4261 17.532 30.3766C17.5171 30.3274 17.4654 30.2984 17.4171 30.3125L16.0304 30.7194C17.1255 29.6602 19.6591 27.1588 19.7048 27.1021C19.729 27.072 19.7309 27.0305 19.7127 26.9976Z" fill="white" fill-opacity="0.1"/>
<path d="M27.0806 25.4599C27.688 25.4599 28.1804 24.9854 28.1804 24.4001C28.1804 23.8148 27.688 23.3403 27.0806 23.3403C26.4731 23.3403 25.9807 23.8148 25.9807 24.4001C25.9807 24.9854 26.4731 25.4599 27.0806 25.4599Z" fill="url(#paint30_linear_139_1176)"/>
<path d="M98.5632 66.7931L103.532 79.0482L104.349 78.8213L99.2731 66.5662L98.5632 66.7931Z" fill="url(#paint31_linear_139_1176)"/>
<path d="M96.4776 50.7661C96.4776 50.7661 97.9938 51.5036 98.2726 52.3508C98.4963 53.0306 100.173 53.1183 100.338 54.4552C100.424 55.1455 100.935 55.6983 101.622 55.8037C103.335 56.0661 105.973 56.9553 106.396 59.9282C106.718 62.1975 105.561 63.0579 104.347 63.3557C103.455 63.5745 102.863 64.4418 103.043 65.3421C103.216 66.2055 102.958 67.2037 101.462 67.993C98.1101 69.7619 94.7625 63.8025 94.7625 63.8025L94.0764 53.3972L96.4776 50.7661Z" fill="url(#paint32_linear_139_1176)"/>
<path d="M78.2371 48.2993C78.2371 48.2993 84.9302 58.8859 92.8891 60.9308C92.8891 60.9308 91.3383 65.3478 90.1413 65.8533C90.1413 65.8533 80.3496 57.6833 77.8333 49.8036L78.2371 48.2993Z" fill="url(#paint33_linear_139_1176)"/>
<path d="M110.256 116.011L110.473 117.795C110.514 118.133 110.781 118.4 111.119 118.439C111.691 118.504 112.608 118.571 113.506 118.476C113.9 118.435 114.156 118.036 114.036 117.658C113.817 116.97 113.417 115.937 112.839 115.328H110.861C110.495 115.328 110.212 115.648 110.256 116.011Z" fill="url(#paint34_linear_139_1176)"/>
<path d="M95.6801 111.719C95.7072 112.165 95.7293 112.575 95.7454 112.942C95.7766 113.652 95.5929 114.354 95.22 114.959L93.2758 118.116L98.2171 115.201L98.3155 114.598L97.5066 113.486L97.6319 111.984C96.9765 111.918 96.3251 111.83 95.6801 111.719Z" fill="url(#paint35_linear_139_1176)"/>
<path d="M92.9504 118.574H94.5273C94.8224 118.574 95.1008 118.438 95.2808 118.204C95.7724 117.566 96.7908 116.32 97.2778 116.287C97.9334 116.243 97.8496 118.574 97.8496 118.574H98.217L98.6825 115.678C98.7997 114.949 98.4373 114.227 97.7829 113.886C97.7829 113.886 97.633 114.994 96.8204 115.484C96.0078 115.975 93.5136 117.73 93.5136 117.73C93.5136 117.73 93.2082 117.687 92.8728 117.747C92.3753 117.837 92.4448 118.574 92.9504 118.574Z" fill="url(#paint36_linear_139_1176)"/>
<path d="M111.271 111.935C111.109 111.529 110.889 110.686 110.645 109.652C109.987 109.843 109.334 110.049 108.689 110.274C108.876 110.694 109.023 111.048 109.122 111.316C110.163 114.153 110.528 116.52 110.542 116.744C110.564 117.094 110.999 117.43 112.2 117.43C112.819 117.43 113.123 117.182 113.272 116.941C113.398 116.736 113.405 116.48 113.298 116.263C112.919 115.497 111.717 113.046 111.271 111.935Z" fill="url(#paint37_linear_139_1176)"/>
<path d="M95.4307 55.981L96.8045 62.1516C96.936 62.6952 96.4405 62.6062 95.891 62.5026C94.9911 62.333 93.8313 61.9835 93.4435 61.2833C93.4041 61.212 93.3843 61.1314 93.3732 61.0507L92.783 56.7718C92.7362 56.4324 92.9197 56.1029 93.233 55.964L94.3719 55.459C94.8104 55.2645 95.3179 55.5147 95.4307 55.981Z" fill="url(#paint38_linear_139_1176)"/>
<path d="M92.7998 50.3558C92.7998 50.3558 91.3373 51.3459 90.7089 53.867C90.0804 56.3882 91.1017 57.2925 92.1486 57.2371C93.1955 57.1817 94.7134 56.858 96.0285 55.0493C97.3437 53.2405 94.7163 49.1461 92.7998 50.3558Z" fill="url(#paint39_linear_139_1176)"/>
<path d="M94.7023 54.0324C94.7023 54.0324 95.2382 50.4198 92.2388 50.9724L91.6323 51.6038C91.6323 51.6038 90.1641 49.9504 91.7889 48.7006C93.4136 47.4508 95.6681 47.7709 96.9155 50.0462C98.1628 52.3215 98.6155 53.9203 97.57 55.3342C96.5245 56.748 95.7381 55.5354 95.7381 55.5354C95.7381 55.5354 96.2176 54.3117 95.8197 53.7867C95.4219 53.2616 94.9086 54.092 94.9086 54.092L94.7023 54.0324Z" fill="url(#paint40_linear_139_1176)"/>
<path d="M94.8754 54.6731C94.8754 54.6731 95.1399 52.8144 96.0892 53.3458C97.0385 53.8771 95.7471 55.082 95.2293 55.492L94.8754 54.6731Z" fill="url(#paint41_linear_139_1176)"/>
<path d="M78.2834 50.4789C78.2631 50.6972 79.0752 50.8482 79.3337 49.9172C79.2626 49.513 79.1364 47.743 78.8265 47.468C77.176 46.0035 74.2326 44.356 74.2326 44.356C73.9035 44.8585 74.3352 45.1895 74.3352 45.1895L75.8044 46.1811C75.6511 46.6887 75.4275 47.1375 75.4022 47.717C75.383 48.1559 75.5451 48.5856 75.8364 48.9185C76.1288 49.2526 76.5225 49.684 76.8773 50.0115C77.549 50.6313 78.2834 50.4789 78.2834 50.4789Z" fill="url(#paint42_linear_139_1176)"/>
<path d="M77.4852 49.7572L77.7098 49.6648C77.6799 49.5922 76.9749 47.8789 76.6339 47.5225C76.5043 47.3873 76.4417 47.2715 76.4475 47.1781C76.4504 47.1276 76.4754 47.0777 76.5229 47.0269L77.7117 47.6626L78.2368 48.4848L78.4415 48.3539L77.8823 47.4782L76.4898 46.7336L76.4269 46.7848C76.2861 46.9 76.2133 47.0236 76.2049 47.1632C76.1947 47.3293 76.2774 47.5018 76.458 47.6905C76.715 47.9589 77.2867 49.2733 77.4852 49.7572Z" fill="url(#paint43_linear_139_1176)"/>
<path d="M91.5229 76.2661L91.0739 78.7759C91.6936 84.5633 92.7248 90.6688 94.4283 97.0854C94.9552 102.364 95.3358 107.441 95.5461 112.282C96.0232 112.467 96.5714 112.618 97.9597 112.353C98.4566 105.467 99.7354 98.8408 97.3208 96.8069L96.7529 84.1L94.7652 76.5043L91.5229 76.2661Z" fill="url(#paint44_linear_139_1176)"/>
<path d="M94.6943 76.2206L96.398 85.2361C98.3974 90.1433 100.39 95.0089 101.935 97.0201C104.212 100.289 106.482 105.667 108.75 111.431C109.566 111.573 110.348 111.342 111.093 110.721C110.244 103.994 108.59 98.3425 104.704 95.6713C103.902 86.3729 102.717 77.6928 97.3922 75.6946L94.6943 76.2206Z" fill="url(#paint45_linear_139_1176)"/>
<path d="M97.3921 75.6945C95.7024 68.5346 99.9829 64.485 99.9829 64.485C97.282 61.8924 92.3609 60.7126 92.3609 60.7126C92.3609 60.7126 87.6651 64.1457 88.2222 66.8328C88.5487 68.4077 91.5229 76.2662 91.5229 76.2662C91.5229 76.2662 94.2731 77.5678 97.3921 75.6945Z" fill="url(#paint46_linear_139_1176)"/>
<path d="M97.5833 79.5822L103.414 77.5797C103.763 77.4597 104.14 77.6657 104.228 78.0245L105.421 82.9114C105.498 83.2238 105.325 83.5434 105.023 83.6516L99.2492 85.7135C98.9004 85.838 98.5202 85.6352 98.4294 85.2762L97.1786 80.3298C97.0985 80.0133 97.2745 79.6883 97.5833 79.5822Z" fill="url(#paint47_linear_139_1176)"/>
<path d="M97.4773 81.5122L101.935 82.3254L104.578 79.4614L104.228 78.0245C104.14 77.6657 103.763 77.4597 103.414 77.5797L97.5829 79.5822C97.2741 79.6882 97.0981 80.0133 97.1782 80.3298L97.4773 81.5122Z" fill="url(#paint48_linear_139_1176)"/>
<path d="M97.8177 80.8938C96.8511 73.2923 95.3077 64.7298 97.7468 62.8037L98.8471 63.4367C95.9958 64.4648 97.1902 72.4898 98.4567 80.7272L97.8177 80.8938Z" fill="url(#paint49_linear_139_1176)"/>
<path d="M99.9831 64.4849C99.9831 64.4849 109.571 71.3447 101.209 78.553C101.209 78.553 100.891 78.9138 100.263 79.1013C99.9466 79.1959 99.0098 79.9046 98.5349 80.2742C98.3822 80.393 98.1616 80.3525 98.059 80.1886C97.9785 80.0601 97.9691 79.8995 98.0339 79.7625L99.2209 77.2524C99.5506 76.9448 100.055 76.9229 100.41 77.2009C100.637 77.3783 100.968 77.304 101.095 77.0458C101.741 75.7293 102.962 71.8572 97.9663 67.4819C97.7784 67.3174 97.7309 67.0454 97.8462 66.824C98.1972 66.1496 98.9999 64.8106 99.9831 64.4849Z" fill="url(#paint50_linear_139_1176)"/>
<path d="M36.9029 104.631C36.9029 104.631 31.5254 110.559 27.0343 108.054C23.4249 106.04 28.5529 106.566 32.9028 105.615C33.2442 105.54 33.1547 105.03 32.8084 105.076C29.4051 105.527 24.212 105.896 23.31 104.121C21.9484 101.442 23.2689 102.311 27.413 102.698C31.5571 103.085 32.3556 102.062 29.6505 101.424C26.9455 100.787 22.6422 102.197 21.6398 100.886C20.6373 99.5749 20.0894 96.9729 19.6898 95.8539C19.2902 94.7349 24.8484 93.0558 26.351 94.5248C27.8537 95.9938 29.0739 99.2727 30.8571 99.8714C32.6404 100.47 30.7221 97.5695 29.5395 96.0725C28.3568 94.5754 27.8879 93.4627 30.2508 93.8199C32.6136 94.1769 33.8627 97.0608 34.1117 99.2134C34.3608 101.366 35.193 102.57 35.1554 101.505C35.1177 100.44 34.7312 97.1741 33.976 96.1921C33.2209 95.2102 38.6121 96.4086 36.9029 104.631Z" fill="#7D97F4"/>
<path opacity="0.53" d="M36.465 104.687C36.4413 104.696 36.4136 104.692 36.3932 104.674C31.7776 100.636 24.0361 97.7012 23.9584 97.672C23.9219 97.6583 23.9034 97.6176 23.9171 97.5809C23.9308 97.5445 23.9716 97.526 24.0081 97.5397C24.086 97.5689 31.8511 100.513 36.4863 104.568C36.5157 104.594 36.5187 104.638 36.493 104.668C36.4851 104.677 36.4754 104.683 36.465 104.687Z" fill="white" fill-opacity="0.1"/>
<path d="M40.1497 108.417C40.1497 108.417 30.3291 108.741 28.7013 102.641C27.393 97.7385 31.3101 102.709 35.8649 105.731C36.2224 105.968 36.5958 105.453 36.2594 105.187C32.9542 102.572 28.1926 98.3092 28.9865 95.998C30.185 92.509 30.5471 94.4153 33.7463 98.3994C36.9455 102.383 38.5298 102.213 36.7807 99.2839C35.0316 96.3546 30.1126 93.7652 30.4118 91.7616C30.711 89.758 32.5368 87.0521 33.182 85.7438C33.8272 84.4356 40.0558 87.9012 40.0444 90.4809C40.033 93.0606 38.1848 96.9376 39.1805 99.0211C40.1761 101.105 41.0944 96.9357 41.4039 94.6141C41.7133 92.2925 42.2937 90.9286 43.9975 93.3167C45.7013 95.7049 44.226 99.2697 42.541 101.328C40.8561 103.387 40.5056 105.149 41.4123 104.206C42.319 103.263 44.8681 100.132 45.0886 98.6276C45.309 97.1229 48.8583 102.899 40.1497 108.417Z" fill="url(#paint51_linear_139_1176)"/>
<path opacity="0.53" d="M39.726 108.08C39.6979 108.066 39.6777 108.039 39.6761 108.005C39.2928 100.486 35.2668 91.1542 35.2261 91.0609C35.207 91.0169 35.2271 90.9659 35.2711 90.9466C35.3148 90.9276 35.3661 90.9477 35.3852 90.9916C35.4261 91.0853 39.4646 100.446 39.8494 107.997C39.8518 108.044 39.815 108.085 39.7671 108.088C39.7524 108.088 39.7384 108.085 39.726 108.08Z" fill="white" fill-opacity="0.1"/>
<defs>
<linearGradient id="paint0_linear_139_1176" x1="126.271" y1="134.653" x2="40.078" y2="41.6188" gradientUnits="userSpaceOnUse">
<stop stop-color="#DAE3FE"/>
<stop offset="1" stop-color="#E9EFFD"/>
</linearGradient>
<linearGradient id="paint1_linear_139_1176" x1="61.2677" y1="127.434" x2="61.2677" y2="47.0755" gradientUnits="userSpaceOnUse">
<stop stop-color="#09005D"/>
<stop offset="1" stop-color="#1A0F91"/>
</linearGradient>
<linearGradient id="paint2_linear_139_1176" x1="28.8887" y1="40.7974" x2="29.8825" y2="40.7974" gradientUnits="userSpaceOnUse">
<stop stop-color="#4F52FF"/>
<stop offset="1" stop-color="#4042E2"/>
</linearGradient>
<linearGradient id="paint3_linear_139_1176" x1="59.4276" y1="50.667" x2="60.9754" y2="50.667" gradientUnits="userSpaceOnUse">
<stop stop-color="#4F52FF"/>
<stop offset="1" stop-color="#4042E2"/>
</linearGradient>
<linearGradient id="paint4_linear_139_1176" x1="93.062" y1="52.0849" x2="94.0539" y2="52.0849" gradientUnits="userSpaceOnUse">
<stop stop-color="#4F52FF"/>
<stop offset="1" stop-color="#4042E2"/>
</linearGradient>
<linearGradient id="paint5_linear_139_1176" x1="30.2577" y1="48.1497" x2="28.4594" y2="71.5284" gradientUnits="userSpaceOnUse">
<stop stop-color="#4F52FF"/>
<stop offset="1" stop-color="#4042E2"/>
</linearGradient>
<linearGradient id="paint6_linear_139_1176" x1="30.2494" y1="48.149" x2="28.4511" y2="71.5278" gradientUnits="userSpaceOnUse">
<stop stop-color="#4F52FF"/>
<stop offset="1" stop-color="#4042E2"/>
</linearGradient>
<linearGradient id="paint7_linear_139_1176" x1="64.6856" y1="65.5685" x2="81.9348" y2="44.4861" gradientUnits="userSpaceOnUse">
<stop stop-color="#4F52FF"/>
<stop offset="1" stop-color="#4042E2"/>
</linearGradient>
<linearGradient id="paint8_linear_139_1176" x1="66.0176" y1="66.6586" x2="83.2669" y2="45.5761" gradientUnits="userSpaceOnUse">
<stop stop-color="#4F52FF"/>
<stop offset="1" stop-color="#4042E2"/>
</linearGradient>
<linearGradient id="paint9_linear_139_1176" x1="88.9307" y1="47.0602" x2="100.573" y2="-4.90301" gradientUnits="userSpaceOnUse">
<stop stop-color="#09005D"/>
<stop offset="1" stop-color="#1A0F91"/>
</linearGradient>
<linearGradient id="paint10_linear_139_1176" x1="119.704" y1="11.2116" x2="110.334" y2="16.8906" gradientUnits="userSpaceOnUse">
<stop stop-color="#4F52FF"/>
<stop offset="1" stop-color="#4042E2"/>
</linearGradient>
<linearGradient id="paint11_linear_139_1176" x1="79.8658" y1="27.1702" x2="103.469" y2="27.1702" gradientUnits="userSpaceOnUse">
<stop stop-color="#4F52FF"/>
<stop offset="1" stop-color="#4042E2"/>
</linearGradient>
<linearGradient id="paint12_linear_139_1176" x1="81.6862" y1="26.3612" x2="106.636" y2="26.3612" gradientUnits="userSpaceOnUse">
<stop stop-color="#DAE3FE"/>
<stop offset="1" stop-color="#E9EFFD"/>
</linearGradient>
<linearGradient id="paint13_linear_139_1176" x1="94.2052" y1="25.42" x2="108.261" y2="36.6362" gradientUnits="userSpaceOnUse">
<stop stop-color="#FE7062"/>
<stop offset="1" stop-color="#FF928E"/>
</linearGradient>
<linearGradient id="paint14_linear_139_1176" x1="127.081" y1="30.4427" x2="112.032" y2="25.7575" gradientUnits="userSpaceOnUse">
<stop stop-color="#FE7062"/>
<stop offset="1" stop-color="#FF928E"/>
</linearGradient>
<linearGradient id="paint15_linear_139_1176" x1="94.5733" y1="22.7618" x2="89.9354" y2="37.9059" gradientUnits="userSpaceOnUse">
<stop stop-color="#FE7062"/>
<stop offset="1" stop-color="#FF928E"/>
</linearGradient>
<linearGradient id="paint16_linear_139_1176" x1="78.8216" y1="14.4473" x2="120.579" y2="-30.1511" gradientUnits="userSpaceOnUse">
<stop stop-color="#09005D"/>
<stop offset="1" stop-color="#1A0F91"/>
</linearGradient>
<linearGradient id="paint17_linear_139_1176" x1="58.9616" y1="34.3199" x2="75.6121" y2="54.4262" gradientUnits="userSpaceOnUse">
<stop stop-color="#FE7062"/>
<stop offset="1" stop-color="#FF928E"/>
</linearGradient>
<linearGradient id="paint18_linear_139_1176" x1="51.2888" y1="26.6846" x2="78.2376" y2="53.9976" gradientUnits="userSpaceOnUse">
<stop stop-color="#FE7062"/>
<stop offset="1" stop-color="#FF928E"/>
</linearGradient>
<linearGradient id="paint19_linear_139_1176" x1="65.9531" y1="18.1434" x2="59.6115" y2="33.0036" gradientUnits="userSpaceOnUse">
<stop stop-color="#4F52FF"/>
<stop offset="1" stop-color="#4042E2"/>
</linearGradient>
<linearGradient id="paint20_linear_139_1176" x1="63.3807" y1="23.125" x2="64.61" y2="23.125" gradientUnits="userSpaceOnUse">
<stop stop-color="#DAE3FE"/>
<stop offset="1" stop-color="#E9EFFD"/>
</linearGradient>
<linearGradient id="paint21_linear_139_1176" x1="65.2438" y1="37.2247" x2="77.7377" y2="15.0765" gradientUnits="userSpaceOnUse">
<stop stop-color="#4F52FF"/>
<stop offset="1" stop-color="#4042E2"/>
</linearGradient>
<linearGradient id="paint22_linear_139_1176" x1="63.3485" y1="42.7586" x2="68.1629" y2="42.7586" gradientUnits="userSpaceOnUse">
<stop stop-color="#DAE3FE"/>
<stop offset="1" stop-color="#E9EFFD"/>
</linearGradient>
<linearGradient id="paint23_linear_139_1176" x1="60.3153" y1="33.3217" x2="57.2865" y2="38.8115" gradientUnits="userSpaceOnUse">
<stop stop-color="#4F52FF"/>
<stop offset="1" stop-color="#4042E2"/>
</linearGradient>
<linearGradient id="paint24_linear_139_1176" x1="28.1101" y1="45.6988" x2="26.1224" y2="0.8344" gradientUnits="userSpaceOnUse">
<stop stop-color="#09005D"/>
<stop offset="1" stop-color="#1A0F91"/>
</linearGradient>
<linearGradient id="paint25_linear_139_1176" x1="37.8928" y1="-1.35638" x2="34.2014" y2="7.58812" gradientUnits="userSpaceOnUse">
<stop stop-color="#4F52FF"/>
<stop offset="1" stop-color="#4042E2"/>
</linearGradient>
<linearGradient id="paint26_linear_139_1176" x1="13.6356" y1="24.6863" x2="37.2386" y2="24.6863" gradientUnits="userSpaceOnUse">
<stop stop-color="#4F52FF"/>
<stop offset="1" stop-color="#4042E2"/>
</linearGradient>
<linearGradient id="paint27_linear_139_1176" x1="40.4055" y1="23.8769" x2="15.456" y2="23.8769" gradientUnits="userSpaceOnUse">
<stop stop-color="#DAE3FE"/>
<stop offset="1" stop-color="#E9EFFD"/>
</linearGradient>
<linearGradient id="paint28_linear_139_1176" x1="36.9722" y1="33.8348" x2="16.0544" y2="12.4437" gradientUnits="userSpaceOnUse">
<stop stop-color="#FE7062"/>
<stop offset="1" stop-color="#FF928E"/>
</linearGradient>
<linearGradient id="paint29_linear_139_1176" x1="35.4578" y1="8.12188" x2="31.1985" y2="14.0849" gradientUnits="userSpaceOnUse">
<stop stop-color="#FE7062"/>
<stop offset="1" stop-color="#FF928E"/>
</linearGradient>
<linearGradient id="paint30_linear_139_1176" x1="27.9873" y1="20.9505" x2="23.6334" y2="37.5144" gradientUnits="userSpaceOnUse">
<stop stop-color="#FE7062"/>
<stop offset="1" stop-color="#FF928E"/>
</linearGradient>
<linearGradient id="paint31_linear_139_1176" x1="101.718" y1="85.1587" x2="101.15" y2="58.3725" gradientUnits="userSpaceOnUse">
<stop stop-color="#09005D"/>
<stop offset="1" stop-color="#1A0F91"/>
</linearGradient>
<linearGradient id="paint32_linear_139_1176" x1="100.288" y1="56.1452" x2="100.714" y2="40.3859" gradientUnits="userSpaceOnUse">
<stop stop-color="#E1473D"/>
<stop offset="1" stop-color="#E9605A"/>
</linearGradient>
<linearGradient id="paint33_linear_139_1176" x1="83.2351" y1="53.2955" x2="95.3391" y2="70.0267" gradientUnits="userSpaceOnUse">
<stop stop-color="#FEBBBA"/>
<stop offset="1" stop-color="#FF928E"/>
</linearGradient>
<linearGradient id="paint34_linear_139_1176" x1="110.252" y1="116.926" x2="114.065" y2="116.926" gradientUnits="userSpaceOnUse">
<stop stop-color="#09005D"/>
<stop offset="1" stop-color="#1A0F91"/>
</linearGradient>
<linearGradient id="paint35_linear_139_1176" x1="95.2937" y1="122.223" x2="96.861" y2="103.906" gradientUnits="userSpaceOnUse">
<stop stop-color="#FEBBBA"/>
<stop offset="1" stop-color="#FF928E"/>
</linearGradient>
<linearGradient id="paint36_linear_139_1176" x1="92.5335" y1="116.23" x2="98.7044" y2="116.23" gradientUnits="userSpaceOnUse">
<stop stop-color="#09005D"/>
<stop offset="1" stop-color="#1A0F91"/>
</linearGradient>
<linearGradient id="paint37_linear_139_1176" x1="110.211" y1="123.027" x2="112.174" y2="100.084" gradientUnits="userSpaceOnUse">
<stop stop-color="#FEBBBA"/>
<stop offset="1" stop-color="#FF928E"/>
</linearGradient>
<linearGradient id="paint38_linear_139_1176" x1="93.5347" y1="68.7383" x2="94.5656" y2="61.1961" gradientUnits="userSpaceOnUse">
<stop stop-color="#FEBBBA"/>
<stop offset="1" stop-color="#FF928E"/>
</linearGradient>
<linearGradient id="paint39_linear_139_1176" x1="91.6993" y1="59.6554" x2="97.4125" y2="42.2044" gradientUnits="userSpaceOnUse">
<stop stop-color="#FEBBBA"/>
<stop offset="1" stop-color="#FF928E"/>
</linearGradient>
<linearGradient id="paint40_linear_139_1176" x1="75.9935" y1="-57.5125" x2="73.3491" y2="-73.0544" gradientUnits="userSpaceOnUse">
<stop stop-color="#E1473D"/>
<stop offset="1" stop-color="#E9605A"/>
</linearGradient>
<linearGradient id="paint41_linear_139_1176" x1="93.5498" y1="60.6702" x2="99.2629" y2="43.2192" gradientUnits="userSpaceOnUse">
<stop stop-color="#FEBBBA"/>
<stop offset="1" stop-color="#FF928E"/>
</linearGradient>
<linearGradient id="paint42_linear_139_1176" x1="81.7823" y1="54.3469" x2="93.8863" y2="71.0781" gradientUnits="userSpaceOnUse">
<stop stop-color="#FEBBBA"/>
<stop offset="1" stop-color="#FF928E"/>
</linearGradient>
<linearGradient id="paint43_linear_139_1176" x1="78.4415" y1="48.2454" x2="76.2042" y2="48.2454" gradientUnits="userSpaceOnUse">
<stop stop-color="#FEBBBA"/>
<stop offset="1" stop-color="#FF928E"/>
</linearGradient>
<linearGradient id="paint44_linear_139_1176" x1="103.468" y1="119.331" x2="86.6449" y2="68.8609" gradientUnits="userSpaceOnUse">
<stop stop-color="#4F52FF"/>
<stop offset="1" stop-color="#4042E2"/>
</linearGradient>
<linearGradient id="paint45_linear_139_1176" x1="110.568" y1="116.965" x2="93.745" y2="66.4945" gradientUnits="userSpaceOnUse">
<stop stop-color="#4F52FF"/>
<stop offset="1" stop-color="#4042E2"/>
</linearGradient>
<linearGradient id="paint46_linear_139_1176" x1="94.2722" y1="67.28" x2="97.0164" y2="92.7407" gradientUnits="userSpaceOnUse">
<stop stop-color="#FE7062"/>
<stop offset="1" stop-color="#FF928E"/>
</linearGradient>
<linearGradient id="paint47_linear_139_1176" x1="114.323" y1="48.7489" x2="108.36" y2="63.7983" gradientUnits="userSpaceOnUse">
<stop stop-color="#09005D"/>
<stop offset="1" stop-color="#1A0F91"/>
</linearGradient>
<linearGradient id="paint48_linear_139_1176" x1="100.982" y1="85.1741" x2="100.414" y2="58.388" gradientUnits="userSpaceOnUse">
<stop stop-color="#09005D"/>
<stop offset="1" stop-color="#1A0F91"/>
</linearGradient>
<linearGradient id="paint49_linear_139_1176" x1="98.0569" y1="85.2362" x2="97.489" y2="58.4501" gradientUnits="userSpaceOnUse">
<stop stop-color="#09005D"/>
<stop offset="1" stop-color="#1A0F91"/>
</linearGradient>
<linearGradient id="paint50_linear_139_1176" x1="97.784" y1="72.4137" x2="104.632" y2="72.4137" gradientUnits="userSpaceOnUse">
<stop stop-color="#FEBBBA"/>
<stop offset="1" stop-color="#FF928E"/>
</linearGradient>
<linearGradient id="paint51_linear_139_1176" x1="44.0056" y1="111.922" x2="31.2277" y2="88.9214" gradientUnits="userSpaceOnUse">
<stop stop-color="#4F52FF"/>
<stop offset="1" stop-color="#4042E2"/>
</linearGradient>
</defs>
</svg>
