<svg width="161" height="104" viewBox="0 0 161 104" fill="none" xmlns="http://www.w3.org/2000/svg">
<g clip-path="url(#clip0_116_682)">
<path d="M54.0687 103.058C61.4158 103.419 136.077 102.935 138.883 103.076C123.704 80.5729 108.798 57.1987 93.2361 34.652C78.2292 56.4503 64.8168 79.1027 54.0687 103.058Z" fill="white"/>
<path d="M73.3649 103.956C63.5957 103.956 56.1276 103.921 54.0183 103.815C53.7357 103.798 53.4834 103.674 53.3321 103.463C53.1807 103.26 53.1504 103.005 53.2513 102.776C63.2324 80.5289 76.0594 58.1143 92.4793 34.2558C92.6408 34.0269 92.9233 33.886 93.2261 33.886C93.5289 33.886 93.8114 34.0269 93.9729 34.2558C103.126 47.5144 112.179 61.2484 120.929 74.5335C127.045 83.8127 133.372 93.4089 139.619 102.679C139.781 102.917 139.781 103.225 139.609 103.463C139.438 103.701 139.145 103.842 138.812 103.824C137.763 103.771 125.803 103.815 111.947 103.859C99.1905 103.912 84.7285 103.956 73.3649 103.956ZM55.3303 102.336C62.6269 102.503 90.9352 102.415 111.967 102.345C123.785 102.31 133.564 102.274 137.349 102.292C131.344 93.3737 125.289 84.1913 119.435 75.2994C110.928 62.3841 102.127 49.0375 93.2463 36.131C77.4723 59.1531 65.0591 80.837 55.3303 102.336Z" fill="black"/>
<path d="M93.2362 34.652C86.9488 42.7603 81.2367 53.3162 77.9568 58.1231C80.7422 58.6601 83.3661 55.8165 86.1818 56.2038C87.736 56.4239 88.3819 58.8714 92.4288 58.8714C97.5657 58.8714 97.7171 56.8025 100.24 56.151C103.328 55.3498 105.861 56.7409 108.899 57.6653C103.49 48.9406 98.6456 41.4398 93.2362 34.652Z" fill="white"/>
<path d="M92.4389 59.6373C89.5021 59.6373 88.069 58.44 87.1204 57.6477C86.7066 57.3043 86.3433 56.9962 86.0506 56.9609C84.9506 56.8113 83.7698 57.3219 82.5285 57.8678C81.0349 58.5192 79.4908 59.1971 77.7751 58.8714C77.5026 58.8186 77.2705 58.6513 77.1595 58.4312C77.0485 58.2023 77.0687 57.947 77.21 57.7357C78.31 56.1158 79.7027 53.8356 81.3073 51.1944C84.4359 46.0354 88.3415 39.6173 92.5096 34.2294C92.671 34.0181 92.9435 33.8948 93.2261 33.8948C93.4986 33.8948 93.7812 34.0181 93.9527 34.2206C99.2006 40.8059 103.863 47.937 109.686 57.3131C109.858 57.586 109.817 57.9294 109.585 58.1671C109.353 58.4048 108.97 58.4928 108.637 58.396C107.981 58.1935 107.345 57.9734 106.739 57.7621C104.549 56.9962 102.662 56.3359 100.523 56.8905C99.786 57.0842 99.2713 57.4364 98.6859 57.8413C97.4951 58.6337 96.0519 59.6373 92.4389 59.6373ZM85.6368 55.4027C85.869 55.4027 86.1011 55.4203 86.3332 55.4467C87.1608 55.5611 87.736 56.0365 88.3314 56.5384C89.2094 57.2691 90.2086 58.1055 92.4389 58.1055C95.4363 58.1055 96.4758 57.3923 97.5859 56.6264C98.252 56.1686 98.9483 55.6844 100.008 55.4115C102.592 54.7424 104.842 55.4467 107.012 56.2038C101.996 48.1835 97.8079 41.8359 93.2463 35.999C89.3911 41.114 85.7882 47.0566 82.8514 51.8899C81.5899 53.9676 80.4596 55.8253 79.4908 57.3219C80.2174 57.1634 80.9642 56.8377 81.7413 56.4943C82.9826 55.9573 84.2441 55.4027 85.6368 55.4027Z" fill="black"/>
<path d="M12.0554 103.058C12.0554 103.058 66.5022 102.996 74.3741 102.996C65.4022 86.9997 56.1276 70.0699 44.8648 54.3462C33.0672 70.6597 23.6411 87.0349 12.0554 103.058Z" fill="#ACD4F7"/>
<path d="M12.0554 103.824C11.7426 103.824 11.4499 103.674 11.2884 103.428C11.1371 103.181 11.1472 102.891 11.3187 102.653C17.0712 94.6943 22.3998 86.4803 27.5569 78.5392C32.7846 70.4749 38.194 62.1464 44.1281 53.9324C44.2896 53.7123 44.5621 53.5803 44.8648 53.5803C45.1676 53.5803 45.4401 53.7123 45.6016 53.9412C56.0267 68.494 64.6958 83.9888 73.0823 98.973L75.1512 102.662C75.2824 102.899 75.2622 103.172 75.1108 103.401C74.9494 103.621 74.6668 103.762 74.3741 103.762C66.5931 103.762 12.6004 103.824 12.0554 103.824ZM44.8547 55.7812C39.2334 63.6255 34.0663 71.5842 29.0707 79.2963C24.1559 86.8677 19.0896 94.6767 13.6298 102.301C22.1778 102.292 62.7783 102.248 72.9713 102.239L71.518 99.6421C63.3435 85.0453 54.9065 69.973 44.8547 55.7812Z" fill="black"/>
<path d="M94.5785 2.38583C94.306 8.53973 94.0436 14.6936 93.8619 21.0412C105.226 19.0515 116.579 17.0619 127.943 15.0722C117.457 10.6262 106.77 6.53245 94.5785 2.38583Z" fill="white"/>
<path d="M93.8619 21.7984C93.6601 21.7984 93.4582 21.7367 93.2967 21.6223C93.0949 21.4726 92.9839 21.2525 92.9839 21.0236C93.1655 14.632 93.438 8.39008 93.7004 2.35063C93.7105 2.10412 93.8619 1.87522 94.094 1.74316C94.3261 1.61111 94.6289 1.58469 94.8913 1.67273C106.79 5.72251 117.417 9.76348 128.316 14.3943C128.649 14.5352 128.851 14.8521 128.801 15.1779C128.75 15.5036 128.478 15.7589 128.104 15.8293L94.0234 21.7984C93.9729 21.7984 93.9124 21.7984 93.8619 21.7984ZM95.406 3.47752C95.1739 8.87429 94.9317 14.4295 94.7601 20.0992L125.218 14.7641C115.52 10.7143 105.952 7.09591 95.406 3.47752Z" fill="black"/>
<path d="M159.622 104L1.36792 103.674C0.883499 103.674 0.5 103.331 0.5 102.908C0.5 102.486 0.893592 102.151 1.36792 102.151L159.622 102.477C160.106 102.477 160.49 102.82 160.49 103.243C160.49 103.665 160.106 104 159.622 104Z" fill="black"/>
<path d="M93.206 35.4443C93.1959 35.4443 93.1858 35.4443 93.1757 35.4443C92.6913 35.4267 92.3179 35.0746 92.328 34.6608L93.6298 0.739517C93.65 0.316932 94.0638 -0.0176146 94.5381 -6.91123e-06C95.0225 0.0176008 95.396 0.369755 95.3859 0.783537L94.084 34.7048C94.0638 35.1186 93.6803 35.4443 93.206 35.4443Z" fill="black"/>
<path d="M55.0075 69.5681C53.7762 70.2548 51.4046 71.1 50.022 70.7214C48.3568 70.2636 47.2668 68.3268 45.5411 68.5204C44.1383 68.6789 43.3915 70.1844 42.0694 70.6334C39.7684 71.4081 37.2858 68.6613 35.0352 69.5505C34.2581 69.8586 33.7434 70.5365 33.4407 71.1968C37.2454 65.6944 41.0602 60.1832 45.0163 54.6191C48.5889 59.3468 51.9496 64.2858 55.0075 69.5681Z" fill="white"/>
<path d="M33.4507 71.954C33.3195 71.954 33.1883 71.9275 33.0571 71.8747C32.6534 71.6986 32.4718 71.2761 32.6333 70.9063C32.8149 70.5101 33.0975 70.0347 33.5012 69.6297C36.993 64.5851 40.5959 59.3908 44.2795 54.2142C44.441 53.9941 44.7135 53.862 45.0062 53.8532C45.3089 53.8708 45.5814 53.9765 45.7429 54.1966C49.6082 59.338 52.8881 64.2506 55.7744 69.2336C55.9763 69.5857 55.8451 70.0083 55.4616 70.2196C54.1092 70.9767 51.4651 71.9275 49.7394 71.4521C48.8613 71.2144 48.1549 70.6686 47.5292 70.202C46.7218 69.5857 46.1869 69.2247 45.6319 69.2864C45.1475 69.3392 44.7135 69.7178 44.2089 70.158C43.7043 70.5982 43.129 71.0912 42.362 71.3553C40.8785 71.8571 39.4555 71.2761 38.194 70.7742C37.094 70.334 36.1554 69.9555 35.3783 70.2548C35.1967 70.3252 35.0352 70.4397 34.8939 70.5629C34.6517 70.9063 34.4095 71.2584 34.1773 71.6018C34.0361 71.8219 33.7434 71.954 33.4507 71.954ZM45.7933 67.7369C46.9943 67.7369 47.8925 68.4236 48.6999 69.0399C49.2448 69.4537 49.7494 69.841 50.2843 69.9907C51.0715 70.2108 52.6156 69.8234 53.8569 69.2688C51.2834 64.8844 48.3971 60.5353 45.0465 56.0278C42.0593 60.2448 39.1225 64.4707 36.2563 68.6085C37.205 68.6613 38.1133 69.0311 38.9509 69.3656C39.9904 69.7794 40.9693 70.1756 41.7565 69.9115C42.1804 69.7706 42.574 69.4272 42.9978 69.0575C43.6336 68.5028 44.3603 67.8778 45.43 67.7545C45.5511 67.7457 45.6722 67.7369 45.7933 67.7369Z" fill="black"/>
<path d="M68.9446 85.6087C68.9042 85.6087 68.8538 85.5999 68.8134 85.5823C68.6721 85.5207 68.6116 85.3622 68.6923 85.2389C73.3145 77.5003 77.8559 69.5593 82.1955 61.6622C82.2661 61.539 82.4377 61.4861 82.579 61.539C82.7203 61.6006 82.7808 61.7502 82.7203 61.8735C78.3807 69.7794 73.8393 77.7204 69.2171 85.4678C69.1464 85.5559 69.0455 85.6087 68.9446 85.6087Z" fill="black"/>
<path d="M73.4255 89.6761C73.3851 89.6761 73.3447 89.6673 73.3044 89.6497C73.1631 89.5881 73.0924 89.4384 73.1631 89.3151C78.0073 80.0623 83.2047 70.8006 88.604 61.7767C88.6746 61.6534 88.8563 61.6094 88.9976 61.671C89.1389 61.7327 89.1994 61.8911 89.1187 62.0144C83.7194 71.0207 78.5321 80.2824 73.6879 89.5264C73.6374 89.6233 73.5365 89.6761 73.4255 89.6761Z" fill="black"/>
<path d="M77.1696 96.816C77.1292 96.816 77.0888 96.8072 77.0485 96.7896C76.9072 96.728 76.8466 96.5783 76.9072 96.4551C83.0936 85.1509 89.0984 73.5827 94.7298 62.076C94.7904 61.9439 94.9619 61.8911 95.1133 61.9439C95.2647 61.9968 95.3252 62.1464 95.2647 62.2785C89.6232 73.7939 83.6285 85.371 77.432 96.684C77.3815 96.7632 77.2806 96.816 77.1696 96.816Z" fill="black"/>
<path d="M83.023 100.003C82.9826 100.003 82.9422 99.9942 82.9019 99.9854C82.7505 99.9326 82.6899 99.7829 82.7505 99.6509L102.359 60.773C102.42 60.641 102.602 60.5881 102.743 60.641C102.894 60.6938 102.955 60.8435 102.894 60.9755L83.2854 99.8534C83.2349 99.9502 83.134 100.003 83.023 100.003Z" fill="black"/>
<path d="M92.9234 98.6736C92.8932 98.6736 92.8528 98.6648 92.8225 98.656C92.6711 98.6032 92.6005 98.4623 92.661 98.3303C97.3337 87.8361 102.188 77.2538 107.103 66.8653C107.163 66.7332 107.335 66.6716 107.486 66.7244C107.638 66.7773 107.708 66.9269 107.648 67.059C102.743 77.4387 97.8786 88.021 93.2161 98.5152C93.1555 98.612 93.0445 98.6736 92.9234 98.6736Z" fill="black"/>
<path d="M100.291 98.8673C100.26 98.8673 100.23 98.8585 100.2 98.8497C100.048 98.8057 99.9676 98.656 100.018 98.524C103.53 89.6849 107.446 80.8458 111.674 72.2533C111.735 72.1212 111.907 72.0684 112.058 72.1212C112.209 72.174 112.27 72.3237 112.209 72.4557C107.991 81.0395 104.075 89.8698 100.573 98.7C100.523 98.7969 100.412 98.8673 100.291 98.8673Z" fill="black"/>
<path d="M108.051 98.5328C108.021 98.5328 107.991 98.524 107.961 98.5152C107.809 98.4712 107.728 98.3215 107.779 98.1894L116.044 77.1746C116.095 77.0426 116.266 76.9721 116.418 77.0162C116.569 77.0602 116.65 77.2098 116.599 77.3419L108.334 98.3567C108.284 98.4624 108.173 98.5328 108.051 98.5328Z" fill="black"/>
<path d="M114.944 98.6121C114.914 98.6121 114.884 98.6121 114.853 98.6033C114.702 98.5592 114.621 98.4184 114.662 98.2863L119.708 84.6844C119.758 84.5523 119.92 84.4819 120.071 84.5171C120.222 84.5611 120.303 84.702 120.263 84.834L115.217 98.436C115.186 98.5416 115.075 98.6121 114.944 98.6121Z" fill="black"/>
<path d="M120.697 99.1843C120.667 99.1843 120.646 99.1843 120.616 99.1755C120.465 99.1403 120.374 98.9906 120.424 98.8586C121.413 95.9445 122.493 93.0216 123.634 90.1603C123.684 90.0283 123.856 89.9579 124.007 90.0019C124.158 90.0459 124.239 90.1956 124.189 90.3276C123.048 93.1801 121.968 96.0941 120.989 98.9994C120.929 99.1139 120.818 99.1843 120.697 99.1843Z" fill="black"/>
<path d="M127.014 99.1931C126.984 99.1931 126.944 99.1843 126.913 99.1755C126.762 99.1315 126.681 98.9818 126.742 98.8498L128.236 95.2842C128.296 95.1521 128.458 95.0817 128.609 95.1345C128.76 95.1785 128.841 95.3282 128.781 95.4603L127.287 99.0258C127.247 99.1227 127.135 99.1931 127.014 99.1931Z" fill="black"/>
<g opacity="0.1294">
<path d="M97.3033 3.8913C97.2629 1.90163 93.872 1.90163 93.8215 3.8913C94.1243 8.60137 93.3371 13.285 93.3472 17.9863C93.0242 19.6502 95.4766 20.557 96.5161 19.0956C96.8189 18.673 96.7482 18.1712 96.7482 17.6958C96.7381 16.5601 96.7482 15.4244 96.829 14.2887C97.162 10.8287 97.4143 7.36002 97.3033 3.8913Z" fill="black"/>
</g>
<g opacity="0.1294">
<path d="M137.611 100.47C137.48 100.311 137.177 99.9502 137.046 99.8093C136.975 99.7301 136.925 99.6773 136.884 99.6333C135.29 97.7228 133.806 95.742 132.484 93.673C127.973 86.8148 122.725 80.4056 118.477 73.3801C116.832 70.6157 115.277 67.8073 113.572 65.0605C113.501 64.77 113.299 64.4971 113.118 64.2329C111.029 61.1692 109.333 57.9206 107.405 54.7776C105.175 51.0271 102.672 47.4088 100.341 43.7023C99.9979 42.7779 99.019 42.6371 98.3529 42.954C97.5556 41.563 96.7482 40.1896 95.9409 38.8074C95.4867 38.015 95.0225 37.2139 94.5986 36.4127C94.3968 36.0782 94.316 35.6556 93.9225 35.4355C92.8527 34.652 91.2783 35.8581 92.005 36.9058C93.3169 39.5821 94.8913 42.1529 96.3345 44.7764C97.5152 47.0918 98.7566 49.372 100.25 51.5466C101.845 54.1613 103.419 56.7849 105.054 59.3732C105.074 59.4084 105.084 59.4348 105.104 59.4701C108.647 64.7964 111.382 70.5013 114.914 75.8188C118.81 81.6118 122.897 87.2991 127.186 92.8719C128.205 94.2101 129.053 95.6363 130.042 96.9833C131.122 98.3303 132.182 99.6949 133.231 101.059C133.877 101.729 134.331 102.679 135.3 103.032C136.491 103.56 138.025 102.635 137.985 101.491C137.985 101.112 137.863 100.769 137.611 100.47Z" fill="black"/>
</g>
<g opacity="0.1294">
<path d="M75.3934 98.6824C72.8805 94.2013 70.3877 89.7113 68.0161 85.1685C67.572 84.3321 67.1179 83.5046 66.6738 82.6594C66.4922 82.3161 66.3408 81.9287 65.9472 81.7262C64.6453 80.7666 62.5966 81.9815 63.0911 83.3989C63.6967 84.6667 64.2719 85.8728 64.8472 87.0702C64.7261 86.8589 64.6049 86.6476 64.4838 86.4363C62.1021 82.6946 59.6901 78.9706 57.5607 75.1145C55.9157 72.3765 54.0083 69.7706 52.333 67.0502C50.1934 62.9476 47.6704 59.2588 46.3282 55.8869C45.7226 54.0733 42.5638 54.7952 43.1088 56.6616C44.1281 59.426 45.6924 61.9968 47.0245 64.6467C48.498 67.7369 49.9008 70.3956 52.6055 74.7359C55.0477 79.0586 57.3992 83.4254 60.2553 87.5632C61.8397 89.9754 63.081 92.5462 64.4536 95.0641C65.3921 96.6047 66.4821 98.075 67.5216 99.5716C68.1069 100.382 68.8033 101.13 69.3684 101.949C69.651 102.266 69.8326 102.653 70.2262 102.873C70.7914 103.313 71.6997 103.331 72.3355 103.005C72.7291 102.785 72.9814 102.521 73.1227 102.222C73.1933 102.301 73.2539 102.389 73.3245 102.468C73.3548 102.495 73.3649 102.512 73.3851 102.539C73.4961 102.671 73.6172 102.794 73.7787 102.882C74.9796 103.806 77.0081 102.899 76.9678 101.526C76.9072 100.426 75.8173 99.6597 75.3934 98.6824Z" fill="black"/>
</g>
</g>
<defs>
<clipPath id="clip0_116_682">
<rect width="160" height="104" fill="white" transform="translate(0.5)"/>
</clipPath>
</defs>
</svg>
