<svg width="145" height="140" viewBox="0 0 145 140" fill="none" xmlns="http://www.w3.org/2000/svg">
<g clip-path="url(#clip0_139_622)">
<g clip-path="url(#clip1_139_622)">
<path d="M147.167 109.719H-2.83301V109.794H147.167V109.719Z" fill="#EBEBEB" fill-opacity="0.1"/>
<path d="M132.137 114.548H122.201V114.623H132.137V114.548Z" fill="#EBEBEB" fill-opacity="0.1"/>
<path d="M118.423 114.548H97.1813V114.623H118.423V114.548Z" fill="#EBEBEB" fill-opacity="0.1"/>
<path d="M85.467 111.762H79.7094V111.837H85.467V111.762Z" fill="#EBEBEB" fill-opacity="0.1"/>
<path d="M23.1917 112.267H12.9047V112.342H23.1917V112.267Z" fill="#EBEBEB" fill-opacity="0.1"/>
<path d="M44.5669 112.267H25.8625V112.342H44.5669V112.267Z" fill="#EBEBEB" fill-opacity="0.1"/>
<path d="M64.7111 113.533H53.6669V113.608H64.7111V113.533Z" fill="#EBEBEB" fill-opacity="0.1"/>
<path d="M98.2666 108.035H103.819V67.6656H98.2666V108.035Z" fill="#F0F0F0" fill-opacity="0.1"/>
<path d="M41.5811 109.719L102.753 109.719V108.036L41.5811 108.036V109.719Z" fill="#F0F0F0" fill-opacity="0.1"/>
<path d="M98.2666 67.6658H40.5151V108.036H98.2666V67.6658Z" fill="#F5F5F5" fill-opacity="0.1"/>
<path d="M98.2666 67.6658H103.819V66.1964H98.2666V67.6658Z" fill="#E6E6E6" fill-opacity="0.1"/>
<path d="M98.2666 66.196H40.5151V67.6654H98.2666V66.196Z" fill="#F0F0F0" fill-opacity="0.1"/>
<path d="M96.2705 79.8396H42.5114V70.7502H96.2701V79.8396H96.2705ZM42.8849 79.4664H95.8973V71.1234H42.8849V79.4664Z" fill="#E0E0E0" fill-opacity="0.1"/>
<path d="M96.2705 104.951H42.5114V82.0684H96.2701V104.951H96.2705ZM42.8849 104.578H95.8973V82.4416H42.8849V104.578Z" fill="#E0E0E0" fill-opacity="0.1"/>
<path d="M49.7541 72.1321H89.0271V70.9369H49.7541V72.1321Z" fill="#E0E0E0" fill-opacity="0.1"/>
<path d="M49.7541 83.4504H89.0271V82.2552H49.7541V83.4504Z" fill="#E0E0E0" fill-opacity="0.1"/>
<path d="M123.438 108.648C123.193 108.648 122.993 108.448 122.993 108.203V38.8779C122.993 38.6334 123.193 38.4333 123.438 38.4333C123.682 38.4333 123.882 38.6334 123.882 38.8779V108.203C123.882 108.448 123.682 108.648 123.438 108.648Z" fill="#F5F5F5" fill-opacity="0.1"/>
<path d="M125.55 109.719H121.326V108.795C121.326 108.122 121.871 107.576 122.544 107.576H124.331C125.004 107.576 125.55 108.122 125.55 108.795V109.719Z" fill="#F0F0F0" fill-opacity="0.1"/>
<path d="M114.808 48.0852C114.808 48.0852 115.028 39.6021 123.438 39.6021C131.848 39.6021 132.067 48.0852 132.067 48.0852H114.808Z" fill="#E0E0E0" fill-opacity="0.1"/>
<path d="M20.8958 108.648C20.6513 108.648 20.4512 108.448 20.4512 108.203V38.8779C20.4512 38.6334 20.6513 38.4333 20.8958 38.4333C21.1403 38.4333 21.3404 38.6334 21.3404 38.8779V108.203C21.3404 108.448 21.1403 108.648 20.8958 108.648Z" fill="#F5F5F5" fill-opacity="0.1"/>
<path d="M23.0077 109.719H18.7837V108.795C18.7837 108.122 19.3294 107.576 20.0026 107.576H21.7888C22.462 107.576 23.0077 108.122 23.0077 108.795V109.719Z" fill="#F0F0F0" fill-opacity="0.1"/>
<path d="M12.2668 48.0852C12.2668 48.0852 12.4861 39.6021 20.896 39.6021C29.3059 39.6021 29.5255 48.0852 29.5255 48.0852H12.2668Z" fill="#E0E0E0" fill-opacity="0.1"/>
<path d="M82.9811 65.5601H61.6388V66.1961H82.9811V65.5601Z" fill="#E0E0E0" fill-opacity="0.1"/>
<path d="M82.9811 65.56H61.6388L63.6929 53.3416H85.0352L82.9811 65.56Z" fill="#E0E0E0" fill-opacity="0.1"/>
<path d="M82.5847 65.56H61.2424L63.2965 53.3416H84.6388L82.5847 65.56Z" fill="#EBEBEB" fill-opacity="0.1"/>
<path d="M62.0531 64.5996L63.7997 54.2106C63.8219 54.0786 63.9362 53.9817 64.0703 53.9817H83.5577C83.7275 53.9817 83.8565 54.1341 83.8283 54.3015L82.0817 64.6905C82.0595 64.8225 81.9452 64.9194 81.8111 64.9194H62.3237C62.1539 64.9194 62.0249 64.767 62.0531 64.5996Z" fill="#FAFAFA" fill-opacity="0.1"/>
<path d="M78.1522 65.5601H56.8099V66.1961H78.1522V65.5601Z" fill="#F0F0F0" fill-opacity="0.1"/>
<path d="M100.033 21.3271H43.4902V39.6022H100.033V21.3271Z" fill="#EBEBEB" fill-opacity="0.1"/>
<path d="M100.033 39.6021H100.844V21.327H100.033V39.6021Z" fill="#E0E0E0" fill-opacity="0.1"/>
<path d="M97.5575 23.8027H45.9662V37.1263H97.5575V23.8027Z" fill="white" fill-opacity="0.1"/>
<path d="M74.8663 30.4638L71.7611 27.3586L68.656 30.4638L71.7611 33.569L74.8663 30.4638Z" fill="#F5F5F5" fill-opacity="0.1"/>
<path d="M66.53 30.4638L63.4248 27.3586L60.3196 30.4638L63.4248 33.569L66.53 30.4638Z" fill="#F5F5F5" fill-opacity="0.1"/>
<path d="M58.1938 30.464L55.0886 27.3589L51.9835 30.464L55.0886 33.5692L58.1938 30.464Z" fill="#F5F5F5" fill-opacity="0.1"/>
<path d="M83.2026 30.4638L80.0974 27.3586L76.9923 30.4638L80.0974 33.569L83.2026 30.4638Z" fill="#F5F5F5" fill-opacity="0.1"/>
<path d="M91.5392 30.4636L88.4341 27.3584L85.3289 30.4636L88.4341 33.5687L91.5392 30.4636Z" fill="#F5F5F5" fill-opacity="0.1"/>
<path d="M72.167 123.268C104.292 123.268 130.334 121.748 130.334 119.872C130.334 117.995 104.292 116.475 72.167 116.475C40.0424 116.475 14.0002 117.995 14.0002 119.872C14.0002 121.748 40.0424 123.268 72.167 123.268Z" fill="#F5F5F5" fill-opacity="0.1"/>
<path d="M106.048 31.9141C106.147 30.4207 105.017 29.2102 103.524 29.2102H61.9931C60.4997 29.2102 59.2088 30.4207 59.1098 31.9141L58.1567 46.2883L52.1771 90.523C51.9752 92.0164 53.0222 93.2269 54.5156 93.2269H96.0464C97.5398 93.2269 98.9141 92.0164 99.116 90.523L105.096 46.2883L106.048 31.9141Z" fill="#407BFF"/>
<path opacity="0.2" d="M106.048 31.9141C106.147 30.4207 105.017 29.2102 103.524 29.2102H61.9931C60.4997 29.2102 59.2088 30.4207 59.1098 31.9141L58.1567 46.2883L52.1771 90.523C51.9752 92.0164 53.0222 93.2269 54.5156 93.2269H96.0464C97.5398 93.2269 98.9141 92.0164 99.116 90.523L105.096 46.2883L106.048 31.9141Z" fill="black" fill-opacity="0.1"/>
<path d="M94.568 93.2269H53.0372C51.5438 93.2269 50.4968 92.0164 50.6987 90.523L56.6783 46.2883H103.617L97.6373 90.523C97.4357 92.0164 96.0614 93.2269 94.568 93.2269Z" fill="#407BFF"/>
<path d="M68.1668 28.1599H61.9817V28.4599H68.1668V28.1599Z" fill="#407BFF"/>
<path d="M59.0556 28.7791L58.9314 28.5061C59.4375 28.2766 59.97 28.1602 60.5148 28.1602V28.4602C60.0129 28.4599 59.5221 28.5673 59.0556 28.7791Z" fill="#407BFF"/>
<path d="M102.045 29.21H60.5147C59.0213 29.21 57.7304 30.4205 57.6314 31.9139L56.6783 46.2881H103.617L104.57 31.9139C104.669 30.4208 103.539 29.21 102.045 29.21Z" fill="#407BFF"/>
<path opacity="0.9" d="M58.9973 42.7783L59.6642 32.7199C59.7164 31.9336 60.3959 31.2961 61.1822 31.2961H101.101C101.888 31.2961 102.483 31.9336 102.431 32.7199L101.764 42.7783C101.712 43.5646 101.032 44.2021 100.246 44.2021H60.3266C59.5403 44.2021 58.9451 43.5646 58.9973 42.7783Z" fill="white" fill-opacity="0.1"/>
<g opacity="0.4">
<path d="M98.2256 32.9452L97.7726 33.3676C97.7498 33.3889 97.7201 33.4006 97.6889 33.4006L95.2826 33.4012C95.2484 33.4012 95.2157 33.3868 95.1926 33.3619L94.8023 32.9398C94.7297 32.8612 94.7855 32.734 94.8923 32.734L98.1419 32.7334C98.2532 32.7328 98.3069 32.8693 98.2256 32.9452Z" fill="white"/>
<path d="M97.5888 40.7407L94.3392 40.7413C94.2279 40.7413 94.1742 40.6051 94.2555 40.5292L94.7073 40.1068C94.7301 40.0855 94.7601 40.0738 94.791 40.0738L97.1973 40.0732C97.2315 40.0732 97.2639 40.0873 97.2873 40.1125L97.6788 40.5346C97.7517 40.6132 97.6959 40.7407 97.5888 40.7407Z" fill="white"/>
<path d="M97.905 36.8213L97.6719 37.0379C97.6491 37.0589 97.6194 37.0706 97.5885 37.0706L94.773 37.0712C94.7016 37.0712 94.6455 37.0106 94.6506 36.9395L94.6815 36.5174C94.6863 36.4532 94.7394 36.4037 94.8039 36.4037L97.632 36.4031C97.6662 36.4031 97.6989 36.4175 97.722 36.4424L97.9119 36.6479C97.9575 36.6977 97.9545 36.7751 97.905 36.8213Z" fill="white"/>
<path d="M98.2887 37.05L98.0511 40.3077C98.0433 40.4148 97.9113 40.461 97.8387 40.3818L97.4499 39.9597C97.4268 39.9348 97.4154 39.9015 97.4178 39.8676L97.5939 37.4532C97.596 37.4223 97.6098 37.3935 97.6326 37.3725L98.0829 36.9516C98.1642 36.8754 98.2968 36.9387 98.2887 37.05Z" fill="white"/>
<path d="M98.5695 33.1969L98.3322 36.4543C98.3244 36.5614 98.1924 36.6073 98.1198 36.5284L97.731 36.1063C97.7079 36.0814 97.6965 36.0481 97.6989 36.0142L97.875 33.5995C97.8774 33.5686 97.8909 33.5398 97.9137 33.5188L98.364 33.0979C98.445 33.0223 98.5776 33.0856 98.5695 33.1969Z" fill="white"/>
</g>
<path opacity="0.4" d="M93.0228 42.0859C93.0381 41.8567 93.2385 41.6692 93.468 41.6692H98.5623C98.817 41.6692 99.0114 41.8771 98.9946 42.1312C98.9793 42.3604 98.7792 42.5479 98.5494 42.5479H93.4551C93.2004 42.5479 93.0057 42.34 93.0228 42.0859Z" fill="#EFE6FD"/>
<path opacity="0.4" d="M86.6447 42.0859C86.66 41.8567 86.8604 41.6692 87.0899 41.6692H92.1842C92.4389 41.6692 92.6333 41.8771 92.6165 42.1312C92.6012 42.3604 92.4011 42.5479 92.1713 42.5479H87.077C86.8223 42.5479 86.6276 42.34 86.6447 42.0859Z" fill="#EFE6FD"/>
<path opacity="0.4" d="M80.2668 42.0859C80.2821 41.8567 80.4825 41.6692 80.712 41.6692H85.8063C86.061 41.6692 86.2554 41.8771 86.2386 42.1312C86.2233 42.3604 86.0232 42.5479 85.7934 42.5479H80.6991C80.4444 42.5479 80.25 42.34 80.2668 42.0859Z" fill="#EFE6FD"/>
<path opacity="0.4" d="M73.8887 42.0859C73.904 41.8567 74.1044 41.6692 74.3339 41.6692H79.4282C79.6829 41.6692 79.8773 41.8771 79.8605 42.1312C79.8452 42.3604 79.6451 42.5479 79.4156 42.5479H74.3213C74.0663 42.5479 73.8719 42.34 73.8887 42.0859Z" fill="#EFE6FD"/>
<path opacity="0.1" d="M59.805 66.8125L61.6818 52.9294C61.806 52.0105 62.6517 51.2656 63.5706 51.2656H77.4537C78.3726 51.2656 79.017 52.0105 78.8928 52.9294L77.016 66.8125C76.8918 67.7314 76.0461 68.4763 75.1272 68.4763H61.2441C60.3252 68.4763 59.6808 67.7314 59.805 66.8125Z" fill="#263238"/>
<path opacity="0.1" d="M79.5786 66.8125L81.4554 52.9294C81.5796 52.0105 82.4253 51.2656 83.3442 51.2656H97.2273C98.1462 51.2656 98.7906 52.0105 98.6664 52.9294L96.7896 66.8125C96.6654 67.7314 95.8197 68.4763 94.9008 68.4763H81.0177C80.0985 68.4763 79.4544 67.7314 79.5786 66.8125Z" fill="#263238"/>
<path opacity="0.1" d="M57.1323 86.5857L59.0091 72.7026C59.1333 71.7837 59.979 71.0388 60.8979 71.0388H74.781C75.6999 71.0388 76.3443 71.7837 76.2201 72.7026L74.3433 86.5857C74.2191 87.5046 73.3734 88.2495 72.4545 88.2495H58.5714C57.6522 88.2495 57.0081 87.5046 57.1323 86.5857Z" fill="#263238"/>
<path opacity="0.1" d="M76.9056 86.5857L78.7824 72.7026C78.9066 71.7837 79.7523 71.0388 80.6712 71.0388H94.5543C95.4732 71.0388 96.1176 71.7837 95.9934 72.7026L94.1166 86.5857C93.9924 87.5046 93.1467 88.2495 92.2278 88.2495H78.3447C77.4258 88.2495 76.7814 87.5046 76.9056 86.5857Z" fill="#263238"/>
<path d="M58.8813 66.8125L60.7581 52.9294C60.8823 52.0105 61.728 51.2656 62.6469 51.2656H76.53C77.4489 51.2656 78.0933 52.0105 77.9691 52.9294L76.0923 66.8125C75.9681 67.7314 75.1224 68.4763 74.2035 68.4763H60.3204C59.4012 68.4763 58.7571 67.7314 58.8813 66.8125Z" fill="#407BFF"/>
<path opacity="0.2" d="M58.8813 66.8125L60.7581 52.9294C60.8823 52.0105 61.728 51.2656 62.6469 51.2656H76.53C77.4489 51.2656 78.0933 52.0105 77.9691 52.9294L76.0923 66.8125C75.9681 67.7314 75.1224 68.4763 74.2035 68.4763H60.3204C59.4012 68.4763 58.7571 67.7314 58.8813 66.8125Z" fill="white"/>
<path d="M78.6546 66.8125L80.5314 52.9294C80.6556 52.0105 81.5013 51.2656 82.4202 51.2656H96.3033C97.2222 51.2656 97.8666 52.0105 97.7424 52.9294L95.8656 66.8125C95.7414 67.7314 94.8957 68.4763 93.9768 68.4763H80.0937C79.1745 68.4763 78.5304 67.7314 78.6546 66.8125Z" fill="#407BFF"/>
<path opacity="0.2" d="M78.6546 66.8125L80.5314 52.9294C80.6556 52.0105 81.5013 51.2656 82.4202 51.2656H96.3033C97.2222 51.2656 97.8666 52.0105 97.7424 52.9294L95.8656 66.8125C95.7414 67.7314 94.8957 68.4763 93.9768 68.4763H80.0937C79.1745 68.4763 78.5304 67.7314 78.6546 66.8125Z" fill="white"/>
<path d="M56.2082 86.5857L58.085 72.7026C58.2092 71.7837 59.0549 71.0388 59.9738 71.0388H73.8569C74.7758 71.0388 75.4202 71.7837 75.296 72.7026L73.4192 86.5857C73.295 87.5046 72.4493 88.2495 71.5304 88.2495H57.6473C56.7281 88.2495 56.084 87.5046 56.2082 86.5857Z" fill="#407BFF"/>
<path opacity="0.2" d="M56.2082 86.5857L58.085 72.7026C58.2092 71.7837 59.0549 71.0388 59.9738 71.0388H73.8569C74.7758 71.0388 75.4202 71.7837 75.296 72.7026L73.4192 86.5857C73.295 87.5046 72.4493 88.2495 71.5304 88.2495H57.6473C56.7281 88.2495 56.084 87.5046 56.2082 86.5857Z" fill="white"/>
<path d="M75.9815 86.5857L77.8583 72.7026C77.9825 71.7837 78.8282 71.0388 79.7471 71.0388H93.6302C94.5491 71.0388 95.1935 71.7837 95.0693 72.7026L93.1925 86.5857C93.0683 87.5046 92.2226 88.2495 91.3037 88.2495H77.4206C76.5014 88.2495 75.8573 87.5046 75.9815 86.5857Z" fill="#407BFF"/>
<path opacity="0.2" d="M75.9815 86.5857L77.8583 72.7026C77.9825 71.7837 78.8282 71.0388 79.7471 71.0388H93.6302C94.5491 71.0388 95.1935 71.7837 95.0693 72.7026L93.1925 86.5857C93.0683 87.5046 92.2226 88.2495 91.3037 88.2495H77.4206C76.5014 88.2495 75.8573 87.5046 75.9815 86.5857Z" fill="white"/>
<path d="M67.6439 65.6474C66.7274 65.6474 66.0791 64.8977 66.203 63.9812L67.3142 55.7609C67.4381 54.8444 68.2892 54.0947 69.2057 54.0947C70.1222 54.0947 70.7705 54.8444 70.6466 55.7609L69.5354 63.9812C69.4115 64.8974 68.5604 65.6474 67.6439 65.6474Z" fill="white" fill-opacity="0.5"/>
<path d="M62.6487 59.871C62.7726 58.9545 63.6237 58.2048 64.5402 58.2048H72.7605C73.677 58.2048 74.3253 58.9545 74.2014 59.871C74.0775 60.7875 73.2264 61.5372 72.3099 61.5372H64.0896C63.1731 61.5372 62.5248 60.7875 62.6487 59.871Z" fill="white" fill-opacity="0.5"/>
<path d="M61.1154 83.729C60.555 83.081 60.6984 82.0205 61.434 81.3725L68.0322 75.56C68.7678 74.912 69.8283 74.912 70.3887 75.56C70.9491 76.208 70.8057 77.2685 70.0701 77.9165L63.4719 83.729C62.7363 84.377 61.6758 84.377 61.1154 83.729Z" fill="white" fill-opacity="0.5"/>
<path d="M62.2196 75.56C62.9552 74.912 64.0157 74.912 64.5761 75.56L69.6029 81.3725C70.1633 82.0205 70.0199 83.081 69.2843 83.729C68.5487 84.377 67.4882 84.377 66.9278 83.729L61.901 77.9165C61.3406 77.2682 61.484 76.208 62.2196 75.56Z" fill="white" fill-opacity="0.5"/>
<path d="M82.4219 59.871C82.5458 58.9545 83.3969 58.2048 84.3134 58.2048H92.5337C93.4502 58.2048 94.0985 58.9545 93.9746 59.871C93.8507 60.7875 92.9996 61.5372 92.0831 61.5372H83.8628C82.9466 61.5372 82.298 60.7875 82.4219 59.871Z" fill="white" fill-opacity="0.5"/>
<path d="M80.0991 77.0544C80.223 76.1379 81.0741 75.3882 81.9906 75.3882H90.2109C91.1274 75.3882 91.7757 76.1379 91.6518 77.0544C91.5279 77.9709 90.6768 78.7206 89.7603 78.7206H81.54C80.6238 78.7206 79.9755 77.9706 80.0991 77.0544Z" fill="white" fill-opacity="0.5"/>
<path d="M79.3988 82.2348C79.5227 81.3183 80.3738 80.5686 81.2903 80.5686H89.5106C90.4271 80.5686 91.0754 81.3183 90.9515 82.2348C90.8276 83.1513 89.9765 83.901 89.06 83.901H80.8397C79.9235 83.901 79.2749 83.151 79.3988 82.2348Z" fill="white" fill-opacity="0.5"/>
<path d="M37.1741 48.911C36.6347 49.9112 36.0794 50.9915 35.5727 52.0475C35.0549 53.1083 34.5773 54.1817 34.157 55.2593C34.0475 55.5284 33.9569 55.7981 33.8552 56.0681C33.8009 56.1947 33.7685 56.336 33.7523 56.5052C33.7232 56.8424 33.8099 57.2858 33.9821 57.7484C34.3343 58.6718 34.9949 59.6753 35.6774 60.5486L34.6559 61.7597C34.3472 61.5644 34.0964 61.3778 33.8327 61.1669C33.5732 60.9596 33.3188 60.7427 33.0794 60.5051C32.5964 60.0341 32.1467 59.5052 31.7639 58.8791C31.3856 58.2533 31.0634 57.5132 30.9788 56.624C30.935 56.1827 30.9692 55.7078 31.0871 55.2464C31.1735 54.9341 31.2515 54.6155 31.346 54.3077C31.7165 53.0693 32.1668 51.875 32.6759 50.7146C32.9336 50.1353 33.197 49.5605 33.4874 48.9986C33.7799 48.4307 34.0595 47.8859 34.4051 47.3105L37.1741 48.911Z" fill="#FF8B7B"/>
<path d="M35.2603 60.1992L36.769 60.5937L35.6548 62.7624C35.6548 62.7624 34.5388 62.3391 34.2607 61.3557L35.2603 60.1992Z" fill="#FF8B7B"/>
<path d="M38.8357 61.2796L37.4941 62.9803L35.6545 62.7625L36.769 60.5938L38.8357 61.2796Z" fill="#FF8B7B"/>
<path d="M44.248 37.4692C44.2819 37.636 44.3977 37.7533 44.5069 37.7311C44.6158 37.7089 44.6767 37.5559 44.6428 37.3891C44.6089 37.2223 44.4931 37.105 44.3839 37.1272C44.275 37.1494 44.2141 37.3027 44.248 37.4692Z" fill="#263238"/>
<path d="M44.3824 37.7566C44.3824 37.7566 44.9572 38.6416 45.469 39.0211C45.2299 39.3565 44.7025 39.3325 44.7025 39.3325L44.3824 37.7566Z" fill="#FF5652"/>
<path d="M44.6087 38.8912C44.1209 38.8912 43.6349 38.3572 43.4861 37.6243C43.4078 37.24 43.4324 36.8584 43.5551 36.5497C43.6802 36.2353 43.8917 36.0335 44.1512 35.9807C44.411 35.9282 44.6843 36.0313 44.9219 36.2719C45.1553 36.5083 45.3272 36.8501 45.4049 37.2344C45.4832 37.6187 45.4586 38.0003 45.3359 38.309C45.2108 38.6234 44.9993 38.8252 44.7398 38.878C44.6966 38.8867 44.6525 38.8912 44.6087 38.8912ZM44.2847 36.0424C44.2448 36.0424 44.2052 36.0464 44.1662 36.0545C43.9325 36.1019 43.7402 36.2878 43.6247 36.5776C43.5071 36.8731 43.484 37.2397 43.559 37.6096C43.7132 38.3677 44.2334 38.9062 44.7251 38.8045C44.9585 38.7571 45.1508 38.5711 45.2663 38.2813C45.3839 37.9858 45.407 37.6195 45.332 37.2493C45.2567 36.8791 45.092 36.5509 44.8688 36.3247C44.6858 36.1396 44.4824 36.0424 44.2847 36.0424Z" fill="#263238"/>
<path d="M60.0583 54.759L61.9819 54.3516L62.2309 56.9628C62.2309 56.9628 60.5695 57.2802 59.7733 55.9659L60.0583 54.759Z" fill="#FF8B7B"/>
<path d="M63.8002 54.9369L63.6775 56.841L62.2309 56.9628L61.9819 54.3516L63.8002 54.9369Z" fill="#FF8B7B"/>
<path d="M43.4492 36.6672C43.4249 36.6672 43.4006 36.6585 43.3814 36.6405C43.3409 36.603 43.3382 36.5397 43.376 36.4992C43.7513 36.093 44.2067 36.1653 44.2265 36.1686C44.2808 36.1779 44.3174 36.2295 44.3084 36.2838C44.2991 36.3381 44.2469 36.3744 44.1935 36.3657C44.1785 36.3633 43.8224 36.3111 43.523 36.6351C43.5029 36.6564 43.4762 36.6672 43.4492 36.6672Z" fill="#263238"/>
<path d="M39.6163 40.5049C39.919 42.0487 40.1017 44.1874 39.0217 45.2176C39.0217 45.2176 39.4438 46.7836 42.3121 46.7836C45.4663 46.7836 43.8295 45.4093 43.8295 45.4093C42.5185 45.0025 42.5299 43.5091 42.8296 42.3094L39.6163 40.5049Z" fill="#FF8B7B"/>
<path d="M42.8557 44.8417C43.564 44.3335 44.6131 43.7335 44.8306 44.3584C44.962 44.7355 45.0157 46.5667 44.287 46.4302C43.2097 46.2286 42.8557 44.8417 42.8557 44.8417Z" fill="#263238"/>
<path d="M38.4307 46.2498C38.1499 45.852 38.161 44.5953 38.461 44.3736C38.9452 44.0157 41.0161 43.9335 43.8058 44.5749C43.5052 45.7923 44.1487 46.4304 44.1487 46.4304L38.4307 46.2498Z" fill="#407BFF"/>
<path d="M29.0549 117.471C29.2664 117.517 29.4782 117.529 29.5802 117.442C29.6231 117.406 29.666 117.336 29.6285 117.21C29.6087 117.144 29.5655 117.094 29.4998 117.063C29.2148 116.927 28.5602 117.194 28.5323 117.205C28.5143 117.213 28.502 117.23 28.5014 117.25C28.5008 117.27 28.5119 117.288 28.5296 117.297C28.6298 117.345 28.8422 117.425 29.0549 117.471ZM29.3981 117.134C29.4197 117.139 29.4392 117.145 29.4569 117.153C29.4965 117.172 29.5214 117.2 29.5328 117.239C29.5595 117.329 29.5262 117.357 29.5151 117.366C29.4017 117.463 28.9802 117.374 28.6835 117.255C28.8848 117.184 29.2106 117.093 29.3981 117.134Z" fill="#407BFF"/>
<path d="M28.5407 117.3C28.5488 117.302 28.5572 117.302 28.5653 117.3C28.8038 117.23 29.3141 116.867 29.3204 116.628C29.3216 116.585 29.3063 116.506 29.1926 116.466C29.1188 116.441 29.0444 116.447 28.9709 116.484C28.6889 116.628 28.5107 117.213 28.5032 117.237C28.4978 117.255 28.5026 117.274 28.5155 117.287C28.523 117.294 28.5317 117.298 28.5407 117.3ZM29.138 116.554C29.1452 116.556 29.1527 116.558 29.1599 116.561C29.2217 116.582 29.2208 116.613 29.2205 116.625C29.2169 116.767 28.8803 117.051 28.6331 117.167C28.6949 116.998 28.8359 116.665 29.0165 116.573C29.0579 116.552 29.0978 116.546 29.138 116.554Z" fill="#407BFF"/>
<path d="M44.6339 117.825C44.9048 117.825 45.1664 117.788 45.254 117.666C45.2846 117.624 45.3089 117.551 45.2498 117.448C45.2168 117.39 45.1634 117.35 45.0914 117.331C44.7401 117.235 44.0027 117.655 43.9715 117.673C43.9535 117.684 43.9439 117.704 43.9472 117.725C43.9505 117.745 43.9664 117.762 43.9868 117.766C44.1215 117.793 44.3819 117.825 44.6339 117.825ZM44.9687 117.416C45.0038 117.416 45.0365 117.42 45.0653 117.427C45.1115 117.44 45.1433 117.463 45.1631 117.497C45.1985 117.559 45.1856 117.59 45.1727 117.608C45.0746 117.744 44.5412 117.747 44.1488 117.692C44.3447 117.591 44.7221 117.416 44.9687 117.416Z" fill="#407BFF"/>
<path d="M43.9967 117.767C44.0036 117.767 44.0105 117.765 44.0171 117.762C44.2718 117.648 44.7764 117.192 44.7377 116.953C44.7287 116.897 44.6888 116.827 44.5517 116.813C44.4491 116.803 44.3564 116.832 44.2745 116.899C44.006 117.12 43.9493 117.688 43.9469 117.712C43.9451 117.73 43.9529 117.747 43.9676 117.757C43.9763 117.763 43.9865 117.767 43.9967 117.767ZM44.5115 116.911C44.5214 116.911 44.5313 116.912 44.5415 116.913C44.6315 116.922 44.6372 116.957 44.639 116.969C44.6621 117.112 44.3195 117.471 44.0594 117.627C44.0864 117.461 44.1617 117.121 44.3378 116.976C44.3909 116.933 44.4482 116.911 44.5115 116.911Z" fill="#407BFF"/>
<path d="M41.6761 117.717H43.7863L43.9966 112.83H41.8864L41.6761 117.717Z" fill="#FF8B7B"/>
<path d="M26.1887 116.74L28.2509 117.186L30.3215 112.635L28.2593 112.188L26.1887 116.74Z" fill="#FF8B7B"/>
<path d="M28.4492 116.979L26.1323 116.478C26.048 116.46 25.9622 116.502 25.9262 116.581L25.1219 118.326C25.0385 118.506 25.1489 118.719 25.3445 118.758C26.1563 118.919 26.5595 118.956 27.5786 119.177C28.2056 119.313 29.6204 119.658 30.4862 119.845C31.3328 120.028 31.6502 119.201 31.3127 119.046C29.7989 118.355 29.1665 117.746 28.7567 117.178C28.6826 117.076 28.5725 117.006 28.4492 116.979Z" fill="#263238"/>
<path d="M43.7725 117.473H41.4682C41.3821 117.473 41.3074 117.533 41.2885 117.617L40.8718 119.492C40.8286 119.687 40.9762 119.871 41.1754 119.868C42.0067 119.853 43.2079 119.805 44.2528 119.805C45.4744 119.805 46.5295 119.871 47.9623 119.871C48.8284 119.871 49.069 118.995 48.7063 118.916C47.0554 118.555 45.7078 118.516 44.2813 117.637C44.1256 117.541 43.9546 117.473 43.7725 117.473Z" fill="#263238"/>
<path d="M35.2433 45.6945C33.2657 46.1478 31.6349 51.1968 31.6349 51.1968L35.6063 54.2238C35.6063 54.2238 37.064 52.8495 37.7126 50.3241C38.3927 47.6778 37.2656 45.231 35.2433 45.6945Z" fill="#407BFF"/>
<path opacity="0.4" d="M35.2433 45.6945C33.2657 46.1478 31.6349 51.1968 31.6349 51.1968L35.6063 54.2238C35.6063 54.2238 37.064 52.8495 37.7126 50.3241C38.3927 47.6778 37.2656 45.231 35.2433 45.6945Z" fill="white"/>
<path d="M47.1025 48.1033L50.4346 51.169C50.9887 51.6799 51.5455 52.1851 52.1026 52.6825C52.6552 53.1802 53.2198 53.6797 53.755 54.1126L53.2912 53.8636C53.5492 53.9575 53.8198 54.0511 54.1033 54.127C54.3883 54.2005 54.6838 54.2659 54.9853 54.3262C55.5916 54.4357 56.2243 54.5155 56.8696 54.5674C57.5152 54.6226 58.1737 54.6571 58.8388 54.6757C59.4994 54.6994 60.1888 54.7087 60.8377 54.7135L61.153 56.2663C60.4462 56.5291 59.7658 56.7193 59.053 56.8786C58.3444 57.0319 57.6235 57.142 56.8891 57.2098C56.1544 57.2707 55.4059 57.2908 54.6409 57.2404C53.875 57.1948 53.0923 57.0721 52.2934 56.8378L52.066 56.7712L51.8293 56.5888C51.1708 56.0815 50.5864 55.5859 49.9972 55.0813C49.4137 54.5749 48.8386 54.0664 48.2686 53.5552C47.1364 52.522 46.0114 51.4963 44.9083 50.4307L47.1025 48.1033Z" fill="#FF8B7B"/>
<path opacity="0.2" d="M36.9383 49.4072C35.864 50.4701 35.5136 52.406 35.4302 54.089L35.6054 54.224C35.6054 54.224 37.0646 52.8482 37.7138 50.3234C37.754 50.1656 37.7885 50.0075 37.8173 49.8524L36.9383 49.4072Z" fill="black" fill-opacity="0.1"/>
<path d="M47.741 47.8105C48.1724 50.0902 48.4424 54.7714 47.1899 64.042H35.9036C35.8259 62.3095 36.9146 53.8579 35.2433 45.6946C35.2433 45.6946 37.178 45.3064 39.0215 45.2176C40.4636 45.148 42.5516 45.1021 43.8194 45.2179C44.3486 45.2662 44.8679 45.3427 45.3308 45.4246C46.5512 45.6403 47.5106 46.5928 47.741 47.8105Z" fill="#407BFF"/>
<path opacity="0.4" d="M47.741 47.8105C48.1724 50.0902 48.4424 54.7714 47.1899 64.042H35.9036C35.8259 62.3095 36.9146 53.8579 35.2433 45.6946C35.2433 45.6946 37.178 45.3064 39.0215 45.2176C40.4636 45.148 42.5516 45.1021 43.8194 45.2179C44.3486 45.2662 44.8679 45.3427 45.3308 45.4246C46.5512 45.6403 47.5106 46.5928 47.741 47.8105Z" fill="white"/>
<path opacity="0.2" d="M46.0138 51.1798L48.0532 50.6914C48.1165 51.9265 48.1222 53.4574 48.0304 55.3504C47.0908 54.2818 45.8932 52.6159 46.0138 51.1798Z" fill="black" fill-opacity="0.1"/>
<path opacity="0.2" d="M43.9961 112.832L43.8881 115.35H41.7773L41.885 112.832H43.9961Z" fill="black" fill-opacity="0.1"/>
<path opacity="0.2" d="M28.2581 112.189L30.3215 112.636L29.2532 114.982L27.1898 114.535L28.2581 112.189Z" fill="black" fill-opacity="0.1"/>
<path d="M38.6131 38.2464C39.1552 40.2693 39.3697 41.4807 40.618 42.3219C42.4957 43.587 44.8333 42.135 44.9065 39.9909C44.9722 38.061 44.0746 35.0772 41.9038 34.6695C39.7654 34.2681 38.071 36.2235 38.6131 38.2464Z" fill="#FF8B7B"/>
<path d="M43.202 38.4C44.1488 38.2665 43.8782 37.1703 43.5224 36.6351C43.5224 36.6351 45.6368 34.0998 43.202 33.075C40.7669 32.0499 41.3669 33.6501 41.3669 33.6501C41.3669 33.6501 39.4676 32.2251 37.8173 33.375C36.167 34.5249 37.592 35.025 37.592 35.025C37.592 35.025 34.5866 35.9085 35.7893 37.4292C36.992 38.9499 38.228 38.7942 38.228 38.7942C38.228 38.7942 35.7419 39.7749 37.6421 40.875C39.542 41.9751 40.2383 42.0258 40.2383 42.0258C41.2802 42.1554 42.2633 41.5149 42.5663 40.5096L43.202 38.4Z" fill="#263238"/>
<path d="M42.3871 38.4072C42.4198 38.9547 42.6739 39.4698 42.9799 39.807C43.4398 40.3137 43.9198 39.9984 44.0014 39.381C44.0749 38.8254 43.924 37.8921 43.3615 37.6128C42.8074 37.3371 42.3499 37.7811 42.3871 38.4072Z" fill="#FF8B7B"/>
<path d="M43.1864 64.042C43.1864 64.042 40.7918 80.1679 39.4769 86.2093C38.0372 92.8252 30.3176 114.713 30.3176 114.713L26.5403 113.896C26.5403 113.896 31.9382 96.0583 33.1466 86.809C34.0748 79.7044 35.9036 64.042 35.9036 64.042H43.1864Z" fill="#263238"/>
<path d="M31.2221 113.453C31.2383 113.456 30.518 114.818 30.518 114.818L26.2682 113.898L26.6264 112.621L31.2221 113.453Z" fill="#407BFF"/>
<path opacity="0.3" d="M41.6728 69.7876C38.9038 70.3306 39.1969 80.6566 39.5299 85.9675C40.3285 82.2133 41.4973 74.9893 42.2959 69.8623C42.1123 69.7705 41.9053 69.7417 41.6728 69.7876Z" fill="black" fill-opacity="0.1"/>
<path d="M47.1899 64.042C47.1899 64.042 47.4806 79.819 47.2511 86.2537C47.0123 92.947 44.6747 114.863 44.6747 114.863H41.1002C41.1002 114.863 40.9691 93.3382 40.8101 86.7646C40.6367 79.5985 39.7715 64.042 39.7715 64.042H47.1899Z" fill="#263238"/>
<path d="M45.3622 113.439C45.3787 113.439 45.1606 114.923 45.1606 114.923H40.8124L40.6948 113.598L45.3622 113.439Z" fill="#407BFF"/>
<path d="M43.3181 48.5025C42.3062 51.2292 48.2507 54.441 48.2507 54.441L50.8241 51.1326C50.8241 51.1326 49.1072 47.7156 47.0003 46.1751C44.3975 44.2722 44.0882 46.4268 43.3181 48.5025Z" fill="#407BFF"/>
<path opacity="0.4" d="M43.3181 48.5025C42.3062 51.2292 48.2507 54.441 48.2507 54.441L50.8241 51.1326C50.8241 51.1326 49.1072 47.7156 47.0003 46.1751C44.3975 44.2722 44.0882 46.4268 43.3181 48.5025Z" fill="white"/>
<path d="M60.3962 55.5831C60.8035 55.5831 61.1336 55.335 61.1336 55.029C61.1336 54.7229 60.8035 54.4749 60.3962 54.4749C59.989 54.4749 59.6588 54.7229 59.6588 55.029C59.6588 55.335 59.989 55.5831 60.3962 55.5831Z" fill="#263238"/>
<path d="M60.1088 56.7915C60.0659 56.7915 60.0239 56.7732 59.9939 56.7381C59.9408 56.6751 59.9489 56.5809 60.0113 56.5275C60.0302 56.5107 60.4142 56.16 60.2492 55.3461C60.2327 55.2648 60.2852 55.1859 60.3665 55.1694C60.4484 55.1544 60.5267 55.2054 60.5435 55.2867C60.7463 56.2872 60.2279 56.7375 60.2057 56.7561C60.1772 56.7801 60.143 56.7915 60.1088 56.7915Z" fill="#263238"/>
<path opacity="0.4" d="M60.9955 54.9891C60.9955 55.2159 60.7271 55.3998 60.3962 55.3998C60.0653 55.3998 59.7968 55.2159 59.7968 54.9891C59.7968 54.7623 60.0653 54.5784 60.3962 54.5784C60.7271 54.5784 60.9955 54.7623 60.9955 54.9891Z" fill="white"/>
<path d="M44.2496 45.2418C42.8681 46.2282 40.4771 50.0427 40.0358 52.2945C40.0226 52.3614 39.935 52.3773 39.8987 52.3197C37.9001 49.1328 37.6697 45.87 37.6451 45.3393C37.643 45.2973 37.6079 45.267 37.5659 45.2706C37.3619 45.2874 36.8042 45.3369 36.5621 45.3942C36.5279 45.4023 36.5054 45.4353 36.5069 45.4704C36.6863 49.7253 38.8286 52.9797 39.6626 53.9793C39.6746 53.9934 39.6797 54.0096 39.6785 54.0282C39.4934 57.4044 39.7382 63.4362 39.7685 64.1547C39.7703 64.1946 39.803 64.2252 39.8429 64.2252H40.7387C40.7816 64.2252 40.8155 64.1913 40.8131 64.1484C40.7732 63.4563 40.4915 58.2153 40.8173 53.9172C40.8176 53.9142 40.8179 53.9115 40.8182 53.9088C41.3234 50.7102 44.357 46.3881 45.4217 45.531C45.47 45.492 45.4514 45.4161 45.3911 45.4026C44.9408 45.3033 44.4227 45.2421 44.3003 45.2283C44.2808 45.2262 44.2649 45.2307 44.2496 45.2418Z" fill="#407BFF"/>
</g>
</g>
<defs>
<clipPath id="clip0_139_622">
<rect width="144" height="140" fill="white" transform="translate(0.5)"/>
</clipPath>
<clipPath id="clip1_139_622">
<rect width="150" height="150" fill="white" transform="translate(-2.83301 -5)"/>
</clipPath>
</defs>
</svg>
