<svg width="180" height="138" viewBox="0 0 180 138" fill="none" xmlns="http://www.w3.org/2000/svg">
<path d="M54.1974 94.708C56.6244 95.3995 59.1881 95.458 61.6442 94.8778C64.1002 94.2976 66.3668 93.0982 68.2278 91.3937C72.0098 87.9616 77.2095 86.4665 82.0815 86.7169C90.7649 87.133 98.5461 91.762 105.779 95.0763C109.137 96.6229 112.61 98.1143 116.421 98.8361C125.627 100.593 134.009 96.0484 140.8 89.4862C154.793 75.975 158.494 53.7067 154.259 38.299C151.483 28.2088 137.279 8.33418 118.807 10.2933C101.282 12.1567 111.836 37.5625 95.2613 40.0334C76.9481 42.7659 76.2999 14.1563 53.8623 18.045C33.6083 21.5582 23.5219 39.5363 29.8485 54.2812C32.9381 61.4805 38.8523 67.1479 42.0008 74.2736C45.3814 81.9222 43.8826 91.6036 54.1974 94.708Z" fill="#90CAF9"/>
<path opacity="0.8" d="M54.1974 94.708C56.6244 95.3995 59.1881 95.458 61.6442 94.8778C64.1002 94.2976 66.3668 93.0982 68.2278 91.3937C72.0098 87.9616 77.2095 86.4665 82.0815 86.7169C90.7649 87.133 98.5461 91.762 105.779 95.0763C109.137 96.6229 112.61 98.1143 116.421 98.8361C125.627 100.593 134.009 96.0484 140.8 89.4862C154.793 75.975 158.494 53.7067 154.259 38.299C151.483 28.2088 137.279 8.33418 118.807 10.2933C101.282 12.1567 111.836 37.5625 95.2613 40.0334C76.9481 42.7659 76.2999 14.1563 53.8623 18.045C33.6083 21.5582 23.5219 39.5363 29.8485 54.2812C32.9381 61.4805 38.8523 67.1479 42.0008 74.2736C45.3814 81.9222 43.8826 91.6036 54.1974 94.708Z" fill="#6B788E"/>
<path d="M91.8698 138C131.303 138 163.27 136.134 163.27 133.831C163.27 131.529 131.303 129.663 91.8698 129.663C52.4363 129.663 20.4692 131.529 20.4692 133.831C20.4692 136.134 52.4363 138 91.8698 138Z" fill="#F5F5F5"/>
<path d="M134.274 40.2067C134.79 41.9338 137.448 45.167 137.658 47.5202C137.868 49.8733 133.335 53.6369 133.335 53.6369C133.335 53.6369 129.947 42.3094 132.068 40.9874C134.189 39.6653 134.274 40.2067 134.274 40.2067Z" fill="#263238"/>
<path d="M124.964 52.4437C124.162 53.1139 123.374 53.6773 122.552 54.2555C121.731 54.8336 120.884 55.3602 120.022 55.8537C119.158 56.3654 118.266 56.8313 117.353 57.2494C116.889 57.4593 116.428 57.6655 115.95 57.8459C115.714 57.9417 115.474 58.0337 115.231 58.1148L114.495 58.3725C113.865 58.5486 113.206 58.5962 112.558 58.5125C112.016 58.4491 111.479 58.3457 110.952 58.2031C109.97 57.9314 109.009 57.5893 108.076 57.1794C106.265 56.3887 104.518 55.4592 102.851 54.3991L103.539 53.1176C104.408 53.4858 105.3 53.8541 106.183 54.1744C107.067 54.4948 107.958 54.8336 108.85 55.1098C109.718 55.3946 110.604 55.6258 111.501 55.8021C111.913 55.8827 112.33 55.9331 112.749 55.9531C113.062 55.9773 113.376 55.9449 113.677 55.8574C114.518 55.5359 115.339 55.1671 116.137 54.7526C116.546 54.539 116.951 54.3217 117.349 54.0861C117.747 53.8504 118.152 53.6221 118.546 53.379C119.337 52.8892 120.111 52.37 120.877 51.836C121.643 51.3021 122.405 50.7313 123.086 50.1899L124.964 52.4437Z" fill="#E58A7B"/>
<path d="M126.909 48.5217C125.996 47.8073 122.218 50.1457 121.072 51.1216L121.908 56.1777C121.908 56.1777 127.34 53.9019 127.664 52.3479C128.007 50.7239 127.59 49.0667 126.909 48.5217Z" fill="#90CAF9"/>
<path opacity="0.2" d="M126.909 48.5217C125.996 47.8073 122.218 50.1457 121.072 51.1216L121.908 56.1777C121.908 56.1777 127.34 53.9019 127.664 52.3479C128.007 50.7239 127.59 49.0667 126.909 48.5217Z" fill="black"/>
<path d="M139.618 63.8226L128.15 66.0579C122.225 50.0131 123.514 49.4865 123.514 49.4865C124.347 49.0286 125.208 48.6228 126.092 48.2713L126.246 48.2124C126.983 47.9435 127.13 47.903 128.11 47.6158C129.796 47.2144 131.369 46.8793 133.317 46.6031L133.685 46.5515C134.053 46.5074 134.388 46.4705 134.727 46.4374C134.955 46.4116 135.184 46.3969 135.401 46.3821L136.138 46.3416C137.397 46.279 138.299 46.2974 138.299 46.2974C137.949 56.3176 138.516 59.1937 139.618 63.8226Z" fill="#90CAF9"/>
<path opacity="0.2" d="M139.618 63.8226L128.15 66.0579C122.225 50.0131 123.514 49.4865 123.514 49.4865C124.347 49.0286 125.208 48.6228 126.092 48.2713L126.246 48.2124C126.983 47.9435 127.13 47.903 128.11 47.6158C129.796 47.2144 131.369 46.8793 133.317 46.6031L133.685 46.5515C134.053 46.5074 134.388 46.4705 134.727 46.4374C134.955 46.4116 135.184 46.3969 135.401 46.3821L136.138 46.3416C137.397 46.279 138.299 46.2974 138.299 46.2974C137.949 56.3176 138.516 59.1937 139.618 63.8226Z" fill="black"/>
<path d="M130.636 41.3591C129.899 42.5781 132.569 43.1415 134.149 41.8931C135.412 40.8915 135.114 38.5788 134.031 38.0412C132.948 37.5035 130.636 41.3591 130.636 41.3591Z" fill="#90CAF9"/>
<path opacity="0.4" d="M130.636 41.3591C129.899 42.5781 132.569 43.1415 134.149 41.8931C135.412 40.8915 135.114 38.5788 134.031 38.0412C132.948 37.5035 130.636 41.3591 130.636 41.3591Z" fill="black"/>
<path d="M141.797 130.233L138.929 130.447L137.879 123.844L140.748 123.631L141.797 130.233Z" fill="#E58A7B"/>
<path d="M162.088 121.005L159.654 122.537L155.32 117.396L157.754 115.86L162.088 121.005Z" fill="#E58A7B"/>
<path d="M137.879 123.844L138.461 127.512L141.289 127.037L140.751 123.634L137.879 123.844Z" fill="#CF6F64"/>
<path d="M157.758 115.864L155.32 117.396L157.117 119.525L159.606 118.055L157.758 115.864Z" fill="#CF6F64"/>
<path d="M128.327 66.0579C128.327 66.0579 128.286 88.8233 130.146 97.3962C132.083 106.315 137.78 126.606 137.78 126.606L141.912 126.072C141.912 126.072 138.682 105.575 137.305 96.7113C135.806 87.052 136.727 64.4229 136.727 64.4229L128.327 66.0579Z" fill="#90CAF9"/>
<path opacity="0.7" d="M128.327 66.0579C128.327 66.0579 128.286 88.8233 130.146 97.3962C132.083 106.315 137.78 126.606 137.78 126.606L141.912 126.072C141.912 126.072 138.682 105.575 137.305 96.7113C135.806 87.052 136.727 64.4229 136.727 64.4229L128.327 66.0579Z" fill="black"/>
<path opacity="0.5" d="M136.469 74.5131L134.443 72.4951C134.521 81.2411 135.01 85.5607 136.693 90.267C136.428 85.2919 136.406 79.4072 136.469 74.5131Z" fill="black"/>
<path d="M131.177 65.4688C131.177 65.4688 137.353 84.2829 140.417 95.1206C143.65 106.555 156.045 119.201 156.045 119.201L159.603 117.146C159.603 117.146 151.133 105.141 148.017 94.4725C141.684 72.8155 144.287 68.2271 139.614 63.8228L131.177 65.4688Z" fill="#90CAF9"/>
<path opacity="0.7" d="M131.177 65.4688C131.177 65.4688 137.353 84.2829 140.417 95.1206C143.65 106.555 156.045 119.201 156.045 119.201L159.603 117.146C159.603 117.146 151.133 105.141 148.017 94.4725C141.684 72.8155 144.287 68.2271 139.614 63.8228L131.177 65.4688Z" fill="black"/>
<path d="M126.324 34.7158C127.966 35.2645 129.457 39.3411 129.52 40.9467C129.583 42.5523 124.762 44.7655 124.762 44.7655C124.762 44.7655 122.637 39.6099 123.23 36.2956C123.488 34.8558 126.324 34.7158 126.324 34.7158Z" fill="#263238"/>
<path d="M103.783 53.2537L101.835 51.1326L101.198 53.7914C101.198 53.7914 102.582 55.014 103.702 54.5942L103.783 53.2537Z" fill="#E58A7B"/>
<path d="M99.8608 50.5249L98.4982 51.6076L101.198 53.7913L101.835 51.1325L99.8608 50.5249Z" fill="#E58A7B"/>
<path d="M158.892 121.988L161.167 119.694C161.207 119.655 161.259 119.631 161.314 119.627C161.37 119.623 161.425 119.639 161.469 119.672L163.543 121.211C163.594 121.251 163.636 121.302 163.666 121.36C163.697 121.418 163.714 121.481 163.718 121.546C163.722 121.611 163.712 121.677 163.689 121.738C163.665 121.798 163.629 121.854 163.583 121.9C162.773 122.684 162.346 123.023 161.344 124.032C160.729 124.654 159.893 125.623 159.043 126.481C158.192 127.339 157.297 126.54 157.57 126.113C158.811 124.172 158.59 123.446 158.674 122.46C158.687 122.281 158.764 122.114 158.892 121.988Z" fill="#263238"/>
<path d="M138.737 130.034H141.97C142.027 130.034 142.082 130.054 142.126 130.091C142.17 130.127 142.199 130.177 142.21 130.233L142.718 132.789C142.729 132.852 142.727 132.916 142.71 132.978C142.694 133.04 142.664 133.097 142.623 133.146C142.582 133.195 142.53 133.234 142.472 133.261C142.414 133.288 142.351 133.301 142.287 133.301C141.157 133.282 140.612 133.216 139.19 133.216C138.317 133.216 136.513 133.305 135.305 133.305C134.097 133.305 133.968 132.111 134.465 132.005C136.675 131.518 137.54 130.852 138.266 130.211C138.397 130.099 138.564 130.036 138.737 130.034Z" fill="#263238"/>
<g style="mix-blend-mode:multiply" opacity="0.27">
<path d="M138.671 52.1047L136.903 53.1579L138.943 60.8287C138.498 58.505 138.697 55.953 138.671 52.1047Z" fill="#90CAF9"/>
</g>
<path d="M128.625 40.1291C129.881 41.1786 131.704 42.7069 133.85 40.9208C135.692 39.3815 136.981 35.3418 133.677 35.1945C131.95 35.1172 128.625 40.1291 128.625 40.1291Z" fill="#263238"/>
<path d="M131.659 40.8472C131.659 42.5853 131.928 45.7192 133.316 46.6103C133.316 46.6103 133.191 48.4 130.076 49.004C126.655 49.6705 128.109 47.623 128.109 47.623C129.892 46.8129 129.582 45.4356 128.993 44.1983L131.659 40.8472Z" fill="#E58A7B"/>
<path d="M130.573 42.2134L128.997 44.1983C129.135 44.4851 129.249 44.7833 129.336 45.0894C130.028 44.8464 130.857 43.8742 130.787 43.1119C130.772 42.8018 130.699 42.4971 130.573 42.2134Z" fill="#CF6F64"/>
<path d="M131.825 36.8553C132.193 39.6872 132.418 40.8766 131.284 42.589C129.579 45.1668 126.021 45.0011 124.81 42.3386C123.705 39.9413 123.293 35.71 125.812 34.0713C126.365 33.7047 127.004 33.4858 127.666 33.4357C128.329 33.3855 128.993 33.5057 129.595 33.7847C130.198 34.0638 130.72 34.4924 131.11 35.0299C131.5 35.5674 131.746 36.1958 131.825 36.8553Z" fill="#E58A7B"/>
<path d="M126.905 31.895C124.99 33.2539 128.831 33.6553 128.835 35.6254C128.835 36.4393 130.172 39.0207 132.072 38.8734L133.913 35.6033C135.85 32.4732 131.273 28.7906 126.905 31.895Z" fill="#263238"/>
<path d="M126.906 31.895C123.536 31.7183 122.067 34.3991 122.453 36.8075C124.804 36.2214 127.235 36.0286 129.649 36.2367C134.267 36.7081 126.906 31.895 126.906 31.895Z" fill="#263238"/>
<path d="M132.746 39.2969C132.792 39.8466 132.619 40.3924 132.263 40.8141C131.788 41.3702 131.158 41.0425 130.937 40.3833C130.75 39.7867 130.772 38.7814 131.412 38.4647C131.554 38.3992 131.71 38.37 131.865 38.3798C132.021 38.3895 132.172 38.4378 132.304 38.5204C132.436 38.603 132.546 38.7172 132.623 38.8528C132.7 38.9884 132.742 39.141 132.746 39.2969Z" fill="#E58A7B"/>
<path d="M127.734 38.4648C127.778 38.6931 127.694 38.8993 127.546 38.9288C127.399 38.9583 127.241 38.7962 127.197 38.5606C127.152 38.3249 127.237 38.1223 127.384 38.0929C127.532 38.0634 127.69 38.2365 127.734 38.4648Z" fill="#263238"/>
<path d="M125.16 38.9655C125.204 39.1938 125.119 39.4037 124.972 39.4331C124.825 39.4626 124.666 39.3006 124.622 39.0649C124.578 38.8292 124.663 38.6267 124.81 38.6009C124.957 38.5751 125.115 38.7335 125.16 38.9655Z" fill="#263238"/>
<path d="M124.88 38.6045L124.302 38.5566C124.302 38.5566 124.666 38.9286 124.88 38.6045Z" fill="#263238"/>
<path d="M125.918 39.2268C125.815 39.7847 125.637 40.326 125.388 40.8361C125.52 40.8976 125.664 40.9295 125.81 40.9295C125.955 40.9295 126.099 40.8976 126.231 40.8361L125.918 39.2268Z" fill="#DF5753"/>
<path d="M127.193 41.5726C127.177 41.5728 127.161 41.5674 127.149 41.5572C127.137 41.5471 127.129 41.533 127.126 41.5174C127.125 41.5086 127.125 41.4997 127.127 41.491C127.129 41.4824 127.133 41.4742 127.138 41.467C127.143 41.4598 127.149 41.4537 127.157 41.4491C127.164 41.4444 127.173 41.4414 127.182 41.44C127.466 41.3905 127.735 41.2747 127.967 41.102C128.198 40.9292 128.386 40.7044 128.515 40.4457C128.518 40.4375 128.523 40.43 128.529 40.4237C128.536 40.4174 128.543 40.4124 128.551 40.409C128.559 40.4056 128.568 40.4038 128.577 40.4038C128.586 40.4038 128.595 40.4055 128.603 40.4089C128.611 40.4123 128.619 40.4173 128.625 40.4235C128.631 40.4298 128.636 40.4373 128.64 40.4455C128.643 40.4537 128.645 40.4625 128.645 40.4714C128.645 40.4803 128.643 40.4891 128.64 40.4973C128.505 40.7784 128.304 41.0229 128.055 41.2101C127.806 41.3973 127.515 41.5216 127.207 41.5726H127.193Z" fill="#263238"/>
<path d="M128.327 37.4851C128.293 37.4854 128.261 37.4737 128.235 37.4519C128.111 37.3342 127.961 37.2474 127.797 37.1988C127.633 37.1501 127.46 37.141 127.292 37.172C127.255 37.1813 127.216 37.1755 127.183 37.1558C127.15 37.1361 127.127 37.1042 127.117 37.0671C127.108 37.03 127.114 36.9907 127.134 36.9579C127.153 36.9251 127.185 36.9014 127.222 36.8922C127.435 36.8504 127.654 36.8596 127.862 36.9192C128.07 36.9787 128.261 37.0868 128.419 37.2346C128.444 37.2601 128.458 37.2945 128.458 37.3304C128.458 37.3662 128.444 37.4006 128.419 37.4261C128.409 37.4419 128.395 37.4554 128.379 37.4655C128.364 37.4757 128.346 37.4823 128.327 37.4851Z" fill="#263238"/>
<path d="M123.735 37.9969C123.718 38.0007 123.7 38.0007 123.683 37.9969C123.667 37.9901 123.651 37.9799 123.638 37.9671C123.626 37.9543 123.615 37.939 123.609 37.9222C123.602 37.9054 123.598 37.8874 123.598 37.8692C123.599 37.851 123.602 37.8331 123.61 37.8165C123.688 37.6151 123.814 37.4354 123.976 37.2925C124.138 37.1496 124.332 37.0477 124.541 36.9952C124.559 36.9915 124.577 36.9915 124.595 36.9951C124.613 36.9987 124.63 37.0059 124.644 37.0163C124.659 37.0266 124.672 37.0399 124.681 37.0553C124.691 37.0707 124.697 37.0878 124.7 37.1057C124.703 37.1232 124.704 37.1412 124.7 37.1587C124.697 37.1762 124.69 37.1928 124.68 37.2076C124.67 37.2224 124.657 37.235 124.642 37.2447C124.627 37.2544 124.611 37.261 124.593 37.2641C124.427 37.3092 124.275 37.3923 124.147 37.5067C124.019 37.6211 123.92 37.7637 123.856 37.9232C123.845 37.9453 123.827 37.9637 123.806 37.9766C123.784 37.9896 123.76 37.9966 123.735 37.9969Z" fill="#263238"/>
<path d="M158.037 123.325C157.974 123.323 157.912 123.306 157.857 123.275C157.802 123.245 157.755 123.201 157.721 123.148C157.694 123.117 157.677 123.079 157.67 123.039C157.663 122.999 157.666 122.958 157.68 122.92C157.809 122.573 158.825 122.353 158.94 122.327C158.953 122.324 158.966 122.326 158.979 122.331C158.991 122.336 159.002 122.345 159.01 122.356C159.017 122.367 159.022 122.38 159.022 122.393C159.022 122.406 159.017 122.419 159.01 122.43C158.811 122.758 158.42 123.306 158.056 123.325H158.037ZM158.807 122.496C158.406 122.599 157.875 122.783 157.809 122.968C157.803 122.984 157.801 123.003 157.805 123.021C157.809 123.038 157.818 123.054 157.831 123.067C157.854 123.105 157.886 123.136 157.925 123.158C157.964 123.179 158.008 123.19 158.052 123.188C158.247 123.177 158.523 122.923 158.807 122.496Z" fill="#90CAF9"/>
<path d="M158.641 122.496C158.273 122.496 157.813 122.404 157.676 122.206C157.646 122.16 157.632 122.106 157.637 122.052C157.642 121.998 157.665 121.947 157.702 121.907C157.734 121.866 157.775 121.832 157.821 121.808C157.868 121.784 157.919 121.77 157.971 121.767H158C158.413 121.767 158.98 122.323 159.002 122.345C159.011 122.354 159.017 122.364 159.021 122.376C159.024 122.388 159.024 122.4 159.021 122.412C159.017 122.423 159.011 122.434 159.003 122.442C158.994 122.45 158.984 122.456 158.973 122.46C158.864 122.486 158.753 122.498 158.641 122.496ZM158 121.904H157.978C157.945 121.905 157.913 121.913 157.884 121.929C157.854 121.944 157.829 121.965 157.809 121.992C157.757 122.062 157.772 122.102 157.791 122.128C157.901 122.298 158.464 122.393 158.811 122.353C158.59 122.128 158.308 121.972 158 121.904Z" fill="#90CAF9"/>
<path d="M137.68 130.539C137.433 130.561 137.185 130.499 136.977 130.362C136.928 130.324 136.889 130.274 136.865 130.216C136.84 130.159 136.831 130.097 136.837 130.034C136.837 129.998 136.846 129.961 136.864 129.929C136.882 129.897 136.908 129.87 136.94 129.85C137.279 129.652 138.465 130.241 138.597 130.307C138.61 130.314 138.62 130.324 138.626 130.336C138.633 130.349 138.636 130.363 138.634 130.377C138.632 130.391 138.626 130.404 138.617 130.414C138.608 130.425 138.596 130.432 138.583 130.436C138.286 130.498 137.984 130.533 137.68 130.539ZM137.135 129.942C137.092 129.94 137.049 129.949 137.01 129.968C136.998 129.975 136.987 129.985 136.981 129.997C136.974 130.01 136.972 130.024 136.973 130.038C136.97 130.08 136.976 130.122 136.992 130.16C137.008 130.198 137.033 130.232 137.065 130.259C137.249 130.417 137.724 130.443 138.351 130.34C137.97 130.141 137.56 130.006 137.135 129.942Z" fill="#90CAF9"/>
<path d="M138.568 130.429H138.542C138.174 130.27 137.463 129.644 137.515 129.324C137.515 129.25 137.581 129.154 137.765 129.136H137.82C138.461 129.136 138.627 130.307 138.634 130.359C138.636 130.371 138.634 130.383 138.63 130.395C138.625 130.407 138.618 130.417 138.608 130.425C138.595 130.43 138.581 130.431 138.568 130.429ZM137.831 129.265H137.791C137.673 129.265 137.666 129.32 137.666 129.335C137.636 129.53 138.122 130.02 138.49 130.237C138.417 129.95 138.229 129.272 137.817 129.272L137.831 129.265Z" fill="#90CAF9"/>
<path d="M127.454 38.1038L126.876 38.0522C126.876 38.0522 127.241 38.4279 127.454 38.1038Z" fill="#263238"/>
<path d="M129.984 51.4529C123.823 52.8265 125.727 49.0997 126.095 48.2785L126.25 48.2196C126.986 47.9508 127.134 47.9103 128.113 47.6231C129.822 47.1616 131.563 46.8232 133.32 46.6104L133.688 46.5588C134.057 46.5109 134.392 46.4741 134.731 46.4446C134.959 46.4189 135.187 46.4041 135.405 46.3894L136.141 46.3452C136.266 46.9197 136.572 49.9909 129.984 51.4529Z" fill="#E58A7B"/>
<path d="M139.654 63.1155L140.372 64.0435C140.427 64.1135 140.35 64.2129 140.217 64.2387L128.19 66.5808C128.087 66.6029 127.991 66.5808 127.973 66.5034L127.667 65.4981C127.667 65.4281 127.726 65.3508 127.837 65.3287L139.451 63.0676C139.486 63.0573 139.524 63.0563 139.559 63.0647C139.595 63.0731 139.627 63.0906 139.654 63.1155Z" fill="#26395A"/>
<path d="M138.347 64.7173L138.66 64.6584C138.722 64.6584 138.763 64.6068 138.752 64.5663L138.347 63.2627C138.347 63.2222 138.273 63.2038 138.21 63.2148L137.901 63.2737C137.839 63.2737 137.798 63.329 137.809 63.3658L138.214 64.6731C138.225 64.7099 138.288 64.732 138.347 64.7173Z" fill="#90CAF9"/>
<path d="M131.302 69.0628L128.905 68.1716L129.273 70.4511C129.273 70.4511 131.011 71.0771 131.899 70.2744L131.302 69.0628Z" fill="#E58A7B"/>
<path d="M126.622 68.7756L126.051 70.2707L129.273 70.4511L128.905 68.1716L126.622 68.7756Z" fill="#E58A7B"/>
<path d="M129.085 66.522L129.398 66.4631C129.457 66.4631 129.501 66.4115 129.487 66.371L129.081 65.0674C129.081 65.0269 129.011 65.0085 128.949 65.0195L128.636 65.0784C128.573 65.0784 128.533 65.1337 128.547 65.1705L128.953 66.4778C128.964 66.5146 129.023 66.5367 129.085 66.522Z" fill="#90CAF9"/>
<path d="M133.718 65.616L134.027 65.5571C134.09 65.5571 134.13 65.5055 134.119 65.465L133.714 64.1614C133.714 64.1209 133.64 64.1025 133.578 64.1135L133.269 64.1724C133.206 64.1724 133.165 64.2277 133.176 64.2645L133.582 65.5718C133.596 65.5931 133.618 65.609 133.642 65.617C133.667 65.625 133.693 65.6246 133.718 65.616Z" fill="#90CAF9"/>
<path d="M132.407 45.1484C132.669 45.0489 132.996 45.9696 132.915 46.0874C132.727 46.3562 129.288 47.2953 129.133 46.7687C129.124 46.4832 129.167 46.1985 129.262 45.9291C129.362 45.7523 130.124 46.0764 132.407 45.1484Z" fill="#90CAF9"/>
<path d="M131.825 45.1707C131.958 44.865 132.337 44.3752 132.669 44.6551C133 44.935 133.14 45.5389 132.923 45.6383C132.706 45.7378 131.597 45.6825 131.825 45.1707Z" fill="#90CAF9"/>
<path d="M132.529 45.3289C132.757 45.0858 133.265 44.7507 133.497 45.1263C133.729 45.502 133.645 46.1169 133.409 46.1354C133.173 46.1538 132.142 45.7303 132.529 45.3289Z" fill="#90CAF9"/>
<path d="M132.654 45.2737C132.636 45.0779 132.674 44.8809 132.765 44.7065C132.856 44.532 132.995 44.3876 133.166 44.2905C133.586 44.018 133.995 43.8412 134.157 43.554C134.226 43.8232 134.24 44.104 134.197 44.3788C134.112 44.7729 132.805 45.0748 132.893 45.4173L132.654 45.2737Z" fill="#90CAF9"/>
<path d="M132.599 45.2552C132.477 45.1006 132.402 44.9141 132.384 44.718C132.365 44.522 132.404 44.3249 132.495 44.1504C132.694 43.6938 132.945 43.3255 132.93 43.0015C133.135 43.1899 133.299 43.4179 133.412 43.6717C133.552 44.0399 132.621 45.0084 132.882 45.2515L132.599 45.2552Z" fill="#90CAF9"/>
<path d="M158.211 117.194C158.203 117.193 158.196 117.191 158.189 117.187C158.183 117.183 158.177 117.178 158.174 117.171C158.089 117.054 149.671 105.041 146.585 94.487C144.571 87.717 143.023 80.817 141.952 73.8354C141.315 69.9025 140.928 67.5272 139.662 65.5792C139.653 65.5702 139.648 65.5584 139.648 65.546C139.648 65.5337 139.653 65.5218 139.662 65.5129C139.67 65.5054 139.681 65.5012 139.693 65.5012C139.704 65.5012 139.716 65.5054 139.724 65.5129C141.006 67.4793 141.392 69.8619 142.03 73.8059C143.105 80.7775 144.656 87.6676 146.67 94.4281C149.752 104.968 158.163 116.965 158.247 117.087C158.254 117.096 158.258 117.107 158.258 117.118C158.258 117.129 158.254 117.14 158.247 117.149C158.247 117.16 158.243 117.17 158.236 117.178C158.23 117.186 158.221 117.191 158.211 117.194Z" fill="#90CAF9"/>
<path opacity="0.4" d="M158.211 117.194C158.203 117.193 158.196 117.191 158.189 117.187C158.183 117.183 158.177 117.178 158.174 117.171C158.089 117.054 149.671 105.041 146.585 94.487C144.571 87.717 143.023 80.817 141.952 73.8354C141.315 69.9025 140.928 67.5272 139.662 65.5792C139.653 65.5702 139.648 65.5584 139.648 65.546C139.648 65.5337 139.653 65.5218 139.662 65.5129C139.67 65.5054 139.681 65.5012 139.693 65.5012C139.704 65.5012 139.716 65.5054 139.724 65.5129C141.006 67.4793 141.392 69.8619 142.03 73.8059C143.105 80.7775 144.656 87.6676 146.67 94.4281C149.752 104.968 158.163 116.965 158.247 117.087C158.254 117.096 158.258 117.107 158.258 117.118C158.258 117.129 158.254 117.14 158.247 117.149C158.247 117.16 158.243 117.17 158.236 117.178C158.23 117.186 158.221 117.191 158.211 117.194Z" fill="black"/>
<path d="M142.652 126.057L137.025 126.787L136.656 125.218L142.515 123.977L142.652 126.057Z" fill="#90CAF9"/>
<path d="M159.901 117.02L155.751 119.418L154.351 118.221L158.892 115.15L159.901 117.02Z" fill="#90CAF9"/>
<path d="M140.424 50.1973C140.623 51.221 140.737 52.1858 140.847 53.1838C140.958 54.1818 140.998 55.1687 141.028 56.1666C141.057 57.1725 141.035 58.1791 140.961 59.1826C140.921 59.6872 140.877 60.1917 140.807 60.6998C140.777 60.9503 140.744 61.2044 140.696 61.4585L140.56 62.2391C140.409 62.8755 140.132 63.4752 139.746 64.0031C139.429 64.4472 139.08 64.8669 138.7 65.2588C137.99 65.9888 137.227 66.6657 136.417 67.2842C134.851 68.4899 133.194 69.5721 131.461 70.5212L130.672 69.2986C131.409 68.713 132.145 68.1091 132.882 67.4941C133.619 66.8791 134.318 66.2568 134.992 65.6087C135.658 64.9848 136.286 64.322 136.874 63.6238C137.144 63.3007 137.39 62.9586 137.61 62.6C137.784 62.3388 137.909 62.048 137.979 61.742C138.098 60.848 138.168 59.9481 138.189 59.0464C138.189 58.5861 138.189 58.1258 138.189 57.6654C138.189 57.2051 138.17 56.7374 138.148 56.2734C138.104 55.3454 138.019 54.4322 137.92 53.4895C137.82 52.5467 137.691 51.615 137.551 50.7423L140.424 50.1973Z" fill="#E58A7B"/>
<path d="M139.978 47.0671C141.551 48.3412 141.175 52.1269 141.175 52.1269L135.872 53.8724C135.872 53.8724 136.115 49.5086 136.381 47.9398C136.69 46.0728 138.428 45.8113 139.978 47.0671Z" fill="#90CAF9"/>
<path opacity="0.2" d="M139.978 47.0671C141.551 48.3412 141.175 52.1269 141.175 52.1269L135.872 53.8724C135.872 53.8724 136.115 49.5086 136.381 47.9398C136.69 46.0728 138.428 45.8113 139.978 47.0671Z" fill="black"/>
<path d="M69.9258 62.8651C69.7201 61.9722 69.2177 61.1754 68.5007 60.6049C67.7837 60.0344 66.8944 59.7238 65.9782 59.7239H36.5179C35.4436 59.7239 34.4132 60.1507 33.6535 60.9103C32.8939 61.67 32.4671 62.7003 32.4671 63.7747V129.257C32.4671 130.332 32.8939 131.362 33.6535 132.122C34.4132 132.881 35.4436 133.308 36.5179 133.308H130.054C131.129 133.308 132.159 132.881 132.919 132.122C133.678 131.362 134.105 130.332 134.105 129.257V74.2515C134.105 73.1771 133.678 72.1468 132.919 71.3871C132.159 70.6275 131.129 70.2007 130.054 70.2007H79.1432C77.0035 70.201 74.927 69.4758 73.2528 68.1434C71.5786 66.811 70.4058 64.9502 69.9258 62.8651Z" fill="#90CAF9"/>
<path opacity="0.6" d="M69.9258 62.8651C69.7201 61.9722 69.2177 61.1754 68.5007 60.6049C67.7837 60.0344 66.8944 59.7238 65.9782 59.7239H36.5179C35.4436 59.7239 34.4132 60.1507 33.6535 60.9103C32.8939 61.67 32.4671 62.7003 32.4671 63.7747V129.257C32.4671 130.332 32.8939 131.362 33.6535 132.122C34.4132 132.881 35.4436 133.308 36.5179 133.308H130.054C131.129 133.308 132.159 132.881 132.919 132.122C133.678 131.362 134.105 130.332 134.105 129.257V74.2515C134.105 73.1771 133.678 72.1468 132.919 71.3871C132.159 70.6275 131.129 70.2007 130.054 70.2007H79.1432C77.0035 70.201 74.927 69.4758 73.2528 68.1434C71.5786 66.811 70.4058 64.9502 69.9258 62.8651Z" fill="black"/>
<path opacity="0.22" d="M59.5262 42.4712L62.1518 50.9742C62.487 52.0563 63.238 52.9613 64.2399 53.4901C65.2417 54.019 66.4125 54.1287 67.4952 53.795L75.9945 51.1693L59.5262 42.4712Z" fill="#90CAF9"/>
<path d="M59.5262 42.4712L29.1453 51.858C28.609 52.0227 28.1104 52.2916 27.6781 52.6493C27.2458 53.0069 26.8883 53.4462 26.6259 53.9422C26.3636 54.4381 26.2016 54.9809 26.1492 55.5395C26.0969 56.0981 26.1552 56.6616 26.3208 57.1976L43.6655 113.349C43.8311 113.885 44.1006 114.383 44.4587 114.815C44.8169 115.247 45.2566 115.604 45.7528 115.866C46.249 116.128 46.792 116.29 47.3507 116.342C47.9093 116.394 48.4728 116.335 49.0089 116.17L87.8927 104.157C88.4287 103.992 88.9269 103.723 89.3588 103.365C89.7907 103.007 90.1478 102.568 90.4098 102.072C90.6718 101.576 90.8335 101.034 90.8856 100.475C90.9377 99.9167 90.8792 99.3535 90.7136 98.8176L75.9834 51.1693L59.5262 42.4712Z" fill="#90CAF9"/>
<path opacity="0.8" d="M59.5262 42.4712L29.1453 51.858C28.609 52.0227 28.1104 52.2916 27.6781 52.6493C27.2458 53.0069 26.8883 53.4462 26.6259 53.9422C26.3636 54.4381 26.2016 54.9809 26.1492 55.5395C26.0969 56.0981 26.1552 56.6616 26.3208 57.1976L43.6655 113.349C43.8311 113.885 44.1006 114.383 44.4587 114.815C44.8169 115.247 45.2566 115.604 45.7528 115.866C46.249 116.128 46.792 116.29 47.3507 116.342C47.9093 116.394 48.4728 116.335 49.0089 116.17L87.8927 104.157C88.4287 103.992 88.9269 103.723 89.3588 103.365C89.7907 103.007 90.1478 102.568 90.4098 102.072C90.6718 101.576 90.8335 101.034 90.8856 100.475C90.9377 99.9167 90.8792 99.3535 90.7136 98.8176L75.9834 51.1693L59.5262 42.4712Z" fill="white"/>
<g opacity="0.28">
<path d="M75.8729 101.705L50.596 109.512C50.1233 109.657 49.6123 109.609 49.1748 109.378C48.7373 109.148 48.4089 108.754 48.2613 108.282C48.1174 107.809 48.1663 107.299 48.3975 106.862C48.6286 106.425 49.0231 106.097 49.4949 105.951L74.7718 98.14C75.245 97.995 75.7564 98.0433 76.194 98.2746C76.6316 98.5058 76.9597 98.901 77.1066 99.3736C77.2505 99.8463 77.2015 100.357 76.9704 100.794C76.7393 101.23 76.3447 101.558 75.8729 101.705Z" fill="#90CAF9"/>
</g>
<g opacity="0.28">
<path d="M48.6702 55.8866L35.3026 60.0147C34.8299 60.1589 34.3194 60.1105 33.8821 59.8802C33.4449 59.6498 33.1163 59.2561 32.9679 58.7847C32.8239 58.3115 32.8727 57.8006 33.1038 57.3633C33.3349 56.9259 33.7295 56.5977 34.2015 56.45L47.5691 52.3219C48.0418 52.1757 48.5532 52.2231 48.991 52.4537C49.4288 52.6844 49.7571 53.0793 49.9038 53.5519C50.0479 54.0251 49.999 54.536 49.7679 54.9733C49.5369 55.4107 49.1423 55.7389 48.6702 55.8866Z" fill="#90CAF9"/>
</g>
<g opacity="0.28">
<path d="M59.5778 60.2653L37.4826 67.089C37.0109 67.2307 36.5023 67.1807 36.0673 66.9497C35.6322 66.7187 35.3059 66.3255 35.1589 65.8554C35.0139 65.3832 35.0618 64.8727 35.2924 64.4358C35.5229 63.9989 35.9172 63.6711 36.3889 63.5244L58.4841 56.7006C58.9568 56.5554 59.4678 56.6033 59.9053 56.8338C60.3428 57.0643 60.6712 57.4586 60.8188 57.9306C60.9615 58.4048 60.9112 58.9161 60.6788 59.3533C60.4464 59.7906 60.0507 60.1183 59.5778 60.2653Z" fill="#90CAF9"/>
</g>
<g opacity="0.28">
<path d="M71.914 64.2018L39.6698 74.1446C39.1976 74.2897 38.6871 74.2417 38.2502 74.0112C37.8133 73.7806 37.4855 73.3864 37.3387 72.9147C37.1946 72.4419 37.2429 71.9314 37.4733 71.4942C37.7036 71.0569 38.0973 70.7283 38.5687 70.5799L70.813 60.6371C71.2852 60.493 71.7952 60.5415 72.2319 60.7719C72.6685 61.0023 72.9964 61.3959 73.144 61.8671C73.2892 62.3398 73.2413 62.8507 73.0108 63.2882C72.7804 63.7257 72.386 64.0542 71.914 64.2018Z" fill="#90CAF9"/>
</g>
<g opacity="0.28">
<path d="M74.0977 71.2722L55.3536 77.0648C54.8809 77.2087 54.3705 77.1598 53.9337 76.9287C53.497 76.6975 53.1694 76.303 53.0226 75.8312C52.8785 75.359 52.927 74.8489 53.1574 74.4123C53.3878 73.9756 53.7814 73.6478 54.2526 73.5001L72.9966 67.7075C73.4698 67.5645 73.9803 67.6138 74.4174 67.8448C74.8545 68.0757 75.1829 68.4697 75.3314 68.9412C75.4753 69.4139 75.4263 69.9243 75.1952 70.3611C74.9641 70.7978 74.5695 71.1254 74.0977 71.2722Z" fill="#90CAF9"/>
</g>
<g opacity="0.28">
<path d="M46.7591 79.72L41.8577 81.2335C41.3849 81.3787 40.874 81.3308 40.4365 81.1003C39.999 80.8698 39.6705 80.4755 39.5229 80.0035C39.3779 79.5303 39.4263 79.0189 39.6575 78.5813C39.8887 78.1437 40.2839 77.8156 40.7566 77.6688L45.658 76.1553C46.1307 76.0111 46.6413 76.0594 47.0785 76.2898C47.5158 76.5201 47.8443 76.9138 47.9928 77.3852C48.1358 77.8584 48.0865 78.3689 47.8555 78.806C47.6246 79.2431 47.2306 79.5715 46.7591 79.72Z" fill="#90CAF9"/>
</g>
<g opacity="0.28">
<path d="M76.2854 78.3463L44.0412 88.3076C43.5685 88.4515 43.058 88.4025 42.6213 88.1714C42.1846 87.9403 41.857 87.5457 41.7101 87.0739C41.5651 86.6017 41.613 86.0912 41.8436 85.6543C42.0741 85.2174 42.4684 84.8897 42.9401 84.7429L75.1844 74.7816C75.6566 74.6375 76.1666 74.686 76.6033 74.9164C77.0399 75.1468 77.3678 75.5405 77.5154 76.0116C77.6606 76.4843 77.6127 76.9953 77.3822 77.4328C77.1517 77.8703 76.7574 78.1987 76.2854 78.3463Z" fill="#90CAF9"/>
</g>
<g opacity="0.28">
<path d="M66.0261 89.2614L46.2251 95.3781C45.7529 95.5222 45.2428 95.4737 44.8062 95.2433C44.3695 95.0129 44.0417 94.6192 43.894 94.1481C43.7499 93.6754 43.7982 93.1649 44.0286 92.7276C44.2589 92.2904 44.6526 91.9618 45.124 91.8134L64.925 85.6967C65.3982 85.5527 65.9091 85.6015 66.3465 85.8326C66.7838 86.0637 67.1121 86.4583 67.2597 86.9303C67.4046 87.4031 67.3561 87.9139 67.1249 88.3509C66.8936 88.7879 66.4984 89.1154 66.0261 89.2614Z" fill="#90CAF9"/>
</g>
<g opacity="0.28">
<path d="M78.4692 85.4205L73.1847 87.0518C72.7116 87.1958 72.2006 87.147 71.7633 86.9159C71.3259 86.6848 70.9977 86.2902 70.85 85.8182C70.7061 85.3455 70.7551 84.835 70.9862 84.3983C71.2173 83.9615 71.6119 83.634 72.0837 83.4871L77.3681 81.8558C77.8403 81.7107 78.3508 81.7587 78.7877 81.9892C79.2246 82.2197 79.5524 82.614 79.6992 83.0857C79.8443 83.5584 79.7965 84.0694 79.566 84.5069C79.3355 84.9444 78.9412 85.2729 78.4692 85.4205Z" fill="#90CAF9"/>
</g>
<g opacity="0.28">
<path d="M80.6526 92.4984L48.4157 102.441C47.9425 102.586 47.4311 102.538 46.9935 102.307C46.5559 102.075 46.2278 101.68 46.081 101.208C45.936 100.735 45.9845 100.224 46.2158 99.787C46.4471 99.35 46.8422 99.0226 47.3146 98.8765L79.5552 88.9153C80.0284 88.7723 80.5389 88.8216 80.976 89.0525C81.413 89.2835 81.7414 89.6774 81.8899 90.1489C81.9639 90.3844 81.9905 90.6322 81.9683 90.878C81.9461 91.1239 81.8754 91.3629 81.7604 91.5813C81.6454 91.7997 81.4883 91.9931 81.2981 92.1505C81.108 92.3079 80.8886 92.4262 80.6526 92.4984Z" fill="#90CAF9"/>
</g>
<path d="M81.3451 21.3555L90.986 42.8394C91.2363 43.4002 91.2544 44.0373 91.0363 44.6114C90.8183 45.1855 90.3818 45.65 89.8223 45.9032L48.9241 64.2607C48.3634 64.512 47.7259 64.5306 47.1515 64.3124C46.5771 64.0942 46.1127 63.6571 45.8602 63.097L36.2157 41.6131C35.9632 41.052 35.944 40.4136 36.1622 39.8383C36.3805 39.2631 36.8183 38.798 37.3794 38.5455L78.2776 20.1881C78.8394 19.9379 79.4774 19.9203 80.0522 20.139C80.627 20.3577 81.0918 20.7951 81.3451 21.3555Z" fill="#90CAF9"/>
<path opacity="0.3" d="M81.3451 21.3555L90.986 42.8394C91.2363 43.4002 91.2544 44.0373 91.0363 44.6114C90.8183 45.1855 90.3818 45.65 89.8223 45.9032L48.9241 64.2607C48.3634 64.512 47.7259 64.5306 47.1515 64.3124C46.5771 64.0942 46.1127 63.6571 45.8602 63.097L36.2157 41.6131C35.9632 41.052 35.944 40.4136 36.1622 39.8383C36.3805 39.2631 36.8183 38.798 37.3794 38.5455L78.2776 20.1881C78.8394 19.9379 79.4774 19.9203 80.0522 20.139C80.627 20.3577 81.0918 20.7951 81.3451 21.3555Z" fill="black"/>
<path d="M74.8996 20.2941L73.5926 20.8804L73.7433 21.2164L75.0503 20.6301L74.8996 20.2941Z" fill="#90CAF9"/>
<path d="M71.7618 21.6996L67.6862 23.5278L67.8369 23.8638L71.9125 22.0356L71.7618 21.6996Z" fill="#90CAF9"/>
<path d="M36.1793 43.7784L35.8434 43.9292L36.9596 46.4152L37.2955 46.2643L36.1793 43.7784Z" fill="#90CAF9"/>
<path opacity="0.6" d="M79.9751 20.1109L69.4283 40.7699C68.4497 42.6847 66.847 44.2083 64.8851 45.0888C62.9232 45.9693 60.7196 46.154 58.6385 45.6124L36.1935 39.7609C36.4237 39.2223 36.8465 38.789 37.3793 38.5456L78.2775 20.1882C78.8132 19.9486 79.4198 19.921 79.9751 20.1109Z" fill="#90CAF9"/>
<path d="M94.4735 46.5515L62.7375 48.5106C62.1768 48.5439 61.6282 48.6875 61.1231 48.9331C60.618 49.1787 60.1662 49.5215 59.7937 49.9419C59.4212 50.3622 59.1353 50.8519 58.9523 51.383C58.7693 51.914 58.6928 52.4758 58.7272 53.0365L62.3471 111.692C62.3809 112.253 62.525 112.802 62.7713 113.307C63.0176 113.812 63.3611 114.264 63.7822 114.636C64.2033 115.008 64.6938 115.294 65.2254 115.476C65.757 115.658 66.3194 115.734 66.8803 115.698L107.499 113.191C108.059 113.157 108.607 113.013 109.111 112.767C109.615 112.521 110.066 112.178 110.438 111.758C110.809 111.337 111.094 110.848 111.276 110.317C111.458 109.786 111.533 109.225 111.498 108.665L108.441 58.888L94.4735 46.5515Z" fill="#90CAF9"/>
<path opacity="0.8" d="M94.4735 46.5515L62.7375 48.5106C62.1768 48.5439 61.6282 48.6875 61.1231 48.9331C60.618 49.1787 60.1662 49.5215 59.7937 49.9419C59.4212 50.3622 59.1353 50.8519 58.9523 51.383C58.7693 51.914 58.6928 52.4758 58.7272 53.0365L62.3471 111.692C62.3809 112.253 62.525 112.802 62.7713 113.307C63.0176 113.812 63.3611 114.264 63.7822 114.636C64.2033 115.008 64.6938 115.294 65.2254 115.476C65.757 115.658 66.3194 115.734 66.8803 115.698L107.499 113.191C108.059 113.157 108.607 113.013 109.111 112.767C109.615 112.521 110.066 112.178 110.438 111.758C110.809 111.337 111.094 110.848 111.276 110.317C111.458 109.786 111.533 109.225 111.498 108.665L108.441 58.888L94.4735 46.5515Z" fill="white"/>
<g opacity="0.22">
<path d="M96.392 107.965L69.9846 109.596C69.4913 109.625 69.0068 109.457 68.637 109.129C68.2672 108.801 68.0421 108.34 68.0108 107.847C67.9825 107.354 68.15 106.87 68.4768 106.5C68.8037 106.129 69.2635 105.903 69.7563 105.87L96.1637 104.242C96.6571 104.213 97.142 104.38 97.5125 104.707C97.883 105.034 98.109 105.494 98.1413 105.988C98.1705 106.482 98.0028 106.967 97.675 107.338C97.3472 107.708 96.8859 107.934 96.392 107.965Z" fill="#90CAF9"/>
</g>
<g opacity="0.22">
<path d="M80.7631 57.0284L66.7953 57.8827C66.3022 57.911 65.8178 57.7435 65.4475 57.4166C65.0772 57.0898 64.8509 56.63 64.8178 56.1372C64.7895 55.6435 64.9575 55.1586 65.2851 54.7882C65.6128 54.4178 66.0735 54.1919 66.567 54.1597L80.5348 53.298C81.0278 53.2687 81.5123 53.436 81.8822 53.7631C82.2521 54.0903 82.4774 54.5506 82.5087 55.0435C82.5399 55.538 82.3737 56.0248 82.0464 56.397C81.7192 56.7691 81.2577 56.9962 80.7631 57.0284Z" fill="#90CAF9"/>
</g>
<g opacity="0.22">
<path d="M90.3308 63.8557L67.2523 65.2771C66.7588 65.3074 66.2733 65.1406 65.9026 64.8134C65.5319 64.4861 65.3061 64.0251 65.2748 63.5316C65.2456 63.0377 65.4132 62.5523 65.7411 62.1817C66.0689 61.811 66.5302 61.5854 67.024 61.5541L90.0988 60.1326C90.5924 60.1024 91.0778 60.2692 91.4485 60.5964C91.8193 60.9237 92.045 61.3847 92.0763 61.8782C92.1056 62.3715 91.9384 62.8564 91.6114 63.2269C91.2843 63.5974 90.8239 63.8235 90.3308 63.8557Z" fill="#90CAF9"/>
</g>
<g opacity="0.22">
<path d="M101.389 70.5911L67.709 72.6681C67.2141 72.6983 66.7273 72.5313 66.3553 72.2034C65.9833 71.8756 65.7564 71.4137 65.7242 70.9189C65.6949 70.4259 65.8622 69.9414 66.1893 69.5715C66.5165 69.2016 66.9768 68.9763 67.4697 68.945L101.154 66.8644C101.647 66.8362 102.132 67.0043 102.501 67.332C102.871 67.6597 103.096 68.1204 103.128 68.6136C103.157 69.1057 102.991 69.5896 102.665 69.9599C102.34 70.3302 101.881 70.557 101.389 70.5911Z" fill="#90CAF9"/>
</g>
<g opacity="0.22">
<path d="M101.846 77.978L82.2661 79.1859C81.7727 79.2151 81.2878 79.048 80.9173 78.7209C80.5468 78.3939 80.3207 77.9335 80.2885 77.4403C80.2583 76.9468 80.4251 76.4613 80.7523 76.0906C81.0796 75.7199 81.5405 75.4941 82.0341 75.4628L101.614 74.255C102.108 74.2247 102.593 74.3915 102.964 74.7188C103.335 75.046 103.56 75.507 103.592 76.0005C103.621 76.4938 103.454 76.9787 103.127 77.3492C102.8 77.7197 102.339 77.9458 101.846 77.978Z" fill="#90CAF9"/>
</g>
<g opacity="0.22">
<path d="M73.2843 79.7386L68.1619 80.0553C67.6689 80.0845 67.1844 79.9172 66.8145 79.5901C66.4446 79.263 66.2193 78.8026 66.188 78.3097C66.1588 77.8164 66.3259 77.3315 66.653 76.961C66.98 76.5905 67.4404 76.3644 67.9336 76.3322L73.056 76.0155C73.5497 75.9873 74.0345 76.1553 74.4049 76.4829C74.7753 76.8105 75.0013 77.2713 75.0335 77.7647C75.0617 78.258 74.8936 78.7425 74.5659 79.1123C74.2382 79.4821 73.7774 79.7073 73.2843 79.7386Z" fill="#90CAF9"/>
</g>
<g opacity="0.22">
<path d="M102.302 85.3652L68.6182 87.4422C68.1248 87.4714 67.6399 87.3043 67.2694 86.9773C66.8989 86.6502 66.6728 86.1898 66.6406 85.6967C66.6124 85.203 66.7804 84.7181 67.108 84.3477C67.4356 83.9773 67.8964 83.7514 68.3898 83.7191L102.07 81.6422C102.564 81.613 103.05 81.7806 103.42 82.1084C103.791 82.4363 104.017 82.8976 104.048 83.3914C104.077 83.8844 103.91 84.3688 103.583 84.7388C103.256 85.1087 102.795 85.334 102.302 85.3652Z" fill="#90CAF9"/>
</g>
<g opacity="0.22">
<path d="M89.7599 93.5552L69.0751 94.833C68.5814 94.8613 68.0965 94.6933 67.7261 94.3657C67.3557 94.038 67.1298 93.5773 67.0975 93.0838C67.0693 92.5905 67.2374 92.1061 67.5651 91.7362C67.8929 91.3664 68.3536 91.1413 68.8467 91.11L89.5315 89.8322C90.0249 89.8039 90.5093 89.972 90.8791 90.2998C91.2489 90.6275 91.4741 91.0882 91.5054 91.5814C91.5356 92.0746 91.3687 92.5596 91.0414 92.9297C90.714 93.2999 90.2531 93.5249 89.7599 93.5552Z" fill="#90CAF9"/>
</g>
<g opacity="0.22">
<path d="M102.755 92.7561L97.2314 93.0949C96.7385 93.1241 96.254 92.9569 95.8841 92.6297C95.5141 92.3026 95.2889 91.8422 95.2576 91.3494C95.2273 90.8558 95.3941 90.3703 95.7214 89.9996C96.0486 89.6289 96.5096 89.4031 97.0031 89.3718L102.527 89.033C103.02 89.0028 103.506 89.1696 103.877 89.4968C104.247 89.8241 104.473 90.285 104.504 90.7786C104.533 91.2723 104.365 91.7571 104.037 92.1275C103.709 92.4979 103.249 92.7239 102.755 92.7561Z" fill="#90CAF9"/>
</g>
<g opacity="0.22">
<path d="M103.212 100.143L69.5316 102.22C69.0382 102.25 68.5534 102.082 68.1828 101.755C67.8123 101.428 67.5863 100.968 67.5541 100.475C67.5248 99.9814 67.6919 99.4965 68.019 99.126C68.346 98.7555 68.8064 98.5294 69.2996 98.4972L102.984 96.4203C103.477 96.391 103.961 96.5583 104.331 96.8854C104.701 97.2126 104.926 97.673 104.958 98.1658C104.988 98.6594 104.821 99.1448 104.494 99.5155C104.167 99.8863 103.706 100.112 103.212 100.143Z" fill="#90CAF9"/>
</g>
<path opacity="0.22" d="M94.4734 46.5515L95.0221 55.4338C95.0563 55.9938 95.2006 56.5416 95.4466 57.0459C95.6926 57.5502 96.0355 58.0011 96.4558 58.3728C96.8761 58.7445 97.3655 59.0298 97.896 59.2123C98.4266 59.3949 98.9879 59.4711 99.5479 59.4367L108.441 58.888L94.4734 46.5515Z" fill="#90CAF9"/>
<path opacity="0.5" d="M84.0815 68.709C84.076 68.2834 83.9852 67.8631 83.8145 67.4732C83.6438 67.0832 83.3966 66.7314 83.0877 66.4386C82.7787 66.1458 82.4142 65.9178 82.0156 65.7683C81.6171 65.6187 81.1926 65.5505 80.7673 65.5678H51.2702C49.0349 65.5678 46.8511 67.3833 46.4313 69.6186L34.7908 129.257C34.3563 131.493 35.8146 133.308 38.0499 133.308H131.586C133.822 133.308 135.987 131.496 136.425 129.257L146.025 80.0954C146.46 77.8564 145.002 76.0446 142.766 76.0446H91.8701C87.4511 76.0446 84.2325 73.0028 84.0815 68.709Z" fill="#90CAF9"/>
</svg>
