<svg width="151" height="146" viewBox="0 0 151 146" fill="none" xmlns="http://www.w3.org/2000/svg">
<path d="M78.5555 122.597C106.448 122.597 129.059 87.0733 129.059 61.9752C129.059 36.877 107.178 11.9973 79.2854 11.9973C51.3929 11.9973 28.0521 36.8738 28.0521 61.972C28.0521 87.0702 50.6631 122.597 78.5555 122.597Z" fill="#FAFAFA" fill-opacity="0.1"/>
<path d="M129.512 34.5893C129.211 33.1708 129.354 32.0821 129.941 31.3232C130.821 30.1865 132.889 28.7727 135.719 29.3268C138.55 29.8809 140.627 32.5708 141.047 35.4205C141.33 37.3203 141.024 39.3151 140.13 41.4049C139.582 42.0667 139.03 42.3833 138.473 42.3548C137.638 42.3057 135.971 41.7785 135.446 41.1358C135.093 40.7051 133.115 38.523 129.512 34.5893Z" fill="#1D252E"/>
<path d="M138.249 42.7696C138.51 42.8651 138.793 42.8816 139.063 42.8171C139.392 42.7569 139.769 42.5089 140.192 42.073" stroke="#1D252E" stroke-width="0.5" stroke-linecap="round"/>
<path d="M138.311 43.3096C138.51 43.4257 138.864 43.4462 139.373 43.3713C139.883 43.2964 140.31 42.9982 140.653 42.4768C141.068 42.5021 141.458 42.9307 141.823 43.7623C142.369 45.0131 141.897 46.5171 142.353 47.3498C142.658 47.9071 143.167 48.4348 143.879 48.933C141.428 49.085 139.823 48.4517 139.063 47.0332C138.303 45.6147 138.053 44.3735 138.311 43.3096Z" fill="#1D252E"/>
<path d="M128.413 98.7304L132.176 131.235L124.127 137.335L138.531 137.08L134.986 97.9309L128.413 98.7304Z" fill="#1D252E"/>
<path d="M139.731 96.9492C140.64 106.071 142.13 112.765 142.898 117.345C143.665 121.925 144.941 126.439 144.905 129.548L136.286 136.989L149.457 136.082C149.9 135.97 150.248 135.039 150.145 132.424L146.574 96.1038L139.731 96.9492Z" fill="#1D252E"/>
<path d="M129.897 34.8268L129.289 36.9499L129.729 39.331L131.07 40.9775L132.444 41.6868L132.639 44.1486L132.688 45.7935L129.887 46.4078L130.444 48.3725L137.035 50.3578L139.79 46.7229L138.971 45.8363L136.693 46.0373L136.147 41.3939L137.26 39.665L137.721 38.0644L138.764 37.865L138.955 36.1852L138.14 35.4015L136.73 35.2147L135.721 33.7614L135.803 32.4695L132.194 34.6464L129.897 34.8268Z" fill="#E4897B"/>
<path d="M128.597 75.087C127.294 83.508 125.94 88.8069 125.528 92.2408C125.117 95.6747 124.911 97.8009 124.911 98.6163C135.343 99.4997 141.798 99.735 144.275 99.3224C146.752 98.9097 148.827 98.1482 150.5 97.0378C148.399 84.9423 146.746 77.2022 145.255 74.2638C143.764 71.3254 138.21 71.5993 128.597 75.087Z" fill="#1D252E"/>
<path d="M129.897 34.8269C129.281 36.1023 129.168 37.5629 129.58 38.9178C129.988 40.3079 130.991 41.2245 132.588 41.6678L132.691 45.7936L130.736 46.3066" stroke="#1D252E" stroke-width="0.5" stroke-linecap="round"/>
<path d="M129.96 34.6732C130.325 34.8843 131.011 34.8315 132.018 34.5148C133.025 34.1982 134.287 33.518 135.803 32.4741C135.643 33.049 135.691 33.6623 135.941 34.2045C136.157 34.7256 136.549 35.1539 137.049 35.4141C137.906 35.1228 138.482 35.3075 138.777 35.9682C139.218 36.9609 138.935 37.8284 138.607 37.9978C138.324 38.1164 138.011 38.1414 137.713 38.0691C137.766 38.5905 137.573 39.2095 137.132 39.9262C136.69 40.6428 136.354 41.0412 136.122 41.1215L136.481 45.6731L138.811 45.852" stroke="#1D252E" stroke-width="0.5" stroke-linecap="round"/>
<path d="M123.136 54.3948L121.089 57.224L114.821 51.8602L113.006 49.7308L110.37 48.9392L108.486 48.9883C106.942 50.2153 107.475 51.6116 110.023 53.1726L112.314 53.7283L120.61 62.743L122.486 64.1267L123.874 63.8844L127.887 57.9032L123.136 54.3948Z" fill="#E4897B"/>
<path d="M126.922 59.3393C125.104 62.1383 123.632 64.187 122.647 64.0397C121.662 63.8925 118.214 60.4554 112.311 53.7253L110.02 53.1744C106.587 51.0624 107.556 49.6581 108.511 49.1531C109.048 48.8681 111.791 49.199 112.638 49.6439C113.206 49.9394 113.963 50.7204 114.91 51.987L121.043 57.2273L122.289 55.5586" stroke="#1D252E" stroke-width="0.5" stroke-linecap="round"/>
<path d="M129.885 46.4078C130.004 47.4638 132.388 48.4486 133.728 48.4929C135.067 48.5372 138.129 47.1741 139.744 45.8601C142.611 45.5292 143.069 46.2147 144.158 48.3409C145.559 52.1595 143.156 57.9666 143.156 57.9666L145.404 74.3241L128.008 75.5906C128.026 72.838 128.047 70.8975 128.073 69.7693C128.179 65.178 128.334 62.4755 128.427 61.7346C128.556 60.7214 127.908 58.5461 127.576 58.3577L125.201 56.6162L122.221 54.2414C124.107 47.4147 124.712 46.8258 129.885 46.4078Z" fill="#5878C3"/>
<path d="M140.108 100.413L144.94 129.807L136.319 136.64C136.268 136.68 136.235 136.739 136.227 136.804C136.219 136.869 136.238 136.935 136.278 136.986C136.303 137.017 136.334 137.041 136.37 137.057C136.406 137.073 136.445 137.081 136.484 137.08C144.574 136.678 148.896 136.344 149.449 136.079C150.002 135.814 150.218 134.659 150.098 132.614L146.851 99.4666" stroke="#1D252E" stroke-width="0.5" stroke-linecap="round"/>
<path d="M128.443 99.6311L132.176 131.235L124.226 137.194C124.183 137.225 124.152 137.27 124.137 137.32C124.121 137.371 124.123 137.425 124.14 137.475C124.158 137.524 124.191 137.567 124.235 137.597C124.279 137.626 124.331 137.641 124.384 137.639L134.871 137.164" stroke="#1D252E" stroke-width="0.5" stroke-linecap="round"/>
<path d="M135.005 100.038L138.153 133.37" stroke="#1D252E" stroke-width="0.5" stroke-linecap="round"/>
<path d="M132.146 41.522C132.468 41.6731 132.817 41.7592 133.172 41.7753C133.696 41.8047 134.22 41.7414 134.722 41.5885" stroke="#1D252E" stroke-width="0.5" stroke-linecap="round"/>
<path d="M129.08 51.8713C128.063 53.5305 127.566 55.2087 127.587 56.9059C127.608 58.603 127.984 59.8696 128.715 60.7055L128.312 66.3084" stroke="#1D252E" stroke-width="0.5" stroke-linecap="round"/>
<path d="M130.65 61.144C131.789 62.0528 132.801 62.5378 133.685 62.599" stroke="#1D252E" stroke-width="0.5" stroke-linecap="round"/>
<path d="M138.455 53.2123L137.531 56.5782L129.773 53.7553L127.325 52.397L124.582 52.5806C124.582 52.5806 122.744 52.2545 122.049 53.2139C121.134 54.4931 126.141 56.5845 126.482 56.4499L128.079 56.3787L139.003 61.9198L141.245 62.5531L142.461 61.8406L144.134 54.8367C142.674 52.4856 140.8 51.8714 138.455 53.2123Z" fill="#E4897B"/>
<path d="M143.901 55.8118C143.181 59.07 142.353 62.2095 141.382 62.4153C140.412 62.6211 135.981 60.6104 128.084 56.3786L126.486 56.4498C122.748 55.234 121.751 54.2603 122.031 53.3642C122.311 52.4681 126.01 52.3225 126.96 52.4412C127.593 52.5204 128.576 52.9885 129.908 53.8455L137.489 56.6018L138.072 54.6039" stroke="#1D252E" stroke-width="0.5" stroke-linecap="round"/>
<path d="M112.703 50.4782C112.703 50.4782 111.137 49.5948 110.901 50.0413C110.666 50.4877 112.626 51.5659 112.626 51.5659" stroke="#1D252E" stroke-width="0.5" stroke-linecap="round"/>
<path d="M40.7714 59.8346L39.8214 55.9131L33.704 59.8568L35.3917 63.829C35.3917 63.829 34.9722 66.6787 37.8488 66.256C39.7075 67.3642 55.1498 60.3856 55.1498 60.3856L56.2327 59.7048C59.2186 58.699 61.5158 57.3337 63.1243 55.6091C65.5355 53.0206 62.1174 52.4333 60.2192 53.076C58.3209 53.7188 56.8391 55.1136 56.209 55.8038C55.5788 56.4941 55.0691 57.0071 54.1192 57.3965C51.5132 58.0298 43.5356 58.9797 40.7714 59.8394" fill="#E4897B"/>
<path d="M39.2451 60.2195C42.0094 59.3583 51.5132 58.0268 54.1191 57.3888C55.069 56.9993 55.5804 56.4848 56.2089 55.7961C56.8374 55.1074 58.3193 53.7063 60.2191 53.0683C62.1189 52.4303 65.5354 53.0176 63.1242 55.6014C61.5157 57.3302 59.2185 58.6981 56.2327 59.705L55.1498 60.3857C55.1498 60.3857 40.3264 67.5512 36.3938 66.139C35.2856 65.7401 35.3917 63.8292 35.3917 63.8292L34.3848 61.3467" stroke="#1D252E" stroke-width="0.5" stroke-linecap="round" stroke-linejoin="round"/>
<path d="M40.0811 56.7253L40.9486 59.7809" stroke="#1D252E" stroke-width="0.5" stroke-linecap="round" stroke-linejoin="round"/>
<path d="M61.5886 48.4247L57.6306 56.6952L60.0608 60.8353L60.6877 60.5867L64.6251 52.4602L62.2013 48.3281L61.5886 48.4247Z" fill="#5878C3"/>
<path d="M62.0255 49.5979L63.6895 52.4318L60.2793 59.583" stroke="#1D252E" stroke-width="0.5" stroke-linecap="round" stroke-linejoin="round"/>
<path d="M59.2091 55.375L58.5806 56.689L58.9938 57.3904" stroke="#1D252E" stroke-width="0.5" stroke-linecap="round" stroke-linejoin="round"/>
<path d="M55.9161 57.2209C58.6602 56.6826 60.1621 56.09 60.4218 55.443C60.6814 54.796 60.0482 54.5321 58.522 54.6514C58.522 54.6514 54.7461 56.7887 55.9161 57.2209Z" fill="white"/>
<path d="M58.5188 54.6515C60.0481 54.5332 60.6814 54.7971 60.4186 55.443C60.1558 56.089 58.6549 56.6816 55.916 57.221" stroke="#1D252E" stroke-width="0.5" stroke-linecap="round" stroke-linejoin="round"/>
<path d="M17.3023 42.6082L19.6771 41.9243L20.2201 37.1526C19.172 35.9763 19.3573 36.1156 18.9757 34.6385L17.8438 34.5103L17.2801 33.44L17.5968 32.3065L17.9546 31.9708L17.497 29.9887L25.0441 29.49L25.481 29.7401L26.4689 31.7064L26.9866 33.9229L26.499 35.8101C25.6298 37.0149 25.6425 36.9879 24.3775 37.7589L23.9137 37.7067L23.4751 42.119L26.7428 42.0098L23.7031 45.393L17.2263 45.4912L17.3023 42.6082Z" fill="#E4897B"/>
<path d="M18.2363 42.2757C18.8189 42.1237 19.2976 42.0066 19.6723 41.9242C19.7609 40.492 19.9419 38.9014 20.2153 37.1525C19.2464 36.2232 19.2306 36.0348 18.9804 34.6464C16.5566 34.8142 16.8526 31.3328 19.1229 31.9755" stroke="#1D252E" stroke-width="0.5" stroke-linecap="round" stroke-linejoin="round"/>
<path d="M25.967 30.8403C27.9602 33.6236 26.6114 37.3773 23.7585 37.8222L23.4688 42.1252L25.1137 42.0572" stroke="#1D252E" stroke-width="0.5" stroke-linecap="round" stroke-linejoin="round"/>
<path d="M3.1455 126.476C2.72912 128.971 0.5 135.079 0.5 135.079C0.5 135.079 12.5559 139.426 13.1195 139.097C13.843 138.674 10.0862 135.587 7.78896 130.213L8.40482 127.566" fill="#1D252E"/>
<path d="M29.8252 126.713L29.6985 137.32C29.6985 137.32 42.4748 137.979 42.8833 137.479C43.4089 136.826 38.8034 134.787 34.7046 129.579L34.9753 126.729" fill="#1D252E"/>
<path d="M10.0402 73.3708L9.26447 101.74L1.6557 125.739C5.61365 127.406 8.17841 129.222 11.2545 128.416L19.7055 104.985L20.2074 85.5693C20.7742 85.7133 21.6164 85.5487 22.1848 85.2004L25.9195 105.693L28.8785 126.498C33.1278 127.253 34.3753 127.577 38.1069 126.814L35.14 105.006L30.8163 75.7345L10.0402 73.3708Z" fill="#1D252E"/>
<path d="M17.812 31.3611C18.2999 31.1501 18.8424 31.1007 19.3604 31.2202" stroke="#1D252E" stroke-width="0.5" stroke-linecap="round" stroke-linejoin="round"/>
<path d="M17.5746 30.8229C18.4041 30.5548 19.106 30.454 19.6802 30.5205C19.7604 30.2651 19.8591 29.9801 19.9762 29.6656C21.0919 31.1274 22.9305 31.206 25.492 29.9015C30.2416 26.8491 23.3643 19.1991 19.2021 25.877C16.3808 26.0575 16.6183 28.0428 17.5746 30.8229Z" fill="#1D252E"/>
<path d="M17.0458 42.7697C19.2622 46.3525 25.2039 45.3028 26.1063 42.3344C27.2953 42.0003 32.2174 43.2004 34.6222 44.5192C36.6376 47.0348 40.7761 52.8657 41.3365 55.1265C38.8193 56.0495 36.1278 58.5335 33.704 60.8418L31.8216 75.7632C20.9119 77.8562 18.9313 77.9005 9.05386 73.3885L9.75363 63.7311C7.46118 53.6446 6.01099 50.8899 7.83007 47.456C9.5114 44.2643 11.3986 44.6917 17.0458 42.7697Z" fill="#5878C3"/>
<path d="M3.1455 126.476C2.72912 128.971 0.5 135.079 0.5 135.079C0.5 135.079 12.5559 139.426 13.1195 139.097C13.843 138.674 10.0862 135.587 7.78896 130.213" stroke="#1D252E" stroke-width="0.5" stroke-linecap="round" stroke-linejoin="round"/>
<path d="M29.8252 126.713L29.6985 137.32C29.6985 137.32 42.4748 137.979 42.8833 137.479C43.4089 136.826 38.8034 134.787 34.7046 129.579" stroke="#1D252E" stroke-width="0.5" stroke-linecap="round" stroke-linejoin="round"/>
<path d="M34.0855 52.666C34.0855 52.666 33.9589 59.9977 33.324 64.8913" stroke="#1D252E" stroke-width="0.5" stroke-linecap="round" stroke-linejoin="round"/>
<path d="M30.3762 74.1309C31.9404 71.1339 30.21 69.4368 31.6095 66.481" stroke="#1D252E" stroke-width="0.5" stroke-linecap="round" stroke-linejoin="round"/>
<path d="M15.2773 54.8367C16.3492 56.8679 18.3503 63.8196 18.3503 63.8196C18.3503 63.8196 28.6948 61.2644 29.6954 61.1805C31.2786 60.4221 39.6235 58.0363 39.8198 62.0528C40.0161 66.0693 32.5578 65.0276 30.1719 64.6302C26.9343 65.2112 17.812 69.3338 15.423 67.909C11.8339 65.5342 10.664 61.3879 8.96679 57.5376C7.80632 54.8367 14.12 52.131 15.2773 54.8367Z" fill="#E4897B"/>
<path d="M16.612 58.2532C17.5002 60.8718 18.3535 63.8244 18.3535 63.8244C18.3535 63.8244 28.698 61.2691 29.6986 61.1852C31.2818 60.4269 39.6267 58.041 39.823 62.0576C40.0193 66.0741 32.561 65.0324 30.1751 64.635C26.9375 65.216 17.8152 69.4447 15.4262 67.9137C13.3681 66.549 12.1015 64.5891 11.0724 62.4502" stroke="#1D252E" stroke-width="0.5" stroke-linecap="round" stroke-linejoin="round"/>
<path d="M17.478 56.2124C15.746 56.3707 13.2952 58.8072 9.46072 62.4501L7.40259 53.8756L15.2647 51.0876L17.478 56.2124Z" fill="#5878C3"/>
<path d="M108.014 25.4496C108.014 29.034 107.344 32.2066 106.017 34.8806C104.766 37.4658 103.141 39.8529 101.195 41.9654C99.2794 44.0045 95.7964 47.4828 90.8426 52.302L90.8299 52.313C89.6331 53.48 88.5015 54.712 87.4403 56.0034C86.6629 56.9385 85.9977 57.9613 85.4582 59.0511C85.0381 59.938 84.7005 60.8617 84.4497 61.8105C84.3468 62.2127 84.274 63.4016 84.0777 67.2899C83.8244 72.307 83.636 75.4022 83.4365 76.3853V76.4233C82.523 81.8552 79.4231 82.4837 77.1687 82.4837C75.3227 82.4837 73.8139 81.8505 72.5584 80.5364C71.303 79.2224 70.6713 77.2117 70.6713 74.533C70.6713 70.8283 71.2254 57.7513 72.188 55.2657C73.1384 52.7655 74.5014 50.4424 76.2203 48.3931C77.9333 46.3777 80.286 43.938 83.2148 41.1453C85.8382 38.6328 87.6984 36.7884 88.881 35.4997C90.1017 34.1676 91.1365 32.6764 91.9572 31.0668C92.8238 29.3677 93.269 27.4851 93.2554 25.5779C93.2554 21.7877 91.9382 18.5438 89.3418 15.9316C86.7453 13.3193 83.3573 11.9926 79.2854 11.9926C74.5358 11.9926 70.9642 13.3478 68.667 16.017C66.4505 18.596 64.6283 22.2516 63.1116 27.1959L63.0958 27.2465C61.8387 31.7871 59.5827 33.9925 56.2026 33.9925C54.2062 33.9925 52.5613 33.2452 51.1887 31.7079C49.8161 30.1707 49.0973 28.4751 49.0973 26.7035C49.0973 22.7028 50.3021 18.577 52.68 14.4449C55.058 10.3128 58.5869 6.82826 63.1686 4.10044C67.7503 1.37262 73.1648 0 79.2854 0C84.9848 0 90.0732 1.15414 94.4174 3.43233C98.7617 5.71053 102.123 8.81515 104.472 12.7066C106.825 16.5379 108.052 20.9538 108.014 25.4496Z" fill="#5878C3"/>
<path d="M86.7279 103.035C86.7279 105.605 85.9363 107.552 84.3214 108.991C82.7732 110.409 80.7466 111.19 78.6473 111.177C76.5013 111.205 74.4216 110.434 72.8117 109.015C71.1763 107.59 70.3831 105.641 70.3831 103.035C70.3831 100.735 71.1605 98.8554 72.7579 97.2897C74.3553 95.7239 76.2915 94.9529 78.6426 94.9529C80.9461 94.9529 82.8285 95.716 84.3959 97.2817C85.9632 98.8475 86.7279 100.731 86.7279 103.035Z" fill="#5878C3"/>
<path d="M75.5 146C116.921 146 150.5 144.881 150.5 143.5C150.5 142.119 116.921 141 75.5 141C34.0786 141 0.5 142.119 0.5 143.5C0.5 144.881 34.0786 146 75.5 146Z" fill="#F5F5F5" fill-opacity="0.1"/>
</svg>
