<svg width="240" height="160" viewBox="0 0 240 160" fill="none" xmlns="http://www.w3.org/2000/svg">
<path d="M234.447 44.2815H177.183V123.877H234.447V44.2815Z" fill="white" fill-opacity="0.1"/>
<path d="M234.447 44.2815H177.183V73.092H234.447V44.2815Z" fill="#455A64"/>
<path d="M224.53 80.1517C224.53 80.2017 216.656 80.2418 206.947 80.2418C197.238 80.2418 189.364 80.2017 189.364 80.1517C189.364 80.1016 197.235 80.0649 206.947 80.0649C216.66 80.0649 224.53 80.095 224.53 80.1517Z" fill="#263238"/>
<path d="M224.53 87.9022C224.53 87.9489 216.656 87.9889 206.947 87.9889C197.238 87.9889 189.364 87.9489 189.364 87.9022C189.364 87.8555 197.235 87.8154 206.947 87.8154C216.66 87.8154 224.53 87.8555 224.53 87.9022Z" fill="#263238"/>
<path d="M224.53 95.6628C224.53 95.7095 216.656 95.7496 206.947 95.7496C197.238 95.7496 189.364 95.7095 189.364 95.6628C189.364 95.6161 197.235 95.5728 206.947 95.5728C216.66 95.5728 224.53 95.6128 224.53 95.6628Z" fill="#263238"/>
<path d="M224.384 104.608H189.988C186.605 104.608 183.862 107.351 183.862 110.734V111.371C183.862 114.754 186.605 117.497 189.988 117.497H224.384C227.767 117.497 230.51 114.754 230.51 111.371V110.734C230.51 107.351 227.767 104.608 224.384 104.608Z" fill="#455A64"/>
<path d="M194.353 63.9729C194.597 64.0715 194.805 64.2436 194.947 64.4653C195.089 64.6871 195.159 64.9475 195.147 65.2107C195.154 65.4734 195.083 65.7322 194.943 65.9547C194.797 66.1704 194.592 66.3395 194.353 66.4419C194.069 66.5623 193.763 66.6215 193.455 66.6154H192.788V67.6163H191.71V63.8027H193.452C193.761 63.7934 194.068 63.8515 194.353 63.9729ZM193.892 65.6211C193.999 65.5104 194.058 65.3627 194.058 65.209C194.058 65.0554 193.999 64.9077 193.892 64.797C193.749 64.6884 193.571 64.6362 193.392 64.6502H192.791V65.7646H193.402C193.577 65.7753 193.75 65.7245 193.892 65.6211Z" fill="white" fill-opacity="0.1"/>
<path d="M197.336 66.5989H196.738V67.5998H195.671V63.8029H197.406C197.714 63.7952 198.02 63.8544 198.303 63.9764C198.477 64.0591 198.632 64.1771 198.758 64.3228C198.884 64.4686 198.979 64.6389 199.035 64.823C199.092 65.0071 199.11 65.201 199.088 65.3924C199.066 65.5838 199.004 65.7686 198.907 65.9349C198.771 66.1436 198.579 66.3101 198.353 66.4154L199.174 67.6132H198.02L197.336 66.5989ZM197.85 64.7972C197.706 64.6886 197.528 64.6364 197.349 64.6504H196.738V65.7648H197.339C197.518 65.7779 197.695 65.727 197.839 65.6213C197.946 65.5106 198.006 65.3629 198.006 65.2092C198.006 65.0556 197.946 64.9079 197.839 64.7972H197.85Z" fill="white" fill-opacity="0.1"/>
<path d="M202.744 66.7789V67.6097H199.684V63.8027H202.687V64.6369H200.765V65.2775H202.457V66.0849H200.765V66.7822L202.744 66.7789Z" fill="white" fill-opacity="0.1"/>
<path d="M206.794 67.6097V65.6078L205.813 67.2527H205.336L204.362 65.6612V67.6263H203.361V63.8027H204.248L205.583 66.0015L206.887 63.8027H207.775V67.613L206.794 67.6097Z" fill="white" fill-opacity="0.1"/>
<path d="M208.549 63.8027H209.627V67.613H208.549V63.8027Z" fill="white" fill-opacity="0.1"/>
<path d="M210.832 67.2226C210.668 67.0479 210.541 66.8413 210.46 66.6158C210.38 66.3902 210.346 66.1505 210.361 65.9114V63.8027H211.439V65.8814C211.439 66.4919 211.679 66.7956 212.163 66.7956C212.647 66.7956 212.88 66.4919 212.88 65.8814V63.8027H213.941V65.9147C213.957 66.1538 213.923 66.3936 213.842 66.6191C213.761 66.8447 213.635 67.0512 213.471 67.226C213.097 67.5262 212.631 67.6899 212.151 67.6899C211.671 67.6899 211.206 67.5262 210.832 67.226V67.2226Z" fill="white" fill-opacity="0.1"/>
<path d="M218.112 67.6097V65.6078L217.134 67.2527H216.654L215.68 65.6612V67.6263H214.679V63.8027H215.566L216.901 66.0015L218.205 63.8027H219.093V67.613L218.112 67.6097Z" fill="white" fill-opacity="0.1"/>
<path d="M198.449 112.355C198.162 112.202 197.924 111.971 197.762 111.688C197.596 111.401 197.509 111.075 197.509 110.744C197.509 110.412 197.596 110.087 197.762 109.8C197.927 109.524 198.165 109.298 198.449 109.149C198.758 108.986 199.102 108.905 199.45 108.912C199.736 108.907 200.019 108.962 200.281 109.076C200.525 109.178 200.74 109.337 200.908 109.539L200.381 110.026C200.274 109.895 200.138 109.789 199.983 109.716C199.829 109.644 199.661 109.608 199.49 109.609C199.285 109.607 199.083 109.657 198.903 109.756C198.734 109.849 198.594 109.988 198.5 110.157C198.403 110.337 198.354 110.539 198.356 110.744C198.353 110.949 198.403 111.151 198.5 111.331C198.593 111.501 198.733 111.641 198.903 111.735C199.083 111.833 199.286 111.882 199.49 111.878C199.661 111.88 199.83 111.843 199.984 111.77C200.139 111.698 200.274 111.591 200.381 111.458L200.908 111.945C200.74 112.149 200.525 112.311 200.281 112.415C200.016 112.525 199.731 112.579 199.444 112.576C199.099 112.588 198.757 112.512 198.449 112.355Z" fill="white" fill-opacity="0.1"/>
<path d="M203.858 110.07C203.969 110.191 204.054 110.333 204.108 110.488C204.162 110.643 204.184 110.807 204.172 110.971V112.516H203.381V111.078C203.394 110.906 203.345 110.735 203.241 110.597C203.188 110.543 203.124 110.5 203.053 110.472C202.982 110.445 202.906 110.433 202.83 110.437C202.743 110.433 202.655 110.447 202.572 110.478C202.49 110.51 202.416 110.559 202.353 110.621C202.225 110.774 202.162 110.972 202.176 111.171V112.506H201.386V108.776H202.176V110.09C202.285 109.984 202.414 109.902 202.557 109.85C202.712 109.793 202.876 109.764 203.041 109.767C203.19 109.759 203.34 109.783 203.48 109.835C203.621 109.887 203.749 109.967 203.858 110.07Z" fill="white" fill-opacity="0.1"/>
<path d="M205.44 112.392C205.219 112.278 205.034 112.105 204.906 111.891C204.779 111.671 204.713 111.422 204.713 111.167C204.713 110.913 204.779 110.664 204.906 110.443C205.034 110.231 205.219 110.059 205.44 109.946C205.68 109.828 205.943 109.766 206.211 109.766C206.478 109.766 206.742 109.828 206.981 109.946C207.201 110.06 207.384 110.232 207.512 110.443C207.639 110.664 207.705 110.913 207.705 111.167C207.705 111.422 207.639 111.671 207.512 111.891C207.385 112.104 207.201 112.278 206.981 112.392C206.741 112.508 206.478 112.569 206.211 112.569C205.944 112.569 205.68 112.508 205.44 112.392ZM206.711 111.725C206.846 111.574 206.916 111.376 206.905 111.174C206.91 111.075 206.896 110.975 206.863 110.881C206.83 110.787 206.778 110.701 206.711 110.627C206.645 110.561 206.567 110.509 206.482 110.473C206.396 110.438 206.304 110.419 206.211 110.419C206.118 110.419 206.026 110.438 205.94 110.473C205.854 110.509 205.776 110.561 205.71 110.627C205.642 110.7 205.59 110.786 205.556 110.88C205.522 110.974 205.508 111.074 205.513 111.174C205.508 111.274 205.522 111.375 205.556 111.469C205.59 111.564 205.642 111.651 205.71 111.725C205.844 111.855 206.024 111.928 206.211 111.928C206.398 111.928 206.577 111.855 206.711 111.725Z" fill="white" fill-opacity="0.1"/>
<path d="M208.749 112.392C208.529 112.277 208.344 112.104 208.215 111.891C208.091 111.67 208.025 111.421 208.025 111.167C208.025 110.914 208.091 110.664 208.215 110.443C208.344 110.231 208.529 110.059 208.749 109.946C208.989 109.824 209.254 109.762 209.523 109.766C209.79 109.761 210.054 109.823 210.291 109.946C210.511 110.059 210.696 110.231 210.824 110.443C210.949 110.664 211.014 110.914 211.014 111.167C211.014 111.421 210.949 111.67 210.824 111.891C210.696 112.104 210.511 112.277 210.291 112.392C210.053 112.512 209.79 112.573 209.523 112.569C209.255 112.573 208.989 112.512 208.749 112.392ZM210.02 111.724C210.156 111.574 210.227 111.376 210.217 111.174C210.222 111.074 210.207 110.974 210.174 110.881C210.14 110.787 210.088 110.7 210.02 110.627C209.956 110.56 209.879 110.507 209.794 110.471C209.708 110.435 209.616 110.418 209.523 110.42C209.43 110.417 209.337 110.435 209.251 110.47C209.165 110.506 209.087 110.559 209.023 110.627C208.954 110.7 208.901 110.786 208.867 110.88C208.832 110.974 208.817 111.074 208.823 111.174C208.818 111.274 208.833 111.375 208.867 111.469C208.901 111.564 208.954 111.651 209.023 111.724C209.087 111.791 209.165 111.844 209.252 111.879C209.338 111.914 209.43 111.931 209.523 111.928C209.617 111.93 209.71 111.912 209.796 111.876C209.882 111.84 209.96 111.786 210.024 111.718L210.02 111.724Z" fill="white" fill-opacity="0.1"/>
<path d="M211.799 112.485C211.616 112.445 211.441 112.374 211.282 112.275L211.545 111.708C211.681 111.794 211.83 111.858 211.986 111.898C212.15 111.946 212.321 111.971 212.493 111.971C212.826 111.971 212.993 111.891 212.993 111.724C212.992 111.685 212.978 111.648 212.953 111.618C212.928 111.588 212.894 111.566 212.856 111.558C212.72 111.514 212.579 111.485 212.436 111.471C212.25 111.445 212.066 111.406 211.886 111.354C211.741 111.312 211.611 111.231 211.508 111.121C211.396 110.989 211.338 110.819 211.348 110.647C211.346 110.482 211.399 110.321 211.498 110.19C211.611 110.046 211.761 109.938 211.932 109.876C212.146 109.799 212.372 109.762 212.6 109.766C212.793 109.766 212.985 109.787 213.173 109.829C213.339 109.863 213.499 109.922 213.647 110.003L213.384 110.567C213.145 110.431 212.874 110.36 212.6 110.363C212.469 110.355 212.338 110.379 212.219 110.433C212.183 110.449 212.152 110.475 212.13 110.507C212.108 110.539 212.095 110.577 212.092 110.617C212.093 110.657 212.106 110.696 212.131 110.728C212.155 110.76 212.19 110.783 212.229 110.794C212.37 110.839 212.516 110.871 212.663 110.89C212.847 110.919 213.03 110.958 213.21 111.007C213.352 111.049 213.48 111.129 213.58 111.237C213.69 111.367 213.746 111.534 213.737 111.704C213.74 111.867 213.687 112.026 213.587 112.155C213.47 112.296 213.317 112.402 213.143 112.462C212.921 112.539 212.687 112.575 212.453 112.569C212.232 112.569 212.012 112.54 211.799 112.485Z" fill="white" fill-opacity="0.1"/>
<path d="M216.884 111.391H214.825C214.858 111.554 214.952 111.697 215.089 111.791C215.242 111.893 215.423 111.944 215.606 111.938C215.735 111.939 215.862 111.918 215.983 111.875C216.097 111.829 216.2 111.761 216.287 111.675L216.707 112.128C216.565 112.28 216.39 112.399 216.196 112.475C216.002 112.551 215.794 112.583 215.586 112.569C215.304 112.574 215.024 112.513 214.769 112.392C214.543 112.28 214.353 112.107 214.222 111.891C214.097 111.671 214.031 111.422 214.031 111.169C214.031 110.916 214.097 110.667 214.222 110.447C214.346 110.235 214.526 110.062 214.742 109.946C214.969 109.831 215.22 109.771 215.474 109.771C215.729 109.771 215.98 109.831 216.207 109.946C216.42 110.059 216.597 110.23 216.717 110.44C216.843 110.669 216.907 110.926 216.901 111.187C216.901 111.187 216.897 111.257 216.884 111.391ZM215.039 110.513C214.914 110.619 214.834 110.768 214.815 110.93H216.15C216.13 110.769 216.05 110.622 215.926 110.517C215.802 110.414 215.644 110.359 215.483 110.363C215.321 110.358 215.164 110.411 215.039 110.513Z" fill="white" fill-opacity="0.1"/>
<path d="M185.788 81.5895C185.665 81.5909 185.546 81.5469 185.454 81.466L184.473 80.6019C184.374 80.5134 184.313 80.389 184.305 80.256C184.298 80.1231 184.343 79.9924 184.431 79.8929C184.52 79.7933 184.644 79.733 184.777 79.7252C184.91 79.7174 185.041 79.7627 185.14 79.8512L185.751 80.3884L187.132 78.8602C187.223 78.7698 187.345 78.7175 187.473 78.714C187.6 78.7106 187.725 78.7563 187.82 78.8418C187.915 78.9272 187.974 79.0459 187.985 79.1735C187.995 79.301 187.956 79.4277 187.876 79.5275L186.161 81.4193C186.115 81.4725 186.057 81.5152 185.993 81.5445C185.928 81.5738 185.858 81.5892 185.788 81.5895Z" fill="#455A64"/>
<path d="M185.788 89.347C185.665 89.3484 185.546 89.3045 185.454 89.2236L184.473 88.3627C184.424 88.3189 184.383 88.2658 184.354 88.2064C184.325 88.1469 184.308 88.0824 184.304 88.0164C184.296 87.8831 184.341 87.7521 184.43 87.6521C184.518 87.5521 184.643 87.4913 184.776 87.4832C184.909 87.4751 185.04 87.5202 185.14 87.6087L185.751 88.1459L187.132 86.6211C187.175 86.568 187.228 86.5242 187.288 86.4923C187.348 86.4604 187.414 86.4411 187.482 86.4355C187.549 86.43 187.618 86.4383 187.682 86.46C187.747 86.4817 187.806 86.5163 187.857 86.5617C187.907 86.6072 187.948 86.6624 187.977 86.7242C188.005 86.7859 188.021 86.8529 188.023 86.9209C188.025 86.9889 188.013 87.0565 187.987 87.1197C187.962 87.1829 187.924 87.2403 187.876 87.2884L186.161 89.1802C186.115 89.2333 186.057 89.2756 185.993 89.3044C185.928 89.3332 185.858 89.3477 185.788 89.347Z" fill="#455A64"/>
<path d="M185.788 97.1076C185.665 97.109 185.546 97.065 185.454 96.9841L184.473 96.12C184.374 96.0315 184.313 95.9071 184.305 95.7741C184.298 95.6411 184.343 95.5105 184.431 95.411C184.52 95.3114 184.644 95.2511 184.777 95.2433C184.91 95.2354 185.041 95.2808 185.14 95.3692L185.751 95.9064L187.132 94.3783C187.223 94.2879 187.345 94.2356 187.473 94.2321C187.6 94.2287 187.725 94.2744 187.82 94.3598C187.915 94.4453 187.974 94.564 187.985 94.6915C187.995 94.8191 187.956 94.9458 187.876 95.0456L186.161 96.9374C186.115 96.9906 186.057 97.0332 185.993 97.0626C185.928 97.0919 185.858 97.1072 185.788 97.1076Z" fill="#455A64"/>
<path d="M209.226 51.978L210.05 53.6496L211.899 53.9199L210.561 55.2211L210.878 57.0595L209.226 56.192L207.575 57.0595L207.888 55.2211L206.554 53.9199L208.399 53.6496L209.226 51.978Z" fill="white" fill-opacity="0.1"/>
<path d="M202.738 51.978L203.565 53.6496L205.41 53.9199L204.076 55.2211L204.389 57.0595L202.738 56.192L201.086 57.0595L201.403 55.2211L200.065 53.9199L201.913 53.6496L202.738 51.978Z" fill="white" fill-opacity="0.1"/>
<path d="M207.985 58.8718L205.813 57.7007L203.621 58.8217L204.064 56.3994L202.319 54.6578L204.762 54.3308L205.876 52.1321L206.944 54.3542L209.379 54.7379L207.594 56.4395L207.985 58.8718Z" fill="white" fill-opacity="0.1"/>
<path d="M201.89 54.5107L204.632 54.1471L205.883 51.6814L207.078 54.1737L209.81 54.6042L207.808 56.5093L208.246 59.2419L205.813 57.9273L203.351 59.1851L203.848 56.4659L201.89 54.5107ZM208.95 54.8711L206.811 54.5374L205.873 52.5822L204.892 54.5141L202.744 54.7943L204.275 56.3224L203.888 58.4645L205.817 57.4635L207.722 58.4945L207.388 56.3558L208.95 54.8711Z" fill="#455A64"/>
<path d="M234.441 123.876C234.441 123.176 234.407 91.3289 234.36 44.2812L234.441 44.3612H177.183L177.27 44.2745C177.27 74.0559 177.27 101.612 177.27 123.87L177.2 123.799L234.464 123.87L177.2 123.94H177.126V123.87C177.126 101.612 177.126 74.0559 177.126 44.2745V44.1877H177.22H234.477H234.554V44.2645C234.477 91.3289 234.441 123.192 234.441 123.876Z" fill="#263238"/>
<path d="M188.167 34.1549C188.343 33.8315 188.452 33.4764 188.488 33.1104C188.524 32.7443 188.487 32.3747 188.379 32.0232C188.27 31.6718 188.093 31.3455 187.856 31.0635C187.62 30.7816 187.33 30.5496 187.003 30.3813C187.107 29.4776 186.86 28.5683 186.312 27.8421C185.764 27.1158 184.958 26.6284 184.06 26.481C183.199 26.3776 182.328 26.6044 181.464 26.5377C180.6 26.471 179.853 26.1373 179.032 25.9872C178.211 25.8371 177.267 25.9238 176.696 26.5377C176.072 27.205 176.166 28.3361 176.663 29.1201C177.16 29.9042 177.961 30.4247 178.738 30.9252C178.505 30.9248 178.28 31.0092 178.104 31.1626C177.929 31.3161 177.815 31.5282 177.784 31.7593C177.735 32.2334 177.864 32.7087 178.144 33.0939C178.568 33.7436 179.163 34.2638 179.864 34.597C180.564 34.9302 181.343 35.0635 182.115 34.9823L184.294 34.9189C184.597 35.127 184.939 35.2724 185.299 35.3466C185.659 35.4209 186.03 35.4224 186.391 35.3513C186.752 35.2801 187.095 35.1376 187.4 34.9322C187.705 34.7268 187.966 34.4625 188.167 34.1549Z" fill="#263238"/>
<path d="M181.285 36.3069C181.061 36.3268 180.837 36.2632 180.657 36.1283C180.478 35.9934 180.354 35.7968 180.31 35.5762C180.276 35.3533 180.304 35.1253 180.39 34.917C180.477 34.7087 180.619 34.5282 180.801 34.3951C181.173 34.1398 181.622 34.0218 182.072 34.0615C182.52 34.0994 182.961 34.2017 183.38 34.3651C184.039 34.582 184.67 34.8777 185.258 35.2459C185.471 35.3702 185.653 35.54 185.792 35.7431C185.861 35.8455 185.901 35.9646 185.908 36.0879C185.915 36.2112 185.889 36.3341 185.832 36.4437C185.652 36.7373 185.248 36.7774 184.905 36.7774C183.615 36.7833 182.327 36.6716 181.058 36.4437" fill="#2D9CDB"/>
<path d="M180.567 35.5728C180.31 33.1305 176.863 30.9384 175.375 31.3288C174.996 30.6242 174.361 30.0925 173.6 29.844C172.84 29.5955 172.013 29.6493 171.291 29.9942L167.234 28.1958C166.54 27.8889 165.813 27.5719 165.059 27.6386C164.305 27.7054 163.537 28.3059 163.564 29.0566C162.099 28.4727 160.267 29.9508 160.534 31.5089C160.316 31.5586 160.11 31.6525 159.929 31.7848C159.748 31.9171 159.597 32.085 159.483 32.2782C159.37 32.4713 159.297 32.6857 159.27 32.908C159.242 33.1303 159.26 33.3559 159.323 33.5709C157.504 34.0213 155.775 34.7796 154.212 35.813C153.544 36.2434 152.901 36.7739 152.687 37.5246C152.473 38.2753 152.951 39.2562 153.731 39.2629C153.382 39.3796 153.073 39.5946 152.842 39.8821C152.611 40.1697 152.468 40.5177 152.43 40.8844C151.826 40.464 150.979 41.2481 151.072 41.9788C151.166 42.7095 151.789 43.2367 152.39 43.647C152.991 44.0574 153.655 44.5045 153.895 45.1985C153.837 45.2679 153.765 45.3246 153.684 45.3653C153.603 45.4061 153.515 45.4299 153.424 45.4354C151.803 45.5155 150.472 46.7266 150.452 48.3481C150.452 48.4983 150.452 48.6384 150.452 48.7619C150.452 49.5026 150.959 50.5702 151.286 51.2309C152.11 52.8991 153.004 53.3629 154.339 54.6741C153.224 55.3414 154.085 59.2518 158.399 59.1917C162.843 64.7436 166.423 68.2402 172.145 72.4609C172.963 73.0648 174.027 73.6754 174.928 73.2083C175.462 73.8755 176.403 74.0891 177.247 73.969C178.082 73.7971 178.882 73.4845 179.612 73.0448C180.47 73.3577 181.404 73.3975 182.285 73.1585C183.166 72.9195 183.952 72.4136 184.534 71.7102C185.291 71.6838 186.034 71.5003 186.717 71.1711C187.399 70.842 188.005 70.3745 188.497 69.7984C190.182 70.3889 192.251 69.1578 192.538 67.3961C193.483 65.4864 194.105 63.4334 194.38 61.3204C195.467 61.8042 196.749 60.7999 197.009 59.6355C197.269 58.471 196.829 57.2999 196.395 56.1755C196.962 56.8762 198.22 56.4424 198.57 55.615C198.921 54.7876 198.644 53.8333 198.293 53.0025C197.784 51.7844 197.129 50.6326 196.341 49.5726C196.912 48.0946 196.365 45.5288 195.611 44.1342C192.568 38.5055 189.709 35.5494 180.573 35.5427" fill="#263238"/>
<path d="M170.734 39.7504C171.045 39.2512 171.532 38.8878 172.1 38.7325C172.667 38.5773 173.272 38.6417 173.793 38.9129L185.928 43.1169C189.492 44.9519 189.014 50.5072 187.029 53.9904C184.824 57.8608 181.981 62.4985 179.722 64.9808C175.178 69.9855 169.753 67.3364 169.753 67.3364L167.084 71.3602L163.998 76.0679C162.59 74.76 154.055 65.578 154.055 65.578L170.734 39.7504Z" fill="#FFBF9D"/>
<path d="M175.882 58.4246C175.906 58.3779 176.439 58.6081 177.28 59.0185C177.49 59.1286 177.701 59.212 177.821 59.0986C177.97 58.9068 178.059 58.6742 178.074 58.4313C178.201 57.8352 178.334 57.209 178.475 56.5529C179.065 53.8837 179.629 51.7583 179.736 51.7817C179.843 51.805 179.452 53.9838 178.862 56.6429C178.711 57.3102 178.568 57.9175 178.428 58.5147C178.396 58.8327 178.253 59.1294 178.024 59.3522C177.95 59.4024 177.866 59.4352 177.777 59.4479C177.689 59.4606 177.599 59.453 177.514 59.4256C177.386 59.3842 177.264 59.3271 177.15 59.2554C176.343 58.7983 175.855 58.4647 175.882 58.4246Z" fill="#263238"/>
<path d="M169.753 67.333C169.753 67.333 166.53 65.6647 164.278 60.9937C164.278 60.9937 162.453 65.7348 168.475 69.2581L169.753 67.333Z" fill="#FF9A6C"/>
<path d="M178.722 47.8213C178.508 47.9815 177.804 47.3775 176.83 46.8938C175.856 46.41 174.965 46.1764 174.968 45.9128C174.968 45.786 175.228 45.6726 175.655 45.6626C176.211 45.6728 176.757 45.809 177.252 46.061C177.748 46.313 178.179 46.6742 178.515 47.1173C178.742 47.471 178.802 47.7446 178.722 47.8213Z" fill="#263238"/>
<path d="M185.958 52.8793C185.708 52.9661 185.291 52.4356 184.664 52.0085C184.036 51.5814 183.412 51.3412 183.406 51.091C183.406 50.9675 183.609 50.8474 183.956 50.8374C184.403 50.8396 184.839 50.982 185.201 51.2445C185.572 51.4971 185.855 51.8584 186.012 52.2788C186.118 52.6057 186.062 52.8326 185.958 52.8793Z" fill="#263238"/>
<path d="M187.583 58.338C188.178 57.4655 188.455 56.4145 188.367 55.3619C188.294 54.7947 188.077 54.2475 188.063 53.6736C188.033 52.4358 188.917 51.3881 189.361 50.2337C189.641 49.4834 189.737 48.6774 189.642 47.8824C189.548 47.0875 189.265 46.3265 188.817 45.6627C188.063 44.5684 186.879 43.7876 186.295 42.5965C185.861 41.7157 185.791 40.6814 185.294 39.8306C184.35 38.1623 182.194 37.7086 180.289 37.5417C179.262 38.4092 179.288 39.8072 179.288 41.1518C179.297 41.824 179.45 42.4865 179.738 43.094C180.026 43.7015 180.442 44.2397 180.957 44.6718C181.764 45.3391 182.885 45.8529 183.045 46.8839C183.212 47.9682 182.164 48.9091 182.151 50.0035C182.134 51.5716 184.09 52.3824 184.724 53.8171C185.211 54.9215 184.837 56.1927 184.623 57.3838C184.41 58.5749 184.483 60.033 185.498 60.6936C186.28 59.9904 186.98 59.2001 187.583 58.338Z" fill="#263238"/>
<path d="M181.02 40.9881C178.573 39.1647 175.794 37.8334 172.839 37.0677C171.962 36.8409 171.011 36.6674 170.17 37.011C169.433 37.3113 168.899 37.9586 168.439 38.6125C167.004 40.6511 166.03 43.7173 165.436 46.1463L166.87 49.4828C169.149 50.427 170.681 46.4232 171.805 44.6716C172.705 44.851 173.638 44.7741 174.497 44.4497C175.356 44.1253 176.106 43.5664 176.663 42.8365C177.482 42.8772 178.299 42.732 179.054 42.4119C179.808 42.0918 180.481 41.605 181.02 40.9881Z" fill="#263238"/>
<path d="M167.377 48.732C168.138 47.5175 166.877 46.2663 165.452 46.1462C164.671 46.0795 163.784 46.4298 162.973 47.711C160.798 51.1209 164.671 52.6056 164.741 52.5089C164.811 52.4121 166.486 50.15 167.377 48.732Z" fill="#FFBF9D"/>
<path d="M164.522 50.5535C164.522 50.5301 164.435 50.5535 164.305 50.5535C164.125 50.5244 163.963 50.4262 163.854 50.2799C163.577 49.9162 163.641 49.1522 164.014 48.5249C164.193 48.2272 164.436 47.973 164.725 47.7809C164.825 47.6949 164.944 47.6346 165.073 47.6049C165.201 47.5753 165.335 47.5773 165.462 47.6107C165.543 47.6359 165.611 47.6885 165.656 47.7593C165.701 47.8301 165.72 47.9145 165.709 47.9978C165.709 48.1212 165.629 48.1746 165.646 48.1946C165.663 48.2146 165.753 48.1946 165.816 48.0245C165.85 47.9272 165.85 47.8214 165.816 47.7242C165.767 47.5934 165.669 47.4869 165.543 47.4272C165.385 47.3668 165.214 47.3473 165.047 47.3707C164.879 47.394 164.72 47.4594 164.585 47.5607C164.25 47.7627 163.97 48.0447 163.771 48.3815C163.354 49.0821 163.294 49.9496 163.697 50.4067C163.772 50.4916 163.865 50.5588 163.969 50.6032C164.073 50.6477 164.185 50.6683 164.298 50.6636C164.461 50.6302 164.528 50.5668 164.522 50.5535Z" fill="#FF9A6C"/>
<path d="M163.16 51.6682C163.16 51.6682 163.16 51.6682 163.12 51.7049C163.08 51.7411 163.035 51.7715 162.987 51.795C162.792 51.8909 162.57 51.9146 162.359 51.8617C162.024 51.7899 161.707 51.649 161.428 51.448C161.249 51.3249 161.081 51.1852 160.928 51.0309C160.748 50.8603 160.595 50.6621 160.478 50.4437H160.531C160.286 50.6895 159.982 50.8675 159.648 50.9603C159.314 51.0532 158.961 51.0576 158.625 50.9731C158.288 50.8887 157.98 50.7183 157.729 50.4787C157.478 50.2391 157.294 49.9384 157.194 49.6062L157.258 49.6363C157.051 49.7121 156.822 49.7037 156.621 49.6129C156.417 49.5212 156.245 49.373 156.123 49.1858C155.993 48.9889 155.931 48.7544 155.947 48.5185C155.963 48.2807 156.04 48.0509 156.17 47.8512C156.441 47.4462 156.846 47.1496 157.315 47.0138C157.794 46.8825 158.289 46.8096 158.786 46.7969L158.739 46.877C158.665 46.693 158.63 46.4955 158.637 46.2972C158.644 46.0989 158.692 45.9042 158.779 45.7259C158.949 45.3546 159.224 45.0413 159.57 44.8251C159.929 44.6169 160.324 44.4798 160.734 44.4213C161.148 44.3622 161.565 44.3299 161.982 44.3246L161.926 44.3946C161.899 44.1835 161.918 43.9691 161.98 43.7656C162.042 43.5621 162.146 43.3739 162.286 43.2135C162.565 42.8759 162.94 42.6296 163.36 42.5062C164.168 42.2726 164.995 42.4161 165.762 42.5429L165.696 42.5829C165.854 42.1776 166.11 41.8172 166.44 41.5332C166.77 41.2492 167.164 41.0501 167.588 40.9534C168.013 40.8567 168.454 40.8652 168.875 40.9783C169.295 41.0913 169.681 41.3055 170 41.602L169.91 41.622C170.06 41.3019 170.281 41.0205 170.557 40.7996C170.833 40.5786 171.156 40.4239 171.501 40.3475C171.819 40.2646 172.152 40.2514 172.475 40.309C172.799 40.3666 173.106 40.4936 173.376 40.6811H173.306C173.515 40.4075 173.784 40.1849 174.091 40.03C174.398 39.8751 174.737 39.792 175.081 39.787C175.382 39.7727 175.683 39.8195 175.966 39.9244C176.249 40.0293 176.507 40.1903 176.726 40.3975H176.663C176.896 40.1121 177.196 39.8886 177.537 39.7469C177.831 39.6143 178.146 39.533 178.468 39.5067C178.982 39.4497 179.5 39.5673 179.939 39.8404L180.066 39.9204C180.106 39.9505 180.143 39.9838 180.176 40.0139C180.242 40.0684 180.306 40.1263 180.366 40.1873C180.457 40.2855 180.541 40.3903 180.617 40.501C180.67 40.5911 180.71 40.6611 180.743 40.7112L180.783 40.7846C180.764 40.7642 180.748 40.7418 180.733 40.7178L180.596 40.5143C180.519 40.4072 180.435 40.3057 180.343 40.2107C180.283 40.151 180.22 40.0953 180.153 40.0439L180.043 39.9538L179.916 39.8771C179.481 39.6217 178.975 39.5161 178.474 39.5768C178.16 39.6085 177.854 39.6919 177.567 39.8237C177.239 39.9601 176.951 40.177 176.73 40.4543L176.699 40.491L176.669 40.4576C176.458 40.2594 176.209 40.1063 175.936 40.0077C175.664 39.909 175.374 39.8668 175.085 39.8837C174.751 39.8926 174.424 39.9782 174.129 40.1338C173.834 40.2895 173.579 40.511 173.383 40.7812L173.353 40.8246L173.313 40.7946C173.053 40.6187 172.759 40.5011 172.45 40.4499C172.14 40.3986 171.824 40.4149 171.521 40.4976C171.193 40.5709 170.885 40.7184 170.623 40.9289C170.36 41.1395 170.149 41.4074 170.007 41.7121L169.973 41.7855L169.916 41.7321C169.61 41.4521 169.241 41.2505 168.839 41.1447C168.438 41.0388 168.017 41.0319 167.613 41.1244C167.208 41.2169 166.832 41.4061 166.517 41.6758C166.202 41.9456 165.957 42.2877 165.803 42.673V42.7197H165.752C164.985 42.5929 164.178 42.4562 163.417 42.6797C163.025 42.7982 162.676 43.0305 162.416 43.347C162.287 43.4943 162.19 43.6675 162.132 43.855C162.075 44.0425 162.058 44.2401 162.082 44.4347V44.5014H162.012C161.185 44.5248 160.344 44.5681 159.66 44.9819C159.333 45.1831 159.073 45.4769 158.913 45.826C158.832 45.9895 158.786 46.1681 158.779 46.3502C158.771 46.5324 158.802 46.7141 158.869 46.8837L158.903 46.9604H158.819C158.331 46.9715 157.846 47.042 157.375 47.1706C156.93 47.2959 156.545 47.575 156.287 47.958C156.16 48.1304 156.087 48.3366 156.078 48.5505C156.068 48.7643 156.123 48.9761 156.234 49.1591C156.331 49.3334 156.485 49.4694 156.67 49.5451C156.854 49.6209 157.059 49.6318 157.251 49.5762L157.298 49.5595L157.315 49.6096C157.424 49.9515 157.626 50.2567 157.897 50.4921C158.168 50.7274 158.499 50.8838 158.853 50.9442C159.153 50.9894 159.459 50.9651 159.749 50.8731C160.038 50.7811 160.302 50.6239 160.521 50.4137L160.554 50.3803L160.574 50.4203C160.688 50.6334 160.833 50.828 161.005 50.9975C161.155 51.1506 161.319 51.2891 161.495 51.4113C161.766 51.612 162.075 51.7561 162.403 51.835C162.607 51.8885 162.823 51.872 163.017 51.7883C163.103 51.7149 163.157 51.6615 163.16 51.6682Z" fill="#455A64"/>
<path d="M153.214 39.1427C153.209 39.0466 153.216 38.9503 153.234 38.8558C153.278 38.5806 153.378 38.3173 153.527 38.0817C153.76 37.701 154.112 37.4078 154.528 37.2476C154.808 37.1436 155.107 37.099 155.405 37.1168C155.703 37.1346 155.994 37.2144 156.26 37.3511H156.206C156.5 36.7154 157.023 36.2147 157.671 35.9497C158.028 35.7963 158.414 35.7212 158.802 35.7295C159.209 35.7673 159.611 35.8433 160.003 35.9564C160.204 36.0042 160.411 36.0222 160.617 36.0098C160.826 35.9947 161.028 35.9307 161.208 35.8229C161.582 35.6161 161.895 35.2791 162.322 35.0722C162.771 34.8696 163.269 34.8062 163.754 34.89C164.239 34.9739 164.687 35.2013 165.041 35.5427H164.945C165.175 35.1036 165.503 34.7234 165.904 34.4315C166.305 34.1396 166.768 33.9438 167.257 33.8593C167.745 33.7748 168.247 33.8038 168.722 33.9441C169.198 34.0845 169.635 34.3323 169.999 34.6685H169.906C170.177 34.1969 170.577 33.8127 171.059 33.5615C171.541 33.3104 172.086 33.2029 172.627 33.2517C173.169 33.3005 173.685 33.5036 174.114 33.837C174.544 34.1703 174.869 34.6198 175.051 35.1323L174.994 35.0989C175.547 35.0217 176.111 35.065 176.646 35.2257C177.125 35.3602 177.584 35.5553 178.014 35.8063C178.717 36.2031 179.343 36.7229 179.862 37.341C180.201 37.7312 180.474 38.1741 180.67 38.6523C180.722 38.7778 180.764 38.9072 180.796 39.0393C180.81 39.083 180.822 39.1276 180.83 39.1728C180.83 39.1728 180.776 38.9926 180.643 38.6656C180.435 38.1969 180.157 37.7626 179.819 37.3777C179.297 36.7732 178.672 36.266 177.974 35.8797C177.549 35.6335 177.093 35.4439 176.619 35.3158C176.097 35.1638 175.549 35.124 175.011 35.199H174.971V35.159C174.791 34.6705 174.476 34.2435 174.061 33.9282C173.647 33.6129 173.151 33.4226 172.633 33.3794C172.114 33.3363 171.594 33.4423 171.133 33.6848C170.672 33.9274 170.291 34.2965 170.033 34.7486L169.996 34.8153L169.939 34.7653C169.588 34.4363 169.164 34.1934 168.703 34.0555C168.241 33.9177 167.754 33.8887 167.28 33.9708C166.805 34.0529 166.356 34.2439 165.968 34.5288C165.579 34.8137 165.262 35.1847 165.041 35.6127L165.001 35.6862L164.945 35.6261C164.607 35.3054 164.182 35.0928 163.723 35.0155C163.264 34.9382 162.793 34.9998 162.369 35.1924C161.965 35.3825 161.652 35.7162 161.258 35.9397C161.063 36.0529 160.845 36.1203 160.621 36.1366C160.405 36.1472 160.19 36.127 159.98 36.0765C159.593 35.9649 159.196 35.8889 158.796 35.8496C158.421 35.8377 158.049 35.9072 157.705 36.0532C157.078 36.3029 156.568 36.7793 156.277 37.3878L156.257 37.4278L156.22 37.4078C155.965 37.2742 155.685 37.1951 155.398 37.1756C155.11 37.1561 154.822 37.1965 154.552 37.2943C154.14 37.4435 153.788 37.7236 153.551 38.0918C153.401 38.3213 153.297 38.5772 153.244 38.8458C153.22 39.0426 153.22 39.1427 153.214 39.1427Z" fill="#455A64"/>
<path d="M183.899 62.6783C183.908 62.6212 183.929 62.5667 183.961 62.5184C183.992 62.4701 184.034 62.429 184.083 62.398C184.198 62.3217 184.332 62.2758 184.47 62.2645C184.657 62.2578 184.845 62.2884 185.02 62.3546C185.234 62.4376 185.459 62.4903 185.688 62.5114C185.958 62.5081 186.221 62.4167 186.435 62.2512C186.687 62.0645 186.899 61.8298 187.059 61.5605C187.242 61.2836 187.392 60.9667 187.629 60.6597C188.073 60.0324 188.79 59.592 189.444 59.0248C189.786 58.7356 190.067 58.3804 190.269 57.9805C190.377 57.7738 190.44 57.5461 190.453 57.3129C190.466 57.0797 190.428 56.8465 190.342 56.6292C190.103 56.1887 189.812 55.7787 189.474 55.4081C189.306 55.199 189.175 54.9633 189.084 54.7108C189.003 54.4458 188.989 54.1649 189.044 53.8933C189.185 53.3614 189.382 52.8458 189.631 52.3552C189.745 52.1065 189.82 51.8422 189.855 51.5711C189.882 51.3007 189.82 51.0288 189.678 50.7971C189.438 50.5057 189.164 50.2447 188.861 50.0197C188.711 49.8922 188.584 49.7411 188.484 49.5726C188.387 49.3996 188.338 49.2036 188.343 49.0054C188.378 48.6333 188.466 48.2682 188.604 47.921C188.719 47.588 188.761 47.2341 188.727 46.8834C188.699 46.5492 188.602 46.2245 188.441 45.9298C188.281 45.6352 188.061 45.3771 187.796 45.1718C187.296 44.7888 186.669 44.6089 186.041 44.668H185.968V44.5946C186.072 44.058 186.06 43.5055 185.933 42.9739C185.807 42.4423 185.568 41.9438 185.234 41.5116C184.953 41.1523 184.605 40.8509 184.209 40.6241C183.876 40.4279 183.51 40.2924 183.128 40.2238C182.59 40.1326 182.037 40.1975 181.534 40.4106C181.401 40.4647 181.272 40.5294 181.15 40.6041L181.053 40.6542H181.016L181.046 40.6308L181.14 40.5708C181.261 40.4912 181.39 40.4231 181.524 40.3672C182.028 40.1357 182.59 40.059 183.138 40.147C183.529 40.2104 183.904 40.3449 184.246 40.5441C184.653 40.7722 185.013 41.077 185.304 41.4416C185.65 41.8831 185.897 42.3935 186.029 42.9384C186.162 43.4834 186.176 44.0503 186.071 44.6012L186.011 44.5378C186.666 44.4709 187.322 44.6558 187.846 45.055C188.128 45.2678 188.363 45.537 188.535 45.8455C188.708 46.154 188.814 46.4949 188.847 46.8467C188.882 47.2119 188.838 47.5803 188.72 47.9277C188.587 48.2646 188.501 48.6183 188.464 48.9787C188.469 49.1586 188.514 49.3351 188.597 49.4951C188.679 49.6551 188.797 49.7944 188.941 49.9029C189.255 50.1317 189.538 50.4009 189.781 50.7036C189.937 50.9587 190.005 51.2574 189.975 51.5544C189.942 51.8384 189.864 52.1154 189.745 52.3752C189.499 52.8585 189.304 53.3662 189.164 53.89C189.11 54.1411 189.121 54.402 189.198 54.6474C189.284 54.8886 189.409 55.114 189.568 55.3147C189.911 55.6923 190.206 56.1115 190.445 56.5625C190.545 56.7959 190.585 57.0504 190.562 57.3032C190.54 57.5468 190.473 57.7843 190.365 58.0039C190.158 58.4161 189.868 58.7817 189.514 59.0782C188.847 59.6521 188.133 60.0792 187.699 60.6864C187.483 60.9867 187.312 61.3003 187.126 61.5806C186.95 61.8558 186.724 62.0948 186.458 62.2846C186.23 62.4558 185.953 62.5472 185.668 62.5448C185.438 62.5231 185.213 62.4669 185 62.378C184.831 62.3097 184.649 62.2757 184.466 62.2779C184.333 62.2846 184.203 62.3248 184.089 62.3947C183.994 62.4632 183.926 62.5639 183.899 62.6783Z" fill="#455A64"/>
<path d="M193.926 62.2011C193.922 62.1724 193.922 62.1431 193.926 62.1144L193.969 61.8641C194.009 61.6406 194.069 61.3203 194.146 60.9099C194.223 60.4995 194.33 59.9924 194.396 59.3985C194.501 58.7321 194.416 58.0498 194.15 57.4299C193.989 57.0963 193.753 56.7626 193.542 56.429C193.431 56.2465 193.345 56.0502 193.285 55.8451C193.222 55.6282 193.213 55.3991 193.259 55.1778C193.349 54.7274 193.622 54.337 193.753 53.8966C193.819 53.6792 193.819 53.4467 193.753 53.2293C193.671 53.0025 193.552 52.7906 193.402 52.6021C193.243 52.4019 193.102 52.1875 192.982 51.9615C192.864 51.718 192.825 51.4442 192.868 51.1774C193.014 50.6592 193.23 50.1631 193.509 49.7027C193.633 49.4679 193.707 49.21 193.726 48.9453C193.73 48.8136 193.708 48.6824 193.661 48.5593C193.614 48.4362 193.543 48.3236 193.452 48.2279C193.085 47.8242 192.515 47.6407 192.091 47.227C191.882 47.0104 191.745 46.734 191.701 46.4362C191.667 46.1514 191.667 45.8636 191.701 45.5788C191.724 45.2985 191.754 45.0216 191.751 44.7513C191.754 44.4875 191.691 44.2271 191.567 43.9939C191.307 43.5302 190.793 43.3066 190.319 43.1098C189.822 42.9458 189.366 42.6748 188.985 42.3157C188.667 41.939 188.422 41.5069 188.261 41.0412C188.124 40.6049 187.947 40.1826 187.73 39.78C187.255 39.1141 186.593 38.6034 185.828 38.3119C185.201 38.0647 184.526 37.9632 183.853 38.015C183.346 38.0594 182.848 38.182 182.378 38.3786C182.083 38.5073 181.8 38.6614 181.531 38.8391L181.317 38.9725L181.241 39.0159L181.311 38.9625L181.518 38.8157C181.784 38.6297 182.066 38.4689 182.362 38.3353C182.834 38.1277 183.336 37.9959 183.85 37.9449C184.53 37.8864 185.215 37.9846 185.852 38.2318C186.635 38.5252 187.315 39.0442 187.804 39.7233C188.042 40.1187 188.241 40.5367 188.397 40.9711C188.556 41.4231 188.796 41.8425 189.105 42.2089C189.473 42.5523 189.911 42.8118 190.389 42.9696C190.637 43.0681 190.877 43.1852 191.107 43.32C191.354 43.4583 191.558 43.6618 191.697 43.9084C191.836 44.155 191.904 44.4351 191.894 44.718C191.894 44.9989 191.878 45.2795 191.847 45.5588C191.814 45.8336 191.814 46.1114 191.847 46.3862C191.885 46.659 192.009 46.9126 192.201 47.1102C192.595 47.5073 193.165 47.6908 193.566 48.1112C193.769 48.3286 193.878 48.6177 193.869 48.9153C193.85 49.1965 193.772 49.4705 193.639 49.7193C193.409 50.2131 193.092 50.6602 193.008 51.1607C192.967 51.4058 193.003 51.6579 193.112 51.8814C193.228 52.101 193.363 52.3098 193.516 52.5053C193.676 52.7046 193.8 52.9305 193.883 53.1726C193.958 53.4126 193.958 53.6699 193.883 53.91C193.743 54.3737 193.472 54.7574 193.386 55.1812C193.32 55.5966 193.415 56.0216 193.652 56.3689C193.853 56.7226 194.093 57.0362 194.256 57.3899C194.521 58.022 194.603 58.7155 194.493 59.3918C194.42 59.989 194.3 60.4928 194.22 60.9066C194.14 61.3203 194.066 61.6306 194.019 61.8575C193.996 61.9609 193.979 62.041 193.966 62.1044C193.957 62.1382 193.943 62.1707 193.926 62.2011Z" fill="#455A64"/>
<path d="M192.918 56.2524L192.985 56.2858C193.047 56.3273 193.097 56.3835 193.132 56.4493C193.184 56.5829 193.203 56.7271 193.186 56.8696C193.17 57.012 193.119 57.1484 193.038 57.2667C192.917 57.4309 192.775 57.5779 192.615 57.7038C192.426 57.849 192.259 58.0197 192.117 58.211C191.983 58.4457 191.913 58.7114 191.914 58.9817C191.914 59.272 191.914 59.5822 191.881 59.9126C191.868 60.0899 191.816 60.2621 191.727 60.4159C191.638 60.5698 191.514 60.7012 191.367 60.8001C191.06 61.0036 190.699 61.0903 190.382 61.3005C190.079 61.5393 189.878 61.8857 189.822 62.2681C189.732 62.6585 189.705 63.0822 189.588 63.5059C189.534 63.7237 189.44 63.9296 189.311 64.1132C189.172 64.2975 188.996 64.4509 188.794 64.5636C188.378 64.7651 187.943 64.9271 187.496 65.0474C187.046 65.1639 186.656 65.4448 186.402 65.8348C186.212 66.2808 186.077 66.7479 185.998 67.2261C185.936 67.4733 185.83 67.7073 185.685 67.9168C185.53 68.1191 185.332 68.2835 185.104 68.3972C184.662 68.5867 184.2 68.7244 183.726 68.8076C183.281 68.8931 182.858 69.0679 182.482 69.3214C182.141 69.6047 181.781 69.8633 181.404 70.0955C181.211 70.2025 180.994 70.262 180.773 70.269C180.561 70.2688 180.349 70.2316 180.149 70.1589C179.963 70.0924 179.772 70.0367 179.579 69.9921C179.391 69.9616 179.201 69.956 179.012 69.9754C178.653 70.0348 178.303 70.1402 177.971 70.289C177.637 70.4258 177.33 70.5626 177.017 70.666C176.449 70.8546 175.836 70.8546 175.268 70.666C174.841 70.5327 174.45 70.3046 174.124 69.9987C173.918 69.8049 173.745 69.5797 173.61 69.3314C173.563 69.246 173.522 69.1567 173.49 69.0645C173.656 69.4008 173.882 69.7038 174.157 69.9587C174.482 70.2535 174.868 70.4723 175.288 70.5993C175.845 70.7696 176.441 70.7579 176.99 70.5659C177.297 70.4625 177.604 70.3257 177.934 70.1856C178.274 70.0277 178.633 69.9156 179.002 69.8519C179.199 69.8236 179.399 69.8236 179.596 69.8519C179.794 69.8954 179.989 69.9511 180.18 70.0188C180.369 70.0875 180.569 70.1225 180.77 70.1222C180.975 70.1132 181.174 70.0573 181.354 69.9587C181.724 69.7258 182.079 69.4683 182.415 69.188C182.802 68.9254 183.237 68.7438 183.696 68.6541C184.155 68.5704 184.603 68.4338 185.031 68.2471C185.242 68.1432 185.426 67.9912 185.568 67.8033C185.706 67.6079 185.805 67.3883 185.862 67.1561C185.943 66.6672 186.083 66.1899 186.279 65.7347C186.401 65.518 186.576 65.3347 186.786 65.2009C186.995 65.0716 187.219 64.9686 187.453 64.8939C187.89 64.7885 188.317 64.6468 188.731 64.4702C188.917 64.3634 189.081 64.2204 189.211 64.0498C189.332 63.8768 189.422 63.6836 189.475 63.4793C189.588 63.0722 189.615 62.6518 189.708 62.2514C189.773 61.8433 189.991 61.4754 190.319 61.2238C190.653 61.0003 191.02 60.9168 191.32 60.7267C191.457 60.6362 191.572 60.5155 191.655 60.3738C191.739 60.2321 191.788 60.0732 191.8 59.9092C191.841 59.5956 191.82 59.282 191.841 58.9884C191.844 58.705 191.922 58.4276 192.067 58.1843C192.213 57.9888 192.386 57.8157 192.581 57.6704C192.742 57.5511 192.884 57.4096 193.005 57.2501C193.085 57.1385 193.137 57.0092 193.156 56.8732C193.175 56.7373 193.161 56.5987 193.115 56.4693C193.072 56.3796 193.003 56.3043 192.918 56.2524Z" fill="#455A64"/>
<path d="M172.736 57.8211C172.858 57.7485 173.002 57.7253 173.14 57.7564C173.278 57.7874 173.399 57.8703 173.477 57.9879C173.977 58.7319 174.478 59.476 174.982 60.2233L175.152 60.4702C174.747 60.8191 174.299 61.113 173.817 61.3444C173.608 61.4415 173.381 61.4917 173.15 61.4917C172.92 61.4917 172.692 61.4415 172.483 61.3444C172.163 61.1465 171.916 60.852 171.775 60.5036C171.545 59.9397 171.358 59.3625 171.615 58.812C171.802 58.4083 172.383 58.048 172.736 57.8211Z" fill="#FF9A6C"/>
<path d="M161.612 49.7297C161.386 49.6683 161.152 49.6447 160.918 49.6596C160.268 49.6888 159.651 49.9491 159.176 50.3937C158.845 50.6956 158.588 51.0702 158.426 51.488C158.248 51.9707 158.186 52.4885 158.245 52.9994C158.307 53.5657 158.513 54.1067 158.843 54.5709C159.201 55.0706 159.702 55.4498 160.281 55.6586C160.855 55.8732 161.478 55.9218 162.079 55.7987C162.639 55.6832 163.154 55.4073 163.56 55.0047C163.903 54.6673 164.164 54.2557 164.323 53.8015C164.481 53.3474 164.533 52.863 164.475 52.3855C164.412 52.0221 164.277 51.6749 164.078 51.3646C163.933 51.1289 163.757 50.9144 163.554 50.7273C163.424 50.6099 163.278 50.5121 163.12 50.437C163.067 50.4072 163.007 50.389 162.947 50.3836C163.156 50.4804 163.346 50.6124 163.51 50.774C163.959 51.2127 164.259 51.781 164.368 52.3989C164.416 52.858 164.36 53.3221 164.202 53.7561C164.045 54.1902 163.791 54.5828 163.46 54.9046C163.072 55.2842 162.582 55.5437 162.049 55.6519C161.475 55.7648 160.882 55.7163 160.334 55.5118C159.785 55.3141 159.309 54.9561 158.966 54.4842C158.649 54.0409 158.449 53.5243 158.386 52.9828C158.325 52.4931 158.38 51.9961 158.546 51.5314C158.697 51.1298 158.938 50.768 159.25 50.4737C159.704 50.0401 160.292 49.7741 160.918 49.7197C161.372 49.6897 161.609 49.7497 161.612 49.7297Z" fill="#E0E0E0"/>
<path d="M175.121 52.3555C174.998 52.5486 174.803 52.6854 174.58 52.7366C174.357 52.7878 174.122 52.7492 173.927 52.6291C173.828 52.5761 173.74 52.5038 173.67 52.4164C173.599 52.3291 173.547 52.2285 173.516 52.1206C173.485 52.0127 173.475 51.8996 173.489 51.7881C173.502 51.6766 173.538 51.5689 173.593 51.4713C173.717 51.2789 173.912 51.1426 174.135 51.0915C174.358 51.0404 174.592 51.0785 174.788 51.1977C174.887 51.25 174.975 51.322 175.047 51.4092C175.118 51.4965 175.17 51.5972 175.202 51.7054C175.233 51.8136 175.242 51.9269 175.228 52.0386C175.214 52.1504 175.178 52.2581 175.121 52.3555Z" fill="#263238"/>
<path d="M182.095 57.2233C181.97 57.4151 181.776 57.5508 181.553 57.6019C181.33 57.6529 181.096 57.6153 180.9 57.4969C180.801 57.4436 180.714 57.371 180.643 57.2834C180.572 57.1957 180.52 57.0949 180.489 56.9867C180.458 56.8785 180.449 56.7652 180.462 56.6534C180.475 56.5416 180.511 56.4337 180.567 56.3358C180.691 56.1441 180.886 56.0084 181.109 55.9573C181.331 55.9062 181.565 55.9439 181.761 56.0622C181.86 56.1156 181.948 56.1882 182.018 56.2758C182.089 56.3634 182.141 56.4643 182.173 56.5725C182.204 56.6807 182.213 56.794 182.199 56.9058C182.186 57.0176 182.15 57.1255 182.095 57.2233Z" fill="#263238"/>
<path d="M184.09 55.3013C183.947 55.3614 183.67 54.5973 182.916 54.1703C182.162 53.7432 181.364 53.8733 181.344 53.7165C181.344 53.6464 181.524 53.503 181.878 53.4362C182.334 53.3528 182.806 53.4341 183.208 53.6657C183.61 53.8973 183.917 54.2641 184.073 54.7008C184.19 55.0411 184.16 55.278 184.09 55.3013Z" fill="#263238"/>
<path d="M177.006 51.054C176.83 51.0941 176.569 50.1965 175.722 49.596C174.874 48.9954 173.94 49.0121 173.927 48.8353C173.927 48.7518 174.154 48.6251 174.574 48.605C175.124 48.5913 175.663 48.7576 176.109 49.0788C176.552 49.3967 176.876 49.8535 177.03 50.3767C177.14 50.7904 177.087 51.0373 177.006 51.054Z" fill="#263238"/>
<path d="M173.136 61.4103C173.136 61.4103 173.016 61.457 172.803 61.4103C172.489 61.3343 172.207 61.1629 171.995 60.9198C171.671 60.5697 171.457 60.1325 171.378 59.662C171.327 59.3742 171.359 59.0778 171.471 58.8078C171.6 58.5273 171.79 58.2797 172.029 58.0838C172.257 57.8939 172.506 57.7315 172.773 57.6C172.847 57.554 172.93 57.5245 173.016 57.5136C173.102 57.5026 173.19 57.5105 173.273 57.5366C173.417 57.6089 173.534 57.726 173.607 57.8703L174.327 59.018C174.565 59.3666 174.763 59.7404 174.918 60.1324C174.625 59.8286 174.368 59.4929 174.151 59.1315C173.91 58.7978 173.653 58.4141 173.38 58.0171C173.233 57.7769 173.126 57.7202 172.886 57.8503C172.64 57.9771 172.408 58.1304 172.195 58.3074C171.989 58.4588 171.827 58.662 171.725 58.8964C171.623 59.1308 171.585 59.3881 171.615 59.642C171.681 60.0686 171.858 60.4703 172.129 60.8064C172.31 61.0363 172.55 61.2137 172.823 61.3202C173.016 61.3836 173.14 61.3869 173.136 61.4103Z" fill="#263238"/>
<path d="M203.362 48.4319C203.236 48.0243 203.061 47.6334 202.842 47.2675C202.569 46.8523 202.22 46.4924 201.814 46.2064C201.28 45.8297 200.654 45.6049 200.002 45.5558H199.899V45.4491C199.963 44.5828 199.686 43.7258 199.128 43.0601C198.823 42.6675 198.434 42.3473 197.991 42.1223C197.547 41.8973 197.059 41.7732 196.562 41.7589H196.432V41.6288C196.404 40.2322 195.842 38.8995 194.861 37.9053C194.092 37.136 193.103 36.6252 192.031 36.4439C191.052 36.2737 190.044 36.3753 189.119 36.7375L189.059 36.7609L189.002 36.7242C188.062 36.0936 187 35.6664 185.886 35.4697C185.018 35.3091 184.131 35.2855 183.256 35.3996C182.487 35.5167 181.731 35.7123 181.001 35.9835C181.001 35.9835 181.044 35.9501 181.138 35.9034C181.231 35.8567 181.371 35.7833 181.558 35.7099C182.096 35.4968 182.655 35.3435 183.226 35.2528C184.116 35.1091 185.023 35.1091 185.912 35.2528C187.062 35.4399 188.159 35.8674 189.132 36.5073H189.015C189.981 36.1152 191.037 35.9997 192.065 36.1737C193.194 36.3566 194.237 36.8913 195.044 37.7018C196.077 38.7447 196.666 40.1476 196.686 41.6155L196.556 41.4853C197.09 41.5035 197.615 41.6397 198.09 41.8843C198.566 42.1289 198.982 42.4757 199.308 42.9C199.899 43.6133 200.186 44.5296 200.109 45.4524L200.016 45.3423C200.702 45.4014 201.357 45.6523 201.907 46.0663C202.323 46.3702 202.672 46.7549 202.935 47.1974C203.101 47.4751 203.227 47.775 203.309 48.0882C203.34 48.2004 203.357 48.3157 203.362 48.4319Z" fill="#263238"/>
<path d="M181.988 31.2389C181.642 31.1803 181.314 31.0459 181.027 30.8452C180.619 30.582 180.267 30.2397 179.993 29.8386C179.719 29.4375 179.528 28.9857 179.432 28.5097C179.3 27.8352 179.378 27.1365 179.655 26.5078C179.971 25.7818 180.507 25.1736 181.187 24.7695C181.958 24.3345 182.868 24.2138 183.726 24.4325C184.664 24.651 185.479 25.2298 185.995 26.044L185.845 25.9806C186.43 25.8422 187.045 25.9093 187.586 26.1708C188.05 26.3796 188.446 26.7135 188.731 27.135C188.993 27.5502 189.124 28.0354 189.104 28.5263C189.092 28.9881 188.961 29.4389 188.725 29.8356C188.488 30.2323 188.154 30.5616 187.753 30.7918L187.703 30.5516C188.064 30.5937 188.408 30.7237 188.707 30.9303C189.005 31.1368 189.248 31.4135 189.415 31.736C189.573 32.0224 189.668 32.3396 189.694 32.666C189.719 32.9923 189.674 33.3204 189.561 33.6278C189.376 34.1256 189.059 34.5637 188.644 34.8956C188.229 35.2276 187.732 35.4409 187.206 35.5129C186.524 35.605 185.83 35.502 185.204 35.216C185.039 35.1452 184.881 35.0603 184.73 34.9624C184.63 34.8923 184.58 34.8556 184.583 34.849C184.587 34.8423 184.804 34.9757 185.234 35.1392C185.847 35.3827 186.514 35.4576 187.166 35.3561C187.656 35.2789 188.117 35.0713 188.5 34.7549C188.883 34.4385 189.173 34.025 189.341 33.5577C189.44 33.2792 189.477 32.9827 189.45 32.6886C189.424 32.3944 189.334 32.1093 189.188 31.8528C189.039 31.5674 188.822 31.3228 188.557 31.1402C188.292 30.9576 187.986 30.8426 187.666 30.8052L187.236 30.7718L187.613 30.5649C187.972 30.3552 188.271 30.0572 188.483 29.6993C188.694 29.3413 188.81 28.9353 188.821 28.5197C188.836 28.083 188.719 27.6519 188.487 27.2818C188.238 26.9081 187.892 26.6094 187.486 26.4177C187.002 26.1836 186.452 26.1224 185.928 26.2442L185.831 26.2709L185.778 26.1841C185.302 25.4303 184.55 24.8926 183.683 24.686C182.885 24.4798 182.038 24.591 181.32 24.9963C180.678 25.3695 180.168 25.9341 179.862 26.6112C179.595 27.1965 179.511 27.8491 179.622 28.483C179.797 29.4054 180.325 30.2231 181.093 30.7618C181.375 30.9502 181.674 31.1101 181.988 31.2389Z" fill="#263238"/>
<path d="M160.257 28.4929C160.258 28.4352 160.267 28.378 160.284 28.3228C160.321 28.1621 160.371 28.0047 160.434 27.8523C160.669 27.2708 161.029 26.748 161.489 26.3209C162.19 25.6528 163.099 25.2453 164.064 25.1665C164.675 25.1201 165.289 25.1989 165.869 25.398C166.448 25.597 166.981 25.9122 167.434 26.3242L167.284 26.3042C168.421 25.7032 169.737 25.5304 170.991 25.8171C171.935 26.0407 172.799 26.5237 173.483 27.2117C174.108 27.8391 174.566 28.6119 174.818 29.4605L174.714 29.3738C175.706 29.5127 176.646 29.9007 177.447 30.5015C178.068 30.9627 178.596 31.5365 179.005 32.1931C179.269 32.6168 179.474 33.0748 179.612 33.5544C179.666 33.7224 179.7 33.8959 179.716 34.0715C179.511 33.4402 179.23 32.8363 178.878 32.2732C178.464 31.6473 177.938 31.1033 177.327 30.6683C176.547 30.1041 175.639 29.7429 174.684 29.6173H174.604L174.581 29.5406C174.332 28.7363 173.89 28.0053 173.293 27.4119C172.646 26.7554 171.827 26.2931 170.931 26.0773C169.74 25.8047 168.491 25.9644 167.408 26.5278L167.324 26.5711L167.257 26.5077C166.831 26.1165 166.329 25.8153 165.784 25.6221C165.238 25.4289 164.659 25.3477 164.081 25.3833C163.159 25.4465 162.285 25.8165 161.599 26.4343C161.143 26.8374 160.774 27.3289 160.514 27.879C160.334 28.2727 160.277 28.4996 160.257 28.4929Z" fill="#263238"/>
<path d="M139.802 53.5534C139.802 53.5534 140.162 52.9128 142.941 53.2765C145.721 53.6402 156.731 61.264 156.731 61.264C156.731 61.264 154.729 69.1415 160.785 70.6429C165.196 71.7373 167.535 70.5061 167.535 70.5061C167.535 70.5061 174.918 79.6881 175.522 83.4316C175.522 83.4316 139.939 108.328 145.714 105.623L139.802 105.689V53.5534Z" fill="#2D9CDB"/>
<path d="M174.945 81.7463C175.042 82.0099 176.42 83.6515 175.055 90.965C173.814 97.608 168.382 104.311 168.382 104.311L157.552 94.5651L174.945 81.7463Z" fill="#2D9CDB"/>
<path d="M169.296 86.9551C169.246 87.0153 169.19 87.0701 169.129 87.1186L168.632 87.5523C168.191 87.9226 167.551 88.4531 166.747 89.0938C165.142 90.375 162.9 92.1133 160.407 94.0084C157.915 95.9035 155.636 97.6018 153.985 98.8363L152.023 100.271L151.482 100.655C151.423 100.704 151.358 100.745 151.289 100.778C151.342 100.723 151.4 100.673 151.462 100.628L151.983 100.218L153.911 98.7395L160.301 93.8849C162.796 91.9898 165.048 90.2682 166.67 89.0103L168.588 87.5123L169.106 87.1052C169.164 87.0496 169.228 86.9993 169.296 86.9551Z" fill="#263238"/>
<path d="M151.289 24.0454H72.4777V133.585H151.289V24.0454Z" fill="white" fill-opacity="0.1"/>
<path d="M151.289 24.0454H72.4777V63.6928H151.289V24.0454Z" fill="#2D9CDB"/>
<path d="M143.079 27.2219H129.072C126.993 27.2219 125.308 28.9069 125.308 30.9855V31.3758C125.308 33.4544 126.993 35.1394 129.072 35.1394H143.079C145.157 35.1394 146.842 33.4544 146.842 31.3758V30.9855C146.842 28.9069 145.157 27.2219 143.079 27.2219Z" fill="#263238"/>
<path d="M137.643 73.4014C137.643 73.4482 126.806 73.4882 113.447 73.4882C100.087 73.4882 89.2439 73.4482 89.2439 73.4014C89.2439 73.3547 100.077 73.3147 113.447 73.3147C126.816 73.3147 137.643 73.3514 137.643 73.4014Z" fill="#263238"/>
<path d="M137.643 84.0784C137.643 84.1252 126.806 84.1652 113.447 84.1652C100.087 84.1652 89.2439 84.1252 89.2439 84.0784C89.2439 84.0317 100.077 83.9917 113.447 83.9917C126.816 83.9917 137.643 84.0317 137.643 84.0784Z" fill="#263238"/>
<path d="M137.643 94.7589C137.643 94.8056 126.806 94.8456 113.447 94.8456C100.087 94.8456 89.2439 94.8056 89.2439 94.7589C89.2439 94.7122 100.077 94.6721 113.447 94.6721C126.816 94.6721 137.643 94.7088 137.643 94.7589Z" fill="#263238"/>
<path d="M137.443 107.067H90.1017C85.447 107.067 81.6737 110.84 81.6737 115.495V116.379C81.6737 121.034 85.447 124.807 90.1017 124.807H137.443C142.098 124.807 145.871 121.034 145.871 116.379V115.495C145.871 110.84 142.098 107.067 137.443 107.067Z" fill="#2D9CDB"/>
<path d="M93.0844 57.5605C92.737 57.4801 92.4069 57.3377 92.1101 57.1402L92.5972 56.0491C92.8503 56.2125 93.1256 56.3383 93.4147 56.4228C93.7107 56.5152 94.0187 56.5635 94.3289 56.5663C94.8961 56.5663 95.183 56.4228 95.183 56.1392C95.1825 56.0651 95.1587 55.993 95.115 55.9331C95.0713 55.8733 95.0099 55.8286 94.9394 55.8056C94.6858 55.7047 94.4233 55.6276 94.1554 55.5753C93.8153 55.5096 93.4807 55.4182 93.1544 55.3018C92.8908 55.206 92.6555 55.0454 92.4704 54.8346C92.2721 54.5904 92.1711 54.2814 92.1869 53.9672C92.1828 53.6577 92.2749 53.3546 92.4504 53.0997C92.6462 52.825 92.9174 52.6129 93.2312 52.4891C93.6376 52.3287 94.0723 52.2527 94.509 52.2656C94.8516 52.2659 95.193 52.3051 95.5267 52.3823C95.8369 52.447 96.1352 52.5596 96.4108 52.716L95.9537 53.817C95.5115 53.5628 95.0124 53.424 94.5024 53.4133C94.2798 53.3967 94.057 53.4417 93.8584 53.5434C93.7979 53.576 93.7472 53.624 93.7115 53.6827C93.6757 53.7413 93.6562 53.8084 93.6549 53.8771C93.6563 53.9481 93.6804 54.0169 93.7236 54.0733C93.7668 54.1297 93.8269 54.1708 93.8951 54.1907C94.1449 54.2871 94.4028 54.3608 94.6659 54.4109C95.0056 54.4768 95.3401 54.5672 95.6668 54.6812C95.9228 54.7824 96.1514 54.9424 96.3341 55.1483C96.537 55.3889 96.6397 55.6982 96.621 56.0124C96.6242 56.3171 96.5333 56.6154 96.3608 56.8666C96.1604 57.1396 95.8877 57.3511 95.5734 57.4771C95.1682 57.6381 94.7346 57.7153 94.2988 57.704C93.8895 57.7086 93.4813 57.6604 93.0844 57.5605Z" fill="white"/>
<path d="M98.3659 53.5467H96.7544V52.3689H101.452V53.5467H99.8473V57.6138H98.3659V53.5467Z" fill="white"/>
<path d="M105.257 56.5961H103.041L102.627 57.597H101.116L103.428 52.3521H104.89L107.225 57.597H105.684L105.257 56.5961ZM104.823 55.5017L104.156 53.8334L103.488 55.5017H104.823Z" fill="white"/>
<path d="M112.619 52.3689V57.6138H111.398L109.082 54.8212V57.6138H107.631V52.3689H108.852L111.164 55.1649V52.3689H112.619Z" fill="white"/>
<path d="M113.66 52.3691H116.139C116.667 52.3632 117.19 52.4773 117.667 52.7028C118.093 52.9007 118.453 53.2184 118.702 53.617C118.942 54.0388 119.069 54.516 119.069 55.0016C119.069 55.4872 118.942 55.9644 118.702 56.3862C118.454 56.7856 118.094 57.1035 117.667 57.3004C117.19 57.5275 116.667 57.6417 116.139 57.6341H113.66V52.3691ZM116.079 56.4296C116.476 56.4484 116.865 56.312 117.163 56.0493C117.425 55.7598 117.57 55.3835 117.57 54.9933C117.57 54.6031 117.425 54.2267 117.163 53.9373C116.866 53.6721 116.477 53.5343 116.079 53.5536H115.145V56.4296H116.079Z" fill="white"/>
<path d="M123.293 56.5961H121.077L120.664 57.597H119.152L121.464 52.3521H122.926L125.261 57.597H123.703L123.293 56.5961ZM122.859 55.5017L122.192 53.8334L121.524 55.5017H122.859Z" fill="white"/>
<path d="M127.96 56.2194H127.15V57.614H125.672V52.3691H128.067C128.491 52.3601 128.912 52.4408 129.302 52.606C129.637 52.7442 129.921 52.9817 130.117 53.2866C130.312 53.5914 130.41 53.9489 130.396 54.3109C130.412 54.6596 130.323 55.0051 130.14 55.3026C129.958 55.6 129.69 55.8358 129.372 55.9792L130.503 57.6274H128.915L127.96 56.2194ZM128.664 53.7404C128.465 53.5937 128.22 53.5228 127.974 53.5402H127.15V55.075H127.974C128.22 55.0924 128.465 55.0214 128.664 54.8748C128.743 54.8042 128.804 54.7168 128.844 54.6192C128.884 54.5215 128.901 54.4162 128.895 54.3109C128.902 54.2055 128.886 54.0998 128.848 54.0013C128.81 53.9027 128.751 53.8137 128.674 53.7404H128.664Z" fill="white"/>
<path d="M131.21 52.3691H133.679C134.207 52.3632 134.729 52.4773 135.207 52.7028C135.632 52.9017 135.992 53.2191 136.241 53.617C136.482 54.0388 136.608 54.516 136.608 55.0016C136.608 55.4872 136.482 55.9644 136.241 56.3862C135.992 56.7848 135.633 57.1025 135.207 57.3004C134.73 57.5275 134.207 57.6417 133.679 57.6341H131.21V52.3691ZM133.629 56.4296C134.025 56.4493 134.413 56.3127 134.71 56.0493C134.974 55.7608 135.12 55.3841 135.12 54.9933C135.12 54.6024 134.974 54.2257 134.71 53.9373C134.414 53.6716 134.026 53.5337 133.629 53.5536H132.678V56.4296H133.629Z" fill="white"/>
<path d="M132.01 30.2447C132.107 30.2902 132.193 30.3554 132.263 30.4361C132.333 30.5168 132.385 30.6112 132.417 30.7132C132.448 30.8153 132.458 30.9228 132.445 31.0288C132.433 31.1349 132.398 31.2371 132.344 31.3291C132.262 31.4486 132.146 31.5405 132.01 31.5927C131.857 31.6587 131.69 31.6906 131.523 31.6861H131.096V32.27H130.606V30.1513H131.523C131.69 30.1484 131.856 30.1802 132.01 30.2447ZM131.83 31.1923C131.869 31.1592 131.9 31.1176 131.92 31.0707C131.94 31.0239 131.949 30.973 131.947 30.922C131.951 30.87 131.942 30.8178 131.922 30.7697C131.901 30.7216 131.87 30.6789 131.83 30.6451C131.733 30.5763 131.615 30.5433 131.497 30.5517H131.1V31.2857H131.497C131.612 31.2918 131.726 31.2589 131.82 31.1923H131.83Z" fill="white"/>
<path d="M133.058 32.1866C132.92 32.1219 132.805 32.0188 132.724 31.8897C132.648 31.7579 132.608 31.6083 132.608 31.4559C132.608 31.3036 132.648 31.154 132.724 31.0222C132.806 30.8939 132.921 30.791 133.058 30.7253C133.201 30.6551 133.359 30.6187 133.518 30.6187C133.678 30.6187 133.835 30.6551 133.979 30.7253C134.079 30.7782 134.167 30.8508 134.238 30.9386C134.309 31.0265 134.362 31.1278 134.393 31.2365C134.424 31.3452 134.433 31.4591 134.419 31.5713C134.406 31.6836 134.369 31.7918 134.312 31.8897C134.232 32.0183 134.116 32.1213 133.979 32.1866C133.835 32.2568 133.678 32.2932 133.518 32.2932C133.359 32.2932 133.201 32.2568 133.058 32.1866ZM133.815 31.7829C133.894 31.6896 133.937 31.5714 133.937 31.4493C133.937 31.3271 133.894 31.2089 133.815 31.1156C133.778 31.075 133.732 31.0429 133.68 31.0216C133.629 31.0003 133.574 30.9903 133.518 30.9922C133.462 30.9904 133.407 31.0005 133.355 31.0218C133.303 31.0431 133.257 31.075 133.218 31.1156C133.139 31.2089 133.096 31.3271 133.096 31.4493C133.096 31.5714 133.139 31.6896 133.218 31.7829C133.257 31.8235 133.303 31.8555 133.355 31.8767C133.407 31.898 133.462 31.9081 133.518 31.9064C133.575 31.907 133.63 31.8954 133.682 31.8724C133.733 31.8493 133.778 31.8154 133.815 31.7729V31.7829Z" fill="white"/>
<path d="M136.102 30.7218C136.226 30.7892 136.328 30.8912 136.395 31.0154C136.465 31.1516 136.502 31.3026 136.502 31.4558C136.502 31.6091 136.465 31.7601 136.395 31.8963C136.328 32.0205 136.226 32.1224 136.102 32.1899C135.976 32.2599 135.835 32.2956 135.691 32.2933C135.6 32.2991 135.509 32.2844 135.424 32.2503C135.339 32.2163 135.263 32.1637 135.201 32.0964V32.8572H134.727V30.6417H135.177V30.8286C135.241 30.7567 135.321 30.7003 135.41 30.6639C135.499 30.6275 135.595 30.6119 135.691 30.6184C135.835 30.6161 135.976 30.6518 136.102 30.7218ZM135.905 31.7828C135.984 31.6895 136.027 31.5713 136.027 31.4492C136.027 31.327 135.984 31.2088 135.905 31.1155C135.826 31.0369 135.719 30.9927 135.608 30.9927C135.496 30.9927 135.39 31.0369 135.311 31.1155C135.232 31.2088 135.189 31.327 135.189 31.4492C135.189 31.5713 135.232 31.6895 135.311 31.7828C135.39 31.8615 135.496 31.9056 135.608 31.9056C135.719 31.9056 135.826 31.8615 135.905 31.7828Z" fill="white"/>
<path d="M138.457 30.6415V32.2697H138.017V32.0762C137.955 32.1462 137.878 32.202 137.793 32.2397C137.704 32.2763 137.609 32.2944 137.513 32.2931C137.42 32.298 137.327 32.2842 137.239 32.2527C137.151 32.2212 137.071 32.1726 137.002 32.1096C136.936 32.0354 136.886 31.9488 136.854 31.8549C136.821 31.7609 136.808 31.6614 136.815 31.5624V30.6415H137.289V31.4923C137.289 31.7559 137.399 31.886 137.623 31.886C137.673 31.888 137.723 31.8791 137.77 31.8601C137.816 31.8412 137.858 31.8124 137.893 31.7759C137.97 31.6826 138.007 31.5628 137.997 31.4423V30.6382L138.457 30.6415Z" fill="white"/>
<path d="M138.894 30.0247H139.368V32.2701H138.894V30.0247Z" fill="white"/>
<path d="M141.043 30.7985C141.115 30.8679 141.171 30.9529 141.207 31.0471C141.242 31.1413 141.255 31.2422 141.246 31.3423V32.2698H140.806V32.0663C140.752 32.146 140.677 32.2092 140.589 32.2492C140.501 32.2892 140.404 32.3044 140.309 32.2932C140.194 32.2974 140.08 32.2757 139.975 32.2298C139.89 32.1928 139.817 32.1327 139.765 32.0563C139.717 31.9793 139.691 31.8903 139.691 31.7994C139.69 31.7303 139.704 31.6618 139.735 31.5997C139.765 31.5376 139.809 31.4836 139.865 31.4424C140.022 31.344 140.207 31.2984 140.392 31.3123H140.766C140.768 31.2684 140.761 31.2245 140.745 31.1836C140.729 31.1427 140.704 31.1058 140.672 31.0754C140.592 31.0149 140.492 30.9853 140.392 30.992C140.305 30.9915 140.218 31.0062 140.135 31.0354C140.058 31.0588 139.986 31.0961 139.922 31.1455L139.755 30.8118C139.851 30.7452 139.959 30.6956 140.072 30.665C140.197 30.6316 140.326 30.6147 140.455 30.615C140.667 30.5997 140.877 30.6653 141.043 30.7985ZM140.642 31.9195C140.705 31.8831 140.751 31.8248 140.772 31.756V31.5892H140.439C140.245 31.5892 140.149 31.6526 140.149 31.7794C140.147 31.8076 140.153 31.8356 140.166 31.8608C140.179 31.8859 140.198 31.9073 140.222 31.9229C140.279 31.9621 140.347 31.9809 140.415 31.9762C140.495 31.9805 140.574 31.9608 140.642 31.9195Z" fill="white"/>
<path d="M142.354 30.6781C142.46 30.6363 142.573 30.6159 142.688 30.6181V31.0518H142.581C142.523 31.0485 142.465 31.0568 142.411 31.0763C142.356 31.0958 142.306 31.126 142.264 31.1653C142.223 31.2101 142.191 31.2628 142.171 31.3202C142.151 31.3775 142.143 31.4383 142.147 31.4989V32.2663H141.687V30.6381H142.137V30.8516C142.193 30.776 142.268 30.7162 142.354 30.6781Z" fill="white"/>
<path d="M101.745 117.733C101.354 117.526 101.027 117.214 100.801 116.833C100.574 116.437 100.454 115.989 100.454 115.533C100.454 115.077 100.574 114.629 100.801 114.234C101.028 113.854 101.355 113.543 101.745 113.336C102.131 113.141 102.554 113.032 102.986 113.015C103.417 112.997 103.848 113.073 104.248 113.236C104.582 113.378 104.877 113.598 105.109 113.877L104.385 114.544C104.236 114.363 104.048 114.218 103.836 114.119C103.623 114.02 103.391 113.97 103.157 113.973C102.875 113.968 102.596 114.038 102.349 114.173C102.116 114.302 101.924 114.494 101.795 114.727C101.666 114.977 101.599 115.254 101.599 115.535C101.599 115.816 101.666 116.093 101.795 116.342C101.925 116.575 102.117 116.767 102.349 116.896C102.597 117.031 102.875 117.099 103.157 117.093C103.391 117.097 103.624 117.047 103.837 116.947C104.049 116.848 104.237 116.702 104.385 116.519L105.109 117.186C104.876 117.468 104.58 117.69 104.244 117.834C103.88 117.986 103.488 118.062 103.093 118.057C102.624 118.063 102.161 117.951 101.745 117.733Z" fill="white"/>
<path d="M109.192 114.587C109.345 114.753 109.462 114.949 109.536 115.163C109.61 115.376 109.64 115.603 109.623 115.828V117.974H108.535V115.995C108.552 115.757 108.483 115.52 108.341 115.328C108.269 115.252 108.18 115.193 108.082 115.155C107.984 115.117 107.879 115.101 107.774 115.108C107.651 115.1 107.528 115.119 107.413 115.164C107.298 115.208 107.193 115.276 107.107 115.364C106.93 115.574 106.843 115.845 106.863 116.118V117.974H105.776V112.802H106.863V114.614C107.011 114.466 107.19 114.352 107.387 114.28C107.601 114.202 107.827 114.164 108.054 114.167C108.263 114.156 108.471 114.187 108.667 114.259C108.862 114.332 109.041 114.443 109.192 114.587Z" fill="white"/>
<path d="M111.368 117.78C111.063 117.625 110.807 117.386 110.631 117.093C110.451 116.791 110.359 116.444 110.367 116.092C110.36 115.74 110.452 115.394 110.631 115.091C110.808 114.799 111.064 114.562 111.368 114.407C111.696 114.238 112.06 114.153 112.429 114.16C112.797 114.153 113.16 114.238 113.487 114.407C113.79 114.563 114.044 114.799 114.221 115.091C114.4 115.394 114.491 115.74 114.484 116.092C114.492 116.444 114.401 116.791 114.221 117.093C114.045 117.386 113.791 117.624 113.487 117.78C113.16 117.95 112.797 118.035 112.429 118.027C112.06 118.034 111.696 117.949 111.368 117.78ZM113.116 116.856C113.289 116.641 113.383 116.374 113.383 116.099C113.383 115.823 113.289 115.556 113.116 115.341C113.028 115.249 112.921 115.176 112.802 115.128C112.684 115.08 112.557 115.057 112.429 115.061C112.301 115.057 112.173 115.08 112.054 115.129C111.935 115.177 111.828 115.249 111.738 115.341C111.564 115.555 111.468 115.823 111.468 116.099C111.468 116.375 111.564 116.642 111.738 116.856C111.828 116.948 111.935 117.02 112.054 117.069C112.173 117.117 112.301 117.14 112.429 117.136C112.557 117.14 112.684 117.117 112.803 117.068C112.921 117.019 113.028 116.946 113.116 116.853V116.856Z" fill="white"/>
<path d="M115.929 117.78C115.625 117.624 115.371 117.386 115.195 117.093C115.015 116.791 114.924 116.444 114.932 116.092C114.925 115.74 115.016 115.394 115.195 115.091C115.372 114.799 115.626 114.563 115.929 114.407C116.261 114.245 116.628 114.168 116.997 114.184C117.365 114.176 117.728 114.261 118.055 114.43C118.356 114.587 118.609 114.824 118.785 115.114C118.964 115.417 119.055 115.764 119.049 116.115C119.057 116.467 118.965 116.814 118.785 117.116C118.61 117.409 118.357 117.647 118.055 117.804C117.728 117.973 117.365 118.058 116.997 118.051C116.624 118.051 116.257 117.958 115.929 117.78ZM117.664 116.853C117.839 116.639 117.934 116.371 117.934 116.095C117.934 115.819 117.839 115.552 117.664 115.338C117.576 115.246 117.47 115.173 117.352 115.125C117.234 115.076 117.108 115.054 116.98 115.058C116.852 115.053 116.724 115.076 116.605 115.125C116.486 115.173 116.379 115.246 116.29 115.338C116.113 115.551 116.016 115.819 116.016 116.095C116.016 116.372 116.113 116.64 116.29 116.853C116.379 116.945 116.486 117.018 116.605 117.066C116.724 117.114 116.852 117.137 116.98 117.133C117.108 117.137 117.234 117.114 117.352 117.066C117.47 117.018 117.576 116.945 117.664 116.853Z" fill="white"/>
<path d="M120.119 117.914C119.868 117.856 119.628 117.758 119.408 117.623L119.772 116.843C119.959 116.96 120.163 117.048 120.376 117.106C120.603 117.171 120.837 117.205 121.073 117.206C121.534 117.206 121.764 117.095 121.764 116.873C121.762 116.819 121.743 116.767 121.708 116.725C121.674 116.683 121.627 116.654 121.574 116.642C121.387 116.581 121.195 116.54 121 116.519C120.743 116.483 120.489 116.429 120.239 116.359C120.04 116.295 119.862 116.18 119.722 116.025C119.643 115.934 119.583 115.828 119.545 115.714C119.507 115.599 119.492 115.478 119.502 115.358C119.499 115.131 119.572 114.909 119.709 114.727C119.863 114.531 120.07 114.383 120.306 114.3C120.604 114.191 120.92 114.139 121.237 114.147C121.503 114.146 121.768 114.175 122.028 114.233C122.256 114.277 122.476 114.358 122.678 114.474L122.318 115.248C121.988 115.061 121.616 114.964 121.237 114.967C121.057 114.957 120.877 114.99 120.713 115.064C120.664 115.086 120.622 115.121 120.591 115.165C120.561 115.209 120.543 115.261 120.54 115.314C120.539 115.371 120.557 115.425 120.592 115.47C120.626 115.514 120.675 115.545 120.73 115.558C120.924 115.622 121.124 115.667 121.327 115.691C121.581 115.731 121.833 115.786 122.081 115.855C122.275 115.914 122.45 116.023 122.588 116.172C122.741 116.349 122.819 116.579 122.805 116.813C122.807 117.037 122.732 117.256 122.595 117.433C122.435 117.628 122.223 117.774 121.984 117.854C121.68 117.96 121.359 118.011 121.037 118.004C120.728 118.013 120.42 117.982 120.119 117.914Z" fill="white"/>
<path d="M127.12 116.405H124.287C124.332 116.628 124.461 116.825 124.647 116.956C124.858 117.095 125.106 117.165 125.358 117.156C125.535 117.16 125.712 117.131 125.879 117.069C126.036 117.007 126.179 116.914 126.299 116.796L126.876 117.423C126.679 117.632 126.439 117.794 126.172 117.898C125.904 118.003 125.617 118.047 125.331 118.027C124.942 118.036 124.557 117.951 124.207 117.78C123.896 117.628 123.635 117.389 123.456 117.093C123.276 116.79 123.185 116.444 123.193 116.092C123.187 115.741 123.277 115.395 123.453 115.091C123.624 114.8 123.872 114.562 124.17 114.404C124.484 114.235 124.835 114.15 125.191 114.157C125.54 114.15 125.884 114.231 126.192 114.394C126.485 114.544 126.728 114.776 126.893 115.061C127.067 115.375 127.155 115.73 127.146 116.088C127.146 116.088 127.133 116.225 127.12 116.405ZM124.577 115.201C124.406 115.345 124.296 115.549 124.27 115.772H126.119C126.091 115.55 125.98 115.347 125.81 115.202C125.64 115.058 125.421 114.982 125.198 114.991C124.972 114.983 124.752 115.058 124.577 115.201Z" fill="white"/>
<path d="M84.3223 75.2034C84.1992 75.2042 84.0802 75.159 83.9887 75.0766L82.6541 73.8922C82.6041 73.8491 82.5632 73.7965 82.5337 73.7375C82.5043 73.6784 82.4869 73.6141 82.4825 73.5483C82.4782 73.4824 82.487 73.4164 82.5084 73.354C82.5299 73.2916 82.5635 73.2341 82.6074 73.1848C82.6956 73.0912 82.8164 73.035 82.9448 73.0275C83.0732 73.0201 83.1996 73.062 83.298 73.1448L84.2756 74.0056L86.3009 71.7702C86.3914 71.6797 86.5132 71.6274 86.6411 71.624C86.769 71.6205 86.8934 71.6662 86.9887 71.7517C87.084 71.8371 87.1429 71.9558 87.1534 72.0834C87.1638 72.2109 87.125 72.3376 87.0449 72.4375L84.686 75.0399C84.64 75.0908 84.5839 75.1316 84.5213 75.1597C84.4587 75.1878 84.391 75.2027 84.3223 75.2034Z" fill="#2D9CDB"/>
<path d="M84.3228 85.8802C84.2 85.8823 84.081 85.8382 83.9891 85.7568L82.6545 84.569C82.6052 84.5252 82.565 84.4721 82.5363 84.4127C82.5075 84.3534 82.4907 84.289 82.4868 84.2231C82.483 84.1573 82.4921 84.0913 82.5137 84.029C82.5353 83.9667 82.569 83.9093 82.6128 83.86C82.6566 83.8107 82.7097 83.7705 82.7691 83.7417C82.8284 83.713 82.8928 83.6962 82.9587 83.6923C83.0916 83.6845 83.2223 83.7298 83.3218 83.8183L84.2994 84.6791L86.3246 82.4403C86.4152 82.3499 86.5369 82.2976 86.6649 82.2941C86.7928 82.2907 86.9172 82.3364 87.0125 82.4218C87.1078 82.5073 87.1667 82.626 87.1771 82.7535C87.1876 82.8811 87.1488 83.0078 87.0687 83.1076L84.7098 85.7101C84.6619 85.7653 84.6023 85.8093 84.5354 85.8387C84.4685 85.8681 84.3958 85.8823 84.3228 85.8802Z" fill="#2D9CDB"/>
<path d="M84.3228 96.5604C84.1996 96.5612 84.0806 96.516 83.9891 96.4336L82.6545 95.2492C82.6052 95.2054 82.565 95.1523 82.5363 95.0929C82.5075 95.0336 82.4907 94.9691 82.4868 94.9033C82.483 94.8375 82.4921 94.7715 82.5137 94.7092C82.5353 94.6469 82.569 94.5895 82.6128 94.5402C82.6566 94.4909 82.7097 94.4507 82.7691 94.4219C82.8284 94.3932 82.8928 94.3764 82.9587 94.3725C83.0916 94.3647 83.2223 94.41 83.3218 94.4985L84.2994 95.3559L86.3246 93.1205C86.4152 93.0301 86.5369 92.9777 86.6649 92.9743C86.7928 92.9709 86.9172 93.0166 87.0125 93.102C87.1078 93.1875 87.1667 93.3062 87.1771 93.4337C87.1876 93.5613 87.1488 93.688 87.0687 93.7878L84.7098 96.3903C84.6618 96.4453 84.6022 96.4891 84.5353 96.5185C84.4684 96.5479 84.3958 96.5622 84.3228 96.5604Z" fill="#2D9CDB"/>
<path d="M117.19 35.9531L118.528 38.6623L121.517 39.0961L119.355 41.2047L119.866 44.1809L117.19 42.7762L114.517 44.1809L115.028 41.2047L112.866 39.0961L115.855 38.6623L117.19 35.9531Z" fill="white"/>
<path d="M111.995 35.9531L113.763 39.5332L117.714 40.107L114.854 42.893L115.528 46.8267L111.995 44.9683L108.465 46.8267L109.139 42.893L106.279 40.107L110.23 39.5332L111.995 35.9531Z" fill="white"/>
<path d="M115.959 47.4172L111.992 45.3353L108.028 47.4172L108.785 43.0064L105.579 39.8801L110.01 39.2362L111.992 35.2324L113.97 39.2362L118.401 39.8801L115.195 43.0031L115.959 47.4172ZM106.987 40.3306L109.496 42.7795L108.902 46.2361L112.008 44.6013L115.111 46.2361L114.507 42.7829L117.016 40.3339L113.546 39.8301L111.992 36.6838L110.437 39.8268L106.987 40.3306Z" fill="#2D9CDB"/>
<path d="M151.289 133.589C151.289 132.888 151.256 88.81 151.209 24.0456L151.289 24.1256H72.4884L72.5751 24.0389C72.5751 65.0275 72.5751 102.95 72.5584 133.582L72.4884 133.512L151.299 133.582L72.4884 133.652H72.4183V133.582C72.4183 102.95 72.4183 65.0275 72.4016 24.0389V23.9521H72.4984H151.299H151.363V24.0289C151.319 88.8266 151.289 132.888 151.289 133.589Z" fill="#263238"/>
<path d="M112.723 89.9438C112.723 89.9438 111.555 88.1888 113.894 88.0921C116.233 87.9953 127.73 89.9438 131.627 91.8923L135.037 94.0344L131.344 101.341H122.856C121.882 101.341 119.156 99.673 121.688 98.5186C121.688 98.5186 119.156 96.7636 121.495 95.3022C121.495 95.3022 119.643 93.9376 121.591 92.0858L112.723 89.9438Z" fill="#FFBF9D"/>
<path d="M132.311 92.6167L151.663 102.753L158.923 95.8064L167.575 103.6C167.575 103.6 159 113.67 154.032 114.547C149.064 115.425 129.716 99.8669 129.716 99.8669L132.311 92.6167Z" fill="#FFBF9D"/>
<path d="M152.614 61.4674L152.434 61.5709C152.153 61.7152 151.853 61.8196 151.543 61.8812C151.395 61.8975 151.249 61.9243 151.106 61.9612C151.02 62.0076 150.939 62.0612 150.862 62.1214C150.332 62.4317 149.658 62.455 149.064 62.5318C148.396 62.6018 147.679 62.7053 147.159 63.1357C146.638 63.5661 146.405 64.4236 146.862 64.9207C146.646 64.9243 146.44 65.0062 146.281 65.1512C146.122 65.2962 146.021 65.4942 145.998 65.7081C145.982 65.9233 146.022 66.1389 146.113 66.3345C146.204 66.5301 146.343 66.6992 146.518 66.8258C146.872 67.0766 147.287 67.2265 147.719 67.2596C147.47 67.3015 147.246 67.4387 147.096 67.6424C146.946 67.846 146.881 68.0999 146.915 68.3506C146.96 68.6 147.068 68.8339 147.229 69.03C147.389 69.2262 147.597 69.3782 147.833 69.4717C148.305 69.6555 148.812 69.733 149.317 69.6985C149.969 69.6751 150.622 69.6885 151.273 69.7386C151.273 69.7386 151.273 70.3825 151.273 70.6728C151.273 71.0665 151.273 70.7595 151.273 70.7595C151.625 70.9651 152.004 71.1191 152.4 71.2166C153.278 71.5036 153.845 71.7371 154.636 71.9407C155.226 72.0941 155.807 72.1675 156.124 71.7705C156.888 70.8163 154.879 69.435 154.879 69.435C155.47 69.1013 155.31 67.2095 154.432 66.9526C154.866 66.7391 155.139 66.7624 155.396 66.3487C155.529 66.1457 155.612 65.9142 155.639 65.6731C155.666 65.4319 155.635 65.1879 155.55 64.9607C155.456 64.7374 155.291 64.5512 155.08 64.4307C154.87 64.3101 154.626 64.2619 154.385 64.2934C154.669 64.0491 154.873 63.7245 154.968 63.3624C155.064 63.0003 155.048 62.6177 154.923 62.2649C154.757 61.8434 154.443 61.4977 154.038 61.2939C153.838 61.1926 153.621 61.1282 153.398 61.1038C153.314 61.0888 153.228 61.0888 153.144 61.1038C153.107 61.1154 153.072 61.1334 153.041 61.1572C152.894 61.2339 152.767 61.364 152.614 61.4674Z" fill="#FFBF9D"/>
<path d="M153.551 59.2917C153.545 59.0824 153.493 58.877 153.401 58.6893C153.308 58.5016 153.176 58.3361 153.014 58.204C152.607 57.9271 151.873 57.9604 151.389 58.0672C151.359 58.6544 151.389 58.9514 151.349 59.5386C151.349 59.662 151.385 59.7588 151.329 59.8722C151.179 60.1625 150.541 60.2059 150.248 60.356C150.005 60.5034 149.828 60.7379 149.753 61.0115C149.678 61.285 149.711 61.577 149.844 61.8274C149.991 62.0708 150.204 62.2671 150.459 62.3931C150.714 62.519 150.999 62.5693 151.282 62.5381C151.851 62.4659 152.372 62.1839 152.743 61.7473C153.039 61.4155 153.264 61.0261 153.403 60.6036C153.542 60.1811 153.592 59.7345 153.551 59.2917Z" fill="#FFBF9D"/>
<path d="M154.549 64.2597C154.549 64.3064 152.837 64.4932 150.715 64.6734C148.593 64.8536 146.868 64.9637 146.865 64.9136C146.862 64.8636 148.577 64.6801 150.699 64.4999C152.821 64.3197 154.546 64.2096 154.549 64.2597Z" fill="#FF9A6C"/>
<path d="M154.549 66.9392C154.223 67.0391 153.888 67.1062 153.548 67.1394C152.732 67.2609 151.91 67.3411 151.086 67.3796C150.118 67.4297 149.244 67.4197 148.61 67.3796C148.267 67.3813 147.925 67.3478 147.589 67.2795C147.93 67.2458 148.272 67.238 148.614 67.2562C149.244 67.2562 150.115 67.2562 151.076 67.1961C152.037 67.1361 152.904 67.0727 153.532 67.0093C153.869 66.9623 154.209 66.9389 154.549 66.9392Z" fill="#FF9A6C"/>
<path d="M154.548 69.5583C154.275 69.6357 153.994 69.6805 153.71 69.6917C153.19 69.7451 152.469 69.7851 151.672 69.7951C150.874 69.8052 150.154 69.7951 149.633 69.7951C149.35 69.8082 149.066 69.7926 148.786 69.7484C149.064 69.6932 149.347 69.6675 149.63 69.6717C150.154 69.6483 150.874 69.6383 151.668 69.625C152.463 69.6116 153.183 69.595 153.704 69.5716C153.984 69.5436 154.267 69.5391 154.548 69.5583Z" fill="#FF9A6C"/>
<path d="M153.394 60.1523C153.459 60.3738 153.44 60.6114 153.341 60.8196C153.139 61.322 152.759 61.732 152.273 61.9707C152.018 62.1074 151.75 62.2192 151.472 62.3044C151.248 62.384 151.015 62.4388 150.778 62.4679C150.61 62.4868 150.441 62.448 150.298 62.3578C150.201 62.291 150.175 62.2276 150.181 62.221C150.354 62.3336 150.562 62.3787 150.765 62.3477C150.993 62.3008 151.216 62.2349 151.432 62.1509C151.698 62.0601 151.955 61.9485 152.203 61.8172C152.657 61.5942 153.022 61.2252 153.241 60.7696C153.31 60.5686 153.361 60.3621 153.394 60.1523Z" fill="#FF9A6C"/>
<path d="M62.8155 44.2812H5.55151V123.876H62.8155V44.2812Z" fill="white" fill-opacity="0.1"/>
<path d="M62.8155 44.2812H5.55151V73.0917H62.8155V44.2812Z" fill="#455A64"/>
<path d="M52.9029 80.1514C52.9029 80.2015 45.0288 80.2415 35.3197 80.2415C25.6105 80.2415 17.7365 80.2015 17.7365 80.1514C17.7365 80.1014 25.6072 80.0647 35.3197 80.0647C45.0322 80.0647 52.9029 80.0947 52.9029 80.1514Z" fill="#263238"/>
<path d="M52.9029 87.9019C52.9029 87.9486 45.0288 87.9887 35.3197 87.9887C25.6105 87.9887 17.7365 87.9486 17.7365 87.9019C17.7365 87.8552 25.6072 87.8152 35.3197 87.8152C45.0322 87.8152 52.9029 87.8552 52.9029 87.9019Z" fill="#263238"/>
<path d="M52.9029 95.6631C52.9029 95.7098 45.0288 95.7498 35.3197 95.7498C25.6105 95.7498 17.7365 95.7098 17.7365 95.6631C17.7365 95.6164 25.6072 95.573 35.3197 95.573C45.0322 95.573 52.9029 95.613 52.9029 95.6631Z" fill="#263238"/>
<path d="M52.7552 104.608H18.3594C14.9762 104.608 12.2336 107.351 12.2336 110.734V111.371C12.2336 114.754 14.9762 117.497 18.3594 117.497H52.7552C56.1384 117.497 58.881 114.754 58.881 111.371V110.734C58.881 107.351 56.1384 104.608 52.7552 104.608Z" fill="#455A64"/>
<path d="M28.8668 65.9818C28.992 66.1501 29.0567 66.3559 29.0503 66.5657C29.0561 66.7186 29.0219 66.8705 28.9511 67.0062C28.8803 67.142 28.7753 67.2569 28.6466 67.3397C28.2931 67.5415 27.8884 67.6355 27.4821 67.61H25.4269V63.803H27.3754C27.7636 63.7779 28.1501 63.8722 28.4831 64.0733C28.6031 64.1525 28.7012 64.2606 28.7682 64.3878C28.8353 64.5149 28.8692 64.6569 28.8668 64.8007C28.8682 64.9723 28.822 65.1409 28.7333 65.2878C28.6393 65.4315 28.5077 65.5469 28.353 65.6214C28.5564 65.6875 28.7353 65.813 28.8668 65.9818ZM26.4912 64.5804V65.3145H27.2453C27.6089 65.3145 27.7891 65.191 27.7891 64.9441C27.7891 64.6972 27.6089 64.5804 27.2453 64.5804H26.4912ZM27.9626 66.4455C27.9626 66.1886 27.7724 66.0585 27.3954 66.0585H26.4912V66.8326H27.3954C27.7724 66.8326 27.9626 66.7024 27.9626 66.4455Z" fill="white" fill-opacity="0.1"/>
<path d="M32.1629 66.8691H30.5514L30.2545 67.6098H29.1534L30.8217 63.7996H31.8827L33.5843 67.6098H32.4632L32.1629 66.8691ZM31.846 66.075L31.3589 64.8572L30.8684 66.075H31.846Z" fill="white" fill-opacity="0.1"/>
<path d="M34.329 67.5733C34.0768 67.514 33.8373 67.4101 33.6217 67.2664L33.9754 66.4723C34.1595 66.5909 34.3594 66.683 34.5693 66.7459C34.7851 66.8142 35.0102 66.8491 35.2366 66.8493C35.6503 66.8493 35.8571 66.7459 35.8571 66.539C35.8565 66.4851 35.8392 66.4327 35.8075 66.3891C35.7758 66.3455 35.7314 66.3127 35.6803 66.2955C35.496 66.2247 35.3064 66.1689 35.1131 66.1286C34.8686 66.0798 34.6278 66.014 34.3924 65.9318C34.2023 65.864 34.0325 65.7492 33.8986 65.5981C33.7528 65.4214 33.679 65.1963 33.6918 64.9676C33.6891 64.7428 33.7555 64.5227 33.8819 64.337C34.025 64.1381 34.2217 63.9842 34.4491 63.8932C34.7447 63.7789 35.06 63.7245 35.3767 63.7331C35.626 63.7322 35.8745 63.7602 36.1174 63.8165C36.3434 63.8655 36.5605 63.9487 36.7613 64.0634L36.4277 64.8641C36.1067 64.6788 35.7439 64.5778 35.3734 64.5705C35.212 64.5583 35.0505 64.5906 34.9062 64.6639C34.8618 64.688 34.8247 64.7237 34.7988 64.7671C34.773 64.8106 34.7594 64.8603 34.7594 64.9108C34.7601 64.9627 34.7773 65.013 34.8085 65.0544C34.8397 65.0958 34.8833 65.1261 34.9329 65.141C35.1146 65.2104 35.3022 65.2629 35.4935 65.2979C35.7379 65.3484 35.9787 65.4152 36.2141 65.4981C36.4033 65.5676 36.5728 65.6821 36.7079 65.8317C36.8598 66.0093 36.9364 66.2391 36.9215 66.4723C36.924 66.6939 36.8576 66.9108 36.7313 67.0929C36.5877 67.2925 36.3896 67.4465 36.1608 67.5366C35.8661 67.6547 35.5505 67.7115 35.2332 67.7035C34.9274 67.6997 34.6235 67.656 34.329 67.5733Z" fill="white" fill-opacity="0.1"/>
<path d="M37.4114 63.8027H38.4891V67.613H37.4114V63.8027Z" fill="white" fill-opacity="0.1"/>
<path d="M40.0809 67.4332C39.7702 67.2727 39.5102 67.029 39.3301 66.7292C39.1529 66.4175 39.0597 66.0651 39.0597 65.7066C39.0597 65.348 39.1529 64.9956 39.3301 64.684C39.51 64.3832 39.7699 64.1383 40.0809 63.9766C40.4129 63.8061 40.782 63.7201 41.1552 63.7264C41.4782 63.7211 41.7987 63.7836 42.0961 63.9099C42.3689 64.0278 42.6084 64.2112 42.7934 64.4437L42.1061 65.0643C42.0011 64.9256 41.8655 64.8131 41.7098 64.7355C41.5541 64.658 41.3825 64.6175 41.2086 64.6172C41.0163 64.6141 40.8265 64.6613 40.6581 64.754C40.4972 64.8419 40.3661 64.9754 40.281 65.1377C40.1889 65.3123 40.143 65.5076 40.1476 65.7049C40.1434 65.9033 40.1893 66.0995 40.281 66.2755C40.367 66.4371 40.498 66.5704 40.6581 66.6592C40.8265 66.7519 41.0163 66.7991 41.2086 66.796C41.3825 66.7957 41.5541 66.7552 41.7098 66.6776C41.8655 66.6001 42.0011 66.4876 42.1061 66.3489L42.7934 66.9694C42.6074 67.201 42.3682 67.3842 42.0961 67.5033C41.7987 67.6296 41.4782 67.6921 41.1552 67.6868C40.7815 67.6935 40.4121 67.6064 40.0809 67.4332Z" fill="white" fill-opacity="0.1"/>
<path d="M26.819 112.355C26.5323 112.201 26.2943 111.97 26.1317 111.688C25.9675 111.401 25.8812 111.075 25.8812 110.744C25.8812 110.413 25.9675 110.087 26.1317 109.8C26.3016 109.535 26.5388 109.321 26.819 109.179C27.099 109.037 27.4064 108.957 27.7202 108.944C28.034 108.931 28.3468 108.987 28.6374 109.106C28.879 109.209 29.0927 109.368 29.2613 109.57L28.7341 110.057C28.6271 109.925 28.4917 109.819 28.3379 109.748C28.1842 109.676 28.0162 109.64 27.8466 109.643C27.6417 109.638 27.4392 109.688 27.2594 109.786C27.0901 109.88 26.9502 110.018 26.8557 110.187C26.758 110.367 26.7086 110.569 26.7122 110.774C26.7077 110.979 26.7572 111.181 26.8557 111.361C26.948 111.523 27.083 111.657 27.2461 111.748C27.4258 111.847 27.6283 111.896 27.8333 111.892C28.0035 111.894 28.1719 111.857 28.3257 111.784C28.4795 111.711 28.6146 111.604 28.7208 111.471L29.2479 111.958C29.0812 112.165 28.8656 112.327 28.6207 112.429C28.3564 112.538 28.0726 112.593 27.7866 112.589C27.4497 112.592 27.1174 112.512 26.819 112.355Z" fill="white" fill-opacity="0.1"/>
<path d="M32.2305 110.07C32.3404 110.191 32.4246 110.334 32.478 110.489C32.5313 110.643 32.5527 110.807 32.5408 110.971V112.516H31.7534V111.078C31.7658 110.905 31.7148 110.734 31.6099 110.597C31.5575 110.542 31.4936 110.499 31.4226 110.471C31.3517 110.443 31.2755 110.432 31.1995 110.437C31.1121 110.433 31.0247 110.447 30.9431 110.478C30.8615 110.51 30.7874 110.558 30.7258 110.62C30.5963 110.773 30.5327 110.971 30.5489 111.171V112.506H29.7582V108.775H30.5489V110.09C30.6531 109.984 30.7781 109.901 30.9159 109.846C31.0718 109.789 31.237 109.761 31.4031 109.763C31.5546 109.755 31.7062 109.778 31.8485 109.831C31.9908 109.884 32.1208 109.965 32.2305 110.07Z" fill="white" fill-opacity="0.1"/>
<path d="M33.8083 112.392C33.5878 112.277 33.4031 112.104 33.2744 111.891C33.1499 111.67 33.0845 111.421 33.0845 111.167C33.0845 110.914 33.1499 110.664 33.2744 110.443C33.4042 110.233 33.5887 110.061 33.8083 109.946C34.0477 109.824 34.3135 109.762 34.5823 109.766C34.8491 109.762 35.1128 109.823 35.3497 109.946C35.5692 110.06 35.7528 110.232 35.8802 110.443C36.007 110.664 36.0737 110.913 36.0737 111.167C36.0737 111.422 36.007 111.671 35.8802 111.891C35.7533 112.104 35.5696 112.278 35.3497 112.392C35.1125 112.514 34.8488 112.574 34.5823 112.569C34.3137 112.574 34.0479 112.513 33.8083 112.392ZM35.0795 111.725C35.2143 111.574 35.2839 111.376 35.273 111.174C35.2783 111.075 35.2639 110.975 35.2307 110.881C35.1975 110.787 35.1461 110.701 35.0795 110.627C35.0155 110.56 34.9383 110.507 34.8527 110.471C34.7671 110.435 34.675 110.418 34.5823 110.42C34.4885 110.417 34.3952 110.434 34.3084 110.47C34.2216 110.505 34.1432 110.559 34.0785 110.627C34.0113 110.701 33.9593 110.787 33.9255 110.881C33.8917 110.975 33.8768 111.074 33.8817 111.174C33.8721 111.376 33.9428 111.574 34.0785 111.725C34.1435 111.792 34.222 111.845 34.3088 111.88C34.3956 111.915 34.4888 111.931 34.5823 111.928C34.6753 111.93 34.7675 111.912 34.8531 111.876C34.9387 111.839 35.0158 111.786 35.0795 111.718V111.725Z" fill="white" fill-opacity="0.1"/>
<path d="M37.125 112.392C36.9039 112.278 36.719 112.105 36.5912 111.891C36.4918 111.73 36.4265 111.551 36.3996 111.363C36.3727 111.176 36.3847 110.985 36.4348 110.803C36.4848 110.62 36.572 110.45 36.6907 110.303C36.8095 110.155 36.9573 110.034 37.125 109.946C37.3647 109.828 37.6284 109.766 37.8958 109.766C38.1631 109.766 38.4269 109.828 38.6665 109.946C38.8859 110.06 39.0696 110.232 39.197 110.443C39.3238 110.664 39.3905 110.913 39.3905 111.167C39.3905 111.422 39.3238 111.671 39.197 111.891C39.0701 112.104 38.8864 112.278 38.6665 112.392C38.4262 112.508 38.1627 112.569 37.8958 112.569C37.6288 112.569 37.3653 112.508 37.125 112.392ZM38.3962 111.725C38.5294 111.576 38.5988 111.38 38.5898 111.181C38.5951 111.081 38.5807 110.982 38.5475 110.888C38.5143 110.794 38.4629 110.708 38.3962 110.634C38.3319 110.566 38.2541 110.513 38.1679 110.477C38.0817 110.442 37.989 110.424 37.8958 110.427C37.8025 110.424 37.7098 110.442 37.6236 110.477C37.5374 110.513 37.4596 110.566 37.3953 110.634C37.328 110.707 37.276 110.794 37.2423 110.888C37.2085 110.981 37.1936 111.081 37.1984 111.181C37.1888 111.383 37.2596 111.581 37.3953 111.731C37.4599 111.798 37.5378 111.851 37.624 111.886C37.7102 111.921 37.8028 111.938 37.8958 111.935C37.9898 111.936 38.0829 111.917 38.1692 111.88C38.2554 111.843 38.3328 111.787 38.3962 111.718V111.725Z" fill="white" fill-opacity="0.1"/>
<path d="M40.1673 112.485C39.9851 112.446 39.8113 112.374 39.6534 112.275L39.917 111.711C40.0535 111.796 40.202 111.859 40.3574 111.898C40.521 111.947 40.6907 111.971 40.8612 111.972C41.1949 111.972 41.3617 111.892 41.3617 111.725C41.3611 111.686 41.3472 111.648 41.3224 111.617C41.2976 111.587 41.2632 111.566 41.2249 111.558C41.0894 111.514 40.9496 111.485 40.8079 111.471C40.6205 111.447 40.4353 111.407 40.254 111.354C40.1106 111.311 39.9808 111.232 39.877 111.124C39.7634 110.992 39.7059 110.821 39.7168 110.647C39.7144 110.482 39.7672 110.321 39.867 110.19C39.9803 110.046 40.1318 109.938 40.3041 109.876C40.5179 109.799 40.7441 109.762 40.9714 109.766C41.1644 109.766 41.3569 109.787 41.5452 109.83C41.711 109.863 41.8708 109.922 42.019 110.003L41.7554 110.567C41.5167 110.431 41.2461 110.361 40.9714 110.363C40.8408 110.356 40.7104 110.38 40.591 110.433C40.555 110.449 40.5241 110.475 40.5017 110.507C40.4794 110.54 40.4664 110.578 40.4642 110.617C40.4643 110.657 40.4778 110.697 40.5026 110.729C40.5273 110.761 40.5619 110.784 40.601 110.794C40.7435 110.839 40.8898 110.872 41.0381 110.891C41.2224 110.92 41.4051 110.959 41.5853 111.007C41.7265 111.05 41.8534 111.131 41.9523 111.241C42.0079 111.304 42.0503 111.377 42.0773 111.457C42.1042 111.537 42.115 111.621 42.1091 111.705C42.1116 111.868 42.0587 112.026 41.959 112.155C41.8419 112.296 41.6884 112.402 41.5152 112.462C41.2933 112.539 41.0593 112.575 40.8245 112.569C40.6028 112.569 40.3819 112.541 40.1673 112.485Z" fill="white" fill-opacity="0.1"/>
<path d="M45.2624 111.391H43.2038C43.2353 111.553 43.3286 111.697 43.464 111.791C43.617 111.893 43.7977 111.944 43.9812 111.938C44.1097 111.941 44.2377 111.92 44.3582 111.875C44.4727 111.829 44.577 111.761 44.6651 111.675L45.0855 112.132C44.9416 112.282 44.7663 112.4 44.572 112.475C44.3777 112.551 44.1691 112.583 43.9611 112.569C43.6796 112.575 43.4005 112.515 43.147 112.392C42.9201 112.281 42.73 112.108 42.5999 111.891C42.474 111.671 42.4078 111.422 42.4078 111.169C42.4078 110.916 42.474 110.667 42.5999 110.447C42.725 110.235 42.9063 110.062 43.1237 109.946C43.3513 109.824 43.6062 109.762 43.8644 109.766C44.1165 109.762 44.3655 109.822 44.5884 109.94C44.8017 110.052 44.9779 110.223 45.0955 110.433C45.2167 110.663 45.2743 110.921 45.2624 111.181C45.2624 111.181 45.2624 111.261 45.2624 111.391ZM43.4073 110.513C43.2843 110.619 43.2056 110.766 43.1871 110.927H44.5217C44.4998 110.767 44.4204 110.62 44.2981 110.513C44.1728 110.409 44.0138 110.355 43.851 110.36C43.6894 110.356 43.5317 110.41 43.4073 110.513Z" fill="white" fill-opacity="0.1"/>
<path d="M14.1562 81.5897C14.0337 81.5905 13.915 81.5466 13.8225 81.4663L12.845 80.6021C12.7454 80.5136 12.6851 80.3892 12.6773 80.2562C12.6694 80.1233 12.7148 79.9927 12.8032 79.8931C12.8917 79.7936 13.0161 79.7332 13.1491 79.7254C13.2821 79.7176 13.4127 79.7629 13.5122 79.8514L14.1228 80.3886L15.5041 78.8605C15.5957 78.7754 15.7159 78.7277 15.8409 78.7268C15.9659 78.7259 16.0867 78.7718 16.1796 78.8554C16.2725 78.9391 16.3307 79.0545 16.3427 79.1789C16.3548 79.3034 16.3199 79.4278 16.2448 79.5278L14.5332 81.4195C14.4856 81.4725 14.4275 81.5149 14.3626 81.5442C14.2977 81.5735 14.2274 81.589 14.1562 81.5897Z" fill="#455A64"/>
<path d="M14.1561 89.3471C14.0336 89.3479 13.9149 89.304 13.8224 89.2237L12.8449 88.3628C12.7953 88.319 12.7549 88.2659 12.726 88.2065C12.697 88.147 12.68 88.0825 12.676 88.0165C12.6679 87.8832 12.713 87.7522 12.8015 87.6522C12.89 87.5522 13.0146 87.4915 13.1478 87.4833C13.2811 87.4752 13.4122 87.5203 13.5122 87.6088L14.1194 88.1593L15.5007 86.6346C15.5424 86.579 15.5952 86.5327 15.6558 86.4987C15.7164 86.4647 15.7834 86.4436 15.8526 86.4369C15.9217 86.4302 15.9915 86.438 16.0575 86.4597C16.1235 86.4815 16.1843 86.5167 16.2359 86.5632C16.2875 86.6097 16.3289 86.6665 16.3574 86.7299C16.3859 86.7932 16.4009 86.8618 16.4014 86.9313C16.4019 87.0008 16.3879 87.0696 16.3604 87.1334C16.3328 87.1972 16.2923 87.2546 16.2414 87.3019L14.5298 89.1936C14.4816 89.2438 14.4235 89.2833 14.3591 89.3098C14.2948 89.3362 14.2256 89.3489 14.1561 89.3471Z" fill="#455A64"/>
<path d="M14.1562 97.1077C14.0337 97.1085 13.915 97.0646 13.8225 96.9843L12.845 96.1201C12.7957 96.0763 12.7555 96.0232 12.7267 95.9638C12.6979 95.9045 12.6811 95.8401 12.6773 95.7742C12.6734 95.7084 12.6825 95.6424 12.7041 95.5801C12.7258 95.5178 12.7594 95.4604 12.8032 95.4111C12.8471 95.3618 12.9002 95.3216 12.9595 95.2929C13.0188 95.2641 13.0833 95.2473 13.1491 95.2434C13.2149 95.2395 13.2809 95.2487 13.3432 95.2703C13.4055 95.2919 13.463 95.3256 13.5122 95.3694L14.1228 95.9066L15.5041 94.3785C15.5458 94.3229 15.5987 94.2766 15.6593 94.2426C15.7198 94.2086 15.7868 94.1875 15.856 94.1808C15.9252 94.1741 15.995 94.1819 16.061 94.2036C16.127 94.2253 16.1877 94.2606 16.2393 94.3071C16.291 94.3536 16.3323 94.4104 16.3608 94.4737C16.3893 94.5371 16.4043 94.6057 16.4048 94.6752C16.4053 94.7447 16.3914 94.8135 16.3638 94.8773C16.3363 94.9411 16.2958 94.9985 16.2448 95.0458L14.5332 96.9375C14.4856 96.9905 14.4275 97.0329 14.3626 97.0622C14.2977 97.0915 14.2274 97.107 14.1562 97.1077Z" fill="#455A64"/>
<path d="M36.3541 58.8713L34.1854 57.7002L31.9899 58.8212L32.4337 56.3989L30.6887 54.6573L33.131 54.3303L34.2487 52.1316L35.3164 54.3537L37.752 54.7374L35.967 56.439L36.3541 58.8713Z" fill="white" fill-opacity="0.1"/>
<path d="M62.8161 123.876C62.8161 123.176 62.7861 91.329 62.7394 44.2813L62.8161 44.3614L5.55879 44.3681L5.64554 44.2813C5.64554 74.0627 5.64554 101.619 5.62886 123.876L5.55879 123.806L62.8228 123.876L5.55879 123.946H5.48873V123.876C5.48873 101.619 5.48873 74.0627 5.47205 44.2813V44.1946H5.55879H62.8161H62.8962V44.2713C62.8495 91.329 62.8194 123.192 62.8161 123.876Z" fill="#263238"/>
</svg>
