<svg width="180" height="128" viewBox="0 0 180 128" fill="none" xmlns="http://www.w3.org/2000/svg">
<path d="M180.5 111.663H0.5V111.753H180.5V111.663Z" fill="#EBEBEB" fill-opacity="0.1"/>
<path d="M162.464 117.458H150.54V117.548H162.464V117.458Z" fill="#EBEBEB" fill-opacity="0.1"/>
<path d="M119.739 118.435H116.61V118.525H119.739V118.435Z" fill="#EBEBEB" fill-opacity="0.1"/>
<path d="M150.18 114.115H143.271V114.205H150.18V114.115Z" fill="#EBEBEB" fill-opacity="0.1"/>
<path d="M34.9347 114.719H19.3853V114.809H34.9347V114.719Z" fill="#EBEBEB" fill-opacity="0.1"/>
<path d="M40.42 114.719H38.1401V114.809H40.42V114.719Z" fill="#EBEBEB" fill-opacity="0.1"/>
<path d="M81.553 116.24H47.8296V116.33H81.553V116.24Z" fill="#EBEBEB" fill-opacity="0.1"/>
<path d="M47.6589 110.491H22.7955C25.4919 108.014 31.838 108.167 31.838 108.167C31.838 108.167 27.4362 103.437 29.0598 100.405C30.6834 97.3735 35.0297 104.02 35.0297 104.02C35.0297 104.02 29.5631 94.1241 31.5968 91.657C33.6304 89.1896 39.0974 102.495 39.0974 102.495C39.0974 102.495 35.7767 88.4148 37.774 88.0156C39.7716 87.6164 41.8586 101.367 41.8586 101.367C41.8586 101.367 41.14 88.7975 42.8219 89.1561C44.5038 89.5146 43.6884 105.918 43.6884 105.918C43.6884 105.918 45.3794 97.5502 46.1022 100.218C46.8251 102.886 45.3768 108.611 45.3768 108.611C47.0429 108.634 47.5221 109.773 47.6589 110.491Z" fill="#E0E0E0" fill-opacity="0.1"/>
<path d="M60.7078 110.491H92.9951C89.4938 107.274 81.2527 107.472 81.2527 107.472C81.2527 107.472 86.9687 101.33 84.8602 97.3932C82.7517 93.4566 77.1076 102.088 77.1076 102.088C77.1076 102.088 84.2065 89.237 81.5659 86.033C78.9253 82.829 71.8253 100.107 71.8253 100.107C71.8253 100.107 76.1378 81.8228 73.5436 81.3041C70.9498 80.7853 68.2394 98.6417 68.2394 98.6417C68.2394 98.6417 69.1721 82.3193 66.9884 82.7851C64.8046 83.2506 65.8634 104.552 65.8634 104.552C65.8634 104.552 63.6677 93.6855 62.7289 97.1505C61.79 100.616 63.6706 108.049 63.6706 108.049C61.5077 108.079 60.8853 109.559 60.7078 110.491Z" fill="#E0E0E0" fill-opacity="0.1"/>
<path d="M90.3135 110.491H115.177C112.48 108.014 106.134 108.167 106.134 108.167C106.134 108.167 110.536 103.437 108.913 100.405C107.289 97.3735 102.943 104.02 102.943 104.02C102.943 104.02 108.409 94.1241 106.376 91.657C104.342 89.1896 98.875 102.495 98.875 102.495C98.875 102.495 102.196 88.4148 100.198 88.0156C98.2007 87.6164 96.1138 101.367 96.1138 101.367C96.1138 101.367 96.8324 88.7975 95.1504 89.1561C93.4689 89.5146 94.2839 105.918 94.2839 105.918C94.2839 105.918 92.593 97.5502 91.8701 100.218C91.1472 102.886 92.5955 108.611 92.5955 108.611C90.9294 108.634 90.4503 109.773 90.3135 110.491Z" fill="#E0E0E0" fill-opacity="0.1"/>
<path d="M41.7513 110.491C40.65 93.5811 37.9986 50.2728 38.3716 31.9567L36.6058 31.8372C36.6058 31.8372 34.8389 87.0183 35.8044 110.491H41.7513Z" fill="#E0E0E0" fill-opacity="0.1"/>
<path d="M37.9022 39.5236L42.4403 35.8343L42.8936 33.5447L45.6198 29.3871L46.2041 29.1736L43.5167 33.8737L43.4098 35.4527L47.4944 34.7025L49.2051 31.5478L51.0094 30.1297L51.2776 30.5974L49.7411 31.9704L48.4826 35.3418L42.8874 36.7491L37.0493 43.8205L37.9022 39.5236Z" fill="#E0E0E0" fill-opacity="0.1"/>
<path d="M37.0105 36.0942L36.7909 37.639L31.8834 32.9428L28.8597 32.3437L26.5269 30.7353L26.6878 30.5797L28.9033 31.9909L31.3585 32.1094L29.0322 29.2153L26.7426 27.5489L26.8995 27.4524L29.1956 28.9407L32.976 32.7664L32.6016 29.2665L31.7253 27.7789L31.6404 27.3689L32.7427 28.9903L35.6158 28.0425L35.8552 28.2217L32.9086 29.2722L33.44 33.1307L37.0105 36.0942Z" fill="#E0E0E0" fill-opacity="0.1"/>
<path d="M53.3451 30.0671C53.456 29.44 52.4635 28.9922 51.3914 28.9194C50.8535 28.8831 49.8866 28.7697 49.0456 28.5486C49.1461 28.3247 49.0744 28.0526 49.2184 27.6638C49.5316 26.817 49.3646 26.2439 48.4239 25.5052C47.4832 24.7668 46.535 24.9098 44.4765 25.1513C42.418 25.3929 42.7075 24.4605 40.8473 23.5731C38.9876 22.6857 32.5227 23.0547 31.3318 23.8812C30.6154 24.378 27.8215 24.0879 27.0446 25.3047C26.2677 26.5215 21.6824 26.2112 22.2886 27.2674C22.8949 28.324 23.6213 28.373 23.5018 30.142C23.3819 31.911 24.9861 31.3214 26.5924 31.9881C28.1987 32.6548 27.9835 31.4049 29.0343 31.325C30.0851 31.245 29.795 31.1392 30.8746 30.6399C31.9543 30.1406 31.8013 30.767 33.5141 31.6281C34.4588 32.1029 34.8098 31.5294 35.101 30.9254C35.2742 31.326 35.0791 31.91 35.4319 32.5864C35.7145 33.1282 36.8492 33.2477 37.9288 33.1469C39.1118 35.3958 39.6212 33.521 41.1044 33.6815C42.6686 33.8507 45.023 32.6141 46.1271 32.4816C47.2309 32.3495 47.3021 32.0698 48.443 32.954C49.5838 33.8378 54.4942 32.1123 54.9568 31.2216C55.4191 30.3306 53.2342 30.6942 53.3451 30.0671Z" fill="#E0E0E0" fill-opacity="0.1"/>
<path d="M73.5702 110.492C72.5244 93.9499 70.6744 62.0161 70.9649 47.7673L69.4547 47.665C69.4547 47.665 68.1418 88.6651 68.6321 110.492H73.5702Z" fill="#E0E0E0" fill-opacity="0.1"/>
<path d="M70.5632 54.2385L74.4443 51.0838L74.832 49.1254L77.1634 45.5697L77.6634 45.3872L75.3648 49.407L75.2734 50.7573L78.7668 50.1158L80.2299 47.4176L81.7732 46.2048L82.0025 46.6047L80.6882 47.779L79.6118 50.6626L74.8266 51.8658L69.8338 57.9138L70.5632 54.2385Z" fill="#E0E0E0" fill-opacity="0.1"/>
<path d="M69.8003 51.3059L69.6128 52.6268L65.4155 48.6106L62.8293 48.0983L60.8345 46.7228L60.9721 46.5896L62.8667 47.7963L64.9666 47.8978L62.9773 45.4225L61.0189 43.9976L61.1528 43.9151L63.1166 45.1877L66.3497 48.4598L66.0297 45.4664L65.2802 44.1941L65.2075 43.8435L66.1503 45.2302L68.6077 44.4195L68.8125 44.5729L66.2921 45.4714L66.7468 48.7715L69.8003 51.3059Z" fill="#E0E0E0" fill-opacity="0.1"/>
<path d="M83.7705 46.1512C83.8652 45.6148 83.0163 45.2318 82.0997 45.1698C81.6397 45.1389 80.8127 45.0417 80.0935 44.8527C80.1795 44.6612 80.1179 44.4286 80.2411 44.0956C80.5089 43.3713 80.366 42.8813 79.5614 42.2495C78.7568 41.6177 77.9461 41.7405 76.1853 41.9471C74.4245 42.1538 74.6722 41.3564 73.0814 40.5971C71.4905 39.8382 65.9617 40.154 64.9432 40.8606C64.3305 41.2858 61.9412 41.0374 61.2766 42.0782C60.6121 43.1189 56.6902 42.8532 57.209 43.7568C57.7274 44.6604 58.3487 44.7026 58.2465 46.2153C58.1443 47.728 59.5159 47.224 60.89 47.7942C62.2637 48.3645 62.0794 47.2956 62.9783 47.2272C63.8769 47.1588 63.6289 47.0681 64.5523 46.6412C65.4757 46.2142 65.345 46.7499 66.8098 47.4864C67.6177 47.8925 67.9179 47.4022 68.167 46.8852C68.315 47.228 68.1483 47.7273 68.45 48.3058C68.6915 48.7691 69.6621 48.8714 70.5855 48.7853C71.5971 50.7088 72.0331 49.1054 73.3013 49.2425C74.6391 49.3872 76.6529 48.3296 77.5969 48.2165C78.5408 48.1035 78.6016 47.8644 79.5772 48.6204C80.5532 49.3764 84.7526 47.9008 85.1482 47.139C85.5446 46.3769 83.6758 46.6876 83.7705 46.1512Z" fill="#E0E0E0" fill-opacity="0.1"/>
<path d="M61.6359 93.9915C61.3011 91.6209 54.9953 42.9194 53.5683 12.6992H51.207C51.207 12.6992 52.534 73.7531 56.4926 96.0057L61.6359 93.9915Z" fill="#E6E6E6" fill-opacity="0.1"/>
<path d="M31.7905 110.492H94.4773C87.6794 106.783 71.6792 107.012 71.6792 107.012C71.6792 107.012 82.7769 99.9327 78.6833 95.3956C74.5898 90.8585 63.6317 100.807 63.6317 100.807C63.6317 100.807 77.4143 85.996 72.2872 82.3031C67.1601 78.6106 53.3761 98.5233 53.3761 98.5233C53.3761 98.5233 61.7486 77.4507 56.7122 76.8531C51.6761 76.2555 46.4137 96.8349 46.4137 96.8349C46.4137 96.8349 48.2248 78.0231 43.9847 78.5599C39.7447 79.0966 41.8003 103.648 41.8003 103.648C41.8003 103.648 37.5375 91.1231 35.7145 95.1166C33.8914 99.1101 37.5433 107.677 37.5433 107.677C33.3435 107.712 32.135 109.417 31.7905 110.492Z" fill="#F0F0F0" fill-opacity="0.1"/>
<path d="M53.6248 22.8135L59.333 17.4945L59.7304 14.4057L62.9845 8.62591L63.7434 8.28931L60.5894 14.7877V16.8991L65.9584 15.5325L67.9514 11.1794L70.2255 9.12919L70.6248 9.7275L68.7027 11.6935L67.3311 16.2946L60.0105 18.6713L52.8764 28.6099L53.6248 22.8135Z" fill="#E6E6E6" fill-opacity="0.1"/>
<path d="M52.1287 18.3293L51.9757 20.4051L45.0205 14.5961L40.9417 14.0712L37.6916 12.1402L37.8917 11.9184L40.9676 13.5975L44.2468 13.5341L40.8895 9.89128L37.6916 7.87961L37.8917 7.73704L41.0821 9.51112L46.4587 14.2628L45.6451 9.63785L44.3448 7.73704L44.1946 7.19849L45.8082 9.25769L49.5471 7.73704L49.8823 7.95413L46.0544 9.61805L47.1092 14.7063L52.1287 18.3293Z" fill="#E6E6E6" fill-opacity="0.1"/>
<path d="M73.3283 8.83531C73.4194 7.99039 72.0575 7.48351 70.6244 7.48351C69.9051 7.48351 68.608 7.41943 67.4686 7.20127C67.582 6.89419 67.4621 6.53852 67.6187 6.00752C67.9597 4.85192 67.6853 4.10419 66.3667 3.20599C65.048 2.30779 63.7988 2.58391 61.0808 3.09043C58.3624 3.59731 58.6637 2.33011 56.1081 1.31635C53.5525 0.302594 44.9809 1.37612 43.4699 2.58355C42.5613 3.30967 38.8162 3.17503 37.8914 4.86451C36.9669 6.55399 30.835 6.55399 31.7375 7.90579C32.6397 9.25723 33.6113 9.25723 33.6113 11.6228C33.6113 13.988 35.6932 13.0588 37.8917 13.8019C40.0899 14.5446 39.6907 12.9004 41.0821 12.6992C42.4735 12.498 42.0778 12.3831 43.4699 11.6214C44.8621 10.8596 44.7148 11.7074 47.0725 12.6992C48.3728 13.2464 48.7879 12.4512 49.1216 11.6206C49.3883 12.1383 49.181 12.9332 49.7116 13.8015C50.1364 14.497 51.6578 14.5543 53.0859 14.3228C54.8632 17.21 55.3726 14.668 57.3609 14.7483C59.4583 14.8329 62.4808 12.9742 63.9385 12.6992C65.3957 12.4238 65.4652 12.0451 67.0633 13.119C68.6617 14.1928 75.0419 11.454 75.5776 10.2267C76.1133 8.99947 73.2376 9.67987 73.3283 8.83531Z" fill="#F0F0F0" fill-opacity="0.1"/>
<path d="M153.871 12.1887C153.871 10.8434 152.78 9.75258 151.435 9.75258C151.191 9.75258 150.957 9.78929 150.735 9.8559C150.771 9.61145 150.79 9.36198 150.79 9.10782C150.79 6.25878 148.48 3.94902 145.631 3.94902C145.306 3.94902 144.989 3.98034 144.681 4.03794C143.888 2.74014 142.462 1.87109 140.831 1.87109C138.36 1.87109 136.356 3.85578 136.32 6.31746C136.295 6.3171 136.27 6.3135 136.244 6.3135C133.949 6.3135 132.089 8.17398 132.089 10.4693C132.089 12.7647 133.949 14.6252 136.244 14.6252H151.506L151.503 14.6216C152.817 14.5849 153.871 13.511 153.871 12.1887Z" fill="#F5F5F5" fill-opacity="0.1"/>
<path d="M101.27 34.9414C101.27 33.596 100.18 32.5052 98.8343 32.5052C98.591 32.5052 98.3566 32.542 98.1348 32.6082C98.1705 32.3638 98.1896 32.1143 98.1896 31.8601C98.1896 29.0107 95.8798 26.701 93.0308 26.701C92.706 26.701 92.3885 26.7323 92.0804 26.7899C91.2873 25.4921 89.862 24.623 88.2302 24.623C85.7598 24.623 83.7561 26.6077 83.7194 29.0694C83.6942 29.069 83.6697 29.0655 83.6441 29.0655C81.3488 29.0655 79.4883 30.9259 79.4883 33.2213C79.4883 35.5166 81.3488 37.3771 83.6441 37.3771H98.906L98.9027 37.3735C100.216 37.3375 101.27 36.2636 101.27 34.9414Z" fill="#F5F5F5" fill-opacity="0.1"/>
<path d="M157.874 64.9676C157.874 63.6223 156.784 62.5315 155.438 62.5315C155.195 62.5315 154.96 62.5682 154.739 62.6345C154.774 62.39 154.793 62.1405 154.793 61.8864C154.793 59.0373 152.484 56.7276 149.635 56.7276C149.31 56.7276 148.992 56.7589 148.684 56.8165C147.892 55.5187 146.466 54.6497 144.834 54.6497C142.364 54.6497 140.36 56.6343 140.323 59.096C140.298 59.0957 140.274 59.0921 140.248 59.0921C137.953 59.0921 136.092 60.9525 136.092 63.2479C136.092 65.5433 137.953 67.4037 140.248 67.4037H155.51L155.507 67.4001C156.82 67.3638 157.874 66.2899 157.874 64.9676Z" fill="#F5F5F5" fill-opacity="0.1"/>
<path d="M36.0701 53.9753C36.0701 53.1621 35.411 52.5029 34.5977 52.5029C34.4505 52.5029 34.309 52.5252 34.1751 52.5652C34.1967 52.4176 34.2082 52.2667 34.2082 52.113C34.2082 50.3908 32.8121 48.9951 31.0902 48.9951C30.894 48.9951 30.7022 49.0141 30.516 49.0487C30.0369 48.2643 29.1754 47.739 28.1886 47.739C26.6957 47.739 25.4847 48.9385 25.4624 50.4264C25.4472 50.4261 25.4321 50.4243 25.417 50.4243C24.0296 50.4243 22.9053 51.5489 22.9053 52.936C22.9053 54.3234 24.0299 55.4477 25.417 55.4477H34.6413L34.6395 55.4455C35.4329 55.4236 36.0701 54.7749 36.0701 53.9753Z" fill="#F5F5F5" fill-opacity="0.1"/>
<path d="M114.163 7.74189C114.163 6.92865 113.504 6.2695 112.69 6.2695C112.544 6.2695 112.402 6.29181 112.268 6.33177C112.289 6.18417 112.301 6.03334 112.301 5.87962C112.301 4.15738 110.905 2.76165 109.183 2.76165C108.987 2.76165 108.795 2.78074 108.609 2.8153C108.13 2.03086 107.268 1.50562 106.282 1.50562C104.789 1.50562 103.578 2.70514 103.555 4.19302C103.54 4.19266 103.525 4.19086 103.51 4.19086C102.123 4.19086 100.998 5.3155 100.998 6.70258C100.998 8.09002 102.123 9.2143 103.51 9.2143H112.735L112.733 9.21213C113.526 9.18981 114.163 8.54109 114.163 7.74189Z" fill="#F5F5F5" fill-opacity="0.1"/>
<path d="M90.5 127.922C129.049 127.922 160.3 126.097 160.3 123.846C160.3 121.594 129.049 119.769 90.5 119.769C51.9505 119.769 20.7 121.594 20.7 123.846C20.7 126.097 51.9505 127.922 90.5 127.922Z" fill="#F5F5F5" fill-opacity="0.1"/>
<path d="M134.51 118.007C134.51 118.007 133.341 117.946 133.225 114.748C133.108 111.549 135.168 110.696 136.754 111.088C136.754 111.088 136.522 108.811 137.55 108.894C138.577 108.978 138.507 110.499 138.507 110.499C138.507 110.499 138.858 107.27 140.26 107.268C141.662 107.267 140.26 111.088 140.26 111.088C140.26 111.088 142.2 110.157 142.913 111.088C143.626 112.019 142.022 113.112 142.022 113.112C142.022 113.112 144.537 113.932 143.485 116.54C143.485 116.54 145.238 116.814 145.729 117.981C145.729 117.981 145.589 115.625 146.22 115.783C146.851 115.941 146.711 118.008 146.711 118.008C146.711 118.008 147.763 115.738 148.674 116.54C149.586 117.343 148.253 119.265 148.253 119.265C148.253 119.265 150.006 118.414 150.287 119.542C150.567 120.67 149.305 121.09 149.305 121.09C149.305 121.09 151.128 120.668 151.128 122.76C151.128 122.76 154.634 122.425 155.475 124.304H134.581L134.51 118.007Z" fill="#7A8699"/>
<path opacity="0.4" d="M134.51 118.007C134.51 118.007 133.341 117.946 133.225 114.748C133.108 111.549 135.168 110.696 136.754 111.088C136.754 111.088 136.522 108.811 137.55 108.894C138.577 108.978 138.507 110.499 138.507 110.499C138.507 110.499 138.858 107.27 140.26 107.268C141.662 107.267 140.26 111.088 140.26 111.088C140.26 111.088 142.2 110.157 142.913 111.088C143.626 112.019 142.022 113.112 142.022 113.112C142.022 113.112 144.537 113.932 143.485 116.54C143.485 116.54 145.238 116.814 145.729 117.981C145.729 117.981 145.589 115.625 146.22 115.783C146.851 115.941 146.711 118.008 146.711 118.008C146.711 118.008 147.763 115.738 148.674 116.54C149.586 117.343 148.253 119.265 148.253 119.265C148.253 119.265 150.006 118.414 150.287 119.542C150.567 120.67 149.305 121.09 149.305 121.09C149.305 121.09 151.128 120.668 151.128 122.76C151.128 122.76 154.634 122.425 155.475 124.304H134.581L134.51 118.007Z" fill="white"/>
<path d="M123.839 85.248C123.335 93.5126 120.611 124.122 120.611 124.122L140.379 124.304L134.808 69.0099L143.679 66.3056L145.541 60.9304L153.031 56.6914L156.693 51.0707L155.278 50.7273L151.235 55.9199L146.518 56.9438L148.538 52.1612H146.291L140.675 63.2409L134.912 64.4224L134.385 44.2682C128.598 46.9728 126.747 42.4692 126.747 42.4692C126.747 42.4692 125.25 74.0247 124.409 76.409C123.676 76.04 122.846 75.4056 122.043 74.6986C120.082 72.9713 118.406 70.9445 117.007 68.7366L116.632 68.1444H114.836L123.839 85.248Z" fill="#7A8699"/>
<g opacity="0.2">
<path d="M123.839 85.248C123.335 93.5126 120.611 124.122 120.611 124.122L140.379 124.304L134.808 69.0099L143.679 66.3056L145.541 60.9304L153.031 56.6914L156.693 51.0707L155.278 50.7273L151.235 55.9199L146.518 56.9438L148.538 52.1612H146.291L140.675 63.2409L134.912 64.4224L134.385 44.2682C128.598 46.9728 126.747 42.4692 126.747 42.4692C126.747 42.4692 125.25 74.0247 124.409 76.409C123.676 76.04 122.846 75.4056 122.043 74.6986C120.082 72.9713 118.406 70.9445 117.007 68.7366L116.632 68.1444H114.836L123.839 85.248Z" fill="black"/>
</g>
<path opacity="0.1" d="M144.677 59.4353L142.267 64.0804L134.733 65.987C134.733 65.987 134.757 64.8018 134.882 63.2819L134.912 64.422L140.675 63.2405L146.291 52.1604H148.537L146.517 56.943L151.235 55.9192L155.278 50.7266L155.475 50.7744L152.362 55.4868L144.677 59.4353Z" fill="black"/>
<path d="M133.829 96.9607L135.608 124.26L132.473 124.231V102.685L133.829 96.9607Z" fill="#7A8699"/>
<path d="M123.839 85.2479L114.836 68.1447H116.632L117.007 68.7369C118.406 70.9444 120.082 72.9716 122.043 74.6988C122.846 75.4062 123.677 76.0406 124.409 76.4092C125.25 74.0249 126.747 42.4695 126.747 42.4695C126.747 42.4695 127.559 44.4408 129.786 44.9909C129.871 55.1847 129.957 65.3781 130.042 75.5718C130.681 74.116 131.235 72.7304 131.288 71.2209C131.48 75.3976 131.733 79.8882 131.717 84.0092L128.254 96.7841L127.563 124.186L120.611 124.121C120.611 124.121 123.335 93.5121 123.839 85.2479Z" fill="#7A8699"/>
<path d="M101.59 31.838C98.7065 32.8665 96.7211 35.9182 96.8115 38.9786C96.9019 42.0393 98.9787 44.9132 101.804 46.0929C104.63 47.2726 108.052 46.7712 110.512 44.9467C110.638 47.8854 112.648 51.0843 115.452 51.9728C118.256 52.8613 121.563 51.8248 123.359 49.4949C130.916 54.2426 157.376 56.003 162.027 35.7836C162.987 31.6076 160.661 27.1846 157.252 24.5894C153.842 21.9942 149.509 20.9314 145.255 20.4109C141.22 13.986 132.272 10.4742 124.752 11.4832C117.232 12.4923 110.546 18.1828 108.348 25.4444C100.681 25.4646 101.479 32.3514 101.59 31.838Z" fill="#7A8699"/>
<g opacity="0.2">
<path d="M101.59 31.838C98.7065 32.8665 96.7211 35.9182 96.8115 38.9786C96.9019 42.0393 98.9787 44.9132 101.804 46.0929C104.63 47.2726 108.052 46.7712 110.512 44.9467C110.638 47.8854 112.648 51.0843 115.452 51.9728C118.256 52.8613 121.563 51.8248 123.359 49.4949C130.916 54.2426 157.376 56.003 162.027 35.7836C162.987 31.6076 160.661 27.1846 157.252 24.5894C153.842 21.9942 149.509 20.9314 145.255 20.4109C141.22 13.986 132.272 10.4742 124.752 11.4832C117.232 12.4923 110.546 18.1828 108.348 25.4444C100.681 25.4646 101.479 32.3514 101.59 31.838Z" fill="black"/>
</g>
<path d="M110.927 71.6145C111.783 72.8792 113.399 73.5819 114.908 73.345C116.416 73.1081 117.739 71.9435 118.166 70.4776C119.957 71.7376 122.724 71.4259 124.537 70.1983C126.351 68.9707 127.285 66.5734 126.78 64.4426C126.275 62.3117 124.366 60.5881 122.194 60.304C121.968 58.2203 120.925 56.47 119.146 55.3609C117.367 54.2517 115.075 54.0098 113.104 54.7229C110.769 54.2949 108.379 55.133 106.676 56.7857C105.463 57.9629 104.654 59.6337 104.796 61.3181C104.937 63.0026 106.166 64.6208 107.826 64.9405C107.273 66.2001 107.117 67.6142 107.653 68.881C108.19 70.1479 109.638 71.135 110.927 71.6145Z" fill="#7A8699"/>
<path opacity="0.2" d="M110.927 71.6145C111.783 72.8792 113.399 73.5819 114.908 73.345C116.416 73.1081 117.739 71.9435 118.166 70.4776C119.957 71.7376 122.724 71.4259 124.537 70.1983C126.351 68.9707 127.285 66.5734 126.78 64.4426C126.275 62.3117 124.366 60.5881 122.194 60.304C121.968 58.2203 120.925 56.47 119.146 55.3609C117.367 54.2517 115.075 54.0098 113.104 54.7229C110.769 54.2949 108.379 55.133 106.676 56.7857C105.463 57.9629 104.654 59.6337 104.796 61.3181C104.937 63.0026 106.166 64.6208 107.826 64.9405C107.273 66.2001 107.117 67.6142 107.653 68.881C108.19 70.1479 109.638 71.135 110.927 71.6145Z" fill="black"/>
<path d="M149.022 41.0442C147.578 40.5466 145.864 40.9553 144.799 42.0504C143.736 43.1455 143.377 44.871 143.916 46.2994C141.727 46.3671 139.702 48.278 138.988 50.3484C138.275 52.4191 138.967 54.8966 140.65 56.2977C142.333 57.6989 144.896 57.9303 146.803 56.8536C148.235 58.3839 150.12 59.1572 152.208 58.9761C154.297 58.7951 156.275 57.6121 157.423 55.8582C159.547 54.7987 160.954 52.6934 161.324 50.3495C161.588 48.6798 161.231 46.8582 160.106 45.5956C158.982 44.3335 157.027 43.7776 155.508 44.5189C155.194 43.1793 154.471 41.9546 153.281 41.2634C152.092 40.5733 150.341 40.6536 149.022 41.0442Z" fill="#7A8699"/>
<path opacity="0.1" d="M149.022 41.0442C147.578 40.5466 145.864 40.9553 144.799 42.0504C143.736 43.1455 143.377 44.871 143.916 46.2994C141.727 46.3671 139.702 48.278 138.988 50.3484C138.275 52.4191 138.967 54.8966 140.65 56.2977C142.333 57.6989 144.896 57.9303 146.803 56.8536C148.235 58.3839 150.12 59.1572 152.208 58.9761C154.297 58.7951 156.275 57.6121 157.423 55.8582C159.547 54.7987 160.954 52.6934 161.324 50.3495C161.588 48.6798 161.231 46.8582 160.106 45.5956C158.982 44.3335 157.027 43.7776 155.508 44.5189C155.194 43.1793 154.471 41.9546 153.281 41.2634C152.092 40.5733 150.341 40.6536 149.022 41.0442Z" fill="black"/>
<path d="M135.661 123.504C135.661 123.504 128.402 118.799 129.778 118.005C131.155 117.211 135.997 121.91 135.997 121.91C135.997 121.91 130.648 114.082 131.97 112.513C133.291 110.944 136.852 118.892 136.852 118.892C136.852 118.892 134.431 109.805 136.14 108.809C137.849 107.812 138.469 117.915 138.469 117.915C138.469 117.915 139.136 106.971 142.267 107.106C145.397 107.242 140.839 117.915 140.839 117.915C140.839 117.915 145.255 111.582 146.821 113.38C148.388 115.177 141.836 120.227 141.836 120.227C141.836 120.227 146.735 117.924 147.063 119.633C147.39 121.342 141.658 123.157 141.658 123.157C141.658 123.157 143.5 123.686 143.926 124.303L134.123 124.304C134.123 124.304 133.968 123.834 135.661 123.504Z" fill="#7A8699"/>
<path opacity="0.6" d="M135.661 123.504C135.661 123.504 128.402 118.799 129.778 118.005C131.155 117.211 135.997 121.91 135.997 121.91C135.997 121.91 130.648 114.082 131.97 112.513C133.291 110.944 136.852 118.892 136.852 118.892C136.852 118.892 134.431 109.805 136.14 108.809C137.849 107.812 138.469 117.915 138.469 117.915C138.469 117.915 139.136 106.971 142.267 107.106C145.397 107.242 140.839 117.915 140.839 117.915C140.839 117.915 145.255 111.582 146.821 113.38C148.388 115.177 141.836 120.227 141.836 120.227C141.836 120.227 146.735 117.924 147.063 119.633C147.39 121.342 141.658 123.157 141.658 123.157C141.658 123.157 143.5 123.686 143.926 124.303L134.123 124.304C134.123 124.304 133.968 123.834 135.661 123.504Z" fill="white"/>
<path d="M32.4205 91.4154C32.4205 91.4154 34.5844 88.9444 37.0494 90.685C39.5143 92.4256 41.9572 105.232 41.9572 105.232" stroke="#407BFF" stroke-miterlimit="10"/>
<path d="M41.0576 106.29C41.0576 106.29 40.1839 97.4873 37.3035 94.7463C34.4232 92.0052 32.6116 96.8555 32.6116 96.8555" stroke="#407BFF" stroke-miterlimit="10"/>
<path d="M39.1996 92.2129C39.1996 92.2129 40.8257 91.886 41.1411 93.2821C41.4568 94.6782 38.4335 99.1548 38.4335 99.1548C38.4335 99.1548 35.6885 98.6256 35.691 95.0177C35.6932 91.4098 38.656 91.4098 39.1996 92.2129Z" fill="#407BFF"/>
<path opacity="0.2" d="M39.1996 92.2129C39.1996 92.2129 40.8257 91.886 41.1411 93.2821C41.4568 94.6782 38.4335 99.1548 38.4335 99.1548C38.4335 99.1548 35.6885 98.6256 35.691 95.0177C35.6932 91.4098 38.656 91.4098 39.1996 92.2129Z" fill="white"/>
<path d="M34.9977 94.9349C34.9977 94.9349 35.655 94.2081 34.7954 94.0392C33.9357 93.8708 29.9609 94.5843 30.5427 98.5414C30.5427 98.5414 35.3094 98.5803 35.6468 96.9851C35.9841 95.3896 34.9977 94.9349 34.9977 94.9349Z" fill="#407BFF"/>
<path opacity="0.2" d="M34.9977 94.9349C34.9977 94.9349 35.655 94.2081 34.7954 94.0392C33.9357 93.8708 29.9609 94.5843 30.5427 98.5414C30.5427 98.5414 35.3094 98.5803 35.6468 96.9851C35.9841 95.3896 34.9977 94.9349 34.9977 94.9349Z" fill="white"/>
<path d="M41.1177 88.15C41.1177 88.15 40.9348 87.4213 41.5774 87.6168C42.22 87.8123 44.6529 89.7271 42.8335 92.1957C42.8335 92.1957 39.5935 90.5047 39.9398 89.3034C40.2865 88.1021 41.1177 88.15 41.1177 88.15Z" fill="#407BFF"/>
<path opacity="0.2" d="M41.1177 88.15C41.1177 88.15 40.9348 87.4213 41.5774 87.6168C42.22 87.8123 44.6529 89.7271 42.8335 92.1957C42.8335 92.1957 39.5935 90.5047 39.9398 89.3034C40.2865 88.1021 41.1177 88.15 41.1177 88.15Z" fill="white"/>
<path d="M100.83 107.806C100.83 107.806 104.92 92.9955 112.451 89.0017" stroke="#407BFF" stroke-miterlimit="10"/>
<path d="M100.91 106.11C100.91 106.11 108.217 90.2674 105.68 85.1565" stroke="#407BFF" stroke-miterlimit="10"/>
<path d="M100.62 107.266C100.62 107.266 106.56 87.4225 110.229 85.0825" stroke="#407BFF" stroke-miterlimit="10"/>
<path d="M106.817 85.8511C106.817 85.8511 107.89 86.1362 108.049 85.476C108.207 84.8157 104.901 81.6924 101.581 83.4178C101.581 83.4178 102.086 86.5351 104.218 87.3912C106.349 88.2476 106.817 85.8511 106.817 85.8511Z" fill="#407BFF"/>
<path opacity="0.2" d="M106.817 85.8511C106.817 85.8511 107.89 86.1362 108.049 85.476C108.207 84.8157 104.901 81.6924 101.581 83.4178C101.581 83.4178 102.086 86.5351 104.218 87.3912C106.349 88.2476 106.817 85.8511 106.817 85.8511Z" fill="white"/>
<path d="M109.324 85.063C109.324 85.063 108.217 85.1562 108.176 84.4787C108.136 83.8012 111.937 81.3028 114.904 83.5816C114.904 83.5816 113.862 86.5627 111.614 87.0332C109.366 87.5041 109.324 85.063 109.324 85.063Z" fill="#407BFF"/>
<path opacity="0.2" d="M109.324 85.063C109.324 85.063 108.217 85.1562 108.176 84.4787C108.136 83.8012 111.937 81.3028 114.904 83.5816C114.904 83.5816 113.862 86.5627 111.614 87.0332C109.366 87.5041 109.324 85.063 109.324 85.063Z" fill="white"/>
<path d="M112.843 88.0563C112.843 88.0563 112.352 87.2085 113.228 87.2226C114.104 87.237 117.843 88.763 116.449 92.5121C116.449 92.5121 111.778 91.557 111.781 89.9262C111.784 88.2954 112.843 88.0563 112.843 88.0563Z" fill="#407BFF"/>
<path opacity="0.2" d="M112.843 88.0563C112.843 88.0563 112.352 87.2085 113.228 87.2226C114.104 87.237 117.843 88.763 116.449 92.5121C116.449 92.5121 111.778 91.557 111.781 89.9262C111.784 88.2954 112.843 88.0563 112.843 88.0563Z" fill="white"/>
<path d="M109.368 90.1736C109.368 90.1736 109.574 89.4507 110.033 89.941C110.492 90.4314 111.643 93.3052 108.834 94.5354C108.834 94.5354 106.872 91.4523 107.772 90.5847C108.672 89.7171 109.368 90.1736 109.368 90.1736Z" fill="#407BFF"/>
<path opacity="0.2" d="M109.368 90.1736C109.368 90.1736 109.574 89.4507 110.033 89.941C110.492 90.4314 111.643 93.3052 108.834 94.5354C108.834 94.5354 106.872 91.4523 107.772 90.5847C108.672 89.7171 109.368 90.1736 109.368 90.1736Z" fill="white"/>
<path d="M33.5944 90.4165C33.5944 90.4165 33.9515 89.7555 33.2808 89.7865C32.6102 89.8174 29.7795 91.0724 30.9333 93.9135C30.9333 93.9135 34.4904 93.0751 34.4512 91.8251C34.4123 90.5756 33.5944 90.4165 33.5944 90.4165Z" fill="#407BFF"/>
<path opacity="0.2" d="M33.5944 90.4165C33.5944 90.4165 33.9515 89.7555 33.2808 89.7865C32.6102 89.8174 29.7795 91.0724 30.9333 93.9135C30.9333 93.9135 34.4904 93.0751 34.4512 91.8251C34.4123 90.5756 33.5944 90.4165 33.5944 90.4165Z" fill="white"/>
<path d="M96.8648 114.951C96.8648 114.951 94.4906 114.858 94.2537 110.066C94.0168 105.274 98.2015 103.995 101.422 104.583C101.422 104.583 100.952 101.171 103.038 101.296C105.125 101.421 104.982 103.7 104.982 103.7C104.982 103.7 105.694 98.8618 108.543 98.8596C111.391 98.8575 108.543 104.583 108.543 104.583C108.543 104.583 112.483 103.187 113.931 104.583C115.379 105.979 112.121 107.615 112.121 107.615C112.121 107.615 117.23 108.843 115.094 112.752C115.094 112.752 118.655 113.162 119.651 114.911C119.651 114.911 119.367 111.381 120.648 111.618C121.93 111.855 121.645 114.951 121.645 114.951C121.645 114.951 123.781 111.549 125.633 112.752C127.484 113.954 124.778 116.834 124.778 116.834C124.778 116.834 128.339 115.559 128.908 117.249C129.478 118.939 126.914 119.568 126.914 119.568C126.914 119.568 130.617 118.937 130.617 122.071C130.617 122.071 137.738 121.57 139.447 124.384H97.0066L96.8648 114.951Z" fill="#407BFF"/>
<path opacity="0.4" d="M96.8648 114.951C96.8648 114.951 94.4906 114.858 94.2537 110.066C94.0168 105.274 98.2015 103.995 101.422 104.583C101.422 104.583 100.952 101.171 103.038 101.296C105.125 101.421 104.982 103.7 104.982 103.7C104.982 103.7 105.694 98.8618 108.543 98.8596C111.391 98.8575 108.543 104.583 108.543 104.583C108.543 104.583 112.483 103.187 113.931 104.583C115.379 105.979 112.121 107.615 112.121 107.615C112.121 107.615 117.23 108.843 115.094 112.752C115.094 112.752 118.655 113.162 119.651 114.911C119.651 114.911 119.367 111.381 120.648 111.618C121.93 111.855 121.645 114.951 121.645 114.951C121.645 114.951 123.781 111.549 125.633 112.752C127.484 113.954 124.778 116.834 124.778 116.834C124.778 116.834 128.339 115.559 128.908 117.249C129.478 118.939 126.914 119.568 126.914 119.568C126.914 119.568 130.617 118.937 130.617 122.071C130.617 122.071 137.738 121.57 139.447 124.384H97.0066L96.8648 114.951Z" fill="white"/>
<path d="M47.3219 114.951C47.3219 114.951 49.0733 114.858 49.2479 110.066C49.4225 105.274 46.3359 103.995 43.9599 104.583C43.9599 104.583 44.3066 101.171 42.7672 101.296C41.2282 101.421 41.3333 103.7 41.3333 103.7C41.3333 103.7 40.8081 98.8618 38.7068 98.8596C36.6055 98.8575 38.7068 104.583 38.7068 104.583C38.7068 104.583 35.7998 103.187 34.732 104.583C33.6643 105.979 36.0673 107.615 36.0673 107.615C36.0673 107.615 32.2984 108.843 33.8741 112.752C33.8741 112.752 31.2476 113.162 30.5125 114.911C30.5125 114.911 30.7227 111.381 29.777 111.618C28.8313 111.855 29.0415 114.951 29.0415 114.951C29.0415 114.951 27.4658 111.549 26.0999 112.752C24.7341 113.954 26.7303 116.834 26.7303 116.834C26.7303 116.834 24.1037 115.559 23.6836 117.249C23.2635 118.939 25.1546 119.568 25.1546 119.568C25.1546 119.568 22.4233 118.937 22.4233 122.071C22.4233 122.071 17.1705 121.57 15.9098 124.384H47.2168L47.3219 114.951Z" fill="#407BFF"/>
<path opacity="0.4" d="M47.3219 114.951C47.3219 114.951 49.0733 114.858 49.2479 110.066C49.4225 105.274 46.3359 103.995 43.9599 104.583C43.9599 104.583 44.3066 101.171 42.7672 101.296C41.2282 101.421 41.3333 103.7 41.3333 103.7C41.3333 103.7 40.8081 98.8618 38.7068 98.8596C36.6055 98.8575 38.7068 104.583 38.7068 104.583C38.7068 104.583 35.7998 103.187 34.732 104.583C33.6643 105.979 36.0673 107.615 36.0673 107.615C36.0673 107.615 32.2984 108.843 33.8741 112.752C33.8741 112.752 31.2476 113.162 30.5125 114.911C30.5125 114.911 30.7227 111.381 29.777 111.618C28.8313 111.855 29.0415 114.951 29.0415 114.951C29.0415 114.951 27.4658 111.549 26.0999 112.752C24.7341 113.954 26.7303 116.834 26.7303 116.834C26.7303 116.834 24.1037 115.559 23.6836 117.249C23.2635 118.939 25.1546 119.568 25.1546 119.568C25.1546 119.568 22.4233 118.937 22.4233 122.071C22.4233 122.071 17.1705 121.57 15.9098 124.384H47.2168L47.3219 114.951Z" fill="white"/>
<path d="M31.6893 123.584C31.6893 123.584 38.948 118.88 37.5713 118.085C36.1947 117.291 31.3523 121.99 31.3523 121.99C31.3523 121.99 36.7016 114.163 35.38 112.594C34.0585 111.025 30.4981 118.972 30.4981 118.972C30.4981 118.972 32.9191 109.886 31.2101 108.889C29.5012 107.892 28.8817 117.996 28.8817 117.996C28.8817 117.996 28.2139 107.051 25.0837 107.187C21.9535 107.323 26.5107 117.996 26.5107 117.996C26.5107 117.996 22.0957 111.662 20.5293 113.46C18.9626 115.258 25.5139 120.307 25.5139 120.307C25.5139 120.307 20.615 118.004 20.2874 119.713C19.9598 121.422 25.6921 123.238 25.6921 123.238C25.6921 123.238 23.8499 123.766 23.4237 124.384L33.2272 124.384C33.2265 124.384 33.382 123.914 31.6893 123.584Z" fill="#407BFF"/>
<path opacity="0.6" d="M31.6893 123.584C31.6893 123.584 38.948 118.88 37.5713 118.085C36.1947 117.291 31.3523 121.99 31.3523 121.99C31.3523 121.99 36.7016 114.163 35.38 112.594C34.0585 111.025 30.4981 118.972 30.4981 118.972C30.4981 118.972 32.9191 109.886 31.2101 108.889C29.5012 107.892 28.8817 117.996 28.8817 117.996C28.8817 117.996 28.2139 107.051 25.0837 107.187C21.9535 107.323 26.5107 117.996 26.5107 117.996C26.5107 117.996 22.0957 111.662 20.5293 113.46C18.9626 115.258 25.5139 120.307 25.5139 120.307C25.5139 120.307 20.615 118.004 20.2874 119.713C19.9598 121.422 25.6921 123.238 25.6921 123.238C25.6921 123.238 23.8499 123.766 23.4237 124.384L33.2272 124.384C33.2265 124.384 33.382 123.914 31.6893 123.584Z" fill="white"/>
<path d="M35.321 124.384C35.321 124.384 43.6762 93.6499 45.1951 92.5105C46.7143 91.3711 55.3798 88.1682 55.3798 88.1682C55.3798 88.1682 76.4575 91.6872 79.6255 91.3394C82.7935 90.9917 92.9746 89.029 94.4351 91.3394C95.8957 93.6499 101.66 107.512 101.66 107.512L109.758 110.93L114.885 124.384H35.321Z" fill="#407BFF"/>
<path opacity="0.6" d="M114.886 124.384H35.3225C35.3225 124.384 43.6349 93.7948 45.1829 92.5168C45.1901 92.5132 45.1937 92.5096 45.1937 92.5096C45.5069 92.2756 46.1189 91.9552 46.8965 91.5916C49.9061 90.1912 55.3781 88.168 55.3781 88.168C55.3781 88.168 76.4561 91.6888 79.6241 91.3396C82.7921 90.9904 92.9729 89.0284 94.4345 91.3396C94.7441 91.8328 95.2517 92.848 95.8565 94.144C98.0885 98.9284 101.66 107.511 101.66 107.511L109.756 110.931L114.886 124.384Z" fill="white"/>
<path opacity="0.1" d="M95.8568 94.144L92.714 97.2544L84.524 95.3284L75.2576 97.2544L75.8516 100.836L72.4784 104.854L73.6772 100.836L71.0492 96.4192C71.0492 96.4192 60.386 97.0672 57.6032 96.4192C55.8572 96.0124 50.576 93.442 46.8968 91.5916C49.9064 90.1912 55.3784 88.168 55.3784 88.168C55.3784 88.168 76.4564 91.6888 79.6244 91.3396C82.7924 90.9904 92.9732 89.0284 94.4348 91.3396C94.7444 91.8328 95.252 92.848 95.8568 94.144Z" fill="black"/>
<path opacity="0.1" d="M114.886 124.384H35.3228C35.3228 124.384 43.6352 93.7947 45.1832 92.5167C45.1904 92.5131 45.194 92.5095 45.194 92.5095L40.0676 116.356L42.6308 120.305L48.9308 115.524L53.762 118.221L60.4652 116.867L61.1312 113.624L70.628 107.378L64.6664 112.9L66.7652 119.2L75.8912 120.773H85.9748L90.1436 117.994L88.754 112.342L86.6552 109.066L97.2932 109.041L92.7644 111.845L94.4348 116.824L99.5576 119.2L105.512 115.524L107.938 122.537L114.886 124.384Z" fill="black"/>
<path d="M104.251 124.384H117.439C117.439 124.384 114.813 120.366 113.694 120.875C112.237 121.539 111.157 117.899 109.544 118.761C108.976 119.065 109.254 120.039 108.896 120.431C108.305 121.078 107.553 120.953 106.839 121.308C105.44 122.005 104.941 122.929 104.251 124.384Z" fill="#407BFF"/>
<path opacity="0.2" d="M104.251 124.384H117.439C117.439 124.384 114.813 120.366 113.694 120.875C112.237 121.539 111.157 117.899 109.544 118.761C108.976 119.065 109.254 120.039 108.896 120.431C108.305 121.078 107.553 120.953 106.839 121.308C105.44 122.005 104.941 122.929 104.251 124.384Z" fill="black"/>
<path d="M115.998 123.263C115.998 123.263 115.132 118.24 115.73 117.504C116.327 116.768 116.432 120.245 116.432 120.245C116.432 120.245 118.441 112.987 119.727 112.949C121.012 112.91 118.2 119.245 118.2 119.245C118.2 119.245 123.694 110.266 125.292 111.102C126.889 111.938 119.541 119.898 119.541 119.898C119.541 119.898 123.56 116.44 124.445 117.416C125.331 118.392 119.984 121.379 119.984 121.379C119.984 121.379 122.341 120.849 122.339 121.634C122.336 122.418 118.358 123.709 115.998 123.263Z" fill="#407BFF"/>
<path opacity="0.2" d="M115.998 123.263C115.998 123.263 115.132 118.24 115.73 117.504C116.327 116.768 116.432 120.245 116.432 120.245C116.432 120.245 118.441 112.987 119.727 112.949C121.012 112.91 118.2 119.245 118.2 119.245C118.2 119.245 123.694 110.266 125.292 111.102C126.889 111.938 119.541 119.898 119.541 119.898C119.541 119.898 123.56 116.44 124.445 117.416C125.331 118.392 119.984 121.379 119.984 121.379C119.984 121.379 122.341 120.849 122.339 121.634C122.336 122.418 118.358 123.709 115.998 123.263Z" fill="white"/>
<path d="M115.206 122.546C115.206 122.546 111.077 121.797 110.677 121.127C110.276 120.457 112.994 121.358 112.994 121.358C112.994 121.358 107.948 117.754 108.282 116.75C108.616 115.744 112.721 119.708 112.721 119.708C112.721 119.708 107.328 112.923 108.426 111.924C109.523 110.925 113.604 118.856 113.604 118.856C113.604 118.856 112.065 114.771 113.069 114.362C114.075 113.953 114.874 118.931 114.874 118.931C114.874 118.931 115.13 116.959 115.736 117.182C116.342 117.405 116.218 120.846 115.206 122.546Z" fill="#407BFF"/>
<path opacity="0.2" d="M115.206 122.546C115.206 122.546 111.077 121.797 110.677 121.127C110.276 120.457 112.994 121.358 112.994 121.358C112.994 121.358 107.948 117.754 108.282 116.75C108.616 115.744 112.721 119.708 112.721 119.708C112.721 119.708 107.328 112.923 108.426 111.924C109.523 110.925 113.604 118.856 113.604 118.856C113.604 118.856 112.065 114.771 113.069 114.362C114.075 113.953 114.874 118.931 114.874 118.931C114.874 118.931 115.13 116.959 115.736 117.182C116.342 117.405 116.218 120.846 115.206 122.546Z" fill="white"/>
<path d="M114.897 121.997C114.897 121.997 110.909 118.002 110.98 116.954C111.051 115.907 113.364 118.987 113.364 118.987C113.364 118.987 110.553 111.136 111.692 110.281C112.832 109.427 114.327 116.954 114.327 116.954C114.327 116.954 113.573 105.322 115.552 105.06C117.532 104.798 115.957 116.69 115.957 116.69C115.957 116.69 117.389 110.997 118.813 111.315C120.237 111.634 117.302 117.748 117.302 117.748C117.302 117.748 119.098 115.764 119.596 116.476C120.095 117.189 117.318 120.895 114.897 121.997Z" fill="#407BFF"/>
<path opacity="0.1" d="M114.897 121.997C114.897 121.997 110.909 118.002 110.98 116.954C111.051 115.907 113.364 118.987 113.364 118.987C113.364 118.987 110.553 111.136 111.692 110.281C112.832 109.427 114.327 116.954 114.327 116.954C114.327 116.954 113.573 105.322 115.552 105.06C117.532 104.798 115.957 116.69 115.957 116.69C115.957 116.69 117.389 110.997 118.813 111.315C120.237 111.634 117.302 117.748 117.302 117.748C117.302 117.748 119.098 115.764 119.596 116.476C120.095 117.189 117.318 120.895 114.897 121.997Z" fill="white"/>
<path d="M110.062 124.384H120.572C120.572 124.384 118.479 121.182 117.587 121.588C116.426 122.117 115.565 119.216 114.28 119.903C113.827 120.145 114.049 120.921 113.764 121.234C113.293 121.75 112.693 121.65 112.124 121.933C111.009 122.488 110.612 123.225 110.062 124.384Z" fill="#407BFF"/>
<path d="M44.434 124.384H31.2458C31.2458 124.384 33.872 120.366 34.9912 120.876C36.4481 121.539 37.5278 117.899 39.1406 118.761C39.7087 119.065 39.4307 120.039 39.7889 120.431C40.3801 121.078 41.1317 120.953 41.8463 121.309C43.2453 122.006 43.7436 122.929 44.434 124.384Z" fill="#407BFF"/>
<path opacity="0.2" d="M44.434 124.384H31.2458C31.2458 124.384 33.872 120.366 34.9912 120.876C36.4481 121.539 37.5278 117.899 39.1406 118.761C39.7087 119.065 39.4307 120.039 39.7889 120.431C40.3801 121.078 41.1317 120.953 41.8463 121.309C43.2453 122.006 43.7436 122.929 44.434 124.384Z" fill="black"/>
<path d="M32.6872 123.264C32.6872 123.264 33.553 118.24 32.9554 117.504C32.3578 116.768 32.253 120.245 32.253 120.245C32.253 120.245 30.2442 112.987 28.9587 112.949C27.6731 112.911 30.4851 119.245 30.4851 119.245C30.4851 119.245 24.9908 110.266 23.3934 111.102C21.7965 111.939 29.1444 119.898 29.1444 119.898C29.1444 119.898 25.1254 116.44 24.2402 117.416C23.3549 118.393 28.7016 121.379 28.7016 121.379C28.7016 121.379 26.344 120.849 26.3465 121.634C26.3487 122.418 30.3267 123.709 32.6872 123.264Z" fill="#407BFF"/>
<path opacity="0.2" d="M32.6872 123.264C32.6872 123.264 33.553 118.24 32.9554 117.504C32.3578 116.768 32.253 120.245 32.253 120.245C32.253 120.245 30.2442 112.987 28.9587 112.949C27.6731 112.911 30.4851 119.245 30.4851 119.245C30.4851 119.245 24.9908 110.266 23.3934 111.102C21.7965 111.939 29.1444 119.898 29.1444 119.898C29.1444 119.898 25.1254 116.44 24.2402 117.416C23.3549 118.393 28.7016 121.379 28.7016 121.379C28.7016 121.379 26.344 120.849 26.3465 121.634C26.3487 122.418 30.3267 123.709 32.6872 123.264Z" fill="white"/>
<path d="M36.7358 123.5C36.7358 123.5 39.8786 120.719 39.8739 119.938C39.8692 119.158 38.0112 121.337 38.0112 121.337C38.0112 121.337 40.4585 115.64 39.6521 114.954C38.8461 114.267 37.3902 119.784 37.3902 119.784C37.3902 119.784 38.4846 111.187 37.0281 110.902C35.5715 110.617 36.1932 119.513 36.1932 119.513C36.1932 119.513 35.3922 115.222 34.3209 115.394C33.2495 115.565 35.1464 120.237 35.1464 120.237C35.1464 120.237 33.9047 118.682 33.5022 119.187C33.0994 119.693 34.9898 122.57 36.7358 123.5Z" fill="#407BFF"/>
<path opacity="0.2" d="M36.7358 123.5C36.7358 123.5 39.8786 120.719 39.8739 119.938C39.8692 119.158 38.0112 121.337 38.0112 121.337C38.0112 121.337 40.4585 115.64 39.6521 114.954C38.8461 114.267 37.3902 119.784 37.3902 119.784C37.3902 119.784 38.4846 111.187 37.0281 110.902C35.5715 110.617 36.1932 119.513 36.1932 119.513C36.1932 119.513 35.3922 115.222 34.3209 115.394C33.2495 115.565 35.1464 120.237 35.1464 120.237C35.1464 120.237 33.9047 118.682 33.5022 119.187C33.0994 119.693 34.9898 122.57 36.7358 123.5Z" fill="white"/>
<path d="M38.6229 124.384H28.1134C28.1134 124.384 30.2061 121.182 31.0982 121.588C32.2592 122.117 33.1196 119.216 34.4048 119.904C34.8576 120.145 34.6359 120.922 34.9214 121.234C35.3922 121.75 35.9916 121.65 36.5608 121.934C37.6757 122.489 38.0728 123.225 38.6229 124.384Z" fill="#407BFF"/>
<path d="M63.4521 55.3748C63.4521 55.3748 51.3503 53.4866 49.0388 54.477C46.7269 55.4673 45.9672 59.0288 45.9672 59.0288C45.9672 59.0288 45.5558 59.7513 46.8061 59.8406C46.8061 59.8406 41.6836 72.603 43.3033 75.0488C44.9229 77.4946 61.2385 78.471 63.4521 77.275C65.6657 76.0788 70.9833 56.2726 63.4521 55.3748Z" fill="#263238"/>
<path d="M70.5801 67.5354C70.5801 67.5354 72.1817 71.2553 72.5432 71.7719C72.905 72.2885 80.8768 75.9565 80.8768 75.9565C80.8768 75.9565 81.8427 75.8017 82.8244 75.9565C83.8061 76.1117 85.1623 76.525 85.285 76.6798C85.4078 76.8349 83.8025 79.1598 83.8025 79.1598C83.8025 79.1598 80.6169 79.3578 80.2223 78.0964C80.2223 78.0964 72.2332 75.13 71.3033 74.3549C70.3735 73.5798 67.7901 68.9819 67.7901 68.9819L70.5801 67.5354Z" fill="#E4897B"/>
<path d="M68.2887 59.3936C69.7859 60.2856 72.131 69.8987 72.6343 71.0381C73.1379 72.1775 79.2568 74.9546 79.2568 74.9546L76.541 77.553C76.541 77.553 70.3515 74.812 69.5703 74.0286C68.7891 73.2453 65.7028 65.2698 65.7028 65.2698L68.2887 59.3936Z" fill="#407BFF"/>
<path d="M67.7894 81.3582C67.7894 81.3582 93.0329 77.7333 94.3656 83.2723C95.7747 89.1291 75.5056 93.079 63.3912 93.4923C51.2769 93.9052 47.7917 91.2441 49.7379 76.2749L66.0804 76.2354L67.7894 81.3582Z" fill="#263238"/>
<path opacity="0.2" d="M67.7894 81.3582C67.7894 81.3582 93.0329 77.7333 94.3656 83.2723C95.7747 89.1291 75.5056 93.079 63.3912 93.4923C51.2769 93.9052 47.7917 91.2441 49.7379 76.2749L66.0804 76.2354L67.7894 81.3582Z" fill="black"/>
<path d="M90.5885 89.943C90.5608 89.9603 90.5252 89.9585 90.4996 89.9383C90.4759 89.9214 90.4669 89.8901 90.4784 89.8634C90.518 89.7288 90.919 88.5639 91.3247 88.4415C91.4122 88.4202 91.5044 88.4472 91.5667 88.5124C91.6815 88.607 91.7366 88.7564 91.7107 88.903C91.6451 89.1208 91.5123 89.3127 91.3309 89.4502C91.1005 89.6392 90.8517 89.8044 90.5885 89.943ZM90.6926 89.7194C91.0699 89.5535 91.3759 89.2586 91.5559 88.8878C91.5767 88.7867 91.5368 88.6823 91.4533 88.6211C91.4306 88.593 91.3924 88.5819 91.3582 88.5934C91.3237 88.6053 91.292 88.6236 91.265 88.6477C91.0105 88.9674 90.8168 89.3306 90.6926 89.7194Z" fill="#407BFF"/>
<path d="M90.5666 89.9582C90.5392 89.9683 90.509 89.9593 90.4913 89.9362C90.4535 89.9035 89.8941 89.1979 89.9862 88.7212C90.0086 88.6017 90.078 88.4966 90.1792 88.4293C90.2667 88.345 90.4006 88.3324 90.5021 88.399C90.7948 88.6053 90.7592 89.55 90.6155 89.9082L90.6051 89.9438C90.5943 89.9521 90.5806 89.9571 90.5666 89.9582ZM90.2487 88.5743C90.1983 88.6183 90.1641 88.678 90.1519 88.7439C90.0939 89.0452 90.3743 89.4974 90.5262 89.7141C90.6184 89.3109 90.5885 88.6481 90.4172 88.529C90.3985 88.5193 90.3635 88.4919 90.2768 88.5524L90.2487 88.5743Z" fill="#407BFF"/>
<path d="M81.8452 92.9085L87.1358 92.9121L89.6763 92.9142L89.9791 90.2405L87.6301 89.9266L81.892 89.1594L81.8452 92.9085Z" fill="#E4897B"/>
<path d="M89.4059 89.9047L88.7619 92.956C88.7259 93.1263 88.8378 93.2923 89.0092 93.3232L90.5302 93.5965C90.5302 93.5965 92.5501 94.1102 93.1171 93.748C94.7746 92.6889 96.3715 85.9756 95.6965 85.4785C95.4496 85.2963 95.0212 85.5721 94.8073 85.791C94.128 86.4865 92.6772 88.4236 92.1034 88.9968C91.4327 89.6671 90.2422 89.6876 89.7198 89.6602C89.569 89.6527 89.4372 89.7571 89.4059 89.9047Z" fill="#263238"/>
<path opacity="0.2" d="M81.8452 92.9085L87.1358 92.9121L87.6301 89.9266L81.892 89.1594L81.8452 92.9085Z" fill="black"/>
<path d="M61.863 81.1765V81.844C61.863 82.2943 62.2378 82.7076 62.691 82.7076H87.3104C87.7636 82.7076 88.2006 82.2943 88.2006 81.844V81.1765H61.863Z" fill="#263238"/>
<path opacity="0.2" d="M61.863 81.1765V81.844C61.863 82.2943 62.2378 82.7076 62.691 82.7076H87.3104C87.7636 82.7076 88.2006 82.2943 88.2006 81.844V81.1765H61.863Z" fill="white"/>
<path opacity="0.2" d="M71.0506 81.1765V81.844C71.0506 82.2943 71.4311 82.7076 71.8815 82.7076H87.3104C87.7636 82.7076 88.2006 82.2943 88.2006 81.844V81.1765H71.0506Z" fill="white"/>
<path d="M71.8815 82.0952H88.1463C88.6456 82.0952 89.1751 81.7031 89.3285 81.2225L93.0585 69.5222C93.2115 69.0412 92.9328 68.6204 92.4339 68.6204H76.1691C75.6697 68.6204 75.1402 69.0416 74.9868 69.5222L71.2565 81.2078C71.1035 81.6884 71.3825 82.0952 71.8815 82.0952Z" fill="#263238"/>
<path opacity="0.2" d="M71.8815 82.0952H88.1463C88.6456 82.0952 89.1751 81.7031 89.3285 81.2225L93.0585 69.5222C93.2115 69.0412 92.9328 68.6204 92.4339 68.6204H76.1691C75.6697 68.6204 75.1402 69.0416 74.9868 69.5222L71.2565 81.2078C71.1035 81.6884 71.3825 82.0952 71.8815 82.0952Z" fill="white"/>
<path opacity="0.2" d="M72.4942 82.0952H88.1466C88.6459 82.0952 89.1755 81.7031 89.3288 81.2225L93.0588 69.5222C93.2118 69.0412 92.9332 68.6204 92.4342 68.6204H76.7818C76.2824 68.6204 75.7529 69.0416 75.5995 69.5222L71.8692 81.2078C71.7162 81.6884 71.9948 82.0952 72.4942 82.0952Z" fill="white"/>
<path opacity="0.2" d="M82.0112 75.8935C81.8103 76.6729 82.1984 77.3051 82.8773 77.3051C83.5566 77.3051 84.2698 76.6732 84.4703 75.8935C84.6712 75.1141 84.2831 74.4819 83.6042 74.4819C82.9252 74.4823 82.212 75.1141 82.0112 75.8935Z" fill="white"/>
<path opacity="0.2" d="M89.4059 89.9047L88.7619 92.956C88.7259 93.1263 88.8378 93.2923 89.0092 93.3232L90.5302 93.5965C90.5302 93.5965 92.5501 94.1102 93.1171 93.748C94.7746 92.6889 96.3715 85.9756 95.6965 85.4785C95.4496 85.2963 95.0212 85.5721 94.8073 85.791C94.128 86.4865 92.6772 88.4236 92.1034 88.9968C91.4327 89.6671 90.2422 89.6876 89.7198 89.6602C89.569 89.6527 89.4372 89.7571 89.4059 89.9047Z" fill="white"/>
<path d="M54.595 78.3949L49.488 78.4615L49.5856 76.8029L54.595 76.6946V78.3949Z" fill="black"/>
<path d="M64.6678 76.4756L66.192 76.4429L66.7385 78.236L64.6678 78.263V76.4756Z" fill="black"/>
<path d="M64.0162 76.49V78.2716L55.3802 78.3843V76.6772L64.0162 76.49Z" fill="black"/>
<path d="M59.0384 77.9602L59.0129 77.2665C58.9989 76.8802 59.2822 76.5533 59.6447 76.5382L61.2067 76.4727C61.3806 76.468 61.5502 76.5313 61.6794 76.6584C61.8083 76.7855 61.8832 76.9583 61.8904 77.1459L61.9159 77.8392C61.93 78.2251 61.6467 78.552 61.2841 78.5675L59.7221 78.633C59.7135 78.6334 59.7048 78.6337 59.6962 78.6337C59.3448 78.6341 59.0525 78.3371 59.0384 77.9602ZM61.273 78.2755C61.4843 78.2665 61.6495 78.0761 61.6413 77.8511L61.6157 77.1577C61.6117 77.0487 61.5678 76.9475 61.4926 76.8733C61.4173 76.7995 61.3191 76.7585 61.2172 76.7653L59.6551 76.8309C59.4438 76.8395 59.2786 77.0303 59.2869 77.2553L59.3124 77.949C59.3207 78.1744 59.4957 78.3519 59.7109 78.3414L61.273 78.2755Z" fill="white"/>
<path d="M59.3067 77.7335H60.0901C60.1894 77.7335 60.2701 77.6529 60.2701 77.5535C60.2701 77.4542 60.1894 77.3735 60.0901 77.3735H59.3067C59.2073 77.3735 59.1267 77.4542 59.1267 77.5535C59.1267 77.6529 59.207 77.7335 59.3067 77.7335Z" fill="white"/>
<path d="M68.2887 59.3936C68.2887 59.3936 66.3191 71.8439 67.1417 76.2964L48.9312 76.8259C48.9312 76.8259 51.0843 63.9638 53.9517 59.1118C53.9517 59.1118 58.7088 51.1684 68.2887 59.3936Z" fill="#407BFF"/>
<path opacity="0.6" d="M68.2887 59.3936C68.2887 59.3936 66.3191 71.8439 67.1417 76.2964L48.9312 76.8259C48.9312 76.8259 51.0843 63.9638 53.9517 59.1118C53.9517 59.1118 58.7088 51.1684 68.2887 59.3936Z" fill="white"/>
<path d="M57.6046 56.6199C57.6046 56.6199 60.625 59.5711 62.3696 59.0891C64.1174 58.6107 64.7693 57.7193 64.7693 57.7193C64.7693 57.7193 63.3682 57.1019 63.5209 56.7693C63.5381 56.7311 63.5835 56.6616 63.6458 56.5612C64.166 55.7706 66.0178 53.2423 66.0178 53.2423L62.0438 51.0161C62.0438 51.0161 61.7176 51.7826 61.3191 52.698C60.7816 53.912 60.1124 55.3858 59.8834 55.6597C59.4874 56.1414 57.6046 56.6199 57.6046 56.6199Z" fill="#E4897B"/>
<path opacity="0.2" d="M61.3187 52.6978C61.5682 54.0989 62.1788 55.7531 63.6458 56.5609C64.166 55.7704 66.0178 53.2421 66.0178 53.2421L62.0438 51.0159C62.0438 51.0159 61.7172 51.7823 61.3187 52.6978Z" fill="black"/>
<path d="M60.5224 49.9468C60.5224 49.9468 60.1246 51.2064 60.202 52.0963C60.2798 52.9866 59.2826 53.2876 59.158 52.7454C59.158 52.7454 59.176 54.0612 60.0303 53.8639C60.0303 53.8639 60.0256 54.7729 60.7935 54.7877C60.7935 54.7877 61.8659 53.4093 61.7493 51.7025C61.6327 49.9957 60.5224 49.9468 60.5224 49.9468Z" fill="#263238"/>
<path d="M67.365 45.5807C66.0693 46.1171 66.2936 49.1267 68.4424 51.7022C69.7654 50.5631 70.3656 47.9366 70.0527 46.8991C69.5523 45.2387 68.4936 45.1178 67.365 45.5807Z" fill="#263238"/>
<path d="M69.2535 52.9084C69.2535 52.9084 69.2535 52.9117 69.2503 52.9178C69.1264 53.2803 68.9864 53.6201 68.837 53.9287C67.5593 56.5318 63.8852 57.0369 62.258 54.4625C62.2515 54.4528 62.2454 54.4467 62.2389 54.437C61.1646 52.705 61.5682 51.0872 62.0164 48.2839C62.1053 47.6895 62.331 47.1268 62.6777 46.6343C63.9046 44.8829 66.3166 44.4571 68.068 45.6839C70.2006 47.1653 70.0732 50.5151 69.2535 52.9084Z" fill="#E4897B"/>
<path d="M65.9753 49.9687C65.9249 50.1937 66.0041 50.4033 66.1514 50.4353C66.2983 50.4673 66.4559 50.3136 66.5063 50.089C66.5567 49.864 66.4804 49.6559 66.3346 49.621C66.1888 49.5857 66.0405 49.7506 65.9753 49.9687Z" fill="#263238"/>
<path d="M68.5324 50.5459C68.482 50.7709 68.5612 50.9804 68.7084 51.0125C68.8553 51.0445 69.0159 50.8922 69.0677 50.6643C69.1192 50.4365 69.0389 50.2298 68.8917 50.1978C68.7448 50.1658 68.5828 50.3209 68.5324 50.5459Z" fill="#263238"/>
<path d="M67.6742 50.4648C67.7883 51.2129 68.005 51.9419 68.3182 52.6306C67.8286 52.911 67.1968 52.5892 67.1968 52.5892L67.6742 50.4648Z" fill="#DE5753"/>
<path d="M65.4577 49.0055C65.4274 49.0026 65.3993 48.9897 65.3777 48.9684C65.3291 48.9115 65.3349 48.8262 65.3911 48.7765C65.7172 48.4857 66.1647 48.3719 66.5899 48.4723C66.6597 48.4903 66.7018 48.5616 66.6838 48.6315C66.6831 48.6347 66.682 48.6376 66.6813 48.6405C66.6579 48.7103 66.5845 48.7503 66.5132 48.7315C66.1769 48.6577 65.8256 48.751 65.5696 48.9814C65.5372 49.0055 65.4965 49.0141 65.4577 49.0055Z" fill="#263238"/>
<path d="M69.8903 49.9447C69.8396 49.9328 69.7992 49.8932 69.7866 49.8424C69.7175 49.5048 69.4907 49.2204 69.1768 49.0778C69.1066 49.0515 69.0706 48.9741 69.0958 48.9036C69.1214 48.8344 69.1973 48.7981 69.2672 48.8211C69.6678 48.9957 69.9591 49.3536 70.0494 49.7809C70.0667 49.8529 70.0228 49.9252 69.9512 49.9425C69.9504 49.9425 69.9497 49.9429 69.949 49.9429C69.9296 49.9472 69.9098 49.9479 69.8903 49.9447Z" fill="#263238"/>
<path d="M65.0188 52.6194C65.0188 52.6194 65.3126 53.6295 66.6658 53.8635" stroke="#263238" stroke-width="0.5572" stroke-miterlimit="10" stroke-linecap="round" stroke-linejoin="round"/>
<path d="M69.8047 47.8238C69.8047 47.8238 70.6402 47.183 70.606 46.4352C70.5564 45.3441 69.8994 44.6176 69.1369 44.1644C68.5674 43.7975 67.7358 43.5221 66.5218 43.4508C63.3304 43.2629 61.5945 44.2205 61.048 45.9258C60.7096 46.5296 60.7176 47.6506 61.0214 48.7029C61.0228 48.7097 61.0236 48.7158 61.025 48.7227L61.0264 48.7209C61.2068 49.3379 61.4865 49.9287 61.8598 50.3711C63.801 48.6845 64.526 47.494 64.2214 46.6998C64.2834 46.68 65.251 45.8175 65.6794 45.7944C66.2954 45.7613 67.4384 46.3481 68.365 46.8993C68.8719 47.2006 69.3943 46.7204 69.3943 46.7204L69.8047 47.8238Z" fill="#263238"/>
<path d="M60.2045 50.2009C60.247 50.914 60.5703 51.5818 61.1038 52.057C61.8159 52.6784 62.5769 52.1391 62.7202 51.2553C62.8484 50.4583 62.6309 49.1738 61.7533 48.893C60.8759 48.6125 60.1567 49.3261 60.2045 50.2009Z" fill="#E4897B"/>
<path d="M60.202 52.0964C60.202 52.0964 61.3835 47.5035 64.3031 45.7946C67.2227 44.0856 70.2492 45.2769 70.2492 45.2769C70.2492 45.2769 70.1419 44.0496 70.053 43.9074C69.9641 43.7652 68.5172 43.2666 68.5172 43.2666C68.5172 43.2666 67.6943 42.056 66.5506 41.6643C65.4068 41.2726 61.984 41.1657 60.7938 42.1629C59.6033 43.1597 58.808 45.1894 59.3124 45.225C59.8167 45.2607 60.202 45.2607 60.202 45.2607C60.202 45.2607 59.2602 48.5205 59.663 49.009C59.663 49.009 58.9625 51.2774 60.202 52.0964Z" fill="#407BFF"/>
<path d="M66.06 94.1482C66.0766 94.1201 66.1086 94.1053 66.141 94.1107C66.1702 94.1147 66.1925 94.1381 66.1946 94.1672C66.2224 94.3048 66.4096 95.5226 66.1072 95.8196C66.0398 95.879 65.9455 95.8981 65.8602 95.8697C65.7144 95.8391 65.5963 95.7329 65.551 95.5907C65.5078 95.3675 65.5362 95.136 65.6323 94.9297C65.7479 94.6554 65.8912 94.3933 66.06 94.1482ZM66.0715 94.3944C65.8148 94.717 65.6813 95.1202 65.695 95.5324C65.7234 95.6317 65.8076 95.7055 65.9099 95.7206C65.943 95.735 65.9819 95.7271 66.0071 95.7008C66.0319 95.6746 66.0517 95.6432 66.0643 95.6094C66.1403 95.208 66.1428 94.7965 66.0715 94.3944Z" fill="#407BFF"/>
<path d="M74.1168 88.187L69.0966 89.8563L66.6857 90.6577L67.244 93.29L69.5718 92.8451L75.2576 91.7586L74.1168 88.187Z" fill="#E4897B"/>
<path d="M67.8938 93.4273L67.5399 90.3287C67.5201 90.1559 67.3614 90.0335 67.1893 90.0584L65.66 90.2801C65.66 90.2801 63.5814 90.4313 63.1576 90.9544C61.9203 92.4833 62.528 99.3572 63.3254 99.6153C63.6174 99.71 63.9363 99.3129 64.0702 99.0379C64.4947 98.1631 65.2586 95.8666 65.6218 95.1416C66.0463 94.2938 67.1691 93.8978 67.6735 93.7585C67.8189 93.7181 67.9111 93.5774 67.8938 93.4273Z" fill="#263238"/>
<path d="M66.0719 94.1245C66.0913 94.1029 66.1226 94.0968 66.1489 94.109C66.1975 94.1202 67.0212 94.4849 67.1616 94.9493C67.1976 95.0652 67.185 95.1908 67.1267 95.2977C67.0885 95.4129 66.9758 95.4864 66.8549 95.4749C66.4999 95.4284 66.0917 94.5756 66.0521 94.1918L66.0449 94.1555C66.0506 94.1429 66.06 94.1321 66.0719 94.1245ZM66.9974 95.2016C67.0215 95.1393 67.0241 95.0706 67.0043 95.0065C66.9153 94.7127 66.4563 94.4431 66.2213 94.3221C66.3275 94.7221 66.6623 95.2949 66.8696 95.3204C66.8909 95.3204 66.9344 95.3283 66.9827 95.2344L66.9974 95.2016Z" fill="#407BFF"/>
<path opacity="0.2" d="M74.1168 88.187L69.0966 89.8563L69.5718 92.8451L75.2576 91.7586L74.1168 88.187Z" fill="black"/>
<path d="M70.4451 93.3115L71.8765 93.4451L71.0215 88.4944L69.3766 89.3591L70.4451 93.3115Z" fill="#407BFF"/>
<path opacity="0.6" d="M70.4451 93.3115L71.8765 93.4451L71.0215 88.4944L69.3766 89.3591L70.4451 93.3115Z" fill="white"/>
<path opacity="0.2" d="M67.8938 93.4273L67.5399 90.3287C67.5201 90.1559 67.3614 90.0335 67.1893 90.0584L65.66 90.2801C65.66 90.2801 63.5814 90.4313 63.1576 90.9544C61.9203 92.4833 62.528 99.3572 63.3254 99.6153C63.6174 99.71 63.9363 99.3129 64.0702 99.0379C64.4947 98.1631 65.2586 95.8666 65.6218 95.1416C66.0463 94.2938 67.1691 93.8978 67.6735 93.7585C67.8189 93.7181 67.9111 93.5774 67.8938 93.4273Z" fill="white"/>
<path d="M86.6552 89.5382C86.6552 89.5382 63.1702 80.4169 55.9782 81.9407C48.7861 83.4646 48.7522 87.2291 52.3979 90.7377C56.0433 94.2466 61.4916 92.8948 61.4916 92.8948C61.4916 92.8948 57.2112 90.3295 57.5096 88.7462C57.808 87.1629 60.5289 90.7838 60.5289 90.7838C60.5289 90.7838 74.7226 94.2545 86.4414 93.3398L86.6552 89.5382Z" fill="#263238"/>
<path d="M86.9407 89.158L85.6213 88.554L84.8627 93.496L86.6969 93.1958L86.9407 89.158Z" fill="#407BFF"/>
<path opacity="0.6" d="M86.9407 89.158L85.6213 88.554L84.8627 93.496L86.6969 93.1958L86.9407 89.158Z" fill="white"/>
<path d="M56.1142 55.6633C56.1142 55.6633 59.2909 64.2994 59.1267 66.2445C58.9626 68.1895 52.4113 82.7076 52.4113 82.7076L46.9994 84.8831C46.9994 84.8831 48.1237 63.5297 56.1142 55.6633Z" fill="#407BFF"/>
<path opacity="0.2" d="M56.1142 55.6633C56.1142 55.6633 59.2909 64.2994 59.1267 66.2445C58.9626 68.1895 52.4113 82.7076 52.4113 82.7076L46.9994 84.8831C46.9994 84.8831 48.1237 63.5297 56.1142 55.6633Z" fill="black"/>
<path d="M67.5846 80.7441C67.5846 80.7441 65.8879 76.7157 65.3447 74.4822C64.8014 72.2488 66.7001 60.7839 65.6795 56.9387L68.2884 59.3936L67.181 73.7154L67.5846 80.7441Z" fill="#407BFF"/>
<path opacity="0.2" d="M67.5846 80.7441C67.5846 80.7441 65.8879 76.7157 65.3447 74.4822C64.8014 72.2488 66.7001 60.7839 65.6795 56.9387L68.2884 59.3936L67.181 73.7154L67.5846 80.7441Z" fill="black"/>
<path d="M48.3159 74.4823C48.3159 74.4823 59.5785 76.6469 57.7983 56.0675L55.9637 55.9062C55.9637 55.9062 57.0812 63.7255 55.027 68.8414C52.9729 73.9574 48.1237 73.7155 48.1237 73.7155L48.3159 74.4823Z" fill="#263238"/>
<path d="M59.0608 65.3408L55.2805 56.5615L54.1335 58.0702C54.1335 58.0702 53.9301 55.9423 54.595 55.3249C55.2596 54.7078 57.0956 55.48 57.8231 55.6636C58.5507 55.8469 59.0608 65.3408 59.0608 65.3408Z" fill="#407BFF"/>
<path d="M65.0189 57.0735C65.0189 57.0735 66.4779 61.3892 66.2411 68.1539C66.0042 74.9187 67.2181 74.3549 67.2181 74.3549L67.3927 73.7152C67.3927 73.7152 66.7105 73.6367 66.7667 71.3583C66.8228 69.0795 67.1187 59.8818 66.2407 57.4666L65.0189 57.0735Z" fill="#263238"/>
<path d="M65.7817 65.0913C65.7817 65.0913 66.128 58.6066 64.3212 56.7126C64.3212 56.7126 65.6866 56.2018 66.241 56.7126C66.7954 57.2235 66.9304 62.1594 65.8425 65.3408" fill="#407BFF"/>
<path d="M56.6344 67.7283C56.6344 67.7283 58.2825 71.5562 58.6548 72.0879C59.027 72.6196 67.2307 76.3942 67.2307 76.3942C67.2307 76.3942 68.225 76.2347 69.2348 76.3942C70.245 76.5537 71.6407 76.9792 71.7667 77.1387C71.893 77.2982 70.2414 79.6907 70.2414 79.6907C70.2414 79.6907 66.9632 79.8945 66.5571 78.5963C66.5571 78.5963 58.3358 75.5435 57.3789 74.7461C56.422 73.9487 53.7638 69.2169 53.7638 69.2169L56.6344 67.7283Z" fill="#E4897B"/>
<path d="M54.595 59.1426C56.3518 59.148 58.8164 69.8695 59.2869 71.3228C59.7574 72.7761 67.0179 75.8937 67.0179 75.8937L64.7042 78.6341C64.7042 78.6341 56.8266 75.7901 55.9011 74.4822C54.9755 73.1743 52.1708 65.7212 52.0423 64.0001C51.9127 62.2793 53.4319 59.139 54.595 59.1426Z" fill="#407BFF"/>
</svg>
