<svg width="181" height="181" viewBox="0 0 181 181" fill="none" xmlns="http://www.w3.org/2000/svg">
<g clip-path="url(#clip0_116_390)">
<path d="M112.082 158.049C107.87 156.201 97.8749 120.983 97.8749 120.983L106.601 118.871C106.601 118.871 113.731 119.505 115.776 117.453C117.819 115.4 129.524 101.242 129.524 101.242L158.413 148.553C158.413 148.553 133.872 167.61 112.082 158.049Z" fill="#0FA6A6"/>
<path d="M33.3982 124.424L73.3598 42.9363L80.0879 35.1734L81.028 38.3184C81.028 38.3184 87.4851 30.768 89.7917 30.6872C92.0982 30.6063 92.6232 31.528 92.4356 35.0831C92.246 38.6382 97.005 36.0687 97.005 36.0687C97.005 36.0687 98.29 32.7638 99.34 35.7151C100.39 38.6664 97.5262 43.574 97.5262 43.574L107.19 38.6721L107.639 44.3471L96.4459 58.3117L66.1123 146.02C66.1123 146.02 40.4978 143.597 33.3982 124.424Z" fill="#6FCFA1" stroke="#6FCFA1" stroke-miterlimit="10"/>
<path d="M130.235 22.7869L97.6892 56.4533L77.7966 91.7956C77.7966 91.7956 72.1203 98.825 76.1572 98.9002C80.1941 98.9773 89.8921 93.3023 89.8921 93.3023L79.8378 113.096L82.565 114.932L91.0691 105.531L86.3556 118.066L90.2371 118.734L95.4092 114.77L96.245 119.934L100.178 120.195L104.669 117.861L107.98 118.628L120.224 108.917L155.466 52.2925L161.287 30.6872C161.285 30.6909 140.37 16.2655 130.235 22.7869Z" fill="#AFE8D9" stroke="#AFE8D9" stroke-miterlimit="10"/>
<path d="M19.4054 53.0186C19.4054 53.0186 54.481 69.374 58.4515 73.3655C62.424 77.3551 85.3188 92.9318 85.3188 92.9318C85.3188 92.9318 102.956 99.4345 104.457 99.6997C105.958 99.9649 107.738 98.761 107.738 98.761L103.633 90.8326L109.535 93.4378C109.535 93.4378 109.743 91.1712 112.053 89.4406C115.433 86.905 113.645 81.9072 113.645 81.9072L101.034 68.0911C101.034 68.0911 107.886 72.7655 110.664 72.4833C113.443 72.2012 111.871 68.7232 110.285 66.6428C108.697 64.5605 49.4794 28.9792 49.4794 28.9792C49.4794 28.9792 21.0922 42.12 19.4054 53.0186Z" fill="white"/>
<path d="M127.905 22.9581C125.489 24.7488 123.135 26.6204 120.851 28.5729C118.588 30.5085 116.392 32.5231 114.269 34.6091C112.137 36.7064 110.079 38.8771 108.1 41.1155C106.121 43.3558 104.222 45.6638 102.403 48.0339C100.593 50.3927 98.8643 52.8154 97.2249 55.2946C97.0164 55.6106 96.8098 55.9266 96.6032 56.2445C96.2715 56.7543 97.0922 57.2264 97.422 56.7185C99.0329 54.2375 100.729 51.8091 102.509 49.4446C104.281 47.0896 106.14 44.8004 108.073 42.5752C110.016 40.3405 112.038 38.1717 114.132 36.0744C116.227 33.979 118.393 31.9531 120.629 30.0063C122.854 28.0688 125.148 26.2047 127.505 24.4253C127.797 24.2052 128.091 23.987 128.385 23.7688C128.59 23.6165 128.694 23.3625 128.555 23.1255C128.436 22.9261 128.112 22.8039 127.905 22.9581Z" fill="#222221"/>
<path d="M77.8307 89.6776C77.916 89.5008 78.0088 89.3315 78.1131 89.1641C78.4353 88.6468 77.6241 88.1822 77.2943 88.6901C76.2595 90.287 75.1375 91.8219 74.2619 93.5167C73.428 95.1325 72.486 97.275 73.2252 99.0902C73.536 99.852 74.1861 100.539 74.984 100.8C75.6909 101.031 76.485 100.915 77.1825 100.715C79.1251 100.164 80.8991 98.9811 82.5328 97.8355C83.4861 97.1678 84.4129 96.4643 85.3283 95.7457C85.9253 95.2774 86.6398 94.6943 87.1705 94.288C86.9336 94.1525 86.6948 94.0171 86.4579 93.8817C86.3101 96.7803 84.2897 99.124 82.8796 101.526C81.2649 104.28 79.7506 107.133 78.6115 110.117C78.1472 111.336 77.5596 112.711 77.6601 114.042C77.7549 115.293 78.5812 116.237 79.8757 116.337C81.2175 116.443 82.4418 115.718 83.3876 114.842C84.5077 113.802 85.4098 112.519 86.3631 111.334C88.8213 108.275 91.2813 105.217 93.7395 102.158C93.4912 101.968 93.2429 101.778 92.9946 101.588C91.7836 103.482 91.0539 105.619 89.9584 107.575C88.8156 109.614 87.216 111.407 85.7756 113.241C85.0459 114.17 84.2935 115.096 83.6396 116.079C83.0824 116.92 82.6674 117.955 82.9687 118.967C83.2947 120.06 84.5228 120.857 85.5993 121.107C87.8092 121.623 89.9679 120.253 91.6035 118.935C93.7641 117.191 95.5703 115.026 97.259 112.842C98.7506 110.914 100.091 108.883 101.537 106.923C101.853 106.494 101.144 105.95 100.792 106.353C99.014 108.386 97.3007 110.489 95.8603 112.775C95.1799 113.856 94.5355 114.981 94.037 116.157C93.6163 117.154 93.3017 118.26 93.4116 119.351C93.6694 121.877 96.2545 122.862 98.4909 122.146C100.769 121.414 102.585 119.49 103.957 117.62C105.591 115.397 106.735 112.867 107.859 110.365C108.104 109.819 107.383 109.376 107.04 109.891C105.232 112.618 103.388 115.463 102.859 118.747C102.812 119.042 102.981 119.343 103.316 119.341C104.082 119.337 104.73 119.719 105.437 119.952C106.112 120.174 106.773 120.154 107.463 120.022C108.831 119.761 110.115 119.102 111.255 118.324C113.752 116.619 115.772 114.321 117.711 112.035C120.012 109.323 122.182 106.533 124.174 103.59C126.342 100.384 128.284 97.038 130.434 93.8196C132.602 90.573 134.806 87.3564 136.885 84.0515C138.962 80.7466 141.022 77.4322 143.022 74.0821C145.021 70.732 146.958 67.3443 148.784 63.8964C150.567 60.5294 152.28 57.121 154.016 53.7277C155.718 50.4021 157.361 47.0369 158.692 43.5439C160.068 39.9361 160.978 36.1722 162.158 32.5023C162.46 31.5637 162.772 30.627 163.093 29.694C162.782 29.6526 162.473 29.6112 162.162 29.5698C162.155 29.6771 162.147 29.7843 162.139 29.8915C162.096 30.4953 163.043 30.4934 163.087 29.8915C163.095 29.7843 163.102 29.6771 163.11 29.5698C163.152 29.0149 162.344 28.9679 162.179 29.4457C160.921 33.0986 159.935 36.8268 158.758 40.5042C157.621 44.0574 156.082 47.4677 154.428 50.8121C152.79 54.1208 151.054 57.3825 149.386 60.6761C147.639 64.1259 145.766 67.5136 143.822 70.8562C139.961 77.4924 135.915 84.0515 131.599 90.4055C130.502 92.0213 129.403 93.6334 128.345 95.2736C127.32 96.8631 126.353 98.4883 125.339 100.083C123.325 103.251 121.192 106.355 118.81 109.266C116.937 111.556 115.025 113.877 112.83 115.871C111.762 116.839 110.605 117.735 109.311 118.387C108.701 118.694 108.058 118.937 107.389 119.082C106.648 119.243 106.034 119.193 105.329 118.916C104.666 118.656 104.042 118.401 103.316 118.404C103.468 118.602 103.621 118.801 103.773 118.999C104.29 115.788 106.091 113.034 107.859 110.369C107.586 110.211 107.313 110.053 107.04 109.895C105.308 113.751 103.398 118.162 99.6773 120.539C98.7259 121.147 97.5812 121.606 96.4308 121.418C95.4016 121.25 94.5999 120.577 94.3934 119.548C94.1981 118.587 94.49 117.556 94.8444 116.666C95.2784 115.575 95.8868 114.533 96.5028 113.534C97.9356 111.206 99.6622 109.076 101.463 107.021C101.214 106.831 100.966 106.641 100.718 106.451C98 110.134 95.5419 114.007 92.1854 117.174C90.7507 118.529 88.8649 120.158 86.782 120.276C85.9064 120.325 85.0838 120.039 84.4243 119.465C83.6851 118.82 83.6965 117.949 84.1248 117.11C84.6309 116.123 85.4079 115.239 86.0864 114.368C87.6178 112.398 89.352 110.491 90.6142 108.333C91.8006 106.306 92.5398 104.054 93.8077 102.072C94.0901 101.63 93.404 101.078 93.0629 101.502C91.0274 104.035 88.99 106.567 86.9545 109.101C85.9443 110.357 84.9474 111.625 83.922 112.87C83.1507 113.805 82.258 114.84 81.0697 115.244C80.4594 115.453 79.6691 115.545 79.1213 115.13C78.712 114.819 78.5945 114.296 78.5926 113.813C78.5888 112.536 79.1839 111.223 79.6425 110.056C80.7551 107.227 82.2106 104.498 83.7666 101.885C85.2677 99.361 87.2444 96.9421 87.3998 93.8911C87.4169 93.5638 86.9715 93.2666 86.6872 93.4848C83.9239 95.6028 81.2478 97.9917 78.0259 99.4156C76.8224 99.9479 75.2588 100.446 74.3434 99.1936C73.3237 97.7979 74.2429 95.6874 74.9025 94.3406C75.799 92.5123 77.0024 90.8758 78.1074 89.1716C77.8345 89.0136 77.5615 88.8556 77.2886 88.6976C77.1844 88.865 77.0915 89.0343 77.0062 89.2111C76.7485 89.7472 77.5653 90.225 77.8307 89.6776Z" fill="#222221"/>
<path d="M49.2406 29.3855C50.6166 30.3373 51.9528 31.3455 53.3552 32.2597C54.7975 33.2002 56.3384 33.9771 57.847 34.8047C60.9723 36.5164 64.0881 38.2526 67.1546 40.0659C73.0906 43.5759 78.873 47.3229 84.8659 50.7407C90.5497 53.9798 96.2962 57.1267 101.732 60.7721C104.489 62.6211 107.16 64.5981 109.686 66.75C110.839 67.7318 111.815 69.0241 112.51 70.3596C112.766 70.8506 113.156 71.6199 112.942 72.1503C112.882 72.2989 112.686 72.4193 112.449 72.4739C111.811 72.6244 111.199 72.4306 110.624 72.1541C107.734 70.7622 104.978 69.0843 101.923 68.0516C101.169 67.7958 100.399 67.587 99.6186 67.4271C99.1523 67.3312 98.8339 67.856 99.158 68.2134C100.263 69.4323 101.832 70.0342 103.07 71.0895C104.442 72.2613 105.807 73.4501 107.147 74.6577C109.336 76.6328 111.345 78.764 112.736 81.3748C113.323 82.479 113.873 83.7092 113.977 84.9694C114.043 85.7557 113.901 87.174 112.927 87.3959C112.046 87.5972 111.013 86.8128 110.353 86.3388C109.47 85.703 108.676 84.9582 107.846 84.2565C106.485 83.1072 104.912 82.1743 103.449 81.1585C101.546 79.8399 99.6508 78.5119 97.7574 77.1783C97.5982 77.4492 97.439 77.72 97.2798 77.9909C100.434 79.4976 103.693 81.0155 106.381 83.2822C108.214 84.8284 109.946 86.6981 111.081 88.8161C111.574 89.734 112.034 90.8589 111.828 91.9198C111.741 92.3675 111.538 92.849 111.092 93.0465C110.645 93.2459 110.103 93.1481 109.65 93.0258C108.536 92.7249 107.526 92.1154 106.54 91.5379C104.975 90.6219 103.413 89.7002 101.87 88.7465C98.199 86.4761 94.617 84.059 91.1752 81.4576C91.016 81.7285 90.8568 81.9993 90.6976 82.2702C94.1223 84.8453 98.1497 86.4912 101.277 89.4688C103.307 91.4006 105.627 93.2685 106.957 95.7796C107.431 96.6712 107.88 98.0011 107.099 98.8645C106.381 99.6601 104.973 99.5454 104.017 99.425C101.457 99.1052 98.9041 98.0895 96.6032 96.959C92.0622 94.7262 87.5647 92.4107 83.0123 90.2005C80.918 89.1829 78.8806 88.1465 76.9493 86.8392C75.092 85.5808 73.3351 84.1888 71.5649 82.8157C67.7877 79.8851 63.7981 77.3062 59.7518 74.7593C55.6732 72.1917 51.7007 69.4605 47.5633 66.9888C43.3938 64.4965 39.0176 62.3653 34.8916 59.7958C32.8864 58.5469 30.813 57.4991 28.7017 56.4401C26.7553 55.4639 24.9225 54.3334 22.7676 53.8556C21.7613 53.6318 20.734 53.5321 19.7049 53.5114C19.0946 53.4982 19.0946 54.4387 19.7049 54.4519C21.9261 54.497 24.009 55.0294 25.9725 56.062C28.0801 57.1718 30.2501 58.1782 32.3292 59.3388C33.4057 59.9407 34.4292 60.6273 35.4848 61.263C36.5576 61.9082 37.6416 62.5327 38.7352 63.1441C40.8958 64.3535 43.0962 65.4916 45.2435 66.7217C49.5363 69.1802 53.6092 71.9754 57.7788 74.6258C61.954 77.2799 66.1748 79.8512 70.0999 82.8665C71.9023 84.2509 73.6724 85.6748 75.526 86.9934C77.4326 88.3496 79.4246 89.5121 81.534 90.5278C86.2039 92.7775 90.8189 95.1344 95.4604 97.4406C97.9564 98.682 100.612 99.8163 103.381 100.273C104.58 100.471 105.951 100.595 107.076 100.034C108.181 99.4833 108.591 98.2607 108.414 97.1001C108.197 95.6724 107.294 94.4027 106.407 93.3023C105.428 92.0872 104.304 90.9924 103.161 89.9297C101.944 88.7973 100.75 87.6574 99.393 86.6868C97.6285 85.4246 95.7124 84.3938 93.8627 83.2615C92.9416 82.6972 92.0375 82.1047 91.1752 81.4557C90.6881 81.0889 90.2181 81.9053 90.6976 82.2683C93.9972 84.7644 97.4257 87.0875 100.94 89.277C102.605 90.3153 104.292 91.3141 105.987 92.3054C107.054 92.9299 108.147 93.5826 109.347 93.9174C110.437 94.2221 111.672 94.1732 112.351 93.1462C113.005 92.1587 112.885 90.8382 112.529 89.7698C111.689 87.2643 109.741 85.0917 107.835 83.3123C104.939 80.6074 101.305 78.8731 97.7593 77.1764C97.2059 76.9112 96.7832 77.6372 97.2817 77.989C99.0481 79.2342 100.818 80.4719 102.592 81.7059C103.506 82.3398 104.419 82.9718 105.335 83.6019C105.924 84.0082 106.542 84.3863 107.092 84.8453C107.977 85.5845 108.818 86.3689 109.749 87.0536C110.588 87.6725 111.64 88.3797 112.734 88.3553C113.856 88.3308 114.595 87.3564 114.836 86.3445C115.137 85.0748 114.786 83.7167 114.316 82.5335C113.242 79.8286 111.441 77.4943 109.379 75.4553C107.855 73.9486 106.203 72.5811 104.59 71.1703C103.82 70.4969 103.064 69.8706 102.196 69.3232C101.357 68.7927 100.502 68.2849 99.8289 67.5437C99.6754 67.8052 99.5219 68.0685 99.3684 68.33C102.708 69.0109 105.689 70.6794 108.684 72.2218C109.906 72.852 111.191 73.6909 112.628 73.3918C113.372 73.2357 113.897 72.7052 113.939 71.9397C113.983 71.1534 113.598 70.3559 113.227 69.6862C112.793 68.9018 112.258 68.1701 111.693 67.4741C111.187 66.8515 110.645 66.3211 110.031 65.8019C108.72 64.6978 107.372 63.6388 105.994 62.6174C100.574 58.5976 94.7117 55.2306 88.844 51.905C85.8703 50.2196 82.8929 48.5418 79.9609 46.7849C76.8527 44.9246 73.8013 42.9721 70.7064 41.0892C67.5526 39.1705 64.3534 37.3328 61.1277 35.5327C59.5054 34.6279 57.8773 33.7307 56.2398 32.8503C54.6952 32.0189 53.2434 31.0653 51.8163 30.0495C51.1188 29.5529 50.4252 29.0526 49.7201 28.5654C49.2179 28.2268 48.7441 29.0413 49.2406 29.3855Z" fill="#222221"/>
<path d="M31.6962 121.822C32.8504 118.214 34.1828 114.665 35.663 111.176C37.1394 107.698 38.7637 104.28 40.4921 100.919C42.2661 97.4706 44.1557 94.0792 46.1229 90.7366C48.1357 87.3151 50.23 83.9424 52.3697 80.598C52.8094 79.9114 53.2832 79.238 53.6907 78.5326C53.9409 78.0981 54.1683 77.6504 54.4033 77.2084C54.7009 76.6535 55.0041 76.1023 55.3396 75.57C55.6334 75.1054 55.8835 74.716 56.2797 74.3549C56.3138 74.3229 56.3498 74.2928 56.3858 74.2627C56.3043 74.3304 56.4199 74.2401 56.4389 74.227C56.4768 74.2025 56.5166 74.1818 56.5564 74.1592C56.6227 74.1235 56.4635 74.1875 56.5867 74.1498C57.1666 73.9693 56.9184 73.0607 56.3346 73.2432C55.8741 73.3862 55.5178 73.7454 55.2221 74.1103C54.8298 74.5938 54.4981 75.1167 54.1854 75.6528C53.6339 76.6008 53.1752 77.6053 52.5801 78.527C50.3949 81.9071 48.2532 85.3155 46.1893 88.771C44.1651 92.1605 42.2168 95.5934 40.3803 99.0883C38.5969 102.485 36.9177 105.937 35.3844 109.451C33.8455 112.974 32.4449 116.557 31.23 120.205C31.0784 120.66 30.9305 121.115 30.7846 121.572C30.597 122.15 31.5124 122.398 31.6962 121.822Z" fill="#222221"/>
<path d="M71.4815 43.0718C71.4815 42.7181 71.8322 42.2968 72.0785 41.9864C72.3192 41.6817 72.5618 41.3826 72.7495 41.0421C72.9712 40.6415 73.2043 40.2484 73.4431 39.859C73.7862 39.2984 74.1406 38.7454 74.5102 38.2018C74.9157 37.6037 75.3877 36.9472 75.797 36.4299C76.2405 35.8694 76.7068 35.3239 77.2166 34.8216C77.444 34.5978 77.6828 34.3852 77.9311 34.1821C77.9406 34.1746 78.0486 34.0899 77.9633 34.1558C77.9955 34.1313 78.0278 34.1087 78.06 34.0843C78.113 34.0467 78.1642 34.009 78.2192 33.9733C78.3405 33.8905 78.4656 33.8134 78.5944 33.7457C78.6456 33.7194 78.6968 33.693 78.748 33.6686C78.7783 33.6535 78.8086 33.6404 78.8389 33.6272C78.8276 33.6328 78.7385 33.6667 78.8162 33.6366C78.9318 33.5933 79.0493 33.5576 79.1687 33.5313C79.1971 33.5256 79.2256 33.5219 79.254 33.5162C79.2426 33.5181 79.1365 33.52 79.2123 33.5219C79.2673 33.5237 79.3241 33.5143 79.3791 33.5143C79.4246 33.5143 79.5705 33.5426 79.4151 33.5106C79.4682 33.5219 79.5212 33.5294 79.5724 33.5444C79.6539 33.567 79.6937 33.5933 79.6255 33.5576C79.671 33.5802 79.7164 33.6027 79.76 33.6291C79.7885 33.6479 79.9136 33.7476 79.8055 33.6554C79.8567 33.6987 79.906 33.7419 79.9534 33.7908C80.0405 33.883 80.1182 33.9921 80.1978 34.1482C80.2604 34.2705 80.3248 34.4661 80.3646 34.6599C80.4025 34.8442 80.4196 35.021 80.4234 35.243C80.4272 35.4988 80.412 35.7546 80.3817 36.0086C80.3229 36.4901 80.1978 36.998 80.0557 37.4739C79.7941 38.3504 79.4663 39.1555 79.036 39.9587C78.7499 40.4929 79.5667 40.9688 79.8548 40.4327C81.3445 37.6526 82.5991 34.6354 84.9095 32.3989C85.5917 31.7387 86.2949 31.0991 87.0378 30.5085C87.8471 29.8652 88.827 29.1786 89.7898 28.8739C89.9016 28.8381 90.0172 28.8062 90.1328 28.7817C90.184 28.7704 90.237 28.761 90.2901 28.7516C90.3962 28.7328 90.2768 28.746 90.383 28.7403C90.4891 28.7347 90.5952 28.729 90.7014 28.7347C90.7279 28.7366 90.8511 28.7497 90.8018 28.7422C90.7639 28.7366 90.9023 28.7629 90.9364 28.7723C90.9819 28.7836 91.0255 28.7986 91.0691 28.8137C91.1771 28.8475 91.0501 28.7986 91.1221 28.8363C91.1695 28.8607 91.2169 28.887 91.2624 28.9153C91.2984 28.9378 91.4064 29.0244 91.323 28.9529C91.3894 29.0074 91.4462 29.0695 91.5069 29.1297C91.5884 29.2106 91.4822 29.0864 91.5277 29.1541C91.5561 29.1974 91.5865 29.2388 91.613 29.2839C91.6338 29.3197 91.6528 29.3554 91.6717 29.3912C91.6831 29.4137 91.7419 29.5529 91.6964 29.4401C91.7324 29.5322 91.7627 29.6244 91.7892 29.7203C91.812 29.8087 91.8309 29.8971 91.8461 29.9856C91.8499 30.0119 91.8556 30.0382 91.8594 30.0646C91.8575 30.0457 91.848 29.9686 91.8575 30.0608C91.8632 30.1153 91.8689 30.1718 91.8726 30.2263C91.8878 30.4464 91.8859 30.6684 91.8745 30.8903C91.8613 31.133 91.8309 31.3907 91.8044 31.5581C91.6357 32.6378 91.306 33.693 90.9326 34.7182C90.582 35.6831 90.2351 36.4957 89.8144 37.4099C89.3121 38.499 88.772 39.5693 88.2186 40.634C87.8054 41.4278 87.343 42.2103 86.9791 43.0285C86.6834 43.6944 86.5223 44.4054 86.2627 45.0844C86.1622 45.3459 86.039 45.6224 85.859 45.8425C86.1073 45.8745 86.3555 45.9064 86.6038 45.9384C86.5754 45.9008 86.5526 45.8632 86.5299 45.8218C86.5735 45.897 86.5375 45.8444 86.5223 45.7898C86.5091 45.7447 86.5072 45.6638 86.5128 45.7597C86.5109 45.7108 86.5091 45.6619 86.511 45.6111C86.511 45.5848 86.5147 45.5603 86.5166 45.534C86.5147 45.5528 86.4977 45.6299 86.5166 45.5396C86.5261 45.4907 86.5375 45.4437 86.5489 45.3967C86.5754 45.297 86.6304 45.1428 86.6531 45.0882C86.8313 44.6612 87.1591 44.1722 87.4548 43.764C87.7467 43.3596 87.9893 43.0642 88.3001 42.6655C88.6602 42.2046 88.9653 41.7043 89.2913 41.219C90.9061 38.8188 92.6762 36.5258 94.8615 34.6072C95.4168 34.12 95.991 33.6573 96.5881 33.2209C97.1718 32.7939 97.784 32.3255 98.453 32.0528C98.5781 32.002 98.7089 31.9587 98.8415 31.9249C98.8965 31.9098 98.9533 31.8985 99.0083 31.8873C99.1125 31.8666 99.0045 31.8779 99.1069 31.8741C99.1561 31.8722 99.2054 31.8684 99.2547 31.8703C99.2888 31.8703 99.4347 31.8854 99.3248 31.8684C99.3684 31.8741 99.4101 31.8835 99.4518 31.8948C99.4802 31.9023 99.6356 31.9606 99.5238 31.9098C99.5977 31.9418 99.666 31.9832 99.7323 32.0283C99.6546 31.9738 99.7228 32.0208 99.7531 32.0528C99.7891 32.0904 99.8252 32.1261 99.8593 32.1656C99.7986 32.0942 99.8574 32.1638 99.8782 32.1976C99.901 32.2334 99.9237 32.2691 99.9427 32.3067C99.9673 32.35 99.9881 32.3951 100.009 32.4403C99.9692 32.35 100.02 32.4741 100.032 32.508C100.062 32.5983 100.087 32.6905 100.108 32.7826C100.119 32.8391 100.13 32.8936 100.14 32.95C100.144 32.967 100.153 33.0422 100.142 32.9557C100.145 32.9858 100.149 33.014 100.151 33.0441C100.172 33.2792 100.178 33.5143 100.166 33.7513C100.142 34.2442 100.056 34.705 99.9029 35.2204C99.4461 36.7591 98.5819 38.1604 97.7783 39.5392C96.8818 41.0798 96.0877 42.673 95.2102 44.2248C94.7762 44.9923 94.3118 45.7409 93.8684 46.5027C93.5784 46.9993 93.3301 47.541 92.9435 47.9737C92.879 48.047 92.7539 48.1731 92.7066 48.2088C92.6516 48.2502 92.5891 48.2897 92.5284 48.3198C92.4715 48.348 92.5 48.3348 92.4071 48.3593C92.6061 48.5098 92.807 48.6621 93.006 48.8126C93.0136 48.3969 93.1254 47.9398 93.3074 47.5241C93.512 47.052 93.8229 46.5592 94.1432 46.1265C94.8596 45.1559 95.7447 44.3057 96.643 43.5044C97.5148 42.7257 98.4265 41.9977 99.3324 41.2603C100.259 40.5061 101.15 39.7085 102.128 39.0163C103.288 38.1962 104.569 37.4457 105.987 37.1785C106.307 37.1184 106.631 37.0939 106.957 37.1014C107.027 37.1033 107.097 37.1052 107.167 37.1108C107.183 37.1127 107.315 37.1278 107.239 37.1165C107.162 37.1052 107.285 37.1259 107.302 37.1296C107.342 37.139 107.38 37.1503 107.419 37.1597C107.44 37.1654 107.545 37.203 107.473 37.1748C107.401 37.1466 107.497 37.1861 107.518 37.1974C107.545 37.2124 107.573 37.2293 107.6 37.2444C107.677 37.2858 107.632 37.2707 107.611 37.2481C107.649 37.2876 107.692 37.3253 107.732 37.3648C107.802 37.4344 107.726 37.3535 107.73 37.361C107.745 37.3911 107.77 37.4193 107.787 37.4494C107.802 37.4757 107.816 37.504 107.831 37.5322C107.829 37.5247 107.878 37.6149 107.831 37.5322C107.852 37.5999 107.876 37.6657 107.893 37.7353C107.901 37.7692 107.908 37.803 107.914 37.8369C107.926 37.8933 107.927 37.9385 107.918 37.8482C107.925 37.9291 107.933 38.0081 107.935 38.089C107.941 38.2526 107.931 38.4163 107.916 38.5799C107.912 38.6232 107.907 38.6664 107.901 38.7097C107.912 38.6119 107.899 38.7172 107.893 38.7567C107.878 38.8545 107.859 38.9523 107.838 39.0502C107.753 39.4565 107.636 39.8552 107.497 40.2465C107.423 40.4609 107.342 40.6735 107.256 40.8841C107.169 41.0986 107.126 41.202 107.018 41.4353C106.644 42.2554 106.216 43.0529 105.735 43.8148C105.534 44.1345 105.321 44.4487 105.096 44.7515C105.071 44.7835 105.047 44.8173 105.022 44.8493C104.99 44.8926 105.043 44.823 105.043 44.8211C105.03 44.838 105.016 44.8568 105.001 44.8738C104.952 44.9358 104.903 44.996 104.849 45.0562C104.764 45.1559 104.675 45.2537 104.58 45.3459C104.544 45.3798 104.508 45.4136 104.472 45.4475C104.455 45.4625 104.434 45.4776 104.417 45.4945C104.366 45.5472 104.522 45.4193 104.438 45.4776C104.23 45.6243 104.131 45.8876 104.268 46.1209C104.389 46.3259 104.705 46.4369 104.916 46.2902C105.45 45.914 105.845 45.344 106.208 44.8136C106.726 44.0593 107.181 43.2599 107.584 42.4397C108.009 41.5782 108.39 40.681 108.64 39.7537C108.839 39.0163 108.998 38.1736 108.782 37.4212C108.568 36.6707 107.962 36.2474 107.196 36.1778C105.697 36.0405 104.179 36.6632 102.909 37.3949C101.618 38.136 100.464 39.0803 99.3343 40.0396C98.4776 40.7675 97.5869 41.456 96.7302 42.1839C95.7276 43.036 94.7459 43.9276 93.8949 44.9321C93.1368 45.8274 92.4109 46.8526 92.1512 48.0132C92.0925 48.2784 92.0584 48.5493 92.0527 48.8201C92.047 49.1305 92.3597 49.3487 92.6516 49.2735C93.3206 49.1023 93.7717 48.5041 94.1204 47.9511C94.5127 47.3285 94.8691 46.6795 95.2462 46.0456C96.228 44.3941 97.0865 42.6824 98.0228 41.0083C98.9135 39.417 99.9086 37.8764 100.57 36.1703C100.987 35.0925 101.231 33.9056 101.053 32.7506C100.907 31.797 100.291 30.9486 99.2471 30.9317C98.6198 30.9223 98.0019 31.1894 97.4675 31.4904C96.734 31.9061 96.0555 32.4309 95.3902 32.9463C92.9093 34.8724 90.889 37.2519 89.1018 39.8138C88.645 40.4703 88.2129 41.1418 87.7637 41.8021C87.7239 41.8604 87.6822 41.9168 87.6405 41.9732C87.6311 41.9864 87.5458 42.0955 87.5818 42.0504C87.6121 42.0127 87.5173 42.1331 87.4984 42.1576C87.3278 42.372 87.1591 42.5883 86.9905 42.8047C86.6398 43.258 86.3006 43.7226 86.022 44.2229C85.7737 44.6706 85.5254 45.2011 85.5519 45.7259C85.5633 45.9685 85.6278 46.2168 85.7756 46.4143C85.9386 46.6306 86.3082 46.7679 86.5204 46.5102C87.0056 45.9158 87.233 45.1841 87.4586 44.4637C87.5628 44.1327 87.6595 43.7941 87.7997 43.4762C87.9855 43.0567 88.2186 42.6542 88.4308 42.2498C89.1207 40.933 89.8106 39.6145 90.4436 38.2695C91.3477 36.3509 92.2081 34.3476 92.6251 32.2635C92.8146 31.3154 92.9624 30.2338 92.6364 29.2952C92.3123 28.3622 91.4898 27.7547 90.4796 27.7961C89.3463 27.8431 88.2773 28.4657 87.3695 29.0921C86.437 29.7335 85.5747 30.4727 84.7484 31.244C83.706 32.2183 82.7925 33.283 82.0154 34.4793C81.1076 35.875 80.3703 37.3685 79.6103 38.847C79.4189 39.2194 79.2256 39.5919 79.0266 39.9606C79.2995 40.1186 79.5724 40.2766 79.8453 40.4346C80.2661 39.6464 80.6129 38.8131 80.8858 37.9648C81.1815 37.0431 81.4108 36.0462 81.3558 35.0737C81.3085 34.2423 81.0317 33.3845 80.3229 32.8804C79.8662 32.555 79.2862 32.508 78.7555 32.6585C78.1529 32.8296 77.6241 33.2021 77.1484 33.5952C76.5893 34.0579 76.0908 34.5903 75.6208 35.1414C74.6049 36.334 73.7085 37.6281 72.8764 38.9523C72.5599 39.4583 72.251 39.9681 71.9591 40.4891C71.7696 40.8277 71.546 41.1249 71.3072 41.4296C70.9319 41.9074 70.5187 42.4379 70.5168 43.0736C70.5339 43.6774 71.4815 43.6774 71.4815 43.0718Z" fill="#222221"/>
<path d="M77.5217 113.151C74.6902 116.531 72.901 120.603 71.2976 124.663C70.4922 126.703 69.7322 128.763 68.9058 130.797C68.5135 131.76 68.106 132.717 67.6682 133.659C67.1262 134.824 66.6713 136.022 66.2183 137.224C65.9682 137.888 65.7161 138.552 65.4337 139.203C65.1513 139.852 64.8234 140.474 64.5088 141.106C64.2416 141.646 64.0236 142.18 63.8758 142.764C63.7621 143.213 63.6616 143.779 63.3451 144.114C62.9282 144.556 63.5972 145.222 64.016 144.78C64.7021 144.054 64.6794 143.006 65.0641 142.139C65.3143 141.575 65.6138 141.033 65.8848 140.478C66.1748 139.887 66.4287 139.28 66.6713 138.67C67.1413 137.493 67.5545 136.295 68.0435 135.125C68.4756 134.09 68.9703 133.08 69.4062 132.046C71.1043 128.016 72.4575 123.842 74.3774 119.905C75.4274 117.752 76.648 115.66 78.1926 113.817C78.3556 113.621 78.3859 113.343 78.1926 113.151C78.0239 112.983 77.6866 112.953 77.5217 113.151Z" fill="#222221"/>
<path d="M108.75 160.407C108.354 157.757 107.565 155.19 106.8 152.628C106.053 150.132 105.411 147.609 104.749 145.089C104.416 143.815 104.072 142.544 103.695 141.281C103.322 140.032 102.886 138.806 102.475 137.568C101.669 135.142 101.04 132.663 100.235 130.236C99.3457 127.554 98.0209 125.028 97.3955 122.261C97.2628 121.67 96.3474 121.92 96.482 122.511C96.7568 123.724 97.1491 124.903 97.6078 126.06C98.0778 127.247 98.599 128.411 99.0235 129.617C99.8707 132.015 100.502 134.48 101.266 136.904C101.654 138.14 102.105 139.353 102.494 140.589C102.888 141.844 103.242 143.112 103.582 144.383C104.256 146.909 104.872 149.452 105.611 151.962C106.457 154.832 107.391 157.691 107.835 160.658C107.872 160.91 108.193 161.047 108.418 160.987C108.689 160.912 108.788 160.66 108.75 160.407Z" fill="#222221"/>
<path d="M153.984 146.83C152.112 143.723 150.241 140.617 148.369 137.51C146.505 134.418 144.641 131.323 142.777 128.231C140.905 125.123 139.034 122.018 137.162 118.91C136.229 117.364 135.299 115.818 134.366 114.27C133.483 112.805 132.63 111.319 131.671 109.902C129.901 107.29 127.864 104.829 126.416 102.013C126.241 101.675 126.078 101.332 125.925 100.983C125.822 100.749 125.479 100.697 125.277 100.813C125.034 100.954 125.004 101.223 125.106 101.457C126.378 104.353 128.387 106.857 130.199 109.43C131.144 110.773 131.995 112.167 132.843 113.572C133.775 115.118 134.706 116.665 135.638 118.213C137.511 121.32 139.381 124.426 141.254 127.533C143.126 130.64 144.997 133.746 146.869 136.853C148.732 139.946 150.597 143.04 152.46 146.132C152.695 146.522 152.93 146.913 153.165 147.302C153.478 147.823 154.297 147.351 153.984 146.83Z" fill="#222221"/>
<path d="M54.5815 32.824C55.2789 33.4053 56.02 33.9357 56.8065 34.3928C57.1723 34.6053 57.5532 34.7746 57.8735 35.0511C58.0441 35.1979 58.2185 35.3427 58.4175 35.4537C58.6013 35.5553 58.8003 35.6305 58.9823 35.7358C59.3045 35.9221 59.5508 36.2211 59.8219 36.4675C60.1308 36.7478 60.4738 37.0018 60.8756 37.1334C61.0936 37.2049 61.3362 37.2068 61.5466 37.299C61.7171 37.3723 61.8706 37.4927 62.0185 37.5999C62.3767 37.8576 62.7614 38.042 63.1651 38.2225C63.5498 38.3956 63.9175 38.5874 64.2454 38.8527C64.5865 39.1311 64.8765 39.4659 65.2385 39.7198C65.392 39.827 65.5569 39.9154 65.7199 40.0095C65.8052 40.0584 65.8905 40.1073 65.9739 40.1619C66.0023 40.1807 66.0288 40.2032 66.0592 40.2202C66.0781 40.2371 66.0971 40.2521 66.116 40.2691C66.0781 40.2014 66.0686 40.192 66.0895 40.239C66.0743 40.4365 66.3946 40.6584 66.5368 40.7318C66.7509 40.8409 66.9897 40.8936 67.2134 40.9745C68.0587 41.2792 68.8983 41.5745 69.7246 41.9281C70.1302 42.1012 70.5661 42.2291 70.9622 42.4228C71.2825 42.5808 71.5592 42.7915 71.8227 43.0304C72.4045 43.559 73.0546 44.3471 73.8885 44.4336C74.0401 44.4487 74.1841 44.4242 74.313 44.5108C74.4533 44.6048 74.5632 44.7628 74.675 44.8888C74.946 45.1917 75.2872 45.4325 75.6378 45.6375C76.3656 46.0607 77.137 46.3767 77.8306 46.8601C78.5944 47.3925 79.3146 47.9192 80.1864 48.269C81.0336 48.6095 81.9206 48.8164 82.7318 49.2453C83.126 49.4541 83.5088 49.6817 83.9049 49.8867C84.3086 50.0974 84.7313 50.2704 85.1407 50.4736C85.9423 50.8723 86.7744 51.3144 87.468 51.8824C88.1409 52.4317 88.7246 53.0919 89.4656 53.5584C89.8295 53.7879 90.2503 53.9102 90.6123 54.1453C90.7885 54.2582 90.9439 54.3992 91.124 54.5083C91.3173 54.625 91.5239 54.7171 91.7286 54.8131C92.4696 55.1648 93.0439 55.6971 93.694 56.1824C94.0218 56.427 94.3649 56.632 94.7458 56.7825C95.1457 56.9405 95.5115 57.1455 95.8982 57.3336C96.0896 57.4258 96.2848 57.501 96.4629 57.6177C96.6165 57.7192 96.7586 57.834 96.9216 57.9186C97.2476 58.0898 97.6039 58.1801 97.9526 58.2911C98.2767 58.3945 98.5439 58.5318 98.7638 58.7952C98.9268 58.9908 99.2641 58.9626 99.4347 58.7952C99.6299 58.6014 99.5996 58.3268 99.4347 58.1293C99.1732 57.817 98.8301 57.6139 98.4511 57.4691C98.1459 57.3505 97.818 57.2904 97.5167 57.1624C97.1661 57.012 96.8818 56.7467 96.5293 56.5906C96.1104 56.4025 95.7238 56.158 95.2974 55.9868C94.9335 55.842 94.6075 55.684 94.2872 55.4564C93.9839 55.2382 93.7053 54.9899 93.4116 54.7604C93.0761 54.4989 92.735 54.2582 92.3521 54.0701C91.9408 53.8669 91.5675 53.6713 91.1941 53.4042C90.8416 53.1521 90.4265 53.0261 90.0532 52.8117C89.6912 52.6029 89.3766 52.3282 89.0695 52.0499C88.4005 51.4423 87.741 50.8799 86.9658 50.4077C86.1679 49.9205 85.3245 49.5537 84.4944 49.1324C83.687 48.7223 82.9289 48.2276 82.0684 47.9267C81.1966 47.6219 80.3115 47.3831 79.5231 46.8902C78.7858 46.4294 78.1244 45.8594 77.3492 45.4569C76.6594 45.0976 75.8747 44.8136 75.3459 44.223C75.0711 43.9164 74.7887 43.6003 74.3585 43.5307C74.1804 43.5007 73.9889 43.5326 73.8241 43.4555C73.6421 43.3709 73.4772 43.2448 73.3237 43.1188C72.7343 42.6279 72.2263 42.0297 71.5422 41.6629C71.1555 41.456 70.7291 41.3356 70.3235 41.1663C69.8933 40.9876 69.4706 40.792 69.0347 40.6208C68.6102 40.4553 68.1724 40.3293 67.7459 40.1713C67.5507 40.0979 67.3574 40.0283 67.1584 39.9662C67.1167 39.9531 67.075 39.9361 67.0314 39.9267C67.0068 39.9211 66.876 39.8872 66.9708 39.9248C67.0087 39.9399 66.9973 39.9832 66.9727 39.9117C66.9405 39.812 66.895 39.7311 66.8249 39.654C66.5557 39.3493 66.1482 39.1913 65.8109 38.9749C65.4678 38.7549 65.2006 38.4219 64.8841 38.1661C64.5316 37.8821 64.162 37.6507 63.7488 37.4607C63.3641 37.2839 62.9699 37.1221 62.6212 36.8795C62.2478 36.618 61.9123 36.4017 61.4575 36.3058C61.067 36.2249 60.7847 36.0725 60.4928 35.8054C60.1971 35.5364 59.928 35.2374 59.5963 35.0116C59.2552 34.7784 58.8629 34.6655 58.5464 34.3909C58.2014 34.0899 57.8299 33.8924 57.4319 33.6667C57.0434 33.4485 56.6663 33.2115 56.2986 32.9595C55.9366 32.7093 55.5897 32.4441 55.2524 32.1619C55.0572 31.9983 54.7748 31.9719 54.5815 32.1619C54.4128 32.3274 54.3844 32.6604 54.5815 32.824Z" fill="#222221"/>
<path d="M55.9005 73.6006C56.3743 73.5066 56.5203 73.104 56.4615 72.6752C56.4085 72.2952 55.9043 72.2651 55.6693 72.4682C55.385 72.7147 55.2391 73.0909 55.1348 73.4407C55.023 73.8169 54.9358 74.2007 54.8562 74.5844C54.7615 75.0415 54.6629 75.4929 54.4544 75.9143C54.2422 76.3412 53.9844 76.7438 53.7437 77.1538C53.2661 77.9702 52.961 78.8731 52.4815 79.6876C52.0494 80.4249 51.4694 81.072 50.9103 81.7153C50.3436 82.368 49.7694 83.0207 49.2842 83.7374C48.7762 84.486 48.4654 85.3118 48.092 86.1282C47.7187 86.9464 47.1994 87.6781 46.7313 88.4456C46.5019 88.8236 46.2688 89.1998 46.0073 89.5554C45.7514 89.9015 45.4406 90.2024 45.1828 90.5467C44.9364 90.8777 44.7412 91.2351 44.4531 91.5342C44.1385 91.8615 43.877 92.185 43.6401 92.5725C43.1397 93.3945 42.6356 94.2184 42.2281 95.0912C41.796 96.0166 41.3752 96.9459 40.9526 97.8732C40.5489 98.7592 40.2002 99.6997 39.6752 100.524C39.4231 100.92 39.1426 101.297 38.8906 101.694C38.6461 102.081 38.449 102.491 38.2594 102.907C37.8709 103.753 37.4994 104.6 36.9972 105.39C36.495 106.18 36.2694 107.103 35.8525 107.935C35.4014 108.834 34.8916 109.701 34.3817 110.568C33.8871 111.409 33.3981 112.257 32.9887 113.143C32.5907 114.005 32.1188 114.968 32.1169 115.935C32.1169 116.132 32.1396 116.337 32.1074 116.535C32.0676 116.779 31.9577 117.02 31.8819 117.255C31.736 117.716 31.6052 118.182 31.4971 118.655C31.391 119.112 31.3266 119.571 31.1598 120.009C31.0233 120.366 30.8926 120.697 30.8509 121.077C30.8338 121.233 30.8357 121.262 30.7997 121.401C30.7978 121.41 30.7713 121.489 30.7978 121.422C30.7826 121.459 30.7713 121.446 30.7883 121.45C30.8111 121.455 30.7637 121.446 30.7807 121.455C30.758 121.442 30.9191 121.41 30.7675 121.433C30.5135 121.47 30.3752 121.787 30.4358 122.012C30.5097 122.281 30.7656 122.379 31.0195 122.341C31.3796 122.287 31.6203 121.986 31.7132 121.653C31.7568 121.499 31.7701 121.337 31.7871 121.177C31.789 121.156 31.8118 120.978 31.7966 121.068C31.8099 120.987 31.8326 120.91 31.8572 120.831C31.9937 120.41 32.1832 120.016 32.2685 119.578C32.3633 119.085 32.477 118.598 32.6116 118.115C32.7404 117.654 32.9508 117.193 33.0285 116.721C33.1043 116.266 33.0171 115.811 33.1328 115.359C33.3678 114.445 33.8113 113.551 34.2491 112.718C35.1777 110.952 36.3623 109.304 37.0976 107.442C37.2625 107.024 37.4085 106.597 37.6188 106.199C37.833 105.79 38.1021 105.412 38.3163 105.002C38.7484 104.169 39.0649 103.274 39.5312 102.457C39.9955 101.645 40.5944 100.934 40.9829 100.078C41.4018 99.1542 41.8225 98.2287 42.2433 97.3051C42.664 96.3872 43.062 95.4561 43.5529 94.572C43.7898 94.1469 44.04 93.7293 44.2921 93.3136C44.5195 92.9393 44.7299 92.5951 45.0369 92.2809C45.361 91.9518 45.5998 91.585 45.8613 91.2069C46.0982 90.8664 46.392 90.5767 46.6479 90.2513C47.1994 89.546 47.6163 88.7559 48.1072 88.0092C48.6265 87.2191 48.9961 86.3877 49.3695 85.5243C49.7068 84.7437 50.1768 84.0402 50.7151 83.3819C51.2571 82.7179 51.8409 82.0915 52.381 81.4237C52.6615 81.0776 52.9382 80.724 53.177 80.3478C53.4405 79.934 53.6471 79.4901 53.8499 79.0443C54.0451 78.6135 54.2365 78.1828 54.4696 77.7708C54.7046 77.357 54.9643 76.9582 55.186 76.5369C55.6181 75.7149 55.7432 74.827 55.9725 73.9373C56.0446 73.657 56.1128 73.3147 56.3326 73.1247C56.0692 73.0551 55.8039 72.9855 55.5404 72.9178C55.5234 72.8463 55.5499 72.7918 55.6219 72.756C55.7281 72.6789 55.7337 72.6545 55.6409 72.6864C55.3907 72.7372 55.2448 73.0325 55.3092 73.2658C55.3888 73.531 55.6485 73.6495 55.9005 73.6006Z" fill="#222221"/>
<path d="M78.5527 113.162C78.5527 112.901 78.5527 112.637 78.5527 112.376C78.2362 112.376 77.9216 112.376 77.6051 112.376C77.6639 112.85 77.4099 113.303 77.2185 113.721C76.9664 114.27 76.6651 114.791 76.3997 115.333C75.8634 116.424 75.2663 117.498 74.6201 118.53C74.296 119.048 73.8676 119.435 73.4298 119.855C72.9882 120.278 72.6736 120.731 72.3931 121.273C72.1088 121.824 71.8018 122.356 71.5459 122.923C71.2939 123.478 71.0513 124.038 70.803 124.595C70.5377 125.189 70.2761 125.786 70.0411 126.393C69.8156 126.976 69.6393 127.574 69.4346 128.165C69.2205 128.784 68.9589 129.388 68.7656 130.012C68.5875 130.59 68.4832 131.184 68.3335 131.769C68.2596 132.053 68.1857 132.347 68.0549 132.61C67.9222 132.883 67.7839 133.15 67.7043 133.445C67.5507 134.015 67.4484 134.606 67.3233 135.181C67.1925 135.794 67.0523 136.406 66.7926 136.981C66.5557 137.508 66.2714 138.012 65.9872 138.516C65.4224 139.513 64.9106 140.503 64.5866 141.603C64.4634 142.022 64.3307 142.476 64.1525 142.848C64.1071 142.946 64.0559 143.042 64.0009 143.136C63.9592 143.206 63.8815 143.32 63.8758 143.33C63.8512 143.36 63.8247 143.39 63.7981 143.418C63.7849 143.431 63.6825 143.525 63.7128 143.501C63.7621 143.461 63.6503 143.54 63.656 143.539C63.6313 143.554 63.6067 143.567 63.5821 143.578C63.6313 143.557 63.6313 143.557 63.5802 143.574C63.0021 143.76 63.2504 144.669 63.8322 144.481C64.6624 144.214 65.0263 143.296 65.284 142.547C65.411 142.18 65.5114 141.804 65.6252 141.434C65.7711 140.962 65.9777 140.516 66.2051 140.077C66.7718 138.99 67.4673 137.961 67.8805 136.801C68.0985 136.189 68.2027 135.546 68.3505 134.916C68.4832 134.352 68.5401 133.752 68.8016 133.229C69.0878 132.657 69.2432 132.057 69.3835 131.436C69.5256 130.81 69.6867 130.204 69.9122 129.602C70.3709 128.379 70.7348 127.123 71.2465 125.921C71.7336 124.772 72.2169 123.596 72.8025 122.492C72.9465 122.219 73.1039 121.956 73.2441 121.681C73.373 121.433 73.5 121.173 73.6781 120.955C74.0723 120.472 74.5992 120.112 74.9915 119.629C75.4274 119.095 75.7288 118.482 76.0794 117.893C76.4414 117.289 76.7939 116.683 77.0991 116.049C77.408 115.408 77.7605 114.789 78.0581 114.144C78.3063 113.602 78.6229 112.997 78.547 112.381C78.5167 112.129 78.3518 111.911 78.0732 111.911C77.8174 111.911 77.5975 112.126 77.5994 112.381C77.6013 112.643 77.5994 112.906 77.5994 113.168C77.6051 113.766 78.5527 113.768 78.5527 113.162Z" fill="#222221"/>
<path d="M73.4545 99.4457C73.7616 99.7542 74.0951 100.051 74.4988 100.224C74.9272 100.409 75.3593 100.42 75.8198 100.437C76.3202 100.456 76.8186 100.525 77.3171 100.461C77.8155 100.397 78.1946 100.16 78.5736 99.8463C78.7139 99.7297 78.8504 99.6056 79.0001 99.5002C79.0721 99.4494 79.1877 99.3573 79.2749 99.3404C79.3317 99.3291 79.4265 99.3592 79.4947 99.3554C79.779 99.3385 79.9989 99.1767 80.213 99.0093C80.3988 98.8645 80.5997 98.7685 80.8214 98.6895C81.3312 98.5089 81.8562 98.3848 82.3338 98.1196C82.548 97.9992 82.7546 97.8638 82.9725 97.7509C83.1924 97.6362 83.4293 97.5666 83.6624 97.4819C84.0945 97.3239 84.4925 97.1001 84.7901 96.7427C85.0213 96.4643 85.2052 96.1539 85.3947 95.8473C85.5691 95.5652 85.7358 95.2943 85.969 95.1137C86.077 95.0291 86.1661 94.9877 86.3082 94.9557C86.3632 94.9425 86.3992 94.9425 86.4883 94.9407C86.5451 94.9388 86.674 94.9632 86.7271 94.9388C86.5792 95.0065 86.439 94.7544 86.3764 94.6754C86.3859 94.6867 86.3973 94.8015 86.3802 94.6886C86.3916 94.7676 86.403 94.8485 86.4105 94.9294C86.4352 95.172 86.4257 95.4203 86.3726 95.6592C86.2589 96.1784 85.9671 96.6223 85.7036 97.0775C85.4497 97.5158 85.2696 98.0086 84.955 98.4111C84.6233 98.8362 84.3352 99.2595 84.0832 99.7372C83.833 100.211 83.5714 100.672 83.2834 101.125C83.0123 101.556 82.8342 102.017 82.6049 102.467C82.3907 102.888 82.0988 103.251 81.7918 103.608C81.4374 104.02 81.0887 104.438 80.7665 104.876C80.4348 105.326 80.1315 105.796 79.8795 106.294C79.6217 106.804 79.3488 107.329 79.1422 107.863C78.9565 108.339 78.8826 108.847 78.7291 109.334C78.5793 109.812 78.3746 110.271 78.1832 110.736C77.8193 111.623 77.4877 112.588 77.7189 113.553C77.8402 114.059 78.1283 114.469 78.4561 114.864C78.7537 115.222 79.0683 115.566 79.436 115.854C79.8454 116.174 80.3097 116.422 80.8442 116.429C81.39 116.437 81.8524 116.168 82.131 115.709C82.2239 115.557 82.2997 115.408 82.4172 115.273C82.5992 115.062 82.802 114.872 83.0048 114.68C83.3952 114.308 83.7117 113.882 84.0775 113.489C84.4092 113.134 84.8053 112.85 85.1294 112.485C85.4478 112.126 85.7264 111.732 86.0012 111.339C86.6607 110.397 87.2881 109.438 87.9249 108.48C88.0784 108.249 88.2243 108.006 88.3949 107.788C88.5484 107.592 88.7398 107.427 88.9256 107.261C89.3122 106.917 89.6363 106.545 89.9736 106.155C90.3584 105.715 90.7545 105.29 91.1089 104.824C91.4235 104.41 91.7514 104.03 92.1285 103.67C92.4849 103.33 92.826 102.974 93.0667 102.542C93.3624 102.011 92.5436 101.537 92.248 102.068C92.0205 102.478 91.6851 102.786 91.3496 103.11C90.963 103.48 90.6389 103.891 90.3167 104.316C89.9774 104.763 89.5832 105.166 89.2155 105.591C88.882 105.977 88.5503 106.328 88.1712 106.669C87.7713 107.028 87.4776 107.446 87.1819 107.891C86.8635 108.369 86.5489 108.849 86.2324 109.327C85.6752 110.167 85.1312 111.059 84.4584 111.817C84.1343 112.182 83.7382 112.466 83.4066 112.822C83.0597 113.194 82.7641 113.602 82.3945 113.954C82.0363 114.294 81.6553 114.637 81.4052 115.069C81.3275 115.203 81.2763 115.346 81.1398 115.419C80.9579 115.521 80.7361 115.494 80.5466 115.429C80.1543 115.293 79.8321 114.972 79.5535 114.68C79.254 114.366 78.9262 114.024 78.7404 113.629C78.3652 112.822 78.7291 111.889 79.0361 111.123C79.2142 110.677 79.4113 110.241 79.5705 109.787C79.7354 109.313 79.8188 108.817 79.9705 108.339C80.1316 107.839 80.4045 107.355 80.6357 106.883C80.8745 106.394 81.1626 105.931 81.4791 105.489C82.0552 104.682 82.8133 103.994 83.3118 103.136C83.5696 102.694 83.7269 102.207 83.9922 101.769C84.2632 101.323 84.5399 100.888 84.7825 100.426C85.0137 99.9818 85.245 99.5322 85.5634 99.141C85.9045 98.7234 86.13 98.2719 86.3783 97.7998C86.6266 97.3277 86.9223 96.8913 87.1251 96.3947C87.3222 95.9113 87.4056 95.3714 87.343 94.8523C87.2975 94.476 87.2445 94.0434 86.746 94.0002C86.3878 93.9701 86.0182 94.0227 85.6941 94.1789C85.0308 94.4986 84.6896 95.204 84.3144 95.7909C84.1305 96.0768 83.9713 96.2988 83.6416 96.4718C83.2265 96.69 82.7603 96.7841 82.3471 97.0173C82.1329 97.1377 81.9264 97.2731 81.7065 97.386C81.4715 97.5064 81.2137 97.576 80.9617 97.655C80.7096 97.734 80.4613 97.8167 80.2206 97.9202C79.9723 98.0274 79.7828 98.1647 79.5687 98.3246C79.5289 98.3547 79.4663 98.4074 79.4284 98.4186C79.3299 98.4469 79.1934 98.4017 79.0854 98.4243C78.8617 98.4694 78.6495 98.5955 78.4656 98.729C78.1377 98.966 77.8383 99.3272 77.4554 99.4777C77.0726 99.6281 76.5836 99.5473 76.1856 99.5209C75.7819 99.4946 75.3555 99.5379 74.967 99.4081C74.6542 99.3027 74.3643 99.03 74.1179 98.7836C73.6952 98.3491 73.0262 99.0149 73.4545 99.4457Z" fill="#222221"/>
<path d="M83.5278 117.872C83.5866 117.883 83.6472 117.897 83.706 117.908C83.596 117.799 83.4861 117.69 83.3743 117.579C83.4387 117.774 83.4406 117.976 83.4728 118.177C83.5013 118.361 83.5581 118.536 83.6264 118.709C83.7799 119.099 83.9827 119.431 84.3162 119.695C84.917 120.171 85.823 120.496 86.5981 120.432C86.9639 120.402 87.3449 120.25 87.6822 120.205C88.0366 120.156 88.355 120.114 88.6526 119.898C88.9843 119.659 89.2951 119.463 89.6912 119.345C90.057 119.236 90.4322 119.166 90.798 119.061C91.2188 118.941 91.613 118.781 91.9484 118.497C92.2289 118.26 92.4317 117.949 92.6649 117.669C92.9378 117.344 93.2505 117.052 93.5272 116.728C93.8077 116.397 94.0522 116.04 94.3346 115.711C94.8728 115.084 95.5229 114.569 96.1313 114.014C96.4383 113.734 96.7416 113.442 96.9993 113.115C97.2514 112.797 97.4466 112.443 97.6778 112.112C97.7934 111.949 97.928 111.787 98.0872 111.665C98.2502 111.541 98.4359 111.454 98.5913 111.317C98.7657 111.161 98.8946 110.957 98.942 110.728C98.9837 110.527 98.9533 110.316 98.995 110.119C99.0727 109.742 99.3987 109.353 99.6432 109.065C99.9559 108.697 100.307 108.362 100.65 108.021C100.426 107.799 100.202 107.577 99.9787 107.355C99.8574 107.476 99.7361 107.596 99.6148 107.717C99.1827 108.145 99.8536 108.809 100.286 108.382C100.407 108.262 100.528 108.142 100.65 108.021C101.082 107.592 100.413 106.928 99.9787 107.355C99.4063 107.922 98.8131 108.486 98.398 109.18C98.1839 109.537 98.0512 109.88 98.0341 110.297C98.0284 110.418 98.0436 110.517 97.9697 110.606C97.873 110.722 97.693 110.786 97.5717 110.877C96.9463 111.336 96.6847 112.05 96.1882 112.618C95.6594 113.222 95.0226 113.721 94.4312 114.262C94.1413 114.528 93.8627 114.804 93.6106 115.105C93.3491 115.417 93.1178 115.752 92.8544 116.063C92.5872 116.379 92.282 116.661 92.0148 116.975C91.793 117.236 91.6035 117.528 91.3514 117.763C90.8454 118.235 90.002 118.256 89.3671 118.457C88.9653 118.585 88.5863 118.766 88.2508 119.021C88.139 119.106 88.012 119.194 87.9134 119.221C87.8774 119.23 87.7751 119.251 87.7751 119.249C87.7561 119.253 87.614 119.268 87.5552 119.275C87.1724 119.326 86.7971 119.503 86.4105 119.494C86.0523 119.486 85.6581 119.377 85.3359 119.225C84.9985 119.065 84.7142 118.854 84.5588 118.51C84.4868 118.35 84.4205 118.171 84.392 117.998C84.356 117.772 84.356 117.545 84.284 117.325C84.2347 117.174 84.1172 117.029 83.9524 116.996C83.8936 116.984 83.8329 116.971 83.7742 116.96C83.524 116.909 83.2625 117.031 83.1905 117.289C83.1336 117.526 83.2776 117.821 83.5278 117.872Z" fill="#222221"/>
<path d="M37.3062 62.4838C37.8521 62.7979 38.2595 63.2926 38.8073 63.6068C39.3247 63.9021 39.6981 64.361 40.1851 64.6959C40.4277 64.8633 40.6987 64.978 40.9679 65.0965C41.2825 65.2376 41.5782 65.4088 41.8814 65.5705C42.4405 65.8696 43.0185 66.1386 43.6345 66.2985C44.2903 66.4697 44.9498 66.6258 45.5961 66.8308C45.9088 66.9305 46.2291 67.0302 46.5305 67.16C46.8015 67.2766 47.0005 67.4854 47.2582 67.6227C47.5255 67.7638 47.8192 67.8277 48.1035 67.9256C48.4238 68.0347 48.7252 68.2058 49.017 68.3732C49.5686 68.693 50.1011 69.0335 50.5863 69.4492C51.0545 69.8498 51.4979 70.2806 51.9831 70.6624C52.5328 71.0951 53.1373 71.4449 53.7211 71.8287C54.9189 72.6168 56.1072 73.4106 57.3183 74.178C57.9134 74.5542 58.4877 74.9643 59.06 75.3744C59.6267 75.7807 60.218 76.1587 60.7733 76.582C61.3116 76.992 61.7949 77.4679 62.3331 77.8761C62.8771 78.2881 63.4665 78.6304 64.0275 79.0179C64.5696 79.3922 65.0036 79.8907 65.5399 80.2725C65.756 80.4268 65.9986 80.4907 66.2298 80.6073C66.5368 80.7616 66.8287 80.9422 67.1395 81.0926C67.7138 81.3673 68.3032 81.6363 68.8358 81.988C69.2982 82.2946 69.5541 82.7517 69.9426 83.1298C70.3766 83.5549 70.9566 83.7035 71.4437 84.0477C71.9251 84.3863 72.2416 84.9167 72.6585 85.323C72.8651 85.5243 73.0944 85.7143 73.3674 85.8159C73.6479 85.9212 73.8658 86.004 74.0951 86.2071C74.5576 86.6153 74.9632 86.9652 75.5412 87.2097C76.1136 87.4523 76.7125 87.6198 77.2981 87.8248C77.9387 88.0486 78.4467 88.4023 79.0247 88.739C79.5895 89.0663 80.1979 89.3352 80.7854 89.6212C81.426 89.9334 82.1443 90.0425 82.783 90.3566C83.3649 90.6407 83.8576 91.0658 84.4433 91.3498C85.0441 91.6414 85.5975 92.0138 86.1679 92.358C86.7479 92.7079 87.362 92.9694 87.9628 93.2778C88.5636 93.5863 89.1492 93.9249 89.7595 94.2146C91.0103 94.8052 92.3522 95.1833 93.5974 95.7909C94.78 96.3683 95.8205 97.2712 97.0846 97.6794C97.6494 97.8619 98.2483 97.8468 98.8074 98.0556C99.4272 98.287 99.9996 98.5409 100.646 98.7008C101.254 98.8494 101.616 99.2914 102.137 99.598C102.736 99.9517 103.375 99.9442 104.035 100.076C104.349 100.138 104.649 100.256 104.963 100.322C105.291 100.39 105.625 100.424 105.96 100.433C106.57 100.45 106.57 99.5096 105.96 99.4927C105.291 99.4739 104.702 99.2237 104.048 99.1297C103.394 99.0356 102.837 98.983 102.3 98.5672C102.073 98.3904 101.853 98.1892 101.597 98.05C101.311 97.892 100.993 97.8148 100.676 97.7434C100.03 97.5948 99.4613 97.2656 98.8321 97.07C98.2787 96.8969 97.6911 96.9232 97.1472 96.7051C96.5426 96.4624 95.9854 96.0918 95.4339 95.7514C94.2645 95.0272 93.0345 94.5005 91.7495 94.0114C91.107 93.7669 90.4664 93.5243 89.8523 93.212C89.2496 92.9054 88.664 92.5649 88.0537 92.2734C87.4624 91.9894 86.8938 91.7016 86.3366 91.3573C85.7491 90.9943 85.1464 90.682 84.5399 90.351C83.9808 90.0463 83.5127 89.6324 82.9157 89.3917C82.2694 89.1302 81.6023 88.9816 80.9806 88.6618C80.3798 88.3534 79.7468 88.1051 79.1839 87.7289C78.6532 87.3733 78.1036 87.11 77.499 86.9012C76.9191 86.6999 76.3145 86.5457 75.7573 86.2824C75.2209 86.0303 74.8703 85.5789 74.3908 85.244C74.152 85.0766 73.8791 85.0371 73.6289 84.9055C73.3825 84.7738 73.1816 84.5123 73.0016 84.3054C72.6017 83.8464 72.2264 83.3912 71.6844 83.0884C71.1745 82.8044 70.7254 82.6276 70.3501 82.1667C69.9767 81.7059 69.5996 81.3353 69.0841 81.0287C68.5439 80.707 67.9678 80.4512 67.403 80.1728C67.1225 80.0336 66.859 79.8549 66.5747 79.7289C66.3037 79.6085 66.0801 79.5145 65.8489 79.3207C65.3352 78.8862 64.8633 78.4404 64.2985 78.0642C63.7489 77.6974 63.1746 77.3626 62.6629 76.9412C62.1266 76.4992 61.6205 76.0233 61.0501 75.6227C60.4929 75.2314 59.9356 74.8458 59.3822 74.4489C58.2242 73.6213 57.0037 72.8971 55.8229 72.1052C55.2278 71.7064 54.6365 71.3001 54.0357 70.9088C53.4766 70.5439 52.9023 70.2129 52.3906 69.7821C51.9187 69.3852 51.479 68.9545 50.9995 68.567C50.4991 68.1626 49.9533 67.8146 49.3923 67.4986C49.108 67.3387 48.8161 67.192 48.5129 67.0716C48.2248 66.9587 47.9064 66.9155 47.643 66.7499C47.4269 66.6164 47.2488 66.449 47.0157 66.3417C46.6783 66.1894 46.3201 66.0709 45.9676 65.9561C45.344 65.753 44.7072 65.5893 44.0685 65.4313C43.4241 65.2715 42.8423 65.0138 42.2604 64.6977C41.7468 64.4194 41.1384 64.22 40.6665 63.8776C40.4315 63.7064 40.2306 63.492 40.0127 63.302C39.7549 63.0782 39.4839 62.9051 39.192 62.7321C38.6841 62.4311 38.305 61.959 37.7895 61.6637C37.257 61.3683 36.7793 62.1809 37.3062 62.4838Z" fill="#222221"/>
<path d="M101.43 69.722C101.815 69.9157 102.196 70.1057 102.547 70.3577C102.913 70.6211 103.257 70.9108 103.612 71.1873C103.985 71.4788 104.366 71.7553 104.758 72.0224C105.115 72.2632 105.484 72.4889 105.79 72.7937C106.078 73.0815 106.343 73.3805 106.659 73.6382C106.995 73.911 107.346 74.1668 107.672 74.4508C107.975 74.7123 108.25 74.9888 108.462 75.3293C108.697 75.7073 108.915 76.0817 109.19 76.4334C109.688 77.0692 110.251 77.6561 110.715 78.3163C110.954 78.6568 111.164 79.0142 111.331 79.396C111.498 79.776 111.638 80.171 111.87 80.519C112.37 81.2789 112.969 81.9655 113.568 82.6464C114.043 83.1881 114.364 83.9161 114.468 84.6252C114.527 85.024 114.515 85.4529 114.498 85.8554C114.481 86.2485 114.413 86.6379 114.203 86.9765C113.842 87.5615 113.043 87.7928 112.391 87.7872C111.78 87.7834 111.78 88.7239 112.391 88.7277C113.137 88.7334 113.939 88.4945 114.525 88.028C115.213 87.4806 115.429 86.5777 115.45 85.7425C115.47 84.8886 115.391 84.0779 115.052 83.2859C114.879 82.8853 114.665 82.5147 114.394 82.1705C114.11 81.8094 113.778 81.4915 113.494 81.1284C113.217 80.7748 112.933 80.4155 112.686 80.0412C112.434 79.6575 112.29 79.2192 112.099 78.8035C111.724 77.9928 111.142 77.2987 110.567 76.6196C110.296 76.298 110.014 75.982 109.77 75.6396C109.51 75.2785 109.322 74.8722 109.051 74.5167C108.494 73.785 107.689 73.3297 107.025 72.709C106.65 72.3573 106.333 71.9717 105.909 71.6688C105.454 71.3453 104.982 71.0481 104.535 70.7151C104.095 70.3878 103.676 70.0323 103.237 69.7013C102.818 69.3853 102.374 69.1426 101.906 68.9075C101.366 68.6347 100.886 69.4473 101.43 69.722Z" fill="#222221"/>
<path d="M95.9664 57.2113C96.5862 57.375 97.0202 56.8822 97.3064 56.4081C97.4314 56.1993 97.5376 55.9793 97.6665 55.7724C97.6911 55.7329 97.7176 55.6934 97.7442 55.6539C97.7764 55.6087 97.7271 55.6783 97.7252 55.6802C97.7517 55.652 97.7783 55.6256 97.8067 55.5974C97.9526 55.4526 98.1062 55.3134 98.2578 55.1761C98.8946 54.6005 99.4025 53.9591 99.9048 53.2668C100.145 52.9358 100.335 52.6104 100.515 52.2436C100.684 51.8956 100.913 51.6228 101.169 51.3369C101.444 51.0303 101.72 50.7218 101.954 50.3814C102.171 50.0635 102.363 49.7381 102.613 49.4428C103.123 48.8408 103.695 48.2972 104.18 47.6746C104.673 47.0426 105.102 46.3654 105.596 45.7334C106.083 45.1108 106.665 44.5728 107.15 43.9483C107.636 43.3219 107.979 42.6316 108.382 41.9563C108.792 41.2716 109.3 40.7186 109.851 40.1468C110.135 39.8533 110.395 39.5392 110.641 39.2157C110.761 39.0596 110.875 38.8997 110.988 38.7379C111.079 38.6081 111.165 38.4238 111.282 38.3166C111.405 38.2056 111.583 38.2488 111.724 38.1717C111.892 38.0796 112.053 37.9234 112.177 37.7767C112.406 37.5058 112.575 37.1654 112.859 36.9415C113.164 36.7008 113.503 36.507 113.805 36.2606C114.117 36.0048 114.413 35.7321 114.709 35.4574C115.328 34.88 115.961 34.3326 116.617 33.7965C117.915 32.7375 119.225 31.6973 120.319 30.422C120.584 30.1116 120.834 29.7918 121.118 29.5003C121.393 29.22 121.689 28.9566 121.977 28.6877C122.276 28.4074 122.557 28.1102 122.875 27.8506C123.18 27.6023 123.514 27.3879 123.844 27.1716C124.551 26.707 125.222 26.1972 125.912 25.7081C126.641 25.1909 127.378 24.6849 128.11 24.1676C128.464 23.9155 128.819 23.6616 129.168 23.402C128.936 23.2252 128.703 23.0484 128.472 22.8716C128.464 22.9148 128.459 22.9581 128.451 22.9995C128.409 23.2497 128.518 23.5055 128.783 23.5788C129.008 23.6409 129.325 23.5017 129.367 23.2497C129.374 23.2064 129.38 23.1631 129.387 23.1217C129.418 22.9318 129.382 22.7493 129.217 22.627C129.079 22.5236 128.842 22.4784 128.69 22.5894C127.403 23.545 126.063 24.429 124.771 25.3733C124.166 25.8154 123.546 26.2292 122.928 26.6505C122.311 27.0719 121.793 27.5703 121.249 28.0763C120.707 28.5804 120.211 29.094 119.731 29.6601C119.269 30.2075 118.772 30.7267 118.241 31.212C117.089 32.2635 115.804 33.1645 114.654 34.2197C114.062 34.7614 113.498 35.354 112.842 35.8242C112.522 36.0537 112.186 36.2343 111.932 36.5428C111.71 36.8118 111.542 37.1541 111.248 37.3572C111.327 37.3366 111.407 37.314 111.487 37.2933C110.998 37.3328 110.658 37.5472 110.387 37.9479C110.145 38.3072 109.895 38.6627 109.618 38.9956C109.061 39.6634 108.411 40.2258 107.91 40.9443C107.429 41.6347 107.095 42.4115 106.61 43.1C106.125 43.7865 105.503 44.349 104.978 45.0017C104.434 45.6807 103.972 46.4181 103.438 47.1028C102.92 47.7668 102.289 48.333 101.766 48.9932C101.485 49.3487 101.271 49.7475 100.995 50.103C100.741 50.4265 100.449 50.7181 100.183 51.0322C99.8896 51.3821 99.7152 51.7602 99.5068 52.1608C99.3059 52.5464 99.0178 52.8925 98.7581 53.2424C98.4701 53.6318 98.1554 53.9873 97.7991 54.3165C97.4883 54.6042 97.1339 54.8714 96.8932 55.225C96.7264 55.4714 96.6051 55.746 96.4478 55.9981C96.3606 56.1373 96.3436 56.1598 96.2393 56.2689C96.2299 56.2784 96.1578 56.3329 96.2052 56.3009C96.2526 56.2689 96.1616 56.3235 96.1521 56.3273C96.2469 56.2878 96.1787 56.3141 96.1578 56.3141C96.1882 56.3122 96.3132 56.3254 96.2204 56.3009C95.6291 56.1467 95.377 57.0552 95.9664 57.2113Z" fill="#222221"/>
<path d="M79.1952 42.071C79.1952 41.5444 79.4852 41.0722 79.6311 40.5756C79.7941 40.0207 79.9154 39.4489 80.1409 38.9147C80.556 37.9234 81.2951 37.1146 82.0097 36.3283C82.3679 35.9352 82.7261 35.5627 83.1165 35.2016C83.5524 34.8009 83.8329 34.3307 84.1134 33.8172C84.2423 33.582 84.3787 33.3526 84.4981 33.1118C84.627 32.8503 84.7426 32.5663 84.9208 32.333C85.0572 32.1562 85.2411 32.017 85.3984 31.859C85.5841 31.6709 85.7281 31.4471 85.8968 31.2439C86.5033 30.5103 87.2254 29.9141 88.0612 29.4513C88.4782 29.22 88.9179 28.9905 89.3708 28.8344C89.7575 28.7008 90.0171 28.7535 90.4455 28.8983C90.8529 29.0356 91.3078 29.1805 91.6376 29.4683C91.9901 29.7749 92.1171 30.2583 92.1607 30.706C92.1872 30.9618 92.1891 31.2195 92.1891 31.4753C92.1891 31.7556 92.2118 32.0471 92.172 32.3236C92.1019 32.8052 91.9086 33.2679 91.6793 33.693C91.5258 33.977 91.359 34.2554 91.2244 34.5489C91.0936 34.831 91.0102 35.1226 90.9193 35.4179C90.7411 35.9973 90.3128 36.4167 90.038 36.9472C89.7385 37.5265 89.4921 38.1378 89.2363 38.7379C89.1264 38.9937 89.0638 39.2646 88.9615 39.5223C88.8288 39.8609 88.7227 40.1204 88.7738 40.4929C88.8079 40.7449 89.1339 40.8822 89.3576 40.8221C89.6324 40.7468 89.7234 40.4966 89.6892 40.2427C89.6817 40.1919 89.7594 40.0508 89.7802 39.9963C89.8314 39.8721 89.8864 39.7499 89.9299 39.622C90.0171 39.3624 90.1005 39.1084 90.2123 38.8583C90.4568 38.3071 90.6653 37.7334 90.9704 37.2105C91.1031 36.9829 91.2699 36.7816 91.4177 36.5653C91.5921 36.3114 91.7153 36.0368 91.81 35.7452C91.8953 35.4781 91.956 35.2016 92.0792 34.9495C92.208 34.6843 92.3578 34.4285 92.498 34.1689C92.7653 33.6723 92.9889 33.14 93.0837 32.5813C93.1822 32.0133 93.1633 31.3907 93.1178 30.8169C93.0742 30.2677 92.968 29.6883 92.6591 29.2181C92.3369 28.7309 91.8479 28.4412 91.3173 28.223C90.8529 28.0312 90.3564 27.8355 89.8465 27.813C89.3633 27.7923 88.9198 27.9973 88.4914 28.1911C87.5268 28.6293 86.6208 29.1692 85.8532 29.9047C85.4818 30.2602 85.1747 30.6589 84.8544 31.0577C84.6801 31.274 84.4507 31.4377 84.2707 31.6465C84.0679 31.8797 83.922 32.1468 83.7855 32.4214C83.5259 32.9463 83.2548 33.4805 82.9402 33.9752C82.6465 34.436 82.1764 34.7407 81.8125 35.1395C80.9464 36.0875 80.0064 37.0412 79.4321 38.2018C79.1232 38.8282 78.9507 39.4941 78.7631 40.1618C78.583 40.8032 78.2476 41.3901 78.2476 42.071C78.2476 42.6748 79.1952 42.6767 79.1952 42.071Z" fill="#222221"/>
<path d="M104.198 115.716C104.192 116.728 104.057 117.765 104.215 118.771C104.33 119.503 104.774 119.962 105.526 120.022C106.282 120.082 107.141 120.182 107.878 119.96C108.305 119.83 108.695 119.58 109.084 119.367C109.535 119.123 110.001 118.956 110.467 118.747C111.322 118.363 112.156 117.744 112.753 117.024C113.016 116.706 113.251 116.365 113.496 116.032C113.797 115.624 114.148 115.271 114.491 114.896C115.15 114.176 115.772 113.416 116.477 112.737C117.15 112.088 117.955 111.621 118.66 111.008C118.954 110.752 119.314 110.57 119.593 110.297C119.921 109.974 120.14 109.528 120.364 109.131C120.798 108.358 121.187 107.555 121.702 106.831C121.952 106.479 122.271 106.18 122.511 105.82C122.775 105.427 122.968 105.044 123.304 104.701C123.601 104.398 123.853 104.067 124.096 103.719C124.397 103.289 124.729 102.905 125.066 102.502C125.642 101.812 125.838 100.922 126.495 100.275C126.804 99.9724 127.035 99.6733 127.183 99.2651C127.331 98.8532 127.468 98.5315 127.714 98.1666C127.938 97.8336 128.034 97.4894 128.152 97.1095C128.292 96.6524 128.493 96.2216 128.722 95.8022C129.17 94.982 129.712 94.2183 130.218 93.434C130.449 93.0766 130.686 92.7173 130.843 92.3223C131.002 91.9235 131.025 91.5022 131.146 91.0959C131.425 90.161 132.071 89.2337 132.63 88.4436C133.182 87.6649 133.896 87.0122 134.416 86.2109C134.656 85.8403 134.851 85.4378 135.132 85.0954C135.437 84.723 135.765 84.3882 136.038 83.9875C136.574 83.1975 137.039 82.3717 137.603 81.6005C138.2 80.7842 138.826 79.9885 139.421 79.1702C139.99 78.3859 140.461 77.5488 141.007 76.7513C141.527 75.9932 142.175 75.3217 142.728 74.5862C143.374 73.7285 144.015 72.867 144.612 71.9735C145.095 71.2493 145.763 70.6436 146.147 69.8555C146.329 69.4812 146.416 69.0767 146.577 68.6949C146.767 68.2491 146.962 67.8052 147.154 67.3594C147.337 66.9249 147.648 66.6107 147.952 66.259C148.274 65.8884 148.552 65.4784 148.818 65.0664C149.064 64.6827 149.271 64.2764 149.53 63.9002C149.824 63.4751 150.152 63.0763 150.442 62.6474C150.69 62.2806 150.889 61.9007 151.058 61.4925C151.263 60.9997 151.534 60.5746 151.801 60.1156C152.024 59.7319 152.172 59.335 152.301 58.9136C152.43 58.4904 152.623 58.165 152.856 57.7907C153.372 56.9649 153.715 56.0507 154.227 55.2231C155.235 53.5922 156.065 51.8015 156.749 50.0108C157.111 49.0646 157.435 48.0903 157.712 47.1159C157.993 46.1321 158.144 45.1239 158.4 44.1364C158.656 43.1489 158.694 42.1087 158.895 41.108C159.096 40.1091 159.27 39.1047 159.554 38.1247C159.85 37.1033 160.246 36.112 160.568 35.1C160.707 34.6636 160.904 34.2667 161.076 33.8435C161.252 33.409 161.296 32.9406 161.461 32.5042C161.798 31.6107 162.486 30.7662 163.119 30.0627C163.525 29.6112 162.856 28.9453 162.448 29.3968C161.81 30.1097 161.228 30.8903 160.781 31.7368C160.585 32.1073 160.472 32.4892 160.375 32.8955C160.259 33.377 160.049 33.7871 159.861 34.2423C159.486 35.1546 159.217 36.1346 158.899 37.0694C158.578 38.0099 158.355 38.9692 158.161 39.9436C157.964 40.9387 157.784 41.9224 157.659 42.9288C157.598 43.4216 157.481 43.8881 157.35 44.3659C157.217 44.8474 157.163 45.3421 157.06 45.8293C156.649 47.7573 155.931 49.6572 155.099 51.4404C154.693 52.3075 154.348 53.2066 153.853 54.0286C153.364 54.8412 152.906 55.6388 152.487 56.489C152.11 57.2527 151.615 57.9073 151.367 58.7293C151.238 59.16 151.056 59.525 150.819 59.9087C150.546 60.3507 150.34 60.7909 150.133 61.2668C149.762 62.1132 149.132 62.7942 148.622 63.556C148.08 64.3667 147.635 65.1849 146.987 65.9242C146.384 66.6107 146.092 67.4553 145.73 68.2792C145.564 68.661 145.482 69.0749 145.294 69.4473C145.09 69.8536 144.8 70.2035 144.512 70.5514C143.907 71.285 143.405 72.0901 142.846 72.8576C142.27 73.6457 141.686 74.4282 141.057 75.175C140.456 75.8879 139.986 76.6403 139.484 77.4209C138.966 78.2241 138.394 78.9897 137.819 79.7515C137.232 80.5283 136.624 81.2977 136.093 82.1159C135.585 82.8965 135.141 83.6583 134.524 84.3618C133.915 85.0541 133.536 85.9024 132.922 86.5965C132.293 87.3094 131.721 88.0543 131.228 88.8669C130.748 89.6569 130.293 90.462 130.127 91.3761C129.967 92.2376 129.422 92.9374 128.946 93.654C128.459 94.3895 127.968 95.1288 127.602 95.9338C127.422 96.3288 127.284 96.7295 127.161 97.1452C127.045 97.5365 126.783 97.7923 126.594 98.144C126.401 98.4995 126.37 98.9378 126.147 99.2745C125.904 99.6413 125.521 99.9065 125.267 100.273C125.026 100.621 124.845 100.999 124.666 101.381C124.458 101.825 124.113 102.134 123.812 102.514C123.537 102.86 123.307 103.236 123.038 103.586C122.762 103.945 122.402 104.231 122.142 104.603C121.913 104.933 121.753 105.296 121.494 105.606C121.204 105.948 120.925 106.287 120.681 106.665C120.197 107.412 119.814 108.215 119.363 108.981C119.147 109.349 118.95 109.641 118.594 109.887C118.234 110.135 117.925 110.431 117.586 110.704C117.231 110.988 116.829 111.21 116.473 111.494C116.123 111.772 115.798 112.08 115.488 112.402C114.796 113.117 114.165 113.888 113.479 114.609C112.859 115.261 112.417 116.059 111.788 116.698C111.079 117.419 110.243 117.802 109.337 118.199C108.517 118.557 107.842 119.134 106.915 119.151C106.531 119.159 106.148 119.127 105.765 119.104C105.386 119.083 105.221 119.055 105.149 118.655C104.977 117.708 105.141 116.683 105.147 115.728C105.149 115.111 104.201 115.109 104.198 115.716Z" fill="#222221"/>
<path d="M162.79 30.1962C163.4 30.1962 163.4 29.2557 162.79 29.2557C162.181 29.2557 162.179 30.1962 162.79 30.1962Z" fill="#222221"/>
<path d="M97.0145 122.215C96.9955 122.059 96.9747 121.907 96.9368 121.756C96.6487 121.877 96.3587 121.997 96.0706 122.119C96.2204 122.356 96.1919 122.661 96.2715 122.925C96.372 123.252 96.5653 123.54 96.7245 123.839C97.0277 124.409 97.2173 125.028 97.4447 125.629C97.5622 125.94 97.6759 126.239 97.7517 126.562C97.8237 126.867 97.9375 127.178 97.9564 127.49C97.9754 127.821 97.9943 128.129 98.144 128.434C98.2672 128.684 98.4283 128.867 98.4492 129.151C98.4738 129.476 98.5421 129.758 98.7221 130.033C98.8074 130.163 98.9078 130.283 98.9855 130.417C99.086 130.59 99.1561 130.783 99.2376 130.966C99.5143 131.59 99.7588 132.22 100.007 132.856C100.25 133.479 100.574 134.066 100.814 134.688C101.061 135.322 101.063 135.975 101.203 136.631C101.339 137.267 101.51 137.894 101.719 138.511C101.936 139.158 102.213 139.777 102.473 140.409C102.717 141.007 102.88 141.635 103.076 142.25C103.297 142.94 103.555 143.619 103.765 144.314C103.854 144.609 103.928 144.904 103.968 145.209C104.014 145.557 104.016 145.912 104.082 146.258C104.203 146.894 104.533 147.476 104.702 148.1C104.777 148.384 104.887 148.664 104.929 148.956C104.971 149.255 104.988 149.548 105.092 149.834C105.2 150.13 105.361 150.4 105.49 150.686C105.634 151.006 105.75 151.337 105.869 151.665C106.004 152.029 106.17 152.389 106.286 152.761C106.392 153.107 106.462 153.463 106.603 153.799C106.718 154.078 106.908 154.336 106.961 154.635C107.029 155.015 107.021 155.411 107.061 155.793C107.139 156.514 107.266 157.247 107.418 157.955C107.571 158.669 107.867 159.339 107.977 160.065C108.049 160.537 108.784 160.488 108.89 160.065C108.9 160.028 108.909 159.992 108.919 159.954C109.066 159.367 108.153 159.117 108.005 159.704C107.996 159.742 107.986 159.777 107.977 159.815C108.282 159.815 108.585 159.815 108.89 159.815C108.792 159.166 108.541 158.572 108.386 157.94C108.234 157.324 108.157 156.692 108.049 156.068C107.935 155.417 108.03 154.689 107.776 154.07C107.672 153.815 107.518 153.581 107.429 153.32C107.311 152.974 107.251 152.611 107.118 152.268C106.874 151.636 106.648 150.995 106.381 150.372C106.267 150.107 106.11 149.855 106.007 149.586C105.894 149.287 105.896 148.977 105.839 148.666C105.727 148.047 105.503 147.436 105.27 146.855C105.157 146.569 105.037 146.275 104.99 145.971C104.935 145.621 104.929 145.263 104.878 144.914C104.777 144.238 104.533 143.591 104.311 142.948C104.082 142.288 103.881 141.62 103.669 140.954C103.47 140.331 103.197 139.743 102.954 139.137C102.706 138.509 102.492 137.867 102.317 137.215C102.236 136.912 102.164 136.607 102.101 136.3C102.033 135.967 102.014 135.631 101.965 135.294C101.866 134.609 101.542 133.975 101.252 133.355C100.966 132.742 100.75 132.106 100.488 131.483C100.221 130.849 99.9787 130.191 99.5863 129.625C99.4992 129.497 99.4252 129.386 99.4044 129.23C99.3835 129.059 99.3854 128.885 99.3419 128.718C99.2604 128.411 99.0159 128.174 98.9382 127.873C98.8927 127.695 98.9135 127.503 98.8946 127.32C98.8737 127.108 98.815 126.914 98.7619 126.709C98.6747 126.369 98.6141 126.026 98.4871 125.697C98.2161 124.996 97.9886 124.275 97.6627 123.596C97.5148 123.289 97.2912 123.002 97.1888 122.674C97.077 122.323 97.0979 121.971 96.8913 121.645C96.6051 121.194 95.8963 121.484 96.0251 122.008C96.0422 122.078 96.0593 122.148 96.0687 122.217C96.0991 122.469 96.2658 122.688 96.5426 122.688C96.7738 122.686 97.0429 122.469 97.0145 122.215Z" fill="#222221"/>
<path d="M125.568 101.148C125.978 101.588 126.258 102.152 126.514 102.69C126.797 103.287 126.952 103.949 127.314 104.504C127.699 105.094 128.195 105.604 128.569 106.204C128.953 106.821 129.224 107.504 129.53 108.16C130.132 109.462 131.042 110.606 131.601 111.926C131.863 112.545 132.263 113.07 132.56 113.666C132.706 113.956 132.772 114.27 132.854 114.58C132.949 114.938 133.049 115.295 133.161 115.647C133.39 116.36 133.678 117.06 134.052 117.71C134.398 118.316 134.812 118.88 135.232 119.437C135.659 120.003 136.099 120.564 136.489 121.156C136.902 121.781 137.262 122.439 137.66 123.075C137.865 123.4 138.092 123.715 138.284 124.047C138.454 124.345 138.576 124.661 138.684 124.984C138.907 125.648 139.093 126.335 139.487 126.924C139.671 127.196 139.88 127.452 140.067 127.723C140.27 128.016 140.431 128.334 140.626 128.632C141.022 129.243 141.479 129.811 141.93 130.383C142.887 131.592 143.833 132.815 144.712 134.083C145.112 134.66 145.51 135.232 146.041 135.7C146.289 135.919 146.555 136.131 146.744 136.404C146.932 136.677 147.059 136.985 147.258 137.25C147.351 137.376 147.455 137.474 147.576 137.576C147.656 137.643 147.728 137.685 147.749 137.762C147.912 138.343 148.827 138.097 148.662 137.512C148.573 137.196 148.363 137.025 148.13 136.814C147.898 136.605 147.789 136.287 147.626 136.028C147.246 135.418 146.636 135.036 146.178 134.498C145.717 133.957 145.346 133.336 144.929 132.76C144.464 132.121 143.987 131.491 143.501 130.866C143.037 130.268 142.559 129.681 142.101 129.079C141.879 128.79 141.665 128.496 141.466 128.191C141.278 127.904 141.119 127.597 140.928 127.311C140.554 126.754 140.128 126.269 139.895 125.631C139.648 124.952 139.476 124.243 139.12 123.607C138.932 123.274 138.703 122.962 138.498 122.637C138.289 122.304 138.087 121.969 137.886 121.632C137.512 121.008 137.126 120.4 136.69 119.815C135.841 118.673 134.918 117.566 134.374 116.238C134.093 115.551 133.894 114.836 133.709 114.119C133.532 113.444 133.206 112.893 132.844 112.302C132.479 111.708 132.249 111.044 131.902 110.438C131.55 109.821 131.152 109.229 130.805 108.606C130.441 107.955 130.161 107.263 129.84 106.592C129.518 105.92 129.122 105.333 128.66 104.748C128.449 104.483 128.237 104.214 128.061 103.924C127.879 103.625 127.784 103.292 127.657 102.969C127.424 102.371 127.138 101.778 126.797 101.233C126.632 100.967 126.446 100.712 126.232 100.482C125.824 100.038 125.155 100.704 125.568 101.148Z" fill="#222221"/>
<path d="M102.714 90.5128C102.816 90.8796 103.087 90.9981 103.36 91.2182C103.64 91.4458 103.86 91.7505 104.089 92.0251C104.546 92.5744 105.066 93.0672 105.507 93.6315C105.932 94.1732 106.333 94.7714 106.58 95.4147C106.701 95.7307 106.779 96.0486 106.815 96.3834C106.858 96.7991 106.966 97.1358 107.147 97.5101C107.177 97.5741 107.201 97.6343 107.219 97.702C107.224 97.7227 107.228 97.7453 107.234 97.766C107.258 97.8675 107.226 97.6907 107.234 97.7641C107.245 97.8807 107.253 97.9992 107.255 98.1158C107.255 98.1854 107.253 98.255 107.249 98.3227C107.247 98.3491 107.245 98.3735 107.243 98.3999C107.234 98.4864 107.268 98.3039 107.236 98.4431C107.226 98.4789 107.215 98.5823 107.209 98.5503C107.203 98.5146 107.179 98.5729 107.217 98.5391C107.239 98.5184 107.41 98.4337 107.338 98.4488C107.088 98.5014 106.942 98.793 107.006 99.0281C107.078 99.2858 107.338 99.4081 107.59 99.3573C108.2 99.2313 108.229 98.4017 108.198 97.9183C108.178 97.6004 108.109 97.3258 107.969 97.038C107.802 96.6975 107.774 96.3778 107.723 96.0072C107.503 94.4479 106.351 93.0822 105.31 91.9649C105.005 91.6376 104.721 91.299 104.427 90.9605C104.287 90.7987 104.139 90.6407 103.972 90.5053C103.883 90.4319 103.79 90.3698 103.693 90.3077C103.659 90.2852 103.627 90.2494 103.633 90.2664C103.464 89.6795 102.549 89.9278 102.714 90.5128Z" fill="#222221"/>
<path d="M73.2346 97.6512C73.9567 97.7509 74.4078 98.4619 75.1053 98.6613C75.7534 98.8457 76.5305 98.5485 77.0991 98.2494C77.3853 98.0989 77.6639 97.907 77.8553 97.6437C78.0865 97.3239 78.187 96.9308 78.2249 96.5452C78.3026 95.757 78.0638 94.9482 77.7472 94.2334C77.5899 93.8779 77.4307 93.4885 77.2052 93.1688C76.8868 92.7192 76.4471 92.3543 76.0567 91.9668C75.6246 91.5398 74.9536 92.2038 75.3858 92.6327C75.6909 92.9355 76.015 93.2252 76.3031 93.5431C76.5191 93.782 76.629 94.0923 76.7693 94.3764C77.0365 94.9181 77.2526 95.505 77.2848 96.1126C77.3 96.3947 77.2848 96.6881 77.1673 96.9496C77.0669 97.1734 76.9721 97.2374 76.7238 97.3804C76.485 97.5177 76.2291 97.6211 75.9619 97.6945C75.8861 97.7152 75.8103 97.734 75.7345 97.749C75.6719 97.7603 75.6321 97.766 75.6208 97.7678C75.5639 97.7716 75.5089 97.7716 75.454 97.7735C75.4331 97.7735 75.3592 97.7622 75.454 97.7773C75.4218 97.7716 75.3877 97.7622 75.3573 97.7528C75.0389 97.6625 74.766 97.4067 74.5026 97.2129C74.1993 96.991 73.8658 96.7935 73.4867 96.7427C73.2327 96.707 72.9788 96.8029 72.903 97.0719C72.8423 97.292 72.9788 97.6155 73.2346 97.6512Z" fill="#222221"/>
<path d="M78.9166 112.334C79.2672 111.71 79.7789 111.191 80.4821 110.98C81.1132 110.79 81.9225 110.8 82.4929 111.04C82.7962 111.168 83.0217 111.351 83.2416 111.593C83.3648 111.729 83.4671 111.875 83.5713 112.026C83.6244 112.103 83.6813 112.176 83.7324 112.254C83.7855 112.331 83.7988 112.321 83.7893 112.397C83.7836 112.445 83.7116 112.575 83.6566 112.677C83.5732 112.831 83.4804 112.981 83.4027 113.138C83.27 113.401 83.1752 113.683 83.0748 113.96C82.9592 114.279 82.8758 114.524 82.6711 114.814C82.6654 114.823 82.6161 114.883 82.6597 114.831C82.6313 114.866 82.5991 114.898 82.5669 114.93C82.546 114.951 82.5233 114.972 82.5005 114.989C82.5536 114.949 82.4986 114.987 82.4702 115.002C82.4494 115.013 82.3641 115.045 82.4456 115.017C82.4114 115.028 82.3754 115.039 82.3394 115.045C82.2636 115.06 82.4437 115.051 82.3034 115.045C82.2522 115.043 82.203 115.039 82.1518 115.034C81.8978 115.002 81.678 115.273 81.678 115.504C81.678 115.784 81.8959 115.942 82.1518 115.974C83.0426 116.083 83.5467 115.31 83.8386 114.599C83.9049 114.439 83.9637 114.278 84.0205 114.116C84.049 114.039 84.0755 113.961 84.1039 113.884C84.1153 113.854 84.1267 113.826 84.138 113.796C84.1494 113.768 84.1608 113.74 84.1721 113.711C84.1551 113.749 84.1532 113.755 84.1665 113.724C84.3238 113.369 84.572 113.053 84.6877 112.679C84.8525 112.148 84.5266 111.729 84.2271 111.324C83.9523 110.952 83.6358 110.617 83.2378 110.373C82.4645 109.897 81.4543 109.836 80.5768 109.993C79.489 110.186 78.6228 110.924 78.0959 111.864C77.8022 112.389 78.619 112.865 78.9166 112.334Z" fill="#222221"/>
<path d="M84.1286 117.844C84.121 117.936 84.1286 117.851 84.1476 117.812C84.121 117.866 84.1798 117.755 84.1892 117.74C84.2575 117.62 84.3371 117.503 84.4224 117.396C84.5399 117.248 84.6801 117.056 84.845 116.956C85.0668 116.821 85.3908 116.866 85.6391 116.83C85.9575 116.785 86.2172 116.623 86.4958 116.476C86.9487 116.237 87.5211 116.585 87.9077 116.836C88.3948 117.15 88.753 117.586 88.7568 118.175C88.7587 118.314 88.7758 118.474 88.7341 118.596C88.7 118.696 88.6336 118.784 88.5749 118.873C88.5142 118.965 88.4441 119.067 88.3816 119.147C88.3361 119.204 88.2773 119.253 88.2337 119.309C88.1788 119.383 88.2868 119.302 88.247 119.309C87.65 119.435 87.904 120.342 88.4991 120.216C88.8307 120.146 89.0658 119.806 89.2496 119.552C89.4467 119.281 89.6324 119.001 89.6817 118.664C89.8049 117.816 89.549 117.022 88.9141 116.433C88.6185 116.158 88.2735 115.933 87.9077 115.76C87.5439 115.589 87.1364 115.427 86.727 115.446C86.3063 115.464 86.0239 115.711 85.6524 115.861C85.3226 115.995 84.9398 115.906 84.6005 116.034C84.2234 116.175 83.958 116.473 83.7154 116.779C83.4634 117.097 83.217 117.432 83.181 117.846C83.1582 118.1 83.416 118.316 83.6548 118.316C83.9296 118.314 84.1059 118.098 84.1286 117.844Z" fill="#222221"/>
<path d="M95.0661 119.334C95.0605 119.398 95.0851 119.257 95.0927 119.236C95.0965 119.225 95.1097 119.196 95.142 119.142C95.1855 119.072 95.2936 118.957 95.3921 118.877C95.5873 118.717 95.8546 118.577 96.0991 118.465C96.5937 118.235 97.2533 117.968 97.8446 117.929C98.1933 117.904 98.5174 117.964 98.8453 118.079C99.0007 118.134 99.1523 118.199 99.3002 118.271C99.3646 118.301 99.4271 118.333 99.4878 118.369C99.5086 118.38 99.5276 118.393 99.5484 118.406C99.592 118.435 99.5162 118.372 99.5769 118.427C99.5977 118.446 99.6186 118.466 99.6356 118.489C99.6299 118.482 99.5977 118.436 99.6242 118.482C99.6697 118.559 99.6413 118.497 99.6641 118.566C99.7114 118.715 99.7247 118.871 99.7304 119.027C99.7399 119.339 99.7001 119.629 99.5219 119.892C99.5863 119.798 99.5105 119.905 99.4821 119.939C99.4366 119.994 99.3892 120.047 99.3419 120.099C99.2376 120.214 99.1315 120.325 99.0197 120.432C98.9173 120.53 98.815 120.63 98.7013 120.716C98.7505 120.679 98.6198 120.767 98.6027 120.78C98.5894 120.79 98.5667 120.795 98.5553 120.806C98.5875 120.771 98.6065 120.784 98.6652 120.78C98.0588 120.816 98.055 121.756 98.6652 121.721C99.0102 121.7 99.2831 121.469 99.5276 121.249C99.7607 121.042 99.9787 120.814 100.176 120.573C100.714 119.922 100.856 118.886 100.492 118.111C100.337 117.782 100.043 117.584 99.7228 117.434C99.2717 117.221 98.8169 117.054 98.3184 116.999C97.4599 116.905 96.6013 117.233 95.8243 117.562C95.0453 117.893 94.1924 118.41 94.1147 119.334C94.0939 119.588 94.3478 119.804 94.5885 119.804C94.8653 119.804 95.0453 119.588 95.0661 119.334Z" fill="#222221"/>
<path d="M105.27 118.696C105.266 118.743 105.263 118.79 105.259 118.835C105.223 119.289 105.947 119.492 106.142 119.072C106.292 118.752 106.423 118.425 106.548 118.094C106.623 117.893 106.697 117.656 106.834 117.562C107.008 117.443 107.209 117.411 107.431 117.347C107.702 117.27 107.962 117.169 108.215 117.046C108.392 116.96 108.598 116.839 108.761 116.826C108.985 116.809 109.214 116.926 109.392 117.05C109.732 117.289 109.809 117.633 109.773 118.056C109.751 118.31 110.006 118.527 110.247 118.527C110.522 118.527 110.698 118.31 110.721 118.056C110.778 117.424 110.567 116.789 110.061 116.38C109.796 116.166 109.478 115.991 109.138 115.922C108.763 115.843 108.42 115.916 108.077 116.07C107.797 116.196 107.535 116.339 107.238 116.426C106.963 116.505 106.678 116.57 106.424 116.71C105.742 117.08 105.623 117.951 105.321 118.598C105.615 118.677 105.911 118.756 106.205 118.835C106.208 118.788 106.212 118.741 106.216 118.696C106.237 118.442 105.985 118.226 105.742 118.226C105.471 118.226 105.291 118.442 105.27 118.696Z" fill="#222221"/>
<path d="M107.12 96.7446C106.777 96.7991 106.462 96.9534 106.157 97.1151C105.922 97.2393 105.68 97.3822 105.411 97.3992C105.176 97.4142 104.925 97.3409 104.698 97.2919C104.58 97.2656 104.463 97.2355 104.347 97.2035C104.222 97.1716 104.315 97.2035 104.38 97.2412C104.357 97.228 104.34 97.1791 104.376 97.2487C104.362 97.2223 104.342 97.1998 104.328 97.1734C104.08 96.722 104.025 96.0806 103.716 95.599C103.529 95.3094 103.223 94.9501 103.199 94.5927C103.182 94.35 103.457 94.1883 103.614 94.0227C103.843 93.782 104.021 93.4189 104.319 93.2534C104.654 93.0691 105.162 93.1913 105.532 93.197C106.142 93.2045 106.142 92.264 105.532 92.2565C105.06 92.2508 104.552 92.1624 104.097 92.3261C103.682 92.4747 103.417 92.7813 103.151 93.1142C102.911 93.4152 102.57 93.6541 102.388 93.9964C102.137 94.4648 102.28 94.9802 102.505 95.4279C102.607 95.631 102.733 95.8191 102.856 96.0091C102.903 96.0825 102.952 96.1558 102.996 96.2311C102.994 96.2273 103.049 96.3458 103.026 96.2912C103.007 96.2461 103.051 96.3608 103.055 96.3721C103.168 96.6975 103.244 97.0361 103.375 97.3559C103.513 97.6964 103.692 97.9729 104.055 98.097C104.328 98.1911 104.622 98.2362 104.906 98.287C105.388 98.3735 105.807 98.319 106.252 98.1196C106.629 97.9522 106.957 97.7152 107.374 97.6493C107.626 97.6098 107.768 97.2957 107.706 97.07C107.628 96.8048 107.372 96.7051 107.12 96.7446Z" fill="#222221"/>
<path d="M111.748 90.7686C111.462 90.7705 111.231 90.8626 110.965 90.9473C110.687 91.0376 110.391 90.9812 110.103 90.9793C109.982 90.9793 109.86 90.983 109.739 90.983C109.716 90.983 109.696 90.9812 109.673 90.9793C109.679 90.9793 109.751 90.9962 109.697 90.983C109.658 90.9736 109.567 90.9379 109.65 90.9774C109.624 90.9642 109.557 90.9097 109.612 90.9567C109.567 90.9172 109.527 90.8721 109.489 90.8269C109.406 90.7235 109.337 90.6049 109.279 90.4864C109.155 90.2363 109.095 89.9579 109.021 89.6908C108.951 89.435 108.862 89.1904 108.767 88.9421C108.678 88.7145 108.57 88.4418 108.541 88.2217C108.534 88.1709 108.538 88.0204 108.539 88.0073C108.555 87.9207 108.579 87.8624 108.659 87.791C108.828 87.6405 109.076 87.6273 109.307 87.6254C109.62 87.6235 109.933 87.6593 110.245 87.663C110.856 87.6687 110.856 86.7282 110.245 86.7225C109.584 86.7169 108.852 86.5664 108.25 86.9257C107.599 87.3132 107.491 88.043 107.687 88.7164C107.77 89.0042 107.895 89.277 107.994 89.561C108.107 89.892 108.174 90.2363 108.293 90.5654C108.515 91.1805 108.917 91.8483 109.631 91.916C109.777 91.9292 109.921 91.9198 110.067 91.9198C110.276 91.9179 110.484 91.9423 110.694 91.9348C110.909 91.9273 111.119 91.8916 111.32 91.8163C111.475 91.758 111.595 91.7091 111.748 91.7072C112.358 91.7035 112.36 90.763 111.748 90.7686Z" fill="#222221"/>
<path d="M114.322 84.3826C113.888 84.3807 113.469 84.3525 113.048 84.4842C112.768 84.5726 112.52 84.597 112.224 84.6027C111.957 84.6083 111.852 84.5293 111.743 84.2584C111.627 83.9744 111.568 83.6584 111.487 83.3631C111.392 83.0189 111.399 82.6784 111.367 82.3285C111.333 81.9598 111.128 81.6006 111.14 81.23C111.144 81.0946 111.127 81.2451 111.149 81.1284C111.168 81.072 111.168 81.0645 111.147 81.104C111.176 81.057 111.178 81.0513 111.151 81.0871C111.195 81.0607 111.259 81.0287 111.362 80.9968C111.623 80.914 111.904 80.82 112.177 80.8538C112.43 80.8858 112.65 80.6149 112.65 80.3836C112.65 80.1033 112.432 79.9453 112.177 79.9133C111.892 79.8776 111.585 79.9547 111.312 80.0299C111.026 80.1089 110.715 80.1955 110.499 80.4061C109.967 80.9234 110.276 81.6589 110.404 82.2664C110.476 82.6032 110.446 82.9662 110.503 83.3085C110.556 83.6264 110.657 83.9443 110.746 84.2547C110.937 84.9262 111.331 85.5206 112.097 85.5451C112.44 85.5563 112.808 85.5451 113.137 85.4435C113.302 85.3946 113.46 85.3325 113.632 85.3193C113.861 85.3024 114.093 85.3231 114.322 85.325C114.932 85.325 114.932 84.3845 114.322 84.3826Z" fill="#222221"/>
<path d="M111.106 67.7807C110.823 67.7751 110.522 67.7751 110.272 67.9274C110.01 68.0855 109.859 68.3563 109.749 68.6291C109.504 69.2253 109.461 69.8555 109.747 70.4405C110.02 70.9954 110.48 71.4637 110.888 71.9208C111.329 72.4193 111.898 72.8538 112.607 72.7654C112.861 72.7334 113.081 72.5717 113.081 72.2952C113.081 72.0657 112.863 71.7929 112.607 71.8249C112.156 71.8813 111.889 71.6255 111.578 71.2794C111.263 70.9277 110.93 70.5778 110.681 70.1753C110.636 70.1 110.564 69.9721 110.543 69.9213C110.524 69.8705 110.507 69.8179 110.494 69.7652C110.459 69.6279 110.488 69.8273 110.482 69.69C110.475 69.4774 110.518 69.2874 110.586 69.0749C110.604 69.0241 110.619 68.9714 110.64 68.9225C110.609 68.9921 110.668 68.868 110.676 68.8567C110.698 68.8134 110.723 68.7683 110.753 68.7306C110.696 68.804 110.767 68.7137 110.785 68.7062C110.736 68.7419 110.734 68.7476 110.778 68.7212C110.723 68.7419 110.713 68.7476 110.746 68.7363C110.763 68.7306 110.782 68.7269 110.799 68.7231C110.744 68.7288 110.734 68.7288 110.772 68.7269C110.882 68.7156 110.992 68.7194 111.102 68.7231C111.716 68.7325 111.716 67.792 111.106 67.7807Z" fill="#222221"/>
<path d="M76.665 34.3796C76.3201 34.4624 76.0547 34.6919 75.9429 35.0304C75.8614 35.275 75.8823 35.5383 75.888 35.7923C75.8974 36.2625 75.8785 36.8343 76.3712 37.0826C76.6082 37.203 76.8811 37.2181 77.1426 37.2181C77.4932 37.2199 77.8325 37.2895 78.1755 37.171C78.5053 37.0582 78.7498 36.8569 78.9564 36.5823C79.1194 36.3678 79.252 36.1496 79.4093 35.9597C79.9078 35.3577 80.3134 34.7182 80.6318 34.0053C80.736 33.7739 80.7 33.4993 80.4612 33.362C80.2603 33.2454 79.9173 33.298 79.813 33.5313C79.5951 34.0203 79.343 34.4887 79.0284 34.9232C78.8635 35.1508 78.6778 35.3577 78.5072 35.5816C78.439 35.6719 78.3745 35.764 78.312 35.8581C78.2855 35.8976 78.2589 35.939 78.2305 35.9785C78.2172 35.9973 78.204 36.0161 78.1907 36.0368C78.1073 36.1553 78.221 36.0067 78.1679 36.0688C78.1395 36.1026 78.1092 36.1346 78.077 36.1666C78.0618 36.1816 78.0448 36.1986 78.0277 36.2117C78.0467 36.1967 78.0902 36.1741 78.0125 36.2192C77.9329 36.2663 77.8969 36.2888 77.7908 36.3058C77.679 36.3246 77.5311 36.3001 77.4061 36.2888C77.2772 36.2776 77.1502 36.2813 77.0232 36.2776C76.9815 36.2757 76.9379 36.2719 76.8962 36.27C76.8053 36.2663 76.9664 36.2907 76.8621 36.2644C76.8432 36.2606 76.7427 36.2324 76.8185 36.2587C76.8811 36.2813 76.8413 36.27 76.8261 36.2606C76.7579 36.2174 76.8924 36.3208 76.8507 36.2832C76.7844 36.223 76.8792 36.3265 76.8621 36.302C76.8147 36.2362 76.8659 36.334 76.8659 36.3152C76.8678 36.2851 76.847 36.2381 76.8413 36.208C76.864 36.3077 76.8432 36.208 76.8413 36.1628C76.828 35.9409 76.8261 35.7114 76.8299 35.4875C76.8299 35.465 76.8299 35.4443 76.8318 35.4217C76.8318 35.4085 76.847 35.2957 76.8356 35.3577C76.828 35.4029 76.8564 35.2863 76.8659 35.2637C76.8602 35.2769 76.8299 35.3239 76.8602 35.29C76.9 35.2468 76.809 35.3333 76.8109 35.3314C76.8166 35.3258 76.8735 35.3032 76.8318 35.3126C76.7863 35.3239 76.9228 35.2881 76.9171 35.29C77.5103 35.1433 77.2601 34.2367 76.665 34.3796Z" fill="#222221"/>
<path d="M88.7568 28.6613C88.7511 28.9491 88.6431 29.1616 88.4971 29.4043C88.3076 29.7222 88.1522 30.0495 88.0404 30.4031C87.921 30.7774 87.8433 31.1649 87.6936 31.5261C87.5476 31.8759 87.4206 32.2014 87.4756 32.587C87.6272 33.6874 88.8307 34.1783 89.8162 34.2667C90.3488 34.3156 90.9401 34.2441 91.4026 33.962C91.9219 33.646 91.4462 32.8315 90.925 33.1494C90.8909 33.1701 90.8549 33.1889 90.8207 33.2077C90.7449 33.2491 90.8643 33.1964 90.7809 33.2265C90.69 33.2585 90.5971 33.2848 90.5023 33.3055C90.4796 33.3093 90.3735 33.3281 90.4019 33.3243C90.4303 33.3206 90.3204 33.3319 90.2957 33.3337C90.1877 33.3413 90.0778 33.3413 89.9698 33.3375C89.6116 33.3224 89.2079 33.2246 88.8952 33.0459C88.7322 32.9519 88.6279 32.8729 88.5388 32.7544C88.4555 32.6453 88.4062 32.5117 88.4081 32.4102C88.4119 32.1073 88.6071 31.8195 88.6999 31.5355C88.8099 31.2044 88.8838 30.8621 88.9975 30.5329C89.1017 30.2282 89.2742 29.9705 89.4296 29.6921C89.6097 29.3667 89.7025 29.0319 89.7101 28.6613C89.7158 28.0556 88.7682 28.0556 88.7568 28.6613Z" fill="#222221"/>
<path d="M99.4367 31.8252C98.1555 31.5844 97.4656 33.0159 97.0164 33.9602C96.7549 34.5094 96.5028 35.0323 96.4213 35.6418C96.3322 36.3265 96.4876 37.0638 97.2249 37.2952C97.5187 37.3874 97.8371 37.3855 98.1422 37.3911C98.2123 37.393 98.2824 37.393 98.3526 37.3968C98.3753 37.3986 98.3962 37.3986 98.4189 37.4005C98.5516 37.4081 98.3336 37.3761 98.4549 37.4043C98.472 37.4081 98.4909 37.4156 98.508 37.4156C98.5895 37.4231 98.5307 37.4457 98.5042 37.4081C98.5459 37.4664 98.4871 37.393 98.4795 37.3836C98.4625 37.361 98.4037 37.22 98.4246 37.299C98.5743 37.8858 99.4878 37.6375 99.3381 37.0488C99.1997 36.5089 98.6084 36.46 98.1441 36.4506C98.0285 36.4487 97.9129 36.4469 97.7973 36.4412C97.6475 36.4318 97.6854 36.4393 97.5433 36.4074C97.5149 36.4017 97.4845 36.3923 97.458 36.3829C97.4656 36.3848 97.5205 36.413 97.4713 36.3885C97.4428 36.3754 97.35 36.3001 97.4144 36.3566C97.3632 36.3114 97.4125 36.3867 97.3879 36.3189C97.386 36.3133 97.3538 36.2061 97.3481 36.1609C97.2798 35.6775 97.4864 35.1508 97.6949 34.7295C97.9034 34.3044 98.0948 33.8717 98.345 33.4673C98.4947 33.2266 98.6141 33.0573 98.8302 32.8692C98.8794 32.8278 98.8321 32.8579 98.923 32.8052C98.9477 32.7902 99.0538 32.7413 99.0254 32.7507C98.9761 32.7695 99.1713 32.7225 99.1126 32.73C99.0576 32.7356 99.2888 32.7525 99.1865 32.7337C99.4385 32.7808 99.6982 32.6641 99.7702 32.4046C99.8309 32.1751 99.6887 31.8741 99.4367 31.8252Z" fill="#222221"/>
<path d="M106.047 36.934C105.524 37.1334 105.083 37.6714 104.855 38.1699C104.584 38.7643 104.345 39.4 104.156 40.0245C104.01 40.5061 103.915 41.0196 103.892 41.5218C103.866 42.0617 103.972 42.7388 104.575 42.9269C104.865 43.0172 105.149 42.8968 105.424 42.9495C105.577 42.9796 105.719 43.0661 105.865 43.1188C106.083 43.1959 106.29 43.194 106.513 43.1602C106.767 43.1226 106.906 42.8066 106.845 42.5808C106.771 42.3119 106.515 42.214 106.261 42.2517C106.18 42.2629 106.059 42.1877 105.981 42.1557C105.797 42.0805 105.625 42.0165 105.424 42.0034C105.283 41.994 105.145 42.0203 105.007 42.0297C104.984 42.0316 104.885 42.0485 104.904 42.041C104.846 42.0297 104.832 42.0259 104.863 42.0278C104.904 42.073 104.91 42.073 104.88 42.0316C104.874 42.0203 104.868 42.009 104.863 41.9977C104.885 42.0504 104.887 42.0504 104.868 41.9977C104.865 41.977 104.838 41.851 104.842 41.8811C104.836 41.8378 104.832 41.6667 104.836 41.5745C104.844 41.3074 104.88 41.0779 104.933 40.8183C105.047 40.2615 105.255 39.7349 105.452 39.2044C105.564 38.9035 105.668 38.5874 105.85 38.3203C105.915 38.2263 105.998 38.1304 106.083 38.0401C106.129 37.9912 106.176 37.9423 106.227 37.899C106.231 37.8971 106.371 37.8087 106.299 37.835C106.538 37.7448 106.703 37.519 106.631 37.2557C106.567 37.0356 106.288 36.8437 106.047 36.934Z" fill="#222221"/>
<path d="M100.214 108.266C100.174 107.944 100.466 107.794 100.672 107.579C100.97 107.271 101.144 106.857 101.455 106.567C101.603 106.43 101.783 106.328 101.94 106.202C102.084 106.088 102.208 105.952 102.325 105.811C102.615 105.469 102.911 105.147 103.227 104.829C103.549 104.506 103.864 104.176 104.163 103.832C104.408 103.55 104.62 103.234 104.882 102.967C105.357 102.482 106.023 102.062 106.201 101.366C106.351 100.779 105.437 100.529 105.287 101.116C105.227 101.355 104.986 101.583 104.779 101.776C104.539 102.002 104.275 102.211 104.065 102.465C103.485 103.163 102.896 103.828 102.251 104.47C101.944 104.775 101.707 105.147 101.387 105.439C101.237 105.574 101.059 105.678 100.902 105.804C100.724 105.946 100.587 106.12 100.454 106.304C100.339 106.464 100.238 106.637 100.113 106.791C99.9901 106.943 99.8366 107.066 99.7001 107.205C99.4139 107.493 99.2149 107.85 99.2661 108.268C99.2964 108.52 99.4613 108.738 99.7399 108.738C99.9711 108.736 100.244 108.52 100.214 108.266Z" fill="#222221"/>
<path d="M92.9036 102.82C92.9112 102.856 92.9093 102.809 92.9301 102.785C92.9718 102.734 93.0666 102.655 93.1329 102.598C93.3073 102.448 93.4532 102.286 93.5859 102.096C93.9062 101.639 94.0957 101.109 94.4501 100.672C94.8064 100.232 95.2139 99.8351 95.5266 99.3611C95.8014 98.9435 96.0308 98.4902 96.4269 98.1723C96.6259 98.0124 96.5937 97.6738 96.4269 97.5064C96.2298 97.3108 95.9569 97.3465 95.756 97.5064C95.3087 97.8657 95.0339 98.3848 94.7268 98.857C94.3876 99.3761 93.9232 99.8012 93.5537 100.298C93.2144 100.753 93.0476 101.362 92.6477 101.767C92.4809 101.936 92.2895 102.07 92.1474 102.263C91.9692 102.506 91.9256 102.781 91.9901 103.072C92.119 103.661 93.0344 103.411 92.9036 102.82Z" fill="#222221"/>
<path d="M107.654 110.632C108.069 110.087 108.333 109.447 108.75 108.907C108.943 108.657 109.155 108.422 109.343 108.168C109.546 107.895 109.688 107.596 109.851 107.301C110.194 106.68 110.579 106.065 110.668 105.35C110.683 105.222 110.7 105.059 110.751 104.974C110.766 104.95 110.861 104.852 110.914 104.786C111.14 104.515 111.195 104.227 111.13 103.883C111.083 103.633 110.78 103.492 110.547 103.554C110.283 103.625 110.168 103.881 110.215 104.133C110.217 104.143 110.196 104.175 110.213 104.158C110.126 104.24 110.046 104.34 109.976 104.436C109.785 104.699 109.771 104.998 109.724 105.309C109.629 105.931 109.203 106.49 108.915 107.037C108.63 107.581 108.234 108.008 107.874 108.501C107.488 109.028 107.23 109.633 106.832 110.156C106.676 110.359 106.8 110.683 107.002 110.799C107.249 110.942 107.499 110.835 107.654 110.632Z" fill="#222221"/>
<path d="M97.5945 76.9338C97.6437 76.9338 97.6058 76.9451 97.5736 76.915C97.5452 76.8867 97.513 76.8566 97.4845 76.8303C97.3898 76.7381 97.3007 76.646 97.1908 76.567C97.0903 76.4955 96.9785 76.4466 96.8894 76.3619C96.7947 76.2716 96.7189 76.1625 96.6374 76.061C96.2488 75.5776 95.6727 75.38 95.1856 75.0189C94.7194 74.6747 94.1621 74.4734 93.7111 74.1085C93.2335 73.7229 92.7919 73.3128 92.2062 73.0946C91.7078 72.9084 91.3515 73.7323 91.8405 73.9542C92.7938 74.385 93.4969 75.1769 94.3687 75.7299C95.286 76.3111 96.2735 76.7363 97.0448 77.5225C97.4713 77.957 98.1403 77.2912 97.7158 76.8566C96.9046 76.0309 95.8849 75.5531 94.9108 74.9568C94.0067 74.4038 93.296 73.5818 92.3181 73.1416C92.1968 73.4276 92.0755 73.7153 91.9523 74.0013C92.4829 74.1988 92.8847 74.6747 93.332 75.0001C93.5746 75.1769 93.8418 75.3123 94.1053 75.4553C94.3877 75.6076 94.636 75.7958 94.9032 75.9688C95.1477 76.1287 95.4244 76.2416 95.6613 76.409C95.8774 76.5632 96.0119 76.804 96.1901 76.9958C96.3758 77.1933 96.6203 77.3043 96.8136 77.4924C97.0316 77.705 97.2761 77.8724 97.5945 77.8724C98.2047 77.8743 98.2047 76.9338 97.5945 76.9338Z" fill="#222221"/>
<path d="M90.9458 81.4031C90.834 81.3993 90.9477 81.4049 90.9458 81.4068C90.9439 81.4106 90.8719 81.388 90.8662 81.3861C90.8093 81.3711 90.815 81.3692 90.8681 81.3918C90.8359 81.3767 90.8037 81.3617 90.7714 81.3447C90.7165 81.3146 90.6615 81.2808 90.6103 81.245C90.6009 81.2394 90.5118 81.1755 90.563 81.2112C90.6122 81.2469 90.5251 81.1811 90.5156 81.1736C90.2919 80.9911 90.0929 80.7823 89.892 80.5773C89.4163 80.0939 88.8572 79.7327 88.2564 79.4223C88.0461 79.3132 87.794 79.3528 87.6443 79.5427C87.5059 79.7214 87.5059 79.9998 87.6822 80.1597C87.7295 80.203 87.7769 80.2462 87.8224 80.2895C88.0044 80.4569 88.3152 80.4814 88.4933 80.2895C88.662 80.1089 88.6885 79.8023 88.4933 79.6236C88.446 79.5804 88.3986 79.5371 88.3531 79.4938C88.1617 79.7402 87.9702 79.9866 87.7788 80.2331C88.0991 80.3986 88.4175 80.5754 88.7094 80.7861C88.7075 80.7842 88.8231 80.8726 88.77 80.8312C88.8098 80.8613 88.8477 80.8933 88.8857 80.9253C88.9387 80.9704 88.9918 81.0174 89.043 81.0645C89.1396 81.1566 89.2325 81.2526 89.3254 81.3485C89.7613 81.7905 90.2806 82.3247 90.9458 82.3417C91.1941 82.3492 91.431 82.1197 91.4196 81.8714C91.4082 81.6118 91.2111 81.4106 90.9458 81.4031Z" fill="#222221"/>
<path d="M86.2001 44.9246C86.1451 45.2256 85.9215 45.487 85.8078 45.8049C85.7471 45.9723 85.713 46.1491 85.6751 46.3222C85.6562 46.4125 85.6353 46.5028 85.6107 46.593C85.5879 46.6777 85.569 46.7172 85.5481 46.7605C85.5405 46.7755 85.5064 46.8244 85.5368 46.7849C85.5178 46.8112 85.4951 46.8338 85.4723 46.8564C85.423 46.9091 85.37 46.958 85.3188 47.0088C85.2051 47.1216 85.0933 47.2439 85.0118 47.3831C84.917 47.5467 84.8715 47.7198 84.8677 47.9079C84.8677 47.9587 84.8677 48.0094 84.8715 48.0602C84.8772 48.1374 84.8924 48.0095 84.9132 47.9756C84.9284 47.9286 84.9568 47.8985 85.0042 47.8834C85.0743 47.8496 85.0762 47.8439 85.008 47.8665C85.207 48.017 85.4079 48.1693 85.6069 48.3198C85.6107 48.2201 85.6107 48.301 85.5936 48.3311C85.6239 48.2766 85.6164 48.3048 85.5785 48.333C85.3472 48.2389 85.1141 48.1449 84.8829 48.0527C84.8715 48.0057 84.862 48.1148 84.8791 48.0621C84.8943 48.0132 84.8564 48.1035 84.8469 48.1167C84.8203 48.1543 84.7673 48.1957 84.7332 48.2164C84.9492 48.2728 85.1653 48.3292 85.3813 48.3857C85.4363 48.5042 85.3927 48.4176 85.3889 48.3857C85.3757 48.301 85.3776 48.4571 85.3889 48.3988C85.4003 48.3386 85.3889 48.2634 85.3946 48.2013C85.3889 48.269 85.3889 48.2389 85.3984 48.19C85.406 48.1562 85.4117 48.1223 85.4211 48.0885C85.4401 48.0113 85.4628 47.9342 85.4875 47.859C85.514 47.78 85.5443 47.701 85.5747 47.6238C85.605 47.5486 85.5709 47.6314 85.5898 47.5862C85.605 47.5505 85.6201 47.5166 85.6372 47.4809C85.7054 47.3342 85.7775 47.1912 85.8552 47.0501C86.2115 46.3974 86.7061 45.8369 86.7023 45.0525C86.7004 44.4468 85.7528 44.4468 85.7547 45.0525C85.7547 45.2086 85.7187 45.4061 85.6675 45.5133C85.586 45.6902 85.4761 45.8538 85.37 46.0175C85.207 46.2714 85.0535 46.5329 84.917 46.8018C84.61 47.4113 84.2499 48.19 84.5626 48.8615C84.6687 49.0891 85.0099 49.1531 85.2108 49.0308C85.641 48.7694 85.9082 48.3085 85.7964 47.8044C85.7358 47.5298 85.3415 47.3455 85.1008 47.5241C84.8222 47.7292 84.6744 47.9756 84.6593 48.3236C84.646 48.6321 84.972 48.8559 85.2582 48.7769C85.497 48.7111 85.6997 48.5606 85.7794 48.3217C85.8248 48.1825 85.8192 48.0377 85.8173 47.8928C85.8192 47.8646 85.8173 47.8665 85.8135 47.8966C85.8059 47.9323 85.8078 47.9267 85.8191 47.8815C85.7869 47.9154 85.8154 47.8966 85.8305 47.8646C85.8836 47.7612 85.7983 47.8891 85.8722 47.8025C85.8931 47.7781 85.9158 47.7555 85.9386 47.7329C86.0693 47.5994 86.202 47.4752 86.3119 47.3248C86.5469 46.9993 86.5716 46.5855 86.6777 46.2112C86.7725 45.8745 87.0454 45.5641 87.1155 45.1823C87.161 44.9321 87.0473 44.6744 86.7838 44.6029C86.5526 44.5333 86.2456 44.6744 86.2001 44.9246Z" fill="#222221"/>
<path d="M93.0458 47.8175C93.0515 47.7423 93.0212 47.874 93.042 47.8326C93.0155 47.8834 92.9871 47.9342 92.953 47.9812C92.898 48.0602 92.8298 48.1298 92.7634 48.2013C92.5929 48.3856 92.4128 48.5605 92.2688 48.7674C91.9693 49.1982 91.7305 49.7211 91.5372 50.2083C91.3988 50.5563 91.2927 50.9174 91.1525 51.2635C91.1108 51.3689 91.0236 51.5551 90.9364 51.6924C90.9137 51.7282 90.889 51.7658 90.8625 51.7996C90.925 51.7206 90.8435 51.8147 90.8341 51.8222C90.762 51.8805 90.9099 51.7996 90.8208 51.8335C90.7317 51.8674 90.9156 51.8072 90.8189 51.8316C90.2276 51.9765 90.4778 52.885 91.071 52.7383C91.4898 52.6348 91.7457 52.2304 91.9144 51.8655C92.1096 51.446 92.246 51.004 92.4052 50.5713C92.4204 50.5318 92.4356 50.4942 92.4488 50.4547C92.4621 50.4209 92.4583 50.4303 92.4375 50.481C92.4469 50.4604 92.4564 50.4397 92.4659 50.4209C92.5322 50.2873 92.5985 50.1538 92.6649 50.0183C92.7919 49.7606 92.9473 49.422 93.0951 49.2283C93.4514 48.7637 93.9385 48.4458 93.9916 47.8157C94.0124 47.5617 93.7584 47.3454 93.5177 47.3454C93.2467 47.3473 93.0667 47.5636 93.0458 47.8175Z" fill="#222221"/>
</g>
<defs>
<clipPath id="clip0_116_390">
<rect width="144" height="140" fill="white" transform="translate(19.25 21)"/>
</clipPath>
</defs>
</svg>
