<svg width="70" height="27" viewBox="0 0 70 27" fill="none" xmlns="http://www.w3.org/2000/svg">
<g clip-path="url(#clip0_67_129)">
<path d="M19.3874 7.07306V27.1045H15.8228V14.0755L11.056 27.1045H8.35764L3.5646 14.0755V27.1045H0V7.07306H4.05282L9.70683 21.971L15.3608 7.07306H19.3874Z" fill="#15294B"/>
<path d="M35.3099 23.2898H28.228L27.0573 27.1104H23.3142L29.7032 7.04346H33.8558L40.25 27.1045H36.4806L35.3099 23.2898ZM34.344 20.0725L31.7716 11.692L29.1992 20.0725H34.344Z" fill="#15294B"/>
<path d="M54.8023 27.1045L50.9543 20.3623L47.4632 27.1045H43.4366L49.0433 17.003L43.3631 7.07306H47.4632L51.3113 13.7916L54.7761 7.07306H58.8027L53.2222 17.145L58.9024 27.1045H54.8023Z" fill="#15294B"/>
<rect x="62" y="19" width="8" height="8" rx="4" fill="#B78AF7"/>
</g>
<defs>
<clipPath id="clip0_67_129">
<rect width="70" height="27" fill="white"/>
</clipPath>
</defs>
</svg>
