<svg width="186" height="44" viewBox="0 0 186 44" fill="none" xmlns="http://www.w3.org/2000/svg">
<g clip-path="url(#clip0_142_5798)">
<path d="M45.3634 0H19.3165V28.5118H45.3634V0Z" fill="#B78AF7"/>
<path d="M32.1241 28.5118L26.5118 44H0L7.97014 22L14.789 3.16509C14.8333 3.04835 14.8776 2.94458 14.9219 2.8408C14.9662 2.72406 15.0215 2.63326 15.0769 2.51651C15.0769 2.50354 15.0879 2.50354 15.0879 2.49057C15.1322 2.39976 15.1876 2.30896 15.2429 2.21816C15.2983 2.12736 15.3425 2.03656 15.3979 1.95873C15.4864 1.84198 15.5639 1.71226 15.6635 1.59552C15.7078 1.53066 15.7632 1.47877 15.8185 1.41392L15.8517 1.375C15.9182 1.29717 15.9846 1.23231 16.0621 1.15448C16.1506 1.07665 16.2392 0.985849 16.3277 0.920991C16.4052 0.856132 16.4827 0.791274 16.5602 0.739387L16.5713 0.726415C16.6598 0.674528 16.7373 0.60967 16.8259 0.557783C16.9144 0.505896 17.014 0.441038 17.1026 0.402123C17.1137 0.389151 17.1247 0.389151 17.1358 0.376179C17.2133 0.337264 17.3019 0.298349 17.3904 0.259434C17.49 0.220519 17.5897 0.181604 17.6893 0.15566C17.7889 0.116745 17.8996 0.0908019 17.9992 0.0648585C18.0878 0.0389151 18.1874 0.0259434 18.276 0.0129717C18.2981 0 18.3313 0 18.3535 0C18.4531 0.0129717 18.5417 0 18.6413 0H19.4826C19.5379 0.0129717 19.5822 0.0129717 19.6376 0.0259434C19.7704 0.0518868 19.8922 0.0908019 20.0139 0.129717C20.0914 0.15566 20.1689 0.181604 20.2353 0.207547C20.2464 0.207547 20.2575 0.220519 20.2685 0.220519C20.3349 0.246462 20.4014 0.272406 20.4567 0.298349C20.667 0.402123 20.8774 0.518868 21.0655 0.648585C21.2094 0.752359 21.3423 0.856132 21.4751 0.972877C21.5083 1.01179 21.5526 1.03774 21.5747 1.06368C21.6301 1.11557 21.6744 1.16745 21.7297 1.20637C21.8736 1.34906 22.0065 1.50472 22.1282 1.67335C22.1614 1.71226 22.1836 1.75118 22.2168 1.79009C22.3718 2.01061 22.5046 2.23113 22.6374 2.47759C22.6706 2.52948 22.6928 2.59434 22.726 2.6592L22.7371 2.68514C22.7703 2.75 22.8035 2.81486 22.8256 2.87972C22.8588 2.98349 22.9031 3.07429 22.9363 3.17807L29.7331 21.9481L32.0909 28.4599V28.4469L32.1241 28.5118Z" fill="#9654F4"/>
<path d="M75.8492 22L68.6872 41.7689C68.6872 41.7689 68.6872 41.7689 68.6872 41.7818L68.5211 42.2488C68.5211 42.2488 68.5211 42.2488 68.5211 42.2618C68.3883 42.5601 68.2112 42.8326 68.0119 43.066C67.9898 43.105 67.9566 43.1309 67.9344 43.1568C67.9012 43.1958 67.8569 43.2476 67.8127 43.2736C67.7684 43.3125 67.7241 43.3514 67.6909 43.3903C67.5802 43.4811 67.4695 43.5719 67.3477 43.6368C67.2481 43.7017 67.1264 43.7535 67.0157 43.8054C66.8385 43.8833 66.6504 43.9351 66.4622 43.9741C66.4068 43.987 66.3515 43.987 66.2851 44C66.2076 44.013 66.1412 44.013 66.0637 44.013H64.2372L63.573 42.184C63.5287 42.0802 63.4844 41.9634 63.4512 41.8467V41.8337L58.1821 27.3054L56.6545 23.1026L56.267 22.0259H75.8492V22Z" fill="#CEB0FA"/>
<path d="M64.2261 43.9998H39.5629C39.5075 43.9998 39.4522 43.9999 39.3968 43.9869C39.2972 43.9869 39.2087 43.9739 39.109 43.948C39.0648 43.935 39.0094 43.922 38.9651 43.909C38.9098 43.8961 38.8655 43.8831 38.8102 43.8701C38.3895 43.7274 38.0131 43.481 37.7032 43.1437C37.6368 43.0789 37.5703 43.001 37.515 42.9232C37.4597 42.8454 37.3932 42.7675 37.349 42.6767C37.2936 42.5989 37.2493 42.5081 37.194 42.4173C37.1497 42.3265 37.1054 42.2357 37.0611 42.1449C37.0279 42.0541 36.9837 41.9633 36.9615 41.8595L32.1241 28.5116L34.4819 21.9999L41.1569 3.56707C41.1569 3.5541 41.1569 3.5541 41.168 3.54113L41.1901 3.47627L41.3562 3.02226L41.3894 2.90551C41.3894 2.89254 41.4004 2.89254 41.4004 2.87957C41.4004 2.8666 41.4004 2.8666 41.4115 2.85363L41.4447 2.74985V2.73688V2.72391L41.4558 2.68499L41.5886 2.32179C41.7325 2.04938 41.9096 1.78995 42.0978 1.55646C42.1643 1.47863 42.2307 1.38782 42.3082 1.30999C42.4521 1.15433 42.607 1.01164 42.762 0.881928C42.917 0.752211 43.0941 0.622494 43.2712 0.518721C43.3598 0.466834 43.4483 0.414947 43.5369 0.36306C43.6254 0.324145 43.714 0.272258 43.8026 0.233343H43.8136C43.9022 0.194428 43.9797 0.168485 44.0682 0.12957C44.0904 0.116598 44.1125 0.116598 44.1346 0.103626C44.2121 0.0776828 44.2786 0.0517394 44.356 0.0387677C44.4557 0.0128243 44.5553 -0.0131191 44.6439 -0.0260908C44.6771 -0.0260908 44.6992 -0.0390625 44.7213 -0.0390625H45.3634C47.0349 -0.0390625 48.4961 1.05056 49.2488 2.64608L49.6141 3.65787L56.2448 21.9609L56.6323 23.0376L58.1599 27.2404L63.429 41.7687V41.7817C63.4622 41.8984 63.5065 42.0152 63.5508 42.119L64.2261 43.9998Z" fill="#EFE6FD"/>
<path d="M123.374 5.78711V38.4309H117.789V17.1985L110.321 38.4309H106.094L98.5846 17.1985V38.4309H93V5.78711H99.3495L108.208 30.0652L117.066 5.78711H123.374Z" fill="#EFE6FD"/>
<path d="M148.32 32.2143H137.224L135.39 38.4404H129.526L139.536 5.73877H146.041L156.059 38.4308H150.154L148.32 32.2143ZM146.806 26.9712L142.776 13.3142L138.746 26.9712H146.806Z" fill="#EFE6FD"/>
<path d="M178.858 38.4309L172.829 27.4436L167.36 38.4309H161.052L169.836 21.9693L160.936 5.78711H167.36L173.389 16.7359L178.817 5.78711H185.125L176.383 22.2006L185.282 38.4309H178.858Z" fill="#EFE6FD"/>
</g>
<defs>
<clipPath id="clip0_142_5798">
<rect width="186" height="44" fill="white"/>
</clipPath>
</defs>
</svg>
