<svg width="240" height="160" fill="none" xmlns="http://www.w3.org/2000/svg"><path d="M234.447 44.282h-57.264v79.595h57.264V44.281z" fill="#fff" fill-opacity=".1"/><path d="M234.447 44.282h-57.264v28.81h57.264v-28.81z" fill="#455A64"/><path d="M224.53 80.152c0 .05-7.874.09-17.583.09s-17.583-.04-17.583-.09c0-.05 7.871-.087 17.583-.087 9.713 0 17.583.03 17.583.087zm0 7.75c0 .047-7.874.087-17.583.087s-17.583-.04-17.583-.087c0-.046 7.871-.087 17.583-.087 9.713 0 17.583.04 17.583.087zm0 7.761c0 .047-7.874.087-17.583.087s-17.583-.04-17.583-.087c0-.047 7.871-.09 17.583-.09 9.713 0 17.583.04 17.583.09z" fill="#263238"/><path d="M224.384 104.608h-34.396a6.126 6.126 0 00-6.126 6.126v.637a6.126 6.126 0 006.126 6.126h34.396a6.126 6.126 0 006.126-6.126v-.637a6.126 6.126 0 00-6.126-6.126z" fill="#455A64"/><path d="M194.353 63.973a1.271 1.271 0 01.794 1.238 1.33 1.33 0 01-.204.744 1.359 1.359 0 01-.59.487c-.284.12-.59.18-.898.173h-.667v1.001h-1.078v-3.813h1.742c.309-.01.616.049.901.17zm-.461 1.648a.592.592 0 000-.824.732.732 0 00-.5-.147h-.601v1.115h.611c.175.01.348-.04.49-.144zm3.444.978h-.598v1h-1.067v-3.796h1.735c.308-.008.614.051.897.173a1.391 1.391 0 01.604 1.959 1.333 1.333 0 01-.554.48l.821 1.198h-1.154l-.684-1.014zm.514-1.802a.736.736 0 00-.501-.147h-.611v1.115h.601a.752.752 0 00.5-.144.593.593 0 000-.824h.011zm4.894 1.982v.83h-3.06v-3.806h3.003v.834h-1.922v.64h1.692v.808h-1.692v.697l1.979-.003zm4.05.831v-2.002l-.981 1.645h-.477l-.974-1.592v1.965h-1.001v-3.823h.887L205.583 66l1.304-2.198h.888v3.81l-.981-.003zm1.755-3.807h1.078v3.81h-1.078v-3.81zm2.283 3.42a1.754 1.754 0 01-.471-1.312v-2.108h1.078v2.078c0 .61.24.915.724.915s.717-.304.717-.915v-2.078h1.061v2.112a1.74 1.74 0 01-.47 1.311 2.11 2.11 0 01-2.639 0v-.003zm7.28.387v-2.002l-.978 1.645h-.48l-.974-1.592v1.965h-1.001v-3.823h.887L216.901 66l1.304-2.198h.888v3.81l-.981-.003zm-19.663 44.745a1.728 1.728 0 01-.687-.667 1.886 1.886 0 010-1.888c.165-.276.403-.502.687-.651a2.055 2.055 0 011.001-.237c.286-.005.569.05.831.164.244.102.459.261.627.463l-.527.487a1.141 1.141 0 00-.891-.417 1.193 1.193 0 00-.587.147 1.029 1.029 0 00-.403.401c-.097.18-.146.382-.144.587a1.2 1.2 0 00.144.587c.093.17.233.31.403.404.18.098.383.147.587.143a1.123 1.123 0 00.891-.42l.527.487a1.653 1.653 0 01-.627.47c-.265.11-.55.164-.837.161a2.034 2.034 0 01-.995-.221zm5.409-2.285a1.204 1.204 0 01.314.901v1.545h-.791v-1.438a.71.71 0 00-.14-.481.543.543 0 00-.188-.125.547.547 0 00-.223-.035.653.653 0 00-.258.041.649.649 0 00-.219.143.773.773 0 00-.177.55v1.335h-.79v-3.73h.79v1.314c.109-.106.238-.188.381-.24.155-.057.319-.086.484-.083a1.108 1.108 0 01.817.303zm1.582 2.322a1.334 1.334 0 01-.534-.501 1.445 1.445 0 010-1.448c.128-.212.313-.384.534-.497a1.746 1.746 0 011.541 0c.22.114.403.286.531.497a1.45 1.45 0 010 1.448 1.333 1.333 0 01-.531.501 1.77 1.77 0 01-1.541 0zm1.271-.667a.764.764 0 00.194-.551.748.748 0 00-.194-.547.722.722 0 00-.229-.154.72.72 0 00-.542 0 .715.715 0 00-.23.154.74.74 0 00-.197.547.758.758 0 00.197.551.72.72 0 001.001 0zm2.038.667a1.361 1.361 0 01-.534-.501 1.48 1.48 0 010-1.448c.129-.212.314-.384.534-.497.24-.122.505-.184.774-.18.267-.005.531.057.768.18.22.113.405.285.533.497a1.472 1.472 0 010 1.448 1.352 1.352 0 01-.533.501 1.65 1.65 0 01-.768.177 1.677 1.677 0 01-.774-.177zm1.271-.668a.763.763 0 00.197-.55.743.743 0 00-.197-.547.663.663 0 00-.497-.207.667.667 0 00-.5.207.73.73 0 00-.2.547.759.759 0 00.2.55.654.654 0 00.5.204.67.67 0 00.501-.21l-.004.006zm1.779.761a1.642 1.642 0 01-.517-.21l.263-.567c.136.086.285.15.441.19.164.048.335.073.507.073.333 0 .5-.08.5-.247a.175.175 0 00-.137-.166 1.997 1.997 0 00-.42-.087 3.955 3.955 0 01-.55-.117.837.837 0 01-.378-.233.674.674 0 01-.16-.474.744.744 0 01.15-.457.971.971 0 01.434-.314c.214-.077.44-.114.668-.11.193 0 .385.021.573.063.166.034.326.093.474.174l-.263.564a1.553 1.553 0 00-.784-.204.804.804 0 00-.381.07.214.214 0 00-.127.184.187.187 0 00.137.177c.141.045.287.077.434.096.184.029.367.068.547.117.142.042.27.122.37.23.11.13.166.297.157.467a.715.715 0 01-.15.451 1 1 0 01-.444.307 1.954 1.954 0 01-.69.107c-.221 0-.441-.029-.654-.084zm5.085-1.094h-2.059a.637.637 0 00.264.4.88.88 0 00.517.147c.129.001.256-.02.377-.063a.924.924 0 00.304-.2l.42.453a1.398 1.398 0 01-1.121.441 1.832 1.832 0 01-.817-.177 1.328 1.328 0 01-.547-.501 1.462 1.462 0 010-1.444c.124-.212.304-.385.52-.501a1.62 1.62 0 011.465 0c.213.113.39.284.51.494.126.229.19.486.184.747 0 0-.004.07-.017.204zm-1.845-.878a.646.646 0 00-.224.417h1.335a.645.645 0 00-.667-.567.668.668 0 00-.444.15z" fill="#fff" fill-opacity=".1"/><path d="M185.788 81.59a.497.497 0 01-.334-.124l-.981-.864a.506.506 0 01-.042-.71.503.503 0 01.709-.04l.611.536 1.381-1.528a.504.504 0 01.688-.018.503.503 0 01.056.686l-1.715 1.891a.495.495 0 01-.373.17zm0 7.757a.497.497 0 01-.334-.123l-.981-.861a.512.512 0 01-.169-.347.502.502 0 01.836-.407l.611.537 1.381-1.525a.507.507 0 01.35-.185.5.5 0 01.394.852l-1.715 1.892a.487.487 0 01-.373.167zm0 7.761a.497.497 0 01-.334-.124l-.981-.864a.506.506 0 01-.042-.709.503.503 0 01.709-.042l.611.537 1.381-1.528a.504.504 0 01.688-.018.503.503 0 01.056.686l-1.715 1.891a.496.496 0 01-.373.17z" fill="#455A64"/><path d="M209.226 51.978l.824 1.672 1.849.27-1.338 1.301.317 1.839-1.652-.868-1.651.867.313-1.838-1.334-1.301 1.845-.27.827-1.672zm-6.488 0l.827 1.672 1.845.27-1.334 1.301.313 1.839-1.651-.868-1.652.867.317-1.838-1.338-1.301 1.848-.27.825-1.672z" fill="#fff" fill-opacity=".1"/><path d="M207.985 58.872l-2.172-1.171-2.192 1.12.443-2.422-1.745-1.741 2.443-.327 1.114-2.199 1.068 2.222 2.435.384-1.785 1.702.391 2.432z" fill="#fff" fill-opacity=".1"/><path d="M201.89 54.51l2.742-.363 1.251-2.466 1.195 2.493 2.732.43-2.002 1.905.438 2.733-2.433-1.315-2.462 1.258.497-2.72-1.958-1.954zm7.06.361l-2.139-.334-.938-1.955-.981 1.932-2.148.28 1.531 1.528-.387 2.142 1.929-1 1.905 1.03-.334-2.138 1.562-1.485z" fill="#455A64"/><path d="M234.441 123.876l-.081-79.595.081.08h-57.258l.087-.086v79.595l-.07-.071 57.264.071-57.264.07h-.074V44.188h57.428v.076c-.077 47.065-.113 78.928-.113 79.612zm-46.274-89.721a2.747 2.747 0 00.212-2.132 2.762 2.762 0 00-1.376-1.642 3.543 3.543 0 00-2.943-3.9c-.861-.103-1.732.123-2.596.057-.864-.067-1.611-.4-2.432-.55-.821-.15-1.765-.064-2.336.55-.624.667-.53 1.798-.033 2.582.497.784 1.298 1.305 2.075 1.805a.962.962 0 00-.954.834c-.049.474.08.95.36 1.335a4.214 4.214 0 003.971 1.888l2.179-.063a2.76 2.76 0 003.873-.764z" fill="#263238"/><path d="M181.285 36.307a.913.913 0 01-.975-.73 1.239 1.239 0 01.491-1.182 1.944 1.944 0 011.271-.334c.448.038.889.14 1.308.304a8.67 8.67 0 011.878.88c.213.125.395.295.534.498a.687.687 0 01.04.7c-.18.294-.584.334-.927.334a21.217 21.217 0 01-3.847-.333" fill="#2D9CDB"/><path d="M180.567 35.573c-.257-2.443-3.704-4.635-5.192-4.244a3.112 3.112 0 00-4.084-1.335l-4.057-1.798c-.694-.307-1.421-.624-2.175-.557-.754.066-1.522.667-1.495 1.418-1.465-.584-3.297.894-3.03 2.452a1.645 1.645 0 00-1.264 1.399c-.028.222-.01.448.053.663a16.426 16.426 0 00-5.111 2.242c-.668.43-1.311.96-1.525 1.712-.214.75.264 1.731 1.044 1.738a1.924 1.924 0 00-1.301 1.621c-.604-.42-1.451.364-1.358 1.095.094.73.717 1.258 1.318 1.668.601.41 1.265.858 1.505 1.552a.663.663 0 01-.471.236c-1.621.08-2.952 1.292-2.972 2.913v.414c0 .74.507 1.808.834 2.469.824 1.668 1.718 2.132 3.053 3.443-1.115.667-.254 4.578 4.06 4.518 4.444 5.552 8.024 9.048 13.746 13.269.818.604 1.882 1.214 2.783.747.534.668 1.475.881 2.319.761a7.525 7.525 0 002.365-.924 4.423 4.423 0 004.922-1.335 5.465 5.465 0 003.963-1.912c1.685.59 3.754-.64 4.041-2.402a19.32 19.32 0 001.842-6.076c1.087.484 2.369-.52 2.629-1.684.26-1.165-.18-2.336-.614-3.46.567.7 1.825.266 2.175-.561.351-.827.074-1.782-.277-2.613a16.25 16.25 0 00-1.952-3.43c.571-1.477.024-4.043-.73-5.438-3.043-5.629-5.902-8.585-15.038-8.591" fill="#263238"/><path d="M170.734 39.75a2.334 2.334 0 013.059-.837l12.135 4.204c3.564 1.835 3.086 7.39 1.101 10.873-2.205 3.87-5.048 8.508-7.307 10.99-4.544 5.005-9.969 2.356-9.969 2.356l-2.669 4.024-3.086 4.708c-1.408-1.308-9.943-10.49-9.943-10.49l16.679-25.828z" fill="#FFBF9D"/><path d="M175.882 58.425c.024-.047.557.183 1.398.594.21.11.421.193.541.08a1.21 1.21 0 00.253-.668l.401-1.878c.59-2.67 1.154-4.795 1.261-4.771.107.023-.284 2.202-.874 4.86-.151.668-.294 1.275-.434 1.873a1.358 1.358 0 01-.404.837.587.587 0 01-.51.074 1.619 1.619 0 01-.364-.17c-.807-.458-1.295-.791-1.268-.831z" fill="#263238"/><path d="M169.753 67.333s-3.223-1.668-5.475-6.34c0 0-1.825 4.742 4.197 8.265l1.278-1.925z" fill="#FF9A6C"/><path d="M178.722 47.821c-.214.16-.918-.444-1.892-.927-.974-.484-1.865-.718-1.862-.981 0-.127.26-.24.687-.25a3.668 3.668 0 012.86 1.454c.227.354.287.628.207.704zm7.236 5.059c-.25.086-.667-.444-1.294-.872-.628-.427-1.252-.667-1.258-.917 0-.123.203-.244.55-.254a2.14 2.14 0 011.245.407c.371.253.654.614.811 1.035.106.327.05.554-.054.6z" fill="#263238"/><path d="M187.583 58.338a4.602 4.602 0 00.784-2.976c-.073-.567-.29-1.114-.304-1.688-.03-1.238.854-2.286 1.298-3.44a5.02 5.02 0 00.281-2.352 5.022 5.022 0 00-.825-2.22c-.754-1.094-1.938-1.874-2.522-3.066-.434-.88-.504-1.915-1.001-2.765-.944-1.669-3.1-2.122-5.005-2.29-1.027.868-1.001 2.266-1.001 3.61a4.68 4.68 0 001.669 3.52c.807.668 1.928 1.182 2.088 2.213.167 1.084-.881 2.025-.894 3.12-.017 1.568 1.939 2.378 2.573 3.813.487 1.105.113 2.376-.101 3.567-.213 1.19-.14 2.649.875 3.31a13.827 13.827 0 002.085-2.356z" fill="#263238"/><path d="M181.02 40.988a23.6 23.6 0 00-8.181-3.92c-.877-.227-1.828-.4-2.669-.057-.737.3-1.271.948-1.731 1.601-1.435 2.04-2.409 5.105-3.003 7.534l1.434 3.337c2.279.944 3.811-3.06 4.935-4.811a4.906 4.906 0 004.858-1.835 5.433 5.433 0 004.357-1.849z" fill="#263238"/><path d="M167.377 48.732c.761-1.215-.5-2.466-1.925-2.586-.781-.066-1.668.284-2.479 1.565-2.175 3.41 1.698 4.895 1.768 4.798.07-.097 1.745-2.359 2.636-3.777z" fill="#FFBF9D"/><path d="M164.522 50.553c0-.023-.087 0-.217 0a.703.703 0 01-.451-.273c-.277-.364-.213-1.128.16-1.755a2.34 2.34 0 01.711-.744.812.812 0 01.737-.17.354.354 0 01.247.387c0 .123-.08.177-.063.197.017.02.107 0 .17-.17a.455.455 0 000-.3.537.537 0 00-.273-.298 1.001 1.001 0 00-.958.134 2.362 2.362 0 00-.814.82c-.417.701-.477 1.569-.074 2.026a.763.763 0 00.601.257c.163-.034.23-.097.224-.11z" fill="#FF9A6C"/><path d="M163.16 51.668l-.04.037a.576.576 0 01-.133.09.916.916 0 01-.628.067 2.483 2.483 0 01-.931-.414 3.487 3.487 0 01-.5-.417 2.322 2.322 0 01-.45-.587h.053a2.004 2.004 0 01-3.337-.838l.064.03a.844.844 0 01-.637-.023 1.163 1.163 0 01-.498-.427 1.079 1.079 0 01-.176-.667c.016-.238.093-.468.223-.668a2.07 2.07 0 011.145-.837 6.166 6.166 0 011.471-.217l-.047.08a1.42 1.42 0 01.04-1.151c.17-.371.445-.685.791-.9a3.23 3.23 0 011.164-.405 9.669 9.669 0 011.248-.096l-.056.07a1.504 1.504 0 01.36-1.181 2.198 2.198 0 011.074-.708c.808-.233 1.635-.09 2.402.037l-.066.04a2.661 2.661 0 011.892-1.63 2.672 2.672 0 012.412.649l-.09.02a2.306 2.306 0 011.591-1.275 2.28 2.28 0 011.875.334h-.07a2.281 2.281 0 011.775-.894 2.24 2.24 0 011.645.61h-.063a2.24 2.24 0 01.874-.65c.294-.133.609-.214.931-.24a2.304 2.304 0 011.471.333l.127.08c.04.03.077.064.11.094.066.054.13.112.19.173.091.099.175.203.251.314.053.09.093.16.126.21l.04.074a.434.434 0 01-.05-.067l-.137-.204a2.705 2.705 0 00-.253-.303 1.965 1.965 0 00-.19-.167l-.11-.09-.127-.077a2.3 2.3 0 00-1.442-.3 2.86 2.86 0 00-.907.247 2.102 2.102 0 00-.837.63l-.031.037-.03-.033a2.124 2.124 0 00-1.584-.574 2.173 2.173 0 00-1.702.897l-.03.044-.04-.03a2.174 2.174 0 00-1.792-.297 2.201 2.201 0 00-1.514 1.214l-.034.073-.057-.053a2.56 2.56 0 00-2.303-.608 2.562 2.562 0 00-1.81 1.549v.047h-.051c-.767-.127-1.574-.264-2.335-.04-.392.118-.741.35-1.001.667a1.4 1.4 0 00-.284.508 1.403 1.403 0 00-.05.58v.066h-.07c-.827.024-1.668.067-2.352.48a1.94 1.94 0 00-.747.845 1.293 1.293 0 00-.044 1.058l.034.076h-.084a6 6 0 00-1.444.21c-.445.126-.83.405-1.088.788a1.075 1.075 0 00-.053 1.201.88.88 0 001.017.417l.047-.017.017.05a1.958 1.958 0 001.538 1.335 1.983 1.983 0 001.668-.53l.033-.034.02.04c.114.213.259.408.431.578.15.153.314.291.49.413.271.201.58.345.908.424.204.053.42.037.614-.047.086-.073.14-.127.143-.12zm-9.946-12.525a1.2 1.2 0 01.02-.287c.044-.275.144-.539.293-.774a2.026 2.026 0 011.001-.834 2.152 2.152 0 011.732.103h-.054a2.769 2.769 0 011.465-1.401 2.719 2.719 0 011.131-.22 6.5 6.5 0 011.201.226c.201.048.408.066.614.054.209-.015.411-.08.591-.187.374-.207.687-.544 1.114-.75a2.46 2.46 0 012.719.47h-.096a3.225 3.225 0 012.312-1.684 3.23 3.23 0 012.742.81h-.093a2.848 2.848 0 012.721-1.417 2.837 2.837 0 012.424 1.88l-.057-.033a3.88 3.88 0 011.652.127c.479.134.938.33 1.368.58a6.737 6.737 0 011.848 1.535c.339.39.612.833.808 1.311.052.126.094.255.126.387.014.044.026.089.034.134 0 0-.054-.18-.187-.507a5.067 5.067 0 00-.824-1.288 6.768 6.768 0 00-1.845-1.498 5.64 5.64 0 00-1.355-.564 3.85 3.85 0 00-1.608-.117h-.04v-.04a2.73 2.73 0 00-2.338-1.78 2.735 2.735 0 00-2.6 1.37l-.037.066-.057-.05a3.112 3.112 0 00-3.971-.236 3.114 3.114 0 00-.927 1.084l-.04.073-.056-.06a2.34 2.34 0 00-2.576-.434c-.404.19-.717.524-1.111.748-.195.113-.413.18-.637.197-.216.01-.431-.01-.641-.06a6.609 6.609 0 00-1.184-.227 2.582 2.582 0 00-1.091.203 2.683 2.683 0 00-1.428 1.335l-.02.04-.037-.02a2.075 2.075 0 00-1.668-.114 2 2 0 00-1.001.798c-.15.23-.254.485-.307.754-.024.197-.024.297-.03.297zm30.685 23.535a.403.403 0 01.184-.28.823.823 0 01.387-.134c.187-.006.375.024.55.09.214.084.439.136.668.157.27-.003.533-.094.747-.26a2.36 2.36 0 00.624-.69c.183-.277.333-.594.57-.901.444-.628 1.161-1.068 1.815-1.635a3.36 3.36 0 00.825-1.044 1.614 1.614 0 00.073-1.351 6.2 6.2 0 00-.868-1.222 2.424 2.424 0 01-.39-.697 1.666 1.666 0 01-.04-.818 7.835 7.835 0 01.587-1.538c.114-.248.189-.513.224-.784a1.245 1.245 0 00-.177-.774 4.649 4.649 0 00-.817-.777 1.775 1.775 0 01-.377-.447 1.103 1.103 0 01-.141-.568 3.93 3.93 0 01.261-1.084c.115-.333.157-.687.123-1.038a2.421 2.421 0 00-.931-1.712 2.5 2.5 0 00-1.755-.503h-.073v-.073a3.842 3.842 0 00-.734-3.083 3.525 3.525 0 00-1.025-.888 3.266 3.266 0 00-1.081-.4 2.86 2.86 0 00-1.594.187 2.644 2.644 0 00-.384.193l-.097.05h-.037l.03-.023.094-.06c.121-.08.25-.148.384-.204a2.803 2.803 0 011.614-.22c.391.063.766.198 1.108.397a3.61 3.61 0 011.058.898 3.924 3.924 0 01.767 3.16l-.06-.064a2.593 2.593 0 012.524 1.308c.173.308.279.649.312 1 .035.366-.009.734-.127 1.082-.133.337-.219.69-.256 1.05a1.193 1.193 0 00.477.925 4.4 4.4 0 01.84.8c.156.256.224.554.194.851a2.728 2.728 0 01-.23.821 7.753 7.753 0 00-.581 1.515c-.054.251-.043.512.034.757.086.242.211.467.37.668a6.1 6.1 0 01.877 1.248c.1.233.14.487.117.74a1.995 1.995 0 01-.197.7 3.382 3.382 0 01-.851 1.075c-.667.574-1.381 1.001-1.815 1.608-.216.3-.387.614-.573.895a2.554 2.554 0 01-.668.704 1.296 1.296 0 01-.79.26 2.293 2.293 0 01-.668-.167 1.382 1.382 0 00-.534-.1.8.8 0 00-.377.117.489.489 0 00-.19.283z" fill="#455A64"/><path d="M193.926 62.201a.315.315 0 010-.087l.043-.25c.04-.223.1-.544.177-.954.077-.41.184-.918.25-1.511a3.579 3.579 0 00-.246-1.97c-.161-.333-.397-.666-.608-1a2.442 2.442 0 01-.257-.584 1.383 1.383 0 01-.026-.667c.09-.45.363-.841.494-1.281a1.15 1.15 0 000-.668 2.221 2.221 0 00-.351-.627c-.159-.2-.3-.414-.42-.64a1.317 1.317 0 01-.114-.785 5.97 5.97 0 01.641-1.474c.124-.235.198-.493.217-.758a.997.997 0 00-.274-.717c-.367-.404-.937-.587-1.361-1.001a1.444 1.444 0 01-.39-.79 3.616 3.616 0 010-.858c.023-.28.053-.557.05-.828a1.575 1.575 0 00-.184-.757c-.26-.464-.774-.687-1.248-.884a3.582 3.582 0 01-1.334-.794 4.002 4.002 0 01-.724-1.275 7.207 7.207 0 00-.531-1.261 4.152 4.152 0 00-1.902-1.468 4.452 4.452 0 00-1.975-.297 4.94 4.94 0 00-1.475.364 5.596 5.596 0 00-.847.46l-.214.133-.076.044.07-.053.207-.147c.266-.186.548-.347.844-.48.472-.208.974-.34 1.488-.391a4.47 4.47 0 012.002.287 4.239 4.239 0 011.952 1.491c.238.396.437.814.593 1.248.159.452.399.872.708 1.238.368.343.806.603 1.284.76.248.1.488.216.718.351a1.542 1.542 0 01.787 1.398c0 .28-.016.561-.047.84a3.47 3.47 0 000 .828c.038.273.162.527.354.724.394.397.964.58 1.365 1.001.203.218.312.507.303.804a1.99 1.99 0 01-.23.804c-.23.494-.547.941-.631 1.442-.041.245-.005.497.104.72.116.22.251.429.404.624.16.2.284.425.367.668.075.24.075.497 0 .737-.14.464-.411.847-.497 1.271-.066.416.029.84.266 1.188.201.354.441.667.604 1.02.265.633.347 1.326.237 2.003-.073.597-.193 1.1-.273 1.515-.08.413-.154.724-.201.95l-.053.247a.422.422 0 01-.04.097z" fill="#455A64"/><path d="M192.918 56.252l.067.034a.45.45 0 01.147.163.873.873 0 01-.094.818 2.267 2.267 0 01-.423.437 2.57 2.57 0 00-.498.507c-.134.235-.204.5-.203.77 0 .291 0 .601-.033.932a1.176 1.176 0 01-.514.887c-.307.204-.668.29-.985.5a1.512 1.512 0 00-.56.968c-.09.39-.117.814-.234 1.238a1.817 1.817 0 01-.277.607 1.661 1.661 0 01-.517.45 7.376 7.376 0 01-1.298.484c-.45.117-.84.398-1.094.788-.19.446-.325.913-.404 1.391a2.12 2.12 0 01-.313.69 1.672 1.672 0 01-.581.481 6.19 6.19 0 01-1.378.41 3.36 3.36 0 00-1.244.514 9.405 9.405 0 01-1.078.775c-.193.106-.41.166-.631.173-.212 0-.424-.037-.624-.11a5.12 5.12 0 00-.57-.167 2.158 2.158 0 00-.567-.017c-.359.06-.709.165-1.041.314-.334.137-.641.274-.954.377a2.774 2.774 0 01-1.749 0 2.961 2.961 0 01-1.144-.667 2.659 2.659 0 01-.514-.668 1.736 1.736 0 01-.12-.267c.166.337.392.64.667.895.325.294.711.513 1.131.64.557.17 1.153.159 1.702-.033.307-.103.614-.24.944-.38.34-.158.699-.27 1.068-.334a2.11 2.11 0 01.594 0c.198.043.393.1.584.167.189.069.389.103.59.103.205-.009.404-.065.584-.163a9.76 9.76 0 001.061-.771 3.463 3.463 0 011.281-.534c.459-.084.907-.22 1.335-.407a1.51 1.51 0 00.537-.444 1.91 1.91 0 00.294-.647c.081-.489.221-.966.417-1.421.122-.217.297-.4.507-.534.209-.13.433-.232.667-.307a8.09 8.09 0 001.278-.424c.186-.107.35-.25.48-.42.121-.173.211-.366.264-.57.113-.408.14-.828.233-1.229.065-.408.283-.776.611-1.027.334-.224.701-.307 1.001-.497a1.075 1.075 0 00.48-.818c.041-.313.02-.627.041-.92.003-.284.081-.561.226-.805.146-.195.319-.368.514-.514.161-.119.303-.26.424-.42a.849.849 0 00.11-.78.517.517 0 00-.197-.218z" fill="#455A64"/><path d="M172.736 57.821a.551.551 0 01.741.167l1.505 2.235.17.247a6.069 6.069 0 01-1.335.874 1.58 1.58 0 01-1.334 0 1.766 1.766 0 01-.708-.84c-.23-.564-.417-1.142-.16-1.692.187-.404.768-.764 1.121-.99z" fill="#FF9A6C"/><path d="M161.612 49.73a2.128 2.128 0 00-.694-.07 2.73 2.73 0 00-1.742.734 2.901 2.901 0 00-.75 1.094c-.178.483-.24 1-.181 1.511a3.34 3.34 0 00.598 1.572c.358.5.859.879 1.438 1.088a3.264 3.264 0 001.798.14 2.95 2.95 0 001.481-.794 3.145 3.145 0 00.915-2.62 2.767 2.767 0 00-.397-1.02 3.013 3.013 0 00-.524-.638 1.801 1.801 0 00-.434-.29.435.435 0 00-.173-.053c.209.096.399.228.563.39a3 3 0 01.858 1.625 3.042 3.042 0 01-.908 2.506 2.82 2.82 0 01-1.411.747 3.159 3.159 0 01-1.715-.14 2.91 2.91 0 01-1.368-1.028 3.222 3.222 0 01-.58-1.501 3.155 3.155 0 01.16-1.452c.151-.401.392-.763.704-1.057a2.76 2.76 0 011.668-.754c.454-.03.691.03.694.01z" fill="#E0E0E0"/><path d="M175.121 52.355a.873.873 0 01-1.194.274.833.833 0 01-.411-.508.83.83 0 01.077-.65.879.879 0 011.195-.273.853.853 0 01.259.211.833.833 0 01.074.946zm6.974 4.868a.882.882 0 01-1.195.274.849.849 0 01-.438-.844.834.834 0 01.105-.317.88.88 0 011.194-.274.839.839 0 01.412.51.849.849 0 01-.078.65zm1.995-1.922c-.143.06-.42-.704-1.174-1.13-.754-.428-1.552-.298-1.572-.454 0-.07.18-.214.534-.28a1.96 1.96 0 012.195 1.264c.117.34.087.577.017.6zm-7.084-4.247c-.176.04-.437-.858-1.284-1.458-.848-.6-1.782-.584-1.795-.76 0-.084.227-.21.647-.231a2.519 2.519 0 011.535.474c.443.318.767.774.921 1.298.11.413.057.66-.024.677zm-3.87 10.356s-.12.047-.333 0a1.558 1.558 0 01-.808-.49 2.448 2.448 0 01-.617-1.258 1.532 1.532 0 01.093-.854c.129-.28.319-.528.558-.724.228-.19.477-.353.744-.484a.605.605 0 01.5-.063.752.752 0 01.334.333l.72 1.148c.238.349.436.722.591 1.114a5.576 5.576 0 01-.767-1c-.241-.334-.498-.718-.771-1.115-.147-.24-.254-.297-.494-.167a3.82 3.82 0 00-.691.457 1.447 1.447 0 00-.58 1.335c.066.427.243.828.514 1.164.181.23.421.408.694.514.193.064.317.067.313.09zm30.226-12.978a5.338 5.338 0 00-.52-1.165 3.959 3.959 0 00-1.028-1.06 3.614 3.614 0 00-1.812-.651h-.103v-.107a3.337 3.337 0 00-.771-2.389 3.376 3.376 0 00-2.566-1.301h-.13v-.13a5.457 5.457 0 00-1.571-3.724 5.236 5.236 0 00-2.83-1.461 5.436 5.436 0 00-2.912.293l-.06.024-.057-.037a8.133 8.133 0 00-3.116-1.254 8.448 8.448 0 00-2.63-.07c-.769.117-1.525.312-2.255.584 0 0 .043-.034.137-.08.093-.047.233-.12.42-.194a7.889 7.889 0 011.668-.457 8.422 8.422 0 012.686 0 8.28 8.28 0 013.22 1.254h-.117a5.617 5.617 0 013.05-.333 5.43 5.43 0 012.979 1.528 5.672 5.672 0 011.642 3.913l-.13-.13a3.623 3.623 0 012.752 1.415c.591.713.878 1.63.801 2.552l-.093-.11c.686.06 1.341.31 1.891.724a3.81 3.81 0 011.028 1.131c.166.278.292.578.374.891.031.112.048.228.053.344z" fill="#263238"/><path d="M181.988 31.239a2.365 2.365 0 01-.961-.394 3.646 3.646 0 01-1.595-2.335 3.363 3.363 0 01.223-2.002 3.774 3.774 0 011.532-1.738 3.44 3.44 0 012.539-.337 3.673 3.673 0 012.269 1.611l-.15-.063a2.617 2.617 0 011.741.19c.464.209.86.543 1.145.964.262.415.393.9.373 1.391a2.699 2.699 0 01-1.351 2.266l-.05-.24a2.216 2.216 0 011.712 1.184 2.282 2.282 0 01.146 1.892 2.93 2.93 0 01-2.355 1.885 3.644 3.644 0 01-2.002-.297 3.164 3.164 0 01-.474-.254c-.1-.07-.15-.106-.147-.113.004-.007.221.127.651.29.613.244 1.28.319 1.932.217a2.773 2.773 0 002.175-1.798 2.057 2.057 0 00-.153-1.705 1.977 1.977 0 00-1.522-1.048l-.43-.033.377-.207a2.444 2.444 0 001.208-2.045 2.19 2.19 0 00-.334-1.238 2.47 2.47 0 00-1.001-.864 2.354 2.354 0 00-1.558-.174l-.097.027-.053-.087a3.414 3.414 0 00-2.095-1.498 3.186 3.186 0 00-2.363.31 3.568 3.568 0 00-1.458 1.615 3.186 3.186 0 00-.24 1.872c.175.922.703 1.74 1.471 2.279.282.188.581.348.895.477zm-21.731-2.746a.614.614 0 01.027-.17c.037-.16.087-.318.15-.47a4.275 4.275 0 011.055-1.532 4.232 4.232 0 012.575-1.155 4.507 4.507 0 013.37 1.158l-.15-.02a5.372 5.372 0 013.707-.487 5.207 5.207 0 012.492 1.395 5.338 5.338 0 011.335 2.248l-.104-.086a5.923 5.923 0 012.733 1.128 6.169 6.169 0 011.558 1.691c.264.424.469.882.607 1.361a2.4 2.4 0 01.104.517 8.127 8.127 0 00-.838-1.798 6.104 6.104 0 00-1.551-1.605 5.8 5.8 0 00-2.643-1.05h-.08l-.023-.077a5.147 5.147 0 00-1.288-2.13 4.942 4.942 0 00-2.362-1.334 5.146 5.146 0 00-3.523.45l-.084.044-.067-.063a4.306 4.306 0 00-3.176-1.125 4.13 4.13 0 00-2.482 1.051 4.487 4.487 0 00-1.085 1.445c-.18.394-.237.62-.257.614z" fill="#263238"/><path d="M139.802 53.553s.36-.64 3.139-.276c2.78.363 13.79 7.987 13.79 7.987s-2.002 7.877 4.054 9.379c4.411 1.094 6.75-.137 6.75-.137s7.383 9.182 7.987 12.926c0 0-35.583 24.896-29.808 22.191l-5.912.066V53.553z" fill="#2D9CDB"/><path d="M174.945 81.746c.097.264 1.475 1.906.11 9.219-1.241 6.643-6.673 13.346-6.673 13.346l-10.83-9.746 17.393-12.819z" fill="#2D9CDB"/><path d="M169.296 86.955c-.05.06-.106.115-.167.164l-.497.433a96.53 96.53 0 01-1.885 1.542 360.822 360.822 0 01-6.34 4.914c-2.492 1.895-4.771 3.594-6.422 4.828l-1.962 1.435-.541.384a.929.929 0 01-.193.123c.053-.055.111-.105.173-.15l.521-.41 1.928-1.478 6.39-4.855a863.174 863.174 0 006.369-4.875l1.918-1.498.518-.407a1.32 1.32 0 01.19-.15z" fill="#263238"/><path d="M151.289 24.045H72.478v109.54h78.811V24.045z" fill="#fff" fill-opacity=".1"/><path d="M151.289 24.045H72.478v39.648h78.811V24.045z" fill="#2D9CDB"/><path d="M143.079 27.222h-14.007a3.764 3.764 0 00-3.764 3.763v.39a3.764 3.764 0 003.764 3.764h14.007a3.763 3.763 0 003.763-3.763v-.39a3.763 3.763 0 00-3.763-3.764zm-5.436 46.179c0 .047-10.837.087-24.196.087-13.36 0-24.203-.04-24.203-.087 0-.046 10.833-.086 24.203-.086 13.369 0 24.196.036 24.196.086zm0 10.677c0 .047-10.837.087-24.196.087-13.36 0-24.203-.04-24.203-.087 0-.046 10.833-.086 24.203-.086 13.369 0 24.196.04 24.196.086zm0 10.681c0 .047-10.837.087-24.196.087-13.36 0-24.203-.04-24.203-.087 0-.047 10.833-.087 24.203-.087 13.369 0 24.196.037 24.196.087z" fill="#263238"/><path d="M137.443 107.067H90.102a8.428 8.428 0 00-8.428 8.428v.884a8.428 8.428 0 008.428 8.428h47.341a8.428 8.428 0 008.428-8.428v-.884a8.428 8.428 0 00-8.428-8.428z" fill="#2D9CDB"/><path d="M93.084 57.56a2.966 2.966 0 01-.974-.42l.487-1.09c.253.163.529.288.818.373.296.092.604.14.914.143.567 0 .854-.143.854-.427a.354.354 0 00-.244-.333 4.403 4.403 0 00-.784-.23 6.84 6.84 0 01-1-.274 1.669 1.669 0 01-.685-.467 1.275 1.275 0 01-.283-.868c-.004-.31.088-.612.263-.867.196-.275.467-.487.781-.61a3.211 3.211 0 011.278-.224c.343 0 .684.04 1.018.116.31.065.608.178.884.334l-.457 1.101a3.04 3.04 0 00-1.452-.404 1.215 1.215 0 00-.644.13.386.386 0 00-.203.334.334.334 0 00.24.314c.25.096.508.17.77.22a7.2 7.2 0 011.002.27c.256.101.484.261.667.467.203.24.306.55.287.864a1.49 1.49 0 01-.26.855c-.2.273-.473.484-.788.61a3.225 3.225 0 01-1.274.227 4.756 4.756 0 01-1.215-.144zm5.282-4.013h-1.612v-1.178h4.698v1.178h-1.605v4.067h-1.481v-4.067zm6.891 3.049h-2.216l-.414 1.001h-1.511l2.312-5.245h1.462l2.335 5.245h-1.541l-.427-1zm-.434-1.094l-.667-1.669-.668 1.669h1.335zm7.796-3.133v5.245h-1.221l-2.316-2.793v2.793h-1.451v-5.245h1.221l2.312 2.796v-2.796h1.455zm1.041.001h2.479a3.486 3.486 0 011.528.333c.426.198.786.515 1.035.914a2.8 2.8 0 010 2.77 2.403 2.403 0 01-1.035.913 3.44 3.44 0 01-1.528.334h-2.479V52.37zm2.419 4.06a1.53 1.53 0 001.084-.38 1.574 1.574 0 000-2.113 1.517 1.517 0 00-1.084-.383h-.934v2.876h.934zm7.214.166h-2.216l-.413 1.001h-1.512l2.312-5.245h1.462l2.335 5.245h-1.558l-.41-1zm-.434-1.094l-.667-1.669-.668 1.669h1.335zm5.101.718h-.81v1.394h-1.478v-5.245h2.395c.424-.009.845.072 1.235.237a1.772 1.772 0 011.094 1.705 1.74 1.74 0 01-1.024 1.668l1.131 1.648h-1.588l-.955-1.408zm.704-2.48a1.04 1.04 0 00-.69-.2h-.824v1.535h.824a1.04 1.04 0 00.69-.2.696.696 0 00.231-.564.727.727 0 00-.221-.57h-.01zm2.546-1.37h2.469a3.489 3.489 0 011.528.333 2.44 2.44 0 011.034.914 2.79 2.79 0 010 2.77 2.423 2.423 0 01-1.034.913 3.44 3.44 0 01-1.528.334h-2.469V52.37zm2.419 4.06c.396.02.784-.117 1.081-.38a1.564 1.564 0 000-2.113 1.505 1.505 0 00-1.081-.383h-.951v2.876h.951zm-1.619-26.185a.765.765 0 01.334 1.084.716.716 0 01-.334.264c-.153.066-.32.098-.487.093h-.427v.584h-.49v-2.119h.917c.167-.003.333.03.487.094zm-.18.947a.33.33 0 00.117-.27.331.331 0 00-.117-.277.513.513 0 00-.333-.093h-.397v.734h.397a.512.512 0 00.323-.094h.01zm1.228.995a.79.79 0 01-.334-.297.868.868 0 010-.868.814.814 0 01.334-.297 1.046 1.046 0 01.921 0 .836.836 0 01.44.846.821.821 0 01-.107.319.795.795 0 01-.333.297 1.05 1.05 0 01-.921 0zm.757-.404a.516.516 0 000-.667.385.385 0 00-.297-.123.395.395 0 00-.3.123.516.516 0 000 .667.398.398 0 00.3.123.392.392 0 00.297-.133v.01zm2.287-1.061c.124.067.226.17.293.293a.964.964 0 010 .881.728.728 0 01-.293.294.818.818 0 01-.411.103.612.612 0 01-.49-.197v.761h-.474v-2.215h.45v.187a.633.633 0 01.514-.21.818.818 0 01.411.103zm-.197 1.06a.516.516 0 000-.666.422.422 0 00-.594 0 .516.516 0 000 .667.42.42 0 00.594 0zm2.552-1.14v1.628h-.44v-.194a.654.654 0 01-.224.164.71.71 0 01-.28.053.703.703 0 01-.511-.183.743.743 0 01-.187-.548v-.92h.474v.85c0 .264.11.394.334.394a.354.354 0 00.27-.11.464.464 0 00.104-.334v-.804l.46.003zm.437-.617h.474v2.245h-.474v-2.245zm2.149.774a.674.674 0 01.203.544v.927h-.44v-.204a.523.523 0 01-.497.227.764.764 0 01-.334-.063.49.49 0 01-.21-.174.486.486 0 01-.03-.456.422.422 0 01.13-.158.87.87 0 01.527-.13h.374a.3.3 0 00-.094-.237.419.419 0 00-.28-.083.762.762 0 00-.257.043.665.665 0 00-.213.11l-.167-.333a1.03 1.03 0 01.317-.147c.125-.033.254-.05.383-.05a.843.843 0 01.588.184zm-.401 1.12a.284.284 0 00.13-.163v-.167h-.333c-.194 0-.29.064-.29.19a.154.154 0 00.017.082.163.163 0 00.056.062c.057.04.125.058.193.053a.396.396 0 00.227-.056zm1.712-1.241a.863.863 0 01.334-.06v.434h-.107a.43.43 0 00-.317.113.449.449 0 00-.117.334v.767h-.46v-1.628h.45v.214a.545.545 0 01.217-.174zm-40.609 87.055a2.41 2.41 0 01-.944-.9 2.614 2.614 0 010-2.599c.227-.38.554-.691.944-.898a3.014 3.014 0 012.503-.1c.334.142.629.362.861.641l-.724.667a1.573 1.573 0 00-1.228-.571 1.627 1.627 0 00-.808.2 1.419 1.419 0 00-.554.554 1.762 1.762 0 000 1.615c.13.233.322.425.554.554.248.135.526.203.808.197a1.546 1.546 0 001.228-.574l.724.667a2.293 2.293 0 01-.865.648 2.893 2.893 0 01-1.151.223 2.827 2.827 0 01-1.348-.324zm7.447-3.146a1.64 1.64 0 01.431 1.241v2.146h-1.088v-1.979a1.003 1.003 0 00-.194-.667.711.711 0 00-.567-.22.855.855 0 00-.667.256c-.177.21-.264.481-.244.754v1.856h-1.087v-5.172h1.087v1.812a1.44 1.44 0 01.524-.334c.214-.078.44-.116.667-.113.209-.011.417.02.613.092.195.073.374.184.525.328zm2.176 3.193a1.827 1.827 0 01-.737-.687 1.873 1.873 0 01-.264-1.001 1.893 1.893 0 01.264-1.001c.177-.292.433-.529.737-.684a2.223 2.223 0 011.061-.247c.368-.007.731.078 1.058.247.303.156.557.392.734.684.179.303.27.649.263 1.001.008.352-.083.699-.263 1.001-.176.293-.43.531-.734.687-.327.17-.69.255-1.058.247a2.223 2.223 0 01-1.061-.247zm1.748-.924a1.207 1.207 0 000-1.515.902.902 0 00-.687-.28.926.926 0 00-.691.28 1.203 1.203 0 000 1.515.926.926 0 00.691.28.906.906 0 00.687-.283v.003zm2.813.924a1.832 1.832 0 01-.734-.687 1.872 1.872 0 01-.263-1.001 1.892 1.892 0 01.263-1.001c.177-.292.431-.528.734-.684a2.217 2.217 0 011.068-.223c.368-.008.731.077 1.058.246.301.157.554.394.73.684.179.303.27.65.264 1.001.008.352-.084.699-.264 1.001a1.837 1.837 0 01-.73.688c-.327.169-.69.254-1.058.247-.373 0-.74-.093-1.068-.271zm1.735-.927a1.197 1.197 0 000-1.515.903.903 0 00-.684-.28.915.915 0 00-.69.28 1.185 1.185 0 000 1.515.915.915 0 00.69.28.91.91 0 00.684-.28zm2.455 1.061a2.386 2.386 0 01-.711-.291l.364-.78a2.57 2.57 0 001.301.363c.461 0 .691-.111.691-.333a.244.244 0 00-.19-.231 2.824 2.824 0 00-.574-.123 5.813 5.813 0 01-.761-.16 1.185 1.185 0 01-.517-.334.917.917 0 01-.22-.667c-.003-.227.07-.449.207-.631.154-.196.361-.344.597-.427.298-.109.614-.161.931-.153a3.57 3.57 0 01.791.086c.228.044.448.125.65.241l-.36.774a2.156 2.156 0 00-1.081-.281c-.18-.01-.36.023-.524.097a.296.296 0 00-.173.25.245.245 0 00.19.244c.194.064.394.109.597.133.254.04.506.095.754.164.194.059.369.168.507.317a.898.898 0 01.217.641 1 1 0 01-.21.62c-.16.195-.372.341-.611.421a2.7 2.7 0 01-.947.15 3.678 3.678 0 01-.918-.09zm7.001-1.509h-2.833a.89.89 0 00.36.551c.211.139.459.209.711.2.177.004.354-.025.521-.087.157-.062.3-.155.42-.273l.577.627a1.929 1.929 0 01-1.545.604 2.431 2.431 0 01-1.124-.247 1.804 1.804 0 01-.751-.687 1.874 1.874 0 01-.263-1.001 1.932 1.932 0 01.26-1.001c.171-.291.419-.529.717-.687a2.067 2.067 0 011.021-.247 2.05 2.05 0 011.001.237c.293.15.536.382.701.667.174.314.262.669.253 1.027 0 0-.013.137-.026.317zm-2.543-1.204a.88.88 0 00-.307.571h1.849a.898.898 0 00-.921-.781.929.929 0 00-.621.21z" fill="#fff"/><path d="M84.322 75.203a.494.494 0 01-.333-.126l-1.335-1.185a.499.499 0 01-.047-.707.504.504 0 01.691-.04l.978.86L86.3 71.77a.5.5 0 01.744.668l-2.359 2.602a.496.496 0 01-.364.163zm.001 10.677a.49.49 0 01-.334-.123l-1.335-1.188a.5.5 0 01-.041-.709.502.502 0 01.709-.042l.977.861 2.026-2.239a.501.501 0 01.744.668l-2.36 2.602a.494.494 0 01-.386.17zm0 10.68a.494.494 0 01-.334-.126l-1.335-1.185a.5.5 0 01-.041-.709.502.502 0 01.709-.041l.977.857 2.026-2.235a.5.5 0 01.744.667l-2.36 2.602a.497.497 0 01-.386.17z" fill="#2D9CDB"/><path d="M117.19 35.953l1.338 2.71 2.989.433-2.162 2.109.511 2.976-2.676-1.405-2.673 1.405.511-2.976-2.162-2.109 2.989-.434 1.335-2.709z" fill="#fff"/><path d="M111.995 35.953l1.768 3.58 3.951.574-2.86 2.786.674 3.934-3.533-1.859-3.53 1.859.674-3.934-2.86-2.786 3.951-.574 1.765-3.58z" fill="#fff"/><path d="M115.959 47.417l-3.967-2.082-3.964 2.082.757-4.41-3.206-3.127 4.431-.644 1.982-4.004 1.978 4.004 4.431.644-3.206 3.123.764 4.414zm-8.972-7.086l2.509 2.448-.594 3.457 3.106-1.635 3.103 1.635-.604-3.453 2.509-2.45-3.47-.503-1.554-3.146-1.555 3.143-3.45.504z" fill="#2D9CDB"/><path d="M151.289 133.589l-.08-109.543.08.08h-78.8l.086-.087c0 40.989 0 78.911-.017 109.543l-.07-.07 78.811.07-78.81.07h-.07v-.07c0-30.632 0-68.554-.017-109.543v-.087h78.961v.077l-.074 109.56z" fill="#263238"/><path d="M112.723 89.944s-1.168-1.755 1.171-1.852c2.339-.097 13.836 1.852 17.733 3.8l3.41 2.142-3.693 7.307h-8.488c-.974 0-3.7-1.668-1.168-2.822 0 0-2.532-1.755-.193-3.217 0 0-1.852-1.364.096-3.216l-8.868-2.142z" fill="#FFBF9D"/><path d="M132.311 92.617l19.352 10.136 7.26-6.947 8.652 7.794s-8.575 10.07-13.543 10.947c-4.968.878-24.316-14.68-24.316-14.68l2.595-7.25zm20.303-31.15l-.18.104a3.402 3.402 0 01-.891.31 3.113 3.113 0 00-.437.08c-.086.047-.167.1-.244.16-.53.31-1.204.334-1.798.41-.668.07-1.385.174-1.905.605-.521.43-.754 1.288-.297 1.785a.883.883 0 00-.864.787 1.263 1.263 0 00.52 1.118c.354.25.769.4 1.201.434a.975.975 0 00-.804 1.09 1.487 1.487 0 00.918 1.122c.472.184.979.261 1.484.227.652-.024 1.305-.01 1.956.04v1.021c.352.205.731.36 1.127.457.878.287 1.445.52 2.236.724.59.153 1.171.227 1.488-.17.764-.955-1.245-2.336-1.245-2.336.591-.334.431-2.225-.447-2.482.434-.214.707-.19.964-.604a1.547 1.547 0 00.154-1.388 1.103 1.103 0 00-1.165-.668 1.86 1.86 0 00.538-2.029 1.84 1.84 0 00-.885-.97 1.866 1.866 0 00-.64-.19.722.722 0 00-.254 0 .333.333 0 00-.103.053c-.147.077-.274.207-.427.31z" fill="#FFBF9D"/><path d="M153.551 59.292a1.465 1.465 0 00-.537-1.088c-.407-.277-1.141-.244-1.625-.137-.03.587 0 .884-.04 1.472 0 .123.036.22-.02.333-.15.29-.788.334-1.081.484a1.11 1.11 0 00-.404 1.471 1.489 1.489 0 001.438.711 2.296 2.296 0 001.461-.79 3.24 3.24 0 00.808-2.456z" fill="#FFBF9D"/><path d="M154.549 64.26c0 .046-1.712.233-3.834.413-2.122.18-3.847.29-3.85.24-.003-.05 1.712-.233 3.834-.413 2.122-.18 3.847-.29 3.85-.24zm0 2.68a5.11 5.11 0 01-1.001.2c-.816.12-1.638.201-2.462.24-.968.05-1.842.04-2.476 0a5 5 0 01-1.021-.1 6.76 6.76 0 011.025-.024c.63 0 1.501 0 2.462-.06.961-.06 1.828-.123 2.456-.187.337-.047.677-.07 1.017-.07zm-.001 2.618a3.59 3.59 0 01-.838.134c-.52.053-1.241.093-2.038.103-.798.01-1.518 0-2.039 0a4.191 4.191 0 01-.847-.047c.278-.055.561-.08.844-.076.524-.024 1.244-.034 2.038-.047.795-.013 1.515-.03 2.036-.053a5.04 5.04 0 01.844-.014zm-1.154-9.406a.939.939 0 01-.053.668 2.193 2.193 0 01-1.068 1.15 4.462 4.462 0 01-.801.334 3.26 3.26 0 01-.694.164.743.743 0 01-.48-.11c-.097-.067-.123-.13-.117-.137a.839.839 0 00.584.127c.228-.047.451-.113.667-.197.266-.09.523-.203.771-.334a2.255 2.255 0 001.038-1.047c.069-.201.12-.408.153-.618z" fill="#FF9A6C"/><path d="M62.816 44.281H5.551v79.595h57.264V44.281z" fill="#fff" fill-opacity=".1"/><path d="M62.816 44.281H5.551v28.81h57.264v-28.81z" fill="#455A64"/><path d="M52.903 80.151c0 .05-7.874.09-17.583.09-9.71 0-17.584-.04-17.584-.09 0-.05 7.871-.086 17.584-.086 9.712 0 17.583.03 17.583.086zm0 7.751c0 .047-7.874.087-17.583.087-9.71 0-17.584-.04-17.584-.087 0-.047 7.871-.087 17.584-.087 9.712 0 17.583.04 17.583.087zm0 7.761c0 .047-7.874.087-17.583.087-9.71 0-17.584-.04-17.584-.087 0-.047 7.871-.09 17.584-.09 9.712 0 17.583.04 17.583.09z" fill="#263238"/><path d="M52.755 104.608H18.36a6.126 6.126 0 00-6.125 6.126v.637a6.126 6.126 0 006.125 6.126h34.396a6.126 6.126 0 006.126-6.126v-.637a6.126 6.126 0 00-6.126-6.126z" fill="#455A64"/><path d="M28.867 65.982a.93.93 0 01.183.584.88.88 0 01-.403.774 2.085 2.085 0 01-1.165.27h-2.055v-3.807h1.948c.389-.025.775.07 1.108.27a.853.853 0 01.384.728.928.928 0 01-.134.487.944.944 0 01-.38.333c.203.067.382.192.514.36zM26.49 64.58v.734h.754c.364 0 .544-.123.544-.37s-.18-.364-.544-.364h-.754zm1.472 1.865c0-.256-.19-.386-.568-.386h-.904v.774h.904c.377 0 .568-.13.568-.388zm4.201.425H30.55l-.296.74h-1.102l1.669-3.81h1.06l1.702 3.81h-1.12l-.301-.74zm-.317-.795l-.487-1.218-.49 1.218h.977zm2.483 1.498a2.171 2.171 0 01-.707-.307l.353-.794c.184.119.384.211.594.274.216.068.441.103.668.103.413 0 .62-.103.62-.31a.26.26 0 00-.177-.243 3.67 3.67 0 00-.567-.167 5.38 5.38 0 01-.72-.197 1.197 1.197 0 01-.494-.334.91.91 0 01-.207-.63 1.097 1.097 0 01.19-.631 1.29 1.29 0 01.567-.444c.296-.114.611-.169.928-.16.249 0 .497.027.74.084.226.048.444.132.644.246l-.333.801a2.196 2.196 0 00-1.055-.294.884.884 0 00-.467.094.282.282 0 00-.147.247.244.244 0 00.174.23c.182.07.37.122.56.157.245.05.486.117.721.2.19.07.359.184.494.334a.897.897 0 01.214.64c.002.222-.064.439-.19.62-.144.2-.342.355-.571.445-.295.118-.61.174-.928.166a3.505 3.505 0 01-.904-.13zm3.082-3.77h1.078v3.81h-1.078v-3.81zm2.669 3.63c-.31-.16-.57-.404-.75-.704a2.07 2.07 0 010-2.045c.18-.3.44-.546.75-.707.333-.17.702-.257 1.075-.25a2.31 2.31 0 01.941.183c.273.118.512.301.697.534l-.687.62a1.128 1.128 0 00-.897-.447 1.105 1.105 0 00-.55.137.928.928 0 00-.378.384c-.092.174-.138.37-.133.567a1.18 1.18 0 00.133.57.948.948 0 00.377.384c.169.093.358.14.55.137a1.128 1.128 0 00.898-.447l.687.62a1.841 1.841 0 01-.697.534 2.31 2.31 0 01-.94.184 2.232 2.232 0 01-1.075-.254zm-13.261 44.922a1.748 1.748 0 01-.687-.667 1.902 1.902 0 010-1.888c.17-.265.407-.479.687-.621a2.193 2.193 0 011.818-.073c.242.103.456.262.624.464l-.527.487a1.112 1.112 0 00-.888-.414 1.168 1.168 0 00-.587.143 1.036 1.036 0 00-.403.401 1.19 1.19 0 00-.144.587c-.004.205.045.407.144.587.092.162.227.296.39.387.18.099.382.148.587.144a1.118 1.118 0 00.888-.421l.527.487a1.591 1.591 0 01-.627.471 2.111 2.111 0 01-.834.16 2.038 2.038 0 01-.968-.234zm5.411-2.285a1.21 1.21 0 01.31.901v1.545h-.787v-1.438a.707.707 0 00-.143-.481.524.524 0 00-.41-.16.63.63 0 00-.474.183.758.758 0 00-.177.551v1.335h-.79v-3.731h.79v1.315c.104-.106.23-.189.367-.244a1.37 1.37 0 01.487-.083 1.108 1.108 0 01.828.307zm1.578 2.322a1.356 1.356 0 01-.534-.501 1.474 1.474 0 010-1.448c.13-.21.315-.382.534-.497.24-.122.505-.184.774-.18.267-.004.53.057.768.18.22.114.403.286.53.497a1.453 1.453 0 010 1.448 1.33 1.33 0 01-.53.501 1.61 1.61 0 01-.768.177 1.65 1.65 0 01-.774-.177zm1.272-.667a.765.765 0 00.193-.551.76.76 0 00-.194-.547.676.676 0 00-.497-.207.66.66 0 00-.504.207.76.76 0 00-.196.547.77.77 0 00.197.551.67.67 0 00.503.203.662.662 0 00.498-.21v.007zm2.045.667a1.332 1.332 0 01-.534-.501 1.374 1.374 0 01.1-1.588c.118-.148.266-.269.434-.357a1.746 1.746 0 011.541 0c.22.114.404.286.531.497a1.453 1.453 0 010 1.448 1.33 1.33 0 01-.53.501 1.774 1.774 0 01-1.542 0zm1.271-.667a.766.766 0 00.194-.544.757.757 0 00-.194-.547.667.667 0 00-.5-.207.668.668 0 00-.654.461.754.754 0 00-.044.293c-.01.202.062.4.197.55a.666.666 0 00.5.204.676.676 0 00.501-.217v.007zm1.771.76a1.6 1.6 0 01-.514-.21l.264-.564c.136.085.285.148.44.187.164.049.334.073.504.074.334 0 .5-.08.5-.247a.173.173 0 00-.137-.167 1.98 1.98 0 00-.416-.087 3.61 3.61 0 01-.554-.117.868.868 0 01-.377-.23.667.667 0 01-.16-.477.736.736 0 01.15-.457.975.975 0 01.437-.314c.214-.077.44-.114.667-.11.193 0 .386.021.574.064.166.033.326.092.474.173l-.264.564a1.56 1.56 0 00-.784-.204.828.828 0 00-.38.07.217.217 0 00-.09.074.219.219 0 00-.037.11.185.185 0 00.137.177c.142.045.289.078.437.097.184.029.367.068.547.116a.812.812 0 01.367.234.63.63 0 01.157.464.717.717 0 01-.15.45 1 1 0 01-.444.307 1.954 1.954 0 01-.69.107 2.61 2.61 0 01-.658-.084zm5.095-1.094h-2.058a.635.635 0 00.26.4.88.88 0 00.517.147 1.01 1.01 0 00.377-.063.942.942 0 00.307-.2l.42.457a1.424 1.424 0 01-1.124.437 1.777 1.777 0 01-.814-.177 1.305 1.305 0 01-.547-.501 1.454 1.454 0 010-1.444 1.34 1.34 0 01.524-.501c.227-.122.482-.184.74-.18.253-.004.502.056.724.174.214.112.39.283.508.493.12.23.178.488.166.748v.21zm-1.855-.878a.643.643 0 00-.22.414h1.335a.671.671 0 00-.224-.414.667.667 0 00-.447-.153.67.67 0 00-.444.153z" fill="#fff" fill-opacity=".1"/><path d="M14.156 81.59a.504.504 0 01-.334-.124l-.977-.864a.502.502 0 11.667-.75l.61.537 1.382-1.528a.5.5 0 01.74.667l-1.71 1.891a.513.513 0 01-.378.17zm0 7.757a.504.504 0 01-.334-.123l-.977-.861a.5.5 0 01-.043-.71.504.504 0 01.71-.044l.607.55 1.382-1.524a.5.5 0 11.74.667l-1.711 1.892a.5.5 0 01-.374.153zm0 7.761a.504.504 0 01-.334-.124l-.977-.864a.502.502 0 11.667-.75l.61.537 1.382-1.528a.5.5 0 11.74.667l-1.71 1.891a.513.513 0 01-.378.17z" fill="#455A64"/><path d="M36.354 58.871l-2.169-1.17-2.195 1.12.444-2.422-1.745-1.742 2.442-.327 1.118-2.198 1.067 2.222 2.436.383-1.785 1.702.387 2.432z" fill="#fff" fill-opacity=".1"/><path d="M62.816 123.876c0-.7-.03-32.547-.077-79.595l.077.08-57.257.007.087-.087c0 29.782 0 57.338-.017 79.595l-.07-.07 57.264.07-57.264.07h-.07v-.07c0-22.257 0-49.813-.017-79.595v-.086h57.424v.076c-.047 47.058-.077 78.921-.08 79.605z" fill="#263238"/></svg>