<svg width="120" height="119" fill="none" xmlns="http://www.w3.org/2000/svg"><path d="M114.665 81.488c-11.935 27.496-43.441 39.306-68.127 37.293-6.74-.55-20.301-1.656-30.89-11.526-20.335-18.953-17.203-58.57 2.264-81.894C20.418 22.357 37.77 2.233 64.81 2.502c19.797.197 33.693 11.22 35.382 12.593 2.135 1.734 6.843 5.856 11.085 12.396 9.97 15.365 10.846 36.815 3.387 53.997z" fill="url(#paint0_linear_139_1176)" fill-opacity=".1"/><g opacity=".68"><path d="M40.275 76.132S38.42 30.09 21.493 1.872c-1.138-1.896-3.92-1.792-4.902.19-6.56 13.256-22.189 54.299 23.684 74.07z" fill="#91B3FA"/><path opacity=".5" d="M36.443 72.44c.087.126-.088.264-.19.151-3.802-4.171-17.823-23.76-17.864-57.365 0-.108.16-.118.17-.01.696 7.923 4.129 37.308 17.884 57.224z" fill="#fff" fill-opacity=".1"/></g><g opacity=".78" fill-opacity=".1"><path d="M31.897 87.493S26.294 39.12 9.283 10.48c-1.143-1.925-3.526-1.639-4.197.512-4.487 14.38-14.35 58.601 26.811 76.5z" fill="#BDD0FB"/><path opacity=".5" d="M28.281 83.849c.086.127-.052.284-.15.171-3.632-4.15-17.393-23.888-20.354-59.278-.01-.114.128-.134.145-.021 1.289 8.3 6.798 39.03 20.36 59.128z" fill="#fff"/></g><path d="M4.273 39.085v55.787a8.462 8.462 0 008.245 8.46c20.376.526 79.851 1.8 99.248 1.514a6.226 6.226 0 006.13-6.05c.374-12.96.982-44.125-1.266-58.593a6.408 6.408 0 00-6.127-5.424c-17.073-.547-80.829-2.28-100.217-1.845a6.151 6.151 0 00-6.013 6.15z" fill="url(#paint1_linear_139_1176)"/><path d="M7.773 38.96v55.075c0 2.784 2.151 5.053 4.83 5.094l96.372 1.389c2.656.041 4.834-2.18 4.844-4.94L114 40.996c.007-1.973-1.507-3.59-3.406-3.639l-98.947-2.324c-2.124-.054-3.874 1.72-3.874 3.928z" fill="#91B3FA"/><path opacity=".31" d="M106.081 98.23l-92.393-1.063c-1.995.048-3.626-2.079-3.613-4.713l.236-46.81c.203-4.968 2.407-7.198 4.371-7.189l91.434 2.974c1.964.01 3.546 2.12 3.533 4.713l-.222 44.105c-.012 2.552-1.412 7.935-3.346 7.982z" fill="#fff" fill-opacity=".1"/><path fill-rule="evenodd" clip-rule="evenodd" d="M76.97 48.13l4.48.023c.152 0 .275.11.277.244l.034 1.86c.003.151.157.265.325.24l8.192-1.246a.3.3 0 01.049-.004l5.629.028c.014 0 .028 0 .042-.002l6.365-.825c.077-.01.156.01.217.054l1.4 1.027a.23.23 0 01.043.342l-1.729 1.985a.226.226 0 00-.053.2l.752 3.272a.226.226 0 01-.021.155l-2.67 5.04c-.089.167-.344.192-.47.046l-1.562-1.787a.227.227 0 01-.053-.202l.675-2.877c.058-.247-.287-.404-.477-.218l-1.67 1.635a.281.281 0 01-.116.068l-1.933.584a.271.271 0 00-.155.117l-.95 1.578c-.092.152.014.338.205.362l2.174.275c.132.017.232.115.238.233l.275 5.06a.236.236 0 01-.104.204l-2.053 1.464a.23.23 0 00-.084.284l.469 1.064c.068.155-.052.325-.239.337l-.558.035a.293.293 0 01-.242-.098l-1.588-1.87c-.138-.162-.425-.115-.489.08l-.169.52a.223.223 0 00.02.182l1.549 2.686a.227.227 0 01-.049.285l-2.751 2.507a.561.561 0 01-.513.12l-.484-.123c-.269-.07-.55.065-.635.302a.42.42 0 00.076.411l1.404 1.704a.423.423 0 01-.06.605l-.78.658a.563.563 0 01-.719-.008l-4.324-3.814a.563.563 0 00-.729.001l-2.33 2.07a.448.448 0 00-.139.223l-.194.756c-.097.38-.649.486-.914.175l-3.63-4.242a.64.64 0 00-.403-.212l-2.51-.335a.678.678 0 01-.207-.062l-1.035-.504c-.288-.141-.612.125-.477.392l.234.465c.086.17.263.291.47.32l1.75.246a.61.61 0 01.485.354l.085.204c.103.245-.001.52-.248.659L70.49 75.63c-.174.098-.406.038-.494-.128l-2.317-4.358c-.075-.142-.26-.21-.426-.157-.19.061-.28.255-.193.418l1.97 3.69c.333.623 1.113.952 1.866.787l.327-.072c.475-.105.893.297.74.71l-.498 1.338a.556.556 0 01-.203.258l-1.78 1.262c-.413.293-.64.744-.612 1.213l.09 1.479c.026.44-.173.866-.542 1.16l-.717.569a1.08 1.08 0 00-.422.977l.037.3a1.08 1.08 0 01-.413.97l-2.72 2.205c-.309.25-.734.35-1.142.271l-.528-.103c-.445-.086-.805-.375-.948-.76l-1.5-4.026c-.161-.435-.017-.914.368-1.217.38-.3.526-.771.373-1.203l-.83-2.335c-.289-.814-1.23-1.297-2.167-1.111l-2.144.427a.61.61 0 01-.497-.116l-3.02-2.408a.477.477 0 01-.187-.374l.014-2.803c.004-.755.308-1.483.86-2.056l.37-.386c.69-.717 1.661-1.173 2.716-1.274l2.173-.21 1.466-.16c.29-.032.558.139.618.393l.1.427c.036.151.149.28.306.347l2.1.902.261-.857 3.839.4.062-.987c.01-.15-.107-.285-.274-.316l-1.64-.302-.69-1.334L63 66.81l.55 1.631-.98-1.069-1.363-1.254a.612.612 0 00-.736-.055c-.27.178-.305.527-.073.745l1.267 1.188-.748-.002a.602.602 0 01-.372-.126l-1.483-1.174a.61.61 0 00-.786.037l-1.225 1.197a.582.582 0 01-.317.155l-.98.153c-.303.047-.592-.132-.648-.401l-.205-.982c-.068-.323.228-.615.596-.588l.709.052c.403.029.707-.32.574-.66l-.324-.834c-.083-.214.005-.45.216-.577l2.456-1.471 3.706-.25.72-2.13-.947-.309.344-1.891-.712.066-.879 1.585.06 1.755-1.095.363-.577-1.34-.916.52-.481-1.744a.051.051 0 01.01-.046l3.67-4.514 4.854 1.304.05.77-1.258.503-.076 1.188 2.056-1.462 2.928-1.425.065-.938 1.32-.001a.29.29 0 01.15.04l.492.28c.221.127.498-.066.412-.287l-.547-1.427a.224.224 0 01.036-.222l.477-.601a.292.292 0 01.257-.103l1.202.116c.051.005.1.023.14.051l.151.104c.229.158.542-.061.424-.296-.073-.145.023-.313.198-.344l.561-.1c.239-.043.305-.318.107-.444l-.292-.185c-.146-.093-.157-.281-.024-.387l1.42-1.12a.286.286 0 01.086-.045l1.189-.4c.154-.053.224-.213.148-.344l-.111-.194a.291.291 0 00-.318-.127l-1.112.259c-.182.042-.358-.086-.348-.254l.025-.386c.008-.13.13-.233.279-.232zm19.774 33.717l-2.579.835a.506.506 0 00-.272.205l-.759 1.187a.512.512 0 01-.314.216l-2.313.554c-.25.06-.41.274-.378.501l.422 2.985a.415.415 0 01-.042.248l-.345.67c-.137.268.039.58.362.642l.423.08c.105.02.215.011.313-.027l3.734-1.436a.554.554 0 01.639.171l.862 1.181a.478.478 0 00.09.092l1.344 1.07a.56.56 0 00.407.114l2.176-.237c.252-.027.444-.214.453-.44l.035-.935a.421.421 0 01.095-.25l1.342-1.683a.432.432 0 00.095-.264l.006-1.3a.436.436 0 00-.154-.33l-1.795-1.572a.453.453 0 01-.134-.198l-.329-.993c-.145-.437-.838-.442-.99-.007l-.118.343c-.107.305-.522.422-.808.228l-.407-.278c-.197-.134-.26-.372-.15-.57l.005-.009c.118-.21.037-.466-.186-.592l-.276-.156a.572.572 0 00-.454-.044zm-.641-2.909l-.057.166a.431.431 0 00.172.493l1.48 1.053a.55.55 0 00.22.091l2.805.506a.581.581 0 01.083.022l.366.125c.457.157.879-.288.629-.663l-.147-.22a.503.503 0 00-.249-.192l-4.613-1.673c-.282-.102-.6.033-.69.291zm-4.545-1.844c-.367.363-.862.85-1.142 1.125a.421.421 0 00-.097.478l.613 1.377c.095.214.354.333.605.278l.944-.208a.495.495 0 00.37-.313l.377-1.103a.415.415 0 00-.05-.367l-.792-1.192c-.177-.268-.594-.306-.828-.075z" fill="#fff" fill-opacity=".1"/><path fill-rule="evenodd" clip-rule="evenodd" d="M86.78 77.275l2.137 2.415a.472.472 0 00.02.022l1.318 1.311a.543.543 0 00.346.152l2.532.174-.015.042a.51.51 0 01-.469.319l-3.539.14a.539.539 0 01-.455-.208l-2.78-3.776a.424.424 0 01.082-.59l.067-.055a.56.56 0 01.756.054zm-51.385-2.319l-.643.83a.407.407 0 01-.4.139l-1.202-.244c-.175-.036-.3-.175-.299-.335l.004-.764c.001-.183-.16-.334-.366-.343l-.694-.029c-.283-.012-.454-.282-.32-.503l.75-1.238-1.167-.348s-.884 1.268-1.06 1.273c-.176.005-1.328-1.608-1.328-1.608l1.457-1.638 2.238-.048 1.065 1.381.678-2.223 2.498-1.673 4.936-3.085a.23.23 0 00.083-.088l.923-1.766a.203.203 0 00-.035-.237l-1.456-1.535a.21.21 0 01-.058-.123l-.084-.832c-.022-.218-.347-.28-.466-.088-.087.138-.304.154-.414.029l-.982-1.113a.586.586 0 00-.843-.012l-1.255 1.335a.476.476 0 00-.085.125l-.55 1.183c-.18.388-.793.4-.993.019l-.03-.055a.513.513 0 00-.255-.23c-.538-.232-2.15-.948-2.159-1.24-.009-.302 1.085-1.968 1.383-2.417a.514.514 0 01.203-.175l2.099-1.038a.453.453 0 01.026-.013l1.985-.858a.477.477 0 00.304-.459l-.028-.471c-.017-.299-.332-.512-.66-.447l-.953.189a.566.566 0 00-.249.115l-.425.349c-.262.214-.68.15-.847-.13l-.592-.992c-.153-.255-.522-.335-.789-.17l-.81.5a.599.599 0 01-.466.065l-2.738-.737a.578.578 0 01-.154-.067l-2.344-1.463a.598.598 0 00-.447-.072l-1.846.424a.593.593 0 01-.496-.106l-3.175-2.51a.59.59 0 00-.498-.105c-.597.14-1.988.462-2.566.53-.583.067-1.217.757-1.465 1.054a.236.236 0 00-.023.278l.268.45c.095.157-.014.351-.212.38l-.991.139c-.206.029-.313.233-.206.392l.233.345c.037.055.05.12.036.183l-.183.86c-.032.146-.194.24-.357.205l-.949-.204c-.19-.041-.372.093-.36.268l.082 1.33a.245.245 0 00.061.146l.789.906c.107.123.07.302-.08.382-.776.419-2.886 1.552-2.678 1.421.255-.16 2.568.043 2.588-.312.021-.355 1.558-.69 1.665-.812.08-.093.662-.842.947-1.208a.316.316 0 01.392-.076l2.336 1.244c.149.08.246.218.262.373l.253 2.546c.007.072.032.14.073.202l.997 1.51 1.147 1.91a.44.44 0 01.033.388l-.632 1.601a4.178 4.178 0 00.29 3.67c.538.926 1.09 1.883 1.122 1.97.01.028.044.08.092.147.471.653 1.144 1.171 1.924 1.516l3.626 1.6a.415.415 0 01.046.024l2.668 1.62c.026.016.05.034.07.055l.447.444a.415.415 0 00.348.11c.301-.045.538.226.414.474l-.709 1.428a.307.307 0 00-.029.186l.446 2.793a.33.33 0 00.115.2l1.9 1.612c.057.048.096.11.111.177l.66 2.804a.3.3 0 01.007.05l.513 7.73a.334.334 0 00.156.255l1.766 1.155a.418.418 0 00.253.066l.613-.037c.33-.02.479-.376.244-.583l-.592-.521a.327.327 0 01-.113-.224l-.047-.732a.36.36 0 010-.02l.007-1.346c0-.02.002-.041.006-.062l.222-1.03a.258.258 0 00.003-.02l.108-.72a.349.349 0 01.229-.27l1.513-.574c.196-.075.286-.277.2-.45l-.195-.397c-.096-.194.027-.417.257-.468l.594-.132a.384.384 0 00.23-.15l1.231-1.736a.31.31 0 00-.01-.378l-.026-.032c-.159-.202-.033-.483.238-.53l.686-.123a.37.37 0 00.29-.232l1.006-2.864a.333.333 0 01.076-.121l1.427-1.466c.148-.152.116-.385-.07-.502l-1.954-1.229a.418.418 0 00-.238-.062l-1.405.053a.416.416 0 01-.255-.073l-.843-.594a.33.33 0 01-.146-.26l-.024-.922c-.004-.147-.114-.276-.272-.319l-1.716-.466a.399.399 0 01-.129-.06l-1.067-.761a.423.423 0 00-.384-.05l-.867.312a.427.427 0 01-.322-.015l-1.677-.787a.413.413 0 00-.495.108z" fill="#fff" fill-opacity=".1"/><path fill-rule="evenodd" clip-rule="evenodd" d="M37.008 52.69l.224-.963a.518.518 0 01.441-.378l1.577-.234a.6.6 0 01.358.057l1.943.988c.13.067.166.22.075.327l-.777.911a.202.202 0 00-.007.26l1.106 1.443a.203.203 0 01.042.15l-.21 1.662a.207.207 0 01-.036.092l-.616.885a.263.263 0 01-.27.098l-1.68-.36a.6.6 0 01-.08-.024l-.151-.055c-.434-.159-.453-.699-.032-.88l.315-.137c.21-.09.331-.29.3-.495-.062-.422-.175-1.102-.284-1.291-.096-.167-.156-.564-.19-.86-.023-.212-.202-.385-.439-.425l-1.178-.198c-.298-.05-.493-.308-.431-.572zm-6.767-3.082l-.724.53a.447.447 0 00-.086.665l.691.806c.013.014.024.029.035.044l.901 1.337a.533.533 0 00.269.202l.85.294a.595.595 0 00.547-.081l.593-.448a.496.496 0 00.13-.146l.69-1.185a.44.44 0 00.06-.221c.001-.43-.582-.647-.925-.344l-.036.033a.59.59 0 01-.782-.016l-1.469-1.423a.591.591 0 00-.744-.047zM45.073 47.4l-2.622 1.88a.207.207 0 00-.08.242l.492 1.316a.238.238 0 00.165.142l1.467.392c.12.032.207.124.22.234l.377 2.936a.25.25 0 01-.02.132l-.89 2.03a.249.249 0 00-.011.172l.73 2.466c.023.08.086.146.17.181l.603.249c.149.061.325.01.404-.117l1.21-1.945a.298.298 0 01.131-.112l1.994-.908a.313.313 0 00.07-.043l2.926-2.393a.272.272 0 00.093-.143l1.043-4.07a.268.268 0 01.063-.114l1.614-1.752a.254.254 0 00.052-.27l-.184-.452c-.061-.149-.25-.223-.414-.162l-.9.334a.347.347 0 01-.176.017l-.554-.089c-.331-.053-.347-.47-.02-.543.242-.053.319-.326.133-.475l-.198-.16a.29.29 0 01-.047-.048l-.709-.911a.325.325 0 00-.255-.12l-2.007-.01a.332.332 0 00-.222.08l-1.134 1.006a.259.259 0 00-.086.247l.112.538c.045.215-.195.39-.423.308l-.637-.229a.3.3 0 01-.164-.136l-.184-.337c-.076-.138-.265-.195-.42-.127l-1.655.732a.332.332 0 00-.057.033zm-4.767-1.825l3.163-.738c.04-.01.082-.01.122 0l2.817.612c.26.056.325.359.107.496l-.417.262a.298.298 0 00-.014.01l-3.85 2.74-1.721 1.246a.593.593 0 01-.44.1l-1.7-.28a.587.587 0 00-.476.128l-.528.456c-.263.226-.698.16-.862-.131l-.232-.41a.46.46 0 01-.025-.052l-.178-.436c-.103-.252.044-.53.327-.62l1.037-.329a.605.605 0 01.402.014l.784.308a.604.604 0 00.43.004l.017-.007c.337-.126.44-.505.206-.755l-.202-.214a.441.441 0 01-.065-.533l.955-1.628a.535.535 0 01.343-.243zm-7.698 1.993l1.151-.27c.315-.074.632.114.676.402l.165 1.064c.034.216-.1.426-.327.51l-.976.364c-.305.114-.652-.039-.735-.323l-.34-1.159c-.076-.258.096-.52.386-.588z" fill="#fff" fill-opacity=".1"/><path d="M29.457 63.372a.426.426 0 01-.426-.425l-.005-1.278c0-.235.19-.426.425-.427h.001c.235 0 .425.19.426.425l.005 1.277c0 .235-.19.427-.425.428h-.001zm-.009-2.556a.426.426 0 01-.425-.425l-.005-1.277c0-.236.19-.427.425-.428h.001c.235 0 .425.19.426.425l.004 1.278a.425.425 0 01-.424.427h-.002zm-.008-2.556a.426.426 0 01-.426-.424l-.004-1.278c0-.235.19-.426.425-.427h.001c.235 0 .425.19.426.424l.004 1.278c0 .235-.19.427-.424.427h-.002zm-.008-2.555a.426.426 0 01-.426-.425l-.004-1.278a.426.426 0 01.852-.003l.004 1.279c0 .235-.19.426-.425.427h-.001zm-.008-2.556a.426.426 0 01-.426-.424l-.004-1.278c0-.235.189-.427.424-.427h.001c.235 0 .426.19.427.424l.004 1.278c0 .235-.19.426-.425.427h-.001zm-.008-2.555a.426.426 0 01-.426-.425l-.004-1.277a.426.426 0 01.424-.428h.002c.234 0 .425.19.425.425l.005 1.277c0 .236-.19.427-.425.428h-.001zm-.009-2.556a.426.426 0 01-.425-.424l-.005-1.278c0-.235.19-.426.425-.427h.001c.235 0 .425.19.426.424l.005 1.278c0 .235-.19.426-.425.427h-.002zm-.008-2.555a.426.426 0 01-.426-.425l-.004-1.278c0-.235.19-.426.425-.427h.001c.235 0 .425.19.426.425l.004 1.277c0 .236-.19.427-.424.428h-.002zm-.008-2.556a.426.426 0 01-.426-.424l-.004-1.278a.426.426 0 11.852-.003l.004 1.278c0 .235-.19.426-.425.427h-.001zm-.008-2.555a.426.426 0 01-.426-.425l-.004-1.278c0-.235.19-.426.424-.427h.002c.234 0 .425.19.426.425l.004 1.277c0 .235-.19.427-.425.428h-.001zm-.008-2.556a.426.426 0 01-.426-.425l-.004-1.277a.426.426 0 01.424-.428h.002c.234 0 .425.19.426.425l.004 1.278c0 .235-.19.426-.425.427h-.001zm-.009-2.556a.426.426 0 01-.425-.424l-.005-1.278c0-.235.19-.426.425-.427h.002c.234 0 .425.19.425.424l.004 1.278a.425.425 0 01-.424.427h-.002zm-.008-2.555a.426.426 0 01-.426-.425l-.004-1.277A.426.426 0 1129.78 31l.004 1.278c0 .235-.19.426-.424.427h-.002zm-.008-2.556a.426.426 0 01-.426-.424l-.004-1.278a.426.426 0 01.852-.003l.004 1.278c0 .235-.19.426-.424.427h-.002zm-.008-2.555a.426.426 0 01-.426-.425l-.004-1.278c0-.235.19-.426.424-.427h.002c.234 0 .425.19.426.425l.004 1.277c0 .236-.19.427-.425.428h-.001zm-.008-2.556a.426.426 0 01-.426-.424l-.004-1.278a.425.425 0 01.424-.427h.002c.234 0 .425.19.426.424l.004 1.278c0 .235-.19.426-.425.427h-.001zm-.008-2.555a.426.426 0 01-.426-.425l-.005-1.278c0-.235.19-.426.425-.427h.001c.235 0 .425.19.426.424l.005 1.278c0 .236-.19.427-.425.428h-.001zm-.009-2.556a.426.426 0 01-.425-.424l-.003-.852a.426.426 0 01.424-.428h.001c.235 0 .426.19.427.425l.002.852a.425.425 0 01-.424.427h-.002z" fill="url(#paint2_linear_139_1176)"/><path d="M60.55 76.007a.426.426 0 01-.426-.42l-.018-1.277a.426.426 0 01.42-.432h.006c.232 0 .422.187.425.42l.018 1.278a.426.426 0 01-.42.431h-.006zm-.036-2.555a.426.426 0 01-.426-.42l-.018-1.278a.426.426 0 01.852-.011l.018 1.277a.426.426 0 01-.42.432h-.006zm-.036-2.555a.426.426 0 01-.426-.42l-.018-1.278a.426.426 0 01.42-.432h.006c.233 0 .423.187.426.42l.018 1.278a.426.426 0 01-.42.432h-.006zm-.036-2.556a.426.426 0 01-.425-.42l-.018-1.277a.426.426 0 01.42-.432h.006c.232 0 .422.187.425.42l.018 1.277a.426.426 0 01-.42.432h-.006zm-.035-2.555a.426.426 0 01-.426-.42l-.018-1.278a.426.426 0 01.42-.431h.006c.233 0 .422.186.426.42l.018 1.277a.426.426 0 01-.42.432h-.006zm-.036-2.555a.426.426 0 01-.426-.42l-.018-1.278a.426.426 0 01.42-.432.432.432 0 01.432.42l.018 1.278a.426.426 0 01-.42.432h-.006zm-.036-2.555a.426.426 0 01-.426-.42l-.017-1.278a.426.426 0 01.851-.012l.018 1.278a.426.426 0 01-.42.432h-.006zM60.3 58.12a.426.426 0 01-.426-.42l-.018-1.278a.426.426 0 01.852-.011l.017 1.277a.426.426 0 01-.42.432H60.3zm-.036-2.555a.426.426 0 01-.426-.42l-.018-1.278a.426.426 0 01.42-.432h.006c.233 0 .423.187.426.42l.018 1.278a.426.426 0 01-.42.432h-.006zm-.036-2.555a.426.426 0 01-.426-.42l-.017-1.278a.426.426 0 01.851-.012l.018 1.278a.426.426 0 01-.42.432h-.006zm-.036-2.556a.426.426 0 01-.425-.42l-.018-1.277a.426.426 0 01.42-.432h.006c.232 0 .422.186.426.42l.017 1.277a.426.426 0 01-.42.432h-.006zm-.035-2.555a.426.426 0 01-.426-.42l-.018-1.278a.426.426 0 01.42-.431h.006c.233 0 .423.186.426.42l.018 1.277a.426.426 0 01-.42.432h-.006zm-.036-2.555a.426.426 0 01-.426-.42l-.018-1.278a.426.426 0 01.852-.012l.018 1.278a.426.426 0 01-.42.432h-.006zm-.036-2.556a.426.426 0 01-.425-.42l-.018-1.277a.426.426 0 01.42-.432h.006c.232 0 .422.187.425.42l.018 1.277a.426.426 0 01-.42.432h-.006zm-.035-2.555a.426.426 0 01-.426-.42l-.018-1.278a.426.426 0 01.852-.012l.018 1.278a.426.426 0 01-.42.432h-.006zm-.036-2.555a.426.426 0 01-.426-.42l-.018-1.278a.426.426 0 01.42-.432h.006c.233 0 .423.187.426.42l.018 1.278a.426.426 0 01-.42.432h-.006zm-.036-2.556a.426.426 0 01-.425-.42l-.018-1.277a.426.426 0 01.42-.432h.006c.232 0 .422.187.425.42l.018 1.277a.426.426 0 01-.42.432h-.006zm-.035-2.555a.426.426 0 01-.426-.42l-.018-1.277a.426.426 0 01.852-.012l.018 1.277a.426.426 0 01-.42.432h-.006zm-.036-2.555a.426.426 0 01-.426-.42l-.018-1.278a.426.426 0 01.852-.012l.018 1.278a.426.426 0 01-.42.432h-.006zm-.036-2.556a.426.426 0 01-.426-.42l-.017-1.277a.426.426 0 01.852-.012l.017 1.277a.426.426 0 01-.42.432h-.006z" fill="url(#paint3_linear_139_1176)"/><path d="M93.488 73.594h-.001a.426.426 0 01-.425-.427l.004-1.278a.426.426 0 01.426-.424h.001c.236 0 .426.192.425.427l-.004 1.278a.426.426 0 01-.426.424zm.008-2.555h-.001a.426.426 0 01-.425-.428l.005-1.278a.426.426 0 01.852.003l-.005 1.278a.426.426 0 01-.426.425zm.009-2.556h-.001a.426.426 0 01-.425-.427l.004-1.278a.427.427 0 01.426-.425h.001a.427.427 0 01.425.428l-.004 1.277a.426.426 0 01-.426.425zm.008-2.556a.426.426 0 01-.425-.427l.004-1.278a.426.426 0 01.852.003l-.005 1.278a.426.426 0 01-.425.424zm.009-2.555h-.002a.426.426 0 01-.424-.428l.004-1.277a.427.427 0 01.426-.425h.001a.426.426 0 01.425.428l-.004 1.277a.426.426 0 01-.426.425zm.008-2.556h-.001a.426.426 0 01-.424-.427l.004-1.278a.426.426 0 01.852.003l-.005 1.278a.426.426 0 01-.426.424zm.009-2.555h-.002a.426.426 0 01-.424-.428l.004-1.277a.426.426 0 01.426-.425h.001a.426.426 0 01.425.428l-.004 1.277a.426.426 0 01-.426.425zm.008-2.556h-.001a.426.426 0 01-.425-.427L93.126 54c0-.234.191-.424.426-.424h.001c.235 0 .425.192.425.427l-.005 1.278a.426.426 0 01-.426.424zm.009-2.555h-.001a.426.426 0 01-.425-.428l.004-1.277a.427.427 0 01.426-.425h.001a.426.426 0 01.425.427l-.004 1.278a.426.426 0 01-.426.425zm.008-2.556h-.001a.426.426 0 01-.425-.427l.005-1.278c0-.235.191-.425.426-.425h.001a.428.428 0 01.425.428l-.005 1.278a.426.426 0 01-.426.424zm.009-2.555h-.002a.426.426 0 01-.424-.428l.004-1.277a.427.427 0 01.426-.425h.002c.235 0 .425.192.424.427l-.004 1.278a.426.426 0 01-.426.425zm.008-2.556h-.001a.426.426 0 01-.424-.427l.004-1.278c0-.235.191-.425.426-.425h.001a.426.426 0 01.424.428l-.004 1.278a.426.426 0 01-.426.424zm.009-2.556h-.002a.426.426 0 01-.424-.427l.004-1.278c0-.234.191-.424.426-.424h.001c.236 0 .426.192.425.427l-.004 1.278a.426.426 0 01-.426.424zm.008-2.555h-.001a.426.426 0 01-.425-.427l.005-1.278c0-.235.191-.425.426-.425h.001a.427.427 0 01.425.428l-.005 1.277a.426.426 0 01-.426.425zm.009-2.556h-.002a.426.426 0 01-.424-.427l.004-1.278a.426.426 0 01.426-.424h.001c.236 0 .426.192.425.427l-.004 1.278a.426.426 0 01-.426.424zm.008-2.555h-.001a.426.426 0 01-.425-.428l.005-1.277c0-.235.19-.425.425-.425h.002a.425.425 0 01.424.427l-.004 1.278a.426.426 0 01-.426.425zm.009-2.556h-.002a.426.426 0 01-.424-.427L93.202 31c0-.235.191-.424.426-.424h.001c.236 0 .426.192.425.427l-.004 1.278a.426.426 0 01-.426.424z" fill="url(#paint4_linear_139_1176)"/><path d="M29.722 60.662a5.552 5.552 0 100-11.104 5.552 5.552 0 000 11.104z" fill="url(#paint5_linear_139_1176)"/><path d="M35.264 54.813H24.17s-.441 3.08 4.513 11.521c.216.368.611.588 1.038.588.427 0 .823-.216 1.04-.584 4.954-8.44 4.503-11.525 4.503-11.525z" fill="url(#paint6_linear_139_1176)"/><path d="M29.72 67.103v.03h.002c-.483 0-.934-.265-1.177-.679-2.896-4.933-3.958-8.053-4.338-9.798a5.6 5.6 0 01-.19-1.199c-.034-.413-.008-.587-.005-.605l.015-.089c.223-2.982 2.705-5.303 5.696-5.303 3.03 0 5.534 2.354 5.703 5.36.004.04.012.139.01.306v.02a5.72 5.72 0 01-.23 1.606c-.393 1.744-1.46 4.832-4.307 9.683a1.344 1.344 0 01-1.179.668zm-5.397-12.04c-.002.082 0 .201.015.38.02.382.078.75.181 1.131l.002.007c.375 1.721 1.425 4.802 4.302 9.702.185.316.528.511.898.512v.16-.16c.332 0 .713-.198.9-.517 2.828-4.819 3.884-7.881 4.272-9.602l.002-.01c.145-.492.186-1.003.186-1.52l-.033-.022v-.002c0-.16.028-.248.025-.27l.015-.01c-.157-2.837-2.513-5.06-5.373-5.06-2.855 0-5.215 2.254-5.378 5.116l-.004.164h-.01z" fill="#91B3FA"/><path d="M32.006 57.359a3.206 3.206 0 10-4.533-4.534 3.206 3.206 0 004.533 4.534z" fill="#fff" fill-opacity=".1"/><path d="M29.74 58.477a3.388 3.388 0 01-3.384-3.385 3.389 3.389 0 013.384-3.384 3.389 3.389 0 013.385 3.384 3.389 3.389 0 01-3.385 3.385zm0-6.411a3.03 3.03 0 00-3.026 3.026 3.03 3.03 0 003.026 3.027 3.03 3.03 0 003.027-3.027 3.03 3.03 0 00-3.027-3.026z" fill="#91B3FA"/><path d="M26.7 51.755a.054.054 0 01-.035-.095c.9-.773 2.05-1.2 3.24-1.2a.054.054 0 010 .108 4.867 4.867 0 00-3.17 1.174.054.054 0 01-.035.013zm-1.717 3.735a.054.054 0 01-.054-.054c0-.928.258-1.834.744-2.62a.054.054 0 01.092.057 4.855 4.855 0 00-.728 2.563c0 .03-.024.053-.054.053z" fill="#fff" fill-opacity=".1"/><path d="M60.94 75.698a5.552 5.552 0 100-11.103 5.552 5.552 0 000 11.103z" fill="url(#paint7_linear_139_1176)"/><path d="M66.481 69.85H55.388s-.442 3.08 4.513 11.52c.216.37.61.59 1.038.59.427 0 .823-.217 1.039-.585 4.954-8.44 4.503-11.526 4.503-11.526z" fill="url(#paint8_linear_139_1176)"/><path d="M60.937 82.14v.03h.002c-.483 0-.934-.265-1.177-.679-2.897-4.934-3.958-8.053-4.338-9.799a5.595 5.595 0 01-.19-1.198c-.034-.413-.008-.587-.005-.605l.014-.09c.224-2.981 2.706-5.302 5.697-5.302 3.03 0 5.534 2.354 5.703 5.36.004.039.012.139.01.305v.021c0 .545-.078 1.085-.23 1.605-.393 1.744-1.46 4.833-4.308 9.683a1.344 1.344 0 01-1.178.668zM55.54 70.098c0 .083.002.202.016.381.02.382.078.75.181 1.13l.002.007c.375 1.722 1.425 4.802 4.302 9.703.185.315.528.511.898.511v.161-.161c.332 0 .713-.198.9-.516 2.828-4.82 3.884-7.882 4.271-9.602l.003-.01c.145-.492.186-1.004.186-1.52l-.033-.023v-.001c0-.161.028-.248.025-.27l.015-.01c-.157-2.838-2.513-5.06-5.373-5.06-2.855 0-5.215 2.254-5.378 5.116l-.004.164h-.01z" fill="#91B3FA"/><path d="M63.223 72.396a3.206 3.206 0 10-4.534-4.534 3.206 3.206 0 004.534 4.534z" fill="#fff" fill-opacity=".1"/><path d="M60.958 73.514a3.389 3.389 0 01-3.385-3.385 3.389 3.389 0 013.385-3.385 3.389 3.389 0 013.385 3.385 3.389 3.389 0 01-3.385 3.385zm0-6.412a3.03 3.03 0 00-3.027 3.027 3.03 3.03 0 003.027 3.026 3.03 3.03 0 003.026-3.026 3.03 3.03 0 00-3.026-3.027z" fill="#91B3FA"/><path d="M57.917 66.791a.054.054 0 01-.035-.094c.9-.773 2.05-1.2 3.24-1.2a.054.054 0 110 .108 4.868 4.868 0 00-3.17 1.173.053.053 0 01-.035.013zM56.2 70.526a.054.054 0 01-.053-.053c0-.929.257-1.834.744-2.62a.054.054 0 01.091.057 4.855 4.855 0 00-.728 2.563c0 .03-.024.053-.054.053z" fill="#fff" fill-opacity=".1"/><path d="M77.763 27.257c0 8.223 6.919 14.89 15.453 14.89 8.534 0 15.835-6.958 15.835-15.181 0-8.224-7.301-14.599-15.835-14.599s-15.453 6.667-15.453 14.89z" fill="url(#paint9_linear_139_1176)"/><path d="M107.838 23.637a.116.116 0 00.028-.004.102.102 0 00.075-.126 13.032 13.032 0 00-.631-1.773.11.11 0 00-.14-.055.102.102 0 00-.056.135c.248.566.458 1.154.621 1.746a.106.106 0 00.103.077zm-2.361-4.653a.11.11 0 00.064-.02.1.1 0 00.021-.145c-2.863-3.658-7.475-5.842-12.337-5.842a15.2 15.2 0 00-5.968 1.205.101.101 0 00-.055.136.109.109 0 00.14.053 14.968 14.968 0 015.883-1.188c4.796 0 9.343 2.153 12.166 5.76.021.027.053.04.086.04z" fill="#91B3FA"/><path d="M79.865 27.257c0 7.118 5.99 12.889 13.377 12.889 7.387 0 13.706-6.023 13.706-13.141s-6.319-12.637-13.706-12.637c-7.388 0-13.377 5.77-13.377 12.889z" fill="url(#paint10_linear_139_1176)"/><path d="M79.866 27.257c0-7.118 5.989-12.889 13.376-12.889 4 0 7.687 1.62 10.227 4.233l-10.304 8.261-2.118 13.11c-6.343-1.01-11.181-6.317-11.181-12.715z" fill="url(#paint11_linear_139_1176)"/><path opacity=".22" d="M81.686 26.361c0 6.424 5.517 11.632 12.323 11.632 6.805 0 12.627-5.435 12.627-11.86 0-6.423-5.822-11.403-12.627-11.403-6.806 0-12.323 5.207-12.323 11.631z" fill="url(#paint12_linear_139_1176)" fill-opacity=".1"/><path opacity=".78" d="M103.53 26.588c.034.548.521.965 1.088.933.568-.031 1.002-.5.969-1.048-.033-.547-.521-.964-1.088-.933-.568.032-1.002.501-.969 1.049zm-22.248 1.248c.033.547.52.965 1.088.933.568-.032 1.001-.501.968-1.048-.033-.547-.52-.965-1.088-.933-.567.032-1.001.501-.968 1.048zm13.969 8.905c-.56.099-.93.615-.828 1.155.102.539.639.896 1.198.797.56-.098.93-.615.828-1.154-.102-.54-.638-.896-1.198-.798zm-4.004-21.124c-.56.098-.93.615-.828 1.154.102.54.639.896 1.198.798.56-.098.93-.615.828-1.154-.102-.54-.639-.897-1.198-.798zM87.93 37.308c-.105.255-.079.493.058.532.137.04.333-.135.438-.389.104-.254.078-.493-.059-.532-.137-.04-.333.135-.437.39zm8.95-20.037c-.104.255-.078.493.059.532.137.04.333-.134.437-.389.105-.254.079-.492-.058-.532-.137-.04-.333.135-.438.39zM83.257 33.5c-.227.164-.333.381-.237.483.096.103.357.052.583-.113.227-.166.333-.382.237-.484-.096-.103-.357-.052-.583.113zm18.446-12.647c-.226.165-.332.382-.237.484.096.102.357.051.584-.114.226-.165.332-.382.237-.484-.096-.102-.357-.051-.584.114zM82.67 22.154c-.257-.118-.505-.108-.555.02-.05.13.117.33.374.447.256.118.504.109.554-.02.05-.13-.117-.33-.373-.447zm20.148 9.947c-.257-.117-.505-.108-.555.02-.05.13.117.33.374.447.256.118.504.109.554-.02.051-.13-.117-.33-.373-.447zM86.927 17.916c-.156-.228-.373-.345-.486-.26-.112.085-.076.34.08.569.155.229.372.345.484.26.113-.085.078-.34-.078-.569zm11.859 18.581c-.155-.228-.373-.345-.485-.26-.112.086-.077.34.079.569.156.229.373.345.485.26.112-.085.077-.34-.079-.569z" fill="#fff" fill-opacity=".1"/><path d="M93.658 26.858l8.273 3.975c.16.077.348-.038.342-.21l-.032-1.027c-.006-.2.238-.31.393-.178l5.982 5.074c.183.156.032.444-.206.395l-7.704-1.585a.226.226 0 01-.117-.386l.902-.857a.224.224 0 00-.048-.36l-8.008-4.44a.224.224 0 01-.09-.306.24.24 0 01.313-.095z" fill="url(#paint13_linear_139_1176)"/><path opacity=".7" d="M107.686 34.469a.201.201 0 00.181-.111.188.188 0 00-.054-.238l-1.308-1.043a.11.11 0 00-.151.014.1.1 0 00.015.145l1.309 1.043a475.12 475.12 0 00-5.914-1.25.106.106 0 00-.117.092.104.104 0 00.093.112c.122.02 3.253.675 5.9 1.231a.225.225 0 00.046.005z" fill="#fff" fill-opacity=".1"/><path d="M92.604 26.493l.014-6.872c-.002-.152-.172-.246-.31-.172l-.82.44c-.16.086-.349-.053-.305-.224l1.697-6.57c.052-.201.347-.204.404-.005l1.837 6.454c.044.155-.108.294-.266.245l-1.062-.333c-.132-.041-.267.05-.273.182l-.499 6.86a.206.206 0 01-.213.193.205.205 0 01-.204-.198z" fill="url(#paint14_linear_139_1176)"/><path opacity=".7" d="M94.557 18.914a.096.096 0 00.035-.006.09.09 0 00.053-.116c-.034-.1-.77-2.727-1.392-4.95a.175.175 0 00-.179-.128.176.176 0 00-.171.137l-.316 1.41a.09.09 0 00.072.108c.05.01.1-.02.111-.07l.317-1.41a368.67 368.67 0 001.383 4.968c.014.035.05.057.087.057z" fill="#fff" fill-opacity=".1"/><path d="M93.31 27.944c.608 0 1.1-.475 1.1-1.06 0-.585-.492-1.06-1.1-1.06-.606 0-1.099.475-1.099 1.06 0 .585.493 1.06 1.1 1.06z" fill="url(#paint15_linear_139_1176)"/><path d="M43.98 35.123c0 8.223 6.918 14.89 15.453 14.89 8.534 0 15.835-6.958 15.835-15.181 0-8.224-7.301-14.599-15.835-14.599-8.535 0-15.453 6.666-15.453 14.89z" fill="url(#paint16_linear_139_1176)"/><path d="M74.054 31.502c.01 0 .019 0 .028-.003a.102.102 0 00.076-.126 13.113 13.113 0 00-.632-1.774.11.11 0 00-.14-.054.102.102 0 00-.056.135c.249.566.458 1.154.621 1.746a.106.106 0 00.103.076zm-2.361-4.652a.11.11 0 00.064-.021.1.1 0 00.021-.144c-2.863-3.658-7.474-5.842-12.336-5.842-2.076 0-4.084.405-5.968 1.205a.101.101 0 00-.055.136.108.108 0 00.14.052 14.968 14.968 0 015.883-1.188c4.795 0 9.343 2.154 12.166 5.76a.108.108 0 00.085.042z" fill="#91B3FA"/><path d="M46.082 35.123c0 7.118 5.99 12.889 13.377 12.889 7.387 0 13.706-6.023 13.706-13.141s-6.32-12.637-13.707-12.637c-7.387 0-13.376 5.77-13.376 12.889z" fill="url(#paint17_linear_139_1176)"/><path d="M46.082 35.123c0-7.118 5.989-12.889 13.376-12.889 4 0 7.687 1.62 10.227 4.233l-10.304 8.261-2.118 13.11c-6.343-1.01-11.18-6.317-11.18-12.715z" fill="url(#paint18_linear_139_1176)"/><path opacity=".25" d="M47.903 34.227c0 6.424 5.517 11.632 12.323 11.632 6.805 0 12.627-5.436 12.627-11.86 0-6.424-5.822-11.404-12.627-11.404-6.806 0-12.323 5.208-12.323 11.632z" fill="#fff" fill-opacity=".1"/><path opacity=".78" d="M69.747 34.455c.033.547.52.964 1.088.933.568-.032 1.001-.502.968-1.049-.033-.547-.52-.965-1.088-.933-.567.032-1 .501-.968 1.049zm-22.248 1.247c.033.547.52.965 1.087.933.568-.032 1.002-.5.969-1.048-.033-.547-.52-.965-1.088-.933-.568.032-1.002.501-.968 1.048zm13.969 8.905c-.56.098-.93.615-.828 1.154.102.54.638.897 1.198.798.56-.098.93-.615.828-1.154-.102-.54-.639-.897-1.198-.798zm-4.004-21.125c-.56.099-.93.616-.828 1.155.102.539.638.896 1.198.798.56-.099.93-.616.828-1.155-.103-.539-.639-.896-1.198-.798zm-3.318 21.692c-.104.254-.078.492.059.532.137.04.333-.135.437-.39.105-.254.079-.492-.058-.531-.137-.04-.333.134-.438.389zm8.951-20.037c-.105.255-.078.493.059.532.136.04.332-.134.437-.389.105-.254.078-.492-.059-.532-.136-.04-.332.135-.437.39zM49.474 41.365c-.227.165-.333.382-.237.484.095.102.357.051.583-.114.227-.165.333-.382.237-.484-.096-.102-.357-.051-.584.114zM67.92 28.719c-.227.165-.333.381-.237.484.095.102.357.051.583-.114.227-.165.333-.382.237-.484-.096-.102-.357-.051-.583.114zM48.886 30.02c-.256-.118-.505-.108-.555.02-.05.13.118.33.374.447.257.118.505.109.555-.02.05-.13-.117-.33-.374-.447zm20.149 9.947c-.257-.118-.505-.108-.555.02-.05.13.117.33.374.447.256.118.505.109.555-.02.05-.13-.118-.33-.374-.447zM53.143 25.782c-.155-.229-.373-.345-.485-.26-.112.085-.077.34.079.569.156.229.373.345.485.26.112-.085.077-.34-.079-.569zm11.86 18.581c-.156-.229-.373-.345-.486-.26-.112.085-.076.34.08.569.155.229.372.345.485.26.112-.085.077-.34-.08-.569z" fill="#fff" fill-opacity=".1"/><path d="M59.037 35.084l2.777-8.749c.054-.169-.087-.338-.257-.309l-1.011.176c-.197.034-.34-.192-.232-.365l4.187-6.633c.128-.203.434-.094.42.149l-.49 7.85a.226.226 0 01-.366.17l-.975-.774a.224.224 0 00-.35.099l-3.274 8.55a.224.224 0 01-.291.133.241.241 0 01-.138-.297z" fill="url(#paint19_linear_139_1176)"/><path d="M64.608 20.128a.201.201 0 00-.136-.164.19.19 0 00-.227.087l-.85 1.442a.11.11 0 00.035.147.1.1 0 00.142-.035l.849-1.442c-.136 1.78-.413 5.945-.41 6.03a.106.106 0 00.108.103c.056-.002.1-.05.098-.107.002-.124.212-3.316.392-6.015a.222.222 0 00-.001-.046z" fill="url(#paint20_linear_139_1176)" fill-opacity=".1"/><path d="M59.374 34.712l4.867 4.852c.11.105.296.051.34-.099l.266-.893c.052-.173.284-.21.374-.058l3.467 5.833c.106.179-.1.39-.282.29l-5.874-3.243c-.14-.078-.132-.284.014-.361l.985-.52a.208.208 0 00.062-.322l-4.517-5.187a.206.206 0 01.014-.286.205.205 0 01.284-.006z" fill="url(#paint21_linear_139_1176)"/><path d="M63.377 41.438a.097.097 0 00-.02.029.09.09 0 00.044.12c.095.045 2.478 1.373 4.494 2.498.071.04.157.027.217-.036a.176.176 0 00.023-.218l-.778-1.218a.09.09 0 00-.127-.025.094.094 0 00-.03.129l.779 1.217a385.039 385.039 0 00-4.5-2.518.094.094 0 00-.102.022z" fill="url(#paint22_linear_139_1176)" fill-opacity=".1"/><path d="M59.527 35.81c.608 0 1.1-.475 1.1-1.06 0-.586-.492-1.06-1.1-1.06-.607 0-1.1.474-1.1 1.06 0 .585.493 1.06 1.1 1.06z" fill="url(#paint23_linear_139_1176)"/><path d="M11.533 24.773c0 8.223 6.918 14.89 15.453 14.89 8.534 0 15.835-6.958 15.835-15.181 0-8.224-7.3-14.599-15.835-14.599s-15.453 6.667-15.453 14.89z" fill="url(#paint24_linear_139_1176)"/><path d="M41.608 21.153c.01 0 .019-.001.028-.004a.103.103 0 00.075-.126 13.115 13.115 0 00-.631-1.773.11.11 0 00-.14-.055.102.102 0 00-.056.135c.248.566.457 1.154.621 1.746a.106.106 0 00.103.077zM39.246 16.5a.11.11 0 00.065-.021.1.1 0 00.02-.144c-2.862-3.658-7.474-5.842-12.336-5.842a15.2 15.2 0 00-5.968 1.205.101.101 0 00-.055.136.108.108 0 00.14.053 14.968 14.968 0 015.883-1.189c4.795 0 9.343 2.154 12.166 5.76a.107.107 0 00.085.042z" fill="#91B3FA"/><path d="M13.635 24.773c0 7.118 5.989 12.889 13.376 12.889 7.388 0 13.707-6.023 13.707-13.141s-6.32-12.637-13.707-12.637c-7.387 0-13.376 5.771-13.376 12.89z" fill="url(#paint25_linear_139_1176)"/><path d="M13.636 24.773c0-7.118 5.988-12.889 13.376-12.889 4 0 7.686 1.62 10.227 4.233l-10.304 8.261-2.119 13.11c-6.342-1.01-11.18-6.317-11.18-12.715z" fill="url(#paint26_linear_139_1176)"/><path opacity=".22" d="M15.456 23.877c0 6.424 5.517 11.632 12.322 11.632 6.806 0 12.628-5.436 12.628-11.86 0-6.424-5.822-11.404-12.628-11.404-6.805 0-12.322 5.208-12.322 11.632z" fill="url(#paint27_linear_139_1176)" fill-opacity=".1"/><path opacity=".78" d="M37.3 24.104c.033.547.52.965 1.088.933.568-.031 1.002-.5.968-1.048-.033-.547-.52-.965-1.087-.933-.568.032-1.002.501-.969 1.048zm-22.248 1.248c.033.547.52.965 1.088.933.567-.032 1-.501.968-1.048-.033-.547-.52-.965-1.088-.933-.568.032-1.001.501-.968 1.048zm13.969 8.905c-.56.099-.93.615-.828 1.154.102.54.639.897 1.198.798.56-.098.93-.615.828-1.154-.102-.54-.639-.896-1.198-.798zm-4.004-21.124c-.56.098-.93.615-.828 1.154.102.54.638.896 1.198.798.56-.099.93-.616.828-1.155-.102-.539-.639-.896-1.198-.797zM21.7 34.824c-.105.254-.079.493.058.532.137.04.333-.135.437-.39.105-.254.079-.492-.058-.531-.137-.04-.333.135-.438.389zm8.95-20.037c-.104.255-.078.493.059.532.137.04.332-.134.437-.389.105-.254.078-.492-.058-.532-.137-.04-.333.135-.438.39zM17.027 31.015c-.227.165-.333.382-.237.484.096.103.357.052.583-.113.227-.165.333-.382.237-.484-.096-.103-.357-.052-.583.113zm18.446-12.646c-.227.165-.333.382-.237.484.096.102.357.051.584-.114.226-.165.332-.382.236-.484-.095-.102-.357-.051-.583.114zM16.44 19.67c-.257-.118-.505-.109-.555.02-.05.13.117.33.373.447.257.118.505.108.555-.02.05-.13-.117-.33-.373-.447zm20.148 9.947c-.257-.118-.505-.108-.555.02-.05.13.117.33.374.447.256.118.505.108.555-.02.05-.13-.118-.33-.374-.447zM20.697 15.432c-.156-.229-.373-.345-.486-.26-.112.085-.077.34.079.569.156.229.373.345.485.26.113-.085.077-.34-.078-.569zm11.859 18.582c-.156-.23-.373-.346-.485-.26-.112.085-.077.34.079.568.155.229.373.345.485.26.112-.085.077-.34-.079-.569z" fill="#fff" fill-opacity=".1"/><path d="M27.015 23.944l6.961 5.982c.135.116.346.053.386-.115l.234-1c.046-.195.31-.238.426-.07l4.464 6.45c.136.197-.084.437-.301.328l-7.031-3.526a.226.226 0 01-.013-.403l1.093-.594a.224.224 0 00.047-.36l-6.586-6.362a.224.224 0 01-.007-.32.241.241 0 01.327-.01z" fill="url(#paint28_linear_139_1176)"/><path opacity=".7" d="M38.593 34.927a.201.201 0 00.204-.06.19.19 0 00.01-.244l-.994-1.346a.11.11 0 00-.149-.025.1.1 0 00-.024.143l.995 1.346a479.957 479.957 0 00-5.389-2.738.106.106 0 00-.137.058.104.104 0 00.061.133c.114.05 2.967 1.494 5.38 2.717a.222.222 0 00.043.016z" fill="#fff" fill-opacity=".1"/><path d="M27.288 25.033l-6.017 3.318c-.132.076-.133.27 0 .355l.782.504c.153.098.122.33-.049.375l-6.569 1.7c-.2.052-.347-.204-.2-.35L19.99 26.2c.114-.114.31-.049.343.114l.224 1.09c.028.135.173.21.292.15l6.242-2.889a.206.206 0 01.271.093c.053.1.02.22-.074.275z" fill="url(#paint29_linear_139_1176)"/><path opacity=".7" d="M19.713 26.998a.098.098 0 00-.022-.027.09.09 0 00-.128.009c-.07.078-2.011 1.996-3.654 3.617a.175.175 0 00-.026.218.176.176 0 00.203.084l1.387-.407a.09.09 0 00.059-.115.094.094 0 00-.115-.064l-1.387.406c1.095-1.059 3.63-3.56 3.675-3.617a.094.094 0 00.008-.104z" fill="#fff" fill-opacity=".1"/><path d="M27.08 25.46c.608 0 1.1-.475 1.1-1.06 0-.585-.492-1.06-1.1-1.06-.607 0-1.1.475-1.1 1.06 0 .585.493 1.06 1.1 1.06z" fill="url(#paint30_linear_139_1176)"/><path d="M98.563 66.793l4.969 12.255.817-.227-5.076-12.255-.71.227z" fill="url(#paint31_linear_139_1176)"/><path d="M96.478 50.766s1.516.738 1.795 1.585c.223.68 1.9.767 2.065 2.104.086.69.597 1.243 1.284 1.349 1.713.262 4.351 1.151 4.774 4.124.322 2.27-.835 3.13-2.049 3.428-.892.218-1.484 1.086-1.304 1.986.173.864-.085 1.862-1.581 2.651-3.352 1.769-6.7-4.19-6.7-4.19l-.686-10.406 2.402-2.63z" fill="url(#paint32_linear_139_1176)"/><path d="M78.237 48.3S84.93 58.885 92.89 60.93c0 0-1.55 4.418-2.748 4.923 0 0-9.791-8.17-12.308-16.05l.404-1.504z" fill="url(#paint33_linear_139_1176)"/><path d="M110.256 116.011l.217 1.784a.737.737 0 00.646.644c.572.065 1.489.132 2.387.037a.63.63 0 00.53-.818c-.219-.688-.619-1.721-1.197-2.33h-1.978a.61.61 0 00-.605.683z" fill="url(#paint34_linear_139_1176)"/><path d="M95.68 111.719c.027.446.05.856.065 1.223a3.547 3.547 0 01-.525 2.017l-1.944 3.157 4.941-2.915.099-.603-.81-1.112.126-1.502a28.129 28.129 0 01-1.952-.265z" fill="url(#paint35_linear_139_1176)"/><path d="M92.95 118.574h1.577a.95.95 0 00.754-.37c.491-.638 1.51-1.884 1.997-1.917.655-.044.572 2.287.572 2.287h.367l.466-2.896a1.714 1.714 0 00-.9-1.792s-.15 1.108-.963 1.598c-.812.491-3.306 2.246-3.306 2.246s-.306-.043-.641.017c-.498.09-.428.827.077.827z" fill="url(#paint36_linear_139_1176)"/><path d="M111.271 111.935c-.162-.406-.382-1.249-.626-2.283-.658.191-1.311.397-1.956.622.187.42.334.774.433 1.042 1.041 2.837 1.406 5.204 1.42 5.428.022.35.457.686 1.658.686.619 0 .923-.248 1.072-.489a.702.702 0 00.026-.678c-.379-.766-1.581-3.217-2.027-4.328z" fill="url(#paint37_linear_139_1176)"/><path d="M95.43 55.981l1.374 6.17c.132.544-.364.455-.913.352-.9-.17-2.06-.52-2.448-1.22a.666.666 0 01-.07-.232l-.59-4.28a.769.769 0 01.45-.807l1.139-.505a.769.769 0 011.059.522z" fill="url(#paint38_linear_139_1176)"/><path d="M92.8 50.356s-1.463.99-2.091 3.511c-.629 2.521.393 3.425 1.44 3.37 1.046-.055 2.564-.379 3.88-2.188 1.315-1.809-1.313-5.903-3.23-4.693z" fill="url(#paint39_linear_139_1176)"/><path d="M94.702 54.032s.536-3.612-2.463-3.06l-.607.632s-1.468-1.654.157-2.903c1.625-1.25 3.88-.93 5.126 1.345 1.248 2.276 1.7 3.874.655 5.288-1.045 1.414-1.832.201-1.832.201s.48-1.223.082-1.748c-.398-.525-.911.305-.911.305l-.207-.06z" fill="url(#paint40_linear_139_1176)"/><path d="M94.875 54.673s.265-1.859 1.214-1.327c.95.531-.342 1.736-.86 2.146l-.354-.819z" fill="url(#paint41_linear_139_1176)"/><path d="M78.283 50.479c-.02.218.792.37 1.05-.562-.07-.404-.197-2.174-.507-2.449-1.65-1.465-4.593-3.112-4.593-3.112-.33.502.102.834.102.834l1.47.991c-.154.508-.378.957-.403 1.536-.019.439.143.869.434 1.202.293.334.686.765 1.041 1.093.672.62 1.406.467 1.406.467z" fill="url(#paint42_linear_139_1176)"/><path d="M77.485 49.757l.225-.092c-.03-.073-.735-1.786-1.076-2.142-.13-.136-.192-.252-.186-.345.002-.05.027-.1.075-.151l1.189.636.525.822.205-.131-.56-.876-1.392-.744-.063.05c-.14.116-.214.24-.222.38-.01.165.072.338.253.526.257.269.829 1.583 1.027 2.067z" fill="url(#paint43_linear_139_1176)"/><path d="M91.523 76.266l-.45 2.51c.62 5.787 1.652 11.893 3.355 18.31.527 5.278.908 10.355 1.118 15.196.477.185 1.025.336 2.414.071.497-6.886 1.775-13.512-.64-15.546L96.754 84.1l-1.988-7.596-3.242-.238z" fill="url(#paint44_linear_139_1176)"/><path d="M94.694 76.22l1.704 9.016c2 4.907 3.992 9.773 5.537 11.784 2.277 3.269 4.547 8.647 6.815 14.411.816.142 1.598-.089 2.343-.71-.849-6.727-2.503-12.379-6.389-15.05-.802-9.298-1.987-17.978-7.312-19.976l-2.698.526z" fill="url(#paint45_linear_139_1176)"/><path d="M97.392 75.695c-1.69-7.16 2.59-11.21 2.59-11.21-2.7-2.593-7.621-3.772-7.621-3.772s-4.696 3.433-4.139 6.12c.327 1.575 3.3 9.433 3.3 9.433s2.751 1.302 5.87-.572z" fill="url(#paint46_linear_139_1176)"/><path d="M97.583 79.582l5.831-2.002a.628.628 0 01.814.445l1.193 4.886a.628.628 0 01-.398.74l-5.774 2.063a.628.628 0 01-.82-.438l-1.25-4.946a.628.628 0 01.404-.748z" fill="url(#paint47_linear_139_1176)"/><path d="M97.477 81.512l4.458.813 2.643-2.864-.35-1.436a.628.628 0 00-.814-.445l-5.831 2.002a.628.628 0 00-.405.748l.3 1.182z" fill="url(#paint48_linear_139_1176)"/><path d="M97.818 80.894c-.967-7.602-2.51-16.164-.071-18.09l1.1.633c-2.851 1.028-1.657 9.053-.39 17.29l-.64.167z" fill="url(#paint49_linear_139_1176)"/><path d="M99.983 64.485s9.588 6.86 1.226 14.068c0 0-.318.36-.946.548-.316.095-1.253.804-1.728 1.173a.325.325 0 01-.476-.085.445.445 0 01-.025-.426l1.187-2.51a.916.916 0 011.189-.052.452.452 0 00.685-.155c.646-1.317 1.867-5.189-3.129-9.564a.541.541 0 01-.12-.658c.351-.674 1.154-2.013 2.137-2.34z" fill="url(#paint50_linear_139_1176)"/><path d="M36.903 104.631s-5.378 5.928-9.869 3.423c-3.61-2.014 1.519-1.488 5.869-2.439.341-.075.252-.585-.095-.539-3.403.451-8.596.82-9.498-.955-1.362-2.679-.041-1.81 4.103-1.423s4.943-.636 2.238-1.274c-2.706-.637-7.009.773-8.011-.538-1.003-1.311-1.55-3.913-1.95-5.032-.4-1.12 5.158-2.798 6.661-1.33 1.503 1.47 2.723 4.749 4.506 5.347 1.783.599-.135-2.301-1.317-3.798-1.183-1.498-1.652-2.61.71-2.253 2.364.357 3.613 3.24 3.862 5.393.249 2.153 1.081 3.357 1.043 2.292-.037-1.065-.424-4.33-1.179-5.313-.755-.982 4.636.217 2.927 8.439z" fill="#7D97F4"/><path opacity=".53" d="M36.465 104.687a.07.07 0 01-.072-.013c-4.615-4.038-12.357-6.973-12.435-7.002a.07.07 0 01.05-.132c.078.029 7.843 2.973 12.478 7.028a.07.07 0 01-.021.119z" fill="#fff" fill-opacity=".1"/><path d="M40.15 108.417s-9.82.324-11.449-5.776c-1.308-4.903 2.61.068 7.164 3.09.357.237.73-.278.394-.544-3.305-2.615-8.066-6.878-7.273-9.189 1.199-3.489 1.561-1.583 4.76 2.401 3.2 3.984 4.784 3.814 3.035.885-1.75-2.93-6.668-5.519-6.37-7.522.3-2.004 2.126-4.71 2.771-6.018.645-1.308 6.874 2.157 6.862 4.737-.011 2.58-1.86 6.457-.863 8.54.995 2.084 1.913-2.085 2.223-4.407.31-2.322.89-3.685 2.593-1.297 1.704 2.388.229 5.953-1.456 8.011-1.685 2.059-2.035 3.821-1.129 2.878.907-.943 3.456-4.074 3.677-5.578.22-1.505 3.77 4.271-4.94 9.789z" fill="url(#paint51_linear_139_1176)"/><path opacity=".53" d="M39.726 108.08a.088.088 0 01-.05-.075c-.383-7.519-4.41-16.85-4.45-16.944a.087.087 0 01.16-.07c.04.094 4.079 9.455 4.463 17.006a.088.088 0 01-.082.091.11.11 0 01-.041-.008z" fill="#fff" fill-opacity=".1"/><defs><linearGradient id="paint0_linear_139_1176" x1="126.271" y1="134.653" x2="40.078" y2="41.619" gradientUnits="userSpaceOnUse"><stop stop-color="#DAE3FE"/><stop offset="1" stop-color="#E9EFFD"/></linearGradient><linearGradient id="paint1_linear_139_1176" x1="61.268" y1="127.434" x2="61.268" y2="47.075" gradientUnits="userSpaceOnUse"><stop stop-color="#09005D"/><stop offset="1" stop-color="#1A0F91"/></linearGradient><linearGradient id="paint2_linear_139_1176" x1="28.889" y1="40.797" x2="29.883" y2="40.797" gradientUnits="userSpaceOnUse"><stop stop-color="#4F52FF"/><stop offset="1" stop-color="#4042E2"/></linearGradient><linearGradient id="paint3_linear_139_1176" x1="59.428" y1="50.667" x2="60.975" y2="50.667" gradientUnits="userSpaceOnUse"><stop stop-color="#4F52FF"/><stop offset="1" stop-color="#4042E2"/></linearGradient><linearGradient id="paint4_linear_139_1176" x1="93.062" y1="52.085" x2="94.054" y2="52.085" gradientUnits="userSpaceOnUse"><stop stop-color="#4F52FF"/><stop offset="1" stop-color="#4042E2"/></linearGradient><linearGradient id="paint5_linear_139_1176" x1="30.258" y1="48.15" x2="28.459" y2="71.528" gradientUnits="userSpaceOnUse"><stop stop-color="#4F52FF"/><stop offset="1" stop-color="#4042E2"/></linearGradient><linearGradient id="paint6_linear_139_1176" x1="30.249" y1="48.149" x2="28.451" y2="71.528" gradientUnits="userSpaceOnUse"><stop stop-color="#4F52FF"/><stop offset="1" stop-color="#4042E2"/></linearGradient><linearGradient id="paint7_linear_139_1176" x1="64.686" y1="65.569" x2="81.935" y2="44.486" gradientUnits="userSpaceOnUse"><stop stop-color="#4F52FF"/><stop offset="1" stop-color="#4042E2"/></linearGradient><linearGradient id="paint8_linear_139_1176" x1="66.018" y1="66.659" x2="83.267" y2="45.576" gradientUnits="userSpaceOnUse"><stop stop-color="#4F52FF"/><stop offset="1" stop-color="#4042E2"/></linearGradient><linearGradient id="paint9_linear_139_1176" x1="88.931" y1="47.06" x2="100.573" y2="-4.903" gradientUnits="userSpaceOnUse"><stop stop-color="#09005D"/><stop offset="1" stop-color="#1A0F91"/></linearGradient><linearGradient id="paint10_linear_139_1176" x1="119.704" y1="11.212" x2="110.334" y2="16.891" gradientUnits="userSpaceOnUse"><stop stop-color="#4F52FF"/><stop offset="1" stop-color="#4042E2"/></linearGradient><linearGradient id="paint11_linear_139_1176" x1="79.866" y1="27.17" x2="103.469" y2="27.17" gradientUnits="userSpaceOnUse"><stop stop-color="#4F52FF"/><stop offset="1" stop-color="#4042E2"/></linearGradient><linearGradient id="paint12_linear_139_1176" x1="81.686" y1="26.361" x2="106.636" y2="26.361" gradientUnits="userSpaceOnUse"><stop stop-color="#DAE3FE"/><stop offset="1" stop-color="#E9EFFD"/></linearGradient><linearGradient id="paint13_linear_139_1176" x1="94.205" y1="25.42" x2="108.261" y2="36.636" gradientUnits="userSpaceOnUse"><stop stop-color="#FE7062"/><stop offset="1" stop-color="#FF928E"/></linearGradient><linearGradient id="paint14_linear_139_1176" x1="127.081" y1="30.443" x2="112.032" y2="25.758" gradientUnits="userSpaceOnUse"><stop stop-color="#FE7062"/><stop offset="1" stop-color="#FF928E"/></linearGradient><linearGradient id="paint15_linear_139_1176" x1="94.573" y1="22.762" x2="89.935" y2="37.906" gradientUnits="userSpaceOnUse"><stop stop-color="#FE7062"/><stop offset="1" stop-color="#FF928E"/></linearGradient><linearGradient id="paint16_linear_139_1176" x1="78.822" y1="14.447" x2="120.579" y2="-30.151" gradientUnits="userSpaceOnUse"><stop stop-color="#09005D"/><stop offset="1" stop-color="#1A0F91"/></linearGradient><linearGradient id="paint17_linear_139_1176" x1="58.962" y1="34.32" x2="75.612" y2="54.426" gradientUnits="userSpaceOnUse"><stop stop-color="#FE7062"/><stop offset="1" stop-color="#FF928E"/></linearGradient><linearGradient id="paint18_linear_139_1176" x1="51.289" y1="26.685" x2="78.238" y2="53.998" gradientUnits="userSpaceOnUse"><stop stop-color="#FE7062"/><stop offset="1" stop-color="#FF928E"/></linearGradient><linearGradient id="paint19_linear_139_1176" x1="65.953" y1="18.143" x2="59.611" y2="33.004" gradientUnits="userSpaceOnUse"><stop stop-color="#4F52FF"/><stop offset="1" stop-color="#4042E2"/></linearGradient><linearGradient id="paint20_linear_139_1176" x1="63.381" y1="23.125" x2="64.61" y2="23.125" gradientUnits="userSpaceOnUse"><stop stop-color="#DAE3FE"/><stop offset="1" stop-color="#E9EFFD"/></linearGradient><linearGradient id="paint21_linear_139_1176" x1="65.244" y1="37.225" x2="77.738" y2="15.076" gradientUnits="userSpaceOnUse"><stop stop-color="#4F52FF"/><stop offset="1" stop-color="#4042E2"/></linearGradient><linearGradient id="paint22_linear_139_1176" x1="63.349" y1="42.759" x2="68.163" y2="42.759" gradientUnits="userSpaceOnUse"><stop stop-color="#DAE3FE"/><stop offset="1" stop-color="#E9EFFD"/></linearGradient><linearGradient id="paint23_linear_139_1176" x1="60.315" y1="33.322" x2="57.286" y2="38.812" gradientUnits="userSpaceOnUse"><stop stop-color="#4F52FF"/><stop offset="1" stop-color="#4042E2"/></linearGradient><linearGradient id="paint24_linear_139_1176" x1="28.11" y1="45.699" x2="26.122" y2=".834" gradientUnits="userSpaceOnUse"><stop stop-color="#09005D"/><stop offset="1" stop-color="#1A0F91"/></linearGradient><linearGradient id="paint25_linear_139_1176" x1="37.893" y1="-1.356" x2="34.201" y2="7.588" gradientUnits="userSpaceOnUse"><stop stop-color="#4F52FF"/><stop offset="1" stop-color="#4042E2"/></linearGradient><linearGradient id="paint26_linear_139_1176" x1="13.636" y1="24.686" x2="37.239" y2="24.686" gradientUnits="userSpaceOnUse"><stop stop-color="#4F52FF"/><stop offset="1" stop-color="#4042E2"/></linearGradient><linearGradient id="paint27_linear_139_1176" x1="40.406" y1="23.877" x2="15.456" y2="23.877" gradientUnits="userSpaceOnUse"><stop stop-color="#DAE3FE"/><stop offset="1" stop-color="#E9EFFD"/></linearGradient><linearGradient id="paint28_linear_139_1176" x1="36.972" y1="33.835" x2="16.054" y2="12.444" gradientUnits="userSpaceOnUse"><stop stop-color="#FE7062"/><stop offset="1" stop-color="#FF928E"/></linearGradient><linearGradient id="paint29_linear_139_1176" x1="35.458" y1="8.122" x2="31.198" y2="14.085" gradientUnits="userSpaceOnUse"><stop stop-color="#FE7062"/><stop offset="1" stop-color="#FF928E"/></linearGradient><linearGradient id="paint30_linear_139_1176" x1="27.987" y1="20.951" x2="23.633" y2="37.514" gradientUnits="userSpaceOnUse"><stop stop-color="#FE7062"/><stop offset="1" stop-color="#FF928E"/></linearGradient><linearGradient id="paint31_linear_139_1176" x1="101.718" y1="85.159" x2="101.15" y2="58.373" gradientUnits="userSpaceOnUse"><stop stop-color="#09005D"/><stop offset="1" stop-color="#1A0F91"/></linearGradient><linearGradient id="paint32_linear_139_1176" x1="100.288" y1="56.145" x2="100.714" y2="40.386" gradientUnits="userSpaceOnUse"><stop stop-color="#E1473D"/><stop offset="1" stop-color="#E9605A"/></linearGradient><linearGradient id="paint33_linear_139_1176" x1="83.235" y1="53.295" x2="95.339" y2="70.027" gradientUnits="userSpaceOnUse"><stop stop-color="#FEBBBA"/><stop offset="1" stop-color="#FF928E"/></linearGradient><linearGradient id="paint34_linear_139_1176" x1="110.252" y1="116.926" x2="114.065" y2="116.926" gradientUnits="userSpaceOnUse"><stop stop-color="#09005D"/><stop offset="1" stop-color="#1A0F91"/></linearGradient><linearGradient id="paint35_linear_139_1176" x1="95.294" y1="122.223" x2="96.861" y2="103.906" gradientUnits="userSpaceOnUse"><stop stop-color="#FEBBBA"/><stop offset="1" stop-color="#FF928E"/></linearGradient><linearGradient id="paint36_linear_139_1176" x1="92.534" y1="116.23" x2="98.704" y2="116.23" gradientUnits="userSpaceOnUse"><stop stop-color="#09005D"/><stop offset="1" stop-color="#1A0F91"/></linearGradient><linearGradient id="paint37_linear_139_1176" x1="110.211" y1="123.027" x2="112.174" y2="100.084" gradientUnits="userSpaceOnUse"><stop stop-color="#FEBBBA"/><stop offset="1" stop-color="#FF928E"/></linearGradient><linearGradient id="paint38_linear_139_1176" x1="93.535" y1="68.738" x2="94.566" y2="61.196" gradientUnits="userSpaceOnUse"><stop stop-color="#FEBBBA"/><stop offset="1" stop-color="#FF928E"/></linearGradient><linearGradient id="paint39_linear_139_1176" x1="91.699" y1="59.655" x2="97.412" y2="42.204" gradientUnits="userSpaceOnUse"><stop stop-color="#FEBBBA"/><stop offset="1" stop-color="#FF928E"/></linearGradient><linearGradient id="paint40_linear_139_1176" x1="75.993" y1="-57.513" x2="73.349" y2="-73.054" gradientUnits="userSpaceOnUse"><stop stop-color="#E1473D"/><stop offset="1" stop-color="#E9605A"/></linearGradient><linearGradient id="paint41_linear_139_1176" x1="93.55" y1="60.67" x2="99.263" y2="43.219" gradientUnits="userSpaceOnUse"><stop stop-color="#FEBBBA"/><stop offset="1" stop-color="#FF928E"/></linearGradient><linearGradient id="paint42_linear_139_1176" x1="81.782" y1="54.347" x2="93.886" y2="71.078" gradientUnits="userSpaceOnUse"><stop stop-color="#FEBBBA"/><stop offset="1" stop-color="#FF928E"/></linearGradient><linearGradient id="paint43_linear_139_1176" x1="78.442" y1="48.245" x2="76.204" y2="48.245" gradientUnits="userSpaceOnUse"><stop stop-color="#FEBBBA"/><stop offset="1" stop-color="#FF928E"/></linearGradient><linearGradient id="paint44_linear_139_1176" x1="103.468" y1="119.331" x2="86.645" y2="68.861" gradientUnits="userSpaceOnUse"><stop stop-color="#4F52FF"/><stop offset="1" stop-color="#4042E2"/></linearGradient><linearGradient id="paint45_linear_139_1176" x1="110.568" y1="116.965" x2="93.745" y2="66.495" gradientUnits="userSpaceOnUse"><stop stop-color="#4F52FF"/><stop offset="1" stop-color="#4042E2"/></linearGradient><linearGradient id="paint46_linear_139_1176" x1="94.272" y1="67.28" x2="97.016" y2="92.741" gradientUnits="userSpaceOnUse"><stop stop-color="#FE7062"/><stop offset="1" stop-color="#FF928E"/></linearGradient><linearGradient id="paint47_linear_139_1176" x1="114.323" y1="48.749" x2="108.36" y2="63.798" gradientUnits="userSpaceOnUse"><stop stop-color="#09005D"/><stop offset="1" stop-color="#1A0F91"/></linearGradient><linearGradient id="paint48_linear_139_1176" x1="100.982" y1="85.174" x2="100.414" y2="58.388" gradientUnits="userSpaceOnUse"><stop stop-color="#09005D"/><stop offset="1" stop-color="#1A0F91"/></linearGradient><linearGradient id="paint49_linear_139_1176" x1="98.057" y1="85.236" x2="97.489" y2="58.45" gradientUnits="userSpaceOnUse"><stop stop-color="#09005D"/><stop offset="1" stop-color="#1A0F91"/></linearGradient><linearGradient id="paint50_linear_139_1176" x1="97.784" y1="72.414" x2="104.632" y2="72.414" gradientUnits="userSpaceOnUse"><stop stop-color="#FEBBBA"/><stop offset="1" stop-color="#FF928E"/></linearGradient><linearGradient id="paint51_linear_139_1176" x1="44.006" y1="111.922" x2="31.228" y2="88.921" gradientUnits="userSpaceOnUse"><stop stop-color="#4F52FF"/><stop offset="1" stop-color="#4042E2"/></linearGradient></defs></svg>