<svg width="243" height="174" fill="none" xmlns="http://www.w3.org/2000/svg"><path d="M243 151.845H0v.122h243v-.122zm-188.73 4.077H38.173v.122H54.27v-.122zm25.191 3.506H64.8v.121h14.66v-.121zm-33.24 1.007h-18.59v.122h18.59v-.122zm172.431-.265h-7.728v.121h7.728v-.121zm-9.287 0h-19.11v.121h19.11v-.121zm-73.123-4.308H121.5v.121h14.742v-.121zm37.144 0h-35.038v.121h35.038v-.121z" fill="#EBEBEB" fill-opacity=".1"/><path d="M97.485 3.716H41.553c-3.907 0-7.103 3.196-7.103 7.103v9.192c-.513.163-.89.639-.89 1.204v15.47c0 .565.377 1.042.89 1.205v5.265a.954.954 0 00-.89.947v8.253c0 .503.396.913.89.947v91.441c0 3.906 3.196 7.103 7.102 7.103h55.933c3.907 0 7.103-3.197 7.103-7.103V10.819c0-3.907-3.196-7.103-7.103-7.103z" fill="#E0E0E0" fill-opacity=".1"/><path d="M43.986 151.845h55.932c3.907 0 7.103-3.196 7.103-7.103V10.819c0-3.907-3.196-7.103-7.103-7.103H43.985c-3.906 0-7.102 3.196-7.102 7.103v133.923c0 3.907 3.195 7.103 7.102 7.103z" fill="#EBEBEB" fill-opacity=".1"/><path d="M68.79 145.062a3.161 3.161 0 106.323 0 3.161 3.161 0 00-6.323 0z" fill="#E0E0E0" fill-opacity=".1"/><path d="M36.882 139.175h70.139V11.878H36.882v127.297z" fill="#FAFAFA" fill-opacity=".1"/><path d="M89.437 90.362H54.824c-3.635 0-6.621 2.986-6.621 6.622v17.873c0 3.634 2.986 6.621 6.621 6.621h25.398l-.186 6.252 6.414-6.252h2.986c3.635 0 6.622-2.987 6.622-6.621V96.984c0-3.636-2.986-6.622-6.621-6.622zm-35.4 7.617c0-1.019.833-1.852 1.852-1.852h7.965c1.018 0 1.828.834 1.828 1.852 0 .995-.81 1.83-1.828 1.83h-7.965c-1.019-.001-1.852-.835-1.852-1.83zm33.432 17.294H73.694c-.996 0-1.83-.81-1.83-1.829s.833-1.828 1.83-1.828h13.775c1.019 0 1.829.81 1.829 1.828 0 1.02-.81 1.829-1.829 1.829zm0-7.733H57.742c-.996 0-1.83-.81-1.83-1.828 0-1.019.834-1.829 1.83-1.829h29.727c1.019 0 1.829.81 1.829 1.829 0 1.018-.81 1.828-1.829 1.828zm0-7.732H69.873a1.833 1.833 0 01-1.83-1.83c0-1.018.811-1.852 1.83-1.852H87.47c1.019 0 1.829.834 1.829 1.852 0 .996-.81 1.83-1.829 1.83zm-15.604-71.6c-10.943 0-19.818 8.875-19.818 19.817 0 9.388 6.53 17.252 15.293 19.295l4.525 5.762 4.525-5.761h.002c8.76-2.047 15.29-9.911 15.29-19.296 0-10.942-8.874-19.817-19.817-19.817zm0 28.077a8.257 8.257 0 01-8.255-8.26 8.253 8.253 0 018.255-8.254c4.56 0 8.259 3.694 8.259 8.254a8.26 8.26 0 01-8.26 8.26z" fill="#E6E6E6" fill-opacity=".1"/><path d="M80 7.473a1.118 1.118 0 10-2.236 0 1.118 1.118 0 002.236 0zm-4.981-1.119h-9.288c-.615 0-1.119.503-1.119 1.118 0 .615.503 1.118 1.119 1.118h9.288c.615 0 1.118-.503 1.118-1.118 0-.615-.503-1.118-1.118-1.118zm63.78-3.502h70.632c3.208 0 5.832 2.624 5.832 5.832v137.329c0 3.208-2.624 5.832-5.832 5.832h-70.632c-3.207 0-5.832-2.624-5.832-5.832V8.683c0-3.207 2.625-5.831 5.832-5.831z" fill="#E0E0E0" fill-opacity=".1"/><path d="M137.301 2.852h70.632c3.207 0 5.832 2.624 5.832 5.832v137.329c0 3.208-2.625 5.832-5.832 5.832h-70.632c-3.208 0-5.832-2.624-5.832-5.832V8.683c0-3.207 2.624-5.831 5.832-5.831z" fill="#EBEBEB" fill-opacity=".1"/><path d="M207.933 147.957c1.053 0 1.944-.89 1.944-1.944V11.879c0-1.053-.891-1.944-1.944-1.944h-70.632c-1.054 0-1.944.89-1.944 1.944v134.134c0 1.054.89 1.944 1.944 1.944h70.632z" fill="#FAFAFA" fill-opacity=".1"/><path d="M185.534 83.736a10.908 10.908 0 00-8.681 4.294l-10.238-6.143a10.89 10.89 0 00.988-4.539c0-1.62-.355-3.156-.988-4.538l10.238-6.143a10.908 10.908 0 008.681 4.293c6.036 0 10.928-4.892 10.928-10.927 0-6.035-4.892-10.927-10.928-10.927-6.035 0-10.927 4.892-10.927 10.927 0 1.62.355 3.156.988 4.539l-10.238 6.143a10.908 10.908 0 00-8.681-4.294c-6.035 0-10.927 4.892-10.927 10.927 0 6.035 4.892 10.928 10.927 10.928a10.91 10.91 0 008.681-4.294l10.238 6.142a10.876 10.876 0 00-.988 4.54c0 6.034 4.893 10.927 10.927 10.927 6.036 0 10.928-4.893 10.928-10.927 0-6.035-4.893-10.928-10.928-10.928z" fill="#E6E6E6" fill-opacity=".1"/><path d="M172.617 8.484a1.858 1.858 0 10-.001-3.715 1.858 1.858 0 00.001 3.715z" fill="#fff" fill-opacity=".1"/><path d="M121.5 173.795c52.042 0 94.23-2.464 94.23-5.503 0-3.04-42.188-5.503-94.23-5.503s-94.23 2.463-94.23 5.503c0 3.039 42.188 5.503 94.23 5.503z" fill="#F5F5F5" fill-opacity=".1"/><path d="M157.294 118.933a4.839 4.839 0 01-2.088-.475l-83.953-40.02a4.86 4.86 0 010-8.774l83.953-40.02a4.86 4.86 0 014.183 8.774L84.639 74.05l74.75 35.633a4.86 4.86 0 01-2.095 9.249zm25.652-60.063l-.349-.339a35.647 35.647 0 003.869-4.754l.402.273a36.13 36.13 0 01-3.922 4.82z" fill="#6695FF"/><path d="M157.297 68.051c18.789 0 34.02-15.231 34.02-34.02 0-18.788-15.231-34.02-34.02-34.02-18.788 0-34.02 15.232-34.02 34.02 0 18.789 15.232 34.02 34.02 34.02z" fill="#6695FF"/><path d="M157.297 60.673c14.714 0 26.642-11.928 26.642-26.642 0-14.714-11.928-26.642-26.642-26.642-14.714 0-26.642 11.928-26.642 26.642 0 14.714 11.928 26.642 26.642 26.642z" fill="#fff" fill-opacity=".1"/><mask id="a" style="mask-type:luminance" maskUnits="userSpaceOnUse" x="130" y="7" width="54" height="54"><path d="M157.297 60.673c14.714 0 26.642-11.928 26.642-26.642 0-14.714-11.928-26.642-26.642-26.642-14.714 0-26.642 11.928-26.642 26.642 0 14.714 11.928 26.642 26.642 26.642z" fill="#fff"/></mask><g mask="url(#a)"><path d="M158.013 48.973s9.558 1.996 14.758 1.186c5.199-.81 4.601-7.776.47-11.259-4.131-3.483-3.159-2.673-2.187-6.318.972-3.645-1.215-6.561-5.372-6.723-4.157-.162-.136-5.346-4.386-11.138-4.249-5.792-11.788-1.417-12.331 1.175-2.373.081-4.856 3.944-3.088 7.44 1.768 3.495-.5 4.407-1.877 8.609-1.377 4.201 4.164 5.011 2.933 7.846-1.232 2.835-1.313 12.207 11.08 9.182z" fill="#263238"/><path d="M148.734 41.772c-.084 1.474-.257 2.824-.45 4.224a56.41 56.41 0 01-.758 4.14c-.307 1.372-.632 2.745-1.065 4.099a36.871 36.871 0 01-1.473 4.028l-.445.99c-.063.15-.183.37-.279.556-.101.192-.21.36-.316.54-.429.69-.903 1.28-1.382 1.844-.959 1.123-1.982 2.105-3.029 3.043a56.501 56.501 0 01-6.643 5.03l-1.35-1.743c.952-.92 1.919-1.87 2.855-2.82a69.717 69.717 0 002.737-2.891 36.744 36.744 0 002.451-2.977c.362-.5.688-1.012.947-1.491.057-.118.126-.24.174-.352.049-.122.093-.2.153-.366l.339-.89c.878-2.387 1.5-4.925 2.009-7.49.257-1.283.44-2.585.635-3.883a76.26 76.26 0 00.449-3.869l4.441.278z" fill="#FFB573"/><path d="M145.704 36.468c-1.794.457-3.048 7.839-3.048 7.839l4.943 3.361s4.74-7.447 3.36-9.42c-1.438-2.053-2.637-2.446-5.255-1.78z" fill="#6695FF"/><path opacity=".2" d="M145.704 36.468c-1.794.457-3.048 7.839-3.048 7.839l4.943 3.361s4.74-7.447 3.36-9.42c-1.438-2.053-2.637-2.446-5.255-1.78z" fill="#fff" fill-opacity=".1"/><path opacity=".2" d="M145.866 38.117l-1.378 7.44 2.779 1.884-1.401-9.324z" fill="#000"/><path d="M145.704 36.468s-2.073.73 2.08 26.27h17.677c-.297-7.195-.305-11.631 3.134-26.396 0 0-3.704-.806-7.506-.99-2.975-.143-5.412-.237-8.027.001-3.448.315-7.358 1.115-7.358 1.115z" fill="#6695FF"/><path opacity=".2" d="M145.704 36.468s-2.073.73 2.08 26.27h17.677c-.297-7.195-.305-11.631 3.134-26.396 0 0-3.704-.806-7.506-.99-2.975-.143-5.412-.237-8.027.001-3.448.315-7.358 1.115-7.358 1.115z" fill="#fff" fill-opacity=".1"/><path d="M160.293 26.315c-.506 2.583-1.011 7.315.796 9.038 0 0-.706 2.62-5.505 2.62-5.277 0-2.522-2.62-2.522-2.62 2.88-.687 2.806-2.824 2.304-4.83l4.927-4.208z" fill="#FFB573"/><path d="M161.086 35.355c-2.975-.146-5.41-.241-8.026 0-.174.018-.349.034-.523.051-1.082 1.258.247 2.853 1.369 3.983 0 0 6.404-.997 8.237-3.966a32.35 32.35 0 00-1.057-.068z" fill="#FFB573"/><path opacity=".2" d="M158.284 28.032l-2.916 2.488c.12.475.214.956.247 1.425 1.327 0 2.486-.929 2.951-2.457.168-.553-.188-1.189-.282-1.456z" fill="#000"/><path d="M160.439 19.446c.914 4.222 1.392 5.989-.104 8.71-2.25 4.092-7.636 4.291-9.793.428-1.942-3.477-3.111-9.797.486-12.593 3.544-2.755 8.497-.767 9.411 3.455z" fill="#FFB573"/><path d="M154.132 22.412c.095.338-.007.663-.228.725-.221.062-.477-.161-.572-.5-.096-.337.006-.662.227-.724.221-.062.477.162.573.5zm-3.82 1.076c.095.338-.007.663-.227.725-.221.062-.478-.161-.573-.499-.095-.338.007-.662.228-.725.221-.062.477.162.572.5z" fill="#263238"/><path d="M149.843 22.98l-.878-.005s.595.517.878.005z" fill="#263238"/><path d="M151.661 23.765s-.163 1.617-.597 2.497c.564.29 1.269-.114 1.269-.114l-.672-2.383z" fill="#ED893E"/><path d="M154.548 26.952a3.37 3.37 0 01-.487.177.103.103 0 01-.127-.07c-.016-.056.015-.115.071-.128 1.483-.42 1.884-1.649 1.888-1.662a.102.102 0 01.129-.067.104.104 0 01.068.13c-.016.048-.351 1.077-1.542 1.62zm-4.636-10.429c-.926 1.054 9.129 6.467 11.176 5.492 2.048-.976.205-6.382-2.387-7.557-2.591-1.175-5.995-1.114-8.789 2.065z" fill="#263238"/><path d="M162.636 22.934a3.157 3.157 0 01-1.106 2.143c-.85.709-1.727.057-1.869-.982-.128-.936.162-2.432 1.197-2.737 1.02-.302 1.855.555 1.778 1.576z" fill="#FFB573"/><path d="M155.446 21.202a.205.205 0 01-.237-.048c-.645-.703-1.865-.555-1.877-.552a.207.207 0 01-.053-.41c.059-.007 1.445-.175 2.233.684a.205.205 0 01-.066.326zm-6.779.845a.206.206 0 01-.255-.305c.651-.937 1.603-.92 1.642-.919a.207.207 0 01.201.212.207.207 0 01-.212.2c-.038 0-.776-.002-1.292.742a.202.202 0 01-.084.07z" fill="#263238"/><path d="M170.505 40.994a68.296 68.296 0 012.615 7.64c.732 2.593 1.328 5.248 1.577 8.063.03.353.038.717.057 1.073l.013.27c.003.092.01.163.005.304l-.011.375-.033.33c-.101.861-.301 1.55-.509 2.238-.418 1.358-.931 2.606-1.471 3.84a66.52 66.52 0 01-3.685 7.09l-1.99-.948c.847-2.446 1.704-4.913 2.467-7.35.375-1.216.73-2.44.988-3.61.122-.577.221-1.168.237-1.611l.005-.159-.009-.116c.002-.023-.009-.114-.017-.184l-.023-.22c-.035-.296-.057-.586-.1-.883-.35-2.388-.997-4.837-1.734-7.262a121.21 121.21 0 00-2.502-7.197l4.12-1.683z" fill="#FFB573"/><path d="M168.595 36.342c1.771.539 3.898 6.637 3.898 6.637l-6.871 4.912s-2.506-5.09-1.762-7.38c.775-2.383 2.714-4.784 4.735-4.169z" fill="#6695FF"/><path opacity=".2" d="M168.595 36.342c1.771.539 3.898 6.637 3.898 6.637l-6.871 4.912s-2.506-5.09-1.762-7.38c.775-2.383 2.714-4.784 4.735-4.169z" fill="#fff" fill-opacity=".1"/><path d="M153.663 21.904l-.878-.005s.595.517.878.005z" fill="#263238"/></g><path d="M49.422 48.205l-.33-.357a35.865 35.865 0 018.029-5.616l.221.432a35.385 35.385 0 00-7.92 5.541zm-3.728 4.03l-.38-.301a35.837 35.837 0 011.894-2.208l.355.332a35.904 35.904 0 00-1.869 2.177z" fill="#6695FF"/><path d="M73.345 108.071c18.788 0 34.02-15.23 34.02-34.02 0-18.788-15.232-34.02-34.02-34.02-18.789 0-34.02 15.232-34.02 34.02 0 18.79 15.231 34.02 34.02 34.02z" fill="#6695FF"/><path d="M73.345 100.693c14.714 0 26.642-11.928 26.642-26.641 0-14.715-11.928-26.643-26.642-26.643-14.714 0-26.642 11.928-26.642 26.643 0 14.713 11.928 26.641 26.642 26.641z" fill="#fff" fill-opacity=".1"/><mask id="b" style="mask-type:luminance" maskUnits="userSpaceOnUse" x="46" y="47" width="54" height="54"><path d="M73.345 100.693c14.714 0 26.642-11.928 26.642-26.641 0-14.715-11.928-26.643-26.642-26.643-14.714 0-26.642 11.928-26.642 26.643 0 14.713 11.928 26.641 26.642 26.641z" fill="#fff"/></mask><g mask="url(#b)"><path d="M85.364 81.276a576.894 576.894 0 003.855 8.742c.65 1.454 1.316 2.896 1.997 4.324a108.93 108.93 0 002.091 4.22c.366.674.72 1.377 1.104 2.014l.284.488.14.243c-.013-.023-.04-.04-.049-.049-.064-.039-.02.038.126.123.29.193.888.392 1.527.514.648.125 1.364.215 2.098.27 1.475.101 3.025.101 4.586.054l2.356-.1 2.351-.156.606 2.829c-3.209 1.024-6.412 1.761-9.915 1.984-.879.047-1.779.062-2.73-.025-.955-.096-1.957-.233-3.128-.739-.577-.265-1.222-.641-1.818-1.29a5 5 0 01-.42-.526l-.18-.271-.357-.538c-.49-.719-.906-1.436-1.351-2.156-1.688-2.886-3.192-5.802-4.606-8.752a164.035 164.035 0 01-3.965-8.97l5.398-2.233z" fill="#7F3E3B"/><path d="M78.453 80.876c-1.178 3.447 5.751 13.598 5.751 13.598l6.646-3.678s-1.809-5.164-3.991-9.252c-2.342-4.388-7.112-4.451-8.406-.668z" fill="#6695FF"/><path opacity=".5" d="M78.453 80.876c-1.178 3.447 5.751 13.598 5.751 13.598l6.646-3.678s-1.809-5.164-3.991-9.252c-2.342-4.388-7.112-4.451-8.406-.668z" fill="#000"/><path opacity=".2" d="M78.353 81.312c1.486-.715 3.2-.117 5 2.73 1.777 2.818 3.338 7.606 3.506 8.963l-2.655 1.469s-6.4-9.373-5.851-13.162z" fill="#000"/><path d="M82.936 78.24s4.951 11.634 1.384 33.3H63.713c-.252-3.164 1.2-18.595-2.368-33.5 0 0 3.508-.708 6.868-.87 2.63-.127 6.439-.211 8.76 0 3.062.279 5.963 1.07 5.963 1.07z" fill="#6695FF"/><path opacity=".5" d="M82.936 78.24s4.951 11.634 1.384 33.3H63.713c-.252-3.164 1.2-18.595-2.368-33.5 0 0 3.508-.708 6.868-.87 2.63-.127 6.439-.211 8.76 0 3.062.279 5.963 1.07 5.963 1.07z" fill="#000"/><path d="M77.06 93.121l-4.425-4.735 3.23-4.753 4.424 4.735-3.228 4.753z" fill="#fff" fill-opacity=".1"/><path opacity=".2" d="M65.95 81.72c.428 2.454-.142 8.322-2.243 15.104-.189-5.22-.712-11.27-2.024-17.3v-.03c1.352-.138 3.858-.073 4.267 2.227z" fill="#000"/><path d="M68.74 67.306c.65 2.819 1.38 7.983-.526 9.864 0 0 1.205 2.84 6.442 2.849 4.2.005 2.318-2.849 2.318-2.849-3.17-.75-3.169-3.082-2.698-5.272l-5.537-4.592z" fill="#7F3E3B"/><path opacity=".2" d="M70.997 69.18l3.277 2.715a8.905 8.905 0 00-.216 1.555c-1.207-.174-2.902-1.492-3.073-2.749-.086-.627-.08-1.23.012-1.522z" fill="#000"/><path d="M76.957 58.923c1.75 1.131 2.003 6.579-.56 7.358-2.561.779-2.756-9.5.56-7.358z" fill="#263238"/><path d="M67.508 64.353c1.174 3.65 1.675 5.839 4.042 7.325 3.562 2.237 7.732-.464 7.678-4.352-.049-3.5-1.96-8.88-5.986-9.554-3.966-.664-6.908 2.93-5.734 6.58z" fill="#7F3E3B"/><path d="M68.833 60.59c1.95 2.636 1.956 6.831.426 7.311-1.53.48-5.73-4.381-5.948-6.97-.175-2.084 1.21-2.084 1.21-2.084s-2.237-1.299.304-2.858c2.86-1.755 9.946-1.587 6.757-4.056 2.309-.765 3.203.707 3.059 1.602 1.7-.519 1.588-2.367 1.588-2.367s4.518 2.526 2.483 5.471c-2.036 2.945-5.784 3.875-9.879 3.951z" fill="#263238"/><path d="M66.865 68.8a3.808 3.808 0 002.61 1.071c1.284 0 1.542-1.215.865-2.23-.61-.915-2.013-2.017-3.148-1.527-1.116.482-1.18 1.845-.327 2.685z" fill="#7F3E3B"/><path d="M73.427 64.15c.077.3.3.51.498.466.199-.043.297-.322.22-.624-.076-.301-.3-.51-.498-.467-.199.044-.297.323-.22.624zm3.431-.751c.077.301.3.51.499.467.198-.043.297-.323.22-.624-.077-.301-.3-.51-.499-.467-.198.043-.297.323-.22.624z" fill="#263238"/><path d="M75.806 63.787s1.134 1.587 2.108 2.26c-.41.614-1.381.587-1.381.587l-.727-2.847z" fill="#630F0F"/><path d="M75.22 67.73c-1.053 0-1.696-.59-1.728-.62a.091.091 0 01.125-.133c.008.008.872.797 2.202.505a.09.09 0 01.108.07.09.09 0 01-.07.108c-.225.05-.438.07-.636.07zm-3.153-4.447a.182.182 0 01-.167-.255 1.755 1.755 0 011.269-1.053.182.182 0 01.054.361c-.028.005-.674.114-.988.837a.182.182 0 01-.168.11zm5.949-1.377a.181.181 0 01-.14-.066c-.526-.63-1.19-.586-1.216-.582a.182.182 0 01-.032-.364c.034-.003.874-.07 1.528.713a.182.182 0 01-.14.299z" fill="#263238"/><path d="M65.414 83.597l-.793 1.72a71.225 71.225 0 00-.773 1.782 85.524 85.524 0 00-1.437 3.602c-.443 1.208-.869 2.418-1.215 3.63-.185.608-.333 1.211-.493 1.815l-.203.904-.026.112-.012.057v-.004c-.001-.01-.008-.02-.008-.02-.01-.006-.012.017-.015.052-.01.153.11.576.332 1.01.221.442.525.92.872 1.396.688.961 1.532 1.915 2.414 2.851 1.78 1.856 3.75 3.695 5.723 5.427l-1.615 2.4c-2.483-1.348-4.805-2.839-7.035-4.628-1.114-.894-2.194-1.859-3.227-2.992a15.018 15.018 0 01-1.474-1.918c-.455-.732-.919-1.562-1.139-2.753a5.336 5.336 0 01-.055-1.486l.023-.2.019-.136.149-1.098c.122-.72.237-1.448.406-2.148a42.62 42.62 0 011.127-4.15 52.59 52.59 0 011.456-3.992c.275-.65.556-1.299.85-1.943a33.32 33.32 0 01.95-1.952l5.199 2.662z" fill="#7F3E3B"/><path d="M61.346 78.04c-3.627.53-7.363 13.883-7.363 13.883l8.766 3.334s2.202-5.739 3.71-10.2c1.58-4.673-1.224-7.585-5.113-7.016z" fill="#6695FF"/><path opacity=".5" d="M61.346 78.04c-3.627.53-7.363 13.883-7.363 13.883l8.766 3.334s2.202-5.739 3.71-10.2c1.58-4.673-1.224-7.585-5.113-7.016z" fill="#000"/></g><path d="M157.297 148.092c18.789 0 34.02-15.232 34.02-34.02 0-18.79-15.231-34.02-34.02-34.02-18.788 0-34.02 15.23-34.02 34.02 0 18.788 15.232 34.02 34.02 34.02z" fill="#6695FF"/><path d="M157.297 140.714c14.714 0 26.642-11.929 26.642-26.643 0-14.713-11.928-26.642-26.642-26.642-14.714 0-26.642 11.928-26.642 26.642 0 14.714 11.928 26.643 26.642 26.643z" fill="#fff" fill-opacity=".1"/><mask id="c" style="mask-type:luminance" maskUnits="userSpaceOnUse" x="130" y="87" width="54" height="54"><path d="M157.297 140.714c14.714 0 26.642-11.929 26.642-26.643 0-14.713-11.928-26.642-26.642-26.642-14.714 0-26.642 11.928-26.642 26.642 0 14.714 11.928 26.643 26.642 26.643z" fill="#fff"/></mask><g mask="url(#c)"><path d="M147.905 122.909c-.081 1.44-.249 2.758-.437 4.126a55.324 55.324 0 01-.732 4.042c-.568 2.683-1.35 5.347-2.429 7.944l-.435.967-.109.242-.054.121c-.018.039-.032.073-.075.155a3.902 3.902 0 01-.567.852 3.312 3.312 0 01-2.072 1.1c-.731.086-1.299-.044-1.777-.185-.94-.309-1.61-.731-2.243-1.161a18.975 18.975 0 01-1.706-1.374c-2.08-1.925-3.806-3.981-5.394-6.22l1.674-1.414a99.473 99.473 0 002.885 2.609 38.36 38.36 0 002.981 2.375c.501.359 1.008.693 1.505.968.486.274.99.497 1.326.56.158.031.26.008.187-.002-.067-.02-.309.094-.367.168-.036.033-.041.039-.037.016l.151-.397.332-.867c.824-2.352 1.446-4.821 1.926-7.331.25-1.253.427-2.525.617-3.793.181-1.257.326-2.573.436-3.777l4.414.276z" fill="#FF8B7B"/><path d="M144.895 117.637c-1.784.454-3.031 7.791-3.031 7.791l4.914 3.341s4.711-7.402 3.339-9.362c-1.429-2.041-2.621-2.433-5.222-1.77z" fill="#263238"/><path opacity=".2" d="M145.055 119.276l-1.369 7.395 2.761 1.873-1.392-9.268z" fill="#000"/><path d="M131.599 131.828l-2.338-3.691-1.325 4.195s1.917 2.01 3.65 1.531l.013-2.035z" fill="#FF8B7B"/><path d="M144.895 117.637s-2.062.725 2.067 26.109h17.569c-.295-7.15-.303-11.56 3.115-26.235 0 0-3.682-.801-7.461-.983-2.956-.142-5.379-.236-7.978.001-3.426.313-7.312 1.108-7.312 1.108zm3.893-18.724c6.288-10.07 24.92-1.816 15.192 8.096-12.997 13.244-15.192-8.096-15.192-8.096z" fill="#263238"/><path d="M152.948 113.155c-.699 0-1.317-.164-1.852-.495-3.906-2.413-1.951-12.666-1.866-13.102a.182.182 0 01.358.07c-.02.104-1.993 10.441 1.699 12.722 1.787 1.103 4.652.151 8.515-2.83a.18.18 0 01.255.033.18.18 0 01-.033.255c-2.886 2.228-5.256 3.347-7.076 3.347zm7.638-17.089c1.962-5.876 12.358-3.998 8.695 2.255-3.879 6.62-8.695-2.255-8.695-2.255z" fill="#263238"/><path d="M159.394 107.545c-.503 2.567-1.005 7.271.791 8.984 0 0-.702 2.604-5.471 2.604-5.245 0-2.507-2.604-2.507-2.604 2.863-.684 2.789-2.807 2.29-4.802l4.897-4.182z" fill="#FF8B7B"/><path d="M154.35 119.128s1.202 1.147 1.728 2.659c.918-.324 5.657-2.93 5.751-5.346-.577-.191-1.917-.405-1.917-.405s-1.971 2.039-5.562 3.092zm0 0s-1.046 1.127-1.728 2.659c-1.312-.824-2.707-2.636-1.697-5.188.719-.319 2.184-.374 2.184-.374s-2.35 1.85 1.241 2.903z" fill="#6695FF"/><path opacity=".2" d="M157.398 109.252l-2.899 2.473c.12.472.213.951.246 1.416 1.094-.158 2.596-1.358 2.712-2.503.058-.572.034-1.12-.059-1.386z" fill="#000"/><path d="M162.102 102.837c-1.007 4.173-1.343 5.961-3.858 7.75-3.783 2.69-8.69.541-8.95-3.85-.235-3.951 1.451-10.113 5.879-11.06 4.362-.934 7.935 2.986 6.929 7.16z" fill="#FF8B7B"/><path d="M155.009 102.267c-.061.344-.292.59-.516.55-.225-.04-.358-.35-.297-.694.061-.343.292-.59.517-.55.224.04.357.35.296.694zm-3.883-.688c-.061.344-.292.59-.517.55-.224-.039-.357-.35-.296-.694.06-.343.292-.59.517-.55.224.04.356.351.296.694z" fill="#263238"/><path d="M150.925 100.922l-.783-.384s.309.719.783.384z" fill="#263238"/><path d="M152.531 102.967s-.845 1.376-1.613 1.976c.379.503 1.184.446 1.184.446l.429-2.422z" fill="#FF5652"/><path d="M153.656 107.009c1.257 0 1.974-.748 2.008-.784a.103.103 0 00-.149-.141c-.009.009-.905.938-2.408.671a.103.103 0 00-.119.083.102.102 0 00.084.118 3.3 3.3 0 00.584.053zm10.148-2.929c-2.154 3.584-7.926-3.913-8.882-7.54-1.417.703-4.326 2.77-4.389 1.428-.063-1.341 4.905-3.666 7.552-3.254 2.647.412 7.205 6.896 5.719 9.366z" fill="#263238"/><path d="M162.764 106.172a3.137 3.137 0 01-1.7 1.69c-1.02.411-1.651-.473-1.468-1.499.164-.924.894-2.251 1.966-2.224 1.058.026 1.586 1.091 1.202 2.033z" fill="#FF8B7B"/><path d="M156.348 100.774a.204.204 0 00.182-.298c-.515-1.01-1.455-1.12-1.495-1.124a.205.205 0 10-.044.407c.031.004.762.097 1.174.903a.205.205 0 00.183.112zm-6.149-.678a.204.204 0 00.148-.063c.632-.66 1.375-.53 1.383-.529a.205.205 0 10.075-.403c-.039-.007-.971-.171-1.754.648a.204.204 0 00.148.347zm4.61 1.514l-.783-.384s.309.719.783.384z" fill="#263238"/><path d="M169.544 122.136a67.806 67.806 0 012.491 7.199c.691 2.45 1.298 4.931 1.59 7.563l.099.991.049 1.016.011.253.003.064.002.1-.008.272c-.029.36-.111.701-.225 1.004a4.297 4.297 0 01-.875 1.382c-.644.686-1.285 1.095-1.912 1.461-.626.363-1.253.635-1.873.889-2.488.978-4.941 1.522-7.49 1.875l-.503-2.133c2.235-.855 4.52-1.785 6.517-2.878.496-.273.967-.57 1.385-.867.414-.294.779-.624.948-.872.088-.121.106-.204.088-.187a.189.189 0 00-.036.101.141.141 0 00-.007.041l.001.01-.003-.026-.006-.052-.023-.208-.088-.83-.136-.847c-.084-.561-.217-1.137-.326-1.705-.14-.573-.255-1.145-.417-1.718a69.308 69.308 0 00-.975-3.438c-.727-2.274-1.53-4.59-2.376-6.787l4.095-1.673z" fill="#FF8B7B"/><path d="M167.645 117.511c1.761.535 3.875 6.597 3.875 6.597l-6.83 4.883s-2.49-5.06-1.751-7.336c.771-2.369 2.698-4.754 4.706-4.144z" fill="#263238"/></g></svg>