<svg width="150" height="110" fill="none" xmlns="http://www.w3.org/2000/svg"><path opacity=".32" d="M8 93.754C8 57.21 15 3.087 74.167 3.087c56.833 0 66.166 54.124 66.166 90.667H8z" fill="#69ADF7"/><path d="M42.977 59.56l1.893-1.338-1.809-3.752-2.225.648-2.509-2.912.97-2.105-3.442-2.344-1.603 1.674-3.628-1.268-.212-2.308-4.154-.31-.552 2.252-3.776.716-1.337-1.893-3.753 1.809.648 2.225-2.912 2.509-2.105-.97-2.345 3.442 1.675 1.604-1.268 3.628-2.308.212-.31 4.154 2.252.551.716 3.776-1.893 1.338 1.809 3.752 2.226-.648 2.508 2.912-.971 2.105 3.443 2.345 1.603-1.675 3.629 1.268.211 2.309 4.155.31.551-2.252 3.776-.717 1.338 1.894 3.752-1.81-.648-2.225 2.912-2.508 2.105.97 2.345-3.443-1.674-1.603 1.267-3.629 2.309-.211.309-4.154-2.252-.552-.716-3.776zM28.91 73.893a9.54 9.54 0 11-3.96-18.666 9.54 9.54 0 013.96 18.666z" fill="#A4BBF9" fill-opacity=".1"/><path d="M74.122 24.633l3.032-1.303-1.41-5.76-3.291.245-2.633-4.796 1.974-2.644-4.101-4.283-2.728 1.858-4.677-2.837.387-3.277L54.982.178 53.549 3.15l-5.47-.118L46.776 0l-5.76 1.41.245 3.291-4.796 2.632-2.644-1.973-4.283 4.101 1.858 2.727-2.837 4.678-3.277-.387-1.659 5.693 2.973 1.433-.119 5.47-3.031 1.303 1.41 5.76 3.29-.245 2.633 4.796-1.974 2.644 4.101 4.283 2.728-1.858 4.677 2.837-.387 3.277 5.693 1.659 1.434-2.973 5.469.119 1.303 3.031 5.76-1.41-.245-3.29 4.796-2.633 2.645 1.974 4.282-4.102-1.857-2.727 2.837-4.678 3.277.387 1.658-5.693-2.972-1.433.118-5.47zM50.3 40.435c-7.5 0-13.581-6.08-13.581-13.581 0-7.5 6.08-13.58 13.58-13.58 7.501 0 13.582 6.08 13.582 13.58S57.8 40.435 50.3 40.435z" fill="#A4BBF9" fill-opacity=".1"/><path d="M80.605 92.143c22.603 0 40.927-18.323 40.927-40.927s-18.324-40.928-40.927-40.928c-22.604 0-40.928 18.324-40.928 40.928 0 22.604 18.324 40.927 40.928 40.927z" stroke="#fff" stroke-opacity=".1" stroke-width="3.444" stroke-miterlimit="10" stroke-dasharray="13.78 13.78"/><path d="M143.664 57.334c.182 3.565-7.929 4.546-19.243 5.926-11.314 1.38-22.612 8.649-22.612 8.649s5.864-14.386 19.85-18.622c13.987-4.237 21.826.572 22.005 4.047z" fill="#82AD85"/><path d="M139.12 56.712s-22.954-4.368-37.311 15.197m36.153-17.869l-2.73 2.292 2.73 2.645" stroke="#fff" stroke-opacity=".1" stroke-width=".922" stroke-miterlimit="10" stroke-linecap="round"/><path d="M131.815 52.556l-3.915 4.1 5.251 3.708m-9.328-6.324l-2.538 4.026 3.938 3.702m-14.7 0l-.791 2.091 1.383 1.107" stroke="#fff" stroke-opacity=".1" stroke-width=".922" stroke-miterlimit="10" stroke-linecap="round"/><path d="M121.481 30.966c-.189-.652-6.86 1.781-6.86 1.781s.202 5.628-.434 5.71c-.635.081-4.455-2.848-4.455-2.848s-5.503 3.938-7.924 9.358c0 0 3.281 3.634 3.103 4.616-.178.982-6.325 2.005-6.325 2.005s-1.028 5.083-.737 9.513c0 0 3.053.956 3.053 1.401 0 .445-3.105 2.762-3.105 2.762s-.462 5.256.208 6.058c.67.801 6.46-2.228 6.46-2.228s.246-3.741.97-4.454c.723-.713 3.891 2.049 3.891 2.049s5.249-4.912 7.276-7.712c2.028-2.8 2.246-4.016 2.246-4.016s-4.828-2.439-4.661-3.373c.167-.934 7.294-2.005 7.294-2.005s1.069-5.486 1.069-8.666c0 0-4.544.364-4.811-.473-.267-.837 4.811-4.271 4.811-4.271s-.267-2.446-1.069-5.207z" fill="#8BBB90"/><path d="M119.878 32.748s-12.212 22.859-21.873 38.574" stroke="#fff" stroke-opacity=".1" stroke-width=".922" stroke-miterlimit="10" stroke-linecap="round"/><path d="M140.837 67.174c.103.564-8.299 13.307-22.151 14.242-13.852.936-19.769-6.357-19.769-6.357s6.693-9.258 17.925-11.203c11.232-1.943 23.841 2.477 23.995 3.318z" fill="#8BBB90"/><path d="M98.917 75.06s20.696-5.469 36.443-6.412m-3.877-2.768l-2.518 3.35 3.836 2.731" stroke="#fff" stroke-opacity=".1" stroke-width=".922" stroke-miterlimit="10" stroke-linecap="round"/><path d="M126.049 65.508l-2.974 4.532 5.09 4.98m-17.113-6.647l-2.413 4.387 2.674 4.595" stroke="#fff" stroke-opacity=".1" stroke-width=".922" stroke-miterlimit="10" stroke-linecap="round"/><path d="M118.693 79.915s-.076 2.766.443 4.621" stroke="#BA5454" stroke-width=".922" stroke-miterlimit="10" stroke-linecap="round"/><path d="M48.198 41.2c-.194-.544-.347-3.402-.347-3.402v-11.37a3.203 3.203 0 00-3.202-3.202H16.715a3.203 3.203 0 00-3.203 3.203v16.055a3.203 3.203 0 003.203 3.203h35.684S48.8 42.895 48.197 41.2z" fill="#69ADF7"/><path d="M24.437 33.707a2.559 2.559 0 10-3.618-3.62 2.559 2.559 0 003.618 3.62zm-6.109 6.242a4.301 4.301 0 018.602 0h-8.602zm25.454-8.051H29.146a.823.823 0 110-1.646h14.636a.823.823 0 110 1.646zm0 3.064H29.146a.823.823 0 110-1.646h14.636a.823.823 0 110 1.646zm-7.497 3.398h-7.14a.823.823 0 010-1.645h7.14a.823.823 0 010 1.645zm11.566-11.506H13.512v-.457a3.17 3.17 0 013.171-3.17H44.68a3.171 3.171 0 013.171 3.17v.457z" fill="#1F3E56"/><path d="M40.559 26.047a.882.882 0 100-1.765.882.882 0 000 1.765zm3.773-.882a.882.882 0 11-1.764 0 .882.882 0 011.764 0zm-6.664.882a.882.882 0 100-1.764.882.882 0 000 1.764z" fill="#fff" fill-opacity=".1"/><path d="M86.565 25.413H63.203a1.98 1.98 0 01-1.98-1.98v-7.725a1.98 1.98 0 011.98-1.98h23.362a1.98 1.98 0 011.98 1.98v7.725a1.98 1.98 0 01-1.98 1.98z" fill="#CC8C40"/><path d="M86.605 25.413h-22.33a1.94 1.94 0 01-1.94-1.939v-7.807a1.94 1.94 0 011.94-1.939h22.33a1.94 1.94 0 011.94 1.94v7.806a1.94 1.94 0 01-1.94 1.94z" fill="#F4B247"/><path d="M62.335 15.667s6.057 9.746 21.807 9.746H64.185a1.85 1.85 0 01-1.85-1.85v-7.896z" fill="#E5A345"/><path d="M81.996 13.728l4.46.903s1.355.322 1.355 1.826v8.534s.733-.521.733-1.517v-7.807s-.096-1.939-1.939-1.939h-4.609z" fill="#F2CD70"/><path d="M66.433 22.046v-5.179h1.045v2.038h2.05v-2.038h1.045v5.18h-1.045v-2.265h-2.05v2.264h-1.045zm5.221 0v-5.179h3.84v.876H72.7v1.149h2.6v.872h-2.6v1.41h2.893v.872h-3.939zm4.854 0V16.91h1.046v4.264h2.6v.873h-3.646zm4.392 0v-5.179h1.677c.636 0 1.05.026 1.243.078.298.078.546.247.746.507.2.26.3.596.3 1.008 0 .319-.058.585-.173.802a1.424 1.424 0 01-.44.51 1.51 1.51 0 01-.542.246c-.25.05-.611.075-1.085.075h-.681v1.953H80.9zm1.045-4.303v1.47h.573c.412 0 .687-.027.826-.082a.688.688 0 00.327-.254.698.698 0 00.118-.403.671.671 0 00-.166-.466.725.725 0 00-.42-.23c-.126-.023-.377-.035-.753-.035h-.505z" fill="#fff" fill-opacity=".1"/><path d="M95.123 17.528a4.254 4.254 0 100-8.509 4.254 4.254 0 000 8.509zm-2.628-9.692L89.92 2.687l2.812-.89.856 5.693-1.094.346zm8.219 2.818l5.513-1.657.397 2.922-5.755-.127-.155-1.138zM97.437 7.63l2.118-5.352 2.538 1.5-3.668 4.436-.988-.584z" fill="#A4BBF9" fill-opacity=".1"/><path d="M150 106.324H0L9.557 93.94h130.886L150 106.324zm-3.395 3.395H3.395A3.395 3.395 0 010 106.324h150a3.395 3.395 0 01-3.395 3.395z" fill="#8CB0FF"/><path d="M62.7 71.16l-3.705 2.499s-.176-10.694.11-16.94c.284-6.244.69-9.14.985-10.533.294-1.392.782-2.347 9.977-3.045L62.7 71.16z" fill="#151230"/><path d="M62.7 71.16c.203-7.073 1.064-19.533 1.282-22.484.217-2.951-1.15-6.398 18.89-6.248 20.041.15 19.694-.192 19.845 7.867.151 8.059.735 21.457.735 21.457s-9.036 1.69-18.756 2.497c-9.72.805-21.996-3.089-21.996-3.089z" fill="#211944"/><path d="M67.372 57.88s18.487-1.322 31.915-.72" stroke="#fff" stroke-opacity=".1" stroke-width=".922" stroke-miterlimit="10" stroke-linecap="round"/><path d="M78.063 61.492s-2.824.546-4.692 1.082c-1.87.535-6.462 2.715-8.478 8.102-2.016 5.386-6.48 24.288-6.48 24.288s14.192 2.33 26.508 2.276c12.316-.054 24.197-3.347 24.197-3.347s-6.47-21.225-7.714-24.707c-1.244-3.482-4.118-6.563-7.705-7.381-3.586-.819-5.608-1-5.608-1l-10.028.687z" fill="#407BFF"/><path d="M81.175 32.156c-3.992.537-7.57 4.147-6.893 11.991.678 7.845 3.515 11.166 8.96 11.295 5.445.129 8.133-6.354 7.548-13.043-.586-6.688-3.14-11.112-9.615-10.243z" fill="#E4897B"/><path d="M74.235 43.482s-1.087.543-1.269-.442c-.181-.985-.641-5.849.102-8.212.743-2.364 2.414-3.5 4.767-3.993 2.352-.492 11.317-1.515 12.828 1.392 1.511 2.906 1.304 9.596 1.304 9.596s-.358.887-1.177.576c0 0-.465-10.533-8.192-10.35-7.941.19-8.467 7.98-8.363 11.433z" fill="#1F3E56"/><path d="M82.745 41.808s.815 3.907.816 4.547c.002.64-.71 1.151-.71 1.151" stroke="#BA5454" stroke-width=".922" stroke-miterlimit="10" stroke-linecap="round"/><path d="M79.452 49.252l6.31.504s-.909 2.367-3.337 2.016c-2.416-.35-2.973-2.52-2.973-2.52z" fill="#fff" fill-opacity=".1"/><path d="M79.717 43.742a.658.658 0 11-1.303-.183.658.658 0 011.303.183z" fill="#1F3E56"/><path d="M78.132 41.665s.561-.697 1.922-.324" stroke="#1F3E56" stroke-width="2.296" stroke-miterlimit="10" stroke-linecap="round"/><path d="M76.129 44.966s1.256.157 2.02.721" stroke="#BA5454" stroke-width=".922" stroke-miterlimit="10" stroke-linecap="round"/><path d="M73.6 41.253s-.532-6.425.879-8.01c1.959-2.2 3.356-2.408 3.356-2.408s.258-.867.44-1.152c0 0-4.167.977-5.138 3.92-.97 2.943-.34 8.01-.34 8.01l.804-.36zm17.76-.936s-.186-6.445-1.764-7.862c-2.192-1.969-3.603-2.02-3.603-2.02s-.354-.834-.566-1.096c0 0 4.25.508 5.542 3.324 1.292 2.817 1.23 7.923 1.23 7.923l-.84-.269z" fill="#85AAFF"/><path d="M74.284 41.214s-1.97-.313-2.505 2.167c-.534 2.48.665 5.22 3.105 4.666 0 0-.817-2.934-.6-6.833z" fill="#85AAFF"/><path opacity=".27" d="M71.671 44.152s2.145.864 3.213 3.894c0 0-3.303.678-3.213-3.894z" fill="#85AAFF"/><path d="M90.519 40.16s1.926-.521 2.723 1.887c.797 2.408-.1 5.262-2.585 4.972 0 0 .497-3.005-.138-6.858z" fill="#85AAFF"/><path opacity=".27" d="M93.433 42.802s-2.04 1.09-2.776 4.217c0 0 3.357.318 2.776-4.217z" fill="#85AAFF"/><path d="M73.58 47.949s-.123-.659-.998-.626c0 0-1.13 3.937.815 5.007 1.945 1.069 7.048.444 7.048.444l.133-.945s-4.489.208-6.174-.364c-1.685-.571-.823-3.516-.823-3.516z" fill="#85AAFF"/><path d="M80.486 50.877c-.67.24-1.079.588-1.061.984.017.395-.06 1.644.91 1.695.971.052 3.05.176 3.63-.078.58-.254.716-2.414-.117-2.447-.834-.033-2.84-.341-3.362-.154z" fill="#85AAFF"/><path d="M79.053 54.437l-.99 7.055s2.562 1.743 5.42 1.39c2.857-.354 4.608-2.078 4.608-2.078l-1.243-6.44-7.795.073z" fill="#E4897B"/><path d="M79.053 54.437s1.595 1.072 4.189 1.005c2.593-.067 3.606-1.078 3.606-1.078l.37 1.918s-1.524 1.295-4.089 1.354c-2.564.059-4.357-1.198-4.357-1.198l.281-2z" fill="#FFB573"/><path d="M114.472 44.676c-.755.426-.729 1.497-.375 2.671.354 1.174 1.518 6.742 1.518 6.742s.438 3.65 1.234 4.453c0 0 1.963 21.05 1.844 21.373-.12.323-5.486-3.611-5.486-3.611l-5.795 11.764s8.28 9.005 16.748 5.606c8.467-3.398 4.534-20.175 3.076-26.658-1.458-6.482-2.342-8.09-2.342-8.09s.868-.91.615-2.795c-.254-1.886-1.812-6.026-2.012-6.202-.2-.176-6.51-.554-6.51-.554s-.817-2.615-1-3.42c-.183-.805-1.135-1.494-1.515-1.28zM54.873 78.42l8.702 6.51s-6.009 10.694-9.603 10.61c-3.594-.084-6.486-2.594-6.083-6.323.403-3.729 6.984-10.798 6.984-10.798z" fill="#E4897B"/><path d="M58.591 84.47s16.07 4.54 21.02 5.655c4.952 1.115 8.436 1.124 11.775 3.455 3.338 2.332 3.923 4.157 2.966 4.984 0 0-1.058 1.113-2.12.123 0 0-.52.708-1.49.332-.968-.376-1.644-1.553-2.974-1.5-1.33.054-1.381 1.37-5.002 1.221-3.622-.147-28.847-2.011-31.25-3.674-2.401-1.663-1.83-10.524 7.075-10.596z" fill="#E4897B"/><path d="M89.792 95.636s2.013 1.388 2.44 3.051m-.643-3.824s2.207 2.051 2.763 3.701" stroke="#BA5454" stroke-width=".922" stroke-miterlimit="10" stroke-linecap="round"/><path d="M54.21 77.922l9.743 7.3s9.637-16.239 9.418-22.648c0 0-4.099.606-8.768 4.911-4.67 4.305-10.393 10.437-10.393 10.437zm41.889-15.187s7.701 4.385 17.583 12.78l-6.27 12.553S94.778 71.72 93.733 67.558c-1.045-4.162 2.366-4.823 2.366-4.823z" fill="#407BFF"/><path d="M77.773 31.26c.125-1.604 1.251-2.726 2.612-3.631 1.361-.906 2.968-.955 3.174-.469.206.486-.157 1.12-.157 1.12s3.478-1.66 5.056-.204c1.578 1.456 1.737 3.9 1.387 4.445-.351.545-2.158-.257-2.158-.257s1.158 2.493-.28 3.297c-1.438.804-4.366-.155-5.606-2.386 0 0-4.285 1.39-4.028-1.914zm8.135 12.482a.658.658 0 101.303-.183.658.658 0 00-1.303.183z" fill="#1F3E56"/><path d="M87.494 41.665s-.562-.697-1.923-.324" stroke="#1F3E56" stroke-width="2.296" stroke-miterlimit="10" stroke-linecap="round"/><path d="M88.865 44.966s-1.255.157-2.02.721" stroke="#BA5454" stroke-width=".922" stroke-miterlimit="10" stroke-linecap="round"/><path d="M115.615 54.089c-.848-.331-1.227 3.728.786 3.644 2.014-.083 4.891-1.603 5.075-2.39.185-.789-2.439-1.069-3.474-1.073-1.036-.004-1.448.185-2.387-.181z" fill="#E4897B"/><path d="M115.615 54.089s.525.259 1.372.22c.847-.038 3.432-.116 4.394.71.961.825-2.962 2.287-2.962 2.287" stroke="#BA5454" stroke-width=".922" stroke-miterlimit="10" stroke-linecap="round"/><path d="M100.481 73.692h-1.524a3.355 3.355 0 00-3.282 2.66l-5.354 25.245h4.14l6.02-27.905z" fill="#151230"/><path d="M135.055 101.597H92.229l5.096-25.32a3.22 3.22 0 013.156-2.585h36.257a3.22 3.22 0 013.157 3.855l-4.84 24.05z" fill="#211944"/><path d="M92.23 101.597H73.05a2.503 2.503 0 01-2.503-2.503v-.347h22.256l-.573 2.85z" fill="#151230"/><path d="M117.566 93.014a3.801 3.801 0 100-7.603 3.801 3.801 0 000 7.603z" fill="#6B94F7"/><path d="M116.987 49.375s.882 5.313 1.66 5.57c.777.257 3.494.127 4.536.062 1.042-.064 2.002-.533 1.876-1.842-.128-1.32-.98-3.831-2.052-4.105-1.071-.273-5.94-1.312-6.02.315z" fill="#EC6B65"/><path d="M118.928 48.482l1.726 6.616m.755-6.371l1.594 6.291m-5.887-4.918s.71 4.004 1.303 4.638c.593.634 4.764.27 4.764.27" stroke="#BA5454" stroke-width=".922" stroke-miterlimit="10" stroke-linecap="round"/><path d="M48.416 73.356H20.021s-1.256.113-1.256 6.637v20.28h25.628s1.878-.521 1.878-5.872V78.913c0-1.268.08-5.557 2.145-5.557z" fill="#6B94F7"/><path d="M48.417 73.356c.676 0 .827 2.774.827 4.352v3.684H46.27v-2.48s-.185-5.556 2.146-5.556z" fill="#5A80CC"/><path d="M41.575 80.691h-18.79a.602.602 0 01-.603-.602v-.125c0-.332.27-.602.602-.602h18.791c.333 0 .602.27.602.602v.125c0 .333-.27.602-.602.602zm0 4.429h-18.79a.602.602 0 01-.603-.602v-.125c0-.333.27-.602.602-.602h18.791c.333 0 .602.27.602.602v.125c0 .333-.27.602-.602.602zm0 4.429h-18.79a.602.602 0 01-.603-.602v-.125c0-.333.27-.602.602-.602h18.791c.333 0 .602.27.602.602v.125c0 .332-.27.602-.602.602zm0 4.429h-18.79a.602.602 0 01-.603-.602v-.125c0-.333.27-.602.602-.602h18.791c.333 0 .602.27.602.602v.125c0 .332-.27.602-.602.602z" fill="#1F3E56"/><path d="M15.116 92.893h26.535s-.604 7.38 2.743 7.38H18.765s-3.649-.69-3.649-7.38z" fill="#80AAFF"/><path d="M118.18 25.432h-16.749a2.153 2.153 0 00-2.153 2.153v7.082c-.531 2.85-4.29 6.055-4.29 6.055 4.352-.18 6.91-1.217 6.91-1.217h16.283a2.153 2.153 0 002.153-2.153v-9.767a2.154 2.154 0 00-2.154-2.153z" fill="#fff" fill-opacity=".1"/><path d="M110.922 32.529a1.409 1.409 0 11-2.818-.001 1.409 1.409 0 012.818 0zm4.618 0a1.409 1.409 0 11-2.818-.001 1.409 1.409 0 012.818 0zm-10.645 1.408a1.409 1.409 0 100-2.818 1.409 1.409 0 000 2.818z" fill="#1F3E56"/></svg>