<svg width="180" height="121" fill="none" xmlns="http://www.w3.org/2000/svg"><path d="M180.166 105.397H-.167v.09h180.333v-.09z" fill="#5D6B82"/><path d="M39.827 108.331h-2.284v.09h2.284v-.09z" fill="#EBEBEB"/><path d="M93.009 105.398h10.419V69.842h-10.42v35.556z" fill="#243757"/><path d="M94.988 105.397h-1.98v-3.296h4.055l-2.075 3.296z" fill="#F0F0F0"/><path d="M152.457 105.398h10.419V69.842h-10.419v35.556z" fill="#42526D"/><path d="M93.01 104.533h61.175v-34.69H93.009v34.69z" fill="#7A8699"/><path d="M134.016 71.903v30.706h18.134V71.903h-18.134z" fill="#6B788E"/><path d="M141.289 73.662h3.588c1.558 0 3.048-.716 4.12-1.98h-11.828c1.072 1.264 2.562 1.98 4.12 1.98z" fill="#7A8699"/><path d="M114.529 71.903v30.706h18.135V71.903h-18.135z" fill="#243757"/><path d="M121.619 73.662h3.588c1.558 0 3.048-.716 4.12-1.98h-11.828c1.072 1.264 2.562 1.98 4.12 1.98z" fill="#F0F0F0"/><path d="M95.043 71.903v30.706h18.134V71.903H95.043z" fill="#243757"/><path d="M102.133 73.662h3.587c1.559 0 3.049-.716 4.12-1.98H98.013c1.072 1.264 2.562 1.98 4.12 1.98z" fill="#F0F0F0"/><path d="M152.206 105.397h1.979v-3.296h-4.054l2.075 3.296z" fill="#42526D"/><path d="M27.48 60.598h69.906V3.585H27.48v57.013z" fill="#E6E6E6"/><path d="M25.907 60.598h70.795V3.585H25.907v57.013z" fill="#7A8699"/><path d="M93.879 57.863V6.32H28.73v51.542h65.15z" fill="#8993A4"/><path d="M29.03 57.863V6.32h-.3v51.542h.3z" fill="#243757"/><path d="M24.72.066h75.736c.2 0 .364.157.364.35a.358.358 0 01-.364.348H24.721a.358.358 0 01-.365-.349c0-.192.164-.349.365-.349z" fill="#505F79"/><path d="M97.386 2.369c.27 0 .492-.213.492-.471V.886a.482.482 0 00-.492-.47.483.483 0 00-.492.47v1.012c0 .259.221.47.492.47zm-67.172 0c.27 0 .492-.213.492-.471V.886a.482.482 0 00-.492-.47.483.483 0 00-.492.47v1.012c0 .259.221.47.492.47z" fill="#505F79"/><path d="M56.787 105.397h1.817v-28.55h-1.817v28.55z" fill="#F5F5F5"/><path d="M25.805 105.397h1.817v-28.55h-1.817v28.55zM68.446 71.29h-9.842v5.557h9.842V71.29zM19.51 76.846h39.094V71.29H19.51v5.556zm48.936 3.455h-9.842v5.556h9.842v-5.556z" fill="#354764"/><path d="M19.51 85.857h39.094V80.3H19.51v5.556zm48.937 3.454h-9.843v5.557h9.843v-5.556zM19.51 94.868h39.094v-5.556H19.51v5.556z" fill="#354764"/><path d="M64.897 105.397h1.817v-28.55h-1.817v28.55zm-45.386 0h1.817v-28.55h-1.817v28.55z" fill="#354764"/><path opacity=".5" d="M90 121c38.62 0 69.929-1.751 69.929-3.912 0-2.16-31.309-3.911-69.93-3.911-38.62 0-69.928 1.751-69.928 3.911C20.07 119.249 51.379 121 90 121z" fill="#262626"/><path d="M142.661 101.405H84.086c-2.468 0-4.333-1.934-4.145-4.298L87.118 7.02c.188-2.363 2.36-4.297 4.828-4.297h58.575c2.468 0 4.333 1.934 4.145 4.297l-7.176 90.086c-.189 2.364-2.362 4.298-4.829 4.298z" fill="#5878C3"/><path opacity=".5" d="M142.661 101.405H84.086c-2.468 0-4.333-1.934-4.145-4.298L87.118 7.02c.188-2.363 2.36-4.297 4.828-4.297h58.575c2.468 0 4.333 1.934 4.145 4.297l-7.176 90.086c-.189 2.364-2.362 4.298-4.829 4.298z" fill="#fff"/><path d="M141.788 101.405H83.213c-2.467 0-4.332-1.934-4.144-4.298L86.245 7.02c.188-2.363 2.361-4.297 4.829-4.297h58.575c2.467 0 4.332 1.934 4.144 4.297l-7.176 90.086c-.188 2.364-2.361 4.298-4.829 4.298z" fill="#5878C3"/><path opacity=".7" d="M141.788 101.405H83.213c-2.467 0-4.332-1.934-4.144-4.298L86.245 7.02c.188-2.363 2.361-4.297 4.829-4.297h58.575c2.467 0 4.332 1.934 4.144 4.297l-7.176 90.086c-.188 2.364-2.361 4.298-4.829 4.298z" fill="#243757"/><path d="M83.328 99.971c-1.65 0-2.889-1.285-2.763-2.865l7.081-88.892c.126-1.58 1.57-2.865 3.22-2.865h58.574c1.649 0 2.889 1.285 2.763 2.865l-7.081 88.892c-.126 1.58-1.57 2.865-3.219 2.865H83.328z" fill="#15294B"/><path opacity=".2" d="M141.491 20.302H99.573c-.975 0-1.712-.764-1.638-1.698.074-.934.933-1.698 1.908-1.698h41.918c.976 0 1.712.764 1.638 1.698-.074.934-.933 1.698-1.908 1.698z" fill="#000"/><path opacity=".3" d="M123.608 4.474h-6.771a.39.39 0 01-.403-.418.472.472 0 01.469-.418h6.772a.39.39 0 01.403.418.473.473 0 01-.47.418z" fill="#5878C3"/><path d="M99.39 18.604c.207-2.598-1.825-4.699-4.532-4.699h42.556c2.707 0 4.739 2.102 4.532 4.7H99.39z" fill="#8993A4"/><path d="M94.857 13.905c-2.707 0-5.073 2.102-5.28 4.7L85.215 73.35c-.207 2.598-2.574 4.7-5.28 4.7h42.555c2.707 0 5.074-2.102 5.281-4.7l4.36-54.746c.207-2.598 2.574-4.699 5.281-4.699H94.857z" fill="#DFE2E6"/><path d="M117.959 73.35c-.207 2.598 1.825 4.7 4.532 4.7H79.935c-2.707 0-4.739-2.102-4.532-4.7h42.556z" fill="#98A1B0"/><path d="M93.05 72.27c.159-2.001-.497-3.62-2.581-3.62h32.771c2.084 0 3.653 1.828 2.581 3.62H93.049z" fill="#8993A4"/><path d="M117.959 73.35c.207-2.598 2.573-4.7 5.28-4.7H80.683c-2.707 0-5.074 2.102-5.28 4.7h42.556z" fill="#98A1B0"/><path d="M138.081 86.922H89.227c-.708 0-1.243-.555-1.19-1.233.055-.679.678-1.234 1.387-1.234h48.854c.708 0 1.243.555 1.189 1.234-.054.678-.677 1.233-1.386 1.233zm-24.67 5.93H88.755c-.708 0-1.243-.555-1.19-1.234.055-.678.678-1.233 1.387-1.233h24.655c.709 0 1.244.555 1.19 1.233-.054.679-.678 1.234-1.386 1.234zm17.069 0h-9.987c-.708 0-1.243-.555-1.189-1.234.054-.678.677-1.233 1.386-1.233h9.987c.708 0 1.243.555 1.189 1.233-.054.679-.678 1.234-1.386 1.234zm9.988-23.459l-2.549.383c-.102-.307-.199-.52-.291-.64-.092-.118-.251-.238-.476-.36l-.149 1.877c1.344.35 2.231.72 2.66 1.11.568.523.819 1.187.755 1.991a2.781 2.781 0 01-.432 1.298 3.59 3.59 0 01-.917.986 3.762 3.762 0 01-1.133.574c-.393.12-.868.19-1.425.211l-.097 1.226h-.988l.097-1.226c-.659-.056-1.189-.159-1.59-.308a2.975 2.975 0 01-1.02-.619 2.725 2.725 0 01-.626-.852 3.637 3.637 0 01-.277-1.106l2.759-.305c.047.428.132.737.254.928.123.19.336.359.64.505l.183-2.29c-.893-.243-1.522-.453-1.889-.63-.368-.178-.676-.462-.924-.854-.249-.391-.351-.868-.306-1.43.061-.77.393-1.414.997-1.931.603-.517 1.461-.803 2.576-.86l.051-.642h.989l-.052.642c1.006.06 1.761.29 2.264.688.503.398.808.943.916 1.634zm-4.301-.648c-.296.091-.506.204-.63.339a.782.782 0 00-.207.475.727.727 0 00.132.499c.104.14.294.259.572.354l.133-1.667zm.479 6.386c.39-.082.682-.218.875-.406a.985.985 0 00.318-.634.778.778 0 00-.182-.563c-.136-.172-.418-.33-.845-.478l-.166 2.081z" fill="#fff"/><path d="M92.426 29.144h1.214l-.3 3.752h-1.213l.3-3.752zm2.089 0h1.13l1.309 2.076.165-2.076h1.14l-.298 3.752H96.82l-1.303-2.06-.164 2.06h-1.138l.3-3.752zm4.165 0h1.264l.667 2.7 1.085-2.7h1.228l-1.753 3.752h-1.312l-1.18-3.752zm4.151 1.878c.048-.612.264-1.089.648-1.43.383-.341.893-.511 1.529-.511.651 0 1.14.167 1.466.502.326.335.465.805.417 1.409-.035.438-.141.798-.317 1.078-.177.28-.417.5-.72.655-.304.156-.673.234-1.107.234-.442 0-.802-.067-1.081-.202a1.446 1.446 0 01-.653-.64c-.156-.291-.217-.656-.182-1.095zm1.209.006c-.03.378.022.65.156.816.134.165.327.248.58.248.26 0 .468-.08.623-.243.155-.162.25-.453.283-.873.028-.353-.025-.611-.161-.774-.136-.163-.331-.244-.586-.244a.811.811 0 00-.607.248c-.161.166-.257.44-.288.822zm3.699-1.884h1.213l-.299 3.752h-1.214l.3-3.752zm4.511 2.216l1.036.307a2.012 2.012 0 01-.393.714c-.169.191-.37.336-.605.433-.235.097-.528.146-.879.146-.425 0-.768-.06-1.029-.178-.26-.118-.476-.327-.648-.625-.172-.298-.24-.68-.203-1.146.049-.62.26-1.097.631-1.43.371-.334.872-.5 1.502-.5.494 0 .874.095 1.141.287.267.19.453.484.559.88l-1.087.227a.773.773 0 00-.098-.25.608.608 0 00-.232-.205.706.706 0 00-.323-.071.784.784 0 00-.655.316c-.123.157-.198.403-.225.739-.033.416.01.7.13.855.119.154.298.231.537.231.232 0 .412-.062.54-.187.129-.125.229-.306.301-.543zm1.823-2.216h3.243l-.064.801h-2.03l-.048.596h1.883l-.061.766h-1.883l-.059.74h2.089l-.068.849h-3.301l.299-3.752zm12.846 8.596H91.741l.075-.935h35.177l-.074.935z" fill="#407BFF"/><path d="M126.919 37.74H91.741l-.228 2.86h35.178l.228-2.86zm-.456 5.723H91.285l-.228 2.861h35.178l.228-2.861zm-.456 5.723H90.829l-.227 2.86h35.177l.228-2.86zm-.456 5.722H90.374l-.228 2.862h35.177l.228-2.862z" fill="#F0F0F0"/><path d="M125.021 61.566H89.843l.075-.936h35.177l-.074.936z" fill="#407BFF"/><path d="M120.996 20.302h7.312l-.333 4.179h-7.311l.332-4.179z" fill="#F0F0F0"/><path d="M49.31 46.878l1.307.503a2.93 2.93 0 011.212.868l.599.727a1.231 1.231 0 01-.044 1.627l-.637.696a1.37 1.37 0 01-1.888.106l-.61-.526s-1.876-1.262-2.427-2.929l.362-.346c.59-.565 1.371-.832 2.126-.726z" fill="#FFB573"/><path d="M52.89 34.757l-.426.269-.474.311c-.315.215-.63.434-.94.662-.614.458-1.215.931-1.771 1.434-1.122.998-2.097 2.093-2.79 3.256-.089.145-.17.292-.245.44l-.06.11c.013-.027.032-.107.04-.14a.503.503 0 00.007-.176c-.035-.1-.038.16.043.416.161.547.494 1.243.864 1.914.742 1.36 1.675 2.76 2.552 4.14l.023.035c.364.573.175 1.32-.423 1.668a1.315 1.315 0 01-1.436-.077 23.572 23.572 0 01-2.063-1.736 23.342 23.342 0 01-1.88-1.965c-.591-.72-1.17-1.459-1.658-2.463a6.267 6.267 0 01-.337-.85 4.042 4.042 0 01-.187-1.163 3.268 3.268 0 01.225-1.233l.07-.178c.09-.238.19-.471.296-.7.847-1.839 2.078-3.392 3.438-4.73a21.831 21.831 0 013.335-2.676c.202-.13.403-.26.613-.384l.32-.187.367-.202c1.205-.668 2.748-.272 3.444.883.67 1.111.314 2.52-.789 3.22l-.159.102z" fill="#FFB573"/><path d="M52.93 29.277c-2.107.011-4.414.874-7.372 4.386 0 2.097 4.62 4.885 4.62 4.885s7.576-9.298 2.753-9.271zm-15.647 83.045a.34.34 0 01-.111-.019c-.438-.147-.85-1.213-.876-1.804a.097.097 0 01.056-.091.106.106 0 01.11.012c.046.036 1.134.889 1.186 1.462a.394.394 0 01-.1.312.359.359 0 01-.265.128zm-.757-1.592c.1.562.434 1.296.713 1.39.04.014.09.018.157-.054a.209.209 0 00.05-.167c-.03-.337-.566-.865-.92-1.169z" fill="#263238"/><path d="M37.96 111.054c-.506 0-1.236-.234-1.618-.478a.095.095 0 01-.044-.097.1.1 0 01.074-.078c.057-.015 1.418-.354 1.932-.055.11.063.178.151.204.26.036.151-.01.277-.13.356-.097.064-.245.092-.419.092zm-1.288-.521c.532.255 1.348.429 1.592.269.035-.024.068-.06.046-.153a.216.216 0 00-.111-.137c-.302-.175-1.063-.073-1.527.021z" fill="#263238"/><path d="M32.561 110.267c.61-.712 1.636-1.662 2.691-3.659 0 0 3.345.788 2.688 1.713-1.191 1.677-1.773 5.119-.237 6.965.877 1.054-.51 1.228-1.426.777-1.457-.717-1.396-.984-2.152-2.17-.648-1.014-.903-1.411-1.794-1.845-.744-.362-.382-1.066.23-1.781z" fill="#407BFF"/><path d="M60.945 50.101s-4.855 22.663-8.404 32.342c-3.729 10.165-14.024 25.849-14.42 26.523-1.464-.374-2.769-.865-3.639-1.679 0 0 4.833-17.014 9.546-28.051 1.788-23.041 5.73-29.135 5.73-29.135h11.187z" fill="#263238"/><path opacity=".2" d="M53.538 62.226c-.22 4.384-.371 10.412-.155 17.75 1.483-4.574 3.095-10.775 4.451-16.34-.905-1.158-2.312-1.714-4.296-1.41z" fill="#000"/><path d="M53.831 22.31c.51 1.97 1.007 5.185.196 6.896 0 0 3.037.129 6.918 3.098 1.827-2.571-.288-3.076-.288-3.076-1.613-.363-1.534-2.42-1.531-3.886L53.83 22.31z" fill="#FFB573"/><path d="M53.067 30.102c-1.515-.16-.467-2.917.32-2.648 1.99.678 6.454-.077 7.835.652 1.38.73 1.032 2.226 1.032 2.226s-7.555-.057-9.187-.23z" fill="#407BFF"/><path opacity=".7" d="M53.067 30.102c-1.515-.16-.467-2.917.32-2.648 1.99.678 6.454-.077 7.835.652 1.38.73 1.032 2.226 1.032 2.226s-7.555-.057-9.187-.23z" fill="#fff"/><path d="M61.904 18.832c.05.264.235.453.415.422.18-.03.286-.27.238-.533-.05-.263-.235-.453-.415-.422-.18.03-.286.27-.238.533z" fill="#263238"/><path d="M62.065 18.327l.628-.295s-.248.553-.628.295zm.208-1.603a.151.151 0 00.015-.116.165.165 0 00-.201-.112c-.879.224-1.124.911-1.134.941a.156.156 0 00.105.199.167.167 0 00.207-.1c.01-.027.208-.557.906-.735a.165.165 0 00.102-.077z" fill="#263238"/><path d="M62.23 19.473s.598 1.1 1.178 1.601c-.332.365-.973.278-.973.278l-.205-1.879z" fill="#ED893E"/><path d="M52.491 18.697c.803 3.204 1.072 4.577 3.055 5.956 2.982 2.073 6.835.437 7.028-2.93.174-3.032-1.168-7.763-4.652-8.502-3.433-.727-6.233 2.271-5.43 5.476z" fill="#FFB573"/><path d="M58.975 19.286c1.97-2.494 3.256-4.51 2.283-6.717-.812-1.845-3.058-1.305-3.371-.384-5.975-.489-8.12 1.584-6.886 5.014.785 2.185-2.266 1.052-1.523 3.827.57 2.128-1.44 2.94-.42 4.163 1.472 1.765 4.508-.538 7.974.787 2.836 1.083 7.097-.557 1.944-6.69z" fill="#263238"/><path d="M58.655 19.79c.389.588.975.915 1.496.988.785.11 1.054-.732.733-1.514-.288-.703-1.044-1.607-1.782-1.356-.727.247-.89 1.212-.447 1.883z" fill="#FFB573"/><path d="M59.82 114.435c-.5 0-1.322-.381-1.706-.713a.093.093 0 01-.028-.101.099.099 0 01.085-.067c.059-.007 1.457-.152 1.92.215a.4.4 0 01.162.286c.012.154-.052.273-.182.334a.59.59 0 01-.25.046zm-1.373-.708c.488.326 1.27.612 1.534.487.039-.018.078-.049.07-.144a.21.21 0 00-.09-.151c-.272-.216-1.04-.22-1.514-.192z" fill="#263238"/><path d="M58.182 113.748a.104.104 0 01-.082-.04.095.095 0 01-.006-.106c.03-.049.73-1.216 1.313-1.359a.437.437 0 01.337.043c.137.081.2.201.174.338-.08.437-1.11 1-1.715 1.122l-.02.002zm1.346-1.326a.264.264 0 00-.07.01c-.343.083-.8.675-1.055 1.058.563-.185 1.264-.621 1.316-.9.007-.04.003-.089-.082-.139a.215.215 0 00-.108-.029z" fill="#263238"/><path d="M62.5 115.648c-2.921-.216-4.89-2.137-4.683-4.173.114-1.123-3.632-1.223-3.632-1.223.593 3.481-.151 3.977-.395 4.876-.246.903-.185 1.893.59 1.911.928.023 1.36-.147 2.513-.104 1.348.05 2.806.101 5.202.104.958.002 1.704-1.294.405-1.391z" fill="#407BFF"/><path d="M65.994 50.101s-.254 17.164-1.669 28.444c-1.415 11.28-6.277 33.403-6.277 33.403-1.406.261-2.722.304-3.885-.034 0 0-1.536-17.283 1.045-33.984-1.896-17.503-3.082-27.829-3.082-27.829h13.868z" fill="#263238"/><path d="M66.657 34.222c-.06 1.327 2.126 4.393-.572 6.17.504 1.08.93 8.4-.091 9.708-1.49 1.049-9.55.845-16.235 0-.283-2.646 1.238-8.129-.625-16.677-.432-1.982 1.023-3.886 3.127-4.089.561-.054 1.157-.1 1.766-.128 2.37-.109 4.311-.181 6.394 0 .69.061 1.404.145 2.086.236 2.459.331 4.259 2.404 4.15 4.78z" fill="#407BFF"/><g opacity=".3" fill="#263238"><path d="M49.305 32.962c-.05.026-.101.053-.152.078h-.001l-.001.001a.087.087 0 00-.038.12c.025.044.08.06.126.037l.163-.088c.716.253 1.492.825 1.936.884-.715-.605-1.23-1.039-1.794-.96.17-.095.337-.195.501-.297.658.235 1.37.759 1.778.813-.663-.562-1.14-.962-1.664-.883.124-.079.247-.159.369-.24.069-.047.136-.095.204-.143.593.247 1.222.77 1.595.84-.596-.567-1.018-.966-1.523-.889.157-.112.313-.228.466-.345.544.228 1.121.706 1.463.771-.547-.52-.936-.889-1.4-.82.13-.101.261-.204.39-.309l.092-.077c.48.24.957.718 1.27.805-.454-.522-.77-.884-1.248-.824.124-.103.246-.206.367-.312.441.223.88.661 1.167.741-.417-.48-.708-.812-1.145-.76.128-.112.254-.226.379-.341.386.227.754.642 1.01.728-.347-.454-.59-.77-.984-.754.069-.063.136-.126.203-.19l.116-.114c.355.21.695.592.931.671-.32-.419-.545-.71-.907-.694.105-.104.208-.21.31-.317.326.168.632.49.85.55-.288-.354-.489-.599-.835-.565l.056-.059c.074-.08.147-.16.218-.24.297.155.575.445.773.501-.26-.322-.444-.546-.755-.523a3.79 3.79 0 00.24-.305.028.028 0 00-.008-.039.03.03 0 00-.041.007c-.07.097-.148.19-.228.28.03-.154-.03-.3-.131-.457l-.124.007c.066.158.15.336.197.512-.064.07-.13.14-.196.209l-.048.048c.069-.25-.067-.467-.278-.746l-.066.006c.056.213.225.506.296.788-.095.095-.191.19-.29.282.092-.318-.137-.6-.46-.996.015.238.304.651.42 1.035l-.103.096c-.065.06-.132.12-.198.178.091-.34-.154-.644-.502-1.07.017.256.327.701.453 1.115-.114.101-.23.201-.347.3.076-.344-.163-.68-.493-1.14.001.274.293.76.41 1.209-.094.078-.189.156-.285.233.084-.375-.176-.74-.534-1.24.002.296.317.824.445 1.311l-.075.06c-.132.104-.265.204-.399.303.106-.382-.143-.814-.484-1.402-.027.319.27.94.367 1.489-.151.109-.304.216-.459.32.174-.433-.106-.92-.5-1.598-.029.355.31 1.055.406 1.66l-.135.09c-.143.092-.287.18-.432.268.2-.439-.042-.958-.396-1.664-.016.025-.035.049-.05.074.027.416.277 1.08.333 1.657a12.68 12.68 0 01-.489.271c.188-.365.082-.781-.15-1.3a3.255 3.255 0 00-.126.45c.073.299.147.611.174.903zm9.215-2.395c-.545-.334-1.08-.945-1.436-1.071.494.65.845 1.108 1.357 1.109a16.47 16.47 0 00-.517.27c-.5-.308-.99-.868-1.318-.984.455.597.778 1.02 1.248 1.021-.146.08-.292.163-.436.247l-.104.062c-.435-.311-.826-.855-1.12-.988.36.584.613.99 1.094 1.003a17.45 17.45 0 00-.412.252c-.4-.287-.76-.786-1.03-.909.331.538.564.91 1.004.924-.145.092-.288.185-.43.28-.344-.283-.64-.749-.878-.873.268.501.456.85.847.894-.078.052-.156.104-.232.158l-.133.094c-.316-.26-.588-.69-.808-.804.247.462.42.784.781.823-.12.087-.24.174-.358.265-.295-.214-.543-.579-.749-.672.226.393.383.666.731.685l-.065.05a11.24 11.24 0 00-.255.205c-.267-.199-.494-.528-.68-.613.204.357.348.606.658.63a4.242 4.242 0 00-.287.266.028.028 0 00.002.04.03.03 0 00.042-.001c.086-.085.177-.164.271-.241-.087.234.04.472.215.798.03-.19-.118-.536-.148-.851.076-.06.152-.118.23-.176.017-.014.036-.026.054-.04-.123.266.018.532.217.903.033-.21-.133-.596-.161-.943.11-.08.22-.159.332-.235-.142.3.036.612.29 1.053.024-.237-.193-.69-.243-1.085l.117-.08.224-.146c-.146.323.047.66.32 1.133.025-.255-.207-.742-.264-1.169.13-.083.261-.164.393-.243-.132.328.049.695.298 1.2.044-.27-.163-.794-.205-1.256l.32-.187c-.145.358.051.756.323 1.306.047-.293-.178-.861-.223-1.362l.084-.048c.147-.082.295-.161.444-.239-.167.36.006.826.246 1.459.079-.312-.111-.97-.116-1.527.167-.085.336-.167.506-.247-.244.402-.047.925.228 1.655.088-.346-.13-1.09-.125-1.702l.149-.068c.156-.069.313-.135.47-.198-.282.42-.103 1 .147 1.803.118-.37-.07-1.188-.025-1.852.175-.069.351-.134.528-.194-.34.46-.144 1.096.135 1.99.129-.404-.08-1.302-.026-2.026.055-.018.108-.037.163-.054h.003a.088.088 0 00.057-.114.094.094 0 00-.119-.055l-.175.062c-.418-.225-.838-.578-1.199-.84l-.288-.006c.47.533.855.893 1.334.9-.184.068-.365.14-.544.217-.611-.332-1.228-.957-1.621-1.072.562.655.966 1.123 1.496 1.124-.135.06-.27.12-.403.182-.076.034-.15.071-.225.108zm-4.506 6.459c-.398-.414-.677-.703-1.065-.644l.18-.212.1-.125c.379.17.76.514 1.004.568-.367-.382-.624-.648-.983-.593.093-.114.183-.23.272-.348.344.132.685.419.909.456-.327-.32-.555-.543-.896-.473l.05-.064c.063-.087.126-.174.187-.263.313.123.623.382.827.416-.296-.292-.505-.495-.811-.439.072-.106.141-.215.203-.329a.028.028 0 00-.013-.038.03.03 0 00-.04.012 3.73 3.73 0 01-.194.302c.019-.248-.17-.445-.43-.714.025.19.263.486.38.782a13.3 13.3 0 01-.17.229l-.043.052c.045-.288-.166-.508-.461-.814.026.21.295.54.419.867-.083.105-.168.21-.255.311.054-.325-.206-.58-.574-.94.044.234.379.614.538.983l-.09.107-.176.198c.05-.348-.23-.623-.624-1.01.046.253.406.662.58 1.06-.103.113-.206.224-.31.335.034-.35-.242-.658-.623-1.08.033.271.379.723.548 1.157-.084.088-.17.176-.256.262.04-.381-.26-.715-.676-1.175.037.295.412.785.596 1.256l-.068.068c-.119.116-.24.23-.361.344.06-.391-.237-.794-.644-1.343.01.32.378.907.537 1.44-.137.126-.276.248-.418.368.123-.449-.212-.903-.682-1.535.012.356.43 1.016.596 1.608-.042.034-.082.07-.124.103-.13.107-.264.21-.399.312.155-.478-.179-.99-.644-1.7-.01.387.399 1.127.54 1.778-.149.111-.3.218-.454.322.113-.3.04-.614-.137-.973.044.413.077.813.106 1.207l.05-.035c.74.175 1.579.66 2.026.672-.78-.525-1.343-.901-1.894-.763.158-.112.312-.229.464-.348.681.163 1.45.607 1.86.618-.723-.487-1.243-.835-1.755-.7.114-.092.227-.184.338-.278l.187-.163c.618.181 1.304.633 1.682.664-.658-.5-1.124-.852-1.618-.72.144-.129.285-.26.424-.394.568.17 1.197.583 1.544.61-.605-.459-1.034-.782-1.488-.664.12-.115.237-.23.352-.349l.083-.087c.506.189 1.035.612 1.356.665-.512-.47-.868-.796-1.335-.686.11-.115.22-.23.327-.348.465.173.951.562 1.247.611-.47-.432-.798-.732-1.227-.633.114-.125.226-.252.337-.38.41.185.824.559 1.089.617zm6.279-.252c-.261.11-.611.559-.995.84a21.173 21.173 0 01-.336-.158c.392-.074.638-.447.975-.962-.283.12-.662.606-1.079.912l-.088-.042c-.15-.075-.3-.152-.448-.23.407-.06.723-.45 1.151-.983-.316.103-.794.611-1.281.913-.165-.089-.328-.18-.49-.275.485-.02.84-.46 1.334-1.073-.352.115-.889.69-1.43 1.015-.047-.028-.094-.055-.14-.084-.145-.088-.287-.18-.428-.273.522.002.936-.454 1.51-1.088-.39.104-1.009.696-1.618 1.015a12.104 12.104 0 01-.455-.322c.587.028 1.043-.473 1.68-1.178-.425.113-1.104.764-1.77 1.11l-.135-.103h-.001l-.001-.002a.096.096 0 00-.13.015.087.087 0 00.015.125c.049.037.1.073.149.108.041.73-.198 1.64-.079 2.053.296-.869.507-1.494.208-1.959.159.112.32.22.484.324.036.671-.183 1.505-.073 1.885.275-.806.47-1.384.186-1.813.124.077.25.154.376.228l.218.124c0 .619-.252 1.38-.171 1.735.306-.749.521-1.279.246-1.693.17.095.343.185.516.274-.002.57-.232 1.266-.158 1.593.282-.688.48-1.176.229-1.557.15.075.3.149.451.22l.11.05c-.04.519-.308 1.127-.267 1.437.32-.606.541-1.028.295-1.424.147.068.295.134.444.198-.038.477-.285 1.036-.247 1.32.295-.556.498-.944.274-1.308.158.068.317.134.477.198-.064.43-.316.918-.297 1.177.297-.485.504-.825.332-1.163.087.034.175.069.264.102.05.02.102.037.154.056-.06.396-.292.847-.274 1.086.274-.448.465-.762.305-1.074.141.051.283.1.426.147-.03.354-.218.75-.19.966.225-.393.38-.667.21-.959l.08.026c.105.034.21.066.317.096-.03.323-.2.682-.174.88.205-.358.347-.608.202-.872.127.035.255.066.387.09a.03.03 0 00.035-.023.03.03 0 00-.024-.033 3.946 3.946 0 01-.358-.09c.253-.056.395-.286.587-.603-.183.078-.408.383-.67.577-.093-.029-.186-.06-.278-.09l-.065-.023c.301-.043.46-.3.678-.661-.202.086-.453.428-.744.637a13.695 13.695 0 01-.385-.142c.34-.046.52-.358.772-.8-.222.108-.504.526-.825.78l-.133-.052a16.754 16.754 0 01-.25-.103c.363-.055.557-.392.827-.867-.24.117-.542.566-.889.841-.142-.06-.284-.122-.425-.186.36-.07.587-.413.897-.885zm-2.083 4.607c.321.104.647.344.853.365-.315-.273-.537-.463-.839-.388.066-.11.127-.223.181-.34a.028.028 0 00-.015-.038.03.03 0 00-.04.014v.001c-.051.106-.11.21-.173.313.002-.25-.2-.434-.476-.687.036.188.294.47.43.758-.05.08-.103.16-.155.238l-.039.055c.026-.29-.199-.497-.514-.785.04.209.33.521.475.84a12.9 12.9 0 01-.233.327c.032-.328-.244-.567-.635-.904.059.231.419.59.601.949l-.083.112c-.053.07-.108.139-.162.208.027-.35-.27-.608-.69-.97.064.25.45.636.65 1.022-.095.12-.19.237-.288.354.012-.352-.284-.642-.693-1.04.052.268.427.698.624 1.12-.079.094-.158.186-.238.278.014-.383-.308-.699-.752-1.132.055.292.462.758.677 1.217l-.064.072c-.11.123-.224.245-.337.364.034-.393-.29-.777-.732-1.3.032.319.437.881.632 1.405-.129.134-.26.264-.393.393.092-.456-.272-.889-.782-1.491.035.355.496.988.7 1.568-.039.037-.077.074-.117.11-.123.115-.25.226-.376.337.122-.487-.245-.978-.756-1.659.015.387.473 1.101.657 1.743-.141.12-.285.236-.433.35.164-.541-.239-1.082-.808-1.84.017.424.52 1.207.718 1.908l-.135.101h-.001l-.001.002a.086.086 0 00-.015.125c.031.038.09.045.13.014.05-.037.097-.075.145-.114.75.13 1.62.564 2.067.548-.814-.477-1.4-.818-1.941-.646.15-.122.296-.248.44-.376.69.12 1.487.518 1.898.504-.755-.443-1.297-.758-1.798-.593.107-.098.214-.197.318-.298.06-.057.118-.116.176-.174.629.144 1.343.553 1.723.56-.69-.458-1.178-.781-1.662-.62.136-.136.267-.276.397-.418.578.134 1.233.509 1.582.516-.635-.422-1.084-.72-1.529-.573.111-.122.22-.246.328-.37l.078-.091c.516.157 1.072.547 1.396.58-.541-.438-.919-.74-1.378-.603.103-.121.204-.243.304-.368.475.146.986.505 1.284.535-.498-.403-.844-.681-1.266-.557.106-.132.21-.265.311-.4.422.16.86.507 1.128.55-.425-.39-.722-.66-1.106-.579.056-.073.111-.147.165-.222.032-.043.062-.087.093-.13.389.146.793.467 1.04.505-.392-.359-.666-.609-1.02-.532.085-.12.167-.24.248-.363.352.11.71.376.937.4-.348-.301-.59-.51-.926-.418l.045-.067c.058-.092.115-.182.17-.275zm2.189 3.855a3.81 3.81 0 01.238-.27c-.057.242.1.463.315.766.005-.192-.185-.518-.255-.827.067-.068.135-.136.204-.202l.05-.046c-.09.28.085.527.33.87.007-.211-.208-.575-.28-.916.098-.092.198-.183.3-.272-.104.314.114.603.422 1.01-.006-.237-.28-.66-.38-1.047.035-.031.07-.063.106-.093.067-.058.136-.115.204-.172-.104.337.13.649.462 1.087-.007-.257-.3-.712-.411-1.13.118-.097.238-.193.358-.288-.088.342.138.685.45 1.156.008-.273-.264-.769-.365-1.221.098-.076.195-.15.294-.224-.098.372.148.745.488 1.258.009-.296-.287-.834-.396-1.326l.078-.057c.135-.098.272-.194.41-.29-.12.379.111.82.43 1.42.039-.319-.234-.95-.31-1.502.155-.104.311-.206.47-.304-.19.426.072.923.44 1.614.042-.353-.271-1.065-.343-1.674l.138-.085c.146-.087.294-.17.442-.252-.226.45.025 1.004.377 1.773.07-.382-.222-1.171-.262-1.836.164-.089.33-.174.5-.254-.28.496-.003 1.105.387 1.96.077-.417-.245-1.284-.284-2.009.051-.024.102-.049.154-.072h.001l.002-.001a.087.087 0 00.042-.12.095.095 0 00-.124-.04l-.167.082c-.706-.277-1.46-.876-1.901-.95.692.63 1.19 1.08 1.756 1.022a12.12 12.12 0 00-.512.279c-.649-.257-1.34-.805-1.746-.873.642.584 1.103 1 1.63.94-.128.074-.254.15-.378.227l-.21.135c-.583-.267-1.192-.81-1.561-.894.574.587.98 1 1.489.94a17.66 17.66 0 00-.479.33c-.536-.247-1.094-.745-1.434-.821.528.539.903.92 1.37.866-.136.098-.27.196-.402.296l-.096.074c-.47-.257-.929-.751-1.238-.848.433.537.736.91 1.215.866-.127.098-.253.198-.377.299-.433-.238-.854-.69-1.14-.78.4.493.677.835 1.117.798-.132.108-.263.218-.391.328-.378-.24-.73-.668-.982-.762.33.465.561.79.954.787l-.21.184-.12.11c-.347-.222-.672-.616-.905-.704.304.43.518.73.881.725-.11.1-.217.202-.322.305-.32-.178-.613-.51-.829-.579.274.364.465.616.814.594l-.059.057c-.076.077-.152.155-.226.234-.291-.166-.558-.466-.755-.529.249.33.424.561.736.549a3.884 3.884 0 00-.252.296.028.028 0 00.007.04.03.03 0 00.041-.006v-.001zm-4.229 4.921c.145-.128.285-.26.424-.393.568.169 1.197.583 1.545.61-.605-.459-1.035-.783-1.488-.664.118-.115.236-.231.352-.35l.083-.086c.506.188 1.035.612 1.356.665-.512-.47-.868-.796-1.336-.686.111-.115.22-.231.328-.349.465.174.95.563 1.246.612-.47-.432-.797-.732-1.226-.633.114-.125.226-.252.337-.38.41.185.824.558 1.088.617-.398-.414-.677-.703-1.065-.644l.18-.212.101-.125c.378.17.76.514 1.004.568-.367-.382-.625-.648-.983-.593.093-.114.183-.23.271-.348.344.132.685.419.91.456-.328-.321-.556-.543-.897-.473l.05-.064c.064-.087.127-.175.188-.263.313.122.623.382.827.416-.297-.292-.505-.495-.811-.439.072-.106.14-.215.202-.329a.028.028 0 00-.012-.038.03.03 0 00-.04.011v.001a3.707 3.707 0 01-.194.302c.019-.249-.17-.446-.43-.714.024.19.263.486.38.782a9.67 9.67 0 01-.171.228l-.042.053c.045-.288-.166-.509-.462-.814.027.21.295.54.42.867a12.77 12.77 0 01-.255.311c.054-.325-.206-.58-.574-.94.043.234.379.615.537.983l-.09.107-.176.198c.051-.348-.228-.624-.624-1.01.047.253.407.662.58 1.06-.102.112-.205.224-.31.335.036-.35-.24-.658-.622-1.08.033.271.38.723.548 1.157-.084.088-.17.175-.256.262.04-.381-.26-.716-.675-1.175.036.294.411.784.595 1.255l-.068.069c-.119.116-.24.23-.361.343.06-.39-.237-.794-.644-1.342.01.32.378.906.537 1.44a14.6 14.6 0 01-.418.368c.122-.45-.213-.903-.682-1.535.012.356.43 1.016.596 1.608-.042.034-.083.07-.125.103-.13.107-.264.21-.398.312.155-.478-.179-.99-.644-1.7-.01.382.388 1.109.534 1.755l.278.018c.112-.09.223-.18.332-.273l.187-.163c.424.124.88.375 1.246.53l.274.011c-.574-.431-1.005-.718-1.456-.598zm-1.995-1.063c-.008.335.27.913.463 1.491l.273.02c-.03-.428-.336-.902-.736-1.51z"/><path d="M55.606 50.652l.545.033a.995.995 0 00-.545-.033zm10.497-.724l.03-.064-.132-.043-.065-.023a.558.558 0 00.276-.123c.033-.09.064-.187.092-.293-.132.13-.277.28-.434.393-.13-.045-.258-.093-.385-.142.34-.046.52-.358.771-.8-.221.108-.503.526-.824.78l-.133-.052a16.765 16.765 0 01-.25-.103c.363-.055.556-.392.826-.867-.238.117-.542.566-.888.841-.143-.06-.284-.122-.425-.186.36-.07.586-.414.896-.886-.26.11-.611.559-.995.84a18.154 18.154 0 01-.336-.158c.392-.074.638-.447.976-.962-.284.12-.663.606-1.08.912l-.088-.042c-.15-.075-.3-.152-.448-.23.407-.06.723-.45 1.151-.983-.316.104-.794.612-1.28.914-.165-.09-.329-.181-.49-.276.484-.019.84-.459 1.334-1.073-.352.115-.89.69-1.431 1.015l-.14-.083c-.144-.089-.286-.18-.428-.274.523.002.937-.453 1.51-1.087-.39.104-1.008.695-1.618 1.015a11.765 11.765 0 01-.455-.323c.587.028 1.043-.473 1.68-1.178-.425.114-1.104.764-1.77 1.11l-.135-.102-.001-.001-.001-.001a.096.096 0 00-.13.015.087.087 0 00.015.125c.049.037.1.072.149.108.041.73-.199 1.64-.079 2.053.297-.87.508-1.494.208-1.958.159.111.32.219.484.323.036.671-.183 1.506-.073 1.885.275-.806.47-1.384.186-1.813.124.078.25.154.376.228l.218.124c0 .619-.252 1.38-.171 1.735.306-.749.522-1.279.246-1.692.17.094.343.185.516.273-.002.569-.231 1.266-.158 1.593.282-.689.48-1.176.229-1.558.15.076.3.15.451.22l.111.052c-.04.518-.309 1.126-.268 1.436.32-.606.541-1.028.295-1.424.147.068.295.134.444.198-.037.463-.268 1-.247 1.292l.017-.002c.285-.54.476-.92.257-1.278.158.069.317.135.478.198-.053.349-.226.735-.28 1.007l.097-.017c.231-.389.366-.683.218-.976.087.034.175.069.263.102.051.02.103.037.155.056-.037.24-.135.5-.204.72.058-.015.114-.03.167-.046.124-.246.174-.455.068-.662.141.052.283.101.426.148-.01.116-.038.235-.068.352a1.36 1.36 0 00.158-.091c0-.085-.02-.17-.07-.255l.08.027.126.037zm-13.879-7.211h.003a.089.089 0 00.064-.11.093.093 0 00-.114-.062l-.18.051c-.639-.399-1.263-1.122-1.682-1.273.557.742.958 1.274 1.527 1.317-.188.057-.374.118-.558.183-.434-.272-.86-.704-1.208-.967l-.001.236c.359.45.673.75 1.081.776-.139.05-.277.102-.415.156-.078.03-.155.063-.232.095a4.202 4.202 0 01-.438-.365c0 .097-.002.193-.004.288.111.063.23.102.361.11-.124.052-.246.108-.37.164 0 .05-.002.097-.004.146.16-.07.322-.137.485-.2-.27.385-.109.92.117 1.664.111-.34-.058-1.096-.01-1.706a15.527 15.527 0 01.636-.228c-.31.403-.17.992.025 1.81.143-.362.01-1.19.1-1.85.179-.058.359-.112.54-.161-.37.437-.218 1.085 0 1.995.156-.396.009-1.306.111-2.025l.166-.044zm-2.229 2.166l.036.123c.063-.195.028-.537.002-.903-.011.267-.024.527-.038.78zm1.278 5.054l-.135-.204c.293-.552.876-1.121.972-1.473-.627.535-1.07.914-1.02 1.402a15.373 15.373 0 00-.33-.467c.271-.507.805-1.03.894-1.352-.577.492-.984.84-.94 1.29a16.597 16.597 0 00-.299-.393c-.024-.032-.05-.062-.075-.094.281-.444.808-.87.918-1.164-.572.402-.968.682-.936 1.142-.099-.124-.2-.248-.302-.37.26-.408.743-.8.844-1.07-.526.37-.89.627-.862 1.049a13.68 13.68 0 00-.223-.257 20.73 20.73 0 00-.01.144c.043.051.087.102.129.154a.662.662 0 00-.137-.021l-.008.151c.07-.018.141-.034.211-.047.076.095.151.19.225.287a.847.847 0 00-.447.01l-.01.215c.174-.053.352-.104.526-.135l.058.076c.1.132.196.265.291.4-.253-.081-.538-.02-.88.111v.193c.301-.067.645-.155.963-.187.105.15.207.304.307.458-.344-.151-.741-.037-1.246.178.004.044.004.095.009.138l.082.01c.368-.075.813-.198 1.214-.232l.085.134c.054.089.105.179.157.268l.202.022c-.074-.123-.15-.245-.227-.366zm-1.41-3.135l-.013.162c.116-.116.213-.222.253-.314-.086.053-.165.103-.24.152zm2.12 3.551l.321.032c.288-.438.594-.846.653-1.126-.436.417-.789.758-.974 1.094z"/><path d="M51.62 50.315c.298-.584.827-1.183.904-1.548-.626.6-1.073 1.03-1.024 1.535l.12.013zm-1.804-2.895l-.019.273c.261-.294.604-.561.693-.765-.289.177-.524.325-.674.492z"/></g><path d="M74.868 38.974l1.594-1.62 2.208 2.979s-1.864 1.267-3.65 1.216l-.205-.438c-.333-.71-.314-1.497.053-2.137zm4.149-1.464l.624 1.125c.284.513.084 1.15-.45 1.427l-.521.27-2.208-2.978 1.263-.362a1.124 1.124 0 011.292.518z" fill="#FFB573"/><path d="M66.443 33.158l.134.66.151.7c.109.465.215.932.338 1.394.235.926.513 1.833.816 2.71.313.871.665 1.712 1.07 2.456.406.737.875 1.381 1.321 1.764l-.766-.362c-.225-.03-.266.036-.15.032.111 0 .321-.055.548-.15a9.3 9.3 0 001.536-.86 27.21 27.21 0 001.617-1.171c.538-.41 1.087-.864 1.61-1.275l.056-.044a1.308 1.308 0 011.787.17c.33.386.37.91.147 1.326-.37.69-.767 1.297-1.21 1.917a17.764 17.764 0 01-1.469 1.784c-.556.57-1.149 1.138-1.944 1.652a6.436 6.436 0 01-1.44.704 4.397 4.397 0 01-1.016.213c-.384.034-.827.02-1.285-.089a2.013 2.013 0 01-.68-.3l-.087-.062c-1.254-.87-2.077-1.91-2.744-2.933a18.465 18.465 0 01-.89-1.553 25.264 25.264 0 01-.706-1.569 27.49 27.49 0 01-1.058-3.16 29.445 29.445 0 01-.546-2.403c-.049-.28-.09-.529-.137-.852-.19-1.323.775-2.543 2.156-2.725 1.332-.175 2.564.68 2.82 1.927l.02.099z" fill="#FFB573"/><path d="M62.984 29.531c2.097.208 3.776 1.54 4.948 5.787-.902 1.195-6.582 3.817-6.582 3.817s-3.163-10.079 1.634-9.604z" fill="#263238"/></svg>