<svg width="180" height="128" fill="none" xmlns="http://www.w3.org/2000/svg"><path d="M180.5 111.663H.5v.09h180v-.09zm-18.036 5.795H150.54v.09h11.924v-.09zm-42.725.977h-3.129v.09h3.129v-.09zm30.441-4.32h-6.909v.09h6.909v-.09zm-115.245.604h-15.55v.09h15.55v-.09zm5.485 0h-2.28v.09h2.28v-.09zm41.133 1.521H47.83v.09h33.723v-.09z" fill="#EBEBEB" fill-opacity=".1"/><path d="M47.659 110.491H22.796c2.696-2.477 9.042-2.324 9.042-2.324s-4.402-4.73-2.778-7.762c1.623-3.031 5.97 3.615 5.97 3.615s-5.467-9.896-3.433-12.363c2.033-2.467 7.5 10.838 7.5 10.838s-3.32-14.08-1.323-14.48c1.998-.399 4.085 13.352 4.085 13.352s-.719-12.57.963-12.21c1.682.358.866 16.761.866 16.761s1.691-8.368 2.414-5.7c.723 2.668-.725 8.393-.725 8.393 1.666.023 2.145 1.162 2.282 1.88zm13.049 0h32.287c-3.501-3.217-11.742-3.019-11.742-3.019s5.716-6.142 3.607-10.079c-2.108-3.936-7.752 4.695-7.752 4.695s7.099-12.851 4.458-16.055c-2.64-3.204-9.74 14.074-9.74 14.074s4.312-18.284 1.718-18.803c-2.594-.519-5.305 17.338-5.305 17.338s.933-16.323-1.25-15.857c-2.184.466-1.126 21.767-1.126 21.767s-2.195-10.867-3.134-7.402c-.939 3.466.942 10.899.942 10.899-2.163.03-2.786 1.51-2.963 2.442z" fill="#E0E0E0" fill-opacity=".1"/><path d="M90.314 110.491h24.863c-2.697-2.477-9.043-2.324-9.043-2.324s4.402-4.73 2.779-7.762c-1.624-3.031-5.97 3.615-5.97 3.615s5.466-9.896 3.433-12.363c-2.034-2.467-7.501 10.838-7.501 10.838s3.321-14.08 1.323-14.48c-1.997-.399-4.084 13.352-4.084 13.352s.718-12.57-.964-12.21c-1.681.358-.866 16.761-.866 16.761s-1.691-8.368-2.414-5.7c-.723 2.668.725 8.393.725 8.393-1.666.023-2.145 1.162-2.281 1.88zm-48.563 0C40.65 93.581 38 50.273 38.371 31.957l-1.765-.12s-1.767 55.181-.802 78.654h5.947z" fill="#E0E0E0" fill-opacity=".1"/><path d="M37.902 39.524l4.538-3.69.454-2.29 2.726-4.157.584-.213-2.687 4.7-.107 1.579 4.084-.75 1.711-3.155 1.804-1.418.269.467-1.537 1.373-1.258 3.372-5.596 1.407-5.838 7.072.853-4.297zm-.892-3.43l-.22 1.545-4.907-4.696-3.023-.6-2.333-1.608.16-.155 2.216 1.41 2.456.12-2.327-2.895-2.29-1.666.157-.097 2.297 1.489 3.78 3.825-.374-3.5-.877-1.487-.085-.41 1.103 1.621 2.873-.947.24.179-2.947 1.05.531 3.859 3.57 2.963z" fill="#E0E0E0" fill-opacity=".1"/><path d="M53.345 30.067c.111-.627-.881-1.075-1.954-1.148a13.781 13.781 0 01-2.345-.37c.1-.224.028-.496.172-.885.314-.847.147-1.42-.794-2.159-.94-.738-1.889-.595-3.947-.354-2.059.242-1.77-.69-3.63-1.578-1.86-.887-8.324-.518-9.515.308-.717.497-3.51.207-4.287 1.424-.777 1.216-5.363.906-4.756 1.962.606 1.057 1.332 1.106 1.213 2.875-.12 1.769 1.484 1.18 3.09 1.846 1.607.667 1.392-.583 2.442-.663 1.051-.08.761-.186 1.84-.685 1.08-.5.927.127 2.64.988.945.475 1.296-.099 1.587-.703.173.401-.022.985.33 1.661.284.542 1.418.662 2.498.56 1.183 2.25 1.692.375 3.175.535 1.565.17 3.919-1.067 5.023-1.2 1.104-.132 1.175-.411 2.316.473 1.14.884 6.051-.842 6.514-1.732.462-.891-1.723-.528-1.612-1.155zm20.225 80.425c-1.046-16.542-2.896-48.476-2.605-62.725l-1.51-.102s-1.313 41-.823 62.827h4.938z" fill="#E0E0E0" fill-opacity=".1"/><path d="M70.563 54.239l3.881-3.155.388-1.959 2.331-3.555.5-.183-2.298 4.02-.092 1.35 3.494-.641 1.463-2.698 1.543-1.213.23.4-1.315 1.174-1.076 2.884-4.785 1.203-4.993 6.048.73-3.675zm-.763-2.933l-.187 1.32-4.198-4.015-2.586-.513-1.995-1.375.138-.133 1.895 1.206 2.1.102-1.99-2.476-1.958-1.424.134-.083 1.964 1.273 3.233 3.272-.32-2.994-.75-1.272-.073-.35.943 1.386 2.458-.81.204.153-2.52.898.455 3.3 3.053 2.535z" fill="#E0E0E0" fill-opacity=".1"/><path d="M83.77 46.151c.095-.536-.754-.92-1.67-.981a11.78 11.78 0 01-2.006-.317c.086-.192.024-.424.147-.757.268-.725.125-1.215-.68-1.846-.804-.632-1.615-.51-3.376-.303-1.76.207-1.513-.59-3.104-1.35-1.59-.759-7.12-.443-8.138.264-.612.425-3.002.176-3.666 1.217-.665 1.04-4.587.775-4.068 1.679.518.903 1.14.946 1.037 2.458-.102 1.513 1.27 1.009 2.644 1.58 1.374.57 1.19-.5 2.088-.568.899-.068.65-.159 1.574-.586.924-.427.793.109 2.258.845.808.407 1.108-.084 1.357-.6.148.342-.019.841.283 1.42.242.463 1.212.565 2.135.48 1.012 1.923 1.448.32 2.716.456 1.338.145 3.352-.912 4.296-1.025.944-.114 1.005-.353 1.98.403.976.756 5.176-.72 5.571-1.481.397-.762-1.472-.451-1.377-.988z" fill="#E0E0E0" fill-opacity=".1"/><path d="M61.636 93.992c-.335-2.371-6.64-51.073-8.068-81.293h-2.361s1.327 61.054 5.286 83.307l5.143-2.014z" fill="#E6E6E6" fill-opacity=".1"/><path d="M31.79 110.492h62.687c-6.798-3.709-22.798-3.48-22.798-3.48s11.098-7.08 7.004-11.616c-4.093-4.537-15.051 5.411-15.051 5.411s13.782-14.811 8.655-18.504c-5.127-3.692-18.91 16.22-18.91 16.22s8.372-21.072 3.335-21.67c-5.036-.597-10.298 19.982-10.298 19.982s1.81-18.812-2.43-18.275c-4.24.537-2.184 25.088-2.184 25.088s-4.262-12.525-6.085-8.531c-1.824 3.993 1.828 12.56 1.828 12.56-4.2.035-5.408 1.74-5.752 2.815z" fill="#F0F0F0" fill-opacity=".1"/><path d="M53.625 22.814l5.708-5.32.397-3.088 3.255-5.78.758-.337-3.154 6.499v2.111l5.37-1.367 1.992-4.353 2.275-2.05.399.598-1.922 1.966-1.372 4.602-7.32 2.376-7.135 9.939.749-5.796zm-1.496-4.484l-.153 2.075-6.956-5.809-4.078-.525-3.25-1.93.2-.223 3.076 1.68 3.279-.064-3.358-3.643-3.197-2.011.2-.143 3.19 1.774 5.377 4.752-.814-4.625-1.3-1.901-.15-.539 1.613 2.06 3.74-1.521.334.217-3.828 1.664 1.055 5.088 5.02 3.623z" fill="#E6E6E6" fill-opacity=".1"/><path d="M73.328 8.835c.091-.845-1.27-1.351-2.704-1.351-.719 0-2.016-.065-3.155-.283.113-.307-.007-.662.15-1.193.34-1.156.066-1.904-1.252-2.802-1.319-.898-2.568-.622-5.286-.116-2.719.507-2.417-.76-4.973-1.774-2.555-1.013-11.127.06-12.638 1.268-.909.726-4.654.591-5.579 2.28-.924 1.69-7.056 1.69-6.153 3.042.902 1.351 1.873 1.351 1.873 3.717 0 2.365 2.082 1.436 4.28 2.179 2.199.743 1.8-.902 3.191-1.103 1.392-.201.996-.316 2.388-1.078 1.392-.761 1.245.086 3.602 1.078 1.3.547 1.716-.248 2.05-1.078.266.517.059 1.312.59 2.18.424.696 1.946.753 3.374.522 1.777 2.887 2.287.345 4.275.425 2.097.085 5.12-1.774 6.578-2.049 1.457-.275 1.526-.654 3.124.42 1.599 1.074 7.979-1.665 8.515-2.892.535-1.228-2.34-.547-2.25-1.392z" fill="#F0F0F0" fill-opacity=".1"/><path d="M153.871 12.189a2.436 2.436 0 00-3.136-2.333 5.16 5.16 0 00-6.054-5.818 4.507 4.507 0 00-8.361 2.28c-.025 0-.05-.004-.076-.004a4.155 4.155 0 000 8.311h15.262l-.003-.003a2.435 2.435 0 002.368-2.433zM101.27 34.941a2.436 2.436 0 00-3.135-2.333 5.159 5.159 0 00-6.054-5.818 4.507 4.507 0 00-3.85-2.167 4.512 4.512 0 00-4.512 4.446l-.075-.003a4.156 4.156 0 100 8.311h15.262l-.003-.004a2.434 2.434 0 002.367-2.432zm56.604 30.027a2.436 2.436 0 00-3.135-2.334 5.158 5.158 0 00-6.055-5.818 4.505 4.505 0 00-3.85-2.166 4.513 4.513 0 00-4.511 4.446c-.025 0-.049-.004-.075-.004a4.156 4.156 0 100 8.312h15.262l-.003-.004a2.434 2.434 0 002.367-2.432zM36.07 53.975a1.472 1.472 0 00-1.895-1.41 3.118 3.118 0 00-3.66-3.517 2.724 2.724 0 00-2.326-1.309 2.727 2.727 0 00-2.727 2.687l-.045-.002a2.512 2.512 0 100 5.024h9.224l-.002-.002a1.47 1.47 0 001.431-1.47zm78.093-46.233a1.472 1.472 0 00-1.895-1.41 3.118 3.118 0 00-3.659-3.516 2.724 2.724 0 00-2.327-1.31 2.728 2.728 0 00-2.727 2.687l-.045-.002a2.512 2.512 0 000 5.023h9.225l-.002-.002a1.471 1.471 0 001.43-1.47zM90.5 127.922c38.549 0 69.8-1.825 69.8-4.076 0-2.252-31.251-4.077-69.8-4.077-38.55 0-69.8 1.825-69.8 4.077 0 2.251 31.25 4.076 69.8 4.076z" fill="#F5F5F5" fill-opacity=".1"/><path d="M134.51 118.007s-1.169-.061-1.285-3.259c-.117-3.199 1.943-4.052 3.529-3.66 0 0-.232-2.277.796-2.194 1.027.084.957 1.605.957 1.605s.351-3.229 1.753-3.231c1.402-.001 0 3.82 0 3.82s1.94-.931 2.653 0c.713.931-.891 2.024-.891 2.024s2.515.82 1.463 3.428c0 0 1.753.274 2.244 1.441 0 0-.14-2.356.491-2.198.631.158.491 2.225.491 2.225s1.052-2.27 1.963-1.468c.912.803-.421 2.725-.421 2.725s1.753-.851 2.034.277c.28 1.128-.982 1.548-.982 1.548s1.823-.422 1.823 1.67c0 0 3.506-.335 4.347 1.544h-20.894l-.071-6.297z" fill="#7A8699"/><path opacity=".4" d="M134.51 118.007s-1.169-.061-1.285-3.259c-.117-3.199 1.943-4.052 3.529-3.66 0 0-.232-2.277.796-2.194 1.027.084.957 1.605.957 1.605s.351-3.229 1.753-3.231c1.402-.001 0 3.82 0 3.82s1.94-.931 2.653 0c.713.931-.891 2.024-.891 2.024s2.515.82 1.463 3.428c0 0 1.753.274 2.244 1.441 0 0-.14-2.356.491-2.198.631.158.491 2.225.491 2.225s1.052-2.27 1.963-1.468c.912.803-.421 2.725-.421 2.725s1.753-.851 2.034.277c.28 1.128-.982 1.548-.982 1.548s1.823-.422 1.823 1.67c0 0 3.506-.335 4.347 1.544h-20.894l-.071-6.297z" fill="#fff"/><path d="M123.839 85.248c-.504 8.265-3.228 38.874-3.228 38.874l19.768.182-5.571-55.294 8.871-2.704 1.862-5.376 7.49-4.239 3.662-5.62-1.415-.344-4.043 5.193-4.717 1.024 2.02-4.783h-2.247l-5.616 11.08-5.763 1.181-.527-20.154c-5.787 2.705-7.638-1.799-7.638-1.799s-1.497 31.556-2.338 33.94c-.733-.369-1.563-1.003-2.366-1.71-1.961-1.728-3.637-3.754-5.036-5.962l-.375-.593h-1.796l9.003 17.104z" fill="#7A8699"/><path d="M123.839 85.248c-.504 8.265-3.228 38.874-3.228 38.874l19.768.182-5.571-55.294 8.871-2.704 1.862-5.376 7.49-4.239 3.662-5.62-1.415-.344-4.043 5.193-4.717 1.024 2.02-4.783h-2.247l-5.616 11.08-5.763 1.181-.527-20.154c-5.787 2.705-7.638-1.799-7.638-1.799s-1.497 31.556-2.338 33.94c-.733-.369-1.563-1.003-2.366-1.71-1.961-1.728-3.637-3.754-5.036-5.962l-.375-.593h-1.796l9.003 17.104z" fill="#000" opacity=".2"/><path opacity=".1" d="M144.677 59.435l-2.41 4.645-7.534 1.907s.024-1.185.149-2.705l.03 1.14 5.763-1.181 5.616-11.08h2.246l-2.02 4.782 4.718-1.024 4.043-5.192.197.047-3.113 4.713-7.685 3.948z" fill="#000"/><path d="M133.829 96.96l1.779 27.3-3.135-.029v-21.546l1.356-5.724zm-9.99-11.712l-9.003-17.103h1.796l.375.592c1.399 2.207 3.075 4.235 5.036 5.962.803.707 1.634 1.342 2.366 1.71.841-2.384 2.338-33.94 2.338-33.94s.812 1.972 3.039 2.522l.256 30.58c.639-1.455 1.193-2.84 1.246-4.35.192 4.177.445 8.667.429 12.788l-3.463 12.775-.691 27.402-6.952-.065s2.724-30.609 3.228-38.873z" fill="#7A8699"/><path d="M101.59 31.838c-2.883 1.029-4.869 4.08-4.779 7.14.09 3.061 2.168 5.935 4.993 7.115 2.826 1.18 6.248.678 8.708-1.146.126 2.938 2.136 6.137 4.94 7.026 2.804.888 6.111-.148 7.907-2.478 7.557 4.748 34.017 6.508 38.668-13.711.96-4.176-1.366-8.6-4.775-11.195-3.41-2.595-7.743-3.658-11.997-4.178-4.035-6.425-12.983-9.937-20.503-8.928-7.52 1.01-14.206 6.7-16.404 13.961-7.667.02-6.869 6.907-6.758 6.394z" fill="#7A8699"/><path d="M101.59 31.838c-2.883 1.029-4.869 4.08-4.779 7.14.09 3.061 2.168 5.935 4.993 7.115 2.826 1.18 6.248.678 8.708-1.146.126 2.938 2.136 6.137 4.94 7.026 2.804.888 6.111-.148 7.907-2.478 7.557 4.748 34.017 6.508 38.668-13.711.96-4.176-1.366-8.6-4.775-11.195-3.41-2.595-7.743-3.658-11.997-4.178-4.035-6.425-12.983-9.937-20.503-8.928-7.52 1.01-14.206 6.7-16.404 13.961-7.667.02-6.869 6.907-6.758 6.394z" fill="#000" opacity=".2"/><path d="M110.927 71.615c.856 1.264 2.472 1.967 3.981 1.73 1.508-.237 2.831-1.401 3.258-2.867 1.791 1.26 4.558.948 6.371-.28 1.814-1.227 2.748-3.625 2.243-5.755-.505-2.131-2.414-3.855-4.586-4.139-.226-2.084-1.269-3.834-3.048-4.943a7.058 7.058 0 00-6.042-.638c-2.335-.428-4.725.41-6.428 2.063-1.213 1.177-2.022 2.848-1.88 4.532.141 1.685 1.37 3.303 3.03 3.623-.553 1.26-.709 2.673-.173 3.94.537 1.267 1.985 2.254 3.274 2.734z" fill="#7A8699"/><path opacity=".2" d="M110.927 71.615c.856 1.264 2.472 1.967 3.981 1.73 1.508-.237 2.831-1.401 3.258-2.867 1.791 1.26 4.558.948 6.371-.28 1.814-1.227 2.748-3.625 2.243-5.755-.505-2.131-2.414-3.855-4.586-4.139-.226-2.084-1.269-3.834-3.048-4.943a7.058 7.058 0 00-6.042-.638c-2.335-.428-4.725.41-6.428 2.063-1.213 1.177-2.022 2.848-1.88 4.532.141 1.685 1.37 3.303 3.03 3.623-.553 1.26-.709 2.673-.173 3.94.537 1.267 1.985 2.254 3.274 2.734z" fill="#000"/><path d="M149.022 41.044c-1.444-.497-3.158-.089-4.223 1.006-1.063 1.096-1.422 2.821-.883 4.25-2.189.067-4.214 1.978-4.928 4.048-.713 2.071-.021 4.549 1.662 5.95 1.683 1.4 4.246 1.632 6.153.556 1.432 1.53 3.317 2.303 5.405 2.122a7.058 7.058 0 005.215-3.118c2.124-1.06 3.531-3.165 3.901-5.508.264-1.67-.093-3.492-1.218-4.754-1.124-1.262-3.079-1.818-4.598-1.077-.314-1.34-1.037-2.564-2.227-3.256-1.189-.69-2.94-.61-4.259-.219z" fill="#7A8699"/><path opacity=".1" d="M149.022 41.044c-1.444-.497-3.158-.089-4.223 1.006-1.063 1.096-1.422 2.821-.883 4.25-2.189.067-4.214 1.978-4.928 4.048-.713 2.071-.021 4.549 1.662 5.95 1.683 1.4 4.246 1.632 6.153.556 1.432 1.53 3.317 2.303 5.405 2.122a7.058 7.058 0 005.215-3.118c2.124-1.06 3.531-3.165 3.901-5.508.264-1.67-.093-3.492-1.218-4.754-1.124-1.262-3.079-1.818-4.598-1.077-.314-1.34-1.037-2.564-2.227-3.256-1.189-.69-2.94-.61-4.259-.219z" fill="#000"/><path d="M135.661 123.504s-7.259-4.705-5.883-5.499c1.377-.794 6.219 3.905 6.219 3.905s-5.349-7.828-4.027-9.397c1.321-1.569 4.882 6.379 4.882 6.379s-2.421-9.087-.712-10.083c1.709-.997 2.329 9.106 2.329 9.106s.667-10.944 3.798-10.809c3.13.136-1.428 10.809-1.428 10.809s4.416-6.333 5.982-4.535c1.567 1.797-4.985 6.847-4.985 6.847s4.899-2.303 5.227-.594c.327 1.709-5.405 3.524-5.405 3.524s1.842.529 2.268 1.146l-9.803.001s-.155-.47 1.538-.8z" fill="#7A8699"/><path opacity=".6" d="M135.661 123.504s-7.259-4.705-5.883-5.499c1.377-.794 6.219 3.905 6.219 3.905s-5.349-7.828-4.027-9.397c1.321-1.569 4.882 6.379 4.882 6.379s-2.421-9.087-.712-10.083c1.709-.997 2.329 9.106 2.329 9.106s.667-10.944 3.798-10.809c3.13.136-1.428 10.809-1.428 10.809s4.416-6.333 5.982-4.535c1.567 1.797-4.985 6.847-4.985 6.847s4.899-2.303 5.227-.594c.327 1.709-5.405 3.524-5.405 3.524s1.842.529 2.268 1.146l-9.803.001s-.155-.47 1.538-.8z" fill="#fff"/><path d="M32.42 91.415s2.164-2.47 4.63-.73c2.464 1.74 4.907 14.547 4.907 14.547" stroke="#407BFF" stroke-miterlimit="10"/><path d="M41.058 106.29s-.874-8.803-3.755-11.544c-2.88-2.74-4.691 2.11-4.691 2.11" stroke="#407BFF" stroke-miterlimit="10"/><path d="M39.2 92.213s1.626-.327 1.941 1.07c.316 1.395-2.707 5.872-2.707 5.872s-2.745-.53-2.743-4.137c.002-3.608 2.965-3.608 3.509-2.805z" fill="#407BFF"/><path opacity=".2" d="M39.2 92.213s1.626-.327 1.941 1.07c.316 1.395-2.707 5.872-2.707 5.872s-2.745-.53-2.743-4.137c.002-3.608 2.965-3.608 3.509-2.805z" fill="#fff"/><path d="M34.998 94.935s.657-.727-.203-.896c-.86-.168-4.834.545-4.252 4.502 0 0 4.766.04 5.104-1.556.337-1.595-.65-2.05-.65-2.05z" fill="#407BFF"/><path opacity=".2" d="M34.998 94.935s.657-.727-.203-.896c-.86-.168-4.834.545-4.252 4.502 0 0 4.766.04 5.104-1.556.337-1.595-.65-2.05-.65-2.05z" fill="#fff"/><path d="M41.118 88.15s-.183-.729.46-.533c.642.195 3.075 2.11 1.255 4.579 0 0-3.24-1.691-2.893-2.893.346-1.2 1.178-1.153 1.178-1.153z" fill="#407BFF"/><path opacity=".2" d="M41.118 88.15s-.183-.729.46-.533c.642.195 3.075 2.11 1.255 4.579 0 0-3.24-1.691-2.893-2.893.346-1.2 1.178-1.153 1.178-1.153z" fill="#fff"/><path d="M100.83 107.806s4.09-14.81 11.621-18.804M100.91 106.11s7.307-15.843 4.77-20.954m-5.06 22.11s5.94-19.844 9.609-22.184" stroke="#407BFF" stroke-miterlimit="10"/><path d="M106.817 85.851s1.073.285 1.232-.375c.158-.66-3.148-3.784-6.468-2.058 0 0 .505 3.117 2.637 3.973 2.131.857 2.599-1.54 2.599-1.54z" fill="#407BFF"/><path opacity=".2" d="M106.817 85.851s1.073.285 1.232-.375c.158-.66-3.148-3.784-6.468-2.058 0 0 .505 3.117 2.637 3.973 2.131.857 2.599-1.54 2.599-1.54z" fill="#fff"/><path d="M109.324 85.063s-1.107.093-1.148-.584c-.04-.678 3.761-3.176 6.728-.897 0 0-1.042 2.98-3.29 3.451-2.248.471-2.29-1.97-2.29-1.97z" fill="#407BFF"/><path opacity=".2" d="M109.324 85.063s-1.107.093-1.148-.584c-.04-.678 3.761-3.176 6.728-.897 0 0-1.042 2.98-3.29 3.451-2.248.471-2.29-1.97-2.29-1.97z" fill="#fff"/><path d="M112.843 88.056s-.491-.847.385-.833c.876.014 4.615 1.54 3.221 5.29 0 0-4.671-.956-4.668-2.587.003-1.63 1.062-1.87 1.062-1.87z" fill="#407BFF"/><path opacity=".2" d="M112.843 88.056s-.491-.847.385-.833c.876.014 4.615 1.54 3.221 5.29 0 0-4.671-.956-4.668-2.587.003-1.63 1.062-1.87 1.062-1.87z" fill="#fff"/><path d="M109.368 90.174s.206-.723.665-.233c.459.49 1.61 3.364-1.199 4.594 0 0-1.962-3.083-1.062-3.95.9-.868 1.596-.411 1.596-.411z" fill="#407BFF"/><path opacity=".2" d="M109.368 90.174s.206-.723.665-.233c.459.49 1.61 3.364-1.199 4.594 0 0-1.962-3.083-1.062-3.95.9-.868 1.596-.411 1.596-.411z" fill="#fff"/><path d="M33.594 90.416s.358-.66-.313-.63c-.67.031-3.502 1.286-2.348 4.127 0 0 3.557-.838 3.518-2.088-.039-1.25-.857-1.409-.857-1.409z" fill="#407BFF"/><path opacity=".2" d="M33.594 90.416s.358-.66-.313-.63c-.67.031-3.502 1.286-2.348 4.127 0 0 3.557-.838 3.518-2.088-.039-1.25-.857-1.409-.857-1.409z" fill="#fff"/><path d="M96.865 114.951s-2.374-.093-2.611-4.885c-.237-4.792 3.947-6.071 7.168-5.483 0 0-.47-3.412 1.616-3.287 2.087.125 1.944 2.404 1.944 2.404s.712-4.838 3.561-4.84c2.848-.002 0 5.723 0 5.723s3.94-1.396 5.388 0-1.81 3.032-1.81 3.032 5.109 1.228 2.973 5.137c0 0 3.561.41 4.557 2.159 0 0-.284-3.53.997-3.293 1.282.237.997 3.333.997 3.333s2.136-3.402 3.988-2.199c1.851 1.202-.855 4.082-.855 4.082s3.561-1.275 4.13.415c.57 1.69-1.994 2.319-1.994 2.319s3.703-.631 3.703 2.503c0 0 7.121-.501 8.83 2.313h-42.44l-.142-9.433z" fill="#407BFF"/><path opacity=".4" d="M96.865 114.951s-2.374-.093-2.611-4.885c-.237-4.792 3.947-6.071 7.168-5.483 0 0-.47-3.412 1.616-3.287 2.087.125 1.944 2.404 1.944 2.404s.712-4.838 3.561-4.84c2.848-.002 0 5.723 0 5.723s3.94-1.396 5.388 0-1.81 3.032-1.81 3.032 5.109 1.228 2.973 5.137c0 0 3.561.41 4.557 2.159 0 0-.284-3.53.997-3.293 1.282.237.997 3.333.997 3.333s2.136-3.402 3.988-2.199c1.851 1.202-.855 4.082-.855 4.082s3.561-1.275 4.13.415c.57 1.69-1.994 2.319-1.994 2.319s3.703-.631 3.703 2.503c0 0 7.121-.501 8.83 2.313h-42.44l-.142-9.433z" fill="#fff"/><path d="M47.322 114.951s1.751-.093 1.926-4.885c.175-4.792-2.912-6.071-5.288-5.483 0 0 .347-3.412-1.193-3.287-1.539.125-1.434 2.404-1.434 2.404s-.525-4.838-2.626-4.84c-2.102-.002 0 5.723 0 5.723s-2.907-1.396-3.975 0 1.335 3.032 1.335 3.032-3.769 1.228-2.193 5.137c0 0-2.626.41-3.362 2.159 0 0 .21-3.53-.735-3.293-.946.237-.736 3.333-.736 3.333s-1.575-3.402-2.941-2.199c-1.366 1.202.63 4.082.63 4.082s-2.626-1.275-3.046.415c-.42 1.69 1.47 2.319 1.47 2.319s-2.73-.631-2.73 2.503c0 0-5.253-.501-6.514 2.313h31.307l.105-9.433z" fill="#407BFF"/><path opacity=".4" d="M47.322 114.951s1.751-.093 1.926-4.885c.175-4.792-2.912-6.071-5.288-5.483 0 0 .347-3.412-1.193-3.287-1.539.125-1.434 2.404-1.434 2.404s-.525-4.838-2.626-4.84c-2.102-.002 0 5.723 0 5.723s-2.907-1.396-3.975 0 1.335 3.032 1.335 3.032-3.769 1.228-2.193 5.137c0 0-2.626.41-3.362 2.159 0 0 .21-3.53-.735-3.293-.946.237-.736 3.333-.736 3.333s-1.575-3.402-2.941-2.199c-1.366 1.202.63 4.082.63 4.082s-2.626-1.275-3.046.415c-.42 1.69 1.47 2.319 1.47 2.319s-2.73-.631-2.73 2.503c0 0-5.253-.501-6.514 2.313h31.307l.105-9.433z" fill="#fff"/><path d="M31.69 123.584s7.258-4.704 5.881-5.499c-1.376-.794-6.219 3.905-6.219 3.905s5.35-7.827 4.028-9.396c-1.322-1.569-4.882 6.378-4.882 6.378s2.421-9.086.712-10.083c-1.709-.997-2.328 9.107-2.328 9.107s-.668-10.945-3.798-10.809c-3.13.136 1.427 10.809 1.427 10.809s-4.415-6.334-5.982-4.536c-1.566 1.798 4.985 6.847 4.985 6.847s-4.899-2.303-5.227-.594c-.327 1.709 5.405 3.525 5.405 3.525s-1.842.528-2.268 1.146h9.803s.155-.47-1.538-.8z" fill="#407BFF"/><path opacity=".6" d="M31.69 123.584s7.258-4.704 5.881-5.499c-1.376-.794-6.219 3.905-6.219 3.905s5.35-7.827 4.028-9.396c-1.322-1.569-4.882 6.378-4.882 6.378s2.421-9.086.712-10.083c-1.709-.997-2.328 9.107-2.328 9.107s-.668-10.945-3.798-10.809c-3.13.136 1.427 10.809 1.427 10.809s-4.415-6.334-5.982-4.536c-1.566 1.798 4.985 6.847 4.985 6.847s-4.899-2.303-5.227-.594c-.327 1.709 5.405 3.525 5.405 3.525s-1.842.528-2.268 1.146h9.803s.155-.47-1.538-.8z" fill="#fff"/><path d="M35.321 124.384s8.355-30.734 9.874-31.874c1.52-1.139 10.185-4.342 10.185-4.342s21.077 3.52 24.245 3.171c3.168-.347 13.35-2.31 14.81 0 1.46 2.31 7.225 16.173 7.225 16.173l8.098 3.418 5.127 13.454H35.321z" fill="#407BFF"/><path opacity=".6" d="M114.886 124.384H35.322s8.313-30.59 9.86-31.867l.012-.007c.313-.234.925-.555 1.703-.918 3.01-1.4 8.481-3.424 8.481-3.424s21.078 3.52 24.246 3.172c3.168-.35 13.349-2.312 14.81 0 .31.493.818 1.508 1.422 2.804 2.233 4.784 5.804 13.367 5.804 13.367l8.096 3.42 5.13 13.453z" fill="#fff"/><path opacity=".1" d="M95.857 94.144l-3.143 3.11-8.19-1.926-9.266 1.926.594 3.582-3.374 4.018 1.2-4.018-2.629-4.417s-10.663.648-13.446 0c-1.746-.407-7.027-2.977-10.706-4.827 3.01-1.4 8.481-3.424 8.481-3.424s21.078 3.52 24.246 3.172c3.168-.35 13.35-2.312 14.81 0 .31.493.818 1.508 1.423 2.804z" fill="#000"/><path opacity=".1" d="M114.886 124.384H35.323s8.312-30.59 9.86-31.867l.011-.007-5.126 23.846 2.563 3.949 6.3-4.781 4.831 2.697 6.703-1.354.666-3.243 9.497-6.246-5.962 5.522 2.1 6.3 9.125 1.573h10.084l4.169-2.779-1.39-5.652-2.099-3.276 10.638-.025-4.529 2.804 1.67 4.979 5.124 2.376 5.954-3.676 2.426 7.013 6.948 1.847z" fill="#000"/><path d="M104.251 124.384h13.188s-2.626-4.018-3.745-3.509c-1.457.664-2.537-2.976-4.15-2.114-.568.304-.29 1.278-.648 1.67-.591.647-1.343.522-2.057.877-1.399.697-1.898 1.621-2.588 3.076z" fill="#407BFF"/><path opacity=".2" d="M104.251 124.384h13.188s-2.626-4.018-3.745-3.509c-1.457.664-2.537-2.976-4.15-2.114-.568.304-.29 1.278-.648 1.67-.591.647-1.343.522-2.057.877-1.399.697-1.898 1.621-2.588 3.076z" fill="#000"/><path d="M115.998 123.263s-.866-5.023-.268-5.759c.597-.736.702 2.741.702 2.741s2.009-7.258 3.295-7.296c1.285-.039-1.527 6.296-1.527 6.296s5.494-8.979 7.092-8.143c1.597.836-5.751 8.796-5.751 8.796s4.019-3.458 4.904-2.482c.886.976-4.461 3.963-4.461 3.963s2.357-.53 2.355.255c-.003.784-3.981 2.075-6.341 1.629z" fill="#407BFF"/><path opacity=".2" d="M115.998 123.263s-.866-5.023-.268-5.759c.597-.736.702 2.741.702 2.741s2.009-7.258 3.295-7.296c1.285-.039-1.527 6.296-1.527 6.296s5.494-8.979 7.092-8.143c1.597.836-5.751 8.796-5.751 8.796s4.019-3.458 4.904-2.482c.886.976-4.461 3.963-4.461 3.963s2.357-.53 2.355.255c-.003.784-3.981 2.075-6.341 1.629z" fill="#fff"/><path d="M115.206 122.546s-4.129-.749-4.529-1.419c-.401-.67 2.317.231 2.317.231s-5.046-3.604-4.712-4.608c.334-1.006 4.439 2.958 4.439 2.958s-5.393-6.785-4.295-7.784c1.097-.999 5.178 6.932 5.178 6.932s-1.539-4.085-.535-4.494c1.006-.409 1.805 4.569 1.805 4.569s.256-1.972.862-1.749c.606.223.482 3.664-.53 5.364z" fill="#407BFF"/><path opacity=".2" d="M115.206 122.546s-4.129-.749-4.529-1.419c-.401-.67 2.317.231 2.317.231s-5.046-3.604-4.712-4.608c.334-1.006 4.439 2.958 4.439 2.958s-5.393-6.785-4.295-7.784c1.097-.999 5.178 6.932 5.178 6.932s-1.539-4.085-.535-4.494c1.006-.409 1.805 4.569 1.805 4.569s.256-1.972.862-1.749c.606.223.482 3.664-.53 5.364z" fill="#fff"/><path d="M114.897 121.997s-3.988-3.995-3.917-5.043c.071-1.047 2.384 2.033 2.384 2.033s-2.811-7.851-1.672-8.706c1.14-.854 2.635 6.673 2.635 6.673s-.754-11.632 1.225-11.894c1.98-.262.405 11.63.405 11.63s1.432-5.693 2.856-5.375c1.424.319-1.511 6.433-1.511 6.433s1.796-1.984 2.294-1.272c.499.713-2.278 4.419-4.699 5.521z" fill="#407BFF"/><path opacity=".1" d="M114.897 121.997s-3.988-3.995-3.917-5.043c.071-1.047 2.384 2.033 2.384 2.033s-2.811-7.851-1.672-8.706c1.14-.854 2.635 6.673 2.635 6.673s-.754-11.632 1.225-11.894c1.98-.262.405 11.63.405 11.63s1.432-5.693 2.856-5.375c1.424.319-1.511 6.433-1.511 6.433s1.796-1.984 2.294-1.272c.499.713-2.278 4.419-4.699 5.521z" fill="#fff"/><path d="M110.062 124.384h10.51s-2.093-3.202-2.985-2.796c-1.161.529-2.022-2.372-3.307-1.685-.453.242-.231 1.018-.516 1.331-.471.516-1.071.416-1.64.699-1.115.555-1.512 1.292-2.062 2.451zm-65.628 0H31.246s2.626-4.018 3.745-3.508c1.457.663 2.537-2.977 4.15-2.115.568.304.29 1.278.648 1.67.591.647 1.343.522 2.057.878 1.4.697 1.898 1.62 2.588 3.075z" fill="#407BFF"/><path opacity=".2" d="M44.434 124.384H31.246s2.626-4.018 3.745-3.508c1.457.663 2.537-2.977 4.15-2.115.568.304.29 1.278.648 1.67.591.647 1.343.522 2.057.878 1.4.697 1.898 1.62 2.588 3.075z" fill="#000"/><path d="M32.687 123.264s.866-5.024.268-5.76c-.597-.736-.702 2.741-.702 2.741s-2.009-7.258-3.294-7.296c-1.286-.038 1.526 6.296 1.526 6.296s-5.494-8.979-7.092-8.143c-1.596.837 5.751 8.796 5.751 8.796s-4.019-3.458-4.904-2.482c-.885.977 4.462 3.963 4.462 3.963s-2.358-.53-2.356.255c.003.784 3.98 2.075 6.341 1.63z" fill="#407BFF"/><path opacity=".2" d="M32.687 123.264s.866-5.024.268-5.76c-.597-.736-.702 2.741-.702 2.741s-2.009-7.258-3.294-7.296c-1.286-.038 1.526 6.296 1.526 6.296s-5.494-8.979-7.092-8.143c-1.596.837 5.751 8.796 5.751 8.796s-4.019-3.458-4.904-2.482c-.885.977 4.462 3.963 4.462 3.963s-2.358-.53-2.356.255c.003.784 3.98 2.075 6.341 1.63z" fill="#fff"/><path d="M36.736 123.5s3.143-2.781 3.138-3.562c-.005-.78-1.863 1.399-1.863 1.399s2.447-5.697 1.641-6.383c-.806-.687-2.262 4.83-2.262 4.83s1.095-8.597-.362-8.882c-1.456-.285-.835 8.611-.835 8.611s-.8-4.291-1.872-4.119c-1.072.171.825 4.843.825 4.843s-1.241-1.555-1.644-1.05c-.403.506 1.488 3.383 3.234 4.313z" fill="#407BFF"/><path opacity=".2" d="M36.736 123.5s3.143-2.781 3.138-3.562c-.005-.78-1.863 1.399-1.863 1.399s2.447-5.697 1.641-6.383c-.806-.687-2.262 4.83-2.262 4.83s1.095-8.597-.362-8.882c-1.456-.285-.835 8.611-.835 8.611s-.8-4.291-1.872-4.119c-1.072.171.825 4.843.825 4.843s-1.241-1.555-1.644-1.05c-.403.506 1.488 3.383 3.234 4.313z" fill="#fff"/><path d="M38.623 124.384h-10.51s2.093-3.202 2.985-2.796c1.161.529 2.022-2.372 3.307-1.684.453.241.23 1.018.516 1.33.471.516 1.07.416 1.64.7 1.115.555 1.512 1.291 2.062 2.45z" fill="#407BFF"/><path d="M63.452 55.375s-12.102-1.888-14.413-.898c-2.312.99-3.072 4.552-3.072 4.552s-.411.722.84.812c0 0-5.123 12.762-3.504 15.208 1.62 2.446 17.936 3.422 20.15 2.226 2.213-1.196 7.53-21.002 0-21.9z" fill="#263238"/><path d="M70.58 67.535s1.602 3.72 1.963 4.237c.362.516 8.334 4.184 8.334 4.184s.966-.154 1.947 0c.982.156 2.338.569 2.461.724.123.155-1.483 2.48-1.483 2.48s-3.185.198-3.58-1.064c0 0-7.989-2.966-8.919-3.741-.93-.775-3.513-5.373-3.513-5.373l2.79-1.447z" fill="#E4897B"/><path d="M68.289 59.394c1.497.892 3.842 10.505 4.345 11.644.504 1.14 6.623 3.917 6.623 3.917l-2.716 2.598s-6.19-2.741-6.97-3.524c-.782-.784-3.868-8.76-3.868-8.76l2.586-5.875z" fill="#407BFF"/><path d="M67.79 81.358s25.243-3.625 26.576 1.914c1.409 5.857-18.86 9.807-30.975 10.22-12.114.413-15.6-2.248-13.653-17.217l16.342-.04 1.71 5.123z" fill="#263238"/><path opacity=".2" d="M67.79 81.358s25.243-3.625 26.576 1.914c1.409 5.857-18.86 9.807-30.975 10.22-12.114.413-15.6-2.248-13.653-17.217l16.342-.04 1.71 5.123z" fill="#000"/><path d="M90.588 89.943a.077.077 0 01-.088-.005.062.062 0 01-.022-.075c.04-.134.441-1.3.847-1.421a.252.252 0 01.242.07c.115.095.17.244.144.391-.066.218-.199.41-.38.547-.23.19-.48.354-.743.493zm.105-.224c.377-.165.683-.46.863-.831a.265.265 0 00-.103-.267.087.087 0 00-.095-.028.274.274 0 00-.093.055c-.255.32-.448.683-.572 1.071z" fill="#407BFF"/><path d="M90.567 89.958a.066.066 0 01-.076-.022c-.037-.033-.597-.738-.505-1.215a.45.45 0 01.193-.292.26.26 0 01.323-.03c.293.206.257 1.151.114 1.51l-.01.035a.073.073 0 01-.04.014zm-.318-1.384a.297.297 0 00-.097.17c-.058.301.222.753.374.97.092-.403.063-1.066-.109-1.185-.019-.01-.053-.037-.14.023l-.028.022z" fill="#407BFF"/><path d="M81.845 92.909l5.29.003 2.541.002.303-2.674-2.349-.313-5.738-.768-.047 3.75z" fill="#E4897B"/><path d="M89.406 89.905l-.644 3.051a.308.308 0 00.247.367l1.521.274s2.02.513 2.587.151c1.658-1.06 3.254-7.772 2.58-8.27-.247-.182-.676.094-.89.313-.679.696-2.13 2.633-2.704 3.206-.67.67-1.86.69-2.383.663a.306.306 0 00-.314.245z" fill="#263238"/><path opacity=".2" d="M81.845 92.909l5.29.003.495-2.985-5.738-.768-.047 3.75z" fill="#000"/><path d="M61.863 81.177v.667c0 .45.375.864.828.864h24.62c.453 0 .89-.414.89-.864v-.667H61.863z" fill="#263238"/><path opacity=".2" d="M61.863 81.177v.667c0 .45.375.864.828.864h24.62c.453 0 .89-.414.89-.864v-.667H61.863z" fill="#fff"/><path opacity=".2" d="M71.05 81.177v.667c0 .45.381.864.832.864H87.31c.454 0 .89-.414.89-.864v-.667H71.05z" fill="#fff"/><path d="M71.882 82.095h16.264c.5 0 1.03-.392 1.183-.873l3.73-11.7c.153-.48-.126-.902-.625-.902H76.169c-.5 0-1.029.422-1.182.902l-3.73 11.686c-.154.48.125.887.624.887z" fill="#263238"/><path opacity=".2" d="M71.882 82.095h16.264c.5 0 1.03-.392 1.183-.873l3.73-11.7c.153-.48-.126-.902-.625-.902H76.169c-.5 0-1.029.422-1.182.902l-3.73 11.686c-.154.48.125.887.624.887z" fill="#fff"/><path opacity=".2" d="M72.494 82.095h15.653c.499 0 1.028-.392 1.182-.873l3.73-11.7c.153-.48-.126-.902-.625-.902H76.782c-.5 0-1.03.422-1.182.902l-3.73 11.686c-.154.48.125.887.624.887z" fill="#fff"/><path opacity=".2" d="M82.011 75.894c-.2.779.187 1.411.866 1.411.68 0 1.393-.632 1.593-1.412.201-.779-.187-1.411-.866-1.411s-1.392.632-1.593 1.412zm7.395 14.011l-.644 3.051a.308.308 0 00.247.367l1.521.274s2.02.513 2.587.151c1.658-1.06 3.254-7.772 2.58-8.27-.247-.182-.676.094-.89.313-.679.696-2.13 2.633-2.704 3.206-.67.67-1.86.69-2.383.663a.306.306 0 00-.314.245z" fill="#fff"/><path d="M54.595 78.395l-5.107.067.098-1.66 5.009-.107v1.7zm10.073-1.919l1.524-.033.547 1.793-2.071.027v-1.787zm-.652.014v1.782l-8.636.112v-1.707l8.636-.187z" fill="#000"/><path d="M59.038 77.96l-.025-.694c-.014-.386.27-.713.632-.728l1.562-.065a.644.644 0 01.472.185c.13.127.204.3.211.488l.026.693c.014.386-.27.713-.632.728l-1.562.066a.56.56 0 01-.026 0c-.351.001-.643-.296-.658-.673zm2.235.316a.4.4 0 00.368-.425l-.025-.693a.42.42 0 00-.123-.285.36.36 0 00-.276-.108l-1.562.066c-.211.008-.376.2-.368.424l.025.694c.009.225.184.403.399.392l1.562-.066z" fill="#fff"/><path d="M59.307 77.734h.783a.18.18 0 000-.36h-.783a.18.18 0 000 .36z" fill="#fff"/><path d="M68.289 59.394s-1.97 12.45-1.147 16.902l-18.21.53s2.152-12.862 5.02-17.714c0 0 4.757-7.944 14.337.282z" fill="#407BFF"/><path opacity=".6" d="M68.289 59.394s-1.97 12.45-1.147 16.902l-18.21.53s2.152-12.862 5.02-17.714c0 0 4.757-7.944 14.337.282z" fill="#fff"/><path d="M57.605 56.62s3.02 2.951 4.765 2.47c1.747-.48 2.4-1.37 2.4-1.37s-1.402-.618-1.25-.95c.018-.039.063-.108.126-.209.52-.79 2.372-3.319 2.372-3.319l-3.974-2.226s-.326.767-.725 1.682c-.537 1.214-1.207 2.688-1.436 2.962-.396.481-2.278.96-2.278.96z" fill="#E4897B"/><path opacity=".2" d="M61.319 52.698c.25 1.4.86 3.055 2.327 3.863.52-.79 2.372-3.319 2.372-3.319l-3.974-2.226s-.327.766-.725 1.682z" fill="#000"/><path d="M60.522 49.947s-.397 1.26-.32 2.15c.078.89-.92 1.19-1.044.648 0 0 .018 1.316.872 1.119 0 0-.004.909.764.924 0 0 1.072-1.379.955-3.085-.116-1.707-1.227-1.756-1.227-1.756zm6.843-4.367c-1.296.537-1.071 3.547 1.077 6.122 1.323-1.139 1.924-3.765 1.61-4.803-.5-1.66-1.558-1.781-2.687-1.318z" fill="#263238"/><path d="M69.254 52.908s0 .004-.004.01a9.037 9.037 0 01-.413 1.01c-1.278 2.604-4.952 3.109-6.579.535l-.02-.026c-1.073-1.732-.67-3.35-.222-6.153a3.85 3.85 0 01.662-1.65 3.87 3.87 0 015.39-.95c2.133 1.481 2.005 4.831 1.186 7.224z" fill="#E4897B"/><path d="M65.975 49.969c-.05.225.03.434.176.466.147.032.305-.121.355-.346.05-.225-.026-.433-.171-.468-.146-.035-.294.13-.36.348zm2.557.577c-.05.225.03.434.176.467.147.032.308-.12.36-.349.051-.227-.03-.434-.176-.466-.147-.032-.31.123-.36.348z" fill="#263238"/><path d="M67.674 50.465a8.23 8.23 0 00.644 2.166c-.49.28-1.121-.042-1.121-.042l.477-2.124z" fill="#DE5753"/><path d="M65.458 49.005a.131.131 0 01-.08-.037.137.137 0 01.013-.192 1.34 1.34 0 011.199-.304.13.13 0 01.094.16l-.003.009a.14.14 0 01-.168.09 1.068 1.068 0 00-.943.25.137.137 0 01-.112.024zm4.432.94a.14.14 0 01-.103-.103 1.077 1.077 0 00-.61-.764.137.137 0 01-.081-.174.137.137 0 01.171-.083c.4.175.692.533.782.96a.134.134 0 01-.098.162h-.002a.155.155 0 01-.059.002z" fill="#263238"/><path d="M65.019 52.62s.294 1.01 1.647 1.244" stroke="#263238" stroke-width=".557" stroke-miterlimit="10" stroke-linecap="round" stroke-linejoin="round"/><path d="M69.805 47.824s.835-.641.801-1.389c-.05-1.09-.707-1.817-1.47-2.27-.569-.367-1.4-.643-2.614-.714-3.192-.188-4.928.77-5.474 2.475-.338.604-.33 1.725-.027 2.777l.004.02.001-.002c.18.617.46 1.208.834 1.65 1.941-1.687 2.666-2.877 2.361-3.671.062-.02 1.03-.883 1.458-.906.616-.033 1.76.554 2.686 1.105.507.302 1.03-.179 1.03-.179l.41 1.104z" fill="#263238"/><path d="M60.205 50.2c.042.714.365 1.382.899 1.857.712.621 1.473.082 1.616-.802.128-.797-.09-2.081-.967-2.362-.877-.28-1.596.433-1.548 1.308z" fill="#E4897B"/><path d="M60.202 52.096s1.181-4.592 4.101-6.301c2.92-1.71 5.946-.518 5.946-.518s-.107-1.227-.196-1.37c-.089-.142-1.536-.64-1.536-.64s-.823-1.211-1.966-1.603c-1.144-.391-4.567-.498-5.757.499-1.19.997-1.986 3.026-1.482 3.062.505.036.89.036.89.036s-.942 3.26-.539 3.748c0 0-.7 2.268.539 3.087zm5.858 42.052a.079.079 0 01.081-.037c.03.004.051.027.054.056.027.138.215 1.356-.088 1.653a.253.253 0 01-.247.05.413.413 0 01-.309-.28 1.08 1.08 0 01.081-.66 4.37 4.37 0 01.428-.782zm.011.246c-.256.323-.39.726-.376 1.138.028.1.113.174.215.189a.087.087 0 00.097-.02.272.272 0 00.057-.092c.076-.401.079-.813.008-1.215z" fill="#407BFF"/><path d="M74.117 88.187l-5.02 1.67-2.411.8.558 2.633 2.328-.445 5.686-1.086-1.141-3.572z" fill="#E4897B"/><path d="M67.894 93.427l-.354-3.098a.309.309 0 00-.35-.27l-1.53.221s-2.079.151-2.502.674c-1.238 1.53-.63 8.403.167 8.661.292.095.611-.302.745-.577.425-.875 1.189-3.171 1.552-3.896.424-.848 1.547-1.244 2.052-1.383a.306.306 0 00.22-.332z" fill="#263238"/><path d="M66.072 94.124a.066.066 0 01.077-.015c.049.011.872.376 1.013.84a.45.45 0 01-.035.349.26.26 0 01-.272.177c-.355-.047-.763-.9-.803-1.283l-.007-.036a.072.072 0 01.027-.032zm.925 1.078a.297.297 0 00.007-.195c-.089-.294-.548-.564-.783-.685.106.4.441.973.649.998.02 0 .064.008.113-.086l.014-.032z" fill="#407BFF"/><path opacity=".2" d="M74.117 88.187l-5.02 1.67.475 2.988 5.686-1.086-1.141-3.572z" fill="#000"/><path d="M70.445 93.311l1.431.134-.855-4.95-1.644.864 1.068 3.953z" fill="#407BFF"/><path opacity=".6" d="M70.445 93.311l1.431.134-.855-4.95-1.644.864 1.068 3.953z" fill="#fff"/><path opacity=".2" d="M67.894 93.427l-.354-3.098a.309.309 0 00-.35-.27l-1.53.221s-2.079.151-2.502.674c-1.238 1.53-.63 8.403.167 8.661.292.095.611-.302.745-.577.425-.875 1.189-3.171 1.552-3.896.424-.848 1.547-1.244 2.052-1.383a.306.306 0 00.22-.332z" fill="#fff"/><path d="M86.655 89.538s-23.485-9.121-30.677-7.597-7.226 5.288-3.58 8.797c3.645 3.509 9.094 2.157 9.094 2.157s-4.28-2.566-3.982-4.149c.298-1.583 3.019 2.038 3.019 2.038s14.194 3.47 25.912 2.556l.214-3.802z" fill="#263238"/><path d="M86.94 89.158l-1.319-.604-.758 4.942 1.834-.3.244-4.038z" fill="#407BFF"/><path opacity=".6" d="M86.94 89.158l-1.319-.604-.758 4.942 1.834-.3.244-4.038z" fill="#fff"/><path d="M56.114 55.663s3.177 8.636 3.013 10.582c-.164 1.944-6.716 16.463-6.716 16.463L47 84.883s1.125-21.353 9.115-29.22z" fill="#407BFF"/><path opacity=".2" d="M56.114 55.663s3.177 8.636 3.013 10.582c-.164 1.944-6.716 16.463-6.716 16.463L47 84.883s1.125-21.353 9.115-29.22z" fill="#000"/><path d="M67.585 80.744s-1.697-4.028-2.24-6.262C64.8 72.25 66.7 60.784 65.68 56.94l2.608 2.455-1.107 14.321.404 7.03z" fill="#407BFF"/><path opacity=".2" d="M67.585 80.744s-1.697-4.028-2.24-6.262C64.8 72.25 66.7 60.784 65.68 56.94l2.608 2.455-1.107 14.321.404 7.03z" fill="#000"/><path d="M48.316 74.482s11.262 2.165 9.482-18.414l-1.834-.162s1.117 7.82-.937 12.935c-2.054 5.116-6.903 4.875-6.903 4.875l.192.766z" fill="#263238"/><path d="M59.06 65.34l-3.78-8.779-1.147 1.51s-.203-2.129.462-2.746 2.5.155 3.228.339c.728.183 1.238 9.677 1.238 9.677z" fill="#407BFF"/><path d="M65.019 57.074s1.459 4.315 1.222 11.08c-.237 6.765.977 6.2.977 6.2l.175-.639s-.683-.078-.626-2.357c.056-2.279.352-11.476-.526-13.891l-1.222-.393z" fill="#263238"/><path d="M65.782 65.091s.346-6.484-1.46-8.378c0 0 1.365-.511 1.919 0 .554.51.69 5.446-.398 8.628" fill="#407BFF"/><path d="M56.634 67.728s1.648 3.828 2.02 4.36c.373.532 8.577 4.306 8.577 4.306s.994-.16 2.004 0 2.406.585 2.532.745c.126.16-1.526 2.552-1.526 2.552s-3.278.203-3.684-1.095c0 0-8.221-3.053-9.178-3.85-.957-.797-3.615-5.53-3.615-5.53l2.87-1.488z" fill="#E4897B"/><path d="M54.595 59.143c1.757.005 4.221 10.727 4.692 12.18.47 1.453 7.73 4.57 7.73 4.57l-2.313 2.741s-7.877-2.844-8.803-4.152c-.926-1.308-3.73-8.76-3.859-10.482-.13-1.72 1.39-4.861 2.553-4.857z" fill="#407BFF"/></svg>