<svg width="180" height="138" fill="none" xmlns="http://www.w3.org/2000/svg"><path d="M54.197 94.708a14.778 14.778 0 0014.03-3.314c3.783-3.432 8.983-4.928 13.855-4.677 8.683.416 16.464 5.045 23.697 8.36 3.358 1.546 6.831 3.037 10.642 3.76 9.206 1.756 17.588-2.789 24.379-9.35 13.993-13.512 17.694-35.78 13.459-51.188-2.776-10.09-16.98-29.965-35.452-28.006-17.525 1.864-6.971 27.27-23.546 29.74C76.948 42.766 76.3 14.156 53.862 18.045c-20.254 3.513-30.34 21.491-24.014 36.236 3.09 7.2 9.004 12.867 12.153 19.993 3.38 7.648 1.882 17.33 12.196 20.434z" fill="#90CAF9"/><path opacity=".8" d="M54.197 94.708a14.778 14.778 0 0014.03-3.314c3.783-3.432 8.983-4.928 13.855-4.677 8.683.416 16.464 5.045 23.697 8.36 3.358 1.546 6.831 3.037 10.642 3.76 9.206 1.756 17.588-2.789 24.379-9.35 13.993-13.512 17.694-35.78 13.459-51.188-2.776-10.09-16.98-29.965-35.452-28.006-17.525 1.864-6.971 27.27-23.546 29.74C76.948 42.766 76.3 14.156 53.862 18.045c-20.254 3.513-30.34 21.491-24.014 36.236 3.09 7.2 9.004 12.867 12.153 19.993 3.38 7.648 1.882 17.33 12.196 20.434z" fill="#6B788E"/><path d="M91.87 138c39.433 0 71.4-1.866 71.4-4.169 0-2.302-31.967-4.168-71.4-4.168-39.434 0-71.4 1.866-71.4 4.168 0 2.303 31.966 4.169 71.4 4.169z" fill="#F5F5F5"/><path d="M134.274 40.207c.516 1.727 3.174 4.96 3.384 7.313.21 2.353-4.323 6.117-4.323 6.117s-3.388-11.328-1.267-12.65c2.121-1.322 2.206-.78 2.206-.78z" fill="#263238"/><path d="M124.964 52.444c-.802.67-1.59 1.233-2.412 1.811a31.97 31.97 0 01-2.53 1.599 28.641 28.641 0 01-4.072 1.992c-.236.096-.476.188-.719.269l-.736.258a4.876 4.876 0 01-1.937.14 11.077 11.077 0 01-1.606-.31 21.213 21.213 0 01-2.876-1.024 38.283 38.283 0 01-5.225-2.78l.688-1.281a54.3 54.3 0 002.644 1.056c.884.32 1.775.66 2.667.936.868.285 1.754.516 2.651.692.412.08.829.131 1.248.151.313.024.627-.008.928-.096a23.68 23.68 0 002.46-1.104 25.96 25.96 0 001.212-.667c.398-.236.803-.464 1.197-.707a51.43 51.43 0 002.331-1.543 44.533 44.533 0 002.209-1.646l1.878 2.254z" fill="#E58A7B"/><path d="M126.909 48.522c-.913-.715-4.691 1.624-5.837 2.6l.836 5.056s5.432-2.276 5.756-3.83c.343-1.624-.074-3.281-.755-3.826z" fill="#90CAF9"/><path opacity=".2" d="M126.909 48.522c-.913-.715-4.691 1.624-5.837 2.6l.836 5.056s5.432-2.276 5.756-3.83c.343-1.624-.074-3.281-.755-3.826z" fill="#000"/><path d="M139.618 63.823l-11.468 2.235c-5.925-16.045-4.636-16.572-4.636-16.572a22.97 22.97 0 012.578-1.215l.154-.059c.737-.269.884-.309 1.864-.596 1.686-.402 3.259-.737 5.207-1.013l.368-.052a47.07 47.07 0 011.042-.114c.228-.025.457-.04.674-.055l.737-.04c1.259-.063 2.161-.045 2.161-.045-.35 10.02.217 12.897 1.319 17.526z" fill="#90CAF9"/><path opacity=".2" d="M139.618 63.823l-11.468 2.235c-5.925-16.045-4.636-16.572-4.636-16.572a22.97 22.97 0 012.578-1.215l.154-.059c.737-.269.884-.309 1.864-.596 1.686-.402 3.259-.737 5.207-1.013l.368-.052a47.07 47.07 0 011.042-.114c.228-.025.457-.04.674-.055l.737-.04c1.259-.063 2.161-.045 2.161-.045-.35 10.02.217 12.897 1.319 17.526z" fill="#000"/><path d="M130.636 41.36c-.737 1.218 1.933 1.782 3.513.533 1.263-1.002.965-3.314-.118-3.852-1.083-.537-3.395 3.318-3.395 3.318z" fill="#90CAF9"/><path opacity=".4" d="M130.636 41.36c-.737 1.218 1.933 1.782 3.513.533 1.263-1.002.965-3.314-.118-3.852-1.083-.537-3.395 3.318-3.395 3.318z" fill="#000"/><path d="M141.797 130.233l-2.868.214-1.05-6.603 2.869-.213 1.049 6.602zm20.291-9.228l-2.434 1.532-4.334-5.141 2.434-1.536 4.334 5.145z" fill="#E58A7B"/><path d="M137.879 123.844l.582 3.668 2.828-.475-.538-3.403-2.872.21zm19.879-7.98l-2.438 1.532 1.797 2.129 2.489-1.47-1.848-2.191z" fill="#CF6F64"/><path d="M128.327 66.058s-.041 22.765 1.819 31.338c1.937 8.919 7.634 29.21 7.634 29.21l4.132-.534s-3.23-20.497-4.607-29.36c-1.499-9.66-.578-32.29-.578-32.29l-8.4 1.636z" fill="#90CAF9"/><path opacity=".7" d="M128.327 66.058s-.041 22.765 1.819 31.338c1.937 8.919 7.634 29.21 7.634 29.21l4.132-.534s-3.23-20.497-4.607-29.36c-1.499-9.66-.578-32.29-.578-32.29l-8.4 1.636z" fill="#000"/><path opacity=".5" d="M136.469 74.513l-2.026-2.018c.078 8.746.567 13.066 2.25 17.772-.265-4.975-.287-10.86-.224-15.754z" fill="#000"/><path d="M131.177 65.469s6.176 18.814 9.24 29.652c3.233 11.434 15.628 24.08 15.628 24.08l3.558-2.055s-8.47-12.005-11.586-22.674c-6.333-21.656-3.73-26.245-8.403-30.65l-8.437 1.647z" fill="#90CAF9"/><path opacity=".7" d="M131.177 65.469s6.176 18.814 9.24 29.652c3.233 11.434 15.628 24.08 15.628 24.08l3.558-2.055s-8.47-12.005-11.586-22.674c-6.333-21.656-3.73-26.245-8.403-30.65l-8.437 1.647z" fill="#000"/><path d="M126.324 34.716c1.642.548 3.133 4.625 3.196 6.23.063 1.606-4.758 3.82-4.758 3.82s-2.125-5.156-1.532-8.47c.258-1.44 3.094-1.58 3.094-1.58z" fill="#263238"/><path d="M103.783 53.254l-1.948-2.121-.637 2.658s1.384 1.223 2.504.803l.081-1.34z" fill="#E58A7B"/><path d="M99.86 50.525l-1.362 1.083 2.7 2.183.637-2.658-1.974-.608z" fill="#E58A7B"/><path d="M158.892 121.988l2.275-2.294a.23.23 0 01.302-.022l2.074 1.539a.455.455 0 01.175.335.466.466 0 01-.135.354c-.81.784-1.237 1.123-2.239 2.132-.615.622-1.451 1.591-2.301 2.449-.851.858-1.746.059-1.473-.368 1.241-1.941 1.02-2.667 1.104-3.653a.735.735 0 01.218-.472zm-20.155 8.046h3.233c.057 0 .112.02.156.057a.242.242 0 01.084.142l.508 2.556a.431.431 0 01-.095.357.437.437 0 01-.336.155c-1.13-.019-1.675-.085-3.097-.085-.873 0-2.677.089-3.885.089-1.208 0-1.337-1.194-.84-1.3 2.21-.487 3.075-1.153 3.801-1.794a.739.739 0 01.471-.177z" fill="#263238"/><path d="M138.671 52.105l-1.768 1.053 2.04 7.67c-.445-2.323-.246-4.875-.272-8.723z" fill="#90CAF9" opacity=".27"/><path d="M128.625 40.13c1.256 1.049 3.079 2.577 5.225.79 1.842-1.538 3.131-5.578-.173-5.726-1.727-.077-5.052 4.935-5.052 4.935z" fill="#263238"/><path d="M131.659 40.847c0 1.738.269 4.872 1.657 5.763 0 0-.125 1.79-3.24 2.394-3.421.666-1.967-1.381-1.967-1.381 1.783-.81 1.473-2.187.884-3.425l2.666-3.35z" fill="#E58A7B"/><path d="M130.573 42.213l-1.576 1.985c.138.287.252.585.339.891.692-.243 1.521-1.215 1.451-1.977a2.514 2.514 0 00-.214-.899z" fill="#CF6F64"/><path d="M131.825 36.855c.368 2.832.593 4.022-.541 5.734-1.705 2.578-5.263 2.412-6.474-.25-1.105-2.398-1.517-6.629 1.002-8.268a3.888 3.888 0 013.783-.286 3.89 3.89 0 012.23 3.07z" fill="#E58A7B"/><path d="M126.905 31.895c-1.915 1.359 1.926 1.76 1.93 3.73 0 .814 1.337 3.396 3.237 3.248l1.841-3.27c1.937-3.13-2.64-6.812-7.008-3.708z" fill="#263238"/><path d="M126.906 31.895c-3.37-.177-4.839 2.504-4.453 4.912a21.951 21.951 0 017.196-.57c4.618.471-2.743-4.342-2.743-4.342z" fill="#263238"/><path d="M132.746 39.297a2.082 2.082 0 01-.483 1.517c-.475.556-1.105.228-1.326-.43-.187-.597-.165-1.603.475-1.92a.941.941 0 011.334.833z" fill="#E58A7B"/><path d="M127.734 38.465c.044.228-.04.434-.188.464-.147.03-.305-.133-.349-.368-.045-.236.04-.439.187-.468.148-.03.306.143.35.372zm-2.574.5c.044.229-.041.439-.188.468-.147.03-.306-.132-.35-.368-.044-.236.041-.438.188-.464.147-.026.305.133.35.364z" fill="#263238"/><path d="M124.88 38.605l-.578-.048s.364.372.578.047z" fill="#263238"/><path d="M125.918 39.227a6.258 6.258 0 01-.53 1.61 1 1 0 00.843 0l-.313-1.61z" fill="#DF5753"/><path d="M127.193 41.573a.067.067 0 01-.067-.056.078.078 0 01.001-.026.07.07 0 01.03-.042.063.063 0 01.025-.009 1.846 1.846 0 001.347-1.016.067.067 0 01.074-.015.068.068 0 01.042.062.076.076 0 01-.005.026 1.947 1.947 0 01-1.433 1.076h-.014zm1.134-4.088a.14.14 0 01-.092-.033 1.083 1.083 0 00-.943-.28.144.144 0 01-.158-.214.141.141 0 01.088-.066 1.366 1.366 0 011.197.343.137.137 0 010 .191.129.129 0 01-.04.04.125.125 0 01-.052.02zm-4.592.512a.12.12 0 01-.052 0 .133.133 0 01-.074-.075.138.138 0 01-.011-.053.137.137 0 01.012-.053 1.35 1.35 0 01.931-.82.135.135 0 01.103.02c.015.01.028.024.037.04.01.015.016.032.019.05a.135.135 0 01-.058.139.13.13 0 01-.049.02 1.102 1.102 0 00-.737.658.134.134 0 01-.05.054.142.142 0 01-.071.02z" fill="#263238"/><path d="M158.037 123.325a.392.392 0 01-.316-.177.23.23 0 01-.041-.228c.129-.347 1.145-.567 1.26-.593a.066.066 0 01.039.004.075.075 0 01.031.025.07.07 0 01.012.037.07.07 0 01-.012.037c-.199.328-.59.876-.954.895h-.019zm.77-.829c-.401.103-.932.287-.998.472a.095.095 0 00-.004.053.097.097 0 00.026.046.246.246 0 00.221.121c.195-.011.471-.265.755-.692z" fill="#90CAF9"/><path d="M158.641 122.496c-.368 0-.828-.092-.965-.29a.241.241 0 01.026-.299.367.367 0 01.269-.14H158c.413 0 .98.556 1.002.578a.077.077 0 01.019.031.073.073 0 010 .036.083.083 0 01-.018.03.092.092 0 01-.03.018c-.109.026-.22.038-.332.036zm-.641-.592h-.022a.206.206 0 00-.094.025.208.208 0 00-.075.063c-.052.07-.037.11-.018.136.11.17.673.265 1.02.225a1.63 1.63 0 00-.811-.449zm-20.32 8.635a1.1 1.1 0 01-.703-.177.364.364 0 01-.14-.328.216.216 0 01.103-.184c.339-.198 1.525.391 1.657.457a.068.068 0 01.029.029c.007.013.01.027.008.041a.07.07 0 01-.017.037.07.07 0 01-.034.022 4.89 4.89 0 01-.903.103zm-.545-.597a.258.258 0 00-.125.026.074.074 0 00-.029.029.074.074 0 00-.008.041.264.264 0 00.092.221c.184.158.659.184 1.286.081a3.87 3.87 0 00-1.216-.398z" fill="#90CAF9"/><path d="M138.568 130.429h-.026c-.368-.159-1.079-.785-1.027-1.105 0-.074.066-.17.25-.188h.055c.641 0 .807 1.171.814 1.223a.074.074 0 01-.004.036.073.073 0 01-.022.03.079.079 0 01-.04.004zm-.737-1.164h-.04c-.118 0-.125.055-.125.07-.03.195.456.685.824.902-.073-.287-.261-.965-.673-.965l.014-.007z" fill="#90CAF9"/><path d="M127.454 38.104l-.578-.052s.365.376.578.052z" fill="#263238"/><path d="M129.984 51.453c-6.161 1.373-4.257-2.353-3.889-3.175l.155-.058c.736-.27.884-.31 1.863-.597a37.18 37.18 0 015.207-1.013l.368-.051c.369-.048.704-.085 1.043-.114.228-.026.456-.04.674-.056l.736-.044c.125.575.431 3.646-6.157 5.108z" fill="#E58A7B"/><path d="M139.654 63.115l.718.928c.055.07-.022.17-.155.196L128.19 66.58c-.103.022-.199 0-.217-.078l-.306-1.005c0-.07.059-.147.17-.17l11.614-2.26a.212.212 0 01.203.047z" fill="#26395A"/><path d="M138.347 64.717l.313-.059c.062 0 .103-.051.092-.092l-.405-1.303c0-.04-.074-.06-.137-.048l-.309.059c-.062 0-.103.055-.092.092l.405 1.307c.011.037.074.059.133.044z" fill="#90CAF9"/><path d="M131.302 69.063l-2.397-.891.368 2.28s1.738.625 2.626-.178l-.597-1.211z" fill="#E58A7B"/><path d="M126.622 68.776l-.571 1.495 3.222.18-.368-2.28-2.283.605z" fill="#E58A7B"/><path d="M129.085 66.522l.313-.059c.059 0 .103-.051.089-.092l-.406-1.304c0-.04-.07-.058-.132-.047l-.313.058c-.063 0-.103.056-.089.093l.406 1.307c.011.037.07.059.132.044zm4.633-.906l.309-.059c.063 0 .103-.052.092-.092l-.405-1.304c0-.04-.074-.058-.136-.047l-.309.058c-.063 0-.104.056-.093.093l.406 1.307a.116.116 0 00.136.044zm-1.311-20.468c.262-.1.589.822.508.94-.188.268-3.627 1.207-3.782.68-.009-.285.034-.57.129-.839.1-.177.862.147 3.145-.78z" fill="#90CAF9"/><path d="M131.825 45.17c.133-.305.512-.795.844-.515.331.28.471.884.254.983-.217.1-1.326.044-1.098-.467z" fill="#90CAF9"/><path d="M132.529 45.329c.228-.243.736-.578.968-.203.232.376.148.99-.088 1.01-.236.018-1.267-.406-.88-.807z" fill="#90CAF9"/><path d="M132.654 45.274a1.023 1.023 0 01.512-.983c.42-.273.829-.45.991-.737.069.27.083.55.04.825-.085.394-1.392.696-1.304 1.038l-.239-.143z" fill="#90CAF9"/><path d="M132.599 45.255a1.018 1.018 0 01-.104-1.105c.199-.456.45-.825.435-1.148.205.188.369.416.482.67.14.368-.791 1.336-.53 1.58l-.283.003zm25.612 71.939a.057.057 0 01-.022-.007.039.039 0 01-.015-.016c-.085-.117-8.503-12.13-11.589-22.684a154.683 154.683 0 01-4.633-20.652c-.637-3.932-1.024-6.308-2.29-8.256a.047.047 0 010-.066.047.047 0 01.062 0c1.282 1.966 1.668 4.349 2.306 8.293a154.928 154.928 0 004.64 20.622c3.082 10.54 11.493 22.537 11.577 22.659.007.009.011.02.011.031a.051.051 0 01-.011.031.044.044 0 01-.011.029.047.047 0 01-.025.016z" fill="#90CAF9"/><path opacity=".4" d="M158.211 117.194a.057.057 0 01-.022-.007.039.039 0 01-.015-.016c-.085-.117-8.503-12.13-11.589-22.684a154.683 154.683 0 01-4.633-20.652c-.637-3.932-1.024-6.308-2.29-8.256a.047.047 0 010-.066.047.047 0 01.062 0c1.282 1.966 1.668 4.349 2.306 8.293a154.928 154.928 0 004.64 20.622c3.082 10.54 11.493 22.537 11.577 22.659.007.009.011.02.011.031a.051.051 0 01-.011.031.044.044 0 01-.011.029.047.047 0 01-.025.016z" fill="#000"/><path d="M142.652 126.057l-5.627.73-.369-1.569 5.859-1.241.137 2.08zm17.249-9.037l-4.15 2.398-1.4-1.197 4.541-3.071 1.009 1.87z" fill="#90CAF9"/><path d="M140.424 50.197c.199 1.024.313 1.989.423 2.987.111.998.151 1.985.181 2.983a29.464 29.464 0 01-.067 3.016 26.29 26.29 0 01-.154 1.517c-.03.25-.063.504-.111.758l-.136.781a4.91 4.91 0 01-.814 1.764c-.317.444-.666.864-1.046 1.256-.71.73-1.473 1.407-2.283 2.025a38.208 38.208 0 01-4.956 3.237l-.789-1.222c.737-.586 1.473-1.19 2.21-1.805a40.05 40.05 0 002.11-1.885 23.171 23.171 0 001.882-1.985c.27-.323.516-.665.736-1.024.174-.261.299-.552.369-.858.119-.894.189-1.794.21-2.696v-1.38c0-.46-.019-.929-.041-1.393a48.514 48.514 0 00-.228-2.784c-.1-.942-.229-1.874-.369-2.747l2.873-.545z" fill="#E58A7B"/><path d="M139.978 47.067c1.573 1.274 1.197 5.06 1.197 5.06l-5.303 1.745s.243-4.363.509-5.932c.309-1.867 2.047-2.129 3.597-.873z" fill="#90CAF9"/><path opacity=".2" d="M139.978 47.067c1.573 1.274 1.197 5.06 1.197 5.06l-5.303 1.745s.243-4.363.509-5.932c.309-1.867 2.047-2.129 3.597-.873z" fill="#000"/><path d="M69.926 62.865a4.05 4.05 0 00-3.948-3.141h-29.46a4.051 4.051 0 00-4.05 4.05v65.483a4.052 4.052 0 004.05 4.051h93.536a4.054 4.054 0 002.865-1.186 4.054 4.054 0 001.186-2.865V74.251a4.053 4.053 0 00-4.051-4.05h-50.91a9.457 9.457 0 01-9.218-7.336z" fill="#90CAF9"/><path opacity=".6" d="M69.926 62.865a4.05 4.05 0 00-3.948-3.141h-29.46a4.051 4.051 0 00-4.05 4.05v65.483a4.052 4.052 0 004.05 4.051h93.536a4.054 4.054 0 002.865-1.186 4.054 4.054 0 001.186-2.865V74.251a4.053 4.053 0 00-4.051-4.05h-50.91a9.457 9.457 0 01-9.218-7.336z" fill="#000"/><path opacity=".22" d="M59.526 42.471l2.626 8.503a4.275 4.275 0 005.343 2.821l8.5-2.626-16.469-8.698z" fill="#90CAF9"/><path d="M59.526 42.471l-30.38 9.387a4.266 4.266 0 00-2.825 5.34l17.345 56.151a4.274 4.274 0 005.343 2.821l38.884-12.013a4.262 4.262 0 002.993-3.682 4.27 4.27 0 00-.172-1.657l-14.73-47.649-16.458-8.698z" fill="#90CAF9"/><path opacity=".8" d="M59.526 42.471l-30.38 9.387a4.266 4.266 0 00-2.825 5.34l17.345 56.151a4.274 4.274 0 005.343 2.821l38.884-12.013a4.262 4.262 0 002.993-3.682 4.27 4.27 0 00-.172-1.657l-14.73-47.649-16.458-8.698z" fill="#fff"/><path d="M75.873 101.705l-25.277 7.807a1.87 1.87 0 01-2.335-1.23 1.87 1.87 0 011.234-2.331l25.277-7.811a1.87 1.87 0 012.335 1.234 1.872 1.872 0 01-1.234 2.331zM48.67 55.887l-13.367 4.128a1.875 1.875 0 01-2.335-1.23A1.874 1.874 0 0134.2 56.45l13.368-4.128a1.867 1.867 0 012.335 1.23 1.874 1.874 0 01-1.234 2.335zm10.908 4.378L37.483 67.09a1.87 1.87 0 01-2.324-1.234 1.867 1.867 0 011.23-2.33L58.484 56.7a1.87 1.87 0 012.335 1.23 1.878 1.878 0 01-1.241 2.334zm12.336 3.937L39.67 74.145a1.867 1.867 0 01-2.331-1.23 1.875 1.875 0 011.23-2.335l32.244-9.943a1.87 1.87 0 012.331 1.23 1.87 1.87 0 01-1.23 2.335zm2.184 7.07l-18.744 5.793a1.871 1.871 0 01-2.331-1.234 1.87 1.87 0 011.23-2.33l18.744-5.794a1.878 1.878 0 012.334 1.234 1.871 1.871 0 01-1.233 2.331zM46.76 79.72l-4.902 1.514a1.87 1.87 0 01-2.335-1.23 1.871 1.871 0 011.234-2.335l4.901-1.514a1.874 1.874 0 012.335 1.23 1.878 1.878 0 01-1.234 2.335zm29.525-1.374l-32.244 9.962a1.871 1.871 0 01-2.33-1.234 1.867 1.867 0 011.23-2.331l32.243-9.961a1.87 1.87 0 012.331 1.23 1.87 1.87 0 01-1.23 2.334zM66.026 89.261l-19.8 6.117a1.87 1.87 0 01-2.332-1.23 1.875 1.875 0 011.23-2.335l19.801-6.116a1.875 1.875 0 012.335 1.233 1.867 1.867 0 01-1.234 2.331zM78.47 85.42l-5.285 1.632a1.874 1.874 0 01-2.335-1.234 1.871 1.871 0 011.234-2.33l5.284-1.632a1.867 1.867 0 012.331 1.23 1.871 1.871 0 01-1.23 2.335zm2.183 7.078l-32.237 9.943a1.872 1.872 0 01-2.335-1.233 1.867 1.867 0 011.234-2.332l32.24-9.96a1.878 1.878 0 012.413 1.962 1.87 1.87 0 01-1.315 1.62z" fill="#90CAF9" opacity=".28"/><path d="M81.345 21.355l9.641 21.484a2.323 2.323 0 01-1.164 3.064L48.924 64.261a2.32 2.32 0 01-3.064-1.164l-9.644-21.484a2.32 2.32 0 011.163-3.068l40.899-18.357a2.328 2.328 0 013.067 1.168z" fill="#90CAF9"/><path opacity=".3" d="M81.345 21.355l9.641 21.484a2.323 2.323 0 01-1.164 3.064L48.924 64.261a2.32 2.32 0 01-3.064-1.164l-9.644-21.484a2.32 2.32 0 011.163-3.068l40.899-18.357a2.328 2.328 0 013.067 1.168z" fill="#000"/><path d="M74.9 20.294l-1.307.586.15.336 1.307-.586-.15-.336zM71.762 21.7l-4.076 1.828.15.336 4.076-1.828-.15-.336zM36.18 43.778l-.337.151 1.117 2.486.335-.15-1.116-2.487z" fill="#90CAF9"/><path opacity=".6" d="M79.975 20.11L69.428 40.77a9.445 9.445 0 01-10.79 4.842l-22.444-5.851c.23-.539.652-.972 1.185-1.215l40.899-18.358a2.32 2.32 0 011.697-.077z" fill="#90CAF9"/><path d="M94.474 46.551l-31.737 1.96a4.27 4.27 0 00-4.01 4.525l3.62 58.656a4.27 4.27 0 004.533 4.006l40.619-2.507a4.265 4.265 0 003.999-4.526l-3.057-49.777-13.968-12.337z" fill="#90CAF9"/><path opacity=".8" d="M94.474 46.551l-31.737 1.96a4.27 4.27 0 00-4.01 4.525l3.62 58.656a4.27 4.27 0 004.533 4.006l40.619-2.507a4.265 4.265 0 003.999-4.526l-3.057-49.777-13.968-12.337z" fill="#fff"/><path d="M96.392 107.965l-26.407 1.631a1.866 1.866 0 01-.229-3.726l26.408-1.628a1.872 1.872 0 011.977 1.746 1.872 1.872 0 01-1.749 1.977zM80.763 57.028l-13.968.855a1.874 1.874 0 01-1.977-1.746 1.874 1.874 0 011.749-1.977l13.968-.862a1.867 1.867 0 011.511 3.099 1.87 1.87 0 01-1.283.631zm9.567 6.828l-23.078 1.421a1.867 1.867 0 01-1.977-1.745 1.87 1.87 0 011.749-1.978l23.075-1.421a1.867 1.867 0 011.977 1.745 1.87 1.87 0 01-1.745 1.978zm11.059 6.735l-33.68 2.077a1.875 1.875 0 01-1.985-1.75 1.867 1.867 0 011.746-1.973l33.684-2.08a1.869 1.869 0 011.511 3.095 1.87 1.87 0 01-1.276.631zm.457 7.387l-19.58 1.208a1.87 1.87 0 01-1.978-1.746 1.867 1.867 0 011.746-1.977l19.58-1.208a1.867 1.867 0 011.978 1.746 1.872 1.872 0 01-1.746 1.977zm-28.562 1.761l-5.122.316a1.867 1.867 0 01-1.974-1.745 1.87 1.87 0 011.746-1.978l5.122-.316a1.875 1.875 0 011.978 1.749 1.871 1.871 0 01-1.75 1.974zm29.018 5.626l-33.684 2.077a1.871 1.871 0 01-1.977-1.745 1.875 1.875 0 011.749-1.978l33.68-2.077a1.87 1.87 0 011.978 1.75 1.869 1.869 0 01-1.746 1.973zm-12.542 8.19l-20.685 1.278a1.874 1.874 0 01-1.978-1.75 1.871 1.871 0 011.75-1.973l20.684-1.278a1.87 1.87 0 011.974 1.75 1.863 1.863 0 01-1.745 1.973zm12.995-.799l-5.524.339a1.867 1.867 0 01-1.973-1.746 1.867 1.867 0 011.745-1.977l5.524-.339a1.87 1.87 0 011.977 1.746 1.874 1.874 0 01-1.749 1.978zm.457 7.387l-33.68 2.077a1.868 1.868 0 01-1.978-1.745 1.87 1.87 0 011.746-1.978l33.684-2.077a1.866 1.866 0 01.228 3.723zm-8.739-53.592l.55 8.883a4.271 4.271 0 004.525 4.003l8.893-.549-13.968-12.337z" fill="#90CAF9" opacity=".22"/><path opacity=".5" d="M84.082 68.709a3.184 3.184 0 00-3.315-3.141H51.27c-2.235 0-4.419 1.815-4.839 4.05l-11.64 59.639c-.435 2.236 1.024 4.051 3.259 4.051h93.536c2.236 0 4.401-1.812 4.839-4.051l9.6-49.162c.435-2.239-1.023-4.05-3.259-4.05H91.87c-4.419 0-7.638-3.042-7.788-7.336z" fill="#90CAF9"/></svg>