<svg width="151" height="146" fill="none" xmlns="http://www.w3.org/2000/svg"><path d="M78.555 122.597c27.893 0 50.504-35.524 50.504-60.622s-21.881-49.978-49.774-49.978c-27.892 0-51.233 24.877-51.233 49.975 0 25.098 22.611 60.625 50.503 60.625z" fill="#FAFAFA" fill-opacity=".1"/><path d="M129.512 34.59c-.301-1.42-.158-2.508.429-3.267.88-1.137 2.948-2.55 5.778-1.996 2.831.554 4.908 3.244 5.328 6.093.283 1.9-.023 3.895-.917 5.985-.548.662-1.1.978-1.657.95-.835-.05-2.502-.576-3.027-1.22-.353-.43-2.331-2.612-5.934-6.546z" fill="#1D252E"/><path d="M138.249 42.77c.261.095.544.112.814.047.329-.06.706-.308 1.129-.744" stroke="#1D252E" stroke-width=".5" stroke-linecap="round"/><path d="M138.311 43.31c.199.116.553.136 1.062.061.51-.075.937-.373 1.28-.894.415.025.805.454 1.17 1.285.546 1.251.074 2.755.53 3.588.305.557.814 1.085 1.526 1.583-2.451.152-4.056-.481-4.816-1.9-.76-1.418-1.01-2.66-.752-3.723zm-9.898 55.42l3.763 32.505-8.049 6.1 14.404-.255-3.545-39.15-6.573.8z" fill="#1D252E"/><path d="M139.731 96.95c.909 9.121 2.399 15.815 3.167 20.395.767 4.58 2.043 9.094 2.007 12.203l-8.619 7.441 13.171-.907c.443-.112.791-1.043.688-3.658l-3.571-36.32-6.843.845z" fill="#1D252E"/><path d="M129.897 34.827l-.608 2.123.44 2.381 1.341 1.646 1.374.71.195 2.462.049 1.645-2.801.614.557 1.965 6.591 1.985 2.755-3.635-.819-.887-2.278.201-.546-4.643 1.113-1.729.461-1.6 1.043-.2.191-1.68-.815-.784-1.41-.186-1.009-1.454.082-1.292-3.609 2.177-2.297.18z" fill="#E4897B"/><path d="M128.597 75.087c-1.303 8.421-2.657 13.72-3.069 17.154-.411 3.434-.617 5.56-.617 6.375 10.432.884 16.887 1.119 19.364.706 2.477-.412 4.552-1.174 6.225-2.284-2.101-12.096-3.754-19.836-5.245-22.774-1.491-2.939-7.045-2.665-16.658.823z" fill="#1D252E"/><path d="M129.897 34.827a5.636 5.636 0 00-.317 4.09c.408 1.39 1.411 2.307 3.008 2.75l.103 4.127-1.955.513m-.776-11.634c.365.211 1.051.158 2.058-.158 1.007-.317 2.269-.997 3.785-2.04a2.52 2.52 0 00.138 1.73c.216.52.608.949 1.108 1.21.857-.292 1.433-.108 1.728.553.441.993.158 1.86-.17 2.03a1.436 1.436 0 01-.894.071c.053.521-.14 1.14-.581 1.857-.442.717-.778 1.115-1.01 1.195l.359 4.552 2.33.179" stroke="#1D252E" stroke-width=".5" stroke-linecap="round"/><path d="M123.136 54.395l-2.047 2.829-6.268-5.364-1.815-2.13-2.636-.79-1.884.048c-1.544 1.227-1.011 2.624 1.537 4.185l2.291.555 8.296 9.015 1.876 1.384 1.388-.243 4.013-5.98-4.751-3.51z" fill="#E4897B"/><path d="M126.922 59.34c-1.818 2.798-3.29 4.847-4.275 4.7-.985-.148-4.433-3.585-10.336-10.315l-2.291-.55c-3.433-2.113-2.464-3.517-1.509-4.022.537-.285 3.28.046 4.127.49.568.296 1.325 1.077 2.272 2.344l6.133 5.24 1.246-1.668" stroke="#1D252E" stroke-width=".5" stroke-linecap="round"/><path d="M129.885 46.408c.119 1.056 2.503 2.04 3.843 2.085 1.339.044 4.401-1.319 6.016-2.633 2.867-.33 3.325.355 4.414 2.48 1.401 3.82-1.002 9.627-1.002 9.627l2.248 16.357-17.396 1.267c.018-2.753.039-4.694.065-5.822.106-4.591.261-7.294.354-8.034.129-1.014-.519-3.189-.851-3.377l-2.375-1.742-2.98-2.375c1.886-6.826 2.491-7.415 7.664-7.833z" fill="#5878C3"/><path d="M140.108 100.413l4.832 29.394-8.621 6.833a.246.246 0 00.165.44c8.09-.402 12.412-.736 12.965-1.001.553-.265.769-1.42.649-3.465l-3.247-33.147m-18.408.164l3.733 31.604-7.95 5.959a.249.249 0 00-.086.281.254.254 0 00.095.122.254.254 0 00.149.042l10.487-.475m.134-37.126l3.148 33.332m-6.007-91.848c.322.151.671.237 1.026.253a4.46 4.46 0 001.55-.186m-5.642 10.282c-1.017 1.66-1.514 3.338-1.493 5.035.021 1.697.397 2.964 1.128 3.8l-.403 5.602m2.338-5.164c1.139.909 2.151 1.394 3.035 1.455" stroke="#1D252E" stroke-width=".5" stroke-linecap="round"/><path d="M138.455 53.212l-.924 3.366-7.758-2.823-2.448-1.358-2.743.184s-1.838-.327-2.533.633c-.915 1.28 4.092 3.37 4.433 3.236l1.597-.071 10.924 5.54 2.242.634 1.216-.712 1.673-7.004c-1.46-2.351-3.334-2.966-5.679-1.625z" fill="#E4897B"/><path d="M143.901 55.812c-.72 3.258-1.548 6.398-2.519 6.603-.97.206-5.401-1.805-13.298-6.036l-1.598.07c-3.738-1.215-4.735-2.189-4.455-3.085.28-.896 3.979-1.041 4.929-.923.633.08 1.616.547 2.948 1.404l7.581 2.757.583-1.998m-25.369-4.126s-1.566-.883-1.802-.437c-.235.447 1.725 1.525 1.725 1.525" stroke="#1D252E" stroke-width=".5" stroke-linecap="round"/><path d="M40.771 59.835l-.95-3.922-6.117 3.944 1.688 3.972s-.42 2.85 2.457 2.427c1.859 1.108 17.3-5.87 17.3-5.87l1.084-.681c2.986-1.006 5.283-2.371 6.891-4.096 2.411-2.588-1.007-3.176-2.905-2.533-1.898.643-3.38 2.038-4.01 2.728-.63.69-1.14 1.203-2.09 1.593-2.606.633-10.583 1.583-13.348 2.442" fill="#E4897B"/><path d="M39.245 60.22c2.764-.862 12.268-2.193 14.874-2.831.95-.39 1.461-.904 2.09-1.593.628-.689 2.11-2.09 4.01-2.728 1.9-.638 5.316-.05 2.905 2.533-1.608 1.73-3.906 3.097-6.891 4.104l-1.083.68s-14.824 7.166-18.756 5.754c-1.108-.399-1.002-2.31-1.002-2.31l-1.007-2.482m5.696-4.622l.868 3.056" stroke="#1D252E" stroke-width=".5" stroke-linecap="round" stroke-linejoin="round"/><path d="M61.589 48.425l-3.958 8.27 2.43 4.14.627-.248 3.937-8.127-2.424-4.132-.612.097z" fill="#5878C3"/><path d="M62.026 49.598l1.663 2.834-3.41 7.151m-1.069-4.208l-.63 1.314.414.701" stroke="#1D252E" stroke-width=".5" stroke-linecap="round" stroke-linejoin="round"/><path d="M55.916 57.22c2.744-.537 4.246-1.13 4.506-1.777.26-.647-.374-.91-1.9-.792 0 0-3.776 2.138-2.606 2.57z" fill="#fff"/><path d="M58.519 54.651c1.53-.118 2.162.146 1.9.792-.263.646-1.764 1.239-4.503 1.778" stroke="#1D252E" stroke-width=".5" stroke-linecap="round" stroke-linejoin="round"/><path d="M17.302 42.608l2.375-.684.543-4.771c-1.048-1.177-.863-1.037-1.244-2.514l-1.132-.129-.564-1.07.317-1.133.358-.336-.458-1.982 7.547-.499.437.25.988 1.966.518 2.217-.488 1.887c-.87 1.205-.857 1.178-2.121 1.949l-.464-.052-.439 4.412 3.268-.11-3.04 3.384-6.477.098.076-2.883z" fill="#E4897B"/><path d="M18.236 42.276a39.48 39.48 0 011.436-.352c.089-1.432.27-3.023.543-4.771-.969-.93-.984-1.118-1.235-2.507-2.423.168-2.127-3.313.143-2.67m6.844-1.136c1.993 2.784.644 6.537-2.208 6.982l-.29 4.303 1.645-.068" stroke="#1D252E" stroke-width=".5" stroke-linecap="round" stroke-linejoin="round"/><path d="M3.146 126.476C2.729 128.971.5 135.079.5 135.079s12.056 4.347 12.62 4.018c.723-.423-3.034-3.51-5.331-8.884l.616-2.647m21.42-.853l-.127 10.607s12.777.659 13.185.159c.526-.653-4.08-2.692-8.178-7.9l.27-2.85" fill="#1D252E"/><path d="M10.04 73.37l-.776 28.37-7.608 23.999c3.958 1.667 6.522 3.483 9.598 2.677l8.452-23.431.501-19.416c.567.144 1.41-.02 1.978-.369l3.735 20.493 2.958 20.805c4.25.755 5.497 1.079 9.229.316l-2.967-21.808-4.324-29.272-20.776-2.363z" fill="#1D252E"/><path d="M17.812 31.361a2.49 2.49 0 011.548-.14" stroke="#1D252E" stroke-width=".5" stroke-linecap="round" stroke-linejoin="round"/><path d="M17.575 30.823c.83-.268 1.531-.369 2.105-.303.08-.255.18-.54.296-.854 1.116 1.461 2.954 1.54 5.516.235 4.75-3.052-2.128-10.702-6.29-4.024-2.821.18-2.584 2.166-1.627 4.946z" fill="#1D252E"/><path d="M17.046 42.77c2.216 3.582 8.158 2.533 9.06-.436 1.19-.334 6.111.866 8.516 2.185 2.016 2.516 6.154 8.347 6.715 10.608-2.518.922-5.21 3.406-7.633 5.715l-1.882 14.921c-10.91 2.093-12.89 2.137-22.768-2.375l.7-9.657C7.46 53.645 6.01 50.89 7.83 47.456c1.681-3.192 3.569-2.764 9.216-4.686z" fill="#5878C3"/><path d="M3.146 126.476C2.729 128.971.5 135.079.5 135.079s12.056 4.347 12.62 4.018c.723-.423-3.034-3.51-5.331-8.884m22.036-3.5l-.127 10.607s12.777.659 13.185.159c.526-.653-4.08-2.692-8.178-7.9m-.619-76.913s-.127 7.332-.762 12.225m-2.948 9.239c1.564-2.996-.166-4.693 1.233-7.649" stroke="#1D252E" stroke-width=".5" stroke-linecap="round" stroke-linejoin="round"/><path d="M15.277 54.837c1.072 2.03 3.073 8.983 3.073 8.983s10.345-2.556 11.345-2.64c1.584-.758 9.928-3.144 10.125.873.196 4.016-7.262 2.975-9.648 2.577-3.238.581-12.36 4.704-14.749 3.279-3.59-2.375-4.759-6.521-6.456-10.371-1.16-2.701 5.153-5.407 6.31-2.701z" fill="#E4897B"/><path d="M16.612 58.253a149.297 149.297 0 011.742 5.571s10.344-2.555 11.345-2.639c1.583-.758 9.928-3.144 10.124.873.196 4.016-7.262 2.974-9.648 2.577-3.238.581-12.36 4.81-14.749 3.279-2.058-1.365-3.325-3.325-4.354-5.464" stroke="#1D252E" stroke-width=".5" stroke-linecap="round" stroke-linejoin="round"/><path d="M17.478 56.212c-1.732.159-4.183 2.595-8.017 6.238l-2.058-8.574 7.862-2.788 2.213 5.124zm90.536-30.762c0 3.584-.67 6.757-1.997 9.43a29.285 29.285 0 01-4.822 7.085c-1.916 2.04-5.399 5.518-10.352 10.337l-.013.011a45.516 45.516 0 00-3.39 3.69 15.579 15.579 0 00-1.982 3.048 15.99 15.99 0 00-1.008 2.76c-.103.402-.176 1.59-.372 5.479-.254 5.017-.442 8.112-.642 9.095v.038c-.913 5.432-4.013 6.06-6.267 6.06-1.846 0-3.355-.633-4.61-1.947-1.256-1.314-1.888-3.324-1.888-6.003 0-3.705.554-16.782 1.517-19.267a23.92 23.92 0 014.032-6.873c1.713-2.015 4.066-4.455 6.995-7.248 2.623-2.512 4.483-4.357 5.666-5.645a20.025 20.025 0 003.076-4.433 11.894 11.894 0 001.298-5.49c0-3.79-1.317-7.033-3.913-9.645-2.597-2.613-5.985-3.94-10.057-3.94-4.75 0-8.32 1.356-10.618 4.025-2.216 2.579-4.039 6.235-5.555 11.179l-.016.05c-1.257 4.541-3.513 6.747-6.893 6.747-1.997 0-3.642-.748-5.014-2.285-1.373-1.537-2.092-3.233-2.092-5.005 0-4 1.205-8.126 3.583-12.258S58.587 6.828 63.169 4.1C67.75 1.373 73.165 0 79.285 0c5.7 0 10.788 1.154 15.132 3.432 4.345 2.279 7.706 5.383 10.055 9.275a23.962 23.962 0 013.542 12.743zm-21.286 77.585c0 2.57-.792 4.517-2.407 5.956a8.325 8.325 0 01-5.674 2.186 8.655 8.655 0 01-5.835-2.162c-1.636-1.425-2.429-3.374-2.429-5.98 0-2.3.778-4.18 2.375-5.745 1.597-1.566 3.534-2.337 5.885-2.337 2.303 0 4.186.763 5.753 2.329 1.567 1.566 2.332 3.449 2.332 5.753z" fill="#5878C3"/><path d="M75.5 146c41.421 0 75-1.119 75-2.5s-33.579-2.5-75-2.5-75 1.119-75 2.5 33.579 2.5 75 2.5z" fill="#F5F5F5" fill-opacity=".1"/></svg>