<svg width="145" height="140" fill="none" xmlns="http://www.w3.org/2000/svg"><g clip-path="url(#clip0_139_622)"><g clip-path="url(#clip1_139_622)"><path d="M147.167 109.719h-150v.075h150v-.075zm-15.03 4.829h-9.936v.075h9.936v-.075zm-13.714 0H97.181v.075h21.242v-.075zm-32.956-2.786h-5.758v.075h5.758v-.075zm-62.275.505H12.905v.075h10.287v-.075zm21.375 0H25.863v.075h18.704v-.075zm20.144 1.266H53.667v.075H64.71v-.075z" fill="#EBEBEB" fill-opacity=".1"/><path d="M98.267 108.035h5.552v-40.37h-5.552v40.37zm-56.686 1.684h61.172v-1.683H41.581v1.683z" fill="#F0F0F0" fill-opacity=".1"/><path d="M98.267 67.666H40.515v40.37h57.752v-40.37z" fill="#F5F5F5" fill-opacity=".1"/><path d="M98.267 67.666h5.552v-1.47h-5.552v1.47z" fill="#E6E6E6" fill-opacity=".1"/><path d="M98.267 66.196H40.515v1.47h57.752v-1.47z" fill="#F0F0F0" fill-opacity=".1"/><path d="M96.27 79.84H42.511v-9.09h53.76v9.09zm-53.385-.374h53.012v-8.343H42.885v8.343zm53.385 25.485H42.511V82.068h53.76v22.883zm-53.385-.373h53.012V82.442H42.885v22.136z" fill="#E0E0E0" fill-opacity=".1"/><path d="M49.754 72.132h39.273v-1.195H49.754v1.195zm0 11.318h39.273v-1.195H49.754v1.195z" fill="#E0E0E0" fill-opacity=".1"/><path d="M123.438 108.648a.446.446 0 01-.445-.445V38.878c0-.245.2-.445.445-.445.244 0 .444.2.444.445v69.325c0 .245-.2.445-.444.445z" fill="#F5F5F5" fill-opacity=".1"/><path d="M125.55 109.719h-4.224v-.924c0-.673.545-1.219 1.218-1.219h1.787a1.22 1.22 0 011.219 1.219v.924z" fill="#F0F0F0" fill-opacity=".1"/><path d="M114.808 48.085s.22-8.483 8.63-8.483 8.629 8.483 8.629 8.483h-17.259z" fill="#E0E0E0" fill-opacity=".1"/><path d="M20.896 108.648a.446.446 0 01-.445-.445V38.878c0-.245.2-.445.445-.445.244 0 .444.2.444.445v69.325c0 .245-.2.445-.444.445z" fill="#F5F5F5" fill-opacity=".1"/><path d="M23.008 109.719h-4.224v-.924a1.22 1.22 0 011.219-1.219h1.786a1.22 1.22 0 011.219 1.219v.924z" fill="#F0F0F0" fill-opacity=".1"/><path d="M12.267 48.085s.22-8.483 8.629-8.483c8.41 0 8.63 8.483 8.63 8.483h-17.26zM82.981 65.56H61.64v.636h21.34v-.636zm0 0H61.64l2.054-12.218h21.342L82.981 65.56z" fill="#E0E0E0" fill-opacity=".1"/><path d="M82.585 65.56H61.242l2.055-12.218h21.342L82.585 65.56z" fill="#EBEBEB" fill-opacity=".1"/><path d="M62.053 64.6L63.8 54.21a.274.274 0 01.27-.228h19.488c.17 0 .298.152.27.32L82.082 64.69a.274.274 0 01-.27.228H62.323a.274.274 0 01-.27-.32z" fill="#FAFAFA" fill-opacity=".1"/><path d="M78.152 65.56H56.81v.636h21.342v-.636z" fill="#F0F0F0" fill-opacity=".1"/><path d="M100.033 21.327H43.49v18.275h56.543V21.327z" fill="#EBEBEB" fill-opacity=".1"/><path d="M100.033 39.602h.811V21.327h-.811v18.275z" fill="#E0E0E0" fill-opacity=".1"/><path d="M97.558 23.803H45.966v13.323h51.592V23.803z" fill="#fff" fill-opacity=".1"/><path d="M74.866 30.464l-3.105-3.105-3.105 3.105 3.105 3.105 3.105-3.105zm-8.336 0l-3.105-3.105-3.105 3.105 3.105 3.105 3.105-3.105zm-8.336 0l-3.105-3.105-3.105 3.105 3.105 3.105 3.105-3.105zm25.009 0l-3.106-3.105-3.105 3.105 3.105 3.105 3.106-3.105zm8.337 0l-3.106-3.106-3.105 3.106 3.105 3.105 3.105-3.105zm-19.373 92.804c32.125 0 58.167-1.52 58.167-3.396 0-1.877-26.042-3.397-58.167-3.397S14 117.995 14 119.872c0 1.876 26.042 3.396 58.167 3.396z" fill="#F5F5F5" fill-opacity=".1"/><path d="M106.048 31.914c.099-1.493-1.031-2.704-2.524-2.704h-41.53c-1.494 0-2.785 1.21-2.884 2.704l-.953 14.374-5.98 44.235c-.202 1.493.845 2.704 2.339 2.704h41.53c1.494 0 2.868-1.21 3.07-2.704l5.98-44.235.952-14.374z" fill="#407BFF"/><path opacity=".2" d="M106.048 31.914c.099-1.493-1.031-2.704-2.524-2.704h-41.53c-1.494 0-2.785 1.21-2.884 2.704l-.953 14.374-5.98 44.235c-.202 1.493.845 2.704 2.339 2.704h41.53c1.494 0 2.868-1.21 3.07-2.704l5.98-44.235.952-14.374z" fill="#000" fill-opacity=".1"/><path d="M94.568 93.227h-41.53c-1.494 0-2.541-1.21-2.34-2.704l5.98-44.235h46.939l-5.98 44.235c-.201 1.493-1.576 2.704-3.069 2.704zM68.167 28.16h-6.185v.3h6.185v-.3zm-9.111.62l-.125-.274a3.81 3.81 0 011.584-.346v.3c-.502 0-.993.107-1.46.32zm42.989.43h-41.53c-1.494 0-2.785 1.21-2.884 2.704l-.953 14.374h46.939l.953-14.374c.099-1.493-1.031-2.704-2.525-2.704z" fill="#407BFF"/><path opacity=".9" d="M58.997 42.778l.667-10.058a1.544 1.544 0 011.518-1.424h39.919c.787 0 1.382.638 1.33 1.424l-.667 10.058a1.544 1.544 0 01-1.518 1.424h-39.92a1.316 1.316 0 01-1.329-1.424z" fill="#fff" fill-opacity=".1"/><path d="M98.226 32.945l-.453.423a.122.122 0 01-.084.033h-2.406a.123.123 0 01-.09-.04l-.39-.421a.123.123 0 01.09-.206h3.249a.122.122 0 01.084.211zm-.637 7.795l-3.25.001a.123.123 0 01-.084-.212l.452-.422a.123.123 0 01.084-.033h2.406c.034 0 .067.013.09.038l.392.423a.123.123 0 01-.09.206zm.316-3.919l-.233.217a.123.123 0 01-.084.033h-2.815a.123.123 0 01-.122-.131l.03-.423a.123.123 0 01.123-.113h2.828c.034 0 .067.013.09.038l.19.206a.123.123 0 01-.007.173zm.384.229l-.238 3.258a.123.123 0 01-.212.074l-.39-.422a.122.122 0 01-.031-.092l.176-2.415a.12.12 0 01.039-.08l.45-.421a.122.122 0 01.206.098zm.281-3.853l-.238 3.257a.123.123 0 01-.212.074l-.389-.422a.122.122 0 01-.032-.092l.176-2.415a.122.122 0 01.039-.08l.45-.421a.123.123 0 01.206.099z" opacity=".4" fill="#fff"/><path opacity=".4" d="M93.023 42.086a.454.454 0 01.445-.417h5.094c.255 0 .45.208.433.462a.454.454 0 01-.446.417h-5.094a.428.428 0 01-.432-.462zm-6.378 0a.454.454 0 01.445-.417h5.094c.255 0 .45.208.433.462a.454.454 0 01-.446.417h-5.094a.428.428 0 01-.432-.462zm-6.378 0a.454.454 0 01.445-.417h5.094c.255 0 .45.208.433.462a.454.454 0 01-.446.417H80.7a.429.429 0 01-.432-.462zm-6.378 0a.454.454 0 01.445-.417h5.094c.255 0 .45.208.433.462a.454.454 0 01-.445.417H74.32a.429.429 0 01-.432-.462z" fill="#EFE6FD"/><path opacity=".1" d="M59.805 66.813l1.877-13.884c.124-.919.97-1.663 1.889-1.663h13.883c.919 0 1.563.745 1.439 1.663l-1.877 13.883c-.124.92-.97 1.664-1.889 1.664H61.244c-.919 0-1.563-.745-1.439-1.663zm19.774 0l1.876-13.884c.125-.919.97-1.663 1.89-1.663h13.882c.92 0 1.564.745 1.44 1.663L96.79 66.812c-.125.92-.97 1.664-1.89 1.664H81.019c-.92 0-1.564-.745-1.44-1.663zM57.132 86.586l1.877-13.883c.124-.92.97-1.664 1.889-1.664H74.78c.919 0 1.563.745 1.44 1.664l-1.878 13.883c-.124.919-.97 1.663-1.889 1.663H58.572c-.919 0-1.563-.744-1.439-1.663zm19.774 0l1.876-13.883c.125-.92.97-1.664 1.89-1.664h13.882c.92 0 1.564.745 1.44 1.664l-1.877 13.883c-.125.919-.97 1.663-1.89 1.663H78.346c-.92 0-1.564-.744-1.44-1.663z" fill="#263238"/><path d="M58.881 66.813l1.877-13.884c.124-.919.97-1.663 1.889-1.663H76.53c.919 0 1.563.745 1.44 1.663l-1.878 13.883c-.124.92-.97 1.664-1.888 1.664H60.32c-.919 0-1.563-.745-1.439-1.663z" fill="#407BFF"/><path opacity=".2" d="M58.881 66.813l1.877-13.884c.124-.919.97-1.663 1.889-1.663H76.53c.919 0 1.563.745 1.44 1.663l-1.878 13.883c-.124.92-.97 1.664-1.888 1.664H60.32c-.919 0-1.563-.745-1.439-1.663z" fill="#fff"/><path d="M78.655 66.813l1.876-13.884c.125-.919.97-1.663 1.89-1.663h13.882c.92 0 1.564.745 1.44 1.663l-1.877 13.883c-.125.92-.97 1.664-1.89 1.664H80.095c-.92 0-1.564-.745-1.44-1.663z" fill="#407BFF"/><path opacity=".2" d="M78.655 66.813l1.876-13.884c.125-.919.97-1.663 1.89-1.663h13.882c.92 0 1.564.745 1.44 1.663l-1.877 13.883c-.125.92-.97 1.664-1.89 1.664H80.095c-.92 0-1.564-.745-1.44-1.663z" fill="#fff"/><path d="M56.208 86.586l1.877-13.883c.124-.92.97-1.664 1.889-1.664h13.883c.919 0 1.563.745 1.439 1.664l-1.877 13.883c-.124.919-.97 1.663-1.889 1.663H57.647c-.919 0-1.563-.744-1.439-1.663z" fill="#407BFF"/><path opacity=".2" d="M56.208 86.586l1.877-13.883c.124-.92.97-1.664 1.889-1.664h13.883c.919 0 1.563.745 1.439 1.664l-1.877 13.883c-.124.919-.97 1.663-1.889 1.663H57.647c-.919 0-1.563-.744-1.439-1.663z" fill="#fff"/><path d="M75.981 86.586l1.877-13.883c.124-.92.97-1.664 1.89-1.664H93.63c.92 0 1.564.745 1.44 1.664l-1.877 13.883c-.125.919-.97 1.663-1.89 1.663H77.422c-.92 0-1.564-.744-1.44-1.663z" fill="#407BFF"/><path opacity=".2" d="M75.981 86.586l1.877-13.883c.124-.92.97-1.664 1.89-1.664H93.63c.92 0 1.564.745 1.44 1.664l-1.877 13.883c-.125.919-.97 1.663-1.89 1.663H77.422c-.92 0-1.564-.744-1.44-1.663z" fill="#fff"/><path d="M67.644 65.647c-.917 0-1.565-.75-1.441-1.666l1.111-8.22c.124-.917.975-1.666 1.892-1.666.916 0 1.564.75 1.44 1.666l-1.11 8.22c-.124.916-.976 1.666-1.892 1.666z" fill="#fff" fill-opacity=".5"/><path d="M62.649 59.871c.124-.916.975-1.666 1.891-1.666h8.22c.917 0 1.565.75 1.441 1.666-.123.916-.975 1.666-1.891 1.666h-8.22c-.917 0-1.565-.75-1.441-1.666zm-1.534 23.858c-.56-.648-.417-1.709.319-2.356l6.598-5.813c.736-.648 1.796-.648 2.357 0 .56.648.417 1.709-.319 2.356l-6.598 5.813c-.736.648-1.796.648-2.357 0z" fill="#fff" fill-opacity=".5"/><path d="M62.22 75.56c.735-.648 1.796-.648 2.356 0l5.027 5.813c.56.647.417 1.708-.319 2.356-.735.648-1.796.648-2.356 0L61.9 77.916c-.56-.648-.417-1.708.319-2.356zm20.202-15.689c.124-.916.975-1.666 1.891-1.666h8.22c.917 0 1.566.75 1.442 1.666-.124.916-.975 1.666-1.892 1.666h-8.22c-.916 0-1.565-.75-1.441-1.666zM80.1 77.054c.123-.916.974-1.666 1.89-1.666h8.22c.917 0 1.566.75 1.442 1.666-.124.917-.975 1.667-1.892 1.667h-8.22c-.916 0-1.565-.75-1.44-1.667zm-.701 5.181c.124-.917.975-1.666 1.891-1.666h8.22c.917 0 1.565.75 1.441 1.666-.123.916-.974 1.666-1.891 1.666h-8.22c-.916 0-1.565-.75-1.441-1.666z" fill="#fff" fill-opacity=".5"/><path d="M37.174 48.911c-.54 1-1.095 2.08-1.601 3.136a42.797 42.797 0 00-1.416 3.212c-.11.27-.2.54-.302.81a1.44 1.44 0 00-.103.436c-.029.337.058.78.23 1.243.352.924 1.013 1.927 1.695 2.8l-1.021 1.212a8.81 8.81 0 01-.823-.593 9.309 9.309 0 01-.754-.662 8.34 8.34 0 01-1.315-1.626c-.378-.626-.7-1.366-.785-2.255a4.016 4.016 0 01.108-1.378c.087-.312.165-.63.259-.938.37-1.239.82-2.433 1.33-3.593.258-.58.521-1.155.811-1.716.293-.568.572-1.113.918-1.689l2.77 1.601z" fill="#FF8B7B"/><path d="M35.26 60.2l1.509.394-1.114 2.168s-1.116-.423-1.394-1.406l1-1.157z" fill="#FF8B7B"/><path d="M38.836 61.28l-1.342 1.7-1.84-.217 1.115-2.17 2.067.687z" fill="#FF8B7B"/><path d="M44.248 37.47c.034.166.15.283.259.261.109-.022.17-.175.136-.342-.034-.167-.15-.284-.26-.262-.108.022-.169.176-.135.342z" fill="#263238"/><path d="M44.382 37.757s.575.885 1.087 1.264c-.24.335-.767.312-.767.312l-.32-1.576z" fill="#FF5652"/><path d="M44.609 38.891c-.488 0-.974-.534-1.123-1.267-.078-.384-.054-.766.07-1.074.124-.315.336-.517.595-.57.26-.052.533.051.77.292.234.236.406.578.484.962.078.385.054.766-.07 1.075-.124.314-.336.516-.595.569a.666.666 0 01-.131.013zm-.324-2.849c-.04 0-.08.004-.119.012-.233.048-.426.234-.541.524-.118.295-.141.662-.066 1.032.154.758.674 1.296 1.166 1.194.233-.047.426-.233.541-.523.118-.295.141-.661.066-1.032-.075-.37-.24-.698-.463-.924-.183-.185-.387-.283-.584-.283z" fill="#263238"/><path d="M60.058 54.759l1.924-.407.249 2.61s-1.662.318-2.458-.996l.285-1.207z" fill="#FF8B7B"/><path d="M63.8 54.937l-.122 1.904-1.447.122-.25-2.611 1.82.585z" fill="#FF8B7B"/><path d="M43.45 36.667a.1.1 0 01-.073-.168.99.99 0 01.85-.33.1.1 0 01.081.115.1.1 0 01-.114.082.793.793 0 00-.671.27.101.101 0 01-.074.031z" fill="#263238"/><path d="M39.616 40.505c.303 1.544.486 3.682-.594 4.713 0 0 .422 1.566 3.29 1.566 3.154 0 1.518-1.375 1.518-1.375-1.311-.407-1.3-1.9-1-3.1l-3.214-1.804z" fill="#FF8B7B"/><path d="M42.856 44.842c.708-.508 1.757-1.108 1.975-.484.131.378.185 2.209-.544 2.072-1.077-.201-1.431-1.588-1.431-1.588z" fill="#263238"/><path d="M38.43 46.25c-.28-.398-.269-1.655.031-1.876.484-.358 2.555-.44 5.345.2-.3 1.218.343 1.856.343 1.856l-5.718-.18zm-9.375 71.221c.211.046.423.058.525-.029.043-.036.086-.106.049-.232a.232.232 0 00-.13-.147c-.284-.136-.939.131-.967.142a.051.051 0 00-.03.045.05.05 0 00.028.047c.1.048.312.128.525.174zm.343-.337a.314.314 0 01.059.019c.04.019.064.047.076.086.026.09-.007.118-.018.127-.113.097-.535.008-.832-.111.202-.071.528-.162.715-.121z" fill="#407BFF"/><path d="M28.54 117.3a.051.051 0 00.025 0c.239-.07.75-.433.755-.672.002-.043-.014-.122-.127-.162a.278.278 0 00-.222.018c-.282.144-.46.729-.468.753a.05.05 0 00.012.05.053.053 0 00.026.013zm.598-.746l.022.007c.062.021.06.052.06.064-.003.142-.34.426-.587.542.062-.169.203-.502.384-.594a.182.182 0 01.121-.019zm15.496 1.271c.27 0 .532-.037.62-.159.03-.042.055-.115-.004-.218a.247.247 0 00-.159-.117c-.35-.096-1.088.324-1.12.342a.051.051 0 00-.024.052.05.05 0 00.04.041c.134.027.395.059.647.059zm.335-.409c.035 0 .067.004.096.011a.154.154 0 01.098.07c.036.062.023.093.01.111-.098.136-.632.139-1.024.084.196-.101.573-.276.82-.276z" fill="#407BFF"/><path d="M43.997 117.767a.05.05 0 00.02-.005c.255-.114.76-.57.72-.809-.008-.056-.048-.126-.185-.14a.367.367 0 00-.277.086c-.269.221-.326.789-.328.813a.048.048 0 00.02.045c.01.006.02.01.03.01zm.514-.856l.03.002c.09.009.096.044.098.056.023.143-.32.502-.58.658.027-.166.103-.506.279-.651a.27.27 0 01.173-.065z" fill="#407BFF"/><path d="M41.676 117.717h2.11l.21-4.887h-2.11l-.21 4.887zm-15.487-.977l2.062.446 2.07-4.551-2.062-.447-2.07 4.552z" fill="#FF8B7B"/><path d="M28.45 116.979l-2.318-.501a.184.184 0 00-.206.103l-.804 1.745a.31.31 0 00.223.432c.811.161 1.215.198 2.234.419.627.136 2.041.481 2.907.668.847.183 1.164-.644.827-.799-1.514-.691-2.146-1.3-2.556-1.868a.515.515 0 00-.308-.199zm15.323.494h-2.305c-.086 0-.16.06-.18.144l-.416 1.875a.307.307 0 00.303.376c.832-.015 2.033-.063 3.078-.063 1.221 0 2.276.066 3.71.066.865 0 1.106-.876.743-.955-1.65-.361-2.998-.4-4.425-1.279a.976.976 0 00-.508-.164z" fill="#263238"/><path d="M35.243 45.694c-1.977.454-3.608 5.503-3.608 5.503l3.971 3.027s1.458-1.374 2.107-3.9c.68-2.646-.447-5.093-2.47-4.63z" fill="#407BFF"/><path opacity=".4" d="M35.243 45.694c-1.977.454-3.608 5.503-3.608 5.503l3.971 3.027s1.458-1.374 2.107-3.9c.68-2.646-.447-5.093-2.47-4.63z" fill="#fff"/><path d="M47.102 48.103l3.333 3.066c.554.51 1.11 1.016 1.668 1.514.552.497 1.117.997 1.652 1.43l-.464-.25c.258.095.529.188.812.264.285.073.58.139.882.2.607.109 1.24.189 1.885.24.645.056 1.304.09 1.969.109.66.023 1.35.033 1.999.038l.315 1.552c-.707.263-1.387.453-2.1.613-.709.153-1.43.263-2.164.33-.735.062-1.483.082-2.248.031a10.511 10.511 0 01-2.348-.402l-.227-.067-.237-.182a44.726 44.726 0 01-1.832-1.508 141.415 141.415 0 01-1.728-1.526 157.523 157.523 0 01-3.36-3.124l2.194-2.328z" fill="#FF8B7B"/><path opacity=".2" d="M36.938 49.407c-1.074 1.063-1.424 2.999-1.508 4.682l.175.135s1.46-1.376 2.109-3.9c.04-.158.075-.316.103-.472l-.879-.445z" fill="#000" fill-opacity=".1"/><path d="M47.741 47.81c.431 2.28.701 6.961-.551 16.232H35.904c-.078-1.733 1.01-10.184-.66-18.347 0 0 1.934-.389 3.778-.477 1.442-.07 3.53-.116 4.797 0 .53.048 1.049.125 1.512.207a2.986 2.986 0 012.41 2.386z" fill="#407BFF"/><path opacity=".4" d="M47.741 47.81c.431 2.28.701 6.961-.551 16.232H35.904c-.078-1.733 1.01-10.184-.66-18.347 0 0 1.934-.389 3.778-.477 1.442-.07 3.53-.116 4.797 0 .53.048 1.049.125 1.512.207a2.986 2.986 0 012.41 2.386z" fill="#fff"/><path opacity=".2" d="M46.014 51.18l2.04-.489c.063 1.235.068 2.766-.024 4.66-.94-1.07-2.137-2.735-2.016-4.171zm-2.018 61.652l-.108 2.518h-2.11l.107-2.518h2.111zm-15.738-.643l2.064.447-1.069 2.346-2.063-.447 1.068-2.346z" fill="#000" fill-opacity=".1"/><path d="M38.613 38.246c.542 2.023.757 3.235 2.005 4.076 1.878 1.265 4.215-.187 4.288-2.331.066-1.93-.831-4.914-3.002-5.322-2.139-.4-3.833 1.555-3.29 3.577z" fill="#FF8B7B"/><path d="M43.202 38.4c.947-.133.676-1.23.32-1.765 0 0 2.115-2.535-.32-3.56s-1.835.575-1.835.575-1.9-1.425-3.55-.275-.225 1.65-.225 1.65-3.005.883-1.803 2.404c1.203 1.52 2.439 1.365 2.439 1.365s-2.486.98-.586 2.081c1.9 1.1 2.596 1.15 2.596 1.15a2.154 2.154 0 002.328-1.515l.636-2.11z" fill="#263238"/><path d="M42.387 38.407c.033.548.287 1.063.593 1.4.46.507.94.191 1.021-.426.074-.556-.077-1.489-.64-1.768-.554-.276-1.011.168-.974.794z" fill="#FF8B7B"/><path d="M43.186 64.042s-2.394 16.126-3.71 22.167c-1.439 6.616-9.158 28.504-9.158 28.504l-3.778-.817s5.398-17.838 6.607-27.087c.928-7.105 2.757-22.767 2.757-22.767h7.282z" fill="#263238"/><path d="M31.222 113.453c.016.003-.704 1.365-.704 1.365l-4.25-.92.358-1.277 4.596.832z" fill="#407BFF"/><path opacity=".3" d="M41.673 69.788c-2.77.543-2.476 10.869-2.143 16.18.798-3.755 1.967-10.979 2.766-16.106a.946.946 0 00-.623-.074z" fill="#000" fill-opacity=".1"/><path d="M47.19 64.042s.29 15.777.061 22.212c-.239 6.693-2.576 28.609-2.576 28.609H41.1s-.13-21.525-.29-28.098c-.173-7.166-1.038-22.723-1.038-22.723h7.418z" fill="#263238"/><path d="M45.362 113.439c.017 0-.201 1.484-.201 1.484h-4.349l-.117-1.325 4.667-.159zm-2.044-64.937c-1.012 2.727 4.933 5.939 4.933 5.939l2.573-3.308S49.107 47.716 47 46.175c-2.602-1.903-2.912.252-3.682 2.328z" fill="#407BFF"/><path opacity=".4" d="M43.318 48.502c-1.012 2.727 4.933 5.939 4.933 5.939l2.573-3.308S49.107 47.716 47 46.175c-2.602-1.903-2.912.252-3.682 2.328z" fill="#fff"/><path d="M60.396 55.583c.407 0 .738-.248.738-.554 0-.306-.33-.554-.738-.554-.407 0-.737.248-.737.554 0 .306.33.554.737.554z" fill="#263238"/><path d="M60.109 56.791a.15.15 0 01-.098-.264c.02-.016.403-.367.238-1.18a.15.15 0 11.294-.06c.203 1-.315 1.45-.337 1.47a.15.15 0 01-.097.035z" fill="#263238"/><path opacity=".4" d="M60.995 54.99c0 .226-.268.41-.599.41-.33 0-.6-.184-.6-.41 0-.228.27-.412.6-.412.331 0 .6.184.6.411z" fill="#fff"/><path d="M44.25 45.242c-1.382.986-3.773 4.8-4.214 7.053a.075.075 0 01-.137.025c-1.999-3.187-2.23-6.45-2.254-6.98a.072.072 0 00-.08-.07c-.203.017-.76.067-1.003.124a.074.074 0 00-.055.076c.18 4.255 2.322 7.51 3.156 8.51.012.013.017.03.016.048-.186 3.376.06 9.408.09 10.127.001.04.034.07.074.07h.896a.073.073 0 00.074-.077c-.04-.692-.322-5.933.004-10.23l.001-.01c.505-3.198 3.539-7.52 4.604-8.377a.073.073 0 00-.03-.128c-.451-.1-.97-.16-1.092-.175a.069.069 0 00-.05.014z" fill="#407BFF"/></g></g><defs><clipPath id="clip0_139_622"><path fill="#fff" transform="translate(.5)" d="M0 0h144v140H0z"/></clipPath><clipPath id="clip1_139_622"><path fill="#fff" transform="translate(-2.833 -5)" d="M0 0h150v150H0z"/></clipPath></defs></svg>